<svg width="125" height="145" viewBox="0 0 125 145" fill="none" xmlns="http://www.w3.org/2000/svg">
<path d="M15.6435 51.3496C15.6126 51.2515 15.5821 51.1528 15.5527 51.0541L15.7081 51.0536C15.6871 51.1523 15.665 51.2515 15.6435 51.3496Z" fill="#DFE9FD"/>
<path d="M82.5125 69.6471C82.5314 68.8383 83.3622 68.1729 84.3798 68.1729H122.85C123.882 68.1729 124.895 68.873 124.895 69.6928V142.954C124.895 143.348 124.609 143.726 124.258 144.005C123.906 144.283 123.385 144.439 122.889 144.437L82.6663 144.35C82.1656 144.349 81.6759 144.189 81.3259 143.904C80.9758 143.62 80.7785 143.227 80.7874 142.829L82.5125 69.6471Z" fill="#BDD0FB"/>
<path d="M116.723 76.8008V72.3314H121.892L121.806 76.7955L116.723 76.8008Z" fill="#DEE8FD"/>
<path d="M121.649 84.8262L116.723 84.8235V80.3898L121.736 80.3914L121.649 84.8262Z" fill="#DEE8FD"/>
<path d="M121.494 92.7852L116.723 92.7815V88.3624L121.58 88.3656L121.494 92.7852Z" fill="#DEE8FD"/>
<path d="M121.339 100.719L116.723 100.714V96.3097L121.425 96.3144L121.339 100.719Z" fill="#DEE8FD"/>
<path d="M121.184 108.625L116.723 108.619V104.23L121.27 104.236L121.184 108.625Z" fill="#DEE8FD"/>
<path d="M121.03 116.504L116.723 116.496V112.123L121.116 112.13L121.03 116.504Z" fill="#DEE8FD"/>
<path d="M120.877 124.355L116.723 124.347V119.989L120.962 119.997L120.877 124.355Z" fill="#DEE8FD"/>
<path d="M120.724 132.18L116.723 132.17V127.827L120.809 127.836L120.724 132.18Z" fill="#DEE8FD"/>
<path d="M120.572 139.979L116.723 139.968V135.639L120.656 135.65L120.572 139.979Z" fill="#DEE8FD"/>
<path d="M115.511 143.979H30.0881C29.42 143.979 28.8789 143.437 28.8789 142.77V142.381V119.334V116.973V107.376V27.3348C28.8789 26.6672 29.42 26.1256 30.0881 26.1256H34.7444H35.5227H48.0225H65.8708C66.0088 26.6284 66.1673 27.1301 66.3421 27.6187C66.4176 27.8302 66.6165 27.962 66.8286 27.962C66.8396 27.962 66.8501 27.9614 66.8611 27.9609C66.9084 27.9577 66.9561 27.9478 67.0028 27.9315C67.2715 27.8349 67.4111 27.5395 67.3151 27.2708C67.1807 26.895 67.0564 26.5113 66.9446 26.1256H108.368H115.511C116.179 26.1256 116.72 26.6672 116.72 27.3348V39.5811V43.1363C116.646 43.1704 116.571 43.204 116.496 43.237C116.335 43.3079 116.261 43.4963 116.332 43.6574C116.384 43.7771 116.502 43.8484 116.625 43.8484C116.631 43.8484 116.638 43.8484 116.645 43.8479C116.67 43.8464 116.695 43.8416 116.72 43.8337V68.1757V72.3329V76.8023V80.3905V84.8243V88.3653V92.7843V96.3127V100.717V104.233V108.621V112.126V116.499V119.992V124.35V127.831V132.174V135.642V139.971V142.77C116.72 143.437 116.179 143.979 115.511 143.979ZM110.249 44.3098C110.082 44.3098 109.94 44.4373 109.928 44.6063C109.915 44.7821 110.048 44.9348 110.223 44.9474C110.547 44.97 110.873 44.9816 111.199 44.9816C111.431 44.9816 111.663 44.9758 111.894 44.9642L111.899 44.9637C112.072 44.9527 112.206 44.8036 112.197 44.6294C112.188 44.4588 112.048 44.326 111.879 44.326C111.873 44.326 111.868 44.326 111.862 44.3266C111.641 44.3376 111.419 44.3434 111.197 44.3434C110.887 44.3434 110.576 44.3323 110.269 44.3108C110.262 44.3103 110.255 44.3098 110.249 44.3098ZM115.091 43.7734C115.061 43.7734 115.03 43.7776 115 43.7865C114.492 43.9382 113.97 44.0605 113.447 44.1507C113.274 44.1807 113.157 44.3455 113.187 44.5192C113.214 44.6745 113.349 44.7842 113.501 44.7842C113.508 44.7842 113.515 44.7842 113.521 44.7837C113.533 44.7832 113.544 44.7816 113.555 44.7795C114.103 44.6855 114.651 44.557 115.183 44.3979C115.351 44.3476 115.447 44.1696 115.397 44.0012C115.356 43.8621 115.228 43.7734 115.091 43.7734ZM107.048 43.6847C106.913 43.6847 106.788 43.7702 106.744 43.9051C106.69 44.0725 106.781 44.2526 106.949 44.3072C107.476 44.4793 108.02 44.6205 108.566 44.7275C108.587 44.7317 108.608 44.7333 108.628 44.7333C108.635 44.7333 108.642 44.7333 108.648 44.7328C108.789 44.7239 108.912 44.621 108.941 44.4756C108.975 44.3029 108.862 44.1355 108.689 44.1014C108.168 43.9991 107.649 43.8642 107.146 43.7004C107.114 43.6899 107.08 43.6847 107.048 43.6847ZM104.096 42.307C103.989 42.307 103.885 42.3606 103.825 42.4571C103.731 42.6072 103.777 42.804 103.926 42.8969C104.398 43.1914 104.892 43.459 105.395 43.6941C105.439 43.7141 105.485 43.7241 105.53 43.7241C105.537 43.7241 105.543 43.7235 105.55 43.723C105.663 43.7162 105.769 43.649 105.82 43.5398C105.894 43.3798 105.825 43.1898 105.665 43.1153C105.185 42.8917 104.714 42.6361 104.264 42.3553C104.212 42.3228 104.153 42.307 104.096 42.307ZM101.557 40.2628C101.477 40.2628 101.396 40.2933 101.334 40.3536C101.208 40.4764 101.206 40.6785 101.329 40.8045C101.715 41.2018 102.131 41.5807 102.565 41.9297C102.623 41.9769 102.694 42.0005 102.764 42.0005C102.771 42.0005 102.778 42 102.784 41.9995C102.871 41.9942 102.954 41.9538 103.013 41.8814C103.123 41.7444 103.102 41.5434 102.965 41.4327C102.551 41.0994 102.155 40.7383 101.786 40.3594C101.723 40.2954 101.64 40.2628 101.557 40.2628ZM87.7224 40.1537C87.7051 40.1537 87.6878 40.1542 87.6705 40.1563C87.1205 40.2098 86.5689 40.2408 86.0257 40.2487C85.7402 40.2534 85.5124 40.4875 85.5166 40.7724C85.5203 41.0553 85.7512 41.282 86.0325 41.282C86.0351 41.282 86.0378 41.282 86.0404 41.282C86.3768 41.2773 86.7184 41.2637 87.057 41.2422C87.2942 41.2275 87.5325 41.208 87.7707 41.185C88.0547 41.1571 88.2625 40.9047 88.2352 40.6202C88.209 40.3536 87.9838 40.1537 87.7224 40.1537ZM81.625 39.8225C81.3857 39.8225 81.1705 39.9894 81.1196 40.2324C81.0608 40.5121 81.2393 40.7861 81.519 40.8449C82.0832 40.9635 82.6584 41.059 83.2289 41.1293C83.2504 41.132 83.2714 41.1335 83.2924 41.1335C83.3034 41.1335 83.3144 41.133 83.3254 41.1325C83.5684 41.1167 83.7742 40.9304 83.8051 40.6801C83.8398 40.3967 83.6388 40.139 83.3554 40.1038C82.8137 40.0372 82.2674 39.9464 81.7316 39.8335C81.6959 39.8257 81.6602 39.8225 81.625 39.8225ZM92.057 39.2441C92.004 39.2441 91.9494 39.2525 91.8959 39.2704C91.3768 39.4404 90.8436 39.5905 90.3104 39.717C90.0327 39.7831 89.8611 40.0613 89.9267 40.3389C89.9829 40.5767 90.1949 40.7367 90.429 40.7367C90.44 40.7367 90.4505 40.7362 90.4615 40.7357C90.4904 40.7336 90.5198 40.7294 90.5486 40.7226C91.1097 40.5898 91.6712 40.4313 92.2176 40.2523C92.4889 40.1636 92.6369 39.8718 92.5477 39.6005C92.4768 39.3832 92.2743 39.2441 92.057 39.2441ZM77.4217 38.4375C77.2254 38.4375 77.038 38.5493 76.9514 38.7393C76.8328 38.9991 76.9467 39.3055 77.2065 39.4242C77.7308 39.6635 78.2708 39.8839 78.8114 40.0776C78.8691 40.0986 78.9284 40.1085 78.9862 40.1085C78.9972 40.1085 79.0082 40.108 79.0187 40.1075C79.2182 40.0944 79.4008 39.9663 79.4727 39.7658C79.5687 39.4971 79.4291 39.2016 79.1604 39.1051C78.6471 38.9208 78.1344 38.712 77.6358 38.4842C77.5665 38.4522 77.4936 38.4375 77.4217 38.4375ZM99.5819 37.6686C99.5274 37.6686 99.4723 37.6828 99.4213 37.7122C99.2691 37.8009 99.2182 37.9966 99.3069 38.1488C99.5867 38.6275 99.9 39.0951 100.237 39.538C100.3 39.6204 100.395 39.664 100.491 39.664C100.498 39.664 100.505 39.6635 100.511 39.663C100.572 39.6593 100.633 39.6383 100.685 39.5984C100.825 39.4919 100.852 39.2914 100.745 39.1513C100.423 38.7293 100.125 38.2832 99.858 37.8266C99.7987 37.7253 99.6916 37.6686 99.5819 37.6686ZM96.0871 37.4078C95.9974 37.4078 95.9055 37.4314 95.8226 37.4807C95.3534 37.7615 94.8664 38.025 94.3746 38.2653C94.118 38.3903 94.012 38.6999 94.1369 38.956C94.2266 39.1397 94.4103 39.2462 94.6019 39.2462C94.6124 39.2462 94.6234 39.2462 94.6344 39.2452C94.7 39.241 94.7656 39.2242 94.8281 39.1938C95.3455 38.9413 95.8588 38.6632 96.3527 38.3677C96.5978 38.2213 96.6776 37.9043 96.5311 37.6597C96.4346 37.4975 96.2629 37.4078 96.0871 37.4078ZM73.8534 37.4938C74.1415 37.6975 74.4354 37.8948 74.7319 38.0827C74.818 38.1373 74.9135 38.163 75.0085 38.163C75.019 38.163 75.03 38.1625 75.0411 38.162C75.2006 38.152 75.3528 38.068 75.4452 37.9232C75.5979 37.6817 75.5265 37.3626 75.2851 37.2099C75.083 37.0819 74.8826 36.9496 74.6842 36.8131C75.0489 36.3623 75.2673 35.7876 75.2673 35.1626C75.2673 33.7114 74.0911 32.5348 72.6395 32.5348C71.9183 32.5348 71.2655 32.825 70.7905 33.2952C70.6887 33.1798 70.5465 33.1205 70.4032 33.1205C70.2851 33.1205 70.1665 33.1604 70.0694 33.2428C69.8516 33.4275 69.8248 33.7534 70.009 33.9712C70.0715 34.0447 70.1339 34.1176 70.1974 34.1901C70.0778 34.4908 70.0116 34.8188 70.0116 35.1626C70.0116 36.6137 71.1883 37.7904 72.6395 37.7904C73.0777 37.7904 73.4902 37.6833 73.8534 37.4938ZM98.9857 35.3022C98.8656 35.3022 98.7449 35.3442 98.6467 35.4297C98.4441 35.606 98.2368 35.7798 98.0295 35.9461C97.807 36.1246 97.7713 36.45 97.9497 36.6725C98.0516 36.7995 98.2017 36.8656 98.3528 36.8656C98.3638 36.8656 98.3748 36.8656 98.3859 36.8646C98.4882 36.8583 98.59 36.8215 98.6761 36.7523C98.8944 36.5775 99.1127 36.3943 99.3258 36.2085C99.541 36.0207 99.563 35.6947 99.3757 35.4796C99.2733 35.3625 99.1301 35.3022 98.9857 35.3022ZM67.9291 29.4446C67.8488 29.4446 67.767 29.4635 67.6909 29.5034C67.4379 29.6356 67.3398 29.9479 67.472 30.2009C67.7386 30.711 68.0304 31.2164 68.3396 31.7029C68.4382 31.8577 68.6051 31.9422 68.7762 31.9422C68.7872 31.9422 68.7983 31.9417 68.8088 31.9412C68.8932 31.9359 68.9767 31.9102 69.0528 31.8614C69.2937 31.7087 69.3651 31.3896 69.2118 31.1487C68.9184 30.6863 68.6413 30.2066 68.3884 29.7222C68.296 29.5459 68.1155 29.4446 67.9291 29.4446Z" fill="url(#paint0_linear_5401_15144)"/>
<path d="M101.768 128.451H43.6474C41.4442 128.451 39.6582 126.665 39.6582 124.462V47.8174C39.6582 45.6141 41.4442 43.8282 43.6474 43.8282H101.768C103.971 43.8282 105.757 45.6141 105.757 47.8174V124.462C105.757 126.665 103.971 128.451 101.768 128.451Z" fill="#7D97F4"/>
<path d="M99.5695 122.564H45.8997C45.239 122.564 44.7031 122.029 44.7031 121.368V51.9863C44.7031 51.3256 45.239 50.7897 45.8997 50.7897H99.5695C100.23 50.7897 100.766 51.3256 100.766 51.9863V121.368C100.766 122.029 100.23 122.564 99.5695 122.564Z" fill="url(#paint1_linear_5401_15144)"/>
<path d="M72.6415 37.7852C71.1903 37.7852 70.0137 36.6085 70.0137 35.1574C70.0137 34.8136 70.0798 34.4856 70.1995 34.1848C70.5154 34.5475 70.8466 34.9018 71.1861 35.2408C71.2869 35.341 71.4192 35.3914 71.5514 35.3914C71.5619 35.3914 71.5729 35.3914 71.584 35.3904C71.7052 35.383 71.8243 35.3326 71.9172 35.2397C72.1188 35.0377 72.1182 34.7107 71.9162 34.5092C71.5283 34.1224 71.1525 33.7146 70.7999 33.2979C70.7972 33.2953 70.7951 33.2926 70.7925 33.29C71.2675 32.8198 71.9204 32.5295 72.6415 32.5295C74.0932 32.5295 75.2693 33.7062 75.2693 35.1574C75.2693 35.7824 75.051 36.3571 74.6862 36.8079C74.4311 36.6326 74.1792 36.4516 73.9341 36.2658C73.8407 36.1949 73.731 36.1608 73.6224 36.1608C73.4665 36.1608 73.3122 36.2311 73.2104 36.3655C73.0377 36.5933 73.0829 36.9171 73.3101 37.0892C73.4891 37.2252 73.6712 37.3579 73.8554 37.4886C73.4922 37.6781 73.0797 37.7852 72.6415 37.7852Z" fill="url(#paint2_linear_5401_15144)"/>
<path d="M89.6151 77.5793L55.8074 78.1414C53.2342 78.1844 51.1406 80.1851 51.1406 82.6103V103.901C51.1406 106.327 53.2342 108.209 55.8074 108.105L89.6151 106.748C92.0435 106.65 94.0053 104.671 94.0053 102.327V81.7506C94.0053 79.4062 92.0435 77.5389 89.6151 77.5793Z" fill="url(#paint3_linear_5401_15144)"/>
<path d="M91.33 73.7294C90.306 73.7446 89.4747 72.9542 89.4747 71.9644V67.3045C89.4747 62.6298 85.5201 58.838 80.6251 58.8521L69.6116 58.8836C64.5906 58.8983 60.4759 62.802 60.4759 67.5863V72.3549C60.4759 73.3678 59.6042 74.2023 58.5272 74.2185C57.4482 74.2343 56.5723 73.4234 56.5723 72.4074V67.6241C56.5723 60.7961 62.455 55.2408 69.6116 55.2408H80.6251C87.579 55.2408 93.1794 60.6365 93.1794 67.2682V71.9145C93.1794 72.9017 92.3518 73.7142 91.33 73.7294Z" fill="url(#paint4_linear_5401_15144)"/>
<path d="M78.1859 89.3839C78.1859 87.018 76.1202 85.1601 73.6089 85.3307C71.3889 85.4818 69.5525 87.2599 69.4323 89.3829C69.3394 91.0308 70.2448 92.4547 71.6214 93.1753C72.2066 93.4812 72.4973 94.1273 72.3834 94.7655L71.4183 100.183C71.2955 100.872 71.8497 101.479 72.5792 101.452L75.06 101.364C75.7859 101.337 76.3364 100.694 76.2147 100.016L75.25 94.649C75.1351 94.0092 75.4678 93.3731 76.0546 93.022C77.3315 92.2589 78.1859 90.9054 78.1859 89.3839Z" fill="url(#paint5_linear_5401_15144)"/>
<path d="M10.283 144.184C10.2835 144.137 10.2809 144.091 10.2688 144.043C9.56761 141.264 6.08806 139.532 6.08806 139.532L4.70924 139.641C3.91649 142.09 4.01836 143.593 4.14568 144.262C4.1492 144.281 4.15492 144.299 4.15991 144.317C5.29731 144.419 7.63835 144.485 10.283 144.184Z" fill="url(#paint6_linear_5401_15144)"/>
<path d="M4.16016 144.314C4.22156 144.538 4.38651 144.712 4.5977 144.756C6.21564 145.096 8.78745 144.823 9.86701 144.682C10.1053 144.65 10.2795 144.43 10.2832 144.182C7.6386 144.482 5.29756 144.416 4.16016 144.314Z" fill="#91B3FA"/>
<path d="M4.15234 137.588L4.73632 140.399C4.77909 140.605 4.93738 140.759 5.12909 140.777C5.3638 140.799 5.69785 140.812 6.03385 140.763C6.3351 140.719 6.54487 140.412 6.4915 140.084L6.08554 137.588H4.15234Z" fill="url(#paint7_linear_5401_15144)"/>
<path d="M16.255 144.28C14.7325 144.237 13.9447 144.058 13.5375 143.891C13.5364 144.043 13.5375 144.197 13.5422 144.357C13.5475 144.527 13.6739 144.663 13.8293 144.662L22.1903 144.608C22.4574 144.606 22.6133 144.297 22.4973 144.052C21.4015 144.143 18.6089 144.346 16.255 144.28Z" fill="#91B3FA"/>
<path d="M22.4969 144.051C22.487 144.03 22.4786 144.008 22.4639 143.988C21.7255 142.956 19.845 140.901 16.1287 140.011L14.3459 139.954C14.3459 139.954 13.5523 141.334 13.5371 143.89C13.9444 144.056 14.7321 144.235 16.2547 144.278C18.6085 144.344 21.4011 144.142 22.4969 144.051Z" fill="url(#paint8_linear_5401_15144)"/>
<path d="M13.9355 137.335C13.9639 137.467 14.3344 139.467 14.4782 140.243C14.5123 140.427 14.6561 140.562 14.8267 140.572C15.1322 140.588 15.6244 140.591 16.048 140.476C16.2763 140.414 16.4295 140.181 16.4133 139.922L16.2138 136.758L13.9355 137.335Z" fill="url(#paint9_linear_5401_15144)"/>
<path d="M12.582 100.405C12.582 100.405 15.0345 117.257 16.8043 137.31C16.8373 137.684 16.5397 138.009 16.1729 138.086C15.6318 138.2 14.8372 138.335 14.1796 138.317C13.828 138.307 13.5346 138.047 13.4753 137.7C12.8728 134.164 8.57025 115.188 7.44135 111.012C7.44135 111.012 6.14408 128.752 6.55864 137.956C6.56898 138.185 6.4014 138.384 6.17384 138.41C5.82866 138.45 5.27638 138.48 4.57353 138.406C4.30677 138.377 4.09154 138.176 4.05343 137.91C3.62397 134.918 1.15209 117.106 1.25716 104.275C1.26314 103.551 2.10617 97.6061 2.10617 97.6061L12.582 100.405Z" fill="url(#paint10_linear_5401_15144)"/>
<path d="M13.5352 72.0632L13.8632 80.8813C14.7958 81.2025 15.6838 81.4518 16.5293 81.6387C17.0583 79.9356 18.2229 77.8463 19.176 76.2923C15.6728 75.0537 13.5352 72.0632 13.5352 72.0632Z" fill="url(#paint11_linear_5401_15144)"/>
<path d="M1.7393 101.374C1.48712 101.285 1.31136 101.056 1.28391 100.79C0.957781 97.6255 -0.621264 78.0075 9.34766 69.9372C9.34766 69.9372 9.91919 68.4415 14.6185 72.1184C19.3178 75.7954 16.8018 79.6491 15.6765 84.9646C14.3151 91.3974 11.9267 96.6551 12.9837 100.613C13.0566 100.887 12.9128 101.173 12.6478 101.271C8.99707 102.617 5.36097 102.661 1.7393 101.374Z" fill="url(#paint12_linear_5401_15144)"/>
<path d="M13.2373 64.0577C13.2342 64.3369 9.25391 69.9909 9.25391 69.9909C9.25391 69.9909 9.96819 71.3985 13.379 72.541L16.3238 66.4871L13.2373 64.0577Z" fill="url(#paint13_linear_5401_15144)"/>
<path d="M11.2615 83.4043C11.2369 83.4043 11.2117 83.3975 11.1891 83.3823C8.00917 81.2336 6.51331 77.7656 6.49851 77.7309C6.47075 77.6648 6.50145 77.5892 6.56705 77.5614C6.63297 77.5336 6.7086 77.564 6.73662 77.6296C6.75106 77.6638 8.2191 81.0636 11.3339 83.1681C11.3933 83.208 11.409 83.2883 11.3686 83.3476C11.3439 83.3844 11.303 83.4043 11.2615 83.4043Z" fill="url(#paint14_linear_5401_15144)"/>
<path d="M15.9996 78.5977C15.9576 78.5977 15.9156 78.5772 15.8909 78.5384C15.8815 78.5237 14.91 77.0116 13.0595 73.6979C12.4906 72.6792 11.7427 72.0342 10.8368 71.7807C9.33688 71.3614 7.89099 72.1654 7.87682 72.1738C7.81436 72.2079 7.73564 72.1874 7.70048 72.125C7.66531 72.063 7.68683 71.9843 7.74876 71.9492C7.81121 71.9135 9.29804 71.0816 10.904 71.5309C11.8797 71.8033 12.6811 72.4897 13.2852 73.5719C15.131 76.8768 16.0987 78.3835 16.1082 78.3988C16.147 78.4586 16.1297 78.5384 16.0699 78.5772C16.0478 78.5914 16.0237 78.5977 15.9996 78.5977Z" fill="url(#paint15_linear_5401_15144)"/>
<path d="M16.3722 60.8183C16.3722 60.8183 17.7887 64.0723 17.8837 65.78C17.9792 67.4878 18.3471 68.5957 16.3722 68.9395C14.3978 69.2838 12.7341 68.2997 11.833 66.5988C11.833 66.5988 10.4212 63.9773 10.7376 62.904C11.0546 61.8302 16.3722 60.8183 16.3722 60.8183Z" fill="url(#paint16_linear_5401_15144)"/>
<path d="M12.5081 65.3751L12.6204 65.3258C12.7637 65.2628 12.8246 65.0923 12.7527 64.9537C12.4745 64.4152 11.9313 63.1824 12.633 62.8948C13.5368 62.5243 17.1166 61.7943 17.8886 60.5242C18.6313 59.3034 17.9736 57.7274 16.9849 57.2792C16.9187 57.2493 16.8405 57.2729 16.807 57.3369L16.7246 57.4928C16.6679 57.5999 16.5104 57.5836 16.4768 57.4676C16.4448 57.3563 16.2968 57.3348 16.2354 57.433C15.9977 57.8129 15.3569 58.4291 13.6428 58.7455C11.2065 59.1953 9.59637 60.1809 9.55595 61.8641C9.55333 61.9711 9.43997 62.0304 9.34865 61.9748C9.16863 61.8656 8.8805 61.8137 8.4958 62.1375C7.82718 62.7001 8.10061 64.1591 9.5675 65.3594C9.6373 65.4166 9.63625 65.5252 9.5612 65.5746C9.29511 65.7478 8.89887 66.1592 9.92596 66.7082C10.9882 67.2761 11.7812 67.2294 12.0867 67.179C12.1628 67.1669 12.2116 67.0929 12.1953 67.0179L11.8694 65.5384C11.8505 65.4544 11.9145 65.3751 12.0001 65.3751H12.5081Z" fill="url(#paint17_linear_5401_15144)"/>
<path d="M12.5685 65.6865C12.5685 65.6865 12.028 63.6082 11.0964 64.1908C10.1643 64.7739 11.5797 66.52 12.3287 66.5977L12.5685 65.6865Z" fill="url(#paint18_linear_5401_15144)"/>
<path d="M30.9126 71.3988C30.9126 71.3988 30.203 70.1403 30.2481 69.5289C30.2933 68.9169 29.9122 68.0189 30.3174 68.0856C30.7231 68.1517 30.8065 68.0977 30.9168 68.8314C31.027 69.5651 32.3065 72.7707 30.9126 71.3988Z" fill="url(#paint19_linear_5401_15144)"/>
<path d="M31.0428 69.4L31.0266 71.9144C26.2207 77.1034 22.3307 77.4088 19.176 76.2935C18.2224 77.8476 17.0583 79.9369 16.5293 81.64C29.3634 84.4693 32.3854 72.6707 32.3854 72.6707C34.1236 71.9506 34.4742 71.5297 34.3996 71.0579L31.0428 69.4Z" fill="url(#paint20_linear_5401_15144)"/>
<path d="M34.7409 66.9049C34.3305 66.738 33.528 65.2076 33.3742 65.7114C33.2205 66.2147 33.4393 66.9048 33.3742 67.119C33.3092 67.3331 32.3088 69.7956 32.5088 70.343C32.6526 70.7377 33.4472 70.6794 33.5684 71.3249C33.6088 71.5396 33.7799 71.6934 33.9788 71.6934C34.1778 71.6934 34.3488 71.5401 34.3893 71.3255C34.4055 71.2399 35.1513 67.0712 34.7409 66.9049Z" fill="url(#paint21_linear_5401_15144)"/>
<path d="M29.2281 62.5535C30.5255 63.2095 31.0461 64.794 30.3896 66.0919C29.7335 67.3898 28.1496 67.9099 26.8517 67.2533C25.5538 66.5973 25.0332 65.0134 25.6897 63.7155C26.3458 62.4176 27.9302 61.8975 29.2281 62.5535ZM21.6402 61.6681C18.3994 68.0778 20.9684 75.9009 27.3781 79.1417C32.5881 81.7753 38.7311 80.5713 42.5891 76.5863L64.8591 87.8465C65.2286 88.0333 65.6689 88.0181 66.0247 87.8061L68.2028 86.5087C68.2406 86.4861 68.2757 86.4614 68.3098 86.4357C68.3198 86.4289 68.3287 86.421 68.3382 86.4132C68.3634 86.3932 68.388 86.3722 68.4111 86.3502C68.419 86.3428 68.4274 86.3355 68.4347 86.3276C68.4641 86.2993 68.4914 86.2694 68.5171 86.2384L68.5182 86.2368C68.7916 85.9041 68.8751 85.4396 68.7077 85.0197L66.9379 80.5829C66.8288 80.3089 66.623 80.0843 66.3596 79.951L64.1291 78.8231L63.5386 79.9909L61.6225 79.022L62.2129 77.8543L60.4201 76.9479L59.8769 78.0222L57.5483 76.8445L58.0909 75.7707L57.2234 75.332L56.9437 75.8846L54.9913 74.8979L55.271 74.3448L53.7527 73.577L53.1623 74.7447L52.0775 74.1963L52.6679 73.0285L51.7279 72.5535L51.1375 73.7208L49.2576 72.7703L49.848 71.6031L47.2055 70.2669L46.0735 69.6948C46.9956 64.2256 44.3237 58.5643 39.1137 55.9302C32.704 52.6894 24.881 55.2584 21.6402 61.6681Z" fill="url(#paint22_linear_5401_15144)"/>
<path d="M39.6902 65.5953L50.2476 70.9328L49.6572 72.1005L51.5371 73.051L52.1276 71.8832L53.0675 72.3587L52.4771 73.5259L53.5619 74.0744L54.1523 72.9072L55.6707 73.675L55.3909 74.2276L57.3433 75.2148L57.623 74.6622L58.4906 75.1004L57.9474 76.1747L60.2765 77.3525L60.8197 76.2781L62.6125 77.1845L62.0221 78.3522L63.9383 79.3211L64.5287 78.1533L66.7592 79.2812C67.0227 79.4145 67.2279 79.6391 67.3375 79.9131L69.1073 84.3494C69.3277 84.9026 69.1136 85.534 68.6024 85.8384L66.4244 87.1357C66.0685 87.3483 65.6282 87.3635 65.2587 87.1762L38.375 73.5842L39.6902 65.5953Z" fill="url(#paint23_linear_5401_15144)"/>
<path d="M27.2516 66.5833C25.9542 65.9273 25.4336 64.3428 26.0901 63.0449C26.7462 61.747 28.3301 61.2269 29.628 61.8835C30.9259 62.5395 31.4465 64.1234 30.7899 65.4213C30.1339 66.7192 28.5495 67.2393 27.2516 66.5833ZM27.7785 78.4711C34.1882 81.712 42.0113 79.1429 45.2521 72.7332C48.4929 66.324 45.9238 58.5005 39.5141 55.2602C33.1044 52.0194 25.2814 54.5884 22.0406 60.9976C18.7998 67.4073 21.3688 75.2303 27.7785 78.4711Z" fill="url(#paint24_linear_5401_15144)"/>
<path d="M29.628 61.8837C30.9259 62.5397 31.4465 64.1237 30.79 65.4216C30.1339 66.7195 28.5495 67.2396 27.2516 66.5835C25.9542 65.9275 25.4336 64.3431 26.0901 63.0452C26.7462 61.7473 28.3301 61.2272 29.628 61.8837ZM42.9895 75.9165L65.2595 87.1762C65.629 87.3635 66.0693 87.3483 66.4251 87.1357L68.6032 85.8384C68.9317 85.6431 69.1354 85.3125 69.1821 84.9546C67.1526 82.755 47.8589 74.3305 47.1373 72.5965C46.8806 71.9798 46.8365 71.0456 47.6054 69.5966L46.4739 69.0245C47.396 63.5553 44.7241 57.894 39.5141 55.2604C33.1044 52.0196 25.2814 54.5886 22.0406 60.9978C18.7998 67.4075 21.3688 75.2306 27.7785 78.4714C32.9879 81.1055 39.1315 79.9015 42.9895 75.9165Z" fill="url(#paint25_linear_5401_15144)"/>
<path d="M27.2495 66.5835C25.9521 65.9274 25.4315 64.343 26.088 63.0451C26.7441 61.7472 28.328 61.2271 29.6259 61.8836C30.9238 62.5397 31.4444 64.1236 30.7878 65.4215C30.1318 66.7194 28.5474 67.2395 27.2495 66.5835ZM28.9279 76.1935C34.0796 78.7983 40.3675 76.7336 42.9722 71.5819C45.5769 66.4302 43.5123 60.1428 38.3606 57.5381C33.2089 54.9334 26.9209 56.998 24.3162 62.1497C21.7115 67.3014 23.7762 73.5888 28.9279 76.1935Z" fill="url(#paint26_linear_5401_15144)"/>
<path d="M11.2617 83.4058C11.2617 83.4058 23.5085 87.5057 30.3586 82.29C30.7837 81.9667 31.3195 81.8256 31.847 81.9111L34.4638 82.3378C35.5622 82.5167 36.6087 81.8046 36.8454 80.7171C36.9803 80.0973 37.0454 79.4187 36.9079 78.8361L31.9677 78.538L32.1089 77.8967C32.1089 77.8967 29.9251 78.431 29.881 80.1393C29.881 80.1393 24.7592 83.4945 15.4168 78.2866C15.4168 78.2866 11.7787 81.1338 11.2617 83.4058Z" fill="url(#paint27_linear_5401_15144)"/>
<path d="M105.877 22.0059C105.871 22.0059 105.863 22.0059 105.856 22.0053C105.572 21.9938 105.349 21.7529 105.362 21.4679C105.384 20.9142 105.383 20.3506 105.358 19.7937C105.346 19.5124 105.562 19.2731 105.842 19.2552L105.852 19.2547C105.86 19.2547 105.868 19.2542 105.875 19.2542C106.15 19.2542 106.379 19.471 106.391 19.7481C106.417 20.3343 106.418 20.9273 106.394 21.5104C106.383 21.777 106.172 21.9885 105.911 22.0048C105.9 22.0053 105.888 22.0059 105.877 22.0059ZM105.56 17.5154C105.315 17.5154 105.098 17.3412 105.052 17.0919C104.952 16.544 104.827 15.995 104.681 15.4602C104.606 15.1852 104.769 14.9008 105.044 14.8257C105.09 14.8136 105.135 14.8079 105.18 14.8079C105.408 14.8079 105.616 14.9585 105.679 15.1884C105.832 15.7515 105.963 16.3293 106.069 16.9056C106.12 17.1864 105.934 17.4556 105.653 17.5071C105.633 17.5107 105.613 17.5134 105.592 17.5144C105.581 17.5155 105.571 17.5154 105.56 17.5154ZM104.261 13.2071C104.061 13.2071 103.87 13.0896 103.786 12.8938C103.567 12.3837 103.323 11.8762 103.06 11.3865C102.926 11.1351 103.02 10.8218 103.272 10.6869C103.349 10.6455 103.433 10.6261 103.515 10.6261C103.699 10.6261 103.878 10.7247 103.971 10.8984C104.248 11.4149 104.505 11.9486 104.735 12.4866C104.848 12.7485 104.727 13.0523 104.465 13.1652C104.408 13.1888 104.351 13.2024 104.294 13.2061C104.283 13.2066 104.272 13.2071 104.261 13.2071ZM102.031 9.29666C101.871 9.29666 101.714 9.22319 101.613 9.08463C101.285 8.63538 100.933 8.19558 100.568 7.77677C100.38 7.56159 100.403 7.23514 100.618 7.04778C100.716 6.96224 100.837 6.92078 100.957 6.92078C101.102 6.92078 101.245 6.9806 101.347 7.09764C101.731 7.53902 102.101 8.00244 102.447 8.47479C102.615 8.70519 102.565 9.02848 102.335 9.19695C102.253 9.2573 102.158 9.28932 102.063 9.29562C102.052 9.29614 102.041 9.29666 102.031 9.29666ZM98.9839 5.98134C98.8637 5.98134 98.743 5.93988 98.6448 5.85486C98.226 5.49063 97.7857 5.13899 97.3364 4.81045C97.1061 4.64146 97.0557 4.31868 97.2241 4.08828C97.3254 3.94973 97.4823 3.87626 97.6414 3.87626C97.7474 3.87626 97.8544 3.9088 97.9463 3.97598C98.4192 4.32184 98.8826 4.69183 99.3229 5.07496C99.5381 5.26232 99.5612 5.58876 99.3738 5.80394C99.2794 5.91258 99.1497 5.97189 99.0164 5.98028C99.0059 5.98133 98.9949 5.98134 98.9839 5.98134ZM95.2802 3.42333C95.1978 3.42333 95.1138 3.40339 95.0361 3.3614C94.547 3.09846 94.04 2.85337 93.5294 2.63295C93.2675 2.51958 93.1468 2.21571 93.2601 1.95382C93.3446 1.75858 93.5346 1.64155 93.7346 1.64155C93.8033 1.64155 93.8726 1.65519 93.9398 1.68406C94.4767 1.91603 95.0104 2.17477 95.5253 2.45136C95.7767 2.58624 95.8711 2.89955 95.7362 3.15095C95.6481 3.31417 95.4854 3.41126 95.3132 3.42229C95.3022 3.42281 95.2912 3.42333 95.2802 3.42333ZM76.3061 3.39499C76.1214 3.39499 75.9429 3.29528 75.8501 3.12103C75.7157 2.86912 75.8107 2.55631 76.0626 2.42196C76.5785 2.14695 77.1133 1.89084 77.6523 1.66044C77.7184 1.6321 77.7872 1.61897 77.8549 1.61897C78.0559 1.61897 78.2469 1.73654 78.3304 1.93283C78.4427 2.19524 78.3209 2.49858 78.0585 2.6109C77.5463 2.82922 77.0388 3.07275 76.5486 3.33411C76.4814 3.3698 76.41 3.38922 76.3387 3.39394C76.3282 3.39447 76.3171 3.39499 76.3061 3.39499ZM91.1052 1.75018C91.0595 1.75018 91.0133 1.74441 90.9672 1.73129C90.4318 1.58434 89.8834 1.45839 89.337 1.35709C89.0568 1.30514 88.871 1.03589 88.923 0.755112C88.9691 0.505819 89.1869 0.332626 89.432 0.332626C89.4625 0.332626 89.494 0.335249 89.5249 0.341022C90.1001 0.447037 90.678 0.579826 91.2416 0.735174C91.5166 0.810749 91.6783 1.0952 91.6027 1.37074C91.5429 1.58907 91.3513 1.73549 91.1372 1.74914C91.1267 1.75019 91.1162 1.75018 91.1052 1.75018ZM80.4916 1.73812C80.2638 1.73812 80.0555 1.58644 79.993 1.35604C79.9185 1.08103 80.0817 0.797102 80.3573 0.722576C80.9215 0.569853 81.4998 0.439692 82.0761 0.335251C82.1076 0.329477 82.139 0.326857 82.17 0.326857C82.4146 0.326857 82.6313 0.502674 82.6765 0.751442C82.7274 1.03222 82.5411 1.30146 82.2603 1.35237C81.7124 1.45156 81.1629 1.57542 80.6265 1.72027C80.5924 1.72972 80.5583 1.73496 80.5242 1.73706C80.5131 1.73759 80.5021 1.73812 80.4916 1.73812ZM86.6583 1.05216C86.6515 1.05216 86.6442 1.05216 86.6368 1.05164C86.3571 1.03957 86.0752 1.03379 85.7934 1.03379C85.5163 1.03379 85.2392 1.03957 84.9637 1.05112C84.9563 1.05164 84.9484 1.05164 84.9411 1.05164C84.6661 1.05164 84.4373 0.834368 84.4252 0.556734C84.4136 0.275427 84.6288 0.0371532 84.9086 0.01931L84.9196 0.0187874C85.2109 0.00619125 85.5042 0.000417709 85.7971 0.000417709C86.0926 0.000417709 86.388 0.00671387 86.6814 0.01931C86.9664 0.0313797 87.1874 0.272799 87.1753 0.557779C87.1637 0.823866 86.9528 1.03432 86.6924 1.05112C86.6814 1.05164 86.6699 1.05216 86.6583 1.05216Z" fill="#DEE8FD"/>
<path d="M73.2731 5.38086C73.1209 5.38086 72.9697 5.31421 72.8679 5.18563C72.6905 4.96205 72.7278 4.63718 72.9513 4.45979C73.1707 4.28555 73.3974 4.11288 73.6252 3.94651C73.7171 3.87934 73.8236 3.8468 73.9296 3.8468C74.0892 3.8468 74.2461 3.9208 74.3474 4.05935C74.5153 4.28975 74.4649 4.61304 74.2345 4.78099C74.0178 4.93949 73.8026 5.10323 73.5937 5.26908C73.5082 5.3373 73.4074 5.37352 73.3056 5.37981C73.2946 5.38086 73.2836 5.38086 73.2731 5.38086Z" fill="url(#paint28_linear_5401_15144)"/>
<path d="M65.7388 19.2188C65.723 19.2188 65.7068 19.2177 65.6905 19.2161C65.406 19.1888 65.1982 18.9369 65.225 18.6525C65.2517 18.3733 65.2848 18.0898 65.3231 17.8106C65.3588 17.5519 65.5792 17.364 65.8343 17.364C65.8579 17.364 65.8815 17.3656 65.9057 17.3693C66.1886 17.4081 66.3859 17.6684 66.347 17.9513C66.3108 18.2169 66.2794 18.4861 66.2542 18.7511C66.2295 19.0072 66.0217 19.202 65.7729 19.2177C65.7619 19.2182 65.7503 19.2188 65.7388 19.2188Z" fill="url(#paint29_linear_5401_15144)"/>
<path d="M86.0326 41.2773C85.7513 41.2773 85.5204 41.0506 85.5167 40.7677C85.5125 40.4828 85.7403 40.2487 86.0258 40.244C86.569 40.2361 87.1206 40.2051 87.6706 40.1516C87.6879 40.1495 87.7053 40.149 87.7226 40.149C87.984 40.149 88.2091 40.3489 88.2353 40.6155C88.2626 40.9 88.0548 41.1524 87.7709 41.1803C87.5326 41.2033 87.2943 41.2228 87.0571 41.2375C86.7186 41.259 86.3769 41.2726 86.0405 41.2773C86.0379 41.2773 86.0353 41.2773 86.0326 41.2773ZM83.2925 41.1288C83.2715 41.1288 83.2505 41.1272 83.229 41.1246C82.6585 41.0543 82.0833 40.9588 81.5191 40.8402C81.2394 40.7814 81.061 40.5074 81.1197 40.2277C81.1706 39.9847 81.3858 39.8178 81.6251 39.8178C81.6603 39.8178 81.696 39.821 81.7317 39.8288C82.2675 39.9417 82.8139 40.0325 83.3555 40.0991C83.6389 40.1343 83.8399 40.392 83.8053 40.6754C83.7743 40.9257 83.5686 41.112 83.3256 41.1278C83.3146 41.1283 83.3035 41.1288 83.2925 41.1288ZM90.4291 40.732C90.195 40.732 89.983 40.572 89.9269 40.3342C89.8613 40.0566 90.0329 39.7784 90.3105 39.7123C90.8437 39.5858 91.3769 39.4357 91.896 39.2657C91.9495 39.2478 92.0041 39.2394 92.0571 39.2394C92.2744 39.2394 92.477 39.3785 92.5478 39.5958C92.6371 39.8671 92.4891 40.1589 92.2177 40.2476C91.6714 40.4266 91.1098 40.5851 90.5488 40.7179C90.5199 40.7247 90.4905 40.7289 90.4616 40.731C90.4506 40.7315 90.4401 40.732 90.4291 40.732ZM78.9863 40.1038C78.9286 40.1038 78.8693 40.0939 78.8116 40.0729C78.271 39.8792 77.7309 39.6588 77.2066 39.4195C76.9468 39.3008 76.833 38.9943 76.9516 38.7346C77.0382 38.5446 77.2255 38.4328 77.4218 38.4328C77.4937 38.4328 77.5667 38.4475 77.6359 38.4795C78.1345 38.7073 78.6473 38.9161 79.1606 39.1004C79.4293 39.1969 79.5689 39.4924 79.4728 39.7611C79.4009 39.9616 79.2183 40.0897 79.0189 40.1028C79.0084 40.1033 78.9973 40.1038 78.9863 40.1038ZM94.602 39.2415C94.4104 39.2415 94.2268 39.135 94.137 38.9513C94.0121 38.6952 94.1181 38.3855 94.3748 38.2606C94.8665 38.0203 95.3536 37.7568 95.8228 37.476C95.9057 37.4267 95.9975 37.4031 96.0873 37.4031C96.2631 37.4031 96.4347 37.4928 96.5313 37.655C96.6777 37.8996 96.5979 38.2166 96.3528 38.363C95.859 38.6585 95.3457 38.9366 94.8282 39.1891C94.7658 39.2195 94.7002 39.2363 94.6346 39.2405C94.6235 39.2415 94.6125 39.2415 94.602 39.2415ZM75.0087 38.1583C74.9137 38.1583 74.8181 38.1326 74.7321 38.078C74.4356 37.8901 74.1416 37.6928 73.8535 37.4891C74.1752 37.3212 74.4581 37.0887 74.6843 36.8084C74.8827 36.9449 75.0832 37.0772 75.2852 37.2052C75.5267 37.3579 75.598 37.677 75.4453 37.9185C75.3529 38.0633 75.2007 38.1473 75.0412 38.1573C75.0302 38.1578 75.0192 38.1583 75.0087 38.1583Z" fill="url(#paint30_linear_5401_15144)"/>
<path d="M73.8516 37.4883C73.6674 37.3576 73.4852 37.2248 73.3063 37.0889C73.079 36.9167 73.0339 36.5929 73.2066 36.3652C73.3084 36.2308 73.4627 36.1605 73.6186 36.1605C73.7272 36.1605 73.8369 36.1946 73.9303 36.2654C74.1754 36.4512 74.4273 36.6323 74.6824 36.8076C74.4562 37.0878 74.1733 37.3203 73.8516 37.4883Z" fill="url(#paint31_linear_5401_15144)"/>
<path d="M70.1975 34.1855C70.134 34.1131 70.0715 34.0402 70.0091 33.9667C69.8249 33.7489 69.8516 33.423 70.0694 33.2382C70.1665 33.1558 70.2851 33.116 70.4032 33.116C70.5465 33.116 70.6887 33.1753 70.7905 33.2907C70.536 33.5426 70.3324 33.847 70.1975 34.1855Z" fill="url(#paint32_linear_5401_15144)"/>
<path d="M71.5473 35.3945C71.415 35.3945 71.2828 35.3442 71.182 35.2439C70.8424 34.9049 70.5113 34.5506 70.1953 34.188C70.3302 33.8494 70.5338 33.545 70.7884 33.2931C70.791 33.2957 70.7931 33.2984 70.7957 33.301C71.1484 33.7177 71.5242 34.1255 71.912 34.5123C72.1141 34.7138 72.1146 35.0408 71.9131 35.2429C71.8202 35.3357 71.701 35.3861 71.5798 35.3935C71.5688 35.3945 71.5578 35.3945 71.5473 35.3945Z" fill="url(#paint33_linear_5401_15144)"/>
<path d="M68.781 31.9375C68.6099 31.9375 68.443 31.853 68.3444 31.6982C68.0352 31.2117 67.7434 30.7063 67.4768 30.1961C67.3446 29.9432 67.4427 29.6309 67.6957 29.4986C67.7718 29.4587 67.8537 29.4398 67.934 29.4398C68.1203 29.4398 68.3008 29.5411 68.3932 29.7175C68.6461 30.2019 68.9233 30.6816 69.2166 31.144C69.3699 31.3849 69.2985 31.704 69.0576 31.8567C68.9815 31.9055 68.8981 31.9312 68.8136 31.9364C68.8031 31.937 68.7921 31.9375 68.781 31.9375Z" fill="url(#paint34_linear_5401_15144)"/>
<path d="M66.9452 26.1211H65.8714C65.8567 26.0676 65.842 26.0135 65.8279 25.9594C65.7549 25.6834 65.9192 25.4005 66.1947 25.3276C66.2388 25.316 66.2834 25.3102 66.327 25.3102C66.5558 25.3102 66.7652 25.463 66.8266 25.6944C66.8644 25.8366 66.9043 25.9794 66.9452 26.1211Z" fill="url(#paint35_linear_5401_15144)"/>
<path d="M66.8289 27.957C66.6169 27.957 66.418 27.8253 66.3424 27.6138C66.1676 27.1252 66.0091 26.6234 65.8711 26.1207H66.9449C67.0567 26.5064 67.1811 26.8901 67.3154 27.2658C67.4115 27.5345 67.2719 27.83 67.0032 27.9266C66.9564 27.9429 66.9087 27.9528 66.8614 27.956C66.8504 27.9565 66.8399 27.957 66.8289 27.957Z" fill="url(#paint36_linear_5401_15144)"/>
<path d="M65.8025 23.6504C65.5458 23.6504 65.3233 23.4588 65.2908 23.1975C65.2378 22.7771 65.1979 22.3499 65.1711 21.9279C65.1611 21.7752 65.1533 21.6225 65.147 21.4703C65.1349 21.1853 65.3527 20.9391 65.6419 20.9328C65.6492 20.9323 65.6566 20.9323 65.6639 20.9323C65.9389 20.9323 66.1677 21.1496 66.1793 21.4272C66.1856 21.5721 66.1929 21.7175 66.2024 21.8623C66.2276 22.2638 66.2659 22.6695 66.3157 23.0694C66.3514 23.3523 66.1504 23.6105 65.867 23.6462C65.8565 23.6472 65.846 23.6483 65.8355 23.6493C65.8245 23.6499 65.8135 23.6504 65.8025 23.6504Z" fill="url(#paint37_linear_5401_15144)"/>
<path d="M98.3565 36.8613C98.2053 36.8613 98.0552 36.7952 97.9534 36.6682C97.775 36.4457 97.8107 36.1203 98.0332 35.9418C98.2405 35.7755 98.4478 35.6017 98.6504 35.4254C98.7485 35.3399 98.8693 35.2979 98.9894 35.2979C99.1338 35.2979 99.277 35.3582 99.3794 35.4753C99.5667 35.6904 99.5447 36.0164 99.3295 36.2042C99.1164 36.39 98.8981 36.5732 98.6798 36.748C98.5937 36.8172 98.4919 36.854 98.3896 36.8603C98.3785 36.8613 98.3675 36.8613 98.3565 36.8613Z" fill="url(#paint38_linear_5401_15144)"/>
<path d="M99.3624 28.0579C99.4223 27.9739 99.4223 27.8611 99.363 27.7771L97.6604 25.3813C98.1837 24.1117 98.508 22.7503 98.6009 21.3406L101.184 19.942C101.274 19.8926 101.324 19.7913 101.307 19.6901L100.73 16.212C100.713 16.1102 100.634 16.0304 100.532 16.0131L97.6363 15.5229C97.0931 14.2187 96.3468 13.0347 95.442 12.0024L96.2796 9.18512C96.309 9.08593 96.2723 8.97992 96.1883 8.91956L93.3212 6.86801C93.2377 6.80818 93.1249 6.80818 93.0409 6.86749L90.6446 8.57003C89.3755 8.04678 88.0141 7.72244 86.6044 7.62954L85.2053 5.04686C85.1564 4.95607 85.0552 4.90673 84.9533 4.92353L81.4753 5.50031C81.3735 5.51711 81.2937 5.59636 81.2769 5.69818L80.7862 8.59417C79.482 9.13736 78.298 9.88366 77.2662 10.7885L74.4484 9.95084C74.3497 9.92145 74.2432 9.95819 74.1834 10.0422L72.1318 12.9093C72.072 12.9927 72.0715 13.1056 72.1313 13.1895L73.8338 15.5859C73.3106 16.8549 72.9857 18.2163 72.8933 19.626L70.3102 21.0252C70.2199 21.074 70.17 21.1753 70.1868 21.2771L70.7636 24.7552C70.7809 24.857 70.8602 24.9367 70.962 24.9535L73.858 25.4442C74.4007 26.7484 75.1475 27.9325 76.0523 28.9648L75.2147 31.7821C75.1853 31.8807 75.222 31.9873 75.3055 32.0471L78.1731 34.0986C78.2565 34.1585 78.3694 34.159 78.4534 34.0992L80.8492 32.3971C82.1187 32.9199 83.4802 33.2447 84.8898 33.3376L86.2885 35.9203C86.3378 36.0106 86.4391 36.0604 86.5404 36.0436L90.019 35.4669C90.1203 35.4495 90.2 35.3703 90.2173 35.2685L90.7075 32.3725C92.0117 31.8298 93.1957 31.083 94.2281 30.1782L97.0453 31.0158C97.1445 31.0452 97.2505 31.009 97.3109 30.925L99.3624 28.0579Z" fill="#91B3FA"/>
<path d="M83.9934 18.4092C83.4397 18.8784 83.1012 19.535 83.0413 20.2582C82.917 21.7513 84.0306 23.0671 85.5238 23.1909C87.0174 23.3158 88.3326 22.2016 88.457 20.708C88.5809 19.2154 87.4672 17.8996 85.9741 17.7752C85.8387 17.7642 85.7043 17.7627 85.571 17.7716C84.9932 17.8078 84.4437 18.0282 83.9934 18.4092ZM85.4555 24.0149C83.5079 23.8533 82.0557 22.1371 82.2174 20.1894C82.2956 19.2463 82.7369 18.3898 83.4596 17.7784C84.1818 17.1664 85.0992 16.8731 86.0428 16.9513C87.9899 17.1134 89.4427 18.8291 89.281 20.7767C89.1335 22.5485 87.7002 23.911 85.9762 24.0202C85.8051 24.0312 85.6308 24.0296 85.4555 24.0149Z" fill="#BDD0FB"/>
<path d="M86.227 29.1327C86.523 29.1138 86.8195 29.0802 87.1166 29.0309C87.21 29.0157 87.3029 28.9983 87.3958 28.98C87.854 28.8892 88.3037 28.7616 88.7388 28.6C88.7446 28.5974 88.7504 28.5953 88.7561 28.5932C88.7729 28.5869 88.7897 28.5806 88.8065 28.5743C88.8396 28.5617 88.8721 28.5491 88.9047 28.536C88.9897 28.5024 89.0401 28.4179 89.0348 28.3313C89.0333 28.3098 89.0285 28.2888 89.0207 28.2678C88.9787 28.1618 88.8585 28.1098 88.7525 28.1518C88.2061 28.368 87.633 28.5265 87.0489 28.6231C84.1471 29.1049 81.3419 28.0111 79.5087 25.9701C78.4884 24.8349 77.7694 23.4063 77.5018 21.7925C77.4551 21.5096 77.4225 21.2262 77.4047 20.9433C77.2845 19.0429 77.8172 17.174 78.9403 15.6043C80.2303 13.801 82.1454 12.6085 84.3329 12.2454C88.8501 11.497 93.1311 14.5614 93.8795 19.0765C93.9257 19.3547 93.9577 19.6344 93.9755 19.9141C94.0522 21.1265 93.8627 22.3425 93.4166 23.4735C93.4051 23.5029 93.4003 23.5333 93.4024 23.5627C93.4072 23.6399 93.456 23.7112 93.5331 23.7417C93.6391 23.7831 93.7593 23.7317 93.8013 23.6252C94.2695 22.4375 94.4684 21.1611 94.3881 19.8884C94.3692 19.5945 94.3361 19.3011 94.2873 19.0088C93.5016 14.268 89.0039 11.0519 84.2652 11.8376C81.9691 12.2186 79.9585 13.4708 78.6039 15.3639C77.4246 17.0118 76.8657 18.9736 76.9922 20.969C77.0111 21.2656 77.0452 21.5626 77.094 21.8597C77.475 24.1563 78.7272 26.1669 80.6203 27.5215C82.2682 28.7008 84.2311 29.2597 86.227 29.1327Z" fill="#BDD0FB"/>
<path d="M124.352 34.4766C124.329 34.4766 124.306 34.4745 124.282 34.4692C124.11 34.4299 124.002 34.2593 124.041 34.0877C124.098 33.8352 124.148 33.5781 124.19 33.323C124.215 33.1671 124.35 33.0553 124.504 33.0553C124.521 33.0553 124.539 33.0569 124.556 33.0601C124.73 33.0884 124.848 33.2527 124.819 33.4264C124.776 33.694 124.723 33.9638 124.664 34.2278C124.632 34.3695 124.51 34.4676 124.373 34.476C124.366 34.4766 124.359 34.4766 124.352 34.4766Z" fill="#DEE8FD"/>
<path d="M124.668 32.0449C124.664 32.0449 124.661 32.0449 124.657 32.0449C124.48 32.0381 124.344 31.8901 124.35 31.7137C124.367 31.2692 124.361 30.8184 124.333 30.3749C124.327 30.281 124.32 30.187 124.312 30.0931C124.297 29.9178 124.427 29.7635 124.603 29.7483C124.608 29.7483 124.613 29.7478 124.618 29.7478C124.779 29.7478 124.934 29.869 124.948 30.0396C124.957 30.1382 124.964 30.2364 124.97 30.3345C125 30.7995 125.006 31.2719 124.988 31.7384C124.982 31.9032 124.851 32.0344 124.689 32.0444C124.683 32.0449 124.675 32.0449 124.668 32.0449ZM124.39 28.7432C124.242 28.7432 124.109 28.6398 124.077 28.4892C123.967 27.9618 123.823 27.4359 123.649 26.9268C123.592 26.7599 123.681 26.5789 123.848 26.5216C123.882 26.5101 123.916 26.5048 123.95 26.5048C124.083 26.5048 124.208 26.5878 124.253 26.7206C124.435 27.2538 124.587 27.8054 124.702 28.3585C124.738 28.5312 124.627 28.7002 124.455 28.7364C124.44 28.7396 124.425 28.7417 124.41 28.7427C124.403 28.7432 124.396 28.7432 124.39 28.7432ZM123.317 25.6079C123.199 25.6079 123.086 25.5418 123.03 25.4284C122.794 24.9445 122.525 24.4706 122.231 24.0187C122.135 23.8713 122.176 23.6734 122.323 23.5774C122.378 23.5422 122.438 23.5254 122.498 23.5254C122.602 23.5254 122.704 23.5763 122.765 23.6703C123.074 24.1437 123.356 24.6412 123.604 25.1487C123.681 25.3072 123.616 25.4982 123.457 25.5754C123.418 25.5943 123.378 25.6048 123.337 25.6074C123.331 25.6074 123.324 25.6079 123.317 25.6079ZM121.507 22.8321C121.416 22.8321 121.326 22.7933 121.263 22.7188C120.915 22.3068 120.538 21.9126 120.143 21.5479C120.013 21.4282 120.005 21.2261 120.125 21.097C120.188 21.0288 120.273 20.9942 120.36 20.9942C120.437 20.9942 120.514 21.0225 120.576 21.0787C120.99 21.4618 121.385 21.8748 121.75 22.3068C121.864 22.4411 121.847 22.6427 121.713 22.7565C121.658 22.8022 121.593 22.8269 121.527 22.8311C121.52 22.8316 121.514 22.8321 121.507 22.8321ZM119.074 20.5822C119.009 20.5822 118.944 20.5628 118.887 20.5224C118.45 20.2075 117.989 19.9172 117.517 19.6585C117.362 19.574 117.306 19.3798 117.39 19.225C117.448 19.1195 117.558 19.0591 117.67 19.0591C117.722 19.0591 117.775 19.0717 117.824 19.099C118.318 19.3698 118.801 19.6742 119.26 20.0038C119.403 20.1072 119.436 20.3067 119.333 20.4494C119.275 20.5302 119.186 20.5759 119.094 20.5817C119.087 20.5822 119.081 20.5822 119.074 20.5822ZM116.168 18.9914C116.129 18.9914 116.09 18.9846 116.051 18.9694C115.551 18.7705 115.033 18.6015 114.512 18.4666C114.342 18.422 114.239 18.2478 114.284 18.0772C114.321 17.9334 114.45 17.8384 114.592 17.8384C114.619 17.8384 114.646 17.8415 114.673 17.8484C115.218 17.9901 115.762 18.1675 116.286 18.3758C116.45 18.4409 116.53 18.6267 116.465 18.7904C116.418 18.9085 116.308 18.9836 116.189 18.9909C116.182 18.9914 116.175 18.9914 116.168 18.9914ZM108.016 18.4335C107.872 18.4335 107.742 18.3354 107.707 18.1895C107.665 18.0184 107.769 17.8457 107.941 17.8043C108.415 17.6883 108.903 17.597 109.391 17.5319C109.466 17.5214 109.539 17.5125 109.613 17.5035C109.628 17.5015 109.643 17.5004 109.657 17.5004C109.813 17.5004 109.949 17.6232 109.967 17.7843C109.987 17.9591 109.862 18.1176 109.687 18.1381C109.617 18.1459 109.548 18.1549 109.477 18.1643C109.01 18.2268 108.544 18.3139 108.092 18.4241C108.073 18.4288 108.054 18.4314 108.036 18.4325C108.029 18.433 108.023 18.4335 108.016 18.4335ZM112.963 18.1601C112.95 18.1601 112.936 18.1591 112.922 18.1575C112.39 18.0877 111.846 18.0504 111.305 18.0473C111.129 18.0462 110.987 17.9024 110.988 17.7261C110.989 17.5503 111.133 17.4107 111.309 17.4091C111.876 17.4128 112.446 17.4511 113.005 17.5245C113.179 17.5471 113.303 17.7072 113.28 17.8819C113.26 18.0357 113.133 18.1496 112.984 18.1591C112.977 18.1596 112.97 18.1601 112.963 18.1601Z" fill="#DEE8FD"/>
<path d="M111.203 44.9785C110.877 44.9785 110.551 44.967 110.227 44.9444C110.052 44.9318 109.919 44.7791 109.932 44.6033C109.944 44.4343 110.086 44.3067 110.252 44.3067C110.259 44.3067 110.266 44.3073 110.273 44.3078C110.58 44.3293 110.891 44.3403 111.201 44.3403C111.423 44.3403 111.645 44.3345 111.866 44.3235C111.872 44.323 111.877 44.323 111.883 44.323C112.052 44.323 112.192 44.4558 112.201 44.6263C112.21 44.8006 112.076 44.9496 111.903 44.9607L111.898 44.9612C111.667 44.9727 111.435 44.9785 111.203 44.9785ZM113.505 44.7812C113.353 44.7812 113.218 44.6715 113.191 44.5161C113.161 44.3424 113.278 44.1776 113.451 44.1477C113.974 44.0574 114.496 43.9352 115.004 43.7835C115.034 43.7746 115.065 43.7704 115.095 43.7704C115.232 43.7704 115.36 43.8591 115.401 43.9981C115.451 44.1666 115.355 44.3445 115.187 44.3949C114.655 44.5539 114.107 44.6825 113.559 44.7765C113.548 44.7786 113.537 44.7801 113.525 44.7806C113.518 44.7812 113.512 44.7812 113.505 44.7812ZM108.632 44.7303C108.612 44.7303 108.591 44.7287 108.57 44.7245C108.024 44.6174 107.48 44.4763 106.953 44.3041C106.785 44.2495 106.694 44.0695 106.748 43.9021C106.792 43.7672 106.917 43.6817 107.052 43.6817C107.084 43.6817 107.118 43.6869 107.15 43.6974C107.653 43.8612 108.172 43.996 108.693 44.0984C108.866 44.1325 108.979 44.2999 108.945 44.4726C108.916 44.618 108.793 44.7208 108.652 44.7297C108.645 44.7303 108.639 44.7303 108.632 44.7303Z" fill="url(#paint39_linear_5401_15144)"/>
<path d="M118.259 43.0449C118.18 42.8534 118.098 42.6592 118.018 42.4681C118.038 42.4639 118.059 42.4618 118.08 42.4618C118.189 42.4618 118.295 42.5175 118.355 42.6177C118.441 42.7641 118.398 42.951 118.259 43.0449Z" fill="#DEE8FD"/>
<path d="M116.725 43.8301V43.1326C117.133 42.9442 117.533 42.7337 117.919 42.5054C117.951 42.4865 117.985 42.4739 118.019 42.4671C118.1 42.6581 118.182 42.8523 118.261 43.0439C118.256 43.0476 118.25 43.0512 118.245 43.0544C117.767 43.3378 117.266 43.595 116.757 43.818C116.746 43.8227 116.736 43.8264 116.725 43.8301Z" fill="url(#paint40_linear_5401_15144)"/>
<path d="M116.629 43.8457C116.506 43.8457 116.388 43.7743 116.336 43.6547C116.266 43.4935 116.339 43.3051 116.5 43.2343C116.575 43.2012 116.65 43.1676 116.724 43.1335V43.831C116.7 43.8389 116.674 43.8436 116.649 43.8452C116.642 43.8457 116.635 43.8457 116.629 43.8457ZM105.534 43.7213C105.489 43.7213 105.443 43.7113 105.4 43.6914C104.896 43.4563 104.402 43.1886 103.931 42.8942C103.781 42.8013 103.735 42.6045 103.829 42.4544C103.889 42.3578 103.994 42.3043 104.1 42.3043C104.157 42.3043 104.216 42.32 104.269 42.3526C104.718 42.6334 105.189 42.8889 105.669 43.1125C105.829 43.187 105.898 43.377 105.824 43.5371C105.773 43.6463 105.667 43.7134 105.554 43.7203C105.548 43.7208 105.541 43.7213 105.534 43.7213ZM102.769 41.9978C102.698 41.9978 102.628 41.9742 102.569 41.9269C102.135 41.5779 101.72 41.199 101.333 40.8017C101.21 40.6758 101.213 40.4737 101.339 40.3509C101.4 40.2905 101.481 40.2601 101.561 40.2601C101.645 40.2601 101.727 40.2926 101.79 40.3567C102.159 40.7356 102.556 41.0967 102.969 41.4299C103.106 41.5407 103.128 41.7417 103.017 41.8786C102.959 41.9511 102.875 41.9915 102.789 41.9967C102.782 41.9973 102.776 41.9978 102.769 41.9978ZM100.496 39.6613C100.399 39.6613 100.304 39.6177 100.241 39.5353C99.9042 39.0923 99.5909 38.6247 99.3112 38.1461C99.2225 37.9939 99.2734 37.7981 99.4256 37.7094C99.4765 37.68 99.5316 37.6659 99.5862 37.6659C99.6959 37.6659 99.8029 37.7226 99.8622 37.8238C100.129 38.2804 100.427 38.7265 100.749 39.1485C100.856 39.2886 100.829 39.4891 100.689 39.5957C100.637 39.6355 100.577 39.6565 100.516 39.6602C100.509 39.6607 100.502 39.6613 100.496 39.6613Z" fill="url(#paint41_linear_5401_15144)"/>
<path d="M119.442 42.1738C119.347 42.1738 119.253 42.1308 119.19 42.05C119.082 41.9104 119.108 41.7099 119.247 41.6023C119.453 41.4427 119.655 41.2764 119.849 41.1079C119.909 41.0554 119.984 41.0297 120.058 41.0297C120.147 41.0297 120.236 41.0664 120.299 41.1389C120.415 41.2716 120.401 41.4732 120.268 41.5892C120.066 41.7655 119.854 41.9398 119.638 42.1066C119.585 42.1476 119.524 42.1691 119.463 42.1728C119.456 42.1733 119.449 42.1738 119.442 42.1738Z" fill="#DEE8FD"/>
<path d="M120.31 36.1561C120.35 36.0999 120.35 36.0243 120.31 35.9682L119.171 34.3648C119.521 33.5157 119.739 32.6046 119.801 31.6615L121.529 30.7252C121.59 30.6921 121.623 30.6244 121.611 30.5567L121.226 28.2291C121.214 28.1614 121.161 28.1079 121.093 28.0963L119.155 27.7683C118.792 26.8955 118.292 26.103 117.687 25.4124L118.247 23.5272C118.267 23.461 118.242 23.3897 118.186 23.3498L116.268 21.9768C116.212 21.9369 116.136 21.9364 116.08 21.9763L114.477 23.1157C113.628 22.7656 112.717 22.5484 111.773 22.4864L110.837 20.7582C110.804 20.6973 110.736 20.6642 110.669 20.6753L108.341 21.0615C108.273 21.0726 108.22 21.1261 108.208 21.1938L107.88 23.132C107.008 23.4952 106.215 23.9948 105.524 24.6004L103.639 24.0399C103.573 24.02 103.502 24.0447 103.462 24.1008L102.089 26.0191C102.048 26.0752 102.048 26.1508 102.088 26.2069L103.228 27.8103C102.878 28.6594 102.66 29.5706 102.598 30.5137L100.87 31.4499C100.809 31.483 100.776 31.5507 100.787 31.6184L101.174 33.946C101.185 34.0143 101.238 34.0673 101.306 34.0788L103.244 34.4068C103.607 35.2796 104.107 36.0721 104.712 36.7628L104.151 38.6479C104.132 38.7141 104.156 38.7855 104.212 38.8253L106.131 40.1983C106.187 40.2387 106.263 40.2387 106.319 40.1988L107.922 39.0594C108.771 39.4095 109.683 39.6267 110.626 39.6887L111.562 41.4175C111.594 41.4778 111.662 41.5109 111.73 41.4999L114.058 41.1136C114.126 41.1026 114.179 41.049 114.191 40.9813L114.519 39.0431C115.392 38.68 116.184 38.1803 116.875 37.5747L118.76 38.1352C118.826 38.1551 118.897 38.1305 118.937 38.0748L120.31 36.1561Z" fill="#91B3FA"/>
<path d="M109.43 30.9407C109.39 31.4136 109.538 31.8734 109.844 32.2355C110.15 32.5971 110.58 32.8186 111.053 32.8579C111.525 32.8963 111.985 32.7498 112.347 32.4433C112.709 32.1368 112.93 31.7075 112.969 31.2352C113.051 30.2595 112.323 29.3999 111.347 29.3185C111.259 29.3112 111.172 29.3101 111.086 29.3159C110.222 29.3705 109.504 30.0533 109.43 30.9407ZM111 33.4935C110.357 33.4405 109.774 33.1398 109.357 32.6475C108.941 32.1557 108.74 31.5306 108.794 30.8883C108.904 29.5615 110.071 28.5743 111.4 28.6824C112.726 28.7926 113.715 29.9619 113.605 31.2877C113.552 31.9306 113.252 32.5136 112.759 32.9304C112.359 33.2689 111.871 33.4646 111.357 33.4972C111.239 33.5045 111.12 33.5035 111 33.4935Z" fill="#BDD0FB"/>
<path d="M111.536 37.0563C111.737 37.0432 111.94 37.0201 112.143 36.9865C112.547 36.9199 112.944 36.8118 113.325 36.6653C113.342 36.6585 113.36 36.6517 113.376 36.6454C113.509 36.5929 113.586 36.4628 113.578 36.3284C113.576 36.2959 113.568 36.2628 113.556 36.2308C113.491 36.067 113.305 35.9878 113.142 36.0518C112.787 36.192 112.416 36.2943 112.039 36.3567C112.018 36.3604 111.998 36.3636 111.977 36.3667C111.082 36.5063 110.187 36.4176 109.357 36.1206C108.906 35.9595 108.474 35.7364 108.072 35.454L108.062 35.4472C108.052 35.4399 108.042 35.433 108.033 35.4262C106.865 34.5907 106.093 33.3511 105.859 31.9351C105.828 31.7519 105.807 31.5682 105.796 31.3856C105.718 30.1549 106.062 28.9451 106.789 27.9291C107.625 26.7613 108.864 25.9893 110.28 25.7547C111.696 25.5207 113.119 25.8508 114.286 26.6858C115.454 27.5208 116.226 28.7609 116.461 30.1769C116.491 30.3569 116.512 30.538 116.523 30.7191C116.572 31.5042 116.45 32.2909 116.161 33.0231C116.143 33.0682 116.136 33.1149 116.14 33.1606C116.147 33.2797 116.222 33.3904 116.341 33.4371C116.505 33.5012 116.69 33.4214 116.755 33.2571C117.078 32.4379 117.215 31.5572 117.16 30.6792C117.147 30.4766 117.124 30.274 117.09 30.0725C116.828 28.488 115.964 27.1009 114.658 26.1667C113.352 25.2325 111.761 24.8609 110.176 25.1249C108.592 25.3879 107.205 26.2512 106.271 27.5575C105.457 28.6948 105.071 30.0483 105.159 31.425C105.171 31.6291 105.195 31.8343 105.229 32.039C105.737 35.1066 108.498 37.249 111.536 37.0563Z" fill="#BDD0FB"/>
<defs>
<linearGradient id="paint0_linear_5401_15144" x1="98.7207" y1="-66.1541" x2="67.0155" y2="118.793" gradientUnits="userSpaceOnUse">
<stop stop-color="#6946C6"/>
<stop offset="1" stop-color="#5131A5"/>
</linearGradient>
<linearGradient id="paint1_linear_5401_15144" x1="44.7031" y1="86.6773" x2="100.767" y2="86.6773" gradientUnits="userSpaceOnUse">
<stop stop-color="#6946C6"/>
<stop offset="1" stop-color="#6946C6"/>
</linearGradient>
<linearGradient id="paint2_linear_5401_15144" x1="77.1004" y1="24.8681" x2="94.1569" y2="-14.493" gradientUnits="userSpaceOnUse">
<stop stop-color="#09005D"/>
<stop offset="1" stop-color="#1A0F91"/>
</linearGradient>
<linearGradient id="paint3_linear_5401_15144" x1="78.6473" y1="50.3665" x2="40.2619" y2="316.417" gradientUnits="userSpaceOnUse">
<stop stop-color="#FEBBBA"/>
<stop offset="1" stop-color="#FF928E"/>
</linearGradient>
<linearGradient id="paint4_linear_5401_15144" x1="77.644" y1="50.2224" x2="39.2587" y2="316.273" gradientUnits="userSpaceOnUse">
<stop stop-color="#FEBBBA"/>
<stop offset="1" stop-color="#FF928E"/>
</linearGradient>
<linearGradient id="paint5_linear_5401_15144" x1="79.837" y1="80.6293" x2="136.108" y2="-31.2511" gradientUnits="userSpaceOnUse">
<stop stop-color="#FE7062"/>
<stop offset="1" stop-color="#FF928E"/>
</linearGradient>
<linearGradient id="paint6_linear_5401_15144" x1="4.05862" y1="141.968" x2="10.2831" y2="141.968" gradientUnits="userSpaceOnUse">
<stop stop-color="#09005D"/>
<stop offset="1" stop-color="#1A0F91"/>
</linearGradient>
<linearGradient id="paint7_linear_5401_15144" x1="5.78702" y1="134.882" x2="4.59804" y2="145.258" gradientUnits="userSpaceOnUse">
<stop stop-color="#FEBBBA"/>
<stop offset="1" stop-color="#FF928E"/>
</linearGradient>
<linearGradient id="paint8_linear_5401_15144" x1="13.5371" y1="142.123" x2="22.4972" y2="142.123" gradientUnits="userSpaceOnUse">
<stop stop-color="#09005D"/>
<stop offset="1" stop-color="#1A0F91"/>
</linearGradient>
<linearGradient id="paint9_linear_5401_15144" x1="15.3122" y1="135.974" x2="14.7782" y2="146.405" gradientUnits="userSpaceOnUse">
<stop stop-color="#FEBBBA"/>
<stop offset="1" stop-color="#FF928E"/>
</linearGradient>
<linearGradient id="paint10_linear_5401_15144" x1="13.6679" y1="144.672" x2="1.36097" y2="85.9886" gradientUnits="userSpaceOnUse">
<stop stop-color="#09005D"/>
<stop offset="1" stop-color="#1A0F91"/>
</linearGradient>
<linearGradient id="paint11_linear_5401_15144" x1="26.2396" y1="64.4868" x2="-0.953316" y2="94.4867" gradientUnits="userSpaceOnUse">
<stop stop-color="#6946C6"/>
<stop offset="1" stop-color="#8762EC"/>
</linearGradient>
<linearGradient id="paint12_linear_5401_15144" x1="20.9521" y1="66.1527" x2="-18.6869" y2="138.908" gradientUnits="userSpaceOnUse">
<stop stop-color="#6946C6"/>
<stop offset="1" stop-color="#6946C6"/>
</linearGradient>
<linearGradient id="paint13_linear_5401_15144" x1="10.5329" y1="74.3989" x2="13.2944" y2="66.858" gradientUnits="userSpaceOnUse">
<stop stop-color="#FEBBBA"/>
<stop offset="1" stop-color="#FF928E"/>
</linearGradient>
<linearGradient id="paint14_linear_5401_15144" x1="12.9189" y1="50.092" x2="11.636" y2="59.8891" gradientUnits="userSpaceOnUse">
<stop stop-color="#6946C6"/>
<stop offset="1" stop-color="#6246AB"/>
</linearGradient>
<linearGradient id="paint15_linear_5401_15144" x1="15.164" y1="50.3861" x2="13.8811" y2="60.1831" gradientUnits="userSpaceOnUse">
<stop stop-color="#6946C6"/>
<stop offset="0.961458" stop-color="#6946C6"/>
</linearGradient>
<linearGradient id="paint16_linear_5401_15144" x1="17.3211" y1="63.0877" x2="0.867805" y2="76.192" gradientUnits="userSpaceOnUse">
<stop stop-color="#FEBBBA"/>
<stop offset="1" stop-color="#FF928E"/>
</linearGradient>
<linearGradient id="paint17_linear_5401_15144" x1="10.9693" y1="58.7765" x2="18.5105" y2="68.4859" gradientUnits="userSpaceOnUse">
<stop stop-color="#09005D"/>
<stop offset="1" stop-color="#1A0F91"/>
</linearGradient>
<linearGradient id="paint18_linear_5401_15144" x1="15.6639" y1="62.3686" x2="7.5668" y2="68.5641" gradientUnits="userSpaceOnUse">
<stop stop-color="#FEBBBA"/>
<stop offset="1" stop-color="#FF928E"/>
</linearGradient>
<linearGradient id="paint19_linear_5401_15144" x1="34.832" y1="66.4628" x2="17.688" y2="81.272" gradientUnits="userSpaceOnUse">
<stop stop-color="#FEBBBA"/>
<stop offset="1" stop-color="#FF928E"/>
</linearGradient>
<linearGradient id="paint20_linear_5401_15144" x1="35.1858" y1="67.8459" x2="18.4977" y2="82.2614" gradientUnits="userSpaceOnUse">
<stop stop-color="#FEBBBA"/>
<stop offset="1" stop-color="#FF928E"/>
</linearGradient>
<linearGradient id="paint21_linear_5401_15144" x1="35.4651" y1="67.1993" x2="18.3212" y2="82.0085" gradientUnits="userSpaceOnUse">
<stop stop-color="#FEBBBA"/>
<stop offset="1" stop-color="#FF928E"/>
</linearGradient>
<linearGradient id="paint22_linear_5401_15144" x1="13.8239" y1="36.9199" x2="57.1798" y2="94.1501" gradientUnits="userSpaceOnUse">
<stop stop-color="#E1473D"/>
<stop offset="1" stop-color="#E9605A"/>
</linearGradient>
<linearGradient id="paint23_linear_5401_15144" x1="60.1941" y1="47.0474" x2="52.1394" y2="86.5511" gradientUnits="userSpaceOnUse">
<stop stop-color="#FE7062"/>
<stop offset="1" stop-color="#FF928E"/>
</linearGradient>
<linearGradient id="paint24_linear_5401_15144" x1="18.5442" y1="65.7362" x2="86.5312" y2="70.8193" gradientUnits="userSpaceOnUse">
<stop stop-color="#FF9085"/>
<stop offset="1" stop-color="#FB6FBB"/>
</linearGradient>
<linearGradient id="paint25_linear_5401_15144" x1="49.4622" y1="63.1559" x2="65.9072" y2="21.3437" gradientUnits="userSpaceOnUse">
<stop stop-color="#FE7062"/>
<stop offset="1" stop-color="#FF928E"/>
</linearGradient>
<linearGradient id="paint26_linear_5401_15144" x1="58.5186" y1="18.671" x2="55.7195" y2="24.0943" gradientUnits="userSpaceOnUse">
<stop stop-color="#FE7062"/>
<stop offset="1" stop-color="#FF928E"/>
</linearGradient>
<linearGradient id="paint27_linear_5401_15144" x1="24.5981" y1="79.3484" x2="16.4449" y2="120.02" gradientUnits="userSpaceOnUse">
<stop stop-color="#FEBBBA"/>
<stop offset="1" stop-color="#FF928E"/>
</linearGradient>
<linearGradient id="paint28_linear_5401_15144" x1="142.421" y1="186.79" x2="14.0214" y2="27.3242" gradientUnits="userSpaceOnUse">
<stop stop-color="#C4D5FD"/>
<stop offset="1" stop-color="#CEDDFC"/>
</linearGradient>
<linearGradient id="paint29_linear_5401_15144" x1="142.421" y1="186.792" x2="14.0201" y2="27.3276" gradientUnits="userSpaceOnUse">
<stop stop-color="#C4D5FD"/>
<stop offset="1" stop-color="#CEDDFC"/>
</linearGradient>
<linearGradient id="paint30_linear_5401_15144" x1="98.7208" y1="-66.1588" x2="67.0156" y2="118.788" gradientUnits="userSpaceOnUse">
<stop stop-color="#5864E9"/>
<stop offset="1" stop-color="#636FFD"/>
</linearGradient>
<linearGradient id="paint31_linear_5401_15144" x1="77.0966" y1="24.8678" x2="94.1531" y2="-14.4933" gradientUnits="userSpaceOnUse">
<stop stop-color="#32368C"/>
<stop offset="1" stop-color="#3E41B1"/>
</linearGradient>
<linearGradient id="paint32_linear_5401_15144" x1="98.7208" y1="-66.1581" x2="67.016" y2="118.788" gradientUnits="userSpaceOnUse">
<stop stop-color="#5864E9"/>
<stop offset="1" stop-color="#636FFD"/>
</linearGradient>
<linearGradient id="paint33_linear_5401_15144" x1="77.0963" y1="24.8712" x2="94.1528" y2="-14.4899" gradientUnits="userSpaceOnUse">
<stop stop-color="#32368C"/>
<stop offset="1" stop-color="#3E41B1"/>
</linearGradient>
<linearGradient id="paint34_linear_5401_15144" x1="98.7255" y1="-66.1589" x2="67.0202" y2="118.788" gradientUnits="userSpaceOnUse">
<stop stop-color="#5864E9"/>
<stop offset="1" stop-color="#636FFD"/>
</linearGradient>
<linearGradient id="paint35_linear_5401_15144" x1="142.42" y1="186.793" x2="14.0198" y2="27.3274" gradientUnits="userSpaceOnUse">
<stop stop-color="#C4D5FD"/>
<stop offset="1" stop-color="#CEDDFC"/>
</linearGradient>
<linearGradient id="paint36_linear_5401_15144" x1="98.7212" y1="-66.1592" x2="67.016" y2="118.788" gradientUnits="userSpaceOnUse">
<stop stop-color="#5864E9"/>
<stop offset="1" stop-color="#636FFD"/>
</linearGradient>
<linearGradient id="paint37_linear_5401_15144" x1="142.418" y1="186.794" x2="14.0179" y2="27.3294" gradientUnits="userSpaceOnUse">
<stop stop-color="#C4D5FD"/>
<stop offset="1" stop-color="#CEDDFC"/>
</linearGradient>
<linearGradient id="paint38_linear_5401_15144" x1="98.7244" y1="-66.1586" x2="67.019" y2="118.788" gradientUnits="userSpaceOnUse">
<stop stop-color="#5864E9"/>
<stop offset="1" stop-color="#636FFD"/>
</linearGradient>
<linearGradient id="paint39_linear_5401_15144" x1="98.7247" y1="-66.1578" x2="67.0191" y2="118.79" gradientUnits="userSpaceOnUse">
<stop stop-color="#5864E9"/>
<stop offset="1" stop-color="#636FFD"/>
</linearGradient>
<linearGradient id="paint40_linear_5401_15144" x1="142.424" y1="186.793" x2="14.0238" y2="27.3285" gradientUnits="userSpaceOnUse">
<stop stop-color="#C4D5FD"/>
<stop offset="1" stop-color="#CEDDFC"/>
</linearGradient>
<linearGradient id="paint41_linear_5401_15144" x1="98.7249" y1="-66.1569" x2="67.0197" y2="118.79" gradientUnits="userSpaceOnUse">
<stop stop-color="#5864E9"/>
<stop offset="1" stop-color="#636FFD"/>
</linearGradient>
</defs>
</svg>
