<svg width="200" height="190" viewBox="0 0 200 190" fill="none" xmlns="http://www.w3.org/2000/svg">
<path d="M172.128 86.0705C175.15 131.537 135.101 171.403 89.6218 168.577C46.2611 165.88 9.49362 128.732 7.11574 86.0705C4.57968 40.5735 44.0873 1.8696 89.6218 3.56381C129.256 5.03854 169.048 39.7282 172.128 86.0705Z" fill="#F8F7FB"/>
<path d="M182.503 18.0522C183.163 27.9907 174.408 36.7066 164.465 36.0881C154.986 35.5004 146.946 27.3776 146.428 18.0522C145.873 8.1046 154.511 -0.357376 164.465 0.0126648C173.131 0.335545 181.83 7.91958 182.503 18.0522Z" fill="#F8F7FB"/>
<path d="M40.649 166.114C41.0783 172.579 35.385 178.248 28.9187 177.845C22.7535 177.462 17.5255 172.18 17.1883 166.114C16.8277 159.646 22.4446 154.144 28.9187 154.384C34.5531 154.594 40.2118 159.526 40.649 166.114Z" fill="#F8F7FB"/>
<path d="M185.061 65.0005C175.953 72.6843 164.618 82.2491 157.333 95.0519C155.633 98.0394 155.225 100.098 156.083 101.344C157.447 103.327 161.501 102.707 165.793 102.048C169.419 101.493 173.528 100.864 174.618 102.337C175.178 103.093 174.981 104.481 174.028 106.458C170.992 112.776 166.256 114.153 159.087 116.239C153.723 117.797 147.05 119.739 139.105 124.514C128.103 131.124 118.531 140.052 114.268 144.28C147.051 70.5964 179.365 24.539 179.715 24.0437L178.973 23.5195C178.621 24.0183 145.869 70.6962 112.841 145.254C113.28 140.172 114.686 124.88 116.935 110.242C118.711 98.687 119.046 89.7461 119.293 83.2178C119.67 73.1958 119.859 68.1639 124.29 65.5446C125.186 65.0132 125.977 64.7502 126.681 64.7502C127.066 64.7502 127.423 64.83 127.759 64.9878C130.294 66.1814 131.158 71.6522 131.851 76.0491C132.507 80.2103 132.908 82.3906 134.164 82.6065C135 82.7534 135.845 81.9262 136.981 79.8384C140.057 74.1753 139.66 64.654 139.275 55.4483C138.856 45.4427 138.423 35.0978 142.446 29.9372C143.34 28.789 144.109 28.2811 144.746 28.4189C146.636 28.8416 147.973 34.7169 149.152 39.9011C149.986 43.5671 150.85 47.3564 151.989 50.0737C152.776 51.9511 153.701 52.8635 154.817 52.8635H154.819C157.97 52.8598 161.282 44.9185 164.788 36.5091C165.367 35.1196 165.942 33.7428 166.508 32.4241C171.808 20.0712 177.342 12.8681 182.962 11.0143C185.801 10.0783 188.752 10.4864 191.738 12.226C193.673 13.356 194.734 14.7818 194.985 16.5867C195.815 22.5871 187.397 31.3067 181.251 37.6718C180.653 38.2922 180.076 38.8908 179.53 39.4622C173.087 46.2118 170.542 50.3566 171.52 52.5098C172.006 53.5782 173.324 54.0752 175.41 53.9754C178.501 53.8376 182.699 51.4559 186.755 49.1503C191.233 46.609 195.868 43.9825 197.836 45.2032C198.705 45.7438 199.084 47.1042 198.964 49.2483C198.727 53.4711 192.695 58.5592 185.061 65.0005ZM198.313 44.4341C195.884 42.9268 191.232 45.566 186.309 48.3631C182.343 50.6142 178.244 52.9414 175.369 53.0702C173.685 53.1392 172.664 52.8308 172.347 52.1343C171.808 50.9498 172.729 47.8987 180.185 40.0898C180.731 39.5184 181.308 38.9216 181.904 38.303C188.179 31.8019 196.773 22.8992 195.883 16.4633C195.596 14.3936 194.355 12.7048 192.193 11.4442C188.975 9.56491 185.772 9.13141 182.677 10.1526C176.718 12.119 171.157 19.2876 165.673 32.0668C165.107 33.3873 164.531 34.7677 163.95 36.1608C161.017 43.197 157.366 51.9547 154.817 51.9565C154.117 51.9565 153.447 51.2037 152.825 49.7235C151.717 47.0788 150.863 43.3276 150.037 39.6998C148.619 33.4653 147.393 28.0797 144.944 27.5356C143.926 27.3088 142.876 27.911 141.729 29.3803C137.503 34.8022 137.942 45.3175 138.368 55.4864C138.749 64.5687 139.141 73.9613 136.182 79.4049C134.918 81.7304 134.376 81.7086 134.316 81.714C133.645 81.5979 133.126 78.3093 132.747 75.9076C132.021 71.3003 131.116 65.5646 128.145 64.1661C126.924 63.5911 125.469 63.7924 123.828 64.7629C118.972 67.6361 118.763 73.1577 118.386 83.1833C118.141 89.6899 117.805 98.6017 116.039 110.104C113.3 127.935 111.803 146.776 111.789 146.965L111.725 147.765C109.509 152.807 107.296 157.974 105.09 163.261L105.928 163.609C108.353 157.798 110.789 152.142 113.225 146.624C115.923 143.834 126.77 132.983 139.573 125.29C147.416 120.577 154.028 118.655 159.341 117.109C166.477 115.032 171.634 113.532 174.846 106.852C175.971 104.515 176.134 102.861 175.347 101.798C173.932 99.886 169.911 100.501 165.655 101.152C162.007 101.711 157.873 102.344 156.83 100.831C156.197 99.9114 156.633 98.1174 158.122 95.4999C165.325 82.8369 176.593 73.3318 185.646 65.6934C193.446 59.1106 199.608 53.9119 199.87 49.2991C200.013 46.7632 199.503 45.1706 198.313 44.4341Z" fill="#ECE7F6"/>
<path d="M84.25 138.462C75.7126 130.229 78.7253 103.392 68.9967 96.9612C61.7212 92.1525 64.6576 109.062 62.83 117.404C60.9829 125.835 52.6969 114.25 45.8939 106.136C35.5481 93.7941 25.2945 87.9242 16.4219 96.0162C7.54976 104.108 24.4215 111.754 33.8342 116.613C41.5192 120.58 48.3917 125.295 40.9353 127.178C32.9031 129.204 13.2268 119.615 16.4614 130.461C18.8741 138.549 48.6148 141.553 66.5303 158.08C78.7012 169.31 42.8265 162.466 52.3319 172.729C59.993 180.999 70.2956 174.124 90.4529 178.314C106.929 181.737 121.462 189.535 121.462 189.535C121.462 189.535 116.303 173.743 110.032 158.999C99.9916 135.393 102.229 124.067 93.7214 122.362C81.7056 119.951 92.7891 146.694 84.25 138.462Z" fill="#ECE7F6"/>
<path d="M155.59 165.379H148.528C160.324 165.379 169.917 155.367 169.411 143.283C169.079 135.348 164.488 128.545 157.923 125.216C158.956 123.105 159.916 120.865 160.783 118.488C164.947 119.411 168.693 121.484 171.691 124.366C175.961 128.472 178.712 134.222 178.979 140.632C179.546 154.166 168.802 165.379 155.59 165.379ZM24.5999 164.17C8.15572 159.535 -3.15973 142.199 1.31635 123.095C2.22884 119.2 3.80852 115.575 5.92536 112.354C10.3783 105.576 17.2075 100.583 25.1982 98.6162C27.9755 97.933 30.7151 97.6087 33.3799 97.6087C38.4925 97.6087 43.3317 98.7999 47.6527 100.925C48.1966 101.193 48.7662 101.318 49.3236 101.318C51.0015 101.318 52.5742 100.184 53.0275 98.3825C58.1428 78.0508 74.6075 62.3953 95.0823 58.9438L97.019 58.7517C97.019 58.7517 97.8136 58.6072 98.0785 58.5591L98.505 58.4853C100.189 58.3177 101.895 58.2316 103.622 58.2316C117.252 58.2316 129.663 63.5833 138.966 72.3473C135.148 70.9859 131.465 69.2136 128.376 66.9045C127.907 66.5538 127.266 66.2745 126.689 66.2745C126.338 66.2745 126.011 66.3779 125.761 66.6335C123.479 68.969 120.905 70.9596 118.204 72.6266C113.191 70.74 107.778 69.7106 102.127 69.7106C80.3984 69.7106 62.1402 84.9424 56.9523 105.56C56.5477 107.169 55.144 108.18 53.6459 108.18C53.1476 108.18 52.639 108.069 52.1535 107.83C48.2962 105.932 43.9745 104.869 39.4101 104.869C37.031 104.869 34.5846 105.158 32.1048 105.769C21.5786 108.36 13.31 116.832 10.7814 127.625C7.46381 141.785 13.8629 154.857 24.531 161.257L24.5999 164.17Z" fill="url(#paint0_linear_5481_8943)"/>
<path d="M148.527 165.379H126.263L126.41 155.173C126.724 155.304 127.06 155.37 127.396 155.37C127.77 155.37 128.144 155.288 128.492 155.124C133.028 152.975 148.482 144.511 157.923 125.217C164.488 128.545 169.079 135.348 169.411 143.283C169.917 155.367 160.324 165.379 148.527 165.379ZM24.5308 161.257C13.8626 154.857 7.46357 141.785 10.7812 127.625C13.3098 116.832 21.5783 108.36 32.1046 105.769C34.5844 105.158 37.0308 104.869 39.4099 104.869C43.9743 104.869 48.2959 105.932 52.1533 107.83C52.6388 108.069 53.1473 108.18 53.6456 108.18C55.1438 108.18 56.5475 107.169 56.9521 105.56C62.14 84.9424 80.3981 69.7106 102.127 69.7106C107.777 69.7106 113.191 70.74 118.204 72.6266C110.549 77.3503 101.873 79.4719 95.9027 79.4719C95.2233 79.4719 94.578 79.4443 93.9744 79.3897C93.8973 79.3833 93.8209 79.3794 93.7445 79.3794C93.0966 79.3794 92.4698 79.6254 91.9934 80.0717C91.4604 80.5713 91.1663 81.2738 91.183 82.0039C91.4449 93.3847 91.1406 106.868 96.0857 120.352L28.2931 118.597C28.2538 118.596 28.2145 118.596 28.1752 118.596C26.9733 118.596 25.8185 119.072 24.9655 119.922C24.0846 120.8 23.6026 122.001 23.632 123.243L24.5308 161.257Z" fill="url(#paint1_linear_5481_8943)"/>
<path d="M124.25 181.658H26.7734C25.782 181.658 24.9708 180.848 24.9708 179.858L24.5998 164.169L24.5309 161.256L23.6321 123.242C23.6027 122 24.0847 120.799 24.9656 119.921C25.8186 119.071 26.9735 118.595 28.1754 118.595C28.2146 118.595 28.2539 118.595 28.2932 118.596L96.0859 120.351C96.3569 121.089 96.6426 121.826 96.9457 122.563L28.6679 120.732C28.6395 120.731 28.6109 120.731 28.5826 120.731C27.739 120.731 26.9288 121.065 26.33 121.662C25.7111 122.28 25.3706 123.125 25.3925 123.999L26.7504 178.13C26.7504 179.068 27.5178 179.835 28.4558 179.835H121.9C122.838 179.835 123.605 179.068 123.605 178.13L123.974 153.661C124.649 154.104 125.335 154.543 126.038 154.981C126.158 155.055 126.282 155.119 126.411 155.172L126.263 165.378L126.102 176.516L126.053 179.858C126.053 180.848 125.242 181.658 124.25 181.658Z" fill="url(#paint2_linear_5481_8943)"/>
<path d="M26.7495 178.13C26.7495 179.069 27.5169 179.836 28.4549 179.836H121.899C122.837 179.836 123.604 179.069 123.604 178.13L124.37 127.278C124.28 124.217 121.597 123.117 119.97 123.182L28.667 120.733C27.7931 120.709 26.9481 121.046 26.3291 121.663C25.7102 122.28 25.3697 123.125 25.3916 123.999L26.7495 178.13Z" fill="#6946C6"/>
<path d="M17.4256 186.309H131.621C131.821 186.309 131.984 186.145 131.984 185.945V181.749C131.984 181.55 131.821 181.387 131.621 181.387H17.4256C17.2259 181.387 17.0625 181.55 17.0625 181.749V185.945C17.0625 186.145 17.2259 186.309 17.4256 186.309Z" fill="url(#paint3_linear_5481_8943)"/>
<path d="M67.2924 177.355H31.3141C29.9874 177.355 28.9121 176.28 28.9121 174.953V127.99C28.9121 126.628 30.0443 125.538 31.4059 125.59L67.3842 126.968C68.6743 127.016 69.694 128.077 69.694 129.367V174.953C69.694 176.28 68.619 177.355 67.2924 177.355Z" fill="#876DCD"/>
<path d="M60.1352 147.18H36.3032C36.1144 147.18 35.9609 147.026 35.9609 146.837V144.355C35.9609 144.166 36.1144 144.013 36.3032 144.013H60.1352C60.324 144.013 60.4774 144.166 60.4774 144.355V146.837C60.4774 147.026 60.324 147.18 60.1352 147.18Z" fill="#C9DAFD"/>
<path d="M60.1821 152.238H36.3501C36.1613 152.238 36.0078 152.085 36.0078 151.895V149.413C36.0078 149.224 36.1613 149.071 36.3501 149.071H60.1821C60.3708 149.071 60.5243 149.224 60.5243 149.413V151.895C60.5243 152.085 60.3708 152.238 60.1821 152.238Z" fill="#C9DAFD"/>
<path d="M60.3266 157.402H36.4946C36.3058 157.402 36.1523 157.249 36.1523 157.06V154.578C36.1523 154.389 36.3058 154.235 36.4946 154.235H60.3266C60.5154 154.235 60.6688 154.389 60.6688 154.578V157.06C60.6688 157.249 60.5154 157.402 60.3266 157.402Z" fill="#C9DAFD"/>
<path d="M60.3754 162.459H36.5434C36.3546 162.459 36.2012 162.306 36.2012 162.117V159.634C36.2012 159.445 36.3546 159.292 36.5434 159.292H60.3754C60.5642 159.292 60.7177 159.445 60.7177 159.634V162.117C60.7177 162.306 60.5642 162.459 60.3754 162.459Z" fill="#C9DAFD"/>
<path d="M112.401 147.174H77.8384C77.6496 147.174 77.4961 147.021 77.4961 146.832V144.349C77.4961 144.16 77.6496 144.007 77.8384 144.007H111.749C112.076 144.32 112.406 144.632 112.744 144.944V146.832C112.744 147.021 112.59 147.174 112.401 147.174Z" fill="#BFCCFA"/>
<path d="M112.508 152.238H77.9458C77.7564 152.238 77.6035 152.085 77.6035 151.895V149.413C77.6035 149.224 77.7564 149.071 77.9458 149.071H112.508C112.697 149.071 112.851 149.224 112.851 149.413V151.895C112.851 152.085 112.697 152.238 112.508 152.238Z" fill="#BFCCFA"/>
<path d="M98.1464 157.402H77.9458C77.7564 157.402 77.6035 157.249 77.6035 157.06V154.578C77.6035 154.389 77.7564 154.235 77.9458 154.235H98.1464C98.3359 154.235 98.4893 154.389 98.4893 154.578V157.06C98.4893 157.249 98.3359 157.402 98.1464 157.402Z" fill="#BFCCFA"/>
<path d="M96.2057 132.203H95.6689C95.4024 132.203 95.186 131.987 95.186 131.72V129.885C95.186 129.228 94.6536 128.696 93.9967 128.696H90.6704C90.0135 128.696 89.4805 129.228 89.4805 129.885V131.72C89.4805 131.987 89.2647 132.203 88.9982 132.203H88.4608C88.1943 132.203 87.9785 131.987 87.9785 131.72V129.885C87.9785 128.398 89.1832 127.194 90.6704 127.194H93.9967C95.4833 127.194 96.6886 128.398 96.6886 129.885V131.72C96.6886 131.987 96.4728 132.203 96.2057 132.203Z" fill="#BFCCFA"/>
<path d="M96.872 141.617H87.7959C87.2398 141.617 86.7891 141.166 86.7891 140.61V133.645C86.7891 133.089 87.2398 132.637 87.7959 132.637H96.872C97.4281 132.637 97.8789 133.089 97.8789 133.645V140.61C97.8789 141.166 97.4281 141.617 96.872 141.617ZM92.334 134.425C92.2987 134.425 92.2627 134.426 92.2268 134.428C91.383 134.48 90.6984 135.171 90.6541 136.016C90.6195 136.668 90.9566 137.244 91.4722 137.552L91.0356 139.37C90.9791 139.604 91.1569 139.83 91.3984 139.83H93.2696C93.511 139.83 93.6889 139.604 93.6324 139.37L93.1958 137.552C93.687 137.258 94.0164 136.721 94.0164 136.107C94.0164 135.178 93.2632 134.425 92.334 134.425Z" fill="#BFCCFA"/>
<path d="M127.397 155.369C127.061 155.369 126.726 155.303 126.412 155.173C126.283 155.119 126.159 155.056 126.039 154.981C125.336 154.543 124.65 154.104 123.975 153.661C119.69 150.848 115.969 147.932 112.743 144.946C112.406 144.634 112.075 144.322 111.748 144.009C105.065 137.591 100.595 130.858 97.5916 124.075C97.5171 123.907 97.4433 123.737 97.3707 123.569C97.2262 123.234 97.085 122.899 96.9469 122.564C96.6438 121.826 96.358 121.089 96.0871 120.351C91.1419 106.867 91.4463 93.384 91.1843 82.0033C91.1676 81.2731 91.4617 80.5706 91.9947 80.0711C92.4711 79.6248 93.0979 79.3788 93.7458 79.3788C93.8222 79.3788 93.8986 79.3827 93.9757 79.3891C94.5793 79.4437 95.2247 79.4713 95.904 79.4713C101.874 79.4713 110.55 77.3496 118.205 72.626C120.906 70.959 123.48 68.9683 125.763 66.6329C126.012 66.3773 126.339 66.2739 126.69 66.2739C127.267 66.2739 127.908 66.5532 128.377 66.9038C131.466 69.213 135.149 70.9853 138.967 72.3467C148.191 75.6351 158.199 76.5219 162.493 76.7576C163.749 76.8269 164.768 77.8011 164.898 79.0526C166.561 95.1204 164.573 108.098 160.784 118.487C159.917 120.864 158.957 123.104 157.924 125.216C148.484 144.51 133.029 152.975 128.493 155.123C128.146 155.288 127.771 155.369 127.397 155.369ZM95.897 83.2863C95.6645 83.2863 95.4475 83.3768 95.2863 83.5419C95.1258 83.705 95.0397 83.9214 95.0436 84.1506L95.0686 85.5235C95.2497 95.8242 95.4545 107.499 99.6426 118.965C104.332 131.802 113.3 142.318 127.062 151.115C127.201 151.204 127.362 151.249 127.522 151.249C127.655 151.249 127.788 151.218 127.909 151.156C131.495 149.312 140.671 143.906 148.409 133.528C158.769 119.632 163.098 102.036 161.273 81.2256C161.237 80.8076 160.907 80.4827 160.489 80.4512C152.642 79.8733 137.938 77.8813 127.63 71.0418C127.486 70.9468 127.322 70.8999 127.159 70.8999C126.955 70.8999 126.752 70.9731 126.592 71.117C117.21 79.5233 104.419 83.2863 95.897 83.2863ZM127.521 150.9C127.427 150.9 127.332 150.873 127.25 150.821C113.556 142.066 104.633 131.607 99.9708 118.844C95.8026 107.434 95.5977 95.7908 95.4179 85.5171L95.3929 84.1442C95.3903 84.0093 95.4411 83.8822 95.5355 83.7865C95.6311 83.6895 95.7596 83.6356 95.904 83.6356C104.486 83.6356 117.375 79.845 126.825 71.377C126.92 71.2923 127.039 71.2493 127.159 71.2493C127.256 71.2493 127.352 71.2769 127.437 71.3327C137.811 78.2165 152.582 80.2187 160.464 80.7999C160.709 80.8179 160.903 81.0099 160.925 81.2565C162.741 101.978 158.436 119.494 148.129 133.319C140.434 143.638 131.314 149.013 127.749 150.845C127.678 150.882 127.6 150.9 127.521 150.9ZM114.643 101.513C112.961 101.513 111.598 102.876 111.598 104.557V125.615C111.598 127.296 112.961 128.66 114.643 128.66H142.081C143.762 128.66 145.125 127.296 145.125 125.615V104.557C145.125 102.876 143.762 101.513 142.081 101.513H114.643ZM123.333 89.6005H133.391C135.376 89.6005 136.986 91.2104 136.986 93.1965V98.744C136.986 99.5506 137.64 100.204 138.446 100.204H140.069C140.875 100.204 141.528 99.5506 141.528 98.744V93.1965C141.528 88.7021 137.885 85.0586 133.391 85.0586H123.333C118.838 85.0586 115.195 88.7021 115.195 93.1965V98.744C115.195 99.5506 115.848 100.204 116.654 100.204H118.278C119.084 100.204 119.737 99.5506 119.737 98.744V93.1965C119.737 91.2104 121.347 89.6005 123.333 89.6005ZM131.191 123.257H125.533C124.803 123.257 124.266 122.575 124.436 121.866L125.756 116.37C124.198 115.438 123.179 113.696 123.283 111.726C123.417 109.174 125.486 107.084 128.037 106.926C128.146 106.919 128.254 106.916 128.361 106.916C131.171 106.916 133.448 109.192 133.448 112.002C133.448 113.858 132.452 115.482 130.967 116.37L132.287 121.866C132.458 122.575 131.92 123.257 131.191 123.257Z" fill="url(#paint4_linear_5481_8943)"/>
<path d="M127.522 151.25C127.361 151.25 127.201 151.205 127.061 151.116C113.3 142.319 104.331 131.803 99.6422 118.965C95.4541 107.5 95.2492 95.8251 95.0681 85.5244L95.0431 84.1515C95.0392 83.9222 95.1253 83.7058 95.2858 83.5427C95.447 83.3777 95.6641 83.2871 95.8965 83.2871C104.418 83.2871 117.21 79.5242 126.592 71.1178C126.752 70.974 126.955 70.9008 127.159 70.9008C127.322 70.9008 127.486 70.9477 127.629 71.0427C137.937 77.8822 152.642 79.8741 160.489 80.4521C160.907 80.4835 161.236 80.8085 161.273 81.2265C163.097 102.037 158.768 119.633 148.408 133.529C140.67 143.906 131.495 149.313 127.909 151.157C127.787 151.219 127.655 151.25 127.522 151.25ZM95.9036 83.6365C95.7591 83.6365 95.6307 83.6904 95.535 83.7874C95.4406 83.8831 95.3899 84.0102 95.3924 84.1451L95.4175 85.518C95.5973 95.7917 95.8021 107.435 99.9703 118.845C104.632 131.608 113.556 142.067 127.249 150.822C127.332 150.874 127.427 150.901 127.521 150.901C127.599 150.901 127.678 150.883 127.749 150.846C131.313 149.014 140.434 143.639 148.128 133.32C158.436 119.495 162.741 101.979 160.925 81.2573C160.903 81.0107 160.709 80.8187 160.464 80.8008C152.582 80.2196 137.811 78.2174 127.436 71.3336C127.351 71.2777 127.255 71.2501 127.159 71.2501C127.039 71.2501 126.919 71.2931 126.825 71.3779C117.374 79.8459 104.485 83.6365 95.9036 83.6365Z" fill="url(#paint5_linear_5481_8943)"/>
<path d="M140.068 100.203H138.444C137.638 100.203 136.985 99.5501 136.985 98.7435V93.196C136.985 91.2099 135.375 89.6 133.389 89.6H123.331C121.345 89.6 119.735 91.2099 119.735 93.196V98.7435C119.735 99.5501 119.082 100.203 118.276 100.203H116.653C115.847 100.203 115.193 99.5501 115.193 98.7435V93.196C115.193 88.7016 118.837 85.0581 123.331 85.0581H133.389C137.884 85.0581 141.526 88.7016 141.526 93.196V98.7435C141.526 99.5501 140.873 100.203 140.068 100.203Z" fill="url(#paint6_linear_5481_8943)"/>
<path d="M142.08 128.658H114.642C112.961 128.658 111.598 127.295 111.598 125.614V104.556C111.598 102.875 112.961 101.511 114.642 101.511H142.08C143.761 101.511 145.125 102.875 145.125 104.556V125.614C145.125 127.295 143.761 128.658 142.08 128.658ZM128.361 106.914C128.254 106.914 128.145 106.918 128.037 106.924C125.485 107.083 123.417 109.172 123.282 111.725C123.178 113.695 124.197 115.436 125.756 116.368L124.435 121.864C124.265 122.573 124.803 123.256 125.532 123.256H131.19C131.92 123.256 132.457 122.573 132.287 121.864L130.967 116.368C132.452 115.48 133.447 113.857 133.447 112C133.447 109.191 131.17 106.914 128.361 106.914Z" fill="url(#paint7_linear_5481_8943)"/>
<defs>
<linearGradient id="paint0_linear_5481_8943" x1="14.7077" y1="20.318" x2="152.979" y2="234.876" gradientUnits="userSpaceOnUse">
<stop stop-color="#6946C6"/>
<stop offset="1" stop-color="#4042E2"/>
</linearGradient>
<linearGradient id="paint1_linear_5481_8943" x1="14.7074" y1="20.318" x2="152.978" y2="234.876" gradientUnits="userSpaceOnUse">
<stop stop-color="#8B72CE"/>
<stop offset="1" stop-color="#515AE7"/>
</linearGradient>
<linearGradient id="paint2_linear_5481_8943" x1="84.4155" y1="177.352" x2="61.3935" y2="108.286" gradientUnits="userSpaceOnUse">
<stop stop-color="#09005D"/>
<stop offset="1" stop-color="#1A0F91"/>
</linearGradient>
<linearGradient id="paint3_linear_5481_8943" x1="30.8498" y1="173.224" x2="133.358" y2="198.159" gradientUnits="userSpaceOnUse">
<stop stop-color="#09005D"/>
<stop offset="1" stop-color="#1A0F91"/>
</linearGradient>
<linearGradient id="paint4_linear_5481_8943" x1="206.137" y1="25.9298" x2="176.305" y2="55.1133" gradientUnits="userSpaceOnUse">
<stop stop-color="#FF928E"/>
<stop offset="1" stop-color="#FE7062"/>
</linearGradient>
<linearGradient id="paint5_linear_5481_8943" x1="206.136" y1="25.9306" x2="176.304" y2="55.1141" gradientUnits="userSpaceOnUse">
<stop stop-color="#FFD5D3"/>
<stop offset="1" stop-color="#FFC7C2"/>
</linearGradient>
<linearGradient id="paint6_linear_5481_8943" x1="206.135" y1="25.9293" x2="176.303" y2="55.1128" gradientUnits="userSpaceOnUse">
<stop stop-color="#FFD5D3"/>
<stop offset="1" stop-color="#FFC7C2"/>
</linearGradient>
<linearGradient id="paint7_linear_5481_8943" x1="206.136" y1="25.9282" x2="176.304" y2="55.1117" gradientUnits="userSpaceOnUse">
<stop stop-color="#FFD5D3"/>
<stop offset="1" stop-color="#FFC7C2"/>
</linearGradient>
</defs>
</svg>
