<?xml version="1.0" encoding="UTF-8"?>
<svg width="9px" height="10px" viewBox="0 0 9 10" version="1.1" xmlns="http://www.w3.org/2000/svg" xmlns:xlink="http://www.w3.org/1999/xlink">
    <!-- Generator: Sketch 49 (51002) - http://www.bohemiancoding.com/sketch -->
    <title>Group 6</title>
    <desc>Created with Sketch.</desc>
    <defs></defs>
    <g id="Page-1" stroke="none" stroke-width="1" fill="none" fill-rule="evenodd">
        <g id="Scanned-Apps---Review" transform="translate(-1226.000000, -852.000000)" fill="#00A3A3">
            <g id="Group-8-Copy" transform="translate(1034.000000, 804.000000)">
                <g id="Group-6" transform="translate(196.500000, 53.000000) rotate(90.000000) translate(-196.500000, -53.000000) translate(191.500000, 48.500000)">
                    <path d="M4.59796052,1.91498535 L1.40451688,5.03696134 C1.08321421,5.35107341 0.562279665,5.35107341 0.240976999,5.03696134 C-0.0803256664,4.72284926 -0.0803256664,4.21357297 0.240976999,3.89946089 L3.9762481,0.247783275 L4.10093641,0.147746099 C4.40252053,-0.0492486995 4.79579025,-0.0492486995 5.09737437,0.147746099 L5.22334552,0.249040177 L8.94216168,3.9007178 C9.26275429,4.21552251 9.26160433,4.72479756 8.93959317,5.03821547 C8.61758201,5.35163337 8.09664873,5.35050915 7.77605612,5.03570443 L4.59796052,1.91498535 Z" id="Shape"></path>
                    <path d="M3.76818098,0.816533496 C3.76818098,0.372311941 4.13653733,0.0121992192 4.59092792,0.0121992192 C5.04531851,0.0121992192 5.41367486,0.372311941 5.41367486,0.816533496 L5.41367486,7.96706522 C5.41367486,8.41128678 5.04531851,8.7713995 4.59092792,8.7713995 C4.13653733,8.7713995 3.76818098,8.41128678 3.76818098,7.96706522 L3.76818098,0.816533496 Z" id="Shape"></path>
                </g>
            </g>
        </g>
    </g>
</svg>