<?xml version="1.0" encoding="UTF-8"?>
<svg width="13px" height="13px" viewBox="0 0 13 13" version="1.1" xmlns="http://www.w3.org/2000/svg" xmlns:xlink="http://www.w3.org/1999/xlink">
    <!-- Generator: Sketch 49.2 (51160) - http://www.bohemiancoding.com/sketch -->
    <title>Group 6 Copy</title>
    <desc>Created with Sketch.</desc>
    <defs></defs>
    <g id="Page-1" stroke="none" stroke-width="1" fill="none" fill-rule="evenodd">
        <g id="System-Dashboard-Copy-6" transform="translate(-1410.000000, -189.000000)" fill="#FFFFFF">
            <g id="Group-9-Copy" transform="translate(1261.000000, 168.000000)">
                <g id="Group-7" transform="translate(149.000000, 21.000000)">
                    <g id="Group-6-Copy" transform="translate(6.500000, 6.500000) rotate(90.000000) translate(-6.500000, -6.500000) translate(0.500000, 0.500000)">
                        <path d="M5.97734868,2.5533138 L1.82587194,6.71594845 C1.40817848,7.13476455 0.730963564,7.13476455 0.313270099,6.71594845 C-0.104423366,6.29713235 -0.104423366,5.61809729 0.313270099,5.19928119 L5.16912253,0.330377699 L5.33121733,0.196994798 C5.72327669,-0.0656649327 6.23452733,-0.0656649327 6.62658668,0.196994798 L6.79034917,0.332053569 L11.6248102,5.20095706 C12.0415806,5.62069668 12.0400856,6.29973008 11.6214711,6.71762062 C11.2028566,7.13551116 10.5256433,7.13401219 10.108873,6.71427258 L5.97734868,2.5533138 Z" id="Shape"></path>
                        <path d="M4.89863528,1.08871133 C4.89863528,0.496415922 5.37749853,0.0162656255 5.9682063,0.0162656255 C6.55891406,0.0162656255 7.03777732,0.496415922 7.03777732,1.08871133 L7.03777732,10.6227536 C7.03777732,11.215049 6.55891406,11.6951993 5.9682063,11.6951993 C5.37749853,11.6951993 4.89863528,11.215049 4.89863528,10.6227536 L4.89863528,1.08871133 Z" id="Shape"></path>
                    </g>
                </g>
            </g>
        </g>
    </g>
</svg>