<svg width="57" height="41" viewBox="0 0 57 41" fill="none" xmlns="http://www.w3.org/2000/svg">
<path d="M52.7222 0H49.8043C49.344 0 48.971 0.373 48.971 0.833333C48.971 1.29367 49.344 1.66667 49.8043 1.66667H52.7222C54.1007 1.66667 55.2222 2.78822 55.2222 4.16667V8H1.66667V4.16667C1.66667 2.78822 2.78811 1.66667 4.16667 1.66667H46.1454C46.6058 1.66667 46.9788 1.29367 46.9788 0.833333C46.9788 0.373 46.6058 0 46.1454 0H4.16667C1.86911 0 0 1.86911 0 4.16667V13.3534C0 13.8138 0.373111 14.1868 0.833333 14.1868C1.29356 14.1868 1.66667 13.8138 1.66667 13.3534V9.66667H55.2222V31.1518C55.2222 31.6121 55.5952 31.9851 56.0556 31.9851C56.5159 31.9851 56.8889 31.6121 56.8889 31.1518V4.16667C56.8889 1.86911 55.0198 0 52.7222 0Z" fill="black"/>
<path d="M56.0556 33.8326C55.5952 33.8326 55.2222 34.2056 55.2222 34.666V36.8333C55.2222 38.2118 54.1007 39.3333 52.7222 39.3333H4.16667C2.78811 39.3333 1.66667 38.2118 1.66667 36.8333V16.9296C1.66667 16.4693 1.29356 16.0963 0.833333 16.0963C0.373111 16.0963 0 16.4693 0 16.9296V36.8333C0 39.1309 1.86911 41 4.16667 41H52.7222C55.0198 41 56.8889 39.1309 56.8889 36.8333V34.666C56.8889 34.2058 56.5159 33.8326 56.0556 33.8326Z" fill="black"/>
<path d="M12.0535 18.1063C11.7281 17.781 11.2004 17.781 10.8751 18.1063L5.86728 23.1141C5.71095 23.2704 5.62317 23.4823 5.62317 23.7034C5.62317 23.9245 5.71095 24.1363 5.86728 24.2927L10.8088 29.2343C10.9715 29.397 11.1848 29.4783 11.3981 29.4783C11.6113 29.4783 11.8246 29.397 11.9873 29.2343C12.3127 28.9087 12.3127 28.3812 11.9873 28.0558L7.63495 23.7035L12.0535 19.285C12.3791 18.9594 12.3791 18.4319 12.0535 18.1063Z" fill="black"/>
<path d="M23.2605 29.2342C23.4232 29.3969 23.6365 29.4782 23.8497 29.4782C24.0629 29.4782 24.2763 29.3969 24.4389 29.2342L29.3806 24.2926C29.5368 24.1363 29.6246 23.9244 29.6246 23.7033C29.6246 23.4822 29.5368 23.2704 29.3806 23.114L24.3727 18.1062C24.0473 17.7808 23.5196 17.7808 23.1943 18.1062C22.8688 18.4317 22.8688 18.9593 23.1943 19.2847L27.6129 23.7033L23.2606 28.0555C22.9351 28.3812 22.9351 28.9087 23.2605 29.2342Z" fill="black"/>
<path d="M14.6655 32.3037C15.0016 32.3037 15.3184 32.0988 15.4447 31.7658L21.3663 16.166C21.5296 15.7357 21.3132 15.2545 20.883 15.0911C20.4527 14.9277 19.9714 15.1442 19.8082 15.5745L13.8866 31.1745C13.7233 31.6047 13.9397 32.0859 14.37 32.2492C14.4673 32.2862 14.5672 32.3037 14.6655 32.3037Z" fill="black"/>
<path d="M3.66736 4.87451C3.66736 6.25296 4.7888 7.37451 6.16736 7.37451C7.54591 7.37451 8.66736 6.25296 8.66736 4.87451C8.66736 3.49607 7.54591 2.37451 6.16736 2.37451C4.7888 2.37451 3.66736 3.49607 3.66736 4.87451ZM7.00069 4.87451C7.00069 5.33407 6.62691 5.70784 6.16736 5.70784C5.7078 5.70784 5.33403 5.33407 5.33403 4.87451C5.33403 4.41496 5.7078 4.04118 6.16736 4.04118C6.62691 4.04118 7.00069 4.41496 7.00069 4.87451Z" fill="black"/>
<path d="M10.1295 4.87451C10.1295 6.25296 11.251 7.37451 12.6295 7.37451C14.0081 7.37451 15.1295 6.25296 15.1295 4.87451C15.1295 3.49607 14.0081 2.37451 12.6295 2.37451C11.251 2.37451 10.1295 3.49607 10.1295 4.87451ZM13.4628 4.87451C13.4628 5.33407 13.0891 5.70784 12.6295 5.70784C12.17 5.70784 11.7962 5.33407 11.7962 4.87451C11.7962 4.41496 12.17 4.04118 12.6295 4.04118C13.0891 4.04118 13.4628 4.41496 13.4628 4.87451Z" fill="black"/>
<path d="M16.5917 4.87451C16.5917 6.25296 17.7131 7.37451 19.0917 7.37451C20.4702 7.37451 21.5917 6.25296 21.5917 4.87451C21.5917 3.49607 20.4702 2.37451 19.0917 2.37451C17.7131 2.37451 16.5917 3.49607 16.5917 4.87451ZM19.925 4.87451C19.925 5.33407 19.5512 5.70784 19.0917 5.70784C18.6321 5.70784 18.2583 5.33407 18.2583 4.87451C18.2583 4.41496 18.6321 4.04118 19.0917 4.04118C19.5512 4.04118 19.925 4.41496 19.925 4.87451Z" fill="black"/>
<path d="M37.2778 18.9854H42.5001C43.8785 18.9854 45.0001 17.8638 45.0001 16.4854C45.0001 15.1069 43.8785 13.9854 42.5001 13.9854H37.2778C35.8994 13.9854 34.7778 15.1069 34.7778 16.4854C34.7778 17.8638 35.8994 18.9854 37.2778 18.9854ZM37.2778 15.652H42.5001C42.9596 15.652 43.3334 16.0258 43.3334 16.4854C43.3334 16.9449 42.9596 17.3187 42.5001 17.3187H37.2778C36.8183 17.3187 36.4445 16.9449 36.4445 16.4854C36.4445 16.0258 36.8183 15.652 37.2778 15.652Z" fill="#6946C6"/>
<path d="M37.2778 25.652H51.0556C52.4341 25.652 53.5556 24.5304 53.5556 23.152C53.5556 21.7735 52.4341 20.652 51.0556 20.652H37.2778C35.8994 20.652 34.7778 21.7735 34.7778 23.152C34.7778 24.5304 35.8994 25.652 37.2778 25.652ZM37.2778 22.3186H51.0556C51.5152 22.3186 51.8889 22.6924 51.8889 23.152C51.8889 23.6115 51.5152 23.9853 51.0556 23.9853H37.2778C36.8183 23.9853 36.4445 23.6115 36.4445 23.152C36.4445 22.6924 36.8183 22.3186 37.2778 22.3186Z" fill="#6946C6"/>
<path d="M37.2778 32.3186H46.9628C48.3413 32.3186 49.4628 31.197 49.4628 29.8186C49.4628 28.4402 48.3413 27.3186 46.9628 27.3186H37.2778C35.8994 27.3186 34.7778 28.4402 34.7778 29.8186C34.7778 31.197 35.8994 32.3186 37.2778 32.3186ZM37.2778 28.9853H46.9628C47.4224 28.9853 47.7962 29.359 47.7962 29.8186C47.7962 30.2782 47.4224 30.6519 46.9628 30.6519H37.2778C36.8183 30.6519 36.4445 30.2782 36.4445 29.8186C36.4445 29.359 36.8183 28.9853 37.2778 28.9853Z" fill="black"/>
</svg>
