<svg width="408" height="308" viewBox="0 0 408 308" fill="none" xmlns="http://www.w3.org/2000/svg">
<path d="M295.65 240.166H92.4976V96.8141C92.4976 92.8848 95.6843 89.6983 99.6147 89.6983H288.533C292.464 89.6983 295.65 92.8848 295.65 96.8141V133.854H288.109V97.0688H99.6793V212.815H288.109V200.749H295.65V240.166Z" fill="url(#paint0_linear)"/>
<path d="M288.11 212.815H99.6799V97.0687H288.11V133.854H228.036C226.37 133.854 225.021 135.203 225.021 136.869V197.733C225.021 199.399 226.37 200.749 228.036 200.749H288.11V212.815Z" fill="url(#paint1_linear)"/>
<path d="M32.8387 96.8869H79.0407C78.1399 92.3761 74.0886 89.0251 69.449 89.0251C68.395 89.0251 67.3584 89.1919 66.3675 89.5217L66.1143 89.605L65.9618 89.3872C63.3986 85.75 59.2188 83.5791 54.7783 83.5791C49.5783 83.5791 44.8967 86.4667 42.5619 91.1157L42.4334 91.3703L42.1562 91.3027C41.559 91.1547 40.9422 91.0803 40.3225 91.0803C36.7812 91.0803 33.7019 93.4969 32.8387 96.8869ZM79.8858 97.6035H31.9561L32.0394 97.1769C32.8087 93.2294 36.2929 90.3637 40.3225 90.3637C40.9047 90.3637 41.4839 90.4238 42.0503 90.5433C44.5474 85.7981 49.3988 82.8625 54.7783 82.8625C59.363 82.8625 63.6849 85.062 66.3938 88.7607C67.3809 88.4603 68.4078 88.3085 69.449 88.3085C74.664 88.3085 79.0271 92.0441 79.8219 97.1904L79.8858 97.6035Z" fill="#6AAFE8"/>
<path d="M241.725 13.2671C241.509 15.5454 240.793 29.9806 255.911 37.8048C271.031 29.9806 270.315 15.5454 270.099 13.2671C260.71 13.2085 256.888 10.5937 255.911 9.76361C254.936 10.5937 251.113 13.2085 241.725 13.2671ZM255.911 38.6101L255.749 38.5267C238.74 29.8432 241.024 13.0267 241.049 12.8577L241.094 12.5512H241.403C252.218 12.5512 255.616 9.06651 255.649 9.03195L255.913 8.75177L256.175 9.03272C256.207 9.06653 259.606 12.5512 270.42 12.5512H270.729L270.774 12.8577C270.799 13.0267 273.084 29.8432 256.074 38.5267L255.911 38.6101Z" fill="#6AAFE8"/>
<path d="M348.982 262.107C346.422 250.408 351.954 247.489 357.304 244.666C361.676 242.358 365.805 240.18 365.585 233.285C365.294 224.144 371.521 220.82 377.014 217.886C381.102 215.703 384.962 213.642 385.537 209.482C386.923 199.475 396.154 187.037 396.247 186.913L396.821 187.342C396.728 187.464 387.607 199.757 386.247 209.581C385.621 214.101 381.604 216.246 377.352 218.517C371.782 221.491 366.023 224.567 366.3 233.262C366.535 240.603 362.012 242.991 357.638 245.299C352.29 248.121 347.238 250.787 349.682 261.954L348.982 262.107Z" fill="url(#paint2_linear)"/>
<path d="M345.025 253.384C347.352 256.608 349.464 258.249 351.476 258.399C354.288 258.607 356.851 255.937 359.818 252.847C363.642 248.865 367.975 244.352 374.525 243.786C382.393 243.105 383.093 236.038 383.771 229.206C384.376 223.098 384.947 217.329 390.543 216.518C395.817 215.754 399.21 213.984 400.63 211.256C401.814 208.982 401.567 206.046 399.912 202.765C398.346 199.658 400.606 195.281 402.998 190.65C405.593 185.626 408.276 180.429 405.587 177.226C405.182 176.744 404.691 176.499 404.086 176.477C401.049 176.376 395.896 181.678 390.442 187.3C384.12 193.817 377.585 200.552 372.803 200.553L372.62 200.55C368.298 200.389 366.802 205.428 365.07 211.261C363.168 217.673 361.012 224.941 354.344 226.528C349.025 227.795 346.698 228.501 346.054 229.596C345.599 230.367 345.912 231.483 346.431 233.331C346.813 234.692 347.287 236.386 347.645 238.615C349.042 247.326 345.834 252.295 345.025 253.384ZM351.792 259.126C351.669 259.126 351.547 259.121 351.423 259.112C349.109 258.941 346.842 257.182 344.286 253.581L344.125 253.355L344.305 253.143C344.346 253.093 348.443 248.102 346.939 238.728C346.587 236.541 346.119 234.868 345.741 233.524C345.191 231.562 344.828 230.267 345.436 229.233C346.209 227.921 348.297 227.232 354.179 225.832C360.443 224.34 362.537 217.283 364.385 211.057C366.125 205.194 367.773 199.663 372.647 199.834C377.125 200.006 383.927 192.988 389.927 186.802C395.496 181.062 400.751 175.655 404.112 175.761C404.918 175.791 405.599 176.129 406.135 176.767C409.131 180.334 406.336 185.746 403.634 190.979C401.328 195.444 399.151 199.661 400.552 202.442C402.313 205.937 402.56 209.1 401.265 211.586C399.733 214.529 396.16 216.428 390.646 217.226C385.604 217.958 385.061 223.455 384.483 229.276C383.811 236.069 383.047 243.767 374.587 244.499C368.305 245.043 364.071 249.452 360.335 253.342C357.364 256.437 354.781 259.126 351.792 259.126Z" fill="url(#paint3_linear)"/>
<path d="M337.14 159.774C336.58 159.774 336.16 159.906 335.847 160.171C334.53 161.292 334.632 165.113 334.818 172.051C334.88 174.352 334.95 176.961 334.984 179.98C335.064 186.837 337.133 191.212 338.643 194.406C340.721 198.806 341.977 201.461 335.186 205.374C332.525 206.908 330.985 208.673 330.48 210.771C329.501 214.841 332.648 219.69 335.692 224.38C336.874 226.201 338.096 228.083 339.065 229.904C340.323 232.265 341.595 235.891 342.943 239.73C345.562 247.191 348.531 255.647 351.867 255.951C353.14 256.064 354.479 254.911 355.847 252.518C359.054 246.907 358.871 242.06 358.661 236.446C358.38 228.941 358.061 220.434 366.006 207.876C369.197 202.831 370.304 198.856 369.386 195.726C368.263 191.894 364.31 190.05 360.822 188.423C358.239 187.218 356.007 186.177 355.555 184.51C355.332 183.686 355.557 182.802 356.244 181.807C358.407 178.675 359.124 176.317 358.435 174.596C357.445 172.115 353.416 170.965 349.606 170.168C344.807 169.163 343.174 166.111 341.86 163.661C340.877 161.826 340.028 160.242 338.126 159.88C337.757 159.81 337.429 159.774 337.14 159.774ZM352.053 256.675C351.97 256.675 351.885 256.671 351.802 256.663C348.008 256.317 345.09 248.006 342.268 239.967C340.93 236.154 339.665 232.552 338.433 230.241C337.479 228.447 336.265 226.578 335.091 224.769C331.965 219.953 328.733 214.973 329.785 210.603C330.338 208.304 331.988 206.391 334.829 204.754C341.048 201.17 340.091 199.147 337.995 194.713C336.457 191.459 334.35 187.002 334.268 179.989C334.234 176.975 334.165 174.369 334.102 172.07C333.904 164.678 333.805 160.969 335.383 159.626C336.037 159.071 336.951 158.928 338.26 159.176C340.498 159.602 341.466 161.41 342.491 163.323C343.799 165.764 345.281 168.53 349.753 169.466C353.95 170.344 357.987 171.541 359.1 174.331C359.884 176.291 359.143 178.87 356.833 182.214C356.273 183.025 356.081 183.714 356.246 184.322C356.612 185.669 358.703 186.644 361.125 187.774C364.57 189.382 368.859 191.383 370.073 195.526C371.052 198.865 369.919 203.031 366.611 208.259C358.784 220.629 359.099 229.019 359.376 236.419C359.583 241.905 359.776 247.085 356.469 252.872C355.009 255.428 353.561 256.674 352.053 256.675Z" fill="url(#paint4_linear)"/>
<path d="M352.128 261.11L351.446 260.895C355.27 248.805 348.351 221.679 346.289 215.078C345.275 211.832 346.212 206.945 347.119 202.219C348.289 196.116 349.5 189.804 346.412 187.438C340.617 182.995 340.922 172.715 340.937 172.28L341.653 172.307C341.65 172.409 341.347 182.653 346.848 186.871C350.286 189.505 349.033 196.037 347.821 202.354C346.932 206.993 346.012 211.789 346.971 214.864C349.523 223.028 355.944 249.05 352.128 261.11Z" fill="url(#paint5_linear)"/>
<path d="M347.002 258.313C344.206 258.313 341.611 248.452 338.058 243.931C333.866 238.596 332.151 230.212 327.196 224.116C322.243 218.019 308.333 216.114 314.431 206.397C315.777 204.253 316.63 202.285 317.137 200.457C318.155 199.972 318.858 198.935 318.858 197.733V180.047C319.079 180.006 319.304 179.985 319.529 179.985C321.002 179.985 322.518 180.862 323.195 182.581C328.15 195.156 337.825 193.031 336.713 198.529C334.193 210.991 341.868 212.684 349.501 218.21C357.133 223.735 349.501 229.163 349.12 237.737C348.739 246.311 351.967 252.505 348.537 257.268C348.014 257.994 347.505 258.313 347.002 258.313Z" fill="url(#paint6_linear)"/>
<path d="M354.09 258.371C354.048 258.118 349.811 233.003 340.324 226.12C330.65 219.102 328.892 212.618 325.513 197.329L326.212 197.175C329.55 212.275 331.282 218.677 340.744 225.542C350.469 232.596 354.624 257.21 354.797 258.254L354.09 258.371Z" fill="white"/>
<path d="M345.53 257.471C345.53 257.471 348.348 250.5 343.218 240.592C338.087 230.683 333.935 232.207 346.303 224.585C358.669 216.962 346.38 192.953 356.908 189.904C367.435 186.855 376.582 147.994 384.587 152.943C392.591 157.891 381.918 176.947 387.635 182.663C393.353 188.38 394.115 195.655 382.3 201.544C370.484 207.435 390.685 229.921 374.677 236.781C358.669 243.64 363.261 270.539 345.53 257.471Z" fill="url(#paint7_linear)"/>
<path d="M350.42 264.864C350.402 264.774 348.681 255.849 354.119 244.317C359.66 232.568 362.311 219.724 361.214 209.959C360.618 204.671 364.005 202.603 367.283 200.602C370.509 198.632 373.844 196.596 373.66 191.386C373.494 186.679 375.486 175.645 375.571 175.178L376.276 175.306C376.255 175.419 374.212 186.731 374.376 191.361C374.574 196.989 371.057 199.136 367.656 201.212C364.428 203.184 361.381 205.044 361.925 209.879C363.037 219.77 360.362 232.758 354.767 244.621C349.436 255.926 351.104 264.635 351.122 264.722L350.42 264.864Z" fill="white"/>
<path d="M363.354 215.613C366.949 212.275 371.703 211.794 370.712 216.746C369.722 221.698 366.325 223.114 368.025 226.227C369.722 229.34 372.552 232.452 367.741 236.274C362.93 240.094 360.241 240.518 358.826 247.736C357.41 254.952 357.694 259.88 351.467 260.188C345.24 260.495 347.646 251.414 349.627 247.31C349.627 247.31 352.599 242.628 350.617 236.479C348.636 230.33 344.815 227.009 352.882 224.92C360.948 222.831 360.931 217.865 363.354 215.613Z" fill="white"/>
<path d="M351.919 264.801C351.899 263.918 351.471 243.129 355.36 239.631C359.331 236.056 360.094 229.741 360.195 226.295C360.328 221.804 366.129 219.138 366.377 219.027L366.671 219.679C366.614 219.705 361.03 222.273 360.91 226.315C360.783 230.665 359.799 236.598 355.838 240.162C352.192 243.444 352.629 264.572 352.635 264.785L351.919 264.801Z" fill="url(#paint8_linear)"/>
<path d="M366.523 256.316L360.073 280.787H345.657L339.208 256.316H366.523Z" fill="url(#paint9_linear)"/>
<path d="M366.523 256.316C366.523 256.316 352.324 258.982 352.324 280.787H345.657L339.208 256.316H366.523Z" fill="url(#paint10_linear)"/>
<path d="M112.401 194.521H93.4163V192.371H112.401V194.521Z" fill="#1487E3"/>
<path d="M89.454 133.065H59.1533V94.318H59.8692V132.349H89.454V133.065Z" fill="#78C2FF"/>
<path d="M217.708 107.534H216.992V67.5799H255.553V33.9784H256.269V68.2957H217.708V107.534Z" fill="#78C2FF"/>
<path d="M342.279 152.041H302.158V151.324H341.562V128.03H342.279V152.041Z" fill="#78C2FF"/>
<path d="M42.326 184.415C42.326 184.415 41.4673 196.468 43.8217 197.911C45.2971 198.815 51.1799 201.862 51.0057 202.435C50.8314 203.006 47.6837 207.52 47.6837 207.52C47.6837 207.52 36.3838 200.079 36.0195 197.735C35.6634 195.444 36.5754 180.086 38.1289 179.378C39.2925 178.848 39.9063 179.287 41.3734 180.375C43.4303 181.902 42.326 184.415 42.326 184.415Z" fill="#4E309E"/>
<path d="M41.0116 272.132C41.0116 272.132 40.66 274.571 40.6172 274.937C40.5729 275.303 36.7078 274.721 36.7078 274.721L36.3945 271.818C36.3945 271.818 40.5293 271.788 41.0116 272.132Z" fill="#424773"/>
<path d="M40.6582 274.627C40.6582 274.627 41.8812 276.097 43.0666 276.738C44.2513 277.378 46.1113 277.631 46.813 278.296C47.3178 278.774 48.6542 280.834 43.7344 280.792C38.8147 280.751 36.4438 281.084 35.9172 280.294C35.3898 279.504 36.6797 274.462 36.6797 274.462C36.6797 274.462 37.8441 274.881 40.6582 274.627Z" fill="#292C47"/>
<path d="M60.3565 272.132C60.3565 272.132 60.0042 274.571 59.9606 274.937C59.9163 275.303 56.052 274.721 56.052 274.721L55.7395 271.818C55.7395 271.818 59.8742 271.788 60.3565 272.132Z" fill="#424773"/>
<path d="M60.0011 274.627C60.0011 274.627 61.2249 276.097 62.4096 276.738C63.5943 277.378 67.9529 277.904 68.653 278.567C69.1586 279.046 69.9992 280.974 63.0782 280.792C58.1599 280.664 55.7875 281.084 55.2594 280.294C54.7328 279.504 56.0226 274.462 56.0226 274.462C56.0226 274.462 57.1202 274.909 60.0011 274.627Z" fill="#292C47"/>
<path d="M42.3979 209.464C42.3979 209.464 38.7665 215.234 39.0369 220.449C39.3081 225.665 38.7139 231.236 38.1677 236.684C37.56 242.758 35.9028 255.398 35.8126 258.646C35.7218 261.895 35.9313 274.121 35.9313 274.121L42.2304 274.073C42.2304 274.073 44.4668 249.376 45.5508 246.811C46.6341 244.246 51.0821 225.692 51.2631 223.64C51.4434 221.588 42.3979 209.464 42.3979 209.464Z" fill="#292C47"/>
<path d="M61.5158 210.245C61.5158 210.245 62.9506 224.424 63.3119 227.616C63.6725 230.808 63.4261 244.639 63.6057 246.635C63.7875 248.63 62.3992 269.731 62.0574 273.749L55.1333 273.705C55.1333 273.705 54.6556 256.636 54.6556 248.343C54.6556 240.049 52.5273 230.395 50.0889 224.923C47.6504 219.45 42.0688 219.321 40.5701 209.169C40.5701 209.169 59.4867 207.026 61.5158 210.245Z" fill="#292C47"/>
<path d="M46.2353 160.818C46.2353 160.818 50.5623 157.928 53.601 161.024C56.6397 164.12 58.1332 171.399 55.9516 172.853C53.7693 174.306 50.0673 174.686 48.3102 172.715C46.553 170.744 44.6772 167.737 44.2167 165.542C43.7547 163.346 45.1377 161.742 46.2353 160.818Z" fill="#EEA886"/>
<path d="M54.4798 173.343C54.4798 173.343 54.4234 176.384 54.7585 177.032C55.0943 177.681 48.4437 177.697 48.4437 177.697C48.4437 177.697 47.9035 174.171 46.8796 171.192C45.8557 168.212 54.4798 173.343 54.4798 173.343Z" fill="#EEA886"/>
<path d="M47.0461 171.143C47.0461 171.143 47.6666 171.775 49.423 171.059C51.1794 170.343 52.8321 167.393 53.53 166.948C54.2301 166.502 54.1309 166.053 54.1309 166.053L54.7725 166.637L55.5928 166.496C55.5928 166.496 54.3435 164.501 55.248 163.354C56.1525 162.206 52.4377 156.6 47.0702 160.023C47.0702 160.023 42.8701 162.32 43.6348 164.836C44.4011 167.352 45.7405 170.108 47.0461 171.143Z" fill="#754836"/>
<path d="M55.1523 176.954C55.1523 176.954 55.132 175.716 54.5701 175.597C54.0089 175.478 48.3725 174.936 47.6829 175.208V176.65C47.6829 176.65 49.0118 177.467 55.1523 176.954Z" fill="#E2D2CA"/>
<path d="M53.7917 165.152C53.5888 164.747 52.2096 163.78 52.1014 165.189C51.9932 166.599 53.4574 168.115 54.0057 167.827C54.5549 167.538 54.307 166.177 53.7917 165.152Z" fill="#EEA886"/>
<path d="M44.9844 161.563C44.9844 161.563 38.7958 163.222 46.7956 170.904L44.9844 161.563Z" fill="#754836"/>
<path d="M100.275 194.463L93.9681 194.405C94.5128 194.088 95.3925 193.519 95.1979 193.259C94.9199 192.89 93.1343 193.702 92.4086 193.776C91.743 193.844 90.6274 193.758 89.7808 194.067L87.7893 194.915L89.6148 196.605C89.6148 196.605 92.9134 197.078 93.8787 197.146C95.4488 197.256 100.253 195.386 100.332 195.103C100.475 194.592 100.275 194.463 100.275 194.463Z" fill="#EEA886"/>
<path d="M63.385 178.671C59.3742 177.966 55.1523 176.954 55.1523 176.954L47.6829 176.649C47.6829 176.649 40.8279 178.158 38.128 179.378C37.8719 179.494 37.8719 185.494 37.168 187.067L39.4066 191.788C39.4066 191.788 40.6995 201.142 40.9677 205.301C41.0909 207.211 38.3016 223.209 38.3016 223.209C38.3016 223.209 41.2899 224.089 46.3885 224.651C51.4863 225.213 64.2241 224.448 64.3038 223.846C64.3849 223.244 61.8375 201.427 61.724 200.298C61.5513 198.564 62.2251 190.552 62.2251 190.552C63.1859 191.841 68.739 196.681 71.4502 198.218C73.3786 199.312 78.109 198.644 79.5026 198.502C82.518 198.193 90.8491 197.597 91.0121 197.301C91.142 197.124 90.5328 194.086 90.1842 193.97C89.8792 193.868 79.1247 193.337 76.427 193.476C75.3325 193.534 71.7619 189.547 71.7619 189.547C71.7619 189.547 65.5981 179.664 63.385 178.671Z" fill="#6946C6"/>
<path d="M17.45 148.479H37.1936V165.802L34.1797 162.789H17.45V148.479Z" fill="#FFCB55"/>
<path d="M316.85 102.3H334.753V84.3985H316.85V102.3ZM335.393 102.94H316.21V83.7593H335.393V102.94Z" fill="#6AAFE8"/>
<path d="M339.868 90.1527H382.496V86.7432H339.868V90.1527ZM383.136 90.792H339.23V86.1032H383.136V90.792Z" fill="#6AAFE8"/>
<path d="M316.85 111.958H382.496V108.548H316.85V111.958ZM383.135 112.597H316.21V107.909H383.135V112.597Z" fill="#6AAFE8"/>
<path d="M316.85 120.962H358.198V117.552H316.85V120.962ZM358.838 121.602H316.21V116.912H358.838V121.602Z" fill="#6AAFE8"/>
<path d="M339.868 99.0968H368.322V95.6872H339.868V99.0968ZM368.962 99.7368H339.23V95.0472H368.962V99.7368Z" fill="#6AAFE8"/>
<path d="M309.231 131.159H390.116V74.2015H309.231V131.159ZM390.756 131.798H308.591V73.5622H390.756V131.798Z" fill="#6AAFE8"/>
<path d="M279.619 47.4807H273.472V46.7641H278.904V41.3384H279.619V47.4807Z" fill="#6AAFE8"/>
<path d="M238.282 47.4807H232.133V41.3384H232.85V46.7641H238.282V47.4807Z" fill="#6AAFE8"/>
<path d="M232.853 6.14746H232.136V-0.000119209H238.28V0.716502H232.853V6.14746Z" fill="#6AAFE8"/>
<path d="M279.619 6.14526H278.904V0.719549H273.472V0.00292826H279.619V6.14526Z" fill="#6AAFE8"/>
<path d="M279.619 32.1599H278.903V15.3239H279.619V32.1599Z" fill="#6AAFE8"/>
<path d="M232.85 32.1599H232.133V15.3239H232.85V32.1599Z" fill="#6AAFE8"/>
<path d="M59.5117 90.1307C58.4555 90.1307 57.596 90.9893 57.596 92.0447C57.596 93.1008 58.4555 93.9594 59.5117 93.9594C60.5671 93.9594 61.4258 93.1008 61.4258 92.0447C61.4258 90.9893 60.5671 90.1307 59.5117 90.1307ZM59.5117 94.676C58.0603 94.676 56.8801 93.4959 56.8801 92.0447C56.8801 90.5942 58.0603 89.4141 59.5117 89.4141C60.9623 89.4141 62.1425 90.5942 62.1425 92.0447C62.1425 93.4959 60.9623 94.676 59.5117 94.676Z" fill="#78C2FF"/>
<path d="M255.912 29.7908C254.856 29.7908 253.997 30.6494 253.997 31.7056C253.997 32.761 254.856 33.6203 255.912 33.6203C256.968 33.6203 257.826 32.761 257.826 31.7056C257.826 30.6494 256.968 29.7908 255.912 29.7908ZM255.912 34.3369C254.461 34.3369 253.281 33.1561 253.281 31.7056C253.281 30.2551 254.461 29.075 255.912 29.075C257.362 29.075 258.543 30.2551 258.543 31.7056C258.543 33.1561 257.362 34.3369 255.912 34.3369Z" fill="#78C2FF"/>
<path d="M341.922 123.966C340.866 123.966 340.006 124.825 340.006 125.881C340.006 126.936 340.866 127.795 341.922 127.795C342.977 127.795 343.837 126.936 343.837 125.881C343.837 124.825 342.977 123.966 341.922 123.966ZM341.922 128.512C340.471 128.512 339.29 127.331 339.29 125.881C339.29 124.43 340.471 123.249 341.922 123.249C343.372 123.249 344.553 124.43 344.553 125.881C344.553 127.331 343.372 128.512 341.922 128.512Z" fill="#78C2FF"/>
<path d="M59.617 20.9006H76.2454V4.27337H59.617V20.9006ZM76.9621 21.6165H58.9011V3.55602H76.9621V21.6165Z" fill="#A1D4FF"/>
<path d="M68.2892 16.897H67.5732V8.47934H68.2892V16.897Z" fill="#A1D4FF"/>
<path d="M72.1409 13.0461H63.7234V12.3295H72.1409V13.0461Z" fill="#A1D4FF"/>
<path d="M327.1 42.6862H351.484V25.6902H327.1V42.6862ZM352.2 43.4028H326.383V24.9743H352.2V43.4028Z" fill="#A1D4FF"/>
<path d="M339.291 36.136L326.514 25.6091L326.97 25.0562L339.291 35.2083L351.614 25.0562L352.07 25.6091L339.291 36.136Z" fill="#A1D4FF"/>
<path d="M351.582 43.2908L342.316 33.5225L342.837 33.029L352.102 42.798L351.582 43.2908Z" fill="#A1D4FF"/>
<path d="M327.001 43.2908L326.481 42.798L335.747 33.029L336.266 33.5225L327.001 43.2908Z" fill="#A1D4FF"/>
<path d="M122.266 55.8308C121.77 55.8308 121.281 56.0629 120.972 56.4963C120.726 56.8411 120.63 57.261 120.7 57.6787C120.771 58.0963 121 58.4621 121.345 58.707C121.689 58.9526 122.109 59.0488 122.527 58.9789C122.944 58.9083 123.31 58.6792 123.555 58.3344C123.8 57.9896 123.897 57.5697 123.827 57.1521C123.757 56.7352 123.528 56.3694 123.183 56.1245C122.904 55.9262 122.583 55.8308 122.266 55.8308ZM122.259 59.5386C121.822 59.5386 121.396 59.4034 121.033 59.145C120.079 58.4666 119.855 57.1386 120.534 56.1853C121.212 55.2314 122.541 55.0075 123.494 55.6866C123.956 56.0148 124.263 56.5038 124.357 57.0635C124.451 57.6223 124.322 58.1842 123.993 58.6462C123.664 59.1082 123.175 59.4146 122.616 59.5085C122.497 59.5288 122.377 59.5386 122.259 59.5386ZM120.931 60.4317L121.088 60.4918C121.372 60.6015 121.671 60.6698 121.979 60.6961L122.145 60.7104L122.376 61.3121L123.434 61.1341L123.454 60.4903L123.608 60.4212C123.888 60.2965 124.148 60.1335 124.382 59.9374L124.511 59.8285L125.099 60.0914L125.72 59.2178L125.279 58.7483L125.34 58.5906C125.45 58.3067 125.517 58.0069 125.545 57.7005L125.559 57.5329L126.16 57.3031L125.983 56.2454L125.338 56.2244L125.269 56.0712C125.144 55.7917 124.982 55.5311 124.785 55.2967L124.676 55.1683L124.939 54.5808L124.066 53.9589L123.596 54.3991L123.439 54.339C123.153 54.23 122.854 54.1617 122.549 54.1354L122.382 54.1204L122.151 53.5187L121.094 53.6967L121.073 54.3412L120.919 54.4096C120.638 54.535 120.378 54.6973 120.144 54.8941L120.016 55.0022L119.428 54.7401L118.806 55.6137L119.247 56.0832L119.186 56.2402C119.077 56.5241 119.008 56.8238 118.982 57.1303L118.968 57.2978L118.366 57.5284L118.545 58.5853L119.189 58.6064L119.257 58.7596C119.382 59.0398 119.545 59.3004 119.742 59.5341L119.85 59.6625L119.588 60.2507L120.461 60.8726L120.931 60.4317ZM122.031 61.9153L121.762 61.2129C121.522 61.1814 121.286 61.1273 121.056 61.0514L120.508 61.5652L118.917 60.4332L119.225 59.7474C119.076 59.5551 118.947 59.3493 118.839 59.1329L118.087 59.1089L117.763 57.1836L118.466 56.9147C118.497 56.6736 118.551 56.4377 118.628 56.2086L118.113 55.6603L119.246 54.07L119.931 54.3765C120.124 54.2293 120.329 54.1001 120.546 53.9919L120.57 53.24L122.495 52.9162L122.764 53.6178C123.004 53.6494 123.241 53.7035 123.471 53.7801L124.019 53.2655L125.61 54.3976L125.303 55.0841C125.451 55.2757 125.578 55.4815 125.687 55.6986L126.439 55.7219L126.763 57.6471L126.061 57.916C126.029 58.1572 125.975 58.3938 125.898 58.6229L126.414 59.1705L125.281 60.7615L124.595 60.455C124.404 60.6022 124.198 60.7307 123.981 60.8396L123.957 61.5908L122.031 61.9153Z" fill="#A1D4FF"/>
<path d="M107.488 50.1573C106.263 50.1573 105.053 50.7297 104.291 51.8024C103.683 52.6557 103.445 53.6938 103.619 54.7259C103.793 55.7573 104.358 56.6602 105.21 57.2671C106.971 58.5201 109.423 58.1069 110.676 56.3462C111.283 55.4944 111.522 54.4555 111.348 53.4234C111.174 52.3913 110.609 51.4891 109.755 50.8822C109.067 50.3924 108.274 50.1573 107.488 50.1573ZM107.477 58.7079C106.548 58.7079 105.609 58.4292 104.795 57.8508C102.713 56.3687 102.225 53.4692 103.707 51.387C105.189 49.3047 108.088 48.8165 110.171 50.2985C112.253 51.7798 112.742 54.6801 111.26 56.7616C110.357 58.0311 108.927 58.7079 107.477 58.7079ZM104.468 61.3355L104.678 61.4151C105.358 61.6765 106.074 61.8395 106.802 61.9026L107.026 61.9221L107.576 63.3569L110.438 62.8746L110.486 61.3392L110.691 61.2476C111.36 60.9494 111.982 60.5603 112.539 60.0916L112.711 59.9473L114.113 60.573L115.795 58.2084L114.745 57.0891L114.825 56.8795C115.085 56.1997 115.249 55.4846 115.312 54.7552L115.331 54.5314L116.767 53.9815L116.284 51.1203L114.748 51.0715L114.656 50.8672C114.358 50.1979 113.968 49.5759 113.5 49.02L113.356 48.848L113.982 47.4456L111.618 45.7629L110.498 46.8138L110.289 46.7335C109.608 46.4728 108.894 46.309 108.164 46.2467L107.94 46.2272L107.391 44.7924L104.529 45.2739L104.48 46.8101L104.275 46.9017C103.607 47.1999 102.985 47.589 102.427 48.0578L102.256 48.202L100.853 47.5763L99.1714 49.9402L100.222 51.0602L100.141 51.2698C99.8805 51.9496 99.7175 52.6647 99.6544 53.3941L99.6349 53.6179L98.2 54.1671L98.6823 57.029L100.219 57.0771L100.309 57.2822C100.608 57.9507 100.997 58.5727 101.466 59.13L101.61 59.3021L100.984 60.7038L103.349 62.3864L104.468 61.3355ZM107.116 64.1606L106.516 62.5937C105.873 62.5216 105.241 62.3774 104.634 62.1633L103.412 63.3103L100.091 60.9471L100.774 59.4162C100.373 58.9122 100.029 58.3631 99.7506 57.7794L98.0731 57.7261L97.3962 53.7073L98.9633 53.1079C99.0354 52.4649 99.1804 51.8332 99.3945 51.2255L98.2474 50.0033L100.609 46.6831L102.141 47.3667C102.645 46.9648 103.195 46.6215 103.779 46.3421L103.831 44.6655L107.85 43.9879L108.451 45.5549C109.093 45.6277 109.724 45.772 110.333 45.9868L111.555 44.839L114.875 47.2022L114.191 48.7323C114.593 49.2371 114.937 49.7855 115.217 50.3699L116.893 50.4232L117.57 54.442L116.003 55.0414C115.931 55.6844 115.786 56.3154 115.571 56.9238L116.72 58.146L114.356 61.4662L112.826 60.7826C112.322 61.1845 111.772 61.5278 111.188 61.8072L111.135 63.4838L107.116 64.1606Z" fill="#A1D4FF"/>
<path d="M13.3665 66.0716C7.02073 66.0716 1.85898 60.9088 1.85898 54.5636C1.85898 48.2185 7.02073 43.0564 13.3665 43.0564C19.7123 43.0564 24.8747 48.2185 24.8747 54.5636H24.1581C24.1581 48.6136 19.3168 43.773 13.3665 43.773C7.41543 43.773 2.57498 48.6136 2.57498 54.5636C2.57498 60.5136 7.41543 65.3549 13.3665 65.3549V66.0716ZM13.3665 67.9292C5.99658 67.9292 0 61.9334 0 54.5636H0.71599C0.71599 61.539 6.39128 67.2126 13.3665 67.2126C20.3418 67.2126 26.0171 61.539 26.0171 54.5636C26.0171 47.589 20.3418 41.9146 13.3665 41.9146V41.198C20.7365 41.198 26.7331 47.1939 26.7331 54.5636C26.7331 61.9334 20.7365 67.9292 13.3665 67.9292Z" fill="#78C2FF"/>
<path d="M11.7293 58.9919L6.90796 54.1709L7.41473 53.6646L11.7293 57.9786L19.3193 50.3895L19.8255 50.8958L11.7293 58.9919Z" fill="#78C2FF"/>
<path d="M295.642 218.441H92.569L70.3462 301.496H317.864L295.642 218.441Z" fill="url(#paint11_linear)"/>
<path d="M100.251 233.012H112.728C113.249 233.012 113.643 233.418 113.545 233.855L112.337 239.282C112.262 239.616 111.919 239.858 111.52 239.858H98.8293C98.2967 239.858 97.9008 239.437 98.0173 238.994L99.4393 233.567C99.5235 233.243 99.8608 233.012 100.251 233.012Z" fill="white"/>
<path d="M118.449 233.012H127.88L126.626 239.858H117.014L118.449 233.012Z" fill="white"/>
<path d="M132.598 233.012H142.03L141.043 239.858L131.431 239.868L132.598 233.012Z" fill="white"/>
<path d="M146.746 233.012H156.178L155.461 239.858H145.849L146.746 233.012Z" fill="white"/>
<path d="M160.894 233.012H170.327L169.878 239.858H160.266L160.894 233.012Z" fill="white"/>
<path d="M175.042 233.012H184.475L184.297 239.858L174.684 239.868L175.042 233.012Z" fill="white"/>
<path d="M288.263 233.012H274.114L275.638 239.858H290.056L288.263 233.012Z" fill="white"/>
<path d="M269.398 233.012H259.965L261.221 239.858H270.833L269.398 233.012Z" fill="white"/>
<path d="M255.25 233.012H245.816L246.803 239.858L256.416 239.868L255.25 233.012Z" fill="white"/>
<path d="M241.102 233.012H231.668L232.386 239.858H241.998L241.102 233.012Z" fill="white"/>
<path d="M226.952 233.012H217.519L217.968 239.858H227.579L226.952 233.012Z" fill="white"/>
<path d="M212.803 233.012H203.37L203.55 239.858L213.162 239.868L212.803 233.012Z" fill="white"/>
<path d="M189.192 233.012H198.625L198.781 239.858H189.192V233.012Z" fill="white"/>
<path d="M96.1019 244.959H115.813L114.689 252.023H94.6055L96.1019 244.959Z" fill="white"/>
<path d="M291.34 244.959H266.976L268.364 252.023H293.19L291.34 244.959Z" fill="white"/>
<path d="M262.102 244.959H252.357L253.467 252.023H263.397L262.102 244.959Z" fill="white"/>
<path d="M247.485 244.959H237.74L238.573 252.023H248.503L247.485 244.959Z" fill="white"/>
<path d="M232.868 244.959H223.123L223.677 252.023H233.607L232.868 244.959Z" fill="white"/>
<path d="M218.25 244.959H208.505L208.782 252.023H218.712L218.25 244.959Z" fill="white"/>
<path d="M93.1588 257.549H113.309L111.839 264.564H91.3206L93.1588 257.549Z" fill="white"/>
<path d="M118.345 257.549H128.42L127.225 264.564H116.966L118.345 257.549Z" fill="white"/>
<path d="M133.459 257.549H209.016L209.297 264.564H132.356L133.459 257.549Z" fill="white"/>
<path d="M214.058 257.549H224.132L224.684 264.564H214.425L214.058 257.549Z" fill="white"/>
<path d="M229.169 257.549H239.244L240.071 264.564H229.812L229.169 257.549Z" fill="white"/>
<path d="M244.284 257.549H254.358L255.461 264.564H245.202L244.284 257.549Z" fill="white"/>
<path d="M259.396 257.549H269.471L270.85 264.564H260.591L259.396 257.549Z" fill="white"/>
<path d="M274.509 257.549H294.659L296.496 264.564H275.979L274.509 257.549Z" fill="white"/>
<path d="M203.652 244.959H193.986V252.023H203.838L203.652 244.959Z" fill="white"/>
<path d="M189.034 244.959H179.289L179.011 252.023H188.941L189.034 244.959Z" fill="white"/>
<path d="M174.416 244.959H164.672L164.116 252.023H174.047L174.416 244.959Z" fill="white"/>
<path d="M159.799 244.959H150.054L149.22 252.023H159.151L159.799 244.959Z" fill="white"/>
<path d="M145.182 244.959H135.437L134.326 252.023H144.256L145.182 244.959Z" fill="white"/>
<path d="M130.563 244.959H120.818L119.431 252.023H129.361L130.563 244.959Z" fill="white"/>
<path d="M100.712 228.709L102.313 222.597H106.892L105.398 228.709H100.712Z" fill="white"/>
<path d="M111.473 222.597H120.632L119.35 228.709H110.031L111.473 222.597Z" fill="white"/>
<path d="M125.212 222.597H134.371L133.33 228.709H124.011L125.212 222.597Z" fill="white"/>
<path d="M138.953 222.597H148.111L147.311 228.709H137.992L138.953 222.597Z" fill="white"/>
<path d="M152.69 222.597H161.85L161.289 228.709H151.97L152.69 222.597Z" fill="white"/>
<path d="M166.429 222.597H175.589L175.269 228.709H165.949L166.429 222.597Z" fill="white"/>
<path d="M180.168 222.597H189.328L189.247 228.709H179.928L180.168 222.597Z" fill="white"/>
<path d="M193.907 222.597H203.067L203.227 228.709H193.907V222.597Z" fill="white"/>
<path d="M207.647 222.597H216.806L217.207 228.709H207.887L207.647 222.597Z" fill="white"/>
<path d="M221.385 222.597H230.544L231.185 228.709H221.865L221.385 222.597Z" fill="white"/>
<path d="M235.125 222.597H244.285L245.165 228.709H235.845L235.125 222.597Z" fill="white"/>
<path d="M248.865 222.597H258.024L259.145 228.709H249.825L248.865 222.597Z" fill="white"/>
<path d="M262.604 222.597H271.763L273.125 228.709H263.805L262.604 222.597Z" fill="white"/>
<path d="M276.343 222.597H285.502L287.103 228.709H277.784L276.343 222.597Z" fill="white"/>
<path d="M311.397 307.962H76.812C73.2414 307.962 70.3462 305.066 70.3462 301.495H317.864C317.864 305.066 314.969 307.962 311.397 307.962Z" fill="url(#paint12_linear)"/>
<path d="M222.879 274.657C222.637 273.194 221.373 272.123 219.89 272.123H194.105H168.32C166.837 272.123 165.574 273.194 165.332 274.657L162.11 294.152C161.805 295.997 163.228 297.674 165.098 297.674H194.105H223.112C224.982 297.674 226.405 295.997 226.101 294.152L222.879 274.657Z" fill="#4D78EB"/>
<path d="M133.394 109.039H112.402V106.889H133.394V109.039Z" fill="#E0E0E0"/>
<path d="M154.424 125.221H139.268V123.073H154.424V125.221Z" fill="#E0E0E0"/>
<path d="M166.843 125.221H156.786V123.073H166.843V125.221Z" fill="#1487E3"/>
<path d="M122.699 165.919H112.641V163.769H122.699V165.919Z" fill="#1487E3"/>
<path d="M193.113 125.221H168.83V123.073H193.113V125.221Z" fill="#E0E0E0"/>
<path d="M128.244 157.767H112.641V155.618H128.244V157.767Z" fill="#E0E0E0"/>
<path d="M143.918 174.01H134.392V171.861H143.918V174.01Z" fill="#E0E0E0"/>
<path d="M131.513 174.01H112.641V171.861H131.513V174.01Z" fill="#1487E3"/>
<path d="M123.05 182.102H112.641V179.952H123.05V182.102Z" fill="#E0E0E0"/>
<path d="M152.379 109.039H137.477V106.889H152.379V109.039Z" fill="#78C2FF"/>
<path d="M152.379 133.313H137.477V131.164H152.379V133.313Z" fill="#1487E3"/>
<path d="M136.393 141.405H130.025V139.255H136.393V141.405Z" fill="#E0E0E0"/>
<path d="M137.962 149.615H123.66V147.467H137.962V149.615Z" fill="#78C2FF"/>
<path d="M159.866 149.615H140.123V147.467H159.866V149.615Z" fill="#1487E3"/>
<path d="M127.543 141.465H112.641V139.315H127.543V141.465Z" fill="#1487E3"/>
<path d="M121.483 149.615H112.641V147.467H121.483V149.615Z" fill="#1487E3"/>
<path d="M147.738 141.465H139.396V139.315H147.738V141.465Z" fill="#FF8761"/>
<path d="M121.232 190.193H112.891V188.045H121.232V190.193Z" fill="#FF8761"/>
<path d="M127.483 125.221H112.581V123.073H127.483V125.221Z" fill="#78C2FF"/>
<path d="M140.661 165.919H125.759V163.769H140.661V165.919Z" fill="#78C2FF"/>
<path d="M140.844 182.102H125.943V179.952H140.844V182.102Z" fill="#78C2FF"/>
<path d="M167.315 182.102H152.414V179.952H167.315V182.102Z" fill="#78C2FF"/>
<path d="M133.824 133.313H112.581V131.164H133.824V133.313Z" fill="#78C2FF"/>
<path d="M227.026 109.039H212.125V106.889H227.026V109.039Z" fill="#78C2FF"/>
<path d="M173.94 190.193H159.039V188.045H173.94V190.193Z" fill="#78C2FF"/>
<path d="M241.639 109.039H231.663V106.889H241.639V109.039Z" fill="#78C2FF"/>
<path d="M275.386 117.129H265.411V114.981H275.386V117.129Z" fill="#78C2FF"/>
<path d="M175.377 109.039H156.391V106.889H175.377V109.039Z" fill="#1487E3"/>
<path d="M249.35 117.129H230.365V114.981H249.35V117.129Z" fill="#1487E3"/>
<path d="M226.066 125.221H207.081V123.073H226.066V125.221Z" fill="#1487E3"/>
<path d="M201.348 133.313H182.362V131.164H201.348V133.313Z" fill="#1487E3"/>
<path d="M241.95 125.221H228.454V123.073H241.95V125.221Z" fill="#78C2FF"/>
<path d="M208.403 109.039H189.418V106.889H208.403V109.039Z" fill="#FF8761"/>
<path d="M178.886 133.313H167.755V131.164H178.886V133.313Z" fill="#FF8761"/>
<path d="M170.17 166.038H159.039V163.888H170.17V166.038Z" fill="#FF8761"/>
<path d="M185.837 109.039H178.886V106.889H185.837V109.039Z" fill="#E0E0E0"/>
<path d="M163.34 133.313H156.391V131.164H163.34V133.313Z" fill="#E0E0E0"/>
<path d="M260.88 117.129H253.93V114.981H260.88V117.129Z" fill="#E0E0E0"/>
<path d="M123.275 117.129H112.402V114.981H123.275V117.129Z" fill="#1487E3"/>
<path d="M149.993 157.826H141.41V155.677H149.993V157.826Z" fill="#1487E3"/>
<path d="M129.452 117.129H125.943V114.981H129.452V117.129Z" fill="#1487E3"/>
<path d="M227.026 117.129H198.01V114.981H227.026V117.129Z" fill="#E0E0E0"/>
<path d="M199.186 182.102H170.17V179.952H199.186V182.102Z" fill="#E0E0E0"/>
<path d="M135.615 117.129H132.033V114.981H135.615V117.129Z" fill="#FF8761"/>
<path d="M195.329 117.129H185.836V114.981H195.329V117.129Z" fill="#1487E3"/>
<path d="M204.823 125.221H195.33V123.073H204.823V125.221Z" fill="#FF8761"/>
<path d="M156.01 190.193H146.518V188.045H156.01V190.193Z" fill="#FF8761"/>
<path d="M183.324 117.129H163.125V114.981H183.324V117.129Z" fill="#1487E3"/>
<path d="M156.126 166.038H144.326V163.888H156.126V166.038Z" fill="#1487E3"/>
<path d="M149.468 182.102H143.567V179.952H149.468V182.102Z" fill="#1487E3"/>
<path d="M160.261 117.129H153.311V114.981H160.261V117.129Z" fill="#78C2FF"/>
<path d="M136.869 125.221H129.92V123.073H136.869V125.221Z" fill="#FF8761"/>
<path d="M138.254 157.826H131.306V155.677H138.254V157.826Z" fill="#FF8761"/>
<path d="M150.66 117.129H138.552V114.981H150.66V117.129Z" fill="#1487E3"/>
<path d="M295.65 200.749H318.927V133.853H295.65V200.749Z" fill="#FDFDFD"/>
<path d="M288.11 200.749H295.651V133.853H288.11V200.749Z" fill="url(#paint13_linear)"/>
<path d="M288.11 200.749H228.036C226.37 200.749 225.02 199.398 225.02 197.733V136.869C225.02 135.203 226.37 133.853 228.036 133.853H288.11V200.749Z" fill="url(#paint14_linear)"/>
<path d="M317.137 200.457C318.928 194.008 316.4 189.322 315.955 184.868C315.663 181.956 317.134 180.369 318.858 180.047V197.733C318.858 198.935 318.155 199.973 317.137 200.457Z" fill="url(#paint15_linear)"/>
<path d="M302.158 152.041H318.858V151.324H302.158V152.041Z" fill="#DFF0FF"/>
<path d="M308.724 172.929H293.606C292.967 172.929 292.448 172.411 292.448 171.773V169.438C292.448 168.799 292.967 168.281 293.606 168.281H308.724C309.364 168.281 309.882 168.799 309.882 169.438V171.773C309.882 172.411 309.364 172.929 308.724 172.929Z" fill="#4AAFFF"/>
<path d="M308.724 181.633H293.606C292.967 181.633 292.448 181.115 292.448 180.476V178.141C292.448 177.503 292.967 176.984 293.606 176.984H308.724C309.364 176.984 309.882 177.503 309.882 178.141V180.476C309.882 181.115 309.364 181.633 308.724 181.633Z" fill="#4AAFFF"/>
<path d="M308.724 190.336H293.606C292.967 190.336 292.448 189.818 292.448 189.179V186.845C292.448 186.205 292.967 185.687 293.606 185.687H308.724C309.364 185.687 309.882 186.205 309.882 186.845V189.179C309.882 189.818 309.364 190.336 308.724 190.336Z" fill="#4AAFFF"/>
<path d="M266.172 184.918C258.349 187.716 249.918 185.191 244.836 179.218C243.625 177.794 242.604 176.175 241.827 174.383C241.655 173.989 241.495 173.584 241.348 173.173C239.869 169.039 239.877 164.735 241.095 160.848C242.852 155.234 247.128 150.483 253.093 148.351C255.062 147.646 257.069 147.281 259.051 147.22C267.239 146.973 275.009 151.966 277.917 160.095C281.529 170.193 276.27 181.307 266.172 184.918ZM284.02 157.913C280.142 147.07 269.78 140.412 258.858 140.74C256.214 140.82 253.538 141.308 250.911 142.247C242.956 145.093 237.251 151.429 234.907 158.915C233.283 164.103 233.273 169.842 235.245 175.356C235.441 175.905 235.653 176.443 235.882 176.97C236.919 179.358 238.281 181.518 239.897 183.417C246.675 191.385 257.921 194.752 268.355 191.022C281.824 186.203 288.838 171.381 284.02 157.913Z" fill="#4AAFFF"/>
<path d="M241.095 160.848L234.907 158.915C237.251 151.429 242.956 145.093 250.911 142.247C253.538 141.308 256.214 140.82 258.858 140.74L259.051 147.22C257.069 147.281 255.062 147.647 253.093 148.351C247.128 150.483 242.852 155.234 241.095 160.848Z" fill="#1A598C"/>
<path d="M241.827 174.383L235.882 176.97C235.653 176.443 235.441 175.905 235.245 175.356C233.273 169.842 233.283 164.103 234.907 158.915L241.095 160.848C239.877 164.735 239.869 169.039 241.348 173.173C241.495 173.584 241.655 173.989 241.827 174.383Z" fill="#2273B5"/>
<path d="M239.897 183.417C238.281 181.519 236.919 179.358 235.883 176.97L241.827 174.383C242.604 176.175 243.625 177.794 244.836 179.218L239.897 183.417Z" fill="#3788CC"/>
<path d="M268.279 181.995C268.279 181.995 267.025 179.8 269.014 173.916C270.938 168.226 277.6 168.741 279.716 172.387C281.834 176.032 281.118 178.297 278.002 182.413C274.885 186.529 269.572 183.877 268.279 181.995Z" fill="#EEA886"/>
<path d="M283.751 283.226C283.751 283.226 284.081 285.641 284.122 286.005C284.163 286.368 287.789 285.792 287.789 285.792L288.083 282.915C288.083 282.915 284.205 282.885 283.751 283.226Z" fill="#EEA886"/>
<path d="M284.082 285.698C284.082 285.698 282.932 287.154 281.822 287.788C280.711 288.424 278.965 288.675 278.308 289.332C277.834 289.805 276.581 291.848 281.195 291.805C285.809 291.766 288.034 292.095 288.529 291.312C289.023 290.529 287.814 285.535 287.814 285.535C287.814 285.535 286.685 285.853 284.082 285.698Z" fill="#414773"/>
<path d="M258.646 283.226C258.646 283.226 258.977 285.641 259.017 286.005C259.059 286.368 262.684 285.792 262.684 285.792L262.978 282.915C262.978 282.915 259.1 282.885 258.646 283.226Z" fill="#EEA886"/>
<path d="M258.98 285.698C258.98 285.698 257.83 287.154 256.719 287.788C255.608 288.424 251.519 288.944 250.863 289.601C250.388 290.076 249.599 291.985 256.092 291.805C260.705 291.679 262.931 292.095 263.426 291.312C263.921 290.528 262.71 285.534 262.71 285.534C262.71 285.534 261.277 285.789 258.98 285.698Z" fill="#414773"/>
<path d="M282.53 223.058C282.53 223.058 284.389 228.834 284.144 233.812C283.899 238.79 285.105 244.238 285.598 249.438C286.148 255.235 288.398 268.959 288.478 272.06C288.561 275.16 288.129 285.064 288.129 285.064L283.627 285.171C283.627 285.171 279.846 261.179 278.866 258.731C277.887 256.283 273.03 238.829 272.867 236.871C272.704 234.912 282.53 223.058 282.53 223.058Z" fill="#2D314F"/>
<path d="M263.862 222.457C263.862 222.457 261.128 237.729 260.8 240.777C260.475 243.824 260.256 255.521 260.093 257.425C259.93 259.329 259.006 282.343 258.135 285.171H263.155C263.155 285.171 268.31 268.442 268.31 260.526C268.31 252.61 271.723 243.317 273.927 238.095C276.131 232.872 281.174 232.748 282.529 223.058C282.529 223.058 265.695 219.384 263.862 222.457Z" fill="#2D314F"/>
<path d="M270.099 183.548C270.099 183.548 270.666 185.197 270.099 186.373C269.533 187.549 277.334 186.843 277.334 186.843C277.334 186.843 276.982 184.413 278.001 182.413C279.02 180.413 270.099 183.548 270.099 183.548Z" fill="#EEA886"/>
<path d="M282.892 224.317C282.892 224.317 280.085 227.199 263.611 223.868L263.862 222.457L282.59 223.163L282.892 224.317Z" fill="#2B3B57"/>
<path d="M268.918 186.755C268.918 186.755 266.036 187.049 265.213 187.206C264.39 187.362 258.849 186.214 257.711 186.097C256.574 185.98 251.726 182.659 251.569 182.266C251.413 181.875 248.621 174.805 248.464 173.276C248.307 171.745 245.743 172.535 245.963 173.589C246.374 175.56 246.902 180.344 247.192 181.73C247.504 183.228 248.342 186.618 248.812 187.036C249.282 187.454 253.648 190.773 257.921 192.184C262.195 193.595 265.411 195.674 265.411 195.674H286.472C286.472 195.674 294.664 183.965 294.84 182.201C295.016 180.437 289.118 168.712 287.942 167.241C286.766 165.771 285.065 167.721 285.065 167.721C285.065 167.721 288.59 178.062 289.059 179.532C289.53 181.002 284.96 187.46 283.705 187.481C282.451 187.5 279.23 187.088 277.798 187.029C276.367 186.97 274.857 186.343 274.857 186.343L268.918 186.755Z" fill="#EEA886"/>
<path d="M259.841 194.575C259.841 194.575 262.42 196.289 262.655 199.229C262.891 202.17 263.832 206.815 264.302 208.402C264.773 209.991 263.89 221.515 263.773 222.339C263.655 223.163 280.07 225.118 282.59 223.163C282.59 223.163 283.296 212.401 283.59 209.343C283.884 206.286 285.295 198.877 285.766 197.877C286.236 196.877 291.94 188.877 292.176 187.822C292.176 187.822 289.224 183.118 287.108 183.059C287.108 183.059 283.745 186.999 282.649 187.175C281.553 187.351 274.834 186.12 274.832 186.11C274.832 186.11 274.099 187.109 270.2 185.932C270.2 185.932 265.557 186.456 264.802 186.552C263.887 186.67 257.529 185.755 257.529 185.755C257.529 185.755 254.978 190.062 255.425 192.236L259.841 194.575Z" fill="#FFC655"/>
<path d="M248.611 174.194C248.611 174.194 248.035 171.468 248.729 170.686C249.124 170.241 250.072 169.061 250.158 168.888C250.245 168.715 251.263 168.129 251.263 167.848C251.263 167.566 250.267 167.22 249.401 168.021C248.534 168.823 247.993 168.996 247.647 168.909C247.299 168.823 246.802 165.942 246.758 165.228C246.715 164.513 246.439 162.628 245.992 162.759C245.545 162.888 245.567 163.711 245.567 163.711C245.567 163.711 245.047 162.281 244.7 162.563C244.353 162.844 244.397 163.538 244.397 163.538C244.397 163.538 243.746 162.736 243.574 163.321C243.4 163.906 243.574 164.425 243.574 164.425C243.574 164.425 242.901 164.057 242.859 164.967C242.815 165.877 243.054 168.541 243.53 169.494C244.006 170.448 245.791 172.94 246.003 173.914C246.216 174.888 248.611 174.194 248.611 174.194Z" fill="#EEA886"/>
<path d="M285.639 169.408C285.639 169.408 283.68 166.114 283.013 165.82C282.346 165.526 281.406 165.359 280.582 164.771C279.759 164.184 278.671 163.694 278.73 163.498C278.788 163.302 279.759 163.38 280.798 163.831C281.837 164.281 282.292 164.063 282.391 163.828C282.489 163.593 281.837 161.932 281.523 161.54C281.209 161.148 278.975 158.901 279.347 158.567C279.72 158.234 281.171 159.47 281.406 159.724C281.406 159.724 280.249 157.294 280.7 157.176C281.15 157.058 281.993 157.92 281.993 157.92C281.993 157.92 281.896 155.843 284.13 159.215C284.13 159.215 283.659 158.097 284.346 158.47C285.032 158.842 285.699 160.94 285.915 161.998C286.129 163.056 287.108 166.428 287.942 167.241C288.776 168.054 285.639 169.408 285.639 169.408Z" fill="#EEA886"/>
<path d="M278.001 182.413C278.001 182.413 276.969 182.505 274.773 181.747C272.577 180.988 272.413 177.15 271.939 177.604C270.97 178.532 270.055 177.892 269.689 177.343C269.689 177.343 270.76 175.932 270.264 175.251C269.767 174.572 268.959 174.077 268.959 174.077C268.959 174.077 270.503 166.635 277.53 170.025C285.763 173.998 278.001 182.413 278.001 182.413Z" fill="#353A3D"/>
<path d="M270.1 186.373L270.347 185.297C270.347 185.297 274.832 185.206 277.279 185.56L277.537 186.846C277.537 186.846 274.403 188.268 270.1 186.373Z" fill="#D4D8E8"/>
<path d="M271.205 176.663C271.613 175.987 273.119 175.53 273.296 177.447C273.434 178.934 270.604 180.558 270.577 179.173C270.552 177.787 270.934 177.114 271.205 176.663Z" fill="#EEA886"/>
<path d="M248.504 173.576C248.504 173.576 246.886 173.615 246.101 174.324C246.101 174.324 246.05 174.774 246.232 175.128C246.232 175.128 247.634 174.474 248.711 174.351C248.711 174.351 248.692 173.763 248.504 173.576Z" fill="#E55353"/>
<path d="M246.596 173.978C246.447 174.332 246.613 174.74 246.966 174.89C247.32 175.039 247.729 174.873 247.878 174.52C248.028 174.165 247.862 173.757 247.508 173.608C247.154 173.458 246.745 173.624 246.596 173.978Z" fill="#353A3D"/>
<path d="M206.848 116.47C206.848 116.47 209.161 120.391 210.137 121.032C211.464 121.901 210.632 122.78 210.003 122.781C209.373 122.781 206.158 123.011 205.45 122.207C204.741 121.404 204.39 118.994 203.731 118.364C203.072 117.734 202.392 115.229 204.052 114.621C205.52 114.081 206.848 116.47 206.848 116.47Z" fill="#6069A8"/>
<path d="M205.845 114.746C205.845 114.746 208.494 119.337 208.95 120.016C209.406 120.694 208.09 120.693 207.274 120.371C206.459 120.048 204.408 116.755 204.113 116.156C203.762 115.44 204.05 114.62 204.05 114.62L205.845 114.746Z" fill="#202338"/>
<path d="M203.16 117.217L203.771 121.923L204.096 121.938L203.994 118.551L203.16 117.217Z" fill="#6069A8"/>
<path d="M183.908 116.47C183.908 116.47 186.222 120.391 187.198 121.032C188.524 121.901 187.693 122.78 187.064 122.781C186.434 122.781 183.218 123.011 182.511 122.207C181.802 121.404 181.451 118.994 180.792 118.364C180.133 117.734 179.43 115.164 181.112 114.621C182.588 114.143 183.908 116.47 183.908 116.47Z" fill="#6069A8"/>
<path d="M183.045 114.755C183.045 114.755 185.555 119.337 186.012 120.016C186.468 120.694 185.151 120.693 184.336 120.371C183.52 120.048 181.469 116.755 181.174 116.156C180.824 115.44 181.111 114.62 181.111 114.62L183.045 114.755Z" fill="#202338"/>
<path d="M180.223 117.217L180.834 121.923L181.159 121.938L181.058 118.551L180.223 117.217Z" fill="#6069A8"/>
<path d="M173.645 80.7862L194.577 90.3231C194.577 90.3231 196.914 91.0832 197.176 93.677C197.993 101.775 204.05 114.62 204.05 114.62C205.994 115.57 205.845 114.746 205.845 114.746C204.62 110.814 203.129 94.6115 202.597 88.0973C202.485 86.7174 202.415 85.7725 202.399 85.4705C202.389 85.2647 202.165 84.9965 201.777 84.6825C198.904 82.3531 187.085 77.5314 187.085 77.5314C178.212 77.306 173.645 80.7862 173.645 80.7862Z" fill="#202338"/>
<path d="M169.7 84.8818C170.348 90.5389 178.425 89.8914 178.425 89.8914H188.213C188.213 89.8914 185.643 95.6123 184.649 100.438C183.596 105.559 181.112 114.621 181.112 114.621C181.112 114.621 181.274 114.928 183.046 114.755C183.046 114.755 190.729 99.4425 193.671 95.5927C194.304 94.7642 196.117 90.2669 196.429 87.5845C196.535 86.6824 196.47 85.9853 196.133 85.7028C195.792 85.4181 195.013 84.8818 193.972 84.2253C190.905 82.2918 185.581 79.3156 182.614 78.6493C178.64 77.7562 172.356 76.0826 172.356 76.0826C172.356 76.0826 169.053 79.2247 169.7 84.8818Z" fill="#202338"/>
<path d="M176.361 41.3039C176.361 41.3039 174.896 38.5223 175.61 35.5604C176.324 32.5985 179.072 29.6472 183.097 31.0031C187.121 32.3582 190.374 35.4838 187.962 39.0984C185.55 42.7131 190.146 44.3454 188.974 46.0656C187.803 47.7857 188.247 49.5818 188.743 49.9822C189.239 50.3818 190.838 51.8083 190.662 53.4977C190.486 55.1863 182.854 48.5752 182.854 48.5752C182.854 48.5752 178.697 40.2244 176.361 41.3039Z" fill="#464240"/>
<path d="M188.627 76.8531C188.627 76.8531 188.021 79.7976 172.388 76.0794C172.388 76.0794 177.628 74.3389 188.627 76.8531Z" fill="#EB4747"/>
<path d="M172.212 76.9058C171.968 77.3685 171.726 77.8312 171.484 78.2939C177.199 78.4599 182.914 78.6267 188.628 78.7935C187.725 75.7662 188.018 71.6678 188.177 68.5565C188.37 64.7563 190.468 62.1144 190.246 58.2707C191.375 58.454 191.571 58.4885 192.704 58.6613C190.971 53.7284 190.379 51.284 185 49.3851C183.248 48.7669 182.098 48.6444 180.202 48.8007C173.972 49.3137 172.093 49.3873 169.033 55.0324C173.823 55.7956 173.034 57.515 174.487 62.2797C175.196 64.6031 175.935 67.1961 175.555 69.6464C175.181 72.0592 172.212 74.7056 172.212 76.9058Z" fill="#325BB3"/>
<path d="M182.153 50.5809C179.603 50.0994 180.145 48.6812 180.145 48.6812C180.145 48.6812 180.263 47.8812 180.31 46.8693C180.322 46.6109 180.328 46.3375 180.326 46.0603C180.326 45.6404 180.305 45.2108 180.257 44.8066C180.048 43.0954 184.885 44.1163 184.885 44.1163C184.885 44.1163 184.606 47.5792 185.273 48.6166C185.939 49.6547 184.703 51.0624 182.153 50.5809Z" fill="#EEA886"/>
<path d="M177.289 48.6722C177.289 48.6722 182.432 54.6102 184.333 55.9863C184.333 55.9863 186.518 54.013 185.172 48.8014C185.172 48.8014 182.688 47.5574 177.289 48.6722Z" fill="#EEA886"/>
<path d="M177.429 34.3804C177.429 34.3804 174.758 39.5267 177.407 44.4011C180.056 49.2747 185.261 42.2782 185.597 41.4572C185.934 40.6362 187.718 35.9932 184.169 34.5817C180.619 33.171 178.186 32.984 177.429 34.3804Z" fill="#EEA886"/>
<path d="M178.317 36.2066C178.317 36.2066 176.478 38.6216 176.26 40.4057C176.26 40.4057 175.528 37.0322 177.598 33.7909C179.667 30.5503 184.929 33.6369 185.634 34.9319C186.338 36.2269 188.404 37.3679 184.934 42.9326C184.934 42.9326 178.695 38.5976 178.317 36.2066Z" fill="#464240"/>
<path d="M182.585 44.9141C182.585 44.9141 182.121 45.9274 180.31 46.8694C180.322 46.611 180.328 46.3376 180.326 46.0604C180.326 46.0604 181.553 45.9124 182.585 44.9141Z" fill="#A77860"/>
<path d="M155.593 72.2755C155.593 72.2755 154.324 72.8403 153.721 72.5842C153.12 72.328 152.188 72.2785 151.895 72.2777C151.502 72.277 150.273 71.8383 150.293 72.319C150.315 72.799 152.289 73.1341 152.694 73.2843C153.098 73.4338 151.485 74.3217 151.335 74.716C151.185 75.1104 153.006 77.6989 154.033 76.9613C155.06 76.2236 155.616 74.7513 155.825 74.6582C156.034 74.5643 156.596 74.1511 156.596 74.1511L155.593 72.2755Z" fill="#EEA886"/>
<path d="M151.528 74.487C151.528 74.487 148.551 76.9554 148.504 77.2889C148.457 77.6224 148.614 77.7786 148.903 77.5593C149.191 77.34 151.856 75.2585 151.856 75.2585C151.856 75.2585 148.872 78.7815 148.772 79.0429C148.713 79.1961 148.999 79.5146 149.166 79.4117C149.333 79.3088 152.505 75.9916 152.505 75.9916C152.505 75.9916 149.725 79.287 149.711 79.5334C149.698 79.749 150.032 79.9818 150.257 79.752C150.481 79.5221 153.247 76.6151 153.247 76.6151C153.247 76.6151 151.388 79.145 151.502 79.3674C151.573 79.5041 151.808 79.7895 152.265 79.121C152.723 78.4524 153.98 76.9952 153.98 76.9952L151.528 74.487Z" fill="#EEA886"/>
<path d="M187.191 89.8919H178.424C178.424 89.8919 170.347 90.5387 169.7 84.8823C169.052 79.2245 172.356 76.0824 172.356 76.0824C172.356 76.0824 176.623 77.2189 180.348 78.118C182.213 77.7222 184.46 77.4645 187.085 77.5314C187.085 77.5314 202.876 82.7483 202.4 85.4953C202.4 85.4953 195.795 81.964 187.191 89.8919Z" fill="#251A16"/>
<path d="M181.485 80.0952L198.2 79.8489L189.761 84.1343L181.485 80.0952Z" fill="#5E5853"/>
<path d="M186.678 77.9597C186.678 77.9597 182.917 79.4154 178.307 78.0986L178.092 76.3777L187.583 76.9058L186.678 77.9597Z" fill="#325BB3"/>
<path d="M189.761 84.1343L181.485 80.9283V80.0952L190.415 83.3163L189.761 84.1343Z" fill="#91887F"/>
<path d="M186.619 78.7558C186.576 79.3732 187.2 79.8187 187.77 79.5753L188.74 79.1614C189.031 79.0367 189.201 78.7295 189.151 78.4155C188.747 75.8878 187.88 66.0467 189.148 64.3573C189.616 63.7338 189.907 63.1862 190.072 62.7085C190.909 64.8651 191.95 67.6437 192.364 69.1378L200.261 79.6429L202.909 80.3145C199.604 72.3535 196.95 68.1357 196.95 68.1357C196.433 66.7483 194.951 62.547 193.639 58.8061C192.81 56.4437 192.049 54.2653 191.64 53.095C191.433 52.5015 191.024 52.0005 190.484 51.679C189.261 50.9474 187.223 49.7951 185.374 48.8982L185.353 48.8877L185.176 48.802L185.172 48.8013L185.172 48.8005C188.685 54.1173 187.315 69.1325 186.621 78.7347L186.619 78.7558Z" fill="#EDDAD3"/>
<path d="M173.575 49.2545C172.448 49.428 169.657 52.1382 168.175 54.8732C166.484 57.9951 164.761 61.5489 163.471 62.7177C161.097 64.8683 154.454 72.4679 154.138 72.2839C154.016 72.2133 155.96 74.5532 156.207 74.6621C156.33 74.7169 167.126 65.3626 168.163 63.9376C169.147 62.5863 171.775 56.9157 172.562 57.0404L172.563 57.0449L172.565 57.0471C172.625 57.1756 173.581 59.2488 174.487 62.2798L174.532 62.4308C175.157 64.5446 175.099 66.8394 174.761 69.4182C174.505 71.3645 173.052 74.5464 172.176 76.0953C172.071 76.2816 172.098 76.6362 172.212 76.9058C172.28 77.0666 172.379 77.1973 172.5 77.2416L175.668 78.4157L176.413 78.6921C176.95 78.8904 177.512 78.7868 177.932 78.4818C178.277 78.2317 178.526 77.8463 178.587 77.3798C179.291 71.9594 180.183 66.421 180.894 64.335C184.012 55.1805 179.675 48.302 179.675 48.302C179.675 48.302 174.562 48.8856 173.575 49.2545Z" fill="#EDDAD3"/>
<path d="M189.761 84.1343L194.734 70.5599L210.762 70.8213L206.023 83.3305L189.761 84.1343Z" fill="#6E6760"/>
<path d="M199.862 76.5647C199.373 77.5427 199.52 78.6072 200.192 78.9429C200.864 79.2787 201.804 78.7582 202.293 77.7809C202.782 76.8036 202.635 75.7384 201.963 75.4027C201.293 75.0669 200.351 75.5874 199.862 76.5647Z" fill="#807066"/>
<path d="M182.965 39.5048C182.965 39.5048 183.991 41.1018 183.043 42.481C182.094 43.8594 183.282 45.2137 183.487 46.671C183.694 48.1283 179.528 52.0066 184.161 53.9574C188.793 55.9082 190.268 52.6834 189.086 50.9084C187.904 49.1334 187.065 47.6934 186.965 45.1634C186.866 42.6327 186.033 38.6883 182.965 39.5048Z" fill="#464240"/>
<path d="M149.411 20.3371H169.154V37.6606L166.141 34.647H149.411V20.3371Z" fill="#78C2FF"/>
<defs>
<linearGradient id="paint0_linear" x1="86.3698" y1="164.932" x2="312.06" y2="164.932" gradientUnits="userSpaceOnUse">
<stop stop-color="#6946C6"/>
<stop offset="1" stop-color="#6946C6"/>
</linearGradient>
<linearGradient id="paint1_linear" x1="99.6799" y1="154.942" x2="288.11" y2="154.942" gradientUnits="userSpaceOnUse">
<stop stop-color="#404B61"/>
<stop offset="0.468241" stop-color="#404B61"/>
<stop offset="1" stop-color="#2F3E5C"/>
</linearGradient>
<linearGradient id="paint2_linear" x1="348.338" y1="224.511" x2="396.821" y2="224.511" gradientUnits="userSpaceOnUse">
<stop stop-color="#3076A1"/>
<stop offset="1" stop-color="#639C38"/>
</linearGradient>
<linearGradient id="paint3_linear" x1="344.125" y1="217.442" x2="407.427" y2="217.442" gradientUnits="userSpaceOnUse">
<stop stop-color="#3076A1"/>
<stop offset="1" stop-color="#639C38"/>
</linearGradient>
<linearGradient id="paint4_linear" x1="329.582" y1="207.866" x2="370.413" y2="207.866" gradientUnits="userSpaceOnUse">
<stop stop-color="#3076A1"/>
<stop offset="1" stop-color="#639C38"/>
</linearGradient>
<linearGradient id="paint5_linear" x1="340.93" y1="216.695" x2="353.31" y2="216.695" gradientUnits="userSpaceOnUse">
<stop stop-color="#3076A1"/>
<stop offset="1" stop-color="#639C38"/>
</linearGradient>
<linearGradient id="paint6_linear" x1="312.912" y1="219.148" x2="352.879" y2="219.148" gradientUnits="userSpaceOnUse">
<stop stop-color="#3076A1"/>
<stop offset="1" stop-color="#639C38"/>
</linearGradient>
<linearGradient id="paint7_linear" x1="339.671" y1="309.694" x2="373.292" y2="178.936" gradientUnits="userSpaceOnUse">
<stop stop-color="#3076A1"/>
<stop offset="1" stop-color="#639C38"/>
</linearGradient>
<linearGradient id="paint8_linear" x1="351.896" y1="241.914" x2="366.671" y2="241.914" gradientUnits="userSpaceOnUse">
<stop stop-color="#3076A1"/>
<stop offset="1" stop-color="#639C38"/>
</linearGradient>
<linearGradient id="paint9_linear" x1="339.208" y1="268.551" x2="366.524" y2="268.551" gradientUnits="userSpaceOnUse">
<stop stop-color="#FF9340"/>
<stop offset="1" stop-color="#FFCE45"/>
</linearGradient>
<linearGradient id="paint10_linear" x1="339.208" y1="268.551" x2="366.524" y2="268.551" gradientUnits="userSpaceOnUse">
<stop stop-color="#C97332"/>
<stop offset="1" stop-color="#FFCE45"/>
</linearGradient>
<linearGradient id="paint11_linear" x1="194.105" y1="210.412" x2="194.105" y2="335.539" gradientUnits="userSpaceOnUse">
<stop stop-color="#6946C6"/>
<stop offset="1" stop-color="#8B6AE1"/>
</linearGradient>
<linearGradient id="paint12_linear" x1="-44.3746" y1="304.729" x2="203.143" y2="304.729" gradientUnits="userSpaceOnUse">
<stop stop-color="#6946C6"/>
<stop offset="1" stop-color="#6946C6"/>
</linearGradient>
<linearGradient id="paint13_linear" x1="86.3704" y1="164.932" x2="312.06" y2="164.932" gradientUnits="userSpaceOnUse">
<stop stop-color="#D1F5F9"/>
<stop offset="1" stop-color="#D6DEFF"/>
</linearGradient>
<linearGradient id="paint14_linear" x1="99.6796" y1="154.942" x2="288.11" y2="154.942" gradientUnits="userSpaceOnUse">
<stop stop-color="#D1D4D9"/>
<stop offset="0.468241" stop-color="#D1D4D9"/>
<stop offset="1" stop-color="#CDD1D8"/>
</linearGradient>
<linearGradient id="paint15_linear" x1="312.912" y1="219.148" x2="352.879" y2="219.148" gradientUnits="userSpaceOnUse">
<stop stop-color="#CDDEE9"/>
<stop offset="1" stop-color="#DAE7CF"/>
</linearGradient>
</defs>
</svg>
