<?xml version="1.0" encoding="UTF-8"?>
<svg width="63px" height="63px" viewBox="0 0 63 63" version="1.1" xmlns="http://www.w3.org/2000/svg" xmlns:xlink="http://www.w3.org/1999/xlink">
    <!-- Generator: Sketch 49.2 (51160) - http://www.bohemiancoding.com/sketch -->
    <title>Group</title>
    <desc>Created with Sketch.</desc>
    <defs>
        <linearGradient x1="0%" y1="0%" x2="100%" y2="100%" id="linearGradient-1">
            <stop stop-color="#2AF598" offset="0%"></stop>
            <stop stop-color="#66CB85" offset="100%"></stop>
        </linearGradient>
        <polygon id="path-2" points="0 0 25 0 25 19 0 19"></polygon>
    </defs>
    <g id="Page-1" stroke="none" stroke-width="1" fill="none" fill-rule="evenodd">
        <g id="System-Dashboard-Copy-5" transform="translate(-517.000000, -136.000000)">
            <g id="Group" transform="translate(517.000000, 136.000000)">
                <g id="Group-5" fill="url(#linearGradient-1)">
                    <g id="Group-4-Copy">
                        <rect id="Rectangle-19" x="0" y="0" width="63" height="63" rx="20"></rect>
                    </g>
                </g>
                <g id="Page-1" transform="translate(19.000000, 22.000000)">
                    <mask id="mask-3" fill="white">
                        <use xlink:href="#path-2"></use>
                    </mask>
                    <g id="Clip-2"></g>
                    <path d="M24.1220369,4.98312883 L10.9818554,18.0674847 C10.3672812,18.6794479 9.54784899,19 8.75768218,19 C7.93824993,19 7.14808311,18.6794479 6.53350893,18.0966258 L0.856014047,12.4432515 C-0.285338016,11.3067485 -0.285338016,9.44171779 0.856014047,8.30521472 C1.99736611,7.16871166 3.84108867,7.16871166 4.98244074,8.30521472 L8.75768218,12.0644172 L19.9956102,0.874233129 C21.1369622,-0.291411043 22.9806848,-0.291411043 24.1220369,0.874233129 C25.2926544,2.0107362 25.2926544,3.84662577 24.1220369,4.98312883" id="Fill-1" fill="#FEFEFE" mask="url(#mask-3)"></path>
                </g>
            </g>
        </g>
    </g>
</svg>