<?xml version="1.0" encoding="UTF-8"?>
<svg width="24px" height="24px" viewBox="0 0 24 24" version="1.1" xmlns="http://www.w3.org/2000/svg" xmlns:xlink="http://www.w3.org/1999/xlink">
    <!-- Generator: Sketch 49.2 (51160) - http://www.bohemiancoding.com/sketch -->
    <title>noun_831850_cc</title>
    <desc>Created with Sketch.</desc>
    <defs></defs>
    <g id="Page-1" stroke="none" stroke-width="1" fill="none" fill-rule="evenodd">
        <g id="App-Upload---Advanced-Check-Toggle-On" transform="translate(-500.000000, -679.000000)" fill="#DBDBDB" fill-rule="nonzero">
            <g id="noun_831850_cc" transform="translate(500.000000, 679.000000)">
                <path d="M6.4175,11.779688 C6.4175,12.1651093 6.11081505,12.4775549 5.7325,12.4775549 L4.7325,12.4775549 C4.35418495,12.4775549 4.0475,12.1651093 4.0475,11.779688 L4.0475,10.7609042 C4.0475,10.3754829 4.35418495,10.0630372 4.7325,10.0630372 L5.7325,10.0630372 C6.11081505,10.0630372 6.4175,10.3754829 6.4175,10.7609042 L6.4175,11.779688 Z M10.2625,10.7609042 C10.2625,10.3754829 9.95581505,10.0630372 9.5775,10.0630372 L8.5775,10.0630372 C8.3958267,10.0630372 8.22159427,10.1365623 8.09313185,10.2674377 C7.96466944,10.3983132 7.8925,10.5758184 7.8925,10.7609042 L7.8925,11.779688 C7.8925,11.9647738 7.96466944,12.142279 8.09313185,12.2731544 C8.22159427,12.4040299 8.3958267,12.4775549 8.5775,12.4775549 L9.5775,12.4775549 C9.95092459,12.4706115 10.2500622,12.1601903 10.25,11.779688 L10.2625,10.7609042 Z M12.41,12.4877428 L13.41,12.4877428 C13.7883151,12.4877428 14.095,12.1752971 14.095,11.7898758 L14.095,10.771092 C14.095,10.3856708 13.7883151,10.0732251 13.41,10.0732251 L12.41,10.0732251 C12.0316849,10.0732251 11.725,10.3856708 11.725,10.771092 L11.725,11.7898758 C11.7291103,12.1723098 12.0345946,12.4801248 12.41,12.4801019 L12.41,12.4877428 Z M5.73,14.1050621 L4.73,14.1050621 C4.54660029,14.1023341 4.36978779,14.1746531 4.23915439,14.3058254 C4.10852099,14.4369977 4.03498045,14.6160644 4.035,14.802929 L4.035,15.8217128 C4.035,16.2071341 4.34168495,16.5195798 4.72,16.5195798 L5.72,16.5195798 C5.90382933,16.5229979 6.08129034,16.4509846 6.21246908,16.3197368 C6.34364782,16.1884891 6.41753061,16.0090264 6.4175,15.8217128 L6.4175,14.802929 C6.41750121,14.6174011 6.3449887,14.4395088 6.21598507,14.3085599 C6.08698144,14.177611 5.91210607,14.104385 5.73,14.1050621 Z M9.575,14.1050621 L8.575,14.1050621 C8.39160029,14.1023341 8.21478779,14.1746531 8.08415439,14.3058254 C7.95352099,14.4369977 7.87998045,14.6160644 7.88,14.802929 L7.88,15.8217128 C7.88,16.0067986 7.95216944,16.1843038 8.08063185,16.3151793 C8.20909427,16.4460547 8.3833267,16.5195798 8.565,16.5195798 L9.565,16.5195798 C9.94331505,16.5195798 10.25,16.2071341 10.25,15.8217128 L10.25,14.802929 C10.2500399,14.4214515 9.94940407,14.1106311 9.575,14.1050621 Z M2.16,20.7704553 L11.5275,20.7704553 C11.2610523,19.9882342 11.1250058,19.1660922 11.125,18.3381089 L2.375,18.3381089 L2.375,8.2139446 L19.33,8.2139446 L19.33,10.9417383 C20.1615981,11.0447269 20.969385,11.2937693 21.7175,11.6778096 L21.7175,4.72715696 C21.7161223,3.51239585 20.7498639,2.52798743 19.5575,2.52658389 L17.265,2.52658389 L17.265,0.871060172 C17.265,0.389986923 16.8822035,0 16.41,0 L15.07,0 C14.5977965,0 14.215,0.389986923 14.215,0.871060172 L14.215,2.52658389 L7.5,2.52658389 L7.5,0.871060172 C7.49863584,0.392962968 7.11927626,0.00534084147 6.65,0.00254695957 L5.3075,0.00254695957 C4.83724714,0.00394575975 4.45637301,0.391974168 4.455,0.871060172 L4.455,2.52658389 L2.16,2.52658389 C0.967636052,2.52798743 0.00137766048,3.51239585 0,4.72715696 L0,18.5698822 C0.00137766048,19.7846433 0.967636052,20.7690517 2.16,20.7704553 Z M24,18.3381089 C24,21.465085 21.5118225,24 18.4425,24 C15.3731775,24 12.885,21.465085 12.885,18.3381089 C12.885,15.2111328 15.3731775,12.6762178 18.4425,12.6762178 C21.5118225,12.6762178 24,15.2111328 24,18.3381089 Z M20.87,19.8968481 C20.8735705,19.6575818 20.7836336,19.4266835 20.62,19.2550143 L19.345,17.9560649 L19.345,15.938873 C19.345,15.4374033 18.9459738,15.0308819 18.45375,15.0308819 C17.9615262,15.0308819 17.5625,15.4374033 17.5625,15.938873 L17.5625,18.7150589 L19.36,20.5463228 C19.616414,20.7999792 19.9968957,20.8727617 20.3261601,20.73114 C20.6554245,20.5895182 20.8695931,20.2609673 20.87,19.8968481 Z" id="Shape"></path>
            </g>
        </g>
    </g>
</svg>