<?xml version="1.0" encoding="UTF-8"?>
<svg width="18px" height="18px" viewBox="0 0 18 18" version="1.1" xmlns="http://www.w3.org/2000/svg" xmlns:xlink="http://www.w3.org/1999/xlink">
    <!-- Generator: Sketch 49 (51002) - http://www.bohemiancoding.com/sketch -->
    <title>Combined Shape</title>
    <desc>Created with Sketch.</desc>
    <defs></defs>
    <g id="Page-1" stroke="none" stroke-width="1" fill="none" fill-rule="evenodd">
        <g id="Date-Filter-—-Range-Same-Month-Copy" transform="translate(-591.000000, -985.000000)" fill="#EC4A5C" fill-rule="nonzero">
            <g id="Asset-1-Copy" transform="translate(591.000000, 985.000000)">
                <path d="M8,15.740113 L12.3502825,15.740113 C14.2224342,15.740113 15.740113,14.2224342 15.740113,12.3502825 L15.740113,8 L8,8 L8,15.740113 Z M6,15.740113 L6,8 L2.25988701,8 L2.25988701,12.3502825 C2.25988701,14.2224342 3.77756582,15.740113 5.64971751,15.740113 L6,15.740113 Z M15.740113,6 L15.740113,5.64971751 C15.740113,3.77756582 14.2224342,2.25988701 12.3502825,2.25988701 L5.64971751,2.25988701 C3.77756582,2.25988701 2.25988701,3.77756582 2.25988701,5.64971751 L2.25988701,6 L15.740113,6 Z M5.64971751,0 L12.3502825,0 C15.4705353,-5.01795717e-16 18,2.52946469 18,5.64971751 L18,12.3502825 C18,15.4705353 15.4705353,18 12.3502825,18 L5.64971751,18 C2.52946469,18 3.76346788e-16,15.4705353 0,12.3502825 L0,5.64971751 C-5.01795717e-16,2.52946469 2.52946469,6.27244647e-16 5.64971751,0 Z" id="Combined-Shape"></path>
            </g>
        </g>
    </g>
</svg>