<?xml version="1.0" encoding="UTF-8"?>
<svg width="18px" height="17px" viewBox="0 0 18 17" version="1.1" xmlns="http://www.w3.org/2000/svg" xmlns:xlink="http://www.w3.org/1999/xlink">
    <!-- Generator: Sketch 49 (51002) - http://www.bohemiancoding.com/sketch -->
    <title>Group 3</title>
    <desc>Created with Sketch.</desc>
    <defs>
        <polygon id="path-1" points="0 0 18 0 18 17 0 17"></polygon>
    </defs>
    <g id="Page-1" stroke="none" stroke-width="1" fill="none" fill-rule="evenodd">
        <g id="System-Dashboard-Copy-5" transform="translate(-1412.000000, -658.000000)">
            <g id="Group-10" transform="translate(1399.000000, 638.000000)">
                <g id="Page-1-Copy-2" transform="translate(13.000000, 20.000000)">
                    <g id="Group-3">
                        <mask id="mask-2" fill="white">
                            <use xlink:href="#path-1"></use>
                        </mask>
                        <g id="Clip-2"></g>
                        <path d="M16.8698437,17 L3.39046901,17 C1.52119043,17 0,15.4927212 0,13.6405375 L0,1.11982083 C0,0.501679731 0.50631004,0 1.13015634,0 C1.75400264,0 2.26031268,0.501679731 2.26031268,1.11982083 L2.26031268,13.6405375 C2.26031268,14.2575588 2.76775287,14.7603583 3.39046901,14.7603583 L16.8698437,14.7603583 C17.49369,14.7603583 18,15.2620381 18,15.8801792 C18,16.4983203 17.49369,17 16.8698437,17 Z M5.54499906,12.6705487 C4.92115276,12.6705487 4.41484272,12.168869 4.41484272,11.5507279 L4.41484272,8.39395297 C4.41484272,7.77469205 4.92115276,7.27413214 5.54499906,7.27413214 C6.16884536,7.27413214 6.6751554,7.77469205 6.6751554,8.39395297 L6.6751554,11.5507279 C6.6751554,12.168869 6.16884536,12.6705487 5.54499906,12.6705487 Z M14.1861744,12.6705487 C13.5623281,12.6705487 13.0560181,12.168869 13.0560181,11.5507279 L13.0560181,1.81724524 C13.0560181,1.19910414 13.5623281,0.697424412 14.1861744,0.697424412 C14.8100207,0.697424412 15.3163308,1.19910414 15.3163308,1.81724524 L15.3163308,11.5507279 C15.3163308,12.168869 14.8100207,12.6705487 14.1861744,12.6705487 Z M8.73576945,11.5507279 L8.73576945,6.02777156 C8.73576945,5.40963046 9.24207949,4.90795073 9.86592579,4.90795073 C10.4897721,4.90795073 10.9960821,5.40963046 10.9960821,6.02777156 L10.9960821,11.5507279 C10.9960821,12.168869 10.4897721,12.6705487 9.86592579,12.6705487 C9.24207949,12.6705487 8.73576945,12.168869 8.73576945,11.5507279 Z" id="Combined-Shape" fill="#FFFFFF" mask="url(#mask-2)"></path>
                    </g>
                </g>
            </g>
        </g>
    </g>
</svg>