<?xml version="1.0" encoding="UTF-8"?>
<svg width="15px" height="15px" viewBox="0 0 15 15" version="1.1" xmlns="http://www.w3.org/2000/svg" xmlns:xlink="http://www.w3.org/1999/xlink">
    <!-- Generator: Sketch 49.2 (51160) - http://www.bohemiancoding.com/sketch -->
    <title>Shape</title>
    <desc>Created with Sketch.</desc>
    <defs></defs>
    <g id="Page-1" stroke="none" stroke-width="1" fill="none" fill-rule="evenodd">
        <g id="App-Upload---Advanced-Check-Toggle-On" transform="translate(-925.000000, -502.000000)" fill="#DBDBDB" fill-rule="nonzero">
            <g id="Help" transform="translate(925.000000, 502.000000)">
                <g id="Help-Icon">
                    <path d="M7.5,0 C3.35889571,0 0,3.35889571 0,7.5 C0,11.6411043 3.35889571,15 7.5,15 C11.6411043,15 15,11.6411043 15,7.5 C15,3.35889571 11.6411043,0 7.5,0 Z M8.31288344,11.7484663 C8.31288344,12.0092025 8.09815951,12.2239264 7.83742331,12.2239264 L6.62576687,12.2239264 C6.36503067,12.2239264 6.15030675,12.0092025 6.15030675,11.7484663 L6.15030675,10.9662577 C6.15030675,10.7055215 6.36503067,10.4907975 6.62576687,10.4907975 L7.83742331,10.4907975 C8.09815951,10.4907975 8.31288344,10.7055215 8.31288344,10.9662577 L8.31288344,11.7484663 Z M10.2300613,7.08588957 C9.90797546,7.53067485 9.50920245,7.88343558 9.01840491,8.14417178 C8.74233129,8.32822086 8.55828221,8.51226994 8.46625767,8.72699387 C8.40490798,8.86503067 8.35889571,9.04907975 8.32822086,9.26380368 C8.31288344,9.43251534 8.1595092,9.55521472 7.99079755,9.55521472 L6.50306748,9.55521472 C6.30368098,9.55521472 6.15030675,9.38650307 6.16564417,9.20245399 C6.19631902,8.78834356 6.30368098,8.46625767 6.47239264,8.2208589 C6.68711656,7.92944785 7.07055215,7.57668712 7.62269939,7.19325153 C7.91411043,7.00920245 8.12883436,6.79447853 8.29754601,6.53374233 C8.46625767,6.27300613 8.54294479,5.96625767 8.54294479,5.61349693 C8.54294479,5.2607362 8.45092025,4.96932515 8.25153374,4.75460123 C8.05214724,4.5398773 7.79141104,4.43251534 7.43865031,4.43251534 C7.14723926,4.43251534 6.91717791,4.52453988 6.71779141,4.69325153 C6.59509202,4.8006135 6.51840491,4.93865031 6.47239264,5.12269939 C6.41104294,5.33742331 6.21165644,5.47546012 5.98159509,5.47546012 L4.60122699,5.44478528 C4.43251534,5.44478528 4.29447853,5.29141104 4.30981595,5.12269939 C4.35582822,4.38650307 4.64723926,3.83435583 5.15337423,3.43558282 C5.73619632,2.99079755 6.48773006,2.7607362 7.43865031,2.7607362 C8.45092025,2.7607362 9.24846626,3.02147239 9.83128834,3.52760736 C10.4141104,4.03374233 10.7055215,4.72392638 10.7055215,5.59815951 C10.7055215,6.15030675 10.5368098,6.64110429 10.2300613,7.08588957 Z" id="Shape"></path>
                </g>
            </g>
        </g>
    </g>
</svg>