<svg width="31" height="31" viewBox="0 0 31 31" fill="none" xmlns="http://www.w3.org/2000/svg">
<g clip-path="url(#clip0)">
<path d="M30.225 13.423C30.224 13.4223 30.2233 13.4213 30.2226 13.4206L17.577 0.775522C17.038 0.236275 16.3214 -0.0605469 15.5591 -0.0605469C14.7969 -0.0605469 14.0802 0.236275 13.541 0.775522L0.902026 13.4142C0.897769 13.4185 0.893275 13.423 0.889255 13.4272C-0.21762 14.5405 -0.215728 16.3467 0.894694 17.4572C1.40201 17.9647 2.07181 18.2585 2.78821 18.2894C2.81753 18.2923 2.84686 18.2937 2.87643 18.2937H3.3802V27.5995C3.3802 29.4412 4.87873 30.9395 6.72045 30.9395H11.6678C12.1694 30.9395 12.576 30.5327 12.576 30.0313V22.7354C12.576 21.8951 13.2598 21.2116 14.1001 21.2116H17.0182C17.8585 21.2116 18.542 21.8951 18.542 22.7354V30.0313C18.542 30.5327 18.9486 30.9395 19.4502 30.9395H24.3976C26.2395 30.9395 27.7378 29.4412 27.7378 27.5995V18.2937H28.2052C28.9672 18.2937 29.6838 17.9969 30.2233 17.4574C31.3349 16.3453 31.3354 14.5358 30.225 13.423ZM28.9388 16.1731C28.7428 16.3692 28.4821 16.4773 28.2052 16.4773H26.8296C26.328 16.4773 25.9214 16.8839 25.9214 17.3855V27.5995C25.9214 28.4396 25.2379 29.1231 24.3976 29.1231H20.3584V22.7354C20.3584 20.8937 18.8601 19.3951 17.0182 19.3951H14.1001C12.2581 19.3951 10.7596 20.8937 10.7596 22.7354V29.1231H6.72045C5.88036 29.1231 5.19661 28.4396 5.19661 27.5995V17.3855C5.19661 16.8839 4.79004 16.4773 4.2884 16.4773H2.9365C2.92231 16.4764 2.90836 16.4756 2.89393 16.4754C2.62336 16.4707 2.36958 16.3633 2.17943 16.1729C1.77499 15.7685 1.77499 15.1103 2.17943 14.7056C2.17966 14.7056 2.17966 14.7054 2.1799 14.7051L2.18061 14.7044L14.8257 2.05978C15.0215 1.86371 15.2819 1.75586 15.5591 1.75586C15.8361 1.75586 16.0965 1.86371 16.2926 2.05978L28.9348 14.7018C28.9367 14.7037 28.9388 14.7056 28.9407 14.7075C29.343 15.1126 29.3423 15.7694 28.9388 16.1731Z" fill="black"/>
</g>
<defs>
<clipPath id="clip0">
<rect width="31" height="31" fill="white"/>
</clipPath>
</defs>
</svg>
