<svg width="217" height="140" viewBox="0 0 217 140" fill="none" xmlns="http://www.w3.org/2000/svg">
<path d="M173.378 63.2668C175.599 96.6868 146.161 125.991 112.731 123.913C80.8589 121.931 53.8329 94.6255 52.0851 63.2668C50.2209 29.8241 79.2611 1.37479 112.731 2.62012C141.865 3.70412 171.114 29.2028 173.378 63.2668Z" fill="#F8F7FB"/>
<path d="M181.003 13.2687C181.488 20.574 175.052 26.9807 167.744 26.526C160.776 26.094 154.867 20.1234 154.485 13.2687C154.077 5.95669 160.427 -0.263308 167.744 0.0086937C174.113 0.246027 180.508 5.82069 181.003 13.2687Z" fill="#F8F7FB"/>
<path d="M76.7335 122.103C77.0491 126.855 72.8641 131.021 68.1111 130.725C63.5793 130.444 59.7365 126.561 59.4887 122.103C59.2236 117.348 63.3523 113.304 68.1111 113.48C72.2527 113.635 76.4121 117.26 76.7335 122.103Z" fill="#F8F7FB"/>
<path d="M182.884 47.779C176.19 53.427 167.858 60.4577 162.503 69.8684C161.254 72.0644 160.954 73.5777 161.584 74.4937C162.587 75.951 165.567 75.495 168.722 75.011C171.387 74.603 174.407 74.1404 175.208 75.223C175.62 75.779 175.475 76.799 174.775 78.2524C172.543 82.8964 169.062 83.9084 163.792 85.4417C159.85 86.5871 154.944 88.015 149.104 91.5244C141.018 96.383 133.982 102.946 130.848 106.054C154.946 51.8924 178.698 18.0377 178.955 17.6737L178.41 17.2884C178.151 17.655 154.076 51.9657 129.799 106.77C130.122 103.034 131.155 91.7937 132.808 81.0337C134.114 72.5404 134.36 65.9684 134.542 61.1697C134.819 53.8031 134.958 50.1044 138.215 48.179C138.874 47.7884 139.455 47.595 139.972 47.595C140.255 47.595 140.518 47.6537 140.764 47.7697C142.628 48.6471 143.263 52.6684 143.772 55.9004C144.255 58.9591 144.55 60.5617 145.472 60.7204C146.087 60.8284 146.708 60.2204 147.543 58.6857C149.804 54.523 149.512 47.5244 149.23 40.7577C148.922 33.403 148.603 25.7991 151.56 22.0057C152.218 21.1617 152.783 20.7884 153.251 20.8897C154.64 21.2004 155.623 25.5191 156.49 29.3297C157.103 32.0244 157.738 34.8097 158.575 36.8071C159.154 38.1871 159.834 38.8577 160.654 38.8577H160.655C162.971 38.855 165.406 33.0177 167.983 26.8364C168.408 25.8151 168.831 24.8031 169.247 23.8337C173.143 14.7537 177.211 9.45905 181.342 8.09638C183.428 7.40838 185.598 7.70837 187.792 8.98704C189.215 9.8177 189.995 10.8657 190.179 12.1924C190.79 16.603 184.602 23.0124 180.084 27.691C179.644 28.147 179.22 28.5871 178.819 29.0071C174.083 33.9684 172.212 37.0151 172.931 38.5977C173.288 39.383 174.258 39.7484 175.791 39.6751C178.063 39.5737 181.148 37.8231 184.13 36.1284C187.422 34.2604 190.828 32.3297 192.275 33.227C192.914 33.6244 193.192 34.6244 193.104 36.2004C192.93 39.3044 188.496 43.0444 182.884 47.779ZM192.626 32.6617C190.84 31.5537 187.42 33.4937 183.802 35.5497C180.887 37.2044 177.874 38.915 175.76 39.0097C174.523 39.0604 173.772 38.8337 173.539 38.3217C173.143 37.451 173.82 35.2084 179.3 29.4684C179.702 29.0484 180.126 28.6097 180.564 28.155C185.176 23.3764 191.494 16.8324 190.839 12.1017C190.628 10.5804 189.716 9.33903 188.127 8.41236C185.762 7.03103 183.407 6.71238 181.132 7.46305C176.752 8.90838 172.664 14.1777 168.634 23.5711C168.218 24.5417 167.794 25.5564 167.367 26.5804C165.211 31.7524 162.527 38.1897 160.654 38.191C160.139 38.191 159.647 37.6377 159.19 36.5497C158.375 34.6057 157.747 31.8484 157.14 29.1817C156.098 24.599 155.196 20.6404 153.396 20.2404C152.648 20.0737 151.876 20.5164 151.034 21.5964C147.927 25.5817 148.25 33.311 148.563 40.7857C148.843 47.4617 149.131 54.3657 146.956 58.3671C146.027 60.0764 145.628 60.0604 145.584 60.0644C145.091 59.979 144.71 57.5617 144.431 55.7964C143.898 52.4097 143.232 48.1937 141.048 47.1657C140.151 46.743 139.082 46.8911 137.875 47.6044C134.306 49.7164 134.152 53.775 133.875 61.1444C133.695 65.927 133.448 72.4777 132.15 80.9324C130.136 94.0391 129.036 107.888 129.026 108.027L128.979 108.615C127.35 112.322 125.723 116.119 124.102 120.006L124.718 120.262C126.5 115.99 128.291 111.832 130.082 107.776C132.064 105.726 140.038 97.7497 149.448 92.0951C155.214 88.6311 160.074 87.2177 163.979 86.0817C169.224 84.555 173.015 83.4524 175.376 78.5417C176.203 76.8244 176.323 75.6084 175.744 74.827C174.704 73.4217 171.748 73.8737 168.62 74.3524C165.939 74.763 162.9 75.2284 162.134 74.1164C161.668 73.4404 161.988 72.1217 163.083 70.1977C168.378 60.8897 176.66 53.903 183.315 48.2884C189.048 43.4497 193.578 39.6284 193.77 36.2377C193.875 34.3737 193.5 33.203 192.626 32.6617Z" fill="#ECE7F6"/>
<path d="M108.781 101.777C102.505 95.725 104.72 75.9984 97.5688 71.2717C92.2209 67.7371 94.3793 80.1664 93.036 86.2984C91.6782 92.4957 85.5876 83.9797 80.587 78.0157C72.9824 68.9437 65.4454 64.629 58.9236 70.577C52.4021 76.525 64.8037 82.145 71.7225 85.717C77.3714 88.633 82.423 92.0984 76.9422 93.4824C71.0381 94.9717 56.575 87.9237 58.9526 95.8957C60.7261 101.841 82.587 104.049 95.7558 116.197C104.702 124.452 78.3324 119.421 85.3193 126.965C90.9506 133.044 98.5236 127.99 113.34 131.07C125.451 133.586 136.133 139.318 136.133 139.318C136.133 139.318 132.341 127.71 127.732 116.873C120.352 99.521 121.996 91.1957 115.743 89.9424C106.91 88.1704 115.057 107.828 108.781 101.777Z" fill="#ECE7F6"/>
<path d="M195.451 134.94C195.451 134.94 213.336 135.642 215.927 121.375C216.239 119.657 213.476 119.718 209.718 119.778C205.71 119.842 200.572 119.907 196.829 117.813C189.733 113.846 195.451 134.94 195.451 134.94Z" fill="white"/>
<path d="M206.002 131.9C206.46 130.488 206.599 128.643 206.315 126.742C207.082 126.643 207.955 126.497 208.871 126.284C210.322 126.146 211.788 125.687 213.159 124.734C213.45 124.58 213.735 124.415 214.011 124.239C212.596 127.672 209.915 130.238 206.002 131.9Z" fill="#7B5BD1"/>
<path d="M195.28 118.366C195.174 118.366 195.081 118.389 195.01 118.444C194.78 118.623 193.693 119.877 194.826 126.985C195.284 129.853 195.938 132.596 196.263 133.89C197.715 133.86 201.015 133.652 204.438 132.494C210.379 130.485 213.897 126.681 214.895 121.187C214.897 121.176 214.898 121.167 214.9 121.158C214.363 120.752 211.755 120.794 209.838 120.825C205.606 120.893 200.338 120.977 196.317 118.729C196.093 118.604 195.623 118.366 195.28 118.366ZM195.885 135.994C195.608 135.994 195.443 135.989 195.41 135.988C194.952 135.969 194.559 135.656 194.438 135.213C194.396 135.058 193.4 131.364 192.755 127.316C191.513 119.526 192.71 117.578 193.719 116.791C194.371 116.281 195.531 115.885 197.341 116.897C200.869 118.871 205.823 118.792 209.804 118.727C213.246 118.673 215.52 118.636 216.535 119.832C216.813 120.159 217.111 120.724 216.959 121.562C215.827 127.794 211.709 132.269 205.05 134.502C200.988 135.863 197.193 135.994 195.885 135.994Z" fill="#2D00A5"/>
<path d="M203.491 126.951C203.038 126.951 202.671 126.584 202.67 126.13C202.67 125.677 203.037 125.309 203.491 125.308C203.577 125.308 212.153 125.244 215.258 120.896C215.522 120.527 216.036 120.441 216.404 120.705C216.774 120.969 216.859 121.482 216.596 121.851C212.997 126.888 203.879 126.951 203.492 126.951H203.491Z" fill="#2D00A5"/>
<path d="M115.614 91.7045C115.614 91.7045 140.739 70.9016 162.396 78.8618C185.986 87.5312 180.546 112.664 180.546 112.664C180.546 112.664 195.029 113.53 202.442 120.943C206.02 124.522 205.894 130.714 204.426 132.79C201.331 137.171 162.373 135.086 162.373 135.086C162.373 135.086 120.776 136.981 107.789 123.33C94.8017 109.679 115.614 91.7045 115.614 91.7045Z" fill="#5E41AB"/>
<path d="M179.898 103.266C178.066 95.5427 173.131 86.8747 160.865 82.3655C157.141 80.9972 153.321 80.4228 149.533 80.4228C139.702 80.4228 130.081 84.2905 122.883 88.1851C122.841 88.1122 122.8 88.0419 122.758 87.9689C129.48 83.7463 140.573 78.1054 151.863 78.1054C155.274 78.1054 158.704 78.6207 162.036 79.8451C171.435 83.2987 177.235 89.7986 179.278 99.1626C179.587 100.582 179.783 101.963 179.898 103.266Z" fill="#8265D1"/>
<path d="M181.619 134.531C180.576 134.531 179.539 134.526 178.517 134.515C178.515 134.46 178.511 134.403 178.506 134.345C178.398 133.152 177.568 131.293 176.318 129.443C177.992 129.469 179.736 129.484 181.497 129.484C191.45 129.484 202 128.979 204.205 126.945C204.554 129.159 204.236 131.245 203.572 132.184C203.301 132.567 201 134.481 182.246 134.531C182.037 134.531 181.828 134.531 181.619 134.531Z" fill="#5E41AB"/>
<path d="M181.504 136.629C171.728 136.63 162.414 136.137 162.318 136.131C161.74 136.101 161.296 135.607 161.327 135.029C161.358 134.45 161.856 134.009 162.431 134.037C162.528 134.042 172.263 134.552 182.246 134.53C200.999 134.481 203.3 132.567 203.571 132.183C204.794 130.452 204.846 124.828 201.701 121.683C194.662 114.644 180.626 113.718 180.484 113.71C180.179 113.691 179.897 113.54 179.712 113.296C179.527 113.053 179.458 112.74 179.522 112.441C179.535 112.38 180.82 106.233 179.278 99.1623C177.235 89.7983 171.435 83.2984 162.036 79.8448C141.186 72.1816 116.531 92.3062 116.284 92.5106C115.838 92.8806 115.177 92.8182 114.808 92.372C114.438 91.9257 114.5 91.2646 114.946 90.8952C115.207 90.679 121.434 85.5606 130.44 81.3465C142.46 75.7227 153.636 74.522 162.759 77.8758C175.393 82.5183 179.839 91.812 181.344 98.7917C182.574 104.495 182.099 109.518 181.776 111.716C185.442 112.094 196.738 113.753 203.185 120.2C207.068 124.082 207.134 130.776 205.285 133.394C204.67 134.264 203.037 136.574 182.243 136.628C181.997 136.629 181.75 136.629 181.504 136.629Z" fill="#2D00A5"/>
<path d="M164.679 135.244C161.422 135.847 141.107 136.225 116.412 136.377C96.6623 136.502 74.1099 136.485 55.2445 136.319C34.2391 136.138 17.8072 135.781 14.9068 135.244C9.22679 134.192 2.9068 131.444 2.91994 123.522C2.9252 120.795 3.57026 115.767 10.4121 112.563C19.0344 108.53 28.9314 110.827 43.811 111.761C45.9771 111.897 48.2505 112.005 50.6394 112.059L127.218 117.834L129.188 117.983L130.32 118.07C130.32 118.07 152.75 113.738 167.776 122.014C177.93 127.608 173.249 133.66 164.679 135.244Z" fill="#7C5FC8"/>
<path d="M127.218 117.834L127.02 117.819C127.083 117.651 127.145 117.481 127.206 117.311C127.213 117.484 127.218 117.66 127.218 117.834Z" fill="#B27059"/>
<path d="M103.564 135.389C114.942 132.509 123.649 126.694 127.02 117.819L127.219 117.834C127.279 122.46 125.685 127.028 122.747 130.802C139.891 130.663 154.199 130.408 160.955 130.038C160.287 131.811 159.887 133.523 159.677 134.578C157.604 134.679 155.517 134.745 153.434 134.806C147.564 134.973 141.685 135.067 135.805 135.146C129.926 135.223 124.046 135.279 118.164 135.317C113.298 135.351 108.431 135.374 103.564 135.389ZM67.2706 135.352C60.7096 135.318 54.1499 135.268 47.5896 135.193C41.7102 135.124 35.8305 135.04 29.9562 134.904C28.6464 134.873 27.3365 134.84 26.0273 134.803L26.084 130.324C32.0357 130.494 39.9272 130.628 48.9349 130.726C45.7231 126.777 43.8454 121.891 43.7034 116.024C43.6758 114.882 43.6929 113.728 43.758 112.568C44.0616 112.573 44.3659 112.577 44.6695 112.579C45.8453 124.486 54.7144 131.949 67.2706 135.352Z" fill="#5E41AB"/>
<path d="M50.6306 112.408C44.7209 112.813 38.7892 112.441 32.9366 111.967C30.0084 111.747 27.093 111.504 24.2009 111.414C21.312 111.34 18.436 111.423 15.6728 111.985L14.6396 112.204C14.2957 112.279 13.9674 112.402 13.6303 112.498L12.6252 112.807L11.6545 113.204C10.3463 113.706 9.12589 114.385 8.04208 115.203C6.96293 116.025 6.01923 117.003 5.34913 118.144C5.18917 118.433 5.01566 118.715 4.88935 119.02C4.74081 119.316 4.63323 119.629 4.51861 119.939C4.31376 120.569 4.15819 121.218 4.07131 121.884C3.99442 122.548 3.94447 123.242 3.99021 123.92C4.01242 124.258 4.01223 124.6 4.04956 124.935L4.20722 125.927C4.48562 127.23 5.0179 128.449 5.81497 129.489C6.60777 130.532 7.65228 131.392 8.82956 132.07C10.0079 132.749 11.3119 133.256 12.6622 133.642C12.9965 133.747 13.3418 133.825 13.6847 133.909C14.0258 133.999 14.3752 134.065 14.7228 134.136C15.0756 134.22 15.4073 134.247 15.7435 134.291C15.9138 134.31 16.0746 134.337 16.2523 134.351L16.7923 134.391C17.5107 134.448 18.2318 134.499 18.9644 134.531C19.6942 134.567 20.4213 134.611 21.1549 134.634C24.0818 134.757 27.0191 134.834 29.9556 134.903C35.83 135.039 41.7096 135.123 47.589 135.193C59.3492 135.327 71.1127 135.383 82.8756 135.404C94.6385 135.418 106.402 135.398 118.164 135.317C124.045 135.278 129.926 135.223 135.805 135.146C141.684 135.066 147.563 134.972 153.434 134.805C156.366 134.72 159.307 134.624 162.204 134.435L163.284 134.355C163.636 134.323 163.96 134.273 164.3 134.234C164.979 134.13 165.672 133.968 166.336 133.776C167.006 133.587 167.66 133.359 168.287 133.085C168.914 132.814 169.523 132.506 170.072 132.139C171.174 131.419 172.095 130.459 172.388 129.407C172.53 128.884 172.515 128.345 172.356 127.805C172.198 127.264 171.892 126.728 171.501 126.227C170.709 125.218 169.599 124.364 168.425 123.619C167.835 123.244 167.219 122.898 166.583 122.578C165.96 122.238 165.305 121.953 164.658 121.657C163.344 121.102 162.006 120.591 160.629 120.189C159.947 119.967 159.247 119.802 158.555 119.612L157.504 119.369C157.154 119.285 156.803 119.208 156.447 119.145C155.037 118.856 153.604 118.661 152.171 118.485C150.734 118.329 149.291 118.231 147.845 118.155C142.056 117.885 136.252 118.178 130.387 118.412H130.379C130.184 118.42 130.02 118.269 130.012 118.075C130.006 117.913 130.109 117.773 130.255 117.726C131.687 117.257 133.137 116.938 134.602 116.665C135.334 116.531 136.069 116.414 136.807 116.317C137.544 116.213 138.284 116.134 139.026 116.067C139.767 115.997 140.51 115.941 141.253 115.907C141.997 115.862 142.743 115.841 143.488 115.826C144.979 115.793 146.472 115.854 147.964 115.924C150.945 116.111 153.922 116.48 156.863 117.085C157.6 117.224 158.329 117.409 159.061 117.576C159.788 117.775 160.52 117.948 161.237 118.182C162.684 118.604 164.1 119.143 165.494 119.733C166.184 120.048 166.879 120.352 167.548 120.715C168.225 121.057 168.894 121.431 169.545 121.845C170.844 122.675 172.116 123.625 173.152 124.933C173.662 125.589 174.112 126.344 174.37 127.216C174.631 128.082 174.662 129.068 174.411 129.966C174.158 130.862 173.675 131.64 173.112 132.28C172.546 132.924 171.899 133.446 171.225 133.892C170.55 134.341 169.84 134.699 169.119 135.012C168.397 135.326 167.66 135.583 166.914 135.792C166.166 136.008 165.423 136.181 164.65 136.303C164.259 136.35 163.855 136.41 163.475 136.444L162.355 136.527C159.381 136.721 156.442 136.816 153.494 136.902C147.604 137.07 141.718 137.164 135.833 137.243C129.947 137.32 124.063 137.376 118.178 137.414C106.409 137.496 94.6404 137.516 82.8723 137.502C71.1035 137.481 59.3354 137.425 47.5653 137.29C41.68 137.221 35.7947 137.137 29.9065 137.001C26.9618 136.931 24.018 136.854 21.067 136.731C20.3306 136.707 19.5896 136.662 18.8504 136.626C18.1135 136.594 17.3677 136.541 16.6197 136.482L16.0597 136.44C15.871 136.425 15.6681 136.394 15.4731 136.371C15.0802 136.321 14.6785 136.279 14.3145 136.193C13.9416 136.118 13.5684 136.046 13.1977 135.949C12.8263 135.859 12.4544 135.774 12.0865 135.659C10.6113 135.237 9.15067 134.676 7.77998 133.886C6.4131 133.099 5.13593 132.062 4.14722 130.761C3.15219 129.467 2.48518 127.927 2.15329 126.354L1.96467 125.168C1.92057 124.773 1.91722 124.377 1.8933 123.982C1.84486 123.192 1.89783 122.411 1.99076 121.615C2.09381 120.822 2.27948 120.035 2.53106 119.267C2.66947 118.887 2.8042 118.506 2.98441 118.142C3.1422 117.768 3.35061 117.419 3.54909 117.066C4.37218 115.666 5.51672 114.493 6.76734 113.532C8.024 112.57 9.40048 111.803 10.8316 111.239L11.9005 110.795L13.0014 110.447C13.37 110.338 13.7336 110.204 14.1069 110.117L15.2286 109.863C18.2289 109.216 21.2754 109.086 24.2592 109.167C27.2486 109.24 30.198 109.504 33.1291 109.797C34.5945 109.951 36.057 110.087 37.5159 110.255L41.8902 110.727C44.8044 111.071 47.7198 111.333 50.6464 111.709L50.6516 111.709C50.8435 111.734 50.9796 111.91 50.9553 112.102C50.9336 112.271 50.7943 112.397 50.6306 112.408Z" fill="#2D00A5"/>
<path d="M128.532 108.506C128.991 127.495 110.408 136.934 87.2166 137.494C64.0247 138.054 45.0055 129.524 44.5475 110.533C44.1078 92.3324 55.4224 71.2608 82.0154 68.9237C85.1956 67.2031 89.4919 64.2522 91.8453 59.979C92.5821 58.6435 94.5353 58.7868 95.0545 60.2254C95.7439 62.1379 96.392 64.6551 95.1794 67.9536C98.7014 66.1378 102.195 64.0833 103.335 63.0081C104.557 61.8586 106.562 62.7261 106.545 64.4027C106.526 66.024 106.024 69.4738 105.417 72.3701C120.861 79.2164 128.195 94.5387 128.532 108.506Z" fill="#6946C6"/>
<path d="M67.2722 135.352H67.2709C54.7148 131.948 45.8457 124.486 44.6699 112.579C44.6706 112.579 44.6706 112.579 44.6712 112.579C45.8463 124.485 54.7168 131.948 67.2722 135.352Z" fill="#9B4E3E"/>
<path d="M44.5629 111.025H44.5623C44.555 110.862 44.5498 110.698 44.5458 110.533C44.5169 109.369 44.5379 108.194 44.6063 107.011C44.6063 107.016 44.6069 107.02 44.6069 107.024C44.5386 108.201 44.5189 109.374 44.5471 110.534C44.5511 110.698 44.5563 110.862 44.5629 111.025Z" fill="#797CB2"/>
<path d="M80.6923 137.404C75.9157 137.149 71.3953 136.469 67.2713 135.351H67.2726C71.396 136.469 75.9163 137.149 80.6923 137.404ZM44.6716 112.579C44.6709 112.579 44.6709 112.579 44.6703 112.579C44.6203 112.069 44.5842 111.551 44.5625 111.025H44.5632C44.5848 111.551 44.621 112.069 44.6716 112.579Z" fill="#650000"/>
<path d="M127.206 117.311C127.205 117.31 127.205 117.309 127.205 117.309C127.814 115.58 128.223 113.741 128.415 111.786C128.415 111.785 128.415 111.783 128.415 111.781C128.416 111.771 128.418 111.76 128.418 111.749V111.749C128.42 111.737 128.42 111.727 128.422 111.716C128.422 111.712 128.422 111.71 128.422 111.706C128.423 111.699 128.424 111.692 128.424 111.684C128.425 111.68 128.426 111.676 128.426 111.672C128.426 111.664 128.427 111.659 128.428 111.651C128.428 111.646 128.429 111.64 128.429 111.635C128.43 111.627 128.431 111.62 128.431 111.612C128.431 111.607 128.432 111.601 128.433 111.595C128.433 111.591 128.433 111.587 128.434 111.582C128.435 111.576 128.435 111.57 128.435 111.564C128.436 111.561 128.436 111.557 128.437 111.554C128.438 111.54 128.439 111.526 128.44 111.511C128.441 111.51 128.44 111.51 128.441 111.509C128.441 111.501 128.442 111.493 128.443 111.486C128.443 111.483 128.443 111.483 128.443 111.48C128.483 111.008 128.512 110.528 128.527 110.042V110.042C128.527 110.006 128.529 109.971 128.529 109.936C128.529 109.933 128.529 109.933 128.53 109.931C128.531 109.906 128.531 109.879 128.532 109.854C128.532 109.853 128.532 109.852 128.532 109.852C128.532 109.844 128.532 109.836 128.532 109.828C128.533 109.826 128.533 109.823 128.533 109.82C128.533 109.797 128.533 109.772 128.534 109.749C128.534 109.745 128.534 109.745 128.534 109.741C128.535 109.734 128.535 109.727 128.535 109.72C128.535 109.716 128.535 109.714 128.535 109.71C128.535 109.687 128.535 109.665 128.536 109.643C128.536 109.639 128.536 109.634 128.536 109.63C128.536 109.624 128.537 109.618 128.537 109.612C128.537 109.607 128.537 109.601 128.537 109.597C128.537 109.59 128.537 109.582 128.537 109.575C128.537 109.567 128.537 109.56 128.537 109.552C128.537 109.546 128.537 109.541 128.537 109.535C128.537 109.53 128.538 109.525 128.538 109.519C128.538 109.514 128.538 109.508 128.538 109.503C128.538 109.498 128.538 109.49 128.538 109.484C128.538 109.478 128.538 109.473 128.539 109.467C128.539 109.457 128.539 109.45 128.539 109.441C128.539 109.436 128.539 109.431 128.539 109.427C128.539 109.421 128.539 109.413 128.539 109.408C128.539 109.403 128.539 109.398 128.539 109.394C128.539 109.385 128.539 109.379 128.539 109.369C128.539 109.366 128.539 109.363 128.539 109.36C128.539 109.349 128.539 109.34 128.539 109.329C128.539 109.326 128.539 109.322 128.539 109.319C128.539 109.31 128.539 109.302 128.539 109.294C128.539 109.291 128.539 109.288 128.539 109.285C128.539 109.273 128.539 109.263 128.54 109.252C128.54 109.251 128.54 109.251 128.54 109.25C128.54 109.239 128.54 109.229 128.54 109.218C128.54 109.215 128.54 109.212 128.54 109.209C128.54 109.2 128.54 109.192 128.54 109.183C128.54 109.18 128.54 109.177 128.54 109.174C128.54 109.163 128.54 109.152 128.54 109.141C128.54 109.14 128.54 109.139 128.54 109.138C128.54 109.128 128.539 109.118 128.539 109.107C128.539 109.104 128.539 109.101 128.539 109.097C128.539 109.088 128.539 109.08 128.539 109.071C128.539 109.068 128.539 109.066 128.539 109.064C128.539 109.052 128.539 109.041 128.539 109.03C128.539 109.028 128.539 109.027 128.539 109.026C128.539 109.016 128.539 109.005 128.539 108.995C128.539 108.993 128.539 108.99 128.539 108.987C128.539 108.978 128.539 108.967 128.539 108.957C128.539 108.956 128.539 108.955 128.539 108.953C128.539 108.942 128.539 108.929 128.539 108.918C128.539 108.917 128.539 108.916 128.539 108.915C128.538 108.904 128.538 108.894 128.538 108.884C128.538 108.881 128.538 108.878 128.538 108.876C128.538 108.865 128.538 108.855 128.537 108.844C128.537 108.843 128.537 108.842 128.537 108.842C128.537 108.83 128.537 108.818 128.537 108.806C128.537 108.805 128.537 108.803 128.537 108.802C128.537 108.792 128.537 108.781 128.537 108.771C128.537 108.769 128.537 108.767 128.537 108.765C128.536 108.74 128.536 108.719 128.535 108.694C128.535 108.693 128.535 108.691 128.535 108.69C128.535 108.681 128.535 108.669 128.535 108.66C128.535 108.658 128.535 108.654 128.535 108.652C128.534 108.629 128.533 108.606 128.533 108.583C128.533 108.581 128.533 108.578 128.533 108.575C128.533 108.566 128.533 108.558 128.533 108.549C128.532 108.546 128.532 108.543 128.532 108.539C128.532 108.528 128.531 108.517 128.531 108.506C128.516 107.887 128.488 107.266 128.445 106.642C128.445 106.641 128.445 106.639 128.445 106.639C128.487 107.263 128.516 107.887 128.532 108.506C128.61 111.711 128.144 114.646 127.206 117.311Z" fill="#B27059"/>
<path d="M127.02 117.818H127.02C127.083 117.65 127.146 117.479 127.206 117.308C127.206 117.309 127.206 117.31 127.206 117.31C127.146 117.481 127.084 117.65 127.02 117.818Z" fill="#9B4E3E"/>
<path d="M103.564 135.389C114.942 132.509 123.65 126.694 127.021 117.819H127.021C123.65 126.694 114.943 132.509 103.565 135.389C103.564 135.389 103.565 135.389 103.564 135.389Z" fill="#9B4E3E"/>
<path d="M91.1953 137.307C95.5546 137 99.7122 136.362 103.563 135.388C103.564 135.388 103.563 135.388 103.564 135.388C99.7135 136.362 95.5546 137 91.1953 137.307Z" fill="#650000"/>
<path d="M85.0873 137.52C83.602 137.52 82.1358 137.481 80.6925 137.405C75.9166 137.149 71.3962 136.469 67.2728 135.351C54.7174 131.948 45.8469 124.485 44.6718 112.579C44.6212 112.069 44.5851 111.551 44.5634 111.025C44.5568 110.862 44.5516 110.698 44.5476 110.534C44.5194 109.374 44.5391 108.201 44.6074 107.024C45.8502 124.534 63.4091 132.707 85.0979 132.707C85.8004 132.707 86.5069 132.699 87.218 132.682C107.202 132.197 123.768 125.12 127.67 111.019C127.678 111.207 127.684 111.393 127.688 111.58C127.737 113.595 127.572 115.503 127.206 117.305C127.816 115.578 128.224 113.739 128.416 111.786C128.224 113.741 127.816 115.58 127.206 117.309C127.147 117.48 127.084 117.651 127.02 117.819C123.65 126.694 114.942 132.509 103.564 135.388C99.713 136.362 95.5555 137 91.1962 137.307C89.887 137.399 88.5607 137.462 87.218 137.494C86.5043 137.511 85.7925 137.52 85.0873 137.52ZM128.416 111.782C128.418 111.771 128.419 111.76 128.42 111.749C128.419 111.76 128.418 111.771 128.416 111.782ZM128.42 111.749C128.421 111.738 128.422 111.727 128.423 111.716C128.422 111.727 128.421 111.738 128.42 111.749ZM128.424 111.707C128.424 111.699 128.425 111.692 128.426 111.684C128.425 111.692 128.424 111.699 128.424 111.707ZM128.427 111.673C128.427 111.666 128.428 111.659 128.429 111.651C128.428 111.659 128.427 111.665 128.427 111.673ZM128.431 111.635C128.431 111.627 128.432 111.62 128.433 111.613C128.432 111.621 128.431 111.627 128.431 111.635ZM128.434 111.596C128.435 111.591 128.435 111.587 128.435 111.582C128.435 111.587 128.435 111.591 128.434 111.596ZM128.437 111.564C128.437 111.561 128.437 111.558 128.438 111.554C128.437 111.558 128.437 111.561 128.437 111.564ZM128.441 111.512C128.441 111.511 128.442 111.51 128.442 111.509C128.441 111.51 128.442 111.51 128.441 111.512ZM128.444 111.486C128.444 111.484 128.444 111.483 128.444 111.481C128.444 111.483 128.444 111.483 128.444 111.486ZM128.528 110.043C128.528 110.042 128.528 110.042 128.528 110.042V110.043ZM128.531 109.936C128.531 109.934 128.531 109.933 128.531 109.931C128.531 109.934 128.531 109.934 128.531 109.936ZM128.533 109.854C128.533 109.853 128.533 109.853 128.533 109.852C128.533 109.853 128.533 109.853 128.533 109.854ZM128.533 109.828C128.534 109.826 128.534 109.823 128.534 109.82C128.534 109.823 128.534 109.826 128.533 109.828ZM128.535 109.749C128.535 109.746 128.535 109.744 128.535 109.742C128.535 109.745 128.535 109.746 128.535 109.749ZM128.536 109.72C128.536 109.717 128.536 109.713 128.536 109.711C128.536 109.714 128.536 109.717 128.536 109.72ZM128.537 109.643C128.537 109.639 128.537 109.635 128.537 109.631C128.537 109.634 128.537 109.639 128.537 109.643ZM128.538 109.612C128.538 109.607 128.538 109.602 128.538 109.597C128.538 109.602 128.538 109.608 128.538 109.612ZM128.539 109.575C128.539 109.567 128.539 109.56 128.539 109.552C128.539 109.56 128.539 109.567 128.539 109.575ZM128.539 109.535C128.539 109.53 128.539 109.525 128.539 109.519C128.539 109.525 128.539 109.53 128.539 109.535ZM128.539 109.503C128.539 109.497 128.539 109.491 128.539 109.485C128.539 109.491 128.539 109.498 128.539 109.503ZM128.54 109.467C128.54 109.458 128.54 109.45 128.54 109.441C128.54 109.45 128.54 109.458 128.54 109.467ZM128.54 109.427C128.54 109.42 128.54 109.414 128.54 109.408C128.54 109.414 128.54 109.422 128.54 109.427ZM128.541 109.394C128.541 109.386 128.541 109.378 128.541 109.37C128.541 109.379 128.541 109.385 128.541 109.394ZM128.541 109.36C128.541 109.35 128.541 109.339 128.541 109.33C128.541 109.34 128.541 109.349 128.541 109.36ZM128.541 109.319C128.541 109.311 128.541 109.303 128.541 109.295C128.541 109.303 128.541 109.31 128.541 109.319ZM128.541 109.285C128.541 109.274 128.541 109.263 128.541 109.252C128.541 109.263 128.541 109.274 128.541 109.285ZM128.541 109.251C128.541 109.24 128.541 109.229 128.541 109.218C128.541 109.23 128.541 109.24 128.541 109.251ZM128.541 109.209C128.541 109.201 128.541 109.192 128.541 109.183C128.541 109.192 128.541 109.2 128.541 109.209ZM128.541 109.174C128.541 109.163 128.541 109.152 128.541 109.141C128.541 109.152 128.541 109.163 128.541 109.174ZM128.541 109.138C128.541 109.128 128.541 109.118 128.541 109.107C128.541 109.118 128.541 109.128 128.541 109.138ZM128.541 109.098C128.541 109.089 128.541 109.08 128.541 109.071C128.541 109.08 128.541 109.088 128.541 109.098ZM128.541 109.064C128.541 109.053 128.541 109.041 128.541 109.03C128.541 109.041 128.541 109.052 128.541 109.064ZM128.541 109.026C128.541 109.016 128.541 109.006 128.541 108.996C128.541 109.005 128.541 109.017 128.541 109.026ZM128.541 108.987C128.54 108.977 128.54 108.967 128.54 108.958C128.54 108.967 128.54 108.978 128.541 108.987ZM128.54 108.954C128.54 108.942 128.54 108.93 128.54 108.918C128.54 108.929 128.54 108.942 128.54 108.954ZM128.54 108.915C128.539 108.904 128.539 108.894 128.539 108.884C128.539 108.894 128.539 108.904 128.54 108.915ZM128.539 108.876C128.539 108.866 128.539 108.854 128.539 108.844C128.539 108.855 128.539 108.865 128.539 108.876ZM128.539 108.843C128.539 108.83 128.539 108.819 128.539 108.806C128.539 108.818 128.539 108.831 128.539 108.843ZM128.539 108.802C128.538 108.792 128.538 108.782 128.538 108.772C128.538 108.781 128.538 108.793 128.539 108.802ZM128.538 108.765C128.537 108.741 128.537 108.718 128.537 108.695C128.537 108.719 128.537 108.741 128.538 108.765ZM128.537 108.69C128.537 108.68 128.536 108.67 128.536 108.661C128.536 108.67 128.537 108.681 128.537 108.69ZM128.536 108.652C128.535 108.629 128.535 108.607 128.535 108.584C128.535 108.607 128.535 108.629 128.536 108.652ZM128.534 108.576C128.534 108.567 128.534 108.558 128.534 108.549C128.534 108.558 128.534 108.567 128.534 108.576ZM128.533 108.54C128.533 108.528 128.533 108.517 128.533 108.506C128.518 107.887 128.489 107.266 128.447 106.642C128.489 107.266 128.518 107.887 128.533 108.506C128.533 108.517 128.533 108.528 128.533 108.54Z" fill="#9272E9"/>
<path d="M46.5137 96.5625C46.5143 96.5586 46.5156 96.5553 46.517 96.5513C46.5156 96.5546 46.5143 96.5592 46.5137 96.5625ZM46.5196 96.5434C50.7087 83.1605 61.6783 71.165 80.8171 69.0422C61.6796 71.1657 50.7093 83.1605 46.5196 96.5434ZM80.8197 69.0422C80.8309 69.0409 80.8434 69.0396 80.8545 69.0383C80.842 69.0396 80.8322 69.0409 80.8197 69.0422ZM80.8578 69.0376C80.8946 69.0337 80.9308 69.0297 80.9682 69.0258C80.9314 69.0297 80.8946 69.0337 80.8578 69.0376ZM80.9768 69.0251C80.986 69.0238 80.9958 69.0232 81.005 69.0219C80.9952 69.0232 80.986 69.0238 80.9768 69.0251ZM81.0136 69.0212C81.0241 69.0199 81.0346 69.0186 81.0445 69.0179C81.0353 69.0186 81.0234 69.0199 81.0136 69.0212ZM81.0491 69.0173C81.0734 69.0146 81.0984 69.012 81.1227 69.0094C81.0984 69.012 81.0734 69.0146 81.0491 69.0173ZM81.1299 69.0087C81.1391 69.0081 81.1503 69.0067 81.1588 69.0054C81.1496 69.0067 81.1391 69.0074 81.1299 69.0087ZM81.1667 69.0048C81.1785 69.0035 81.1871 69.0028 81.1983 69.0015C81.1891 69.0028 81.1766 69.0041 81.1667 69.0048ZM81.2035 69.0008C81.2278 68.9982 81.2515 68.9962 81.2758 68.9936C81.2522 68.9962 81.2272 68.9989 81.2035 69.0008ZM81.285 68.9929C81.2936 68.9916 81.3041 68.991 81.3126 68.9897C81.3034 68.991 81.2942 68.9916 81.285 68.9929ZM81.3212 68.989C81.333 68.9877 81.3422 68.987 81.354 68.9857C81.3428 68.987 81.3323 68.9877 81.3212 68.989ZM81.3566 68.9851C81.3816 68.9831 81.4059 68.9805 81.4309 68.9778C81.4066 68.9805 81.381 68.9831 81.3566 68.9851ZM81.4395 68.9772C81.448 68.9765 81.4579 68.9752 81.4664 68.9745C81.4572 68.9752 81.4487 68.9765 81.4395 68.9772ZM81.4769 68.9732C81.4861 68.9726 81.4947 68.9719 81.5039 68.9706C81.494 68.9719 81.4861 68.9726 81.4769 68.9732ZM81.5137 68.9699C81.5249 68.9686 81.538 68.9673 81.5492 68.9666C81.538 68.9673 81.5249 68.9686 81.5137 68.9699ZM81.5492 68.9666C81.561 68.9653 81.5729 68.964 81.5847 68.9627C81.5729 68.964 81.561 68.9653 81.5492 68.9666ZM81.5952 68.9621C81.6044 68.9614 81.6116 68.9601 81.6208 68.9594C81.613 68.9601 81.6038 68.9614 81.5952 68.9621ZM81.632 68.9588C81.6412 68.9575 81.6504 68.9568 81.6596 68.9561C81.6498 68.9568 81.6419 68.9575 81.632 68.9588ZM81.6675 68.9548C81.6912 68.9529 81.7161 68.9502 81.7398 68.9483C81.7155 68.9509 81.6918 68.9529 81.6675 68.9548ZM81.751 68.9476C81.7602 68.9463 81.7668 68.9456 81.776 68.945C81.7674 68.9456 81.7589 68.9463 81.751 68.9476ZM81.7878 68.9436C81.7957 68.943 81.8055 68.9423 81.8134 68.9417C81.8049 68.9423 81.7957 68.943 81.7878 68.9436ZM81.8239 68.9404C81.8476 68.9384 81.8719 68.9364 81.8949 68.9338C81.8726 68.9364 81.8463 68.9384 81.8239 68.9404ZM81.9061 68.9331C81.9146 68.9325 81.9225 68.9318 81.9317 68.9305C81.9219 68.9318 81.9153 68.9325 81.9061 68.9331ZM81.9429 68.9298C81.9508 68.9292 81.9613 68.9279 81.9692 68.9272C81.9593 68.9285 81.9527 68.9292 81.9429 68.9298ZM81.9797 68.9266C81.9909 68.9252 82.0033 68.9246 82.0152 68.9233C82.004 68.9246 81.9909 68.9252 81.9797 68.9266Z" fill="#A7C9FF"/>
<path d="M127.669 111.02C127.155 98.0185 119.649 83.2587 106.102 75.9209C104.54 75.0751 103.697 73.3223 104.04 71.5793C104.429 69.6123 104.744 67.7648 104.756 66.6923C104.766 65.7505 104.435 65.3115 103.927 65.3115C103.53 65.3115 103.026 65.5789 102.49 66.083C101.599 66.9236 99.269 68.3623 96.6119 69.818C96.4324 69.9166 96.2445 69.9606 96.0618 69.9606C95.4137 69.9606 94.8288 69.4007 94.9254 68.6823C95.2179 66.5004 94.725 64.7311 94.2091 63.3004C93.9462 62.5709 93.6011 62.1233 93.1812 62.1233C92.7717 62.1233 92.2913 62.5466 91.7445 63.5468C90.183 66.3998 87.4167 68.4405 84.8036 69.9941C82.7143 71.2363 80.3878 72.0144 77.9844 72.3778C60.0995 75.0823 49.749 86.6716 45.6934 99.5603C45.9293 98.5561 46.2027 97.5551 46.5129 96.5634C46.5136 96.5601 46.5149 96.5555 46.5162 96.5522C46.5169 96.5496 46.5175 96.547 46.5188 96.5443C50.7086 83.1614 61.6788 71.1666 80.8163 69.0431H80.8189C80.8314 69.0418 80.8413 69.0405 80.8538 69.0392C80.8551 69.0392 80.8557 69.0392 80.8571 69.0385C80.8939 69.0346 80.9307 69.0306 80.9675 69.0267C80.9701 69.0267 80.9734 69.026 80.976 69.026C80.9852 69.0247 80.9944 69.0241 81.0043 69.0228C81.0082 69.0221 81.0089 69.0221 81.0128 69.0221C81.0227 69.0208 81.0345 69.0195 81.0437 69.0188C81.045 69.0182 81.047 69.0182 81.0483 69.0182C81.0726 69.0155 81.0976 69.0129 81.1219 69.0103C81.1245 69.0103 81.1265 69.0096 81.1291 69.0096C81.1383 69.0083 81.1489 69.0076 81.1581 69.0063C81.1607 69.0063 81.1633 69.0057 81.1659 69.0057C81.1758 69.005 81.1883 69.0037 81.1975 69.0024C81.1988 69.0024 81.2014 69.0024 81.2028 69.0017C81.2264 68.9998 81.2514 68.9971 81.275 68.9945C81.2777 68.9945 81.2816 68.9938 81.2842 68.9938C81.2934 68.9925 81.3026 68.9919 81.3118 68.9905C81.3145 68.9905 81.3178 68.9899 81.3204 68.9899C81.3316 68.9886 81.3421 68.9879 81.3533 68.9866C81.3546 68.9866 81.3546 68.9866 81.3559 68.986C81.3802 68.984 81.4058 68.9814 81.4301 68.9787C81.4321 68.9787 81.4361 68.9781 81.4387 68.9781C81.4479 68.9774 81.4564 68.9761 81.4656 68.9754C81.4696 68.9748 81.4722 68.9748 81.4762 68.9741C81.4854 68.9735 81.4932 68.9728 81.5031 68.9715C81.5057 68.9715 81.5103 68.9708 81.513 68.9708C81.5241 68.9695 81.5373 68.9682 81.5484 68.9675C81.5603 68.9662 81.5721 68.9649 81.5839 68.9636C81.5872 68.9636 81.5912 68.963 81.5945 68.963C81.603 68.9623 81.6122 68.961 81.6201 68.9603C81.624 68.9603 81.6273 68.9597 81.6313 68.9597C81.6411 68.9583 81.649 68.9577 81.6589 68.957C81.6615 68.9564 81.6641 68.9564 81.6667 68.9557C81.6911 68.9538 81.7147 68.9518 81.739 68.9492C81.743 68.9492 81.7463 68.9485 81.7502 68.9485C81.7581 68.9472 81.7666 68.9465 81.7752 68.9459C81.7785 68.9459 81.7831 68.9452 81.787 68.9445C81.7949 68.9439 81.8041 68.9432 81.8126 68.9426C81.8166 68.9419 81.8192 68.9419 81.8232 68.9413C81.8455 68.9393 81.8718 68.9373 81.8941 68.9347C81.8981 68.9347 81.9014 68.9347 81.9053 68.934C81.9145 68.9334 81.9211 68.9327 81.931 68.9314C81.9349 68.9314 81.9382 68.9307 81.9421 68.9307C81.952 68.9301 81.9586 68.9294 81.9684 68.9281C81.9724 68.9281 81.975 68.9281 81.9789 68.9275C81.9901 68.9261 82.0032 68.9255 82.0144 68.9242C85.1947 67.2036 89.4909 64.2527 91.8444 59.9795C92.1868 59.3584 92.7928 59.0574 93.3948 59.0574C94.0875 59.0574 94.7756 59.4563 95.0536 60.2259C95.463 61.3616 95.8574 62.7102 95.8574 64.3092C95.8567 65.4028 95.6714 66.6141 95.1785 67.9541C98.7005 66.1382 102.194 64.0838 103.335 63.0086C103.718 62.6471 104.18 62.4848 104.633 62.4848C105.611 62.4848 106.544 63.2452 106.544 64.3828C106.544 64.39 106.544 64.3966 106.544 64.4032C106.525 66.0245 106.023 69.4743 105.416 72.3706C120.176 78.9139 127.529 93.1985 128.445 106.642C128.316 108.17 128.054 109.628 127.669 111.02Z" fill="#A487F0"/>
<path d="M128.416 111.787C128.416 111.786 128.416 111.784 128.416 111.783C128.416 111.784 128.416 111.786 128.416 111.787ZM128.419 111.75V111.75V111.75ZM128.423 111.717C128.423 111.713 128.423 111.711 128.423 111.708C128.423 111.711 128.423 111.713 128.423 111.717ZM128.425 111.685C128.426 111.682 128.427 111.677 128.427 111.673C128.427 111.677 128.426 111.681 128.425 111.685ZM128.429 111.652C128.429 111.647 128.43 111.641 128.43 111.636C128.43 111.641 128.429 111.647 128.429 111.652ZM128.432 111.614C128.432 111.608 128.433 111.602 128.434 111.597C128.433 111.602 128.432 111.608 128.432 111.614ZM128.435 111.583C128.436 111.578 128.436 111.57 128.436 111.565C128.436 111.571 128.436 111.577 128.435 111.583ZM128.438 111.555C128.439 111.541 128.44 111.526 128.441 111.512C128.44 111.527 128.439 111.541 128.438 111.555ZM128.442 111.51C128.442 111.503 128.443 111.494 128.444 111.487C128.443 111.494 128.442 111.503 128.442 111.51ZM128.444 111.482C128.484 111.009 128.513 110.529 128.528 110.044C128.513 110.529 128.484 111.009 128.444 111.482ZM128.528 110.043C128.528 110.008 128.53 109.972 128.53 109.937C128.53 109.972 128.528 110.007 128.528 110.043ZM128.531 109.932C128.532 109.907 128.532 109.88 128.533 109.855C128.532 109.881 128.532 109.907 128.531 109.932ZM128.533 109.853C128.533 109.845 128.533 109.837 128.533 109.829C128.533 109.837 128.533 109.845 128.533 109.853ZM128.534 109.821C128.534 109.798 128.534 109.773 128.535 109.75C128.534 109.773 128.534 109.798 128.534 109.821ZM128.535 109.743C128.536 109.736 128.536 109.727 128.536 109.721C128.536 109.728 128.536 109.735 128.535 109.743ZM128.536 109.712C128.536 109.689 128.536 109.666 128.537 109.644C128.536 109.666 128.536 109.689 128.536 109.712ZM128.537 109.631C128.538 109.625 128.538 109.62 128.538 109.613C128.538 109.619 128.537 109.626 128.537 109.631ZM128.538 109.598C128.538 109.591 128.538 109.583 128.538 109.576C128.538 109.583 128.538 109.591 128.538 109.598ZM128.538 109.553C128.538 109.547 128.538 109.542 128.538 109.536C128.538 109.542 128.538 109.547 128.538 109.553ZM128.539 109.52C128.539 109.514 128.539 109.51 128.539 109.504C128.539 109.509 128.539 109.515 128.539 109.52ZM128.539 109.486C128.539 109.48 128.539 109.474 128.54 109.468C128.539 109.474 128.539 109.48 128.539 109.486ZM128.54 109.442C128.54 109.438 128.54 109.432 128.54 109.428C128.54 109.432 128.54 109.438 128.54 109.442ZM128.54 109.409C128.54 109.404 128.54 109.399 128.54 109.395C128.54 109.399 128.54 109.404 128.54 109.409ZM128.54 109.371C128.54 109.369 128.54 109.363 128.54 109.361C128.54 109.364 128.54 109.367 128.54 109.371ZM128.54 109.33C128.54 109.327 128.54 109.323 128.54 109.32C128.54 109.323 128.54 109.327 128.54 109.33ZM128.54 109.296C128.54 109.292 128.54 109.289 128.54 109.286C128.54 109.289 128.54 109.292 128.54 109.296ZM128.541 109.253V109.252C128.541 109.252 128.541 109.252 128.541 109.253ZM128.541 109.219C128.541 109.217 128.541 109.212 128.541 109.21C128.541 109.213 128.541 109.216 128.541 109.219ZM128.541 109.184C128.541 109.182 128.541 109.178 128.541 109.175C128.541 109.179 128.541 109.181 128.541 109.184ZM128.541 109.142C128.541 109.14 128.541 109.14 128.541 109.139C128.541 109.14 128.541 109.141 128.541 109.142ZM128.54 109.108C128.54 109.105 128.54 109.102 128.54 109.098C128.54 109.102 128.54 109.105 128.54 109.108ZM128.54 109.072C128.54 109.07 128.54 109.067 128.54 109.065C128.54 109.068 128.54 109.07 128.54 109.072ZM128.54 109.031C128.54 109.029 128.54 109.027 128.54 109.027C128.54 109.028 128.54 109.029 128.54 109.031ZM128.54 108.997C128.54 108.993 128.54 108.991 128.54 108.988C128.54 108.991 128.54 108.994 128.54 108.997ZM128.54 108.958C128.54 108.956 128.54 108.956 128.54 108.955C128.54 108.956 128.54 108.957 128.54 108.958ZM128.54 108.919C128.54 108.918 128.54 108.917 128.54 108.916C128.54 108.917 128.54 108.918 128.54 108.919ZM128.539 108.885C128.539 108.882 128.539 108.88 128.539 108.877C128.539 108.88 128.539 108.882 128.539 108.885ZM128.538 108.845V108.843C128.538 108.843 128.538 108.844 128.538 108.845ZM128.538 108.807C128.538 108.805 128.538 108.805 128.538 108.803C128.538 108.804 128.538 108.806 128.538 108.807ZM128.538 108.772C128.538 108.77 128.538 108.768 128.538 108.766C128.538 108.768 128.538 108.77 128.538 108.772ZM128.536 108.696C128.536 108.694 128.536 108.692 128.536 108.691C128.536 108.692 128.536 108.694 128.536 108.696ZM128.536 108.661C128.536 108.658 128.536 108.656 128.536 108.653C128.536 108.655 128.536 108.659 128.536 108.661ZM128.534 108.584C128.534 108.582 128.534 108.579 128.534 108.577C128.534 108.579 128.534 108.582 128.534 108.584ZM128.534 108.55C128.533 108.547 128.533 108.543 128.533 108.54C128.533 108.544 128.533 108.547 128.534 108.55Z" fill="#C99B8B"/>
<path d="M127.205 117.305C127.57 115.503 127.735 113.595 127.687 111.58C127.683 111.393 127.676 111.206 127.669 111.019C128.054 109.628 128.316 108.17 128.445 106.642C128.488 107.266 128.516 107.887 128.531 108.506C128.531 108.517 128.532 108.528 128.532 108.539C128.532 108.542 128.532 108.546 128.533 108.549C128.533 108.558 128.533 108.566 128.533 108.576C128.533 108.578 128.533 108.581 128.533 108.583C128.533 108.606 128.534 108.629 128.535 108.652C128.535 108.655 128.535 108.657 128.535 108.66C128.535 108.67 128.535 108.68 128.535 108.69C128.535 108.691 128.535 108.693 128.535 108.694C128.536 108.718 128.536 108.741 128.537 108.765C128.537 108.767 128.537 108.769 128.537 108.771C128.537 108.782 128.537 108.792 128.537 108.802C128.537 108.804 128.537 108.804 128.537 108.806C128.537 108.819 128.537 108.83 128.537 108.842V108.844C128.538 108.854 128.538 108.865 128.538 108.876C128.538 108.879 128.538 108.881 128.538 108.884C128.538 108.894 128.538 108.904 128.539 108.915C128.539 108.916 128.539 108.917 128.539 108.918C128.539 108.93 128.539 108.942 128.539 108.953C128.539 108.955 128.539 108.955 128.539 108.957C128.539 108.967 128.539 108.977 128.539 108.987C128.539 108.99 128.539 108.992 128.539 108.996C128.539 109.005 128.539 109.016 128.539 109.026C128.539 109.026 128.539 109.028 128.539 109.03C128.539 109.041 128.539 109.053 128.539 109.064C128.539 109.066 128.539 109.068 128.539 109.071C128.539 109.08 128.539 109.089 128.539 109.097C128.539 109.101 128.539 109.104 128.539 109.107C128.539 109.118 128.54 109.128 128.54 109.138C128.54 109.139 128.54 109.139 128.54 109.141C128.54 109.152 128.54 109.163 128.54 109.174C128.54 109.177 128.54 109.181 128.54 109.183C128.54 109.191 128.54 109.201 128.54 109.209C128.54 109.211 128.54 109.216 128.54 109.218C128.54 109.229 128.54 109.24 128.54 109.251V109.252C128.54 109.263 128.539 109.274 128.539 109.285C128.539 109.288 128.539 109.291 128.539 109.295C128.539 109.302 128.539 109.311 128.539 109.319C128.539 109.322 128.539 109.326 128.539 109.329C128.539 109.339 128.539 109.35 128.539 109.36C128.539 109.362 128.539 109.367 128.539 109.369C128.539 109.377 128.539 109.386 128.539 109.394C128.539 109.398 128.539 109.403 128.539 109.408C128.539 109.414 128.539 109.42 128.539 109.427C128.539 109.431 128.539 109.436 128.539 109.441C128.539 109.45 128.539 109.458 128.539 109.467C128.538 109.473 128.538 109.479 128.538 109.484C128.538 109.491 128.538 109.497 128.538 109.503C128.538 109.509 128.538 109.513 128.538 109.519C128.538 109.525 128.537 109.53 128.537 109.535C128.537 109.541 128.537 109.546 128.537 109.552C128.537 109.559 128.537 109.567 128.537 109.575C128.537 109.582 128.537 109.59 128.537 109.597C128.537 109.602 128.537 109.607 128.537 109.612C128.537 109.619 128.537 109.624 128.536 109.63C128.536 109.634 128.536 109.639 128.536 109.643C128.535 109.665 128.535 109.688 128.535 109.711C128.535 109.713 128.535 109.716 128.535 109.72C128.535 109.726 128.535 109.735 128.534 109.741C128.534 109.744 128.534 109.746 128.534 109.749C128.533 109.772 128.533 109.797 128.533 109.82C128.533 109.823 128.533 109.826 128.532 109.828C128.532 109.836 128.532 109.844 128.532 109.852C128.532 109.853 128.532 109.853 128.532 109.854C128.531 109.879 128.531 109.906 128.53 109.931C128.529 109.933 128.529 109.934 128.529 109.936C128.529 109.971 128.527 110.007 128.527 110.042C128.527 110.042 128.527 110.042 128.527 110.042C128.512 110.528 128.483 111.008 128.443 111.48C128.443 111.482 128.443 111.484 128.443 111.486C128.442 111.493 128.441 111.501 128.441 111.509C128.441 111.51 128.44 111.511 128.44 111.511C128.439 111.525 128.438 111.54 128.437 111.554C128.436 111.557 128.436 111.561 128.435 111.564C128.435 111.569 128.435 111.577 128.434 111.582C128.433 111.587 128.433 111.591 128.433 111.595C128.432 111.601 128.431 111.607 128.431 111.613C128.431 111.62 128.43 111.627 128.429 111.635C128.429 111.64 128.428 111.646 128.428 111.651C128.427 111.659 128.426 111.666 128.426 111.672C128.426 111.676 128.425 111.681 128.424 111.684C128.424 111.691 128.423 111.699 128.422 111.707C128.422 111.71 128.422 111.712 128.422 111.716C128.42 111.727 128.42 111.737 128.418 111.749V111.749C128.418 111.76 128.416 111.771 128.415 111.781C128.415 111.783 128.415 111.785 128.415 111.786C128.223 113.739 127.814 115.578 127.205 117.305Z" fill="#C99B8B"/>
<path d="M120.176 106.138C120.31 111.672 118.776 117.668 113.862 122.392C108.841 127.224 100.288 130.729 86.3711 131.065H86.3691C72.5978 131.397 63.9232 128.377 58.6569 123.875C53.392 119.375 51.534 113.392 51.3986 107.798C51.371 106.662 51.4381 105.543 51.5932 104.454C52.953 94.8154 61.1176 87.2956 71.1657 87.0531C76.662 86.9203 81.7042 88.9892 85.4372 92.4567C89.0006 88.8131 93.935 86.503 99.4306 86.3702C109.355 86.131 117.783 93.0666 119.748 102.447V102.449C120 103.642 120.145 104.875 120.176 106.138Z" fill="#FEFAFB"/>
<path d="M90.9459 108.09C90.9873 109.814 88.7409 111.942 85.9083 112.01C83.0757 112.078 80.7295 110.062 80.6881 108.337C80.646 106.614 82.9252 105.835 85.7578 105.766C88.5904 105.698 90.9038 106.366 90.9459 108.09Z" fill="#2F1E5E"/>
<path d="M85.8621 108.146C84.754 108.146 83.8615 107.7 83.8516 107.308C83.8418 106.905 84.7731 106.713 85.9265 106.686C86.0165 106.683 86.1059 106.682 86.1933 106.682C87.2212 106.682 88.019 106.835 88.0282 107.207C88.0381 107.61 87.1147 108.118 85.9613 108.145C85.9284 108.146 85.8949 108.146 85.8621 108.146Z" fill="#6946C6"/>
<path d="M78.727 107.424C78.0106 113.441 73.2169 114.968 66.9727 117.654C63.0544 119.339 60.3874 121.76 58.6569 123.875C53.392 119.375 51.534 113.392 51.3986 107.798C51.371 106.662 51.4381 105.543 51.5932 104.454C55.2151 100.503 60.994 96.6544 69.4681 97.4674C75.6696 98.0641 79.2416 103.106 78.727 107.424Z" fill="#5E41AB"/>
<path d="M120.176 106.136C120.31 111.67 118.776 117.667 113.862 122.391C112.029 120.4 109.285 118.183 105.385 116.725C99.0184 114.343 94.157 113.05 93.1501 107.074C92.4285 102.786 95.7527 97.5774 101.918 96.6823C110.08 95.4973 115.929 98.8084 119.748 102.445V102.447C120 103.64 120.145 104.874 120.176 106.136Z" fill="#5E41AB"/>
<path d="M110.143 105.816C109.943 106.091 109.783 106.287 109.588 106.496C109.402 106.705 109.197 106.886 108.993 107.072C108.789 107.26 108.566 107.418 108.346 107.586C108.122 107.747 107.885 107.888 107.651 108.038C106.692 108.596 105.612 108.985 104.482 109.168C103.921 109.281 103.339 109.281 102.766 109.289C102.191 109.235 101.616 109.204 101.064 109.035C99.9469 108.782 98.9322 108.228 98.089 107.528C97.6026 107.124 97.5362 106.403 97.9398 105.917C98.1698 105.64 98.5037 105.5 98.8382 105.505L99.0498 105.509C99.2851 105.514 99.5066 105.536 99.7228 105.561C99.9397 105.583 100.144 105.633 100.359 105.626C100.569 105.636 100.774 105.652 100.976 105.673C101.176 105.703 101.382 105.674 101.578 105.689C101.973 105.72 102.365 105.673 102.752 105.676C103.139 105.628 103.525 105.621 103.911 105.546C104.683 105.433 105.462 105.252 106.253 105.003L106.849 104.809C107.044 104.733 107.252 104.673 107.45 104.596C107.655 104.528 107.853 104.445 108.057 104.37C108.253 104.299 108.475 104.201 108.639 104.161L108.98 104.079C109.578 103.934 110.18 104.302 110.324 104.9C110.403 105.228 110.326 105.561 110.143 105.816Z" fill="#2F1E5E"/>
<path d="M62.6382 105.272C62.8044 105.304 63.0299 105.392 63.2297 105.453C63.4373 105.517 63.6384 105.59 63.8468 105.649C64.0485 105.717 64.2595 105.766 64.4573 105.833L65.0626 105.998C65.8644 106.209 66.6518 106.351 67.4279 106.427C67.817 106.483 68.2022 106.471 68.5919 106.501C68.977 106.479 69.3713 106.507 69.7644 106.457C69.9602 106.433 70.1672 106.452 70.3657 106.412C70.5655 106.381 70.7699 106.356 70.9789 106.335C71.1945 106.332 71.3962 106.272 71.6111 106.239C71.8267 106.205 72.0462 106.172 72.2808 106.155L72.4872 106.141C73.1168 106.097 73.6636 106.572 73.707 107.202C73.732 107.562 73.5841 107.898 73.339 108.125C72.5306 108.865 71.5434 109.468 70.4393 109.775C69.8971 109.969 69.3234 110.029 68.7516 110.11C68.1791 110.13 67.5982 110.158 67.0323 110.072C65.8947 109.944 64.7971 109.607 63.8126 109.096C63.5714 108.958 63.3282 108.828 63.0962 108.678C62.8682 108.521 62.6382 108.373 62.4252 108.196C62.2123 108.021 61.9987 107.849 61.8035 107.65C61.5984 107.45 61.4289 107.262 61.2159 106.997C60.8308 106.517 60.9077 105.816 61.3875 105.431C61.6504 105.22 61.9803 105.148 62.2885 105.205L62.6382 105.272Z" fill="#2F1E5E"/>
<path d="M91.853 116.167C91.4402 116.569 91.0373 116.852 90.5911 117.139C90.1462 117.408 89.6808 117.652 89.1892 117.845C88.2113 118.24 87.1394 118.477 86.0294 118.486C84.9003 118.49 83.8185 118.246 82.8405 117.844C82.3509 117.643 81.8863 117.398 81.4426 117.125C80.9984 116.837 80.5988 116.55 80.1887 116.151C79.8653 115.836 79.8581 115.319 80.1729 114.996C80.395 114.768 80.7171 114.697 81.0017 114.785L81.1016 114.817C81.4887 114.937 81.9283 115.102 82.3424 115.221C82.7597 115.355 83.1803 115.462 83.5924 115.56C84.4192 115.757 85.2308 115.865 86.0057 115.859C86.7977 115.847 87.6192 115.735 88.4486 115.543C88.8626 115.448 89.2852 115.345 89.7025 115.215C90.1192 115.102 90.5602 114.941 90.9473 114.828L91.0538 114.797C91.4869 114.67 91.941 114.919 92.0672 115.352C92.1553 115.652 92.0619 115.963 91.853 116.167Z" fill="#2F1E5E"/>
<path d="M93.3955 60.1066C93.2339 60.1066 92.944 60.1578 92.762 60.4865C90.2882 64.9779 85.8231 68.0556 82.5134 69.8472C82.3872 69.9155 82.2485 69.9569 82.1059 69.9694C56.4022 72.2283 45.1611 92.5672 45.5942 110.508C46.0733 130.361 67.3954 136.927 87.1894 136.446C106.983 135.968 127.962 128.384 127.482 108.532C127.184 96.2022 121.12 80.4803 104.99 73.3298C104.537 73.1293 104.287 72.6397 104.389 72.156C105.002 69.2307 105.477 65.8934 105.494 64.3916C105.499 63.8882 105.142 63.6772 104.988 63.6096C104.866 63.5563 104.438 63.4104 104.053 63.7725C102.696 65.0515 98.8268 67.2532 95.6583 68.887C95.2745 69.0855 94.8079 69.0276 94.4832 68.7411C94.1592 68.4545 94.0436 67.9984 94.1927 67.5929C95.2581 64.6959 94.7619 62.5113 94.0666 60.5817C93.9239 60.1874 93.5907 60.1197 93.454 60.1092C93.437 60.1079 93.4172 60.1066 93.3955 60.1066ZM85.0055 138.57C59.752 138.57 43.917 127.954 43.4971 110.56C43.0423 91.7207 54.8064 70.3716 81.703 67.8992C84.7446 66.2292 88.7418 63.4374 90.9251 59.4737C91.4692 58.4872 92.5011 57.9286 93.619 58.0173C94.7317 58.1054 95.659 58.8152 96.0395 59.87C96.6409 61.538 97.1502 63.5097 96.7881 65.9144C99.6003 64.3818 101.828 62.9859 102.614 62.2458C103.494 61.4177 104.726 61.2048 105.829 61.6879C106.929 62.1696 107.604 63.2139 107.592 64.414C107.575 65.9157 107.171 68.9054 106.609 71.763C113.659 75.0734 119.501 80.4073 123.541 87.2345C127.31 93.6029 129.398 100.95 129.58 108.481C130.012 126.383 113.788 137.903 87.2401 138.543C86.4882 138.562 85.7416 138.57 85.0055 138.57Z" fill="#2D00A5"/>
<path d="M25.5405 111.106L25.5069 113.746L25.2332 135.349C25.2839 135.906 23.9706 136.524 21.8934 137.03C20.4037 137.393 18.5206 137.698 16.4617 137.883C14.4041 138.069 12.4966 138.104 10.968 138.012C8.83225 137.884 7.43218 137.509 7.38269 136.952L3.16645 115.248L2.75977 113.152L25.5405 111.106Z" fill="#23B574"/>
<path d="M25.5378 111.107L25.5062 113.745L25.3935 122.554L25.2834 131.355L25.2755 131.994L25.2335 135.349C25.2834 135.907 23.9695 136.523 21.8926 137.03C20.9826 137.253 19.9259 137.452 18.7667 137.617C18.0351 137.722 17.2615 137.811 16.4617 137.882C14.4031 138.068 12.4966 138.105 10.9677 138.011C9.76148 137.94 8.78854 137.788 8.16182 137.572C7.68199 137.402 7.40655 137.195 7.38295 136.954L3.81125 118.563L3.4992 116.955L3.16612 115.248L2.75977 113.15L25.5378 111.107Z" fill="#3D3D3D"/>
<path d="M8.13621 136.702C8.31852 136.808 8.99867 137.106 11.0156 137.226C12.5702 137.32 14.4297 137.276 16.3933 137.1C18.3572 136.923 20.1949 136.635 21.7079 136.266C23.6721 135.788 24.2888 135.374 24.4494 135.237L24.7441 111.968L3.69928 113.858L8.13621 136.702ZM12.7167 138.848C12.0869 138.848 11.4859 138.831 10.9214 138.796C8.07285 138.627 6.73667 138.094 6.60522 137.071L1.82227 112.447L26.3393 110.245L26.0218 135.328C26.0748 136.357 24.8545 137.12 22.0804 137.795C20.4931 138.182 18.575 138.484 16.5342 138.667C15.1996 138.787 13.9075 138.848 12.7167 138.848Z" fill="#040404"/>
<path d="M25.8158 105.997C25.8838 106.754 24.1029 107.592 21.2812 108.279C19.2596 108.772 16.7025 109.186 13.9087 109.437C11.1148 109.688 8.52481 109.736 6.44787 109.611C3.54889 109.438 1.64802 108.93 1.58 108.173C1.46348 106.875 6.79416 105.335 13.4863 104.734C20.1794 104.133 25.6992 104.699 25.8158 105.997Z" fill="#443F3E"/>
<path d="M25.2949 106.055H25.2981H25.2949ZM18.5367 105.018C17.0798 105.018 15.4059 105.088 13.5322 105.256C6.2837 105.908 2.23761 107.478 2.10117 108.138C2.17478 108.304 3.14154 108.889 6.47817 109.088C8.61892 109.217 11.1719 109.157 13.861 108.915C16.5513 108.674 19.0739 108.277 21.1561 107.77C24.3464 106.993 25.2209 106.259 25.2897 106.044C25.0689 105.582 22.6822 105.018 18.5367 105.018ZM8.81404 110.203C7.97294 110.203 7.16975 110.181 6.41547 110.135C1.20085 109.823 1.09241 108.617 1.05659 108.22C0.853182 105.952 8.74379 104.633 13.4385 104.211C16.7077 103.918 19.8085 103.89 22.1699 104.132C25.7922 104.502 26.2831 105.347 26.3373 105.95C26.373 106.347 26.4811 107.553 21.4043 108.789C19.2724 109.309 16.6963 109.713 13.9547 109.96C12.1574 110.122 10.4172 110.203 8.81404 110.203Z" fill="#040404"/>
<path d="M25.5078 113.746C25.516 113.045 25.524 112.359 25.5321 111.692C25.5329 111.692 25.5336 111.692 25.5344 111.691L25.5078 113.746Z" fill="#650000"/>
<path d="M26.8835 109.826C27.0071 111.202 21.3601 112.834 14.271 113.47C7.18194 114.107 1.33449 113.507 1.21094 112.131L1.22776 111.946L1.5801 108.173C1.64812 108.93 3.54898 109.438 6.44796 109.611C8.52496 109.736 11.1149 109.688 13.9088 109.437C16.7026 109.186 19.2597 108.772 21.2813 108.279C24.103 107.592 25.8839 106.754 25.8159 105.997L26.8339 109.646L26.8835 109.826Z" fill="#9B5639"/>
<path d="M25.8149 105.996L26.2946 107.717L26.8337 109.647L26.8831 109.826C27.0067 111.201 21.3603 112.834 14.2701 113.47C7.18148 114.107 1.33344 113.507 1.21094 112.131L1.22684 111.946L1.40225 110.067L1.57911 108.173C1.64812 108.929 3.54859 109.438 6.44724 109.611C8.52437 109.735 11.1149 109.688 13.9082 109.438C16.7022 109.186 19.2595 108.771 21.2807 108.279C24.1026 107.592 25.8832 106.754 25.8149 105.996Z" fill="#3D3D3D"/>
<path d="M8.54063 111.041C5.57067 111.041 3.18675 110.777 1.9082 110.301L2.00002 109.318C2.7334 109.669 4.04836 109.995 6.41631 110.137C7.17132 110.182 7.97523 110.204 8.81732 110.204C10.4196 110.204 12.1591 110.123 13.9556 109.961C16.696 109.715 19.2721 109.31 21.4052 108.79C23.4228 108.299 24.8306 107.765 25.6058 107.198L25.8499 108.072C24.132 109.187 19.4777 110.29 13.9452 110.787C12.0229 110.959 10.191 111.041 8.54063 111.041Z" fill="#585858"/>
<path d="M1.73935 112.104C2.023 112.773 6.48602 113.643 14.2234 112.949C21.9529 112.255 26.1887 110.605 26.3566 109.891L25.6053 107.197C24.83 107.764 23.4222 108.298 21.4046 108.789C19.2716 109.309 16.6955 109.714 13.955 109.96C11.2144 110.207 8.60752 110.267 6.41577 110.136C4.04782 109.994 2.73286 109.668 1.99947 109.317L1.73935 112.104ZM8.74074 114.25C4.70806 114.25 0.831863 113.78 0.687801 112.179L0.683594 112.132L1.05709 108.125L2.1018 108.127C2.17515 108.305 3.14185 108.889 6.47847 109.088C8.61876 109.217 11.1714 109.157 13.8613 108.915C16.5506 108.674 19.0733 108.278 21.1564 107.771C24.3243 106.999 25.0792 106.317 25.235 106.127C25.4043 105.92 25.6706 105.826 25.9312 105.88C26.1908 105.936 26.3963 106.128 26.4678 106.384L27.4053 109.78C27.6189 112.159 19.2788 113.547 14.3172 113.994C12.6953 114.139 10.6992 114.25 8.74074 114.25Z" fill="#040404"/>
<path d="M22.4006 102.415C22.4513 102.98 21.1212 103.607 19.0139 104.12C17.5041 104.488 15.5944 104.797 13.5078 104.984C11.4212 105.172 9.48691 105.208 7.93575 105.115C5.77068 104.985 4.35103 104.606 4.30023 104.041C4.21321 103.071 8.19443 101.921 13.1924 101.472C18.191 101.023 22.3135 101.445 22.4006 102.415Z" fill="#6F6C6B"/>
<path d="M21.8984 102.525H21.9017H21.8984ZM4.86555 103.988C5.09597 104.154 5.92459 104.47 7.96827 104.592C9.55979 104.687 11.4594 104.643 13.4621 104.462C15.4641 104.283 17.3414 103.988 18.8909 103.611C20.8803 103.126 21.6396 102.668 21.8372 102.464C21.3129 102.054 18.4087 101.53 13.2404 101.995C8.07237 102.459 5.30792 103.492 4.86555 103.988ZM9.7047 105.689C9.07377 105.689 8.47124 105.672 7.9055 105.639C4.31237 105.424 3.82971 104.651 3.77917 104.088C3.70819 103.298 4.63467 102.652 6.69505 102.058C8.40598 101.563 10.6972 101.17 13.1467 100.95C14.1263 100.862 22.725 100.154 22.9243 102.369C22.9746 102.931 22.6372 103.778 19.1392 104.63C17.54 105.02 15.6092 105.323 13.5559 105.507C12.2095 105.628 10.9058 105.689 9.7047 105.689Z" fill="#040404"/>
<path d="M20.3268 103.844C20.3653 104.273 19.3562 104.748 17.7575 105.138C16.612 105.416 15.1632 105.652 13.5802 105.793C11.9972 105.935 10.5298 105.963 9.35289 105.892C7.71038 105.794 6.63326 105.506 6.59482 105.077C6.5287 104.342 9.54913 103.469 13.3409 103.128C17.1331 102.788 20.2607 103.109 20.3268 103.844Z" fill="#9B5639"/>
<path d="M9.69893 105.164C9.32458 105.164 8.96318 105.158 8.61728 105.146C8.38318 105.138 8.15592 105.128 7.93641 105.115C7.76422 105.104 7.59682 105.092 7.43436 105.079C7.36391 105.057 7.30476 105.036 7.25586 105.016C7.85169 104.63 9.92356 103.962 13.3884 103.651C14.4566 103.555 15.4005 103.516 16.2146 103.516C18.041 103.516 19.2133 103.712 19.6663 103.901C19.6217 103.93 19.5674 103.961 19.5019 103.996C19.3446 104.038 19.182 104.079 19.0146 104.12C18.6606 104.206 18.2846 104.289 17.8896 104.368C16.8583 104.574 15.6967 104.753 14.456 104.89C14.1448 104.924 13.8288 104.956 13.5085 104.985C12.5468 105.071 11.6178 105.125 10.7434 105.15C10.3856 105.159 10.0368 105.164 9.69893 105.164Z" fill="#EDE5E2"/>
<path d="M7.25677 105.016C7.54305 105.133 8.1797 105.297 9.38569 105.369C10.5871 105.441 12.022 105.407 13.535 105.271C15.0481 105.135 16.4658 104.913 17.6349 104.628C18.809 104.342 19.4066 104.068 19.6672 103.901C19.0123 103.628 16.8544 103.34 13.3893 103.651C9.92447 103.962 7.8526 104.631 7.25677 105.016ZM10.6958 106.455C10.2144 106.455 9.75472 106.442 9.32292 106.416C6.53107 106.249 6.12018 105.638 6.07391 105.125C6.01299 104.445 6.72324 103.929 8.37706 103.451C9.68269 103.074 11.4294 102.774 13.2956 102.606C15.1615 102.439 16.934 102.423 18.2862 102.562C19.9987 102.737 20.7896 103.118 20.8507 103.798C20.8968 104.311 20.6012 104.986 17.8832 105.647C16.6643 105.944 15.1931 106.176 13.6287 106.316C12.6037 106.408 11.6108 106.455 10.6958 106.455Z" fill="#040404"/>
<path d="M23.1987 105.276C23.291 106.303 19.0735 107.522 13.7791 107.997C8.4848 108.473 4.11766 108.025 4.02539 106.998L4.03794 106.859L4.30109 104.042C4.35183 104.607 5.77155 104.986 7.93655 105.115C9.48778 105.209 11.4221 105.173 13.5086 104.985C15.5952 104.798 17.505 104.488 19.0147 104.12C21.1221 103.607 22.4522 102.981 22.4014 102.416L23.1617 105.142L23.1987 105.276Z" fill="#9B5639"/>
<path d="M22.4028 102.416L22.7861 103.791L23.1622 105.141L23.1989 105.275C23.2916 106.303 19.0747 107.522 13.7801 107.998C8.48546 108.473 4.11852 108.025 4.02539 106.997L4.03794 106.859L4.18201 105.32L4.30221 104.041C4.35223 104.606 5.77267 104.986 7.938 105.115C9.4889 105.208 11.4226 105.173 13.5093 104.985C15.596 104.798 17.5058 104.487 19.0152 104.121C21.123 103.607 22.4528 102.981 22.4028 102.416Z" fill="#555555"/>
<path d="M9.66072 106.146C6.92611 106.146 4.85686 105.846 4.18164 105.32L4.30185 104.041C4.35186 104.607 5.7723 104.986 7.93763 105.115C8.48121 105.148 9.07179 105.165 9.69943 105.165C10.8628 105.165 12.1535 105.107 13.5089 104.985C15.5956 104.798 17.5054 104.488 19.0149 104.121C21.0856 103.617 22.4055 103.003 22.4038 102.446C22.4037 102.436 22.4033 102.426 22.4024 102.416L22.7857 103.791C21.6936 104.668 18.063 105.564 13.7004 105.957C12.2632 106.085 10.8942 106.146 9.66072 106.146Z" fill="#737373"/>
<path d="M4.55735 106.93C4.99426 107.399 8.30985 107.96 13.7316 107.473C19.1531 106.987 22.3162 105.843 22.6619 105.304L22.1657 103.524C21.5471 103.919 20.5329 104.289 19.1381 104.629C17.539 105.019 15.6082 105.322 13.5548 105.506C11.5025 105.69 9.54871 105.736 7.90455 105.638C6.31402 105.543 5.333 105.338 4.72901 105.091L4.55735 106.93ZM9.6208 108.707C6.80562 108.707 3.62463 108.403 3.50219 107.043L3.49805 106.996L3.77822 103.991L4.82293 103.993C4.81984 103.96 4.80814 103.937 4.804 103.931C4.90153 104.068 5.65996 104.453 7.96712 104.591C9.55962 104.686 11.4596 104.641 13.4611 104.461C15.4632 104.282 17.3405 103.987 18.8899 103.61C21.1261 103.065 21.7148 102.586 21.8419 102.453C22.0175 102.268 22.2807 102.191 22.5275 102.253C22.7746 102.314 22.9706 102.505 23.039 102.751L23.7205 105.227C23.9284 107.544 14.8601 108.426 13.8253 108.518C13.3984 108.557 11.5996 108.707 9.6208 108.707Z" fill="#040404"/>
<path d="M20.187 118.239C19.7743 119.724 19.0412 120.907 18.0741 121.878C17.3102 122.646 16.3994 123.281 15.3879 123.829C14.8654 124.111 14.3896 124.473 13.9425 124.868C12.9653 125.731 12.2239 126.742 11.9192 128.042C11.8378 128.388 11.9263 128.571 12.2362 128.726C13.2166 129.219 14.2361 129.272 15.2664 128.979C17.3648 128.381 19.1928 126.717 20.2325 124.7C20.7443 123.709 21.0663 122.632 21.1353 121.554C21.1366 121.545 21.1379 121.536 21.1377 121.526C21.1523 121.291 21.1544 121.057 21.1444 120.823C21.1033 119.897 20.8543 119.022 20.187 118.239Z" fill="#FCF7FB"/>
<path d="M12.1391 124.693C12.9988 123.703 14.0845 123.016 15.1983 122.351C15.783 122.004 16.319 121.616 16.7975 121.179C17.4491 120.585 17.9932 119.902 18.4 119.109C18.5028 118.912 18.5973 118.706 18.6802 118.493C18.7936 118.212 18.89 117.919 18.9696 117.613C19.0536 117.292 18.9981 117.125 18.6962 116.974C18.1402 116.697 17.5721 116.559 16.9965 116.548L16.9955 116.548C16.5735 116.539 16.1468 116.6 15.7181 116.722C12.5761 117.62 9.98863 120.85 9.7987 124.115C9.72956 125.291 9.90924 126.418 10.7093 127.422C10.9699 126.362 11.4582 125.477 12.1391 124.693Z" fill="#FCF7FB"/>
<path d="M25.4434 118.834L25.4486 118.45C25.4628 118.573 25.4635 118.702 25.4434 118.834Z" fill="#650000"/>
<path d="M12.7154 137.273C12.118 137.273 11.5483 137.257 11.0147 137.225C8.99775 137.105 8.3176 136.807 8.13529 136.701L7.52322 133.55C8.57464 132.682 10.6198 130.9 12.3862 128.797C12.925 129.042 13.4752 129.157 14.032 129.157C14.4403 129.157 14.8521 129.095 15.2658 128.977C15.4136 128.935 15.5601 128.888 15.7051 128.835C14.7798 130.662 13.3297 132.479 11.8628 134.05C12.787 134.169 13.7408 134.252 14.6764 134.252C17.5633 134.252 20.2822 133.465 21.4686 130.551C22.6932 127.541 22.9817 124.079 22.9764 120.678C22.9715 117.778 20.6039 115.477 17.7804 115.477C17.573 115.477 17.3636 115.489 17.1521 115.514C16.507 115.591 15.8461 115.662 15.1722 115.722C13.2503 115.895 11.4186 115.977 9.76827 115.977C9.30513 115.977 8.85593 115.97 8.42322 115.958C6.60109 115.389 4.88535 115.081 3.91451 114.97L3.70703 113.902C5.13437 114.153 6.92194 114.249 8.74137 114.249C10.6998 114.249 12.6959 114.138 14.3178 113.993C17.4467 113.712 21.9191 113.056 24.7426 112.013L24.4484 135.236C24.2879 135.373 23.6712 135.787 21.7069 136.265C20.194 136.634 18.3563 136.922 16.3924 137.099C15.1028 137.215 13.8583 137.273 12.7154 137.273ZM15.3306 123.859C15.502 123.276 15.5919 122.701 15.578 122.145C15.8639 122.507 16.1034 122.891 16.2879 123.298C15.998 123.484 15.6974 123.66 15.3873 123.828C15.3683 123.838 15.3494 123.848 15.3306 123.859Z" fill="#1A1820"/>
<path d="M12.9791 138.096C10.9908 138.096 9.25115 137.916 8.22497 137.517C7.829 137.362 7.54061 137.176 7.38321 136.953L6.8301 134.106C6.88695 134.062 7.13859 133.867 7.52274 133.55L8.13481 136.701C8.31712 136.808 8.99727 137.105 11.0142 137.226C11.5479 137.257 12.1175 137.274 12.7149 137.274C13.8578 137.274 15.1023 137.215 16.3919 137.099C18.3558 136.923 20.1935 136.634 21.7065 136.265C23.6707 135.788 24.2874 135.373 24.448 135.236L24.7421 112.013C25.0223 111.909 25.2861 111.802 25.5308 111.691C25.5227 112.358 25.5146 113.043 25.5065 113.745C25.42 120.61 25.3125 128.928 25.2338 135.348C24.4346 136.976 17.9366 138.096 12.9791 138.096ZM3.91403 114.97C3.62538 114.937 3.40278 114.922 3.26266 114.922C3.18222 114.922 3.12892 114.926 3.10611 114.937L2.87109 113.725C3.13234 113.791 3.41165 113.85 3.70655 113.902L3.91403 114.97Z" fill="#040404"/>
<path d="M8.86606 113.205C7.18424 113.205 5.78069 113.117 4.67578 112.982L22.7246 111.36L23.6238 111.279C21.5785 111.916 18.4147 112.573 14.2239 112.949C12.2108 113.13 10.42 113.205 8.86606 113.205Z" fill="#202020"/>
<path d="M8.74063 114.25C6.92119 114.25 5.13363 114.154 3.70629 113.902C3.41139 113.85 3.13208 113.791 2.87083 113.726L2.75977 113.152L4.67516 112.981C5.78007 113.116 7.18362 113.204 8.86544 113.204C10.4194 113.204 12.2101 113.129 14.2233 112.949C18.4141 112.572 21.5779 111.915 23.6232 111.279L25.5378 111.107C25.5353 111.3 25.533 111.495 25.5305 111.691C25.2859 111.803 25.022 111.91 24.7419 112.013C21.9183 113.056 17.446 113.712 14.317 113.994C12.6952 114.139 10.6991 114.25 8.74063 114.25Z" fill="black"/>
<path d="M14.0325 129.158C13.4757 129.158 12.9255 129.043 12.3867 128.799C13.6906 127.247 14.8423 125.521 15.331 123.86C15.3498 123.85 15.3688 123.839 15.3878 123.829C15.6979 123.661 15.9984 123.485 16.2883 123.3C16.3999 123.546 16.4913 123.801 16.5599 124.065C16.9447 125.548 16.537 127.196 15.7056 128.837C15.5605 128.889 15.4141 128.937 15.2662 128.979C14.8526 129.096 14.4408 129.158 14.0325 129.158Z" fill="#7C5FC8"/>
<path d="M159.492 135.64C159.492 135.64 174.584 135.592 177.639 135.64C180.693 135.688 175.233 125.461 169.726 123.657C161.534 120.972 159.492 135.64 159.492 135.64Z" fill="white"/>
<path d="M178.516 134.516C178.516 134.516 178.517 134.516 178.516 134.516C178.514 134.46 178.511 134.403 178.506 134.345C178.511 134.403 178.514 134.46 178.516 134.516Z" fill="#9B4E3E"/>
<path d="M177.661 135.643C177.654 135.643 177.646 135.643 177.639 135.643C176.621 135.625 174.265 135.62 171.576 135.62C170.252 135.62 168.846 135.622 167.48 135.624C167.481 135.624 167.482 135.624 167.482 135.623C168.847 135.622 170.252 135.62 171.576 135.62C174.265 135.62 176.62 135.625 177.638 135.641C177.645 135.641 177.653 135.641 177.659 135.641C178.277 135.642 178.537 135.213 178.516 134.516C178.516 134.516 178.515 134.516 178.516 134.516C178.539 135.213 178.278 135.643 177.661 135.643Z" fill="#650000"/>
<path d="M160.955 130.037C161.092 129.674 161.24 129.308 161.4 128.945C161.24 129.308 161.092 129.674 160.955 130.037Z" fill="#B27059"/>
<path d="M159.678 134.578C159.887 133.523 160.288 131.811 160.955 130.037C160.288 131.811 159.888 133.523 159.678 134.578H159.678Z" fill="#9B4E3E"/>
<path d="M159.49 135.643C159.49 135.643 159.546 135.239 159.678 134.578H159.678C159.547 135.238 159.492 135.641 159.492 135.641C159.492 135.641 163.303 135.629 167.482 135.623C167.482 135.624 167.481 135.624 167.481 135.624C163.301 135.63 159.49 135.643 159.49 135.643Z" fill="#650000"/>
<path d="M177.66 135.641C177.654 135.641 177.646 135.641 177.639 135.641C176.621 135.625 174.266 135.62 171.576 135.62C170.253 135.62 168.848 135.621 167.483 135.622C163.303 135.629 159.492 135.641 159.492 135.641C159.492 135.641 159.548 135.237 159.679 134.577C159.888 133.522 160.288 131.81 160.956 130.037C161.093 129.674 161.24 129.308 161.401 128.944C161.402 128.941 161.403 128.938 161.405 128.935V128.934C162.414 126.647 163.893 124.462 166.007 123.658C165.669 124.212 165.367 124.799 165.097 125.395C163.598 128.704 165.837 132.501 169.454 132.831C172.28 133.089 175.595 133.411 178.404 133.743C178.454 133.958 178.489 134.159 178.506 134.345C178.511 134.403 178.515 134.46 178.517 134.515C178.538 135.212 178.277 135.641 177.66 135.641Z" fill="#7B5BD1"/>
<path d="M171.576 134.572C174.122 134.572 176.369 134.576 177.469 134.59C177.465 134.243 177.323 133.455 176.683 132.147C175.239 129.2 172.196 125.572 169.397 124.654C167.988 124.193 166.756 124.309 165.632 125.009C162.641 126.874 161.24 132.191 160.747 134.59C162.944 134.583 167.62 134.572 171.576 134.572ZM177.659 136.691C177.646 136.691 177.634 136.691 177.621 136.691C174.611 136.643 159.644 136.691 159.494 136.691C159.192 136.691 158.9 136.561 158.701 136.332C158.5 136.103 158.409 135.798 158.451 135.497C158.504 135.118 159.799 126.177 164.52 123.231C166.18 122.195 168.042 122.003 170.051 122.661C175.093 124.314 180.029 132.09 179.526 135.085C179.36 136.078 178.645 136.691 177.659 136.691Z" fill="#2D00A5"/>
<path d="M174.029 136.441C173.74 136.441 173.46 136.29 173.31 136.019C169 128.28 162.593 127.486 162.528 127.48C162.077 127.43 161.752 127.023 161.802 126.573C161.852 126.122 162.256 125.797 162.709 125.846C163.006 125.879 170.028 126.748 174.745 135.22C174.966 135.617 174.824 136.117 174.428 136.338C174.301 136.408 174.164 136.441 174.029 136.441Z" fill="#2D00A5"/>
<path d="M8.16168 137.572C7.68185 137.402 7.40641 137.195 7.38281 136.954C7.54022 137.177 7.8286 137.363 8.22458 137.518C8.20361 137.536 8.18265 137.554 8.16168 137.572Z" fill="#650000"/>
<path d="M3.09487 114.946C3.21495 114.712 14.1275 116.13 15.4506 121.22C16.8194 126.486 6.81813 134.115 6.81813 134.115C6.81813 134.115 -3.14316 127.13 3.09487 114.946Z" fill="white"/>
<path d="M5.87839 133.336C4.37724 131.957 1.55818 128.782 1.10352 124.062C1.55831 128.781 4.37652 131.956 5.87813 133.335L5.87839 133.336Z" fill="#797CB2"/>
<path d="M6.81767 134.117C6.81767 134.117 6.44076 133.852 5.87917 133.336L5.87891 133.335C6.43084 133.842 6.80486 134.107 6.81827 134.117C6.81787 134.117 6.81767 134.117 6.81767 134.117Z" fill="#650000"/>
<path d="M1.10454 124.061C1.10421 124.057 1.10387 124.054 1.10354 124.05C1.10387 124.053 1.10421 124.057 1.10454 124.061ZM1.10201 124.033C1.10187 124.032 1.10161 124.03 1.10148 124.029C1.10168 124.03 1.10181 124.032 1.10201 124.033ZM1.09974 124.01C1.09974 124.009 1.09961 124.009 1.09961 124.008C1.09968 124.009 1.09968 124.009 1.09974 124.01Z" fill="#797CB2"/>
<path d="M6.81769 134.115C6.80428 134.105 6.43026 133.841 5.87833 133.334C4.37672 131.955 1.55851 128.78 1.10371 124.061C1.10371 124.061 1.10352 124.06 1.10345 124.059C1.10312 124.056 1.1028 124.052 1.10247 124.049C1.10194 124.043 1.10141 124.038 1.10095 124.032C1.10076 124.031 1.10063 124.029 1.10043 124.028C1.09984 124.021 1.09931 124.015 1.09872 124.009C1.09865 124.009 1.09865 124.008 1.09859 124.007C0.96938 122.607 1.04831 121.073 1.43075 119.409C1.4387 119.471 1.44704 119.534 1.45585 119.595C1.99786 123.415 5.23557 125.728 8.57232 125.728C10.4146 125.728 12.2867 125.024 13.7527 123.478C14.3832 122.813 14.9786 122.12 15.4946 121.415C16.5675 126.649 6.90503 134.048 6.81769 134.115Z" fill="#7C5FC8"/>
<path d="M3.09503 114.945H3.09825H3.09503ZM3.74469 115.999C1.59658 120.516 1.52915 124.757 3.54674 128.613C4.62654 130.677 6.03713 132.087 6.82381 132.773C9.74244 130.397 15.3408 124.966 14.4356 121.483C13.4883 117.839 5.958 116.229 3.74469 115.999ZM6.84432 135.414L6.21582 134.974C6.10883 134.899 -4.41675 127.315 2.16132 114.467C2.52253 113.761 3.25822 113.842 3.96952 113.92C4.07928 113.932 14.9682 115.193 16.4659 120.955C17.9667 126.729 8.53488 134.125 7.45441 134.949L6.84432 135.414Z" fill="#2D00A5"/>
<path d="M2.14923 129.17C1.64942 129.17 1.20685 128.811 1.11747 128.302C1.01751 127.731 1.39909 127.188 1.96935 127.087C2.03803 127.075 8.89273 125.839 14.9752 122.069C15.4673 121.763 16.1141 121.914 16.4194 122.407C16.7248 122.899 16.573 123.546 16.0807 123.851C9.64235 127.843 2.62657 129.102 2.33115 129.154C2.27003 129.165 2.20924 129.17 2.14923 129.17Z" fill="#2D00A5"/>
<path d="M15.5281 122.656C15.431 122.656 15.3325 122.643 15.2346 122.614C9.64087 120.988 1.40483 120.967 1.32222 120.967C0.742952 120.967 0.273438 120.497 0.273438 119.918C0.273438 119.339 0.743083 118.869 1.32235 118.869C1.67134 118.869 9.93675 118.888 15.8206 120.6C16.3769 120.761 16.6967 121.344 16.5347 121.9C16.4014 122.359 15.9826 122.656 15.5281 122.656Z" fill="#2D00A5"/>
<path d="M128.042 62.916C127.786 62.916 127.546 62.7826 127.412 62.5591C127.259 62.3048 127.274 61.9834 127.45 61.7448L129.842 58.4943L127.552 58.8301C127.147 58.8892 126.776 58.6112 126.717 58.209C126.658 57.8075 126.936 57.4335 127.338 57.375L131.373 56.7835C131.667 56.7395 131.957 56.8782 132.11 57.1325C132.262 57.3869 132.247 57.7082 132.072 57.9475L129.679 61.1974L131.971 60.8616C132.374 60.8024 132.746 61.0811 132.805 61.4826C132.864 61.8848 132.586 62.2581 132.184 62.3173L128.149 62.9081C128.113 62.9134 128.077 62.916 128.042 62.916Z" fill="#B8A2F3"/>
<path d="M115.868 57.0566C115.612 57.0566 115.372 56.9232 115.238 56.6998C115.084 56.4454 115.1 56.124 115.276 55.8848L119.971 49.5072L114.977 50.2387C114.573 50.2972 114.201 50.0198 114.143 49.6183C114.084 49.216 114.362 48.8427 114.764 48.7836L121.501 47.7965C121.796 47.7518 122.085 47.8911 122.238 48.1454C122.391 48.3998 122.376 48.7212 122.2 48.9597L117.505 55.3374L122.499 54.6059C122.901 54.5467 123.275 54.8247 123.333 55.2269C123.392 55.6285 123.114 56.0025 122.712 56.061L115.975 57.0488C115.939 57.054 115.903 57.0566 115.868 57.0566Z" fill="#B8A2F3"/>
<path d="M126.112 46.5176C125.839 46.5176 125.583 46.375 125.439 46.1364C125.276 45.865 125.292 45.5219 125.48 45.2669L132.423 35.8352L124.825 36.9485C124.395 37.0123 123.997 36.7145 123.934 36.286C123.871 35.8569 124.168 35.4579 124.597 35.3948L134.057 34.0088C134.371 33.9621 134.68 34.11 134.843 34.3814C135.007 34.6528 134.991 34.9959 134.803 35.2509L127.86 44.6826L135.457 43.5693C135.888 43.5069 136.285 43.8033 136.348 44.2324C136.411 44.6616 136.114 45.0599 135.685 45.123L126.226 46.509C126.188 46.5149 126.15 46.5176 126.112 46.5176Z" fill="#B8A2F3"/>
</svg>
