<?xml version="1.0" encoding="UTF-8"?>
<svg width="20px" height="22px" viewBox="0 0 20 22" version="1.1" xmlns="http://www.w3.org/2000/svg" xmlns:xlink="http://www.w3.org/1999/xlink">
    <!-- Generator: Sketch 49 (51002) - http://www.bohemiancoding.com/sketch -->
    <title>Group 3</title>
    <desc>Created with Sketch.</desc>
    <defs>
        <polygon id="path-1" points="0 0.0482531683 19.912375 0.0482531683 19.912375 21.8800208 0 21.8800208"></polygon>
    </defs>
    <g id="Page-1" stroke="none" stroke-width="1" fill="none" fill-rule="evenodd">
        <g id="System-Dashboard-Copy-5" transform="translate(-1412.000000, -184.000000)">
            <g id="Group-9" transform="translate(1399.000000, 168.000000)">
                <g id="Page-1-Copy" transform="translate(13.000000, 16.000000)">
                    <g id="Group-3">
                        <mask id="mask-2" fill="white">
                            <use xlink:href="#path-1"></use>
                        </mask>
                        <g id="Clip-2"></g>
                        <path d="M17.412375,15.5687656 C17.412375,17.6600035 15.724875,19.360709 13.649875,19.360709 L6.249875,19.360709 C4.174875,19.360709 2.499875,17.6600035 2.499875,15.5687656 L2.499875,10.0131276 C2.499875,9.32024763 3.049875,8.75334579 3.749875,8.75334579 L16.162375,8.75334579 C16.849875,8.75334579 17.412375,9.32024763 17.412375,10.0005298 L17.412375,15.5687656 Z M9.949875,2.56781688 C12.037375,2.56781688 13.737375,4.18033766 13.874875,6.23378208 L6.024875,6.23378208 C6.174875,4.18033766 7.874875,2.56781688 9.949875,2.56781688 Z M16.387375,6.2463799 C16.237375,2.79457761 13.412375,0.0482531683 9.949875,0.0482531683 C6.499875,0.0482531683 3.662375,2.79457761 3.512375,6.2463799 C1.549875,6.35976027 -0.000125,8.0100745 -0.000125,10.0131276 L-0.000125,15.5687656 C-0.000125,19.0457636 2.799875,21.8802727 6.249875,21.8802727 L13.649875,21.8802727 C17.099875,21.8802727 19.912375,19.0457636 19.912375,15.5687656 L19.912375,10.0005298 C19.912375,7.99747668 18.349875,6.35976027 16.387375,6.2463799 Z" id="Fill-1" fill="#FFFFFF" mask="url(#mask-2)"></path>
                    </g>
                </g>
            </g>
        </g>
    </g>
</svg>