<svg width="58" height="54" viewBox="0 0 58 54" fill="none" xmlns="http://www.w3.org/2000/svg">
<path d="M0 13C0 5.8203 5.8203 0 13 0H58V54H0V13Z" fill="black" fill-opacity="0.3"/>
<path d="M41.8511 16.9079V39.6333C41.8511 41.4896 40.3407 43 38.4843 43H23.1238C21.2674 43 19.757 41.4896 19.757 39.6333V24.8568C20.2373 24.9367 20.7272 24.9885 21.23 24.9885C21.5865 24.9885 21.9365 24.962 22.2821 24.9211V39.6333C22.2821 40.0973 22.6596 40.4749 23.1238 40.4749H38.4843C38.9484 40.4749 39.326 40.0972 39.326 39.6333V16.9079C39.326 16.4437 38.9483 16.0663 38.4843 16.0663H30.1523C30.1523 15.1884 30.0204 14.3424 29.784 13.5413H38.4843C40.3407 13.5412 41.8511 15.0515 41.8511 16.9079ZM21.0894 23.8807C16.7109 23.8807 13.1489 20.3188 13.1489 15.9405C13.149 11.562 16.7109 8 21.0894 8C25.4678 8 29.0299 11.562 29.0299 15.9405C29.0299 20.3188 25.4678 23.8807 21.0894 23.8807ZM21.0894 22.1974C24.5393 22.1974 27.3463 19.3908 27.3463 15.9405C27.3463 12.4899 24.5397 9.68339 21.0894 9.68339C17.6389 9.68339 14.8323 12.4899 14.8323 15.9405C14.8323 19.3908 17.6393 22.1974 21.0894 22.1974ZM25.8516 16.7822C26.3162 16.7822 26.6932 16.4051 26.6932 15.9405C26.6932 15.4759 26.3162 15.0989 25.8516 15.0989H21.931V11.7948C21.931 11.3302 21.554 10.9532 21.0894 10.9532C20.6248 10.9532 20.2477 11.3302 20.2477 11.7948V15.9405C20.2477 16.4051 20.6248 16.7822 21.0894 16.7822H25.8516ZM35.566 23.6065H26.4479C25.9833 23.6065 25.6062 23.9835 25.6062 24.4481C25.6062 24.9128 25.9833 25.2898 26.4479 25.2898H35.566C36.0308 25.2898 36.4077 24.9127 36.4077 24.4481C36.4078 23.9835 36.0308 23.6065 35.566 23.6065ZM35.5808 28.712H26.4627C25.9981 28.712 25.621 29.0888 25.621 29.5536C25.621 30.0184 25.9981 30.3953 26.4627 30.3953H35.5808C36.0456 30.3953 36.4224 30.0184 36.4224 29.5536C36.4224 29.0888 36.0461 28.712 35.5808 28.712ZM35.5808 34.0288H26.4627C25.9981 34.0288 25.621 34.4061 25.621 34.8705C25.621 35.3353 25.9981 35.7121 26.4627 35.7121H35.5808C36.0456 35.7121 36.4224 35.3352 36.4224 34.8705C36.4225 34.406 36.0461 34.0288 35.5808 34.0288Z" fill="white"/>
</svg>
