<svg width="23" height="23" viewBox="0 0 23 23" fill="none" xmlns="http://www.w3.org/2000/svg">
<path d="M22.6562 10.6849L18.2291 6.33765C18.12 6.2306 17.9906 6.14569 17.8482 6.08775C17.7058 6.02982 17.5531 6 17.399 6C17.2448 6 17.0921 6.02982 16.9497 6.08775C16.8073 6.14569 16.6779 6.2306 16.5689 6.33765C16.3487 6.55383 16.225 6.84703 16.225 7.15276C16.225 7.45848 16.3487 7.75168 16.5689 7.96786L18.992 10.3473H6.17391C5.86257 10.3473 5.56398 10.4687 5.34383 10.6849C5.12368 10.9011 5 11.1943 5 11.5C5 11.8057 5.12368 12.0989 5.34383 12.3151C5.56398 12.5313 5.86257 12.6527 6.17391 12.6527H18.992L16.5689 15.0321C16.3487 15.2483 16.225 15.5415 16.225 15.8473C16.225 16.153 16.3487 16.4462 16.5689 16.6624C16.789 16.8786 17.0876 17 17.399 17C17.7103 17 18.0089 16.8785 18.2291 16.6624L22.6562 12.3151C22.8763 12.0989 23 11.8057 23 11.5C23 11.1943 22.8763 10.9011 22.6562 10.6849Z" fill="white"/>
<path d="M13.8158 18.2414C13.5017 18.2414 13.2005 18.3667 12.9784 18.5898C12.7563 18.8129 12.6316 19.1155 12.6316 19.431V20.6207H2.36842V2.37931H12.6316V3.56897C12.6316 3.88448 12.7563 4.18708 12.9784 4.41018C13.2005 4.63328 13.5017 4.75862 13.8158 4.75862C14.1299 4.75862 14.4311 4.63328 14.6532 4.41018C14.8752 4.18708 15 3.88448 15 3.56897V1.98276C15 1.72238 14.9489 1.46455 14.8498 1.22399C14.7506 0.98343 14.6052 0.764853 14.4219 0.580737C14.2386 0.39662 14.0211 0.250571 13.7816 0.150929C13.5422 0.0512856 13.2855 0 13.0263 0H1.97368C1.45023 0 0.948216 0.208897 0.578079 0.580737C0.207941 0.952576 0 1.4569 0 1.98276V21.0172C0 21.5431 0.207941 22.0474 0.578079 22.4193C0.948216 22.7911 1.45023 23 1.97368 23H13.0263C13.2855 23 13.5422 22.9487 13.7816 22.8491C14.0211 22.7494 14.2386 22.6034 14.4219 22.4193C14.6052 22.2351 14.7506 22.0166 14.8498 21.776C14.9489 21.5355 15 21.2776 15 21.0172V19.431C15 19.1155 14.8752 18.8129 14.6532 18.5898C14.4311 18.3667 14.1299 18.2414 13.8158 18.2414Z" fill="white"/>
</svg>
