<?xml version="1.0" encoding="UTF-8"?>
<svg width="18px" height="18px" viewBox="0 0 18 18" version="1.1" xmlns="http://www.w3.org/2000/svg" xmlns:xlink="http://www.w3.org/1999/xlink">
    <!-- Generator: Sketch 49 (51002) - http://www.bohemiancoding.com/sketch -->
    <title>Page 1</title>
    <desc>Created with Sketch.</desc>
    <defs></defs>
    <g id="Page-1" stroke="none" stroke-width="1" fill="none" fill-rule="evenodd">
        <g id="System-Dashboard-Copy-5" transform="translate(-740.000000, -985.000000)" fill="#697882">
            <g id="Page-1" transform="translate(740.000000, 985.000000)">
                <g id="Group-11">
                    <path d="M11.8056706,16.8777529 C9.86802353,17.6083412 7.62331765,17.6083412 5.67508235,16.8777529 L7.55978824,12.9812824 C8.35390588,13.2036353 9.17978824,13.1930471 9.93155294,12.9812824 L11.8056706,16.8777529 Z" id="Fill-5"></path>
                    <path d="M17.4704824,8.69304706 C17.4704824,9.07422353 17.4493059,9.46598824 17.3963647,9.84716471 L13.1928353,8.88363529 L13.1928353,8.69304706 C13.1928353,7.95187059 13.0128353,7.23187059 12.6528353,6.5754 L16.0410706,3.88598824 C16.9834235,5.30481176 17.4704824,6.95657647 17.4704824,8.69304706" id="Fill-1"></path>
                    <path d="M17.0470588,11.4037412 C16.4011765,13.3943294 15.0352941,15.1096235 13.2352941,16.1790353 L11.3611765,12.2931529 C12.0070588,11.8166824 12.5258824,11.1708 12.8329412,10.4402118 L17.0470588,11.4037412 Z" id="Fill-3"></path>
                    <path d="M7.94107059,0.000211764706 L7.94107059,4.32021176 C7.14695294,4.45785882 6.41636471,4.81785882 5.81283529,5.34727059 L2.4246,2.64727059 C3.89636471,1.12256471 5.8446,0.1908 7.94107059,0.000211764706" id="Fill-8"></path>
                    <path d="M15.0354,2.64727059 L11.6577529,5.34727059 C11.0542235,4.81785882 10.3236353,4.45785882 9.52951765,4.32021176 L9.52951765,0.000211764706 C11.6365765,0.1908 13.5742235,1.12256471 15.0354,2.64727059" id="Fill-10"></path>
                    <path d="M4.27764706,8.70342353 C4.27764706,8.76695294 4.27764706,8.83048235 4.28823529,8.89401176 L0.0847058824,9.85754118 C0.0317647059,9.47636471 0,9.0846 0,8.70342353 C0,6.95636471 0.497647059,5.31518824 1.44,3.88577647 L4.81764706,6.58577647 C4.46823529,7.23165882 4.27764706,7.96224706 4.27764706,8.70342353" id="Fill-12"></path>
                    <path d="M6.12021176,12.2929412 L4.52138824,15.6176471 L4.24503529,16.1894118 C2.44609412,15.12 1.08021176,13.4047059 0.423741176,11.4141176 L4.63785882,10.44 C4.95550588,11.1811765 5.47432941,11.8270588 6.12021176,12.2929412" id="Fill-14"></path>
                </g>
            </g>
        </g>
    </g>
</svg>