<svg width="186" height="190" viewBox="0 0 186 190" fill="none" xmlns="http://www.w3.org/2000/svg">
<path d="M185.376 188.874H92.8379V97.498C92.8379 95.0307 96.9152 93.0306 101.945 93.0306H176.271C181.301 93.0306 185.376 95.0307 185.376 97.498V188.874Z" fill="url(#paint0_linear_5174_10444)" fill-opacity="0.84"/>
<path d="M127.54 188.874H46.5684V121.079C46.5684 118.365 50.6618 116.165 55.7109 116.165H118.396C123.446 116.165 127.54 118.365 127.54 121.079V188.874Z" fill="url(#paint1_linear_5174_10444)"/>
<path d="M119.311 141.632C119.441 141.11 118.783 140.761 118.425 141.162C114.967 145.045 105.581 154.941 96.8937 158.38C82.7495 163.978 68.6084 177.388 70.3582 188.775C70.3582 188.775 105.257 198.544 119.311 141.632Z" fill="#BDD0FB"/>
<path d="M115.331 147.639C115.244 147.791 115.166 147.897 115.087 148.022L114.843 148.379L114.349 149.089C114.017 149.557 113.676 150.022 113.336 150.485C112.651 151.41 111.956 152.327 111.252 153.238C109.839 155.055 108.374 156.83 106.884 158.584C105.397 160.341 103.857 162.053 102.279 163.73C100.7 165.406 99.0977 167.061 97.4411 168.662C94.1335 171.869 90.6382 174.89 86.9454 177.652C85.0815 179.01 83.1811 180.319 81.209 181.515C79.2259 182.693 77.1934 183.788 75.0864 184.72C75.0174 184.752 74.9366 184.72 74.906 184.651C74.8765 184.585 74.906 184.506 74.97 184.473C79.0503 182.387 82.8824 179.86 86.5032 177.065C88.3195 175.674 90.0841 174.216 91.8124 172.716C93.5417 171.216 95.2045 169.642 96.8671 168.066C100.179 164.901 103.31 161.549 106.366 158.132C107.889 156.419 109.377 154.673 110.837 152.903C111.568 152.021 112.293 151.131 113.006 150.234L114.065 148.877L114.589 148.196L114.847 147.852L115.084 147.521L115.105 147.493C115.148 147.433 115.233 147.419 115.293 147.461C115.35 147.502 115.365 147.58 115.331 147.639Z" fill="#DCE5FE"/>
<path d="M97.3398 131.45C97.326 131.009 96.7281 130.879 96.534 131.275C94.6575 135.119 89.422 145.039 83.3079 149.692C73.3528 157.268 65.1327 171.026 69.043 179.65C69.043 179.65 98.8366 179.627 97.3398 131.45Z" fill="#91B3FA"/>
<path d="M95.5446 137.094C95.5085 137.239 95.4719 137.338 95.4361 137.456L95.3244 137.793L95.0937 138.466C94.9365 138.912 94.7709 139.356 94.6061 139.8C94.2731 140.686 93.929 141.568 93.5769 142.447C92.8668 144.203 92.1027 145.935 91.3163 147.658C90.5337 149.382 89.6951 151.082 88.8183 152.761C87.9414 154.44 87.0402 156.108 86.0847 157.745C84.1779 161.023 82.0742 164.19 79.7584 167.197C78.5789 168.685 77.3602 170.142 76.0595 171.524C74.7435 172.893 73.3722 174.209 71.9024 175.407C71.8439 175.455 71.7576 175.447 71.7098 175.388C71.6642 175.332 71.6716 175.249 71.7235 175.201C74.4737 172.627 76.9369 169.773 79.1743 166.752C80.2997 165.246 81.372 163.701 82.4049 162.128C83.4397 160.559 84.4026 158.941 85.3712 157.327C87.2933 154.089 89.0254 150.742 90.6952 147.363C91.5253 145.67 92.3177 143.959 93.0863 142.238C93.4734 141.377 93.8526 140.514 94.2211 139.646L94.7637 138.34L95.0301 137.685L95.1595 137.357L95.275 137.047L95.2875 137.013C95.3136 136.943 95.3912 136.908 95.461 136.934C95.5259 136.958 95.5613 137.028 95.5446 137.094Z" fill="#DCE5FE"/>
<path d="M73.0077 188.874H0.298828V142.55C0.298828 139.842 4.56436 137.647 9.82638 137.647H63.4799C68.7419 137.647 73.0077 139.842 73.0077 142.55V188.874Z" fill="#3C3C3C"/>
<path d="M25.4514 139.082C25.4883 139.066 45.3919 104.174 48.0814 100.89C48.5341 100.338 49.2343 100.056 49.9428 100.141L55.4982 100.804L62.0245 114.938L51.1518 108.599C52.2277 116.048 38.26 127.118 33.4699 131.157C32.9837 131.567 32.9436 132.301 33.3828 132.761L35.2952 134.766C32.1554 137.951 28.5326 139.998 24.4434 140.943L25.4514 139.082Z" fill="url(#paint2_linear_5174_10444)"/>
<path d="M34.1944 133.683C34.1944 133.683 35.4151 134.078 35.8281 135.166C36.0259 135.687 35.8128 136.276 35.3606 136.601C33.3507 138.042 26.7212 142.695 23.662 143.606C23.4113 143.682 23.1727 143.455 23.2291 143.2C23.3861 142.487 23.8937 141.066 25.53 138.987L25.3831 139.283C25.1975 139.66 25.6066 140.052 25.9715 139.846C28.0178 138.689 32.1854 136.158 34.1944 133.683Z" fill="url(#paint3_linear_5174_10444)"/>
<path d="M33.2065 147.646C33.24 147.626 36.2261 140.423 36.2593 140.4C38.9974 123.713 45.6775 109.421 47.6475 105.66C47.9789 105.028 48.6079 104.611 49.3189 104.55L54.8933 104.073L64.1422 116.593L52.2128 112.588C54.7721 119.664 43.3316 133.335 39.4569 138.262C39.0636 138.762 39.1732 139.489 39.6962 139.85L41.974 141.426C39.5433 145.182 36.409 147.919 32.5957 149.675L33.2065 147.646Z" fill="url(#paint4_linear_5174_10444)"/>
<path d="M40.6741 140.589C40.6741 140.589 41.9494 140.729 42.574 141.709C42.8729 142.179 42.7833 142.801 42.406 143.21C40.7294 145.029 35.1778 150.928 32.3659 152.44C32.1354 152.567 31.856 152.392 31.8594 152.131C31.8695 151.401 32.0794 149.907 33.2612 147.539L33.1776 147.861C33.0717 148.264 33.5516 148.565 33.8675 148.29C35.6374 146.743 39.2072 143.421 40.6741 140.589Z" fill="url(#paint5_linear_5174_10444)"/>
<path d="M80.9837 101.436C80.9837 101.436 86.0266 108.945 86.4406 112.37C86.8543 115.795 85.0461 116.979 79.768 117.416C64.0611 118.716 56.3183 114.003 56.3183 114.003C55.2438 107.145 54.4794 105.4 45.5059 101.671C45.5059 101.671 56.8558 102.574 59.1401 101.686C61.4243 100.799 80.9837 101.436 80.9837 101.436Z" fill="url(#paint6_linear_5174_10444)"/>
<path d="M67.3499 100.441C67.3499 100.441 61.4777 94.8437 58.5869 91.1359C57.0245 89.1319 56.5337 86.4934 57.2562 84.0562C58.5762 79.605 60.9214 74.9951 61.1352 74.2776C61.4632 73.1778 68.0476 73.2235 68.0476 73.2235C68.0476 73.2235 81.0045 81.6419 86.0953 95.9017L80.3781 97.6836C80.3781 97.6836 76.995 92.0017 73.6523 88.3894C73.6523 88.3894 79.4363 96.0384 79.64 99.17L67.3499 100.441Z" fill="url(#paint7_linear_5174_10444)"/>
<path d="M60.3398 68.129C60.4086 68.3578 62.1272 74.0611 62.2617 74.1797C62.396 74.2981 66.0305 74.4936 67.7413 73.3231L64.2496 65.5906L60.3398 68.129Z" fill="url(#paint8_linear_5174_10444)"/>
<path d="M55.6126 61.7233C55.6126 61.7233 54.3889 64.5525 55.8265 68.854C57.264 73.1556 59.6134 73.5291 61.1011 72.4658C62.5891 71.4023 64.5181 69.5022 64.7579 65.6057C64.9978 61.7093 57.2979 58.1448 55.6126 61.7233Z" fill="url(#paint9_linear_5174_10444)"/>
<path d="M61.8557 65.3559C61.8557 65.3559 59.2595 59.5342 55.3658 63.1607L55.0653 64.6593C55.0653 64.6593 51.3573 63.6018 52.5759 60.238C53.7946 56.8742 58.2258 54.5932 62.1919 56.7725C66.1578 58.9528 67.506 61.5211 67.2928 64.5831C67.0797 67.6454 64.787 66.5975 64.787 66.5975C64.787 66.5975 64.346 64.3461 63.2687 63.9459C62.1917 63.546 62.2149 65.2502 62.2149 65.2502L61.8557 65.3559Z" fill="url(#paint10_linear_5174_10444)"/>
<path d="M62.4989 66.7024C62.4989 66.7024 61.1468 63.7177 63.0407 63.6099C64.9346 63.502 64.164 66.487 63.7866 67.5762L62.4989 66.7024Z" fill="url(#paint11_linear_5174_10444)"/>
<path d="M56.1602 102.651L60.5726 97.845L65.6685 99.2185C65.6685 99.2185 71.6097 100.14 75.0099 99.2185C78.4104 98.297 78.4104 98.297 78.4104 98.297L86.0942 95.9022L87.3009 99.3167C87.6074 100.184 87.2996 101.146 86.5508 101.679C85.8861 102.151 85.1068 102.671 84.6101 102.889C83.5982 103.332 61.2998 103.029 61.2998 103.029L56.1602 102.651Z" fill="url(#paint12_linear_5174_10444)"/>
<path d="M63.8255 58.925C62.7643 58.7956 62.3375 57.4831 63.0593 56.6936C65.3887 54.1451 69.7859 51.3182 76.0503 55.6572C83.107 60.5436 86.9251 62.7548 88.6586 62.2909C89.7971 61.9862 90.787 63.1132 90.2493 64.163C89.8516 64.9392 89.0425 65.7499 87.547 66.4885C76.0118 72.1865 70.0491 59.6834 63.8255 58.925Z" fill="url(#paint13_linear_5174_10444)"/>
<path d="M70.7673 104.552C70.7517 104.552 70.7361 104.553 70.7205 104.553L50.425 104.53C49.9233 104.53 49.5169 104.123 49.5176 103.62C49.518 103.118 49.9265 102.703 50.4271 102.712L70.7224 102.734C71.2241 102.734 71.6305 103.142 71.63 103.644C71.6293 104.131 71.247 104.528 70.7673 104.552Z" fill="url(#paint14_linear_5174_10444)"/>
<path d="M32.1792 86.1047H49.0814C50.3285 86.1047 51.4633 86.8249 51.9953 87.9539L59.809 104.541H38.8039C38.0005 104.541 37.2785 104.049 36.9833 103.302L30.9239 87.9527C30.5739 87.0656 31.2267 86.1047 32.1792 86.1047Z" fill="url(#paint15_linear_5174_10444)"/>
<path d="M44.0871 94.6076C44.4534 95.7469 44.1829 96.8531 43.4827 97.0786C42.7827 97.3044 41.9181 96.5637 41.5519 95.4245C41.1858 94.2852 41.4563 93.1788 42.1563 92.9533C42.8565 92.7277 43.7208 93.4684 44.0871 94.6076Z" fill="#91B3FA"/>
<path d="M110.578 52.0675C110.578 52.0675 112.414 48.8482 115.171 49.3072C117.928 49.7684 119.308 52.5287 119.308 52.5287C119.308 52.5287 116.551 53.9077 114.713 54.8278C112.874 55.7479 109.659 54.8278 110.578 52.0675Z" fill="url(#paint16_linear_5174_10444)"/>
<path d="M110.57 115.639C110.572 115.568 110.568 115.495 110.549 115.421C109.465 111.126 104.093 108.451 104.093 108.451L102.717 108.559C102.254 108.593 101.865 108.916 101.734 109.362C100.733 112.806 100.92 114.912 101.108 115.839C101.111 115.841 101.113 115.844 101.115 115.846C102.871 116.002 106.486 116.105 110.57 115.639Z" fill="url(#paint17_linear_5174_10444)"/>
<path d="M101.111 115.846C101.205 116.19 101.462 116.459 101.787 116.527C104.286 117.055 108.256 116.631 109.924 116.413C110.291 116.364 110.561 116.025 110.566 115.639C106.484 116.105 102.867 116.002 101.111 115.846Z" fill="url(#paint18_linear_5174_10444)"/>
<path d="M103.119 104.65L102.012 109.786C102.09 110.162 102.378 110.442 102.729 110.476C103.158 110.515 103.765 110.538 104.379 110.449C104.93 110.368 105.312 109.809 105.214 109.21L106.646 104.65H103.119Z" fill="url(#paint19_linear_5174_10444)"/>
<path d="M140.486 92.8781C138.382 92.8208 137.295 92.573 136.734 92.3412C136.732 92.5523 136.731 92.7634 136.738 92.986C136.748 93.2223 136.922 93.4082 137.135 93.4082L148.682 93.3325C149.051 93.3302 149.267 92.9034 149.106 92.5638C147.594 92.69 143.736 92.9699 140.486 92.8781Z" fill="url(#paint20_linear_5174_10444)"/>
<path d="M149.113 92.5669C149.115 92.5601 149.115 92.5623 149.118 92.5555C148.137 91.1558 145.54 88.2348 140.316 86.982L138.398 86.9224C138.052 86.9109 137.738 87.1174 137.605 87.4387C137.281 88.2349 136.752 89.9007 136.738 92.3444C137.3 92.5761 138.386 92.8239 140.49 92.8813C143.743 92.9731 147.598 92.6931 149.113 92.5669Z" fill="url(#paint21_linear_5174_10444)"/>
<path d="M138.909 83.4074C138.884 83.591 138.458 86.3719 138.29 87.4504C138.251 87.7051 138.377 87.9483 138.595 88.0378C138.985 88.2007 139.626 88.4278 140.232 88.4691C140.557 88.4921 140.862 88.2603 140.96 87.9139L142.141 83.6942L138.909 83.4074Z" fill="url(#paint22_linear_5174_10444)"/>
<path d="M115.142 54.741C115.142 54.741 112.387 58.8803 111.468 64.8599C110.622 70.3622 103.418 101.253 102.272 106.159C102.185 106.533 102.419 106.898 102.792 106.983C103.498 107.144 104.633 107.355 105.563 107.316C106.056 107.297 106.494 106.992 106.691 106.538L123.875 66.7001C123.875 66.7001 135.3 64.4974 139.497 69.4604C142.014 72.4387 140.359 77.684 138.12 85.0999C138.12 85.0999 140.875 86.4812 142.713 85.5611C142.713 85.5611 151.281 72.1565 147.769 63.9398C146.142 60.1377 139.124 56.3885 132.144 55.6611L115.142 54.741Z" fill="url(#paint23_linear_5174_10444)"/>
<path d="M115.139 54.7394L119.276 17.9374C119.276 17.9374 137.197 17.9374 148.685 24.3781L133.814 55.4277C133.017 57.0913 131.337 58.1605 129.491 58.1513C126.34 58.1375 121.089 57.5754 115.139 54.7394Z" fill="url(#paint24_linear_5174_10444)"/>
<path d="M163.62 14.4899C163.62 14.4899 162.472 26.2218 148.688 24.3816C148.688 24.3816 143.396 30.2235 143.283 35.3517C143.283 35.3517 168.445 41.8613 166.149 15.6417L163.62 14.4899Z" fill="url(#paint25_linear_5174_10444)"/>
<path d="M118.821 29.4418C118.821 29.4418 95.3867 40.0219 113.308 50.6019L113.696 52.8965C113.696 52.8965 99.4459 54.9684 98.8316 38.4111C98.3732 25.9931 119.281 17.9416 119.281 17.9416L118.821 29.4418Z" fill="url(#paint26_linear_5174_10444)"/>
<path d="M133.888 12.4158L130.51 19.6435C130.51 19.6435 134.271 22.4016 138.094 21.3231L139.08 11.062L133.888 12.4158Z" fill="url(#paint27_linear_5174_10444)"/>
<path d="M142.21 4.54949C142.279 4.67799 143.7 14.3379 143.7 14.3379L138.171 15.0332L135.467 6.07764C135.467 6.07764 141.046 2.3674 142.21 4.54949Z" fill="url(#paint28_linear_5174_10444)"/>
<path d="M137.498 6.98877C137.338 7.17921 137.276 7.43161 137.331 7.67253L138.369 12.4291C138.385 12.5025 138.41 12.5714 138.445 12.6356C138.639 12.9936 139.348 14.0834 140.443 13.2941C141.378 12.6218 142.247 12.0161 142.999 11.8991C143.439 11.8302 143.845 12.14 143.909 12.5805C144.039 13.4869 144.264 15.3225 144.234 16.9792C144.227 17.3968 143.9 17.7341 143.485 17.7593C142.389 17.8258 140.251 17.8901 138.484 17.5528C138.192 17.4977 137.959 17.2889 137.869 17.0067C137.477 15.7654 136.368 12.2914 135.903 11.3598C135.472 10.4925 134.191 10.3342 133.599 10.3067C133.375 10.2975 133.166 10.1942 133.022 10.0244C132.584 9.50816 131.905 8.3632 133.249 7.26642C133.581 6.99337 133.627 6.49545 133.361 6.15586C132.884 5.54551 132.474 4.56575 133.519 3.55616C134.576 2.5328 135.756 2.80583 136.501 3.16378C136.833 3.3221 137.244 3.26016 137.482 2.98252C137.59 2.85862 137.748 2.77601 137.977 2.80584C138.415 2.86091 138.807 2.57867 138.864 2.14271C138.963 1.3947 139.373 0.518204 140.698 0.279573C143.129 -0.158682 144.308 2.28727 144.241 3.9944C144.177 5.70153 141.514 6.02506 140.01 5.72218C138.905 5.49961 137.933 6.46102 137.498 6.98877Z" fill="url(#paint29_linear_5174_10444)"/>
<path d="M144.785 7.12886L182.922 1.14702L182.464 13.1084L144.785 9.88918V7.12886Z" fill="url(#paint30_linear_5174_10444)"/>
<path d="M181.612 0.729836C181.41 3.09779 181.61 10.5527 181.72 13.0079C181.74 13.453 182.105 13.8018 182.549 13.8018H183.196C183.7 13.8018 184.133 13.4346 184.216 12.9344C184.926 8.53582 185.288 4.39879 185.045 0.718364C185.018 0.312232 184.676 0.000157356 184.271 0.000157356H182.41C181.995 0.000157356 181.646 0.316821 181.612 0.729836Z" fill="url(#paint31_linear_5174_10444)"/>
<path d="M145.506 6.44074H144.378C144.2 6.44074 144.046 6.56694 144.007 6.74362C143.762 7.86106 143.945 9.54754 144.041 10.252C144.067 10.4401 144.225 10.5801 144.415 10.5801H145.13C145.323 10.5801 145.483 10.4355 145.506 10.2451L145.88 6.86063C145.905 6.63577 145.731 6.44074 145.506 6.44074Z" fill="url(#paint32_linear_5174_10444)"/>
<path d="M163.625 14.4886C163.625 14.4886 163.834 11.8269 164.189 11.547C164.544 11.2693 167.301 8.50901 167.762 8.50901C168.22 8.50901 168.681 9.42912 167.762 9.89032C166.843 10.3492 166.614 11.7558 166.614 11.7558L169.107 11.9669C169.107 11.9669 167.301 15.4087 166.382 15.8699C165.463 16.3288 163.625 14.4886 163.625 14.4886Z" fill="url(#paint33_linear_5174_10444)"/>
<path d="M136.305 13.1116C136.305 13.1116 136.293 10.1333 135.092 9.83729C133.891 9.54129 132.58 10.3949 133.587 12.1938C134.84 14.4287 136.305 13.1116 136.305 13.1116Z" fill="url(#paint34_linear_5174_10444)"/>
<defs>
<linearGradient id="paint0_linear_5174_10444" x1="226.341" y1="77.1631" x2="139.315" y2="348.061" gradientUnits="userSpaceOnUse">
<stop stop-color="#4E4E4E"/>
</linearGradient>
<linearGradient id="paint1_linear_5174_10444" x1="150.977" y1="101.774" x2="76.0054" y2="314.794" gradientUnits="userSpaceOnUse">
<stop stop-color="#636363"/>
<stop offset="1" stop-color="#0A0A0A"/>
</linearGradient>
<linearGradient id="paint2_linear_5174_10444" x1="41.8085" y1="134.754" x2="27.5683" y2="202.666" gradientUnits="userSpaceOnUse">
<stop stop-color="#FF928E"/>
<stop offset="1" stop-color="#FEB3B1"/>
</linearGradient>
<linearGradient id="paint3_linear_5174_10444" x1="24.7883" y1="127.778" x2="38.9491" y2="162.014" gradientUnits="userSpaceOnUse">
<stop stop-color="#4042E2"/>
<stop offset="1" stop-color="#4F52FF"/>
</linearGradient>
<linearGradient id="paint4_linear_5174_10444" x1="91.0287" y1="100.693" x2="28.1974" y2="133.678" gradientUnits="userSpaceOnUse">
<stop stop-color="#FF928E"/>
<stop offset="1" stop-color="#FEB3B1"/>
</linearGradient>
<linearGradient id="paint5_linear_5174_10444" x1="30.2692" y1="136.713" x2="51.0644" y2="167.362" gradientUnits="userSpaceOnUse">
<stop stop-color="#4042E2"/>
<stop offset="1" stop-color="#4F52FF"/>
</linearGradient>
<linearGradient id="paint6_linear_5174_10444" x1="70.1765" y1="118.977" x2="57.2852" y2="81.7253" gradientUnits="userSpaceOnUse">
<stop stop-color="#313131"/>
<stop offset="1" stop-color="#FF928E"/>
</linearGradient>
<linearGradient id="paint7_linear_5174_10444" x1="56.5383" y1="75.6098" x2="130.589" y2="146.961" gradientUnits="userSpaceOnUse">
<stop stop-color="#4042E2"/>
<stop offset="1" stop-color="#4F52FF"/>
</linearGradient>
<linearGradient id="paint8_linear_5174_10444" x1="63.1322" y1="66.9492" x2="66.118" y2="79.3382" gradientUnits="userSpaceOnUse">
<stop stop-color="#FF928E"/>
<stop offset="1" stop-color="#FEB3B1"/>
</linearGradient>
<linearGradient id="paint9_linear_5174_10444" x1="67.1276" y1="63.2244" x2="55.8168" y2="67.8049" gradientUnits="userSpaceOnUse">
<stop stop-color="#FF928E"/>
<stop offset="1" stop-color="#FEB3B1"/>
</linearGradient>
<linearGradient id="paint10_linear_5174_10444" x1="59.8939" y1="37.9601" x2="59.797" y2="71.3438" gradientUnits="userSpaceOnUse">
<stop stop-color="#09005D"/>
<stop offset="1" stop-color="#1A0F91"/>
</linearGradient>
<linearGradient id="paint11_linear_5174_10444" x1="66.7545" y1="64.1961" x2="55.4437" y2="68.7766" gradientUnits="userSpaceOnUse">
<stop stop-color="#FF928E"/>
<stop offset="1" stop-color="#FEB3B1"/>
</linearGradient>
<linearGradient id="paint12_linear_5174_10444" x1="79.4053" y1="39.8489" x2="72.9739" y2="91.7036" gradientUnits="userSpaceOnUse">
<stop stop-color="#FF928E"/>
<stop offset="1" stop-color="#FEB3B1"/>
</linearGradient>
<linearGradient id="paint13_linear_5174_10444" x1="78.5335" y1="38.7625" x2="75.2224" y2="75.1162" gradientUnits="userSpaceOnUse">
<stop stop-color="#09005D"/>
<stop offset="1" stop-color="#1A0F91"/>
</linearGradient>
<linearGradient id="paint14_linear_5174_10444" x1="74.2106" y1="99.1532" x2="58.096" y2="104.433" gradientUnits="userSpaceOnUse">
<stop stop-color="#09005D"/>
<stop offset="1" stop-color="#1A0F91"/>
</linearGradient>
<linearGradient id="paint15_linear_5174_10444" x1="52.0778" y1="88.5782" x2="40.4618" y2="100.842" gradientUnits="userSpaceOnUse">
<stop stop-color="#09005D"/>
<stop offset="1" stop-color="#1A0F91"/>
</linearGradient>
<linearGradient id="paint16_linear_5174_10444" x1="119.061" y1="47.9396" x2="100.43" y2="67.0098" gradientUnits="userSpaceOnUse">
<stop stop-color="#FF928E"/>
<stop offset="1" stop-color="#FEB3B1"/>
</linearGradient>
<linearGradient id="paint17_linear_5174_10444" x1="100.959" y1="112.214" x2="110.571" y2="112.214" gradientUnits="userSpaceOnUse">
<stop stop-color="#09005D"/>
<stop offset="1" stop-color="#1A0F91"/>
</linearGradient>
<linearGradient id="paint18_linear_5174_10444" x1="101.111" y1="116.211" x2="110.566" y2="116.211" gradientUnits="userSpaceOnUse">
<stop stop-color="#4042E2"/>
<stop offset="1" stop-color="#4F52FF"/>
</linearGradient>
<linearGradient id="paint19_linear_5174_10444" x1="105.223" y1="99.4051" x2="102.959" y2="119.141" gradientUnits="userSpaceOnUse">
<stop stop-color="#FF928E"/>
<stop offset="1" stop-color="#FEB3B1"/>
</linearGradient>
<linearGradient id="paint20_linear_5174_10444" x1="136.732" y1="92.8759" x2="149.159" y2="92.8759" gradientUnits="userSpaceOnUse">
<stop stop-color="#4042E2"/>
<stop offset="1" stop-color="#4F52FF"/>
</linearGradient>
<linearGradient id="paint21_linear_5174_10444" x1="136.738" y1="89.9099" x2="149.119" y2="89.9099" gradientUnits="userSpaceOnUse">
<stop stop-color="#09005D"/>
<stop offset="1" stop-color="#1A0F91"/>
</linearGradient>
<linearGradient id="paint22_linear_5174_10444" x1="141.323" y1="82.2601" x2="135.864" y2="95.6255" gradientUnits="userSpaceOnUse">
<stop stop-color="#FF928E"/>
<stop offset="1" stop-color="#FEB3B1"/>
</linearGradient>
<linearGradient id="paint23_linear_5174_10444" x1="102.254" y1="81.0317" x2="148.615" y2="81.0317" gradientUnits="userSpaceOnUse">
<stop stop-color="#09005D"/>
<stop offset="1" stop-color="#1A0F91"/>
</linearGradient>
<linearGradient id="paint24_linear_5174_10444" x1="152.859" y1="15.5465" x2="85.0222" y2="70.6755" gradientUnits="userSpaceOnUse">
<stop stop-color="#A27FFF"/>
<stop offset="1" stop-color="#6946C6"/>
</linearGradient>
<linearGradient id="paint25_linear_5174_10444" x1="159.981" y1="24.3105" x2="92.1442" y2="79.4397" gradientUnits="userSpaceOnUse">
<stop stop-color="#C2ADFA"/>
<stop offset="1" stop-color="#A399BE"/>
</linearGradient>
<linearGradient id="paint26_linear_5174_10444" x1="146.02" y1="9.83729" x2="82.387" y2="61.5506" gradientUnits="userSpaceOnUse">
<stop stop-color="#BCA3FF"/>
<stop offset="1" stop-color="#8F77CD"/>
</linearGradient>
<linearGradient id="paint27_linear_5174_10444" x1="140.812" y1="9.2929" x2="121.384" y2="39.7518" gradientUnits="userSpaceOnUse">
<stop stop-color="#FF928E"/>
<stop offset="1" stop-color="#FEB3B1"/>
</linearGradient>
<linearGradient id="paint28_linear_5174_10444" x1="141.811" y1="9.10414" x2="131.723" y2="13.2266" gradientUnits="userSpaceOnUse">
<stop stop-color="#FF928E"/>
<stop offset="1" stop-color="#FEB3B1"/>
</linearGradient>
<linearGradient id="paint29_linear_5174_10444" x1="134.436" y1="12.8123" x2="146.229" y2="6.51683" gradientUnits="userSpaceOnUse">
<stop stop-color="#09005D"/>
<stop offset="1" stop-color="#1A0F91"/>
</linearGradient>
<linearGradient id="paint30_linear_5174_10444" x1="144.785" y1="7.12886" x2="182.925" y2="7.12886" gradientUnits="userSpaceOnUse">
<stop stop-color="#BEA6FF"/>
<stop offset="1" stop-color="#886BD7"/>
</linearGradient>
<linearGradient id="paint31_linear_5174_10444" x1="192.194" y1="-3.04468" x2="163.212" y2="27.7441" gradientUnits="userSpaceOnUse">
<stop stop-color="#FE7062"/>
<stop offset="1" stop-color="#FF928E"/>
</linearGradient>
<linearGradient id="paint32_linear_5174_10444" x1="146.48" y1="5.96118" x2="137.276" y2="19.5222" gradientUnits="userSpaceOnUse">
<stop stop-color="#4042E2"/>
<stop offset="1" stop-color="#4F52FF"/>
</linearGradient>
<linearGradient id="paint33_linear_5174_10444" x1="163.625" y1="12.2262" x2="169.107" y2="12.2262" gradientUnits="userSpaceOnUse">
<stop stop-color="#FF928E"/>
<stop offset="1" stop-color="#FEB3B1"/>
</linearGradient>
<linearGradient id="paint34_linear_5174_10444" x1="131.37" y1="23.7215" x2="134.953" y2="11.3598" gradientUnits="userSpaceOnUse">
<stop stop-color="#FF928E"/>
<stop offset="1" stop-color="#FEB3B1"/>
</linearGradient>
</defs>
</svg>
