<svg width="185" height="174" viewBox="0 0 185 174" fill="none" xmlns="http://www.w3.org/2000/svg">
<path d="M0 173.018H92.5V124.282C92.5 122.966 88.4244 121.899 83.397 121.899H9.10188C4.07355 121.899 0 122.966 0 124.282V173.018Z" fill="url(#paint0_linear_5174_10749)" fill-opacity="0.84"/>
<path d="M58.074 172.955H138.846V101.768C138.846 98.9183 134.762 96.6081 129.726 96.6081H67.1947C62.1578 96.6081 58.074 98.9183 58.074 101.768V172.955Z" fill="url(#paint1_linear_5174_10749)"/>
<path d="M66.2787 123.349C66.1493 122.801 66.8056 122.434 67.1623 122.855C70.6122 126.933 79.9753 137.324 88.6408 140.935C102.75 146.813 116.856 160.894 115.111 172.851C115.111 172.851 80.2978 183.108 66.2787 123.349Z" fill="#BDD0FB"/>
<path d="M70.2489 129.657C70.336 129.816 70.4136 129.928 70.4926 130.059L70.7363 130.434L71.2291 131.179C71.56 131.671 71.9003 132.159 72.2393 132.645C72.9228 133.617 73.6157 134.579 74.3182 135.536C75.7273 137.444 77.1891 139.308 78.6754 141.15C80.1583 142.995 81.6951 144.793 83.2691 146.553C84.8436 148.313 86.4424 150.051 88.0949 151.732C91.3944 155.099 94.8811 158.271 98.5647 161.172C100.424 162.598 102.32 163.973 104.287 165.228C106.265 166.465 108.293 167.615 110.395 168.594C110.463 168.627 110.544 168.594 110.574 168.52C110.604 168.452 110.574 168.368 110.511 168.334C106.44 166.143 102.618 163.491 99.0058 160.555C97.194 159.095 95.4338 157.564 93.7098 155.989C91.9847 154.413 90.3261 152.761 88.6675 151.107C85.3642 147.782 82.2408 144.263 79.1924 140.675C77.6726 138.876 76.1889 137.043 74.7321 135.185C74.0024 134.258 73.2795 133.324 72.5688 132.381L71.5123 130.957L70.9895 130.242L70.7322 129.881L70.4953 129.534L70.4749 129.503C70.4313 129.44 70.3469 129.426 70.287 129.47C70.2298 129.513 70.2148 129.595 70.2489 129.657Z" fill="#DCE5FE"/>
<path d="M88.1953 112.657C88.209 112.193 88.8055 112.057 88.9991 112.473C90.8709 116.509 96.0936 126.926 102.193 131.811C112.123 139.766 120.323 154.213 116.422 163.269C116.422 163.269 86.7022 163.244 88.1953 112.657Z" fill="#91B3FA"/>
<path d="M89.9849 118.583C90.0209 118.735 90.0574 118.84 90.0931 118.963L90.2046 119.318L90.4347 120.024C90.5915 120.493 90.7567 120.959 90.9211 121.425C91.2533 122.355 91.5965 123.282 91.9478 124.204C92.6562 126.048 93.4183 127.867 94.2028 129.676C94.9834 131.487 95.82 133.271 96.6946 135.035C97.5694 136.798 98.4683 138.549 99.4215 140.268C101.324 143.71 103.422 147.035 105.732 150.193C106.909 151.756 108.125 153.285 109.422 154.737C110.735 156.174 112.103 157.556 113.569 158.814C113.627 158.864 113.713 158.856 113.761 158.794C113.806 158.735 113.799 158.648 113.747 158.597C111.004 155.895 108.547 152.898 106.315 149.725C105.192 148.144 104.123 146.522 103.092 144.871C102.06 143.222 101.099 141.524 100.133 139.829C98.2159 136.429 96.4881 132.914 94.8224 129.366C93.9943 127.589 93.2039 125.792 92.4371 123.985C92.051 123.081 91.6728 122.174 91.3052 121.263L90.7639 119.892L90.4981 119.204L90.3691 118.86L90.2539 118.535L90.2414 118.499C90.2154 118.425 90.1379 118.388 90.0683 118.415C90.0035 118.441 89.9683 118.514 89.9849 118.583Z" fill="#DCE5FE"/>
<path d="M112.47 172.955H185V124.313C185 121.47 180.745 119.165 175.496 119.165H121.975C116.726 119.165 112.47 121.47 112.47 124.313V172.955Z" fill="#3C3C3C"/>
<path d="M159.909 120.671C159.872 120.654 140.017 84.0155 137.334 80.5675C136.883 79.9875 136.184 79.6922 135.478 79.7808L129.936 80.4766L123.425 95.3185L134.271 88.6622C133.198 96.4839 147.131 108.108 151.91 112.349C152.395 112.779 152.435 113.55 151.997 114.034L150.089 116.138C153.221 119.483 156.835 121.632 160.914 122.625L159.909 120.671Z" fill="url(#paint2_linear_5174_10749)"/>
<path d="M151.188 115.003C151.188 115.003 149.97 115.418 149.558 116.56C149.361 117.107 149.574 117.726 150.025 118.067C152.03 119.58 158.643 124.466 161.695 125.423C161.945 125.502 162.183 125.264 162.126 124.996C161.97 124.247 161.463 122.756 159.831 120.573L159.978 120.884C160.163 121.279 159.755 121.691 159.391 121.474C157.349 120.26 153.192 117.602 151.188 115.003Z" fill="url(#paint3_linear_5174_10749)"/>
<path d="M152.174 129.665C152.141 129.643 149.162 122.08 149.129 122.056C146.397 104.534 139.734 89.5269 137.768 85.578C137.438 84.9137 136.81 84.4757 136.101 84.4119L130.541 83.9114L121.314 97.0578L133.214 92.8523C130.661 100.283 142.074 114.638 145.939 119.811C146.331 120.336 146.222 121.1 145.7 121.478L143.428 123.133C145.853 127.077 148.979 129.952 152.783 131.795L152.174 129.665Z" fill="url(#paint4_linear_5174_10749)"/>
<path d="M144.725 122.254C144.725 122.254 143.452 122.401 142.829 123.43C142.531 123.924 142.621 124.576 142.997 125.005C144.669 126.916 150.207 133.11 153.012 134.698C153.242 134.831 153.521 134.648 153.518 134.373C153.507 133.607 153.298 132.038 152.119 129.552L152.203 129.889C152.308 130.313 151.83 130.629 151.514 130.34C149.749 128.716 146.188 125.227 144.725 122.254Z" fill="url(#paint5_linear_5174_10749)"/>
<path d="M104.514 81.1414C104.514 81.1414 99.4834 89.026 99.0705 92.6224C98.6578 96.2188 100.461 97.4625 105.727 97.921C121.395 99.2861 129.118 94.3376 129.118 94.3376C130.19 87.1366 130.953 85.3045 139.904 81.3889C139.904 81.3889 128.582 82.3362 126.304 81.4045C124.025 80.4728 104.514 81.1414 104.514 81.1414Z" fill="url(#paint6_linear_5174_10749)"/>
<path d="M118.115 80.0977C118.115 80.0977 123.973 74.2198 126.857 70.3266C128.415 68.2222 128.905 65.4518 128.184 62.8925C126.867 58.2187 124.528 53.3781 124.315 52.6247C123.987 51.4699 117.419 51.5178 117.419 51.5178C117.419 51.5178 104.494 60.3574 99.416 75.3308L105.119 77.2019C105.119 77.2019 108.494 71.2356 111.828 67.4426C111.828 67.4426 106.059 75.4744 105.855 78.7626L118.115 80.0977Z" fill="url(#paint7_linear_5174_10749)"/>
<path d="M125.105 46.1684C125.037 46.4086 123.323 52.3973 123.188 52.5218C123.054 52.6462 119.429 52.8514 117.722 51.6224L121.205 43.5029L125.105 46.1684Z" fill="url(#paint8_linear_5174_10749)"/>
<path d="M129.822 39.4419C129.822 39.4419 131.043 42.4126 129.609 46.9294C128.175 51.4462 125.831 51.8385 124.347 50.722C122.863 49.6052 120.939 47.6101 120.699 43.5185C120.46 39.4272 128.141 35.6843 129.822 39.4419Z" fill="url(#paint9_linear_5174_10749)"/>
<path d="M123.596 43.2568C123.596 43.2568 126.185 37.1438 130.069 40.9518L130.369 42.5254C130.369 42.5254 134.068 41.4149 132.852 37.8828C131.637 34.3507 127.216 31.9555 123.26 34.2439C119.304 36.5333 117.959 39.2301 118.172 42.4454C118.384 45.6609 120.671 44.5605 120.671 44.5605C120.671 44.5605 121.111 42.1965 122.186 41.7763C123.26 41.3563 123.237 43.1458 123.237 43.1458L123.596 43.2568Z" fill="url(#paint10_linear_5174_10749)"/>
<path d="M122.953 44.6704C122.953 44.6704 124.302 41.5363 122.413 41.4231C120.524 41.3099 121.292 44.4442 121.669 45.5879L122.953 44.6704Z" fill="url(#paint11_linear_5174_10749)"/>
<path d="M129.277 82.4169L124.876 77.3705L119.792 78.8128C119.792 78.8128 113.866 79.7804 110.474 78.8128C107.082 77.8452 107.082 77.8452 107.082 77.8452L99.4171 75.3306L98.2133 78.9159C97.9076 79.8261 98.2147 80.8366 98.9616 81.3961C99.6247 81.8924 100.402 82.4384 100.898 82.6665C101.907 83.132 124.15 82.8137 124.15 82.8137L129.277 82.4169Z" fill="url(#paint12_linear_5174_10749)"/>
<path d="M121.63 36.5036C122.689 36.3677 123.115 34.9896 122.395 34.1605C120.071 31.4845 115.685 28.5161 109.436 33.0722C102.396 38.2031 98.5877 40.525 96.8585 40.0379C95.7228 39.7179 94.7354 40.9014 95.2717 42.0036C95.6684 42.8187 96.4755 43.6699 97.9674 44.4455C109.474 50.4286 115.422 37.2999 121.63 36.5036Z" fill="url(#paint13_linear_5174_10749)"/>
<path d="M114.705 84.4129C114.721 84.4138 114.736 84.4141 114.752 84.4141L134.997 84.3907C135.498 84.3902 135.903 83.9623 135.902 83.4347C135.902 82.9072 135.494 82.4714 134.995 82.4808L114.75 82.5042C114.249 82.5047 113.844 82.9325 113.844 83.4602C113.845 83.971 114.226 84.3878 114.705 84.4129Z" fill="url(#paint14_linear_5174_10749)"/>
<path d="M153.199 65.0435H136.339C135.095 65.0435 133.963 65.7998 133.432 66.9852L125.637 84.4023H146.591C147.392 84.4023 148.112 83.886 148.407 83.1008L154.451 66.984C154.8 66.0525 154.149 65.0435 153.199 65.0435Z" fill="url(#paint15_linear_5174_10749)"/>
<path d="M141.32 73.9712C140.955 75.1675 141.224 76.329 141.923 76.5659C142.621 76.8029 143.484 76.0252 143.849 74.8289C144.214 73.6327 143.944 72.4709 143.246 72.2341C142.548 71.9972 141.685 72.775 141.32 73.9712Z" fill="#91B3FA"/>
<path d="M44.0158 54.6211C44.0158 54.6211 45.8346 51.2408 48.5663 51.7226C51.298 52.2069 52.665 55.1054 52.665 55.1054C52.665 55.1054 49.9333 56.5534 48.1122 57.5195C46.291 58.4857 43.1052 57.5195 44.0158 54.6211Z" fill="url(#paint16_linear_5174_10749)"/>
<path d="M44.008 121.374C44.0103 121.3 44.0057 121.223 43.9875 121.146C42.9135 116.635 37.5909 113.826 37.5909 113.826L36.2284 113.939C35.7697 113.975 35.3837 114.315 35.2543 114.782C34.262 118.399 34.4481 120.611 34.6343 121.584C34.6366 121.586 34.6389 121.589 34.6412 121.591C36.3806 121.755 39.9615 121.864 44.008 121.374Z" fill="url(#paint17_linear_5174_10749)"/>
<path d="M34.6387 121.591C34.7318 121.952 34.9861 122.234 35.3085 122.307C37.7836 122.861 41.7165 122.415 43.3696 122.186C43.733 122.136 44.0009 121.779 44.0054 121.374C39.9613 121.863 36.3781 121.755 34.6387 121.591Z" fill="url(#paint18_linear_5174_10749)"/>
<path d="M36.6261 109.836L35.5293 115.228C35.6065 115.623 35.8926 115.917 36.24 115.953C36.6647 115.994 37.2664 116.018 37.875 115.924C38.42 115.84 38.7992 115.252 38.7015 114.623L40.1208 109.836H36.6261Z" fill="url(#paint19_linear_5174_10749)"/>
<path d="M73.6482 97.4756C71.5637 97.4154 70.4874 97.1552 69.9311 96.9119C69.9288 97.1335 69.9288 97.3552 69.9356 97.5889C69.9447 97.8371 70.1173 98.0322 70.3284 98.0322L81.7684 97.9527C82.134 97.9503 82.3475 97.5022 82.1885 97.1456C80.6898 97.2781 76.8682 97.572 73.6482 97.4756Z" fill="url(#paint20_linear_5174_10749)"/>
<path d="M82.1913 97.148C82.1936 97.1407 82.1936 97.1431 82.1959 97.1359C81.224 95.6662 78.6513 92.5991 73.4762 91.2836L71.5756 91.221C71.2328 91.2089 70.9217 91.4258 70.79 91.7631C70.4698 92.5991 69.9453 94.3483 69.9316 96.9142C70.488 97.1576 71.5643 97.4178 73.6488 97.478C76.871 97.5744 80.6904 97.2805 82.1913 97.148Z" fill="url(#paint21_linear_5174_10749)"/>
<path d="M72.0849 87.531C72.0599 87.7237 71.6376 90.6439 71.4718 91.7763C71.4332 92.0437 71.5581 92.2991 71.7738 92.3931C72.1598 92.5641 72.7956 92.8026 73.3951 92.846C73.7175 92.8701 74.0196 92.6268 74.1172 92.2629L75.2866 87.8322L72.0849 87.531Z" fill="url(#paint22_linear_5174_10749)"/>
<path d="M48.5378 57.4274C48.5378 57.4274 45.8083 61.7739 44.8978 68.0527C44.0599 73.8303 36.9229 106.267 35.7876 111.418C35.7013 111.811 35.9329 112.194 36.303 112.283C37.0024 112.452 38.1264 112.674 39.0483 112.633C39.5366 112.613 39.9703 112.293 40.1656 111.816L57.1893 69.9849C57.1893 69.9849 68.5089 67.672 72.6666 72.8834C75.1599 76.0107 73.5204 81.5185 71.3019 89.3055C71.3019 89.3055 74.0313 90.7559 75.8525 89.7897C75.8525 89.7897 84.3405 75.7144 80.8617 67.0865C79.2495 63.0942 72.2965 59.1573 65.3821 58.3936L48.5378 57.4274Z" fill="url(#paint23_linear_5174_10749)"/>
<path d="M48.5332 57.427L52.6319 18.7836C52.6319 18.7836 70.3868 18.7836 81.7677 25.5466L67.0352 58.1498C66.245 59.8966 64.5805 61.0193 62.7525 61.0097C59.6303 60.9952 54.428 60.405 48.5332 57.427Z" fill="url(#paint24_linear_5174_10749)"/>
<path d="M52.1816 30.8636C52.1816 30.8636 28.9655 41.9731 46.7204 53.0826L47.1042 55.4919C47.1042 55.4919 32.987 57.6675 32.3785 40.2817C31.9243 27.2423 52.638 18.788 52.638 18.788L52.1816 30.8636Z" fill="url(#paint25_linear_5174_10749)"/>
<path d="M67.1068 12.9868L63.7598 20.5763C63.7598 20.5763 67.486 23.4723 71.2736 22.3399L72.25 11.5653L67.1068 12.9868Z" fill="url(#paint26_linear_5174_10749)"/>
<path d="M75.3543 4.72608C75.4224 4.86101 76.8303 15.0043 76.8303 15.0043L71.3533 15.7344L68.6738 6.3307C68.6738 6.3307 74.2008 2.4348 75.3543 4.72608Z" fill="url(#paint27_linear_5174_10749)"/>
<path d="M70.6855 7.28701C70.5265 7.48699 70.4652 7.75201 70.5197 8.00499L71.5483 12.9996C71.5642 13.0767 71.5892 13.149 71.6233 13.2164C71.8163 13.5923 72.5179 14.7367 73.6034 13.9079C74.5298 13.2019 75.3904 12.5659 76.1352 12.443C76.5712 12.3707 76.9731 12.696 77.0367 13.1586C77.1661 14.1103 77.3887 16.0378 77.3591 17.7773C77.3523 18.2158 77.0276 18.57 76.6166 18.5965C75.5312 18.6664 73.4126 18.7338 71.6619 18.3796C71.3735 18.3218 71.1419 18.1026 71.0533 17.8062C70.665 16.5028 69.566 12.855 69.1051 11.8768C68.6782 10.9661 67.4088 10.7999 66.823 10.7709C66.6005 10.7613 66.3938 10.6529 66.2508 10.4746C65.817 9.93247 65.1449 8.73022 66.4756 7.57856C66.8048 7.29185 66.8502 6.76901 66.5868 6.41243C66.1145 5.77154 65.7081 4.74275 66.7435 3.68264C67.7903 2.60808 68.9597 2.89477 69.6977 3.27063C70.027 3.43688 70.4334 3.37184 70.6696 3.08031C70.7763 2.9502 70.933 2.86346 71.1601 2.89478C71.5938 2.95261 71.9821 2.65625 72.0388 2.19847C72.1365 1.41303 72.5429 0.492678 73.8554 0.242105C76.2647 -0.218079 77.4318 2.35027 77.3659 4.14282C77.3024 5.93537 74.6638 6.27508 73.1742 5.95705C72.0797 5.72334 71.1169 6.73286 70.6855 7.28701Z" fill="url(#paint28_linear_5174_10749)"/>
<path d="M5.17773 119.257L28.7036 115.346L28.4209 123.167L5.17773 121.062V119.257Z" fill="url(#paint29_linear_5174_10749)"/>
<path d="M27.8952 115.073C27.7708 116.622 27.8938 121.496 27.9616 123.101C27.9744 123.392 28.1992 123.62 28.4735 123.62H28.8722C29.1832 123.62 29.4505 123.38 29.5014 123.053C29.9397 120.177 30.1631 117.472 30.0132 115.066C29.9962 114.8 29.7856 114.596 29.5353 114.596H28.3872C28.1313 114.596 27.9164 114.803 27.8952 115.073Z" fill="url(#paint30_linear_5174_10749)"/>
<path d="M5.6232 118.807H4.92755C4.81726 118.807 4.72254 118.89 4.69851 119.005C4.54722 119.736 4.66033 120.839 4.71971 121.299C4.73527 121.422 4.83282 121.514 4.95018 121.514H5.39133C5.51009 121.514 5.60906 121.419 5.6232 121.295L5.85367 119.082C5.86922 118.935 5.76176 118.807 5.6232 118.807Z" fill="url(#paint31_linear_5174_10749)"/>
<path d="M80.1177 51.0396C80.1177 51.0396 86.0726 45.8831 77.9641 34.1252C77.9641 34.1252 78.504 27.3095 81.3072 25.4061C81.3072 25.4061 97.8662 45.7619 82.0591 52.9099L80.1177 51.0396Z" fill="url(#paint32_linear_5174_10749)"/>
<path d="M80.12 51.0455C80.12 51.0455 78.7423 52.1686 78.7687 52.5867C78.7963 53.0039 78.673 56.4553 78.9097 56.8699C79.1452 57.2824 79.8952 57.3737 79.6803 56.3845C79.4641 55.3961 80.1311 54.6955 80.1311 54.6955L81.53 56.8654C81.53 56.8654 82.5222 54.0305 82.3072 53.0413C82.0911 52.0529 80.12 51.0455 80.12 51.0455Z" fill="url(#paint33_linear_5174_10749)"/>
<path d="M69.5049 13.7163C69.5049 13.7163 69.4935 10.589 68.3037 10.2782C67.1138 9.96738 65.815 10.8637 66.8118 12.7526C68.0539 15.0993 69.5049 13.7163 69.5049 13.7163Z" fill="url(#paint34_linear_5174_10749)"/>
<defs>
<linearGradient id="paint0_linear_5174_10749" x1="-40.9472" y1="113.436" x2="-14.4052" y2="268.282" gradientUnits="userSpaceOnUse">
<stop stop-color="#4E4E4E"/>
</linearGradient>
<linearGradient id="paint1_linear_5174_10749" x1="34.6942" y1="81.4969" x2="116.586" y2="302.543" gradientUnits="userSpaceOnUse">
<stop stop-color="#636363"/>
<stop offset="1" stop-color="#0A0A0A"/>
</linearGradient>
<linearGradient id="paint2_linear_5174_10749" x1="143.592" y1="116.126" x2="159.26" y2="187.113" gradientUnits="userSpaceOnUse">
<stop stop-color="#FF928E"/>
<stop offset="1" stop-color="#FEB3B1"/>
</linearGradient>
<linearGradient id="paint3_linear_5174_10749" x1="160.571" y1="108.803" x2="145.162" y2="144.193" gradientUnits="userSpaceOnUse">
<stop stop-color="#4042E2"/>
<stop offset="1" stop-color="#4F52FF"/>
</linearGradient>
<linearGradient id="paint4_linear_5174_10749" x1="94.4942" y1="80.3622" x2="158.519" y2="112.293" gradientUnits="userSpaceOnUse">
<stop stop-color="#FF928E"/>
<stop offset="1" stop-color="#FEB3B1"/>
</linearGradient>
<linearGradient id="paint5_linear_5174_10749" x1="155.104" y1="118.184" x2="132.876" y2="149.307" gradientUnits="userSpaceOnUse">
<stop stop-color="#4042E2"/>
<stop offset="1" stop-color="#4F52FF"/>
</linearGradient>
<linearGradient id="paint6_linear_5174_10749" x1="115.294" y1="99.5608" x2="129.38" y2="60.8914" gradientUnits="userSpaceOnUse">
<stop stop-color="#313131"/>
<stop offset="1" stop-color="#FF928E"/>
</linearGradient>
<linearGradient id="paint7_linear_5174_10749" x1="128.9" y1="54.0235" x2="51.3942" y2="124.971" gradientUnits="userSpaceOnUse">
<stop stop-color="#4042E2"/>
<stop offset="1" stop-color="#4F52FF"/>
</linearGradient>
<linearGradient id="paint8_linear_5174_10749" x1="122.32" y1="44.9295" x2="119.039" y2="57.8617" gradientUnits="userSpaceOnUse">
<stop stop-color="#FF928E"/>
<stop offset="1" stop-color="#FEB3B1"/>
</linearGradient>
<linearGradient id="paint9_linear_5174_10749" x1="118.336" y1="41.0181" x2="129.776" y2="45.4193" gradientUnits="userSpaceOnUse">
<stop stop-color="#FF928E"/>
<stop offset="1" stop-color="#FEB3B1"/>
</linearGradient>
<linearGradient id="paint10_linear_5174_10749" x1="125.552" y1="14.4902" x2="125.66" y2="49.5442" gradientUnits="userSpaceOnUse">
<stop stop-color="#09005D"/>
<stop offset="1" stop-color="#1A0F91"/>
</linearGradient>
<linearGradient id="paint11_linear_5174_10749" x1="118.708" y1="42.0387" x2="130.148" y2="46.4399" gradientUnits="userSpaceOnUse">
<stop stop-color="#FF928E"/>
<stop offset="1" stop-color="#FEB3B1"/>
</linearGradient>
<linearGradient id="paint12_linear_5174_10749" x1="106.089" y1="16.4725" x2="113.187" y2="70.8329" gradientUnits="userSpaceOnUse">
<stop stop-color="#FF928E"/>
<stop offset="1" stop-color="#FEB3B1"/>
</linearGradient>
<linearGradient id="paint13_linear_5174_10749" x1="106.959" y1="15.3322" x2="110.615" y2="53.471" gradientUnits="userSpaceOnUse">
<stop stop-color="#09005D"/>
<stop offset="1" stop-color="#1A0F91"/>
</linearGradient>
<linearGradient id="paint14_linear_5174_10749" x1="111.27" y1="78.7444" x2="127.498" y2="83.7953" gradientUnits="userSpaceOnUse">
<stop stop-color="#09005D"/>
<stop offset="1" stop-color="#1A0F91"/>
</linearGradient>
<linearGradient id="paint15_linear_5174_10749" x1="133.35" y1="67.6408" x2="145.565" y2="79.8925" gradientUnits="userSpaceOnUse">
<stop stop-color="#09005D"/>
<stop offset="1" stop-color="#1A0F91"/>
</linearGradient>
<linearGradient id="paint16_linear_5174_10749" x1="52.4198" y1="50.2867" x2="32.8631" y2="69.1733" gradientUnits="userSpaceOnUse">
<stop stop-color="#FF928E"/>
<stop offset="1" stop-color="#FEB3B1"/>
</linearGradient>
<linearGradient id="paint17_linear_5174_10749" x1="34.4868" y1="117.777" x2="44.0091" y2="117.777" gradientUnits="userSpaceOnUse">
<stop stop-color="#09005D"/>
<stop offset="1" stop-color="#1A0F91"/>
</linearGradient>
<linearGradient id="paint18_linear_5174_10749" x1="34.6387" y1="121.974" x2="44.0059" y2="121.974" gradientUnits="userSpaceOnUse">
<stop stop-color="#4042E2"/>
<stop offset="1" stop-color="#4F52FF"/>
</linearGradient>
<linearGradient id="paint19_linear_5174_10749" x1="38.7106" y1="104.328" x2="36.1952" y2="125.018" gradientUnits="userSpaceOnUse">
<stop stop-color="#FF928E"/>
<stop offset="1" stop-color="#FEB3B1"/>
</linearGradient>
<linearGradient id="paint20_linear_5174_10749" x1="69.9288" y1="97.4733" x2="82.241" y2="97.4733" gradientUnits="userSpaceOnUse">
<stop stop-color="#4042E2"/>
<stop offset="1" stop-color="#4F52FF"/>
</linearGradient>
<linearGradient id="paint21_linear_5174_10749" x1="69.9316" y1="94.3579" x2="82.1973" y2="94.3579" gradientUnits="userSpaceOnUse">
<stop stop-color="#09005D"/>
<stop offset="1" stop-color="#1A0F91"/>
</linearGradient>
<linearGradient id="paint22_linear_5174_10749" x1="74.476" y1="86.3263" x2="68.506" y2="100.117" gradientUnits="userSpaceOnUse">
<stop stop-color="#FF928E"/>
<stop offset="1" stop-color="#FEB3B1"/>
</linearGradient>
<linearGradient id="paint23_linear_5174_10749" x1="35.7694" y1="85.0337" x2="81.6994" y2="85.0337" gradientUnits="userSpaceOnUse">
<stop stop-color="#09005D"/>
<stop offset="1" stop-color="#1A0F91"/>
</linearGradient>
<linearGradient id="paint24_linear_5174_10749" x1="85.9027" y1="16.273" x2="15.6271" y2="70.1572" gradientUnits="userSpaceOnUse">
<stop stop-color="#A27FFF"/>
<stop offset="1" stop-color="#6946C6"/>
</linearGradient>
<linearGradient id="paint25_linear_5174_10749" x1="79.1284" y1="10.2782" x2="13.2072" y2="60.8238" gradientUnits="userSpaceOnUse">
<stop stop-color="#BCA3FF"/>
<stop offset="1" stop-color="#8F77CD"/>
</linearGradient>
<linearGradient id="paint26_linear_5174_10749" x1="73.9667" y1="9.70772" x2="53.0889" y2="40.5889" gradientUnits="userSpaceOnUse">
<stop stop-color="#FF928E"/>
<stop offset="1" stop-color="#FEB3B1"/>
</linearGradient>
<linearGradient id="paint27_linear_5174_10749" x1="74.9592" y1="9.50863" x2="64.8053" y2="13.4235" gradientUnits="userSpaceOnUse">
<stop stop-color="#FF928E"/>
<stop offset="1" stop-color="#FEB3B1"/>
</linearGradient>
<linearGradient id="paint28_linear_5174_10749" x1="67.6518" y1="13.4019" x2="79.6268" y2="7.37051" gradientUnits="userSpaceOnUse">
<stop stop-color="#09005D"/>
<stop offset="1" stop-color="#1A0F91"/>
</linearGradient>
<linearGradient id="paint29_linear_5174_10749" x1="5.17773" y1="119.257" x2="28.705" y2="119.257" gradientUnits="userSpaceOnUse">
<stop stop-color="#BEA6FF"/>
<stop offset="1" stop-color="#886BD7"/>
</linearGradient>
<linearGradient id="paint30_linear_5174_10749" x1="34.4231" y1="112.606" x2="15.4392" y2="131.633" gradientUnits="userSpaceOnUse">
<stop stop-color="#FE7062"/>
<stop offset="1" stop-color="#FF928E"/>
</linearGradient>
<linearGradient id="paint31_linear_5174_10749" x1="6.22411" y1="118.494" x2="0.0848766" y2="127.028" gradientUnits="userSpaceOnUse">
<stop stop-color="#4042E2"/>
<stop offset="1" stop-color="#4F52FF"/>
</linearGradient>
<linearGradient id="paint32_linear_5174_10749" x1="83.7263" y1="44.3128" x2="110.383" y2="-24.1309" gradientUnits="userSpaceOnUse">
<stop stop-color="#C2ADFA"/>
<stop offset="1" stop-color="#A399BE"/>
</linearGradient>
<linearGradient id="paint33_linear_5174_10749" x1="78.8579" y1="51.8406" x2="81.8827" y2="56.6421" gradientUnits="userSpaceOnUse">
<stop stop-color="#FF928E"/>
<stop offset="1" stop-color="#FEB3B1"/>
</linearGradient>
<linearGradient id="paint34_linear_5174_10749" x1="64.616" y1="24.8572" x2="68.5652" y2="11.9998" gradientUnits="userSpaceOnUse">
<stop stop-color="#FF928E"/>
<stop offset="1" stop-color="#FEB3B1"/>
</linearGradient>
</defs>
</svg>
