<?xml version="1.0" encoding="UTF-8"?>
<svg width="40px" height="40px" viewBox="0 0 40 40" version="1.1" xmlns="http://www.w3.org/2000/svg" xmlns:xlink="http://www.w3.org/1999/xlink">
    <!-- Generator: Sketch 49.2 (51160) - http://www.bohemiancoding.com/sketch -->
    <title>Notifications</title>
    <desc>Created with Sketch.</desc>
    <defs></defs>
    <g id="Page-1" stroke="none" stroke-width="1" fill="none" fill-rule="evenodd">
        <g id="App-Upload---Hover-Menu" transform="translate(-1388.000000, -11.000000)">
            <g id="Notifications" transform="translate(1388.000000, 11.000000)">
                <rect id="Rectangle-11" fill="#2D373C" x="0" y="0" width="40" height="40" rx="5"></rect>
                <g id="Asset-18" transform="translate(9.000000, 9.000000)" fill="#697882" fill-rule="nonzero">
                    <path d="M21.3327465,11.2540545 L21.3327465,15.2466354 C21.3327465,18.9217046 18.3330619,21.9009369 14.6327633,21.9009369 L6.6999832,21.9009369 C2.99968466,21.9009369 4.53155877e-16,18.9217046 0,15.2466354 L0,7.314708 C-4.53155877e-16,3.63963876 2.99968466,0.660406495 6.6999832,0.660406495 L10.7199731,0.660406495 C11.4600328,0.660406495 12.0599698,1.25625295 12.0599698,1.9912668 C12.0577084,2.55504241 11.6980248,3.05623252 11.162172,3.24227548 C11.0212902,3.29680355 10.8711642,3.32391308 10.7199731,3.3221271 L6.6999832,3.3221271 C4.47980408,3.3221271 2.67999328,5.10966645 2.67999328,7.314708 L2.67999328,15.2067096 C2.67999328,17.4117511 4.47980408,19.1992905 6.6999832,19.1992905 L14.6327633,19.1992905 C16.8529424,19.1992905 18.6527532,17.4117511 18.6527532,15.2067096 L18.6527532,11.2141287 C18.6656503,11.0802725 18.7019257,10.9496706 18.759953,10.8281792 C18.9427114,10.2907277 19.4483963,9.92740725 20.0195498,9.92319418 C20.4112467,9.92316859 20.7833443,10.093361 21.0379473,10.3889953 C21.2358722,10.6337875 21.3402906,10.940193 21.3327465,11.2540545 Z" id="Combined-Shape"></path>
                </g>
                <circle id="Oval-2" fill="#00A3A3" cx="27.5" cy="12.5" r="4.5"></circle>
            </g>
        </g>
    </g>
</svg>