<?xml version="1.0" encoding="UTF-8"?>
<svg width="339px" height="715px" viewBox="0 0 339 715" version="1.1" xmlns="http://www.w3.org/2000/svg" xmlns:xlink="http://www.w3.org/1999/xlink">
    <!-- Generator: Sketch 49.2 (51160) - http://www.bohemiancoding.com/sketch -->
    <title>Group 4</title>
    <desc>Created with Sketch.</desc>
    <defs>
        <linearGradient x1="50%" y1="0%" x2="50%" y2="100%" id="linearGradient-1">
            <stop stop-color="#00D0D0" offset="0%"></stop>
            <stop stop-color="#00A3A3" offset="100%"></stop>
        </linearGradient>
        <linearGradient x1="0%" y1="50%" x2="100%" y2="50%" id="linearGradient-2">
            <stop stop-color="#50BEBE" offset="0%"></stop>
            <stop stop-color="#0099CB" offset="100%"></stop>
        </linearGradient>
        <linearGradient x1="0%" y1="0%" x2="100%" y2="100%" id="linearGradient-3">
            <stop stop-color="#2AF598" offset="0%"></stop>
            <stop stop-color="#66CB85" offset="100%"></stop>
        </linearGradient>
        <linearGradient x1="100%" y1="100%" x2="0%" y2="0%" id="linearGradient-4">
            <stop stop-color="#EC4A5C" offset="0%"></stop>
            <stop stop-color="#FF2525" offset="100%"></stop>
        </linearGradient>
        <polygon id="path-5" points="0 0 13 0 13 13 0 13"></polygon>
    </defs>
    <g id="Page-1" stroke="none" stroke-width="1" fill="none" fill-rule="evenodd">
        <g id="Side-Bar" transform="translate(-1101.000000, -87.000000)">
            <g id="Group-4" transform="translate(1076.000000, 85.000000)">
                <g id="Progress-Circle" transform="translate(30.000000, 63.000000)">
                    <path d="M30.3743687,5.62563133 C37.2085438,12.4598064 37.2085438,23.5401936 30.3743687,30.3743687 C23.5401936,37.2085438 12.4598064,37.2085438 5.62563133,30.3743687 C-1.20854378,23.5401936 -1.20854378,12.4598064 5.62563133,5.62563133 C12.4598064,-1.20854378 23.5401936,-1.20854378 30.3743687,5.62563133 M27.5459415,8.45405845 C32.8180195,13.7261364 32.8180195,22.2738636 27.5459415,27.5459415 C22.2738636,32.8180195 13.7261364,32.8180195 8.45405845,27.5459415 C3.18198052,22.2738636 3.18198052,13.7261364 8.45405845,8.45405845 C13.7261364,3.18198052 22.2738636,3.18198052 27.5459415,8.45405845" id="Background" fill="#081E26"></path>
                    <path d="M18,0.5 C25.5814596,0.5 32.3006892,5.38180606 34.643489,12.5922026 L30.839263,13.8282706 C29.0319602,8.26596468 23.8485545,4.5 18,4.5 L18,0.5 Z" id="Progress" fill="url(#linearGradient-1)"></path>
                </g>
                <text id="SuperDuperApp-has-Pa" font-family="HelveticaNeue-Medium, Helvetica Neue" font-size="14" font-weight="400" fill="#FFFFFF">
                    <tspan x="84" y="250">SuperDuperApp has Passed</tspan>
                </text>
                <text id="Scan-Completed" font-family="HelveticaNeue-Medium, Helvetica Neue" font-size="14" font-weight="400" fill="#FFFFFF">
                    <tspan x="84" y="594">Scan Completed</tspan>
                </text>
                <text id="Scanning-in-Progress-Copy" font-family="HelveticaNeue-Medium, Helvetica Neue" font-size="14" font-weight="400" fill="#FFFFFF">
                    <tspan x="84" y="77">Scanning in Progress</tspan>
                </text>
                <text id="SuperApp-has-Failed" font-family="HelveticaNeue-Medium, Helvetica Neue" font-size="14" font-weight="400" fill="#FFFFFF">
                    <tspan x="84" y="509">SuperApp has Failed</tspan>
                </text>
                <text id="SuperApp-Submitted" font-family="HelveticaNeue-Medium, Helvetica Neue" font-size="14" font-weight="400" fill="#FFFFFF">
                    <tspan x="84" y="681">SuperApp Submitted</tspan>
                </text>
                <text id="ReallyCoolApp-Submit" font-family="HelveticaNeue-Medium, Helvetica Neue" font-size="14" font-weight="400" fill="#FFFFFF">
                    <tspan x="84" y="165">ReallyCoolApp Submitted</tspan>
                </text>
                <text id="Your-App-is-being-su" font-family="HelveticaNeue-Light, Helvetica Neue" font-size="13" font-weight="300" fill="#FFFFFF">
                    <tspan x="84" y="269">Your App is being submitted to </tspan>
                    <tspan x="84" y="285">MindSphere.</tspan>
                </text>
                <text id="SuperApp-has-finishe" font-family="HelveticaNeue-Light, Helvetica Neue" font-size="13" font-weight="300" fill="#FFFFFF">
                    <tspan x="84" y="613">SuperApp has finished </tspan>
                    <tspan x="84" y="629">scanning.</tspan>
                </text>
                <text id="ReallyCoolApp-is-cur" font-family="HelveticaNeue-Light, Helvetica Neue" font-size="13" font-weight="300" fill="#FFFFFF">
                    <tspan x="84" y="96">ReallyCoolApp is currenlty being </tspan>
                    <tspan x="84" y="112">scanned </tspan>
                    <tspan x="135.532" y="112" font-family="HelveticaNeue-Bold, Helvetica Neue" font-weight="bold">30%</tspan>
                    <tspan x="162.988" y="112"> </tspan>
                </text>
                <text id="SuperApp-has-Failed." font-family="HelveticaNeue-Light, Helvetica Neue" font-size="13" font-weight="300" fill="#FFFFFF">
                    <tspan x="84" y="528">SuperApp has Failed. Please </tspan>
                    <tspan x="84" y="544">review here. </tspan>
                </text>
                <text id="SuperApp-successfull" font-family="HelveticaNeue-Light, Helvetica Neue" font-size="13" font-weight="300" fill="#FFFFFF">
                    <tspan x="84" y="700">SuperApp successfully </tspan>
                    <tspan x="84" y="716">submitted.</tspan>
                </text>
                <text id="ReallyCoolApp-succes" font-family="HelveticaNeue-Light, Helvetica Neue" font-size="13" font-weight="300" fill="#FFFFFF">
                    <tspan x="84" y="184">ReallyCoolApp successfully </tspan>
                    <tspan x="84" y="200">submitted</tspan>
                </text>
                <path d="M84.4590164,305.5 L363.540984,305.5" id="Line-2-Copy-4" stroke="#081E26" stroke-linecap="square"></path>
                <path d="M84.4590164,649.5 L363.540984,649.5" id="Line-2-Copy-8" stroke="#081E26" stroke-linecap="square"></path>
                <path d="M84.4590164,390.5 L363.540984,390.5" id="Line-2-Copy-5" stroke="#081E26" stroke-linecap="square"></path>
                <path d="M84.4590164,133.5 L363.540984,133.5" id="Line-2-Copy" stroke="#081E26" stroke-linecap="square"></path>
                <path d="M84.4590164,477.5 L363.540984,477.5" id="Line-2-Copy-6" stroke="#081E26" stroke-linecap="square"></path>
                <path d="M84.4590164,218.5 L363.540984,218.5" id="Line-2-Copy-3" stroke="#081E26" stroke-linecap="square"></path>
                <path d="M84.4590164,562.5 L363.540984,562.5" id="Line-2-Copy-7" stroke="#081E26" stroke-linecap="square"></path>
                <rect id="Rectangle-13-Copy-4" fill="url(#linearGradient-2)" x="29" y="670" width="35" height="35" rx="10"></rect>
                <g id="Asset-17-Copy-4" transform="translate(35.000000, 676.000000)" fill="#FFFFFF" fill-rule="nonzero">
                    <path d="M17.5066964,14.5226054 C17.5115939,15.957285 16.4445353,17.1546702 15.0561782,17.2724207 C13.6678211,17.3901712 12.4249372,16.3886989 12.2018742,14.9725225 C11.9788112,13.5563461 12.8505639,12.2015902 14.203869,11.8613027 L14.203869,9.25287356 C13.8429563,9.0925672 13.5552082,8.79621977 13.3995536,8.42452107 L10.8497024,8.42452107 C10.5251371,9.78347052 9.26647309,10.6789109 7.91749504,10.5105557 C6.56851698,10.3422006 5.55395698,9.16305737 5.55395698,7.76360153 C5.55395698,6.36414569 6.56851698,5.18500248 7.91749504,5.01664734 C9.26647309,4.8482922 10.5251371,5.74373254 10.8497024,7.10268199 L13.3995536,7.10268199 C13.6501961,6.51502742 14.2138313,6.13495157 14.8370536,6.13333333 C15.7093847,6.1332814 16.4191915,6.85644044 16.4285714,7.75478927 C16.4015901,8.39290795 16.0414932,8.96605276 15.4873512,9.25287356 L15.4873512,11.8613027 C16.6725556,12.167866 17.5043378,13.2640749 17.5066964,14.5226054 Z M8.265625,3.27816092 C7.38665396,3.27816092 6.67410714,2.5443196 6.67410714,1.63908046 C6.67410714,0.733841318 7.38665396,0 8.265625,0 C9.14459604,0 9.85714286,0.733841318 9.85714286,1.63908046 C9.85714286,2.5443196 9.14459604,3.27816092 8.265625,3.27816092 Z M21.4084821,9.41149425 C20.5295111,9.41149425 19.8169643,8.67765293 19.8169643,7.77241379 C19.8169643,6.86717465 20.5295111,6.13333333 21.4084821,6.13333333 C22.2874532,6.13333333 23,6.86717465 23,7.77241379 C23,8.67765293 22.2874532,9.41149425 21.4084821,9.41149425 Z M14.8370536,3.27816092 C13.9580825,3.27816092 13.2455357,2.5443196 13.2455357,1.63908046 C13.2455357,0.733841318 13.9580825,0 14.8370536,0 C15.7160246,0 16.4285714,0.733841318 16.4285714,1.63908046 C16.4285714,2.5443196 15.7160246,3.27816092 14.8370536,3.27816092 Z M21.4084821,16.1793103 C20.5295111,16.1793103 19.8169643,15.445469 19.8169643,14.5402299 C19.8169643,13.6349907 20.5295111,12.9011494 21.4084821,12.9011494 C22.2874532,12.9011494 23,13.6349907 23,14.5402299 C23,15.445469 22.2874532,16.1793103 21.4084821,16.1793103 Z M1.59151786,16.1793103 C0.712546816,16.1793103 0,15.445469 0,14.5402299 C0,13.6349907 0.712546816,12.9011494 1.59151786,12.9011494 C2.4704889,12.9011494 3.18303571,13.6349907 3.18303571,14.5402299 C3.18303571,15.445469 2.4704889,16.1793103 1.59151786,16.1793103 Z M8.21428571,16.1793103 C7.33531467,16.1793103 6.62276786,15.445469 6.62276786,14.5402299 C6.62276786,13.6349907 7.33531467,12.9011494 8.21428571,12.9011494 C9.09325676,12.9011494 9.80580357,13.6349907 9.80580357,14.5402299 C9.80580357,15.445469 9.09325676,16.1793103 8.21428571,16.1793103 Z M1.59151786,9.34099617 C0.712546816,9.34099617 0,8.60715485 0,7.70191571 C0,6.79667657 0.712546816,6.06283525 1.59151786,6.06283525 C2.4704889,6.06283525 3.18303571,6.79667657 3.18303571,7.70191571 C3.18303571,8.60715485 2.4704889,9.34099617 1.59151786,9.34099617 Z M14.8370536,23 C13.9580825,23 13.2455357,22.2661587 13.2455357,21.3609195 C13.2455357,20.4556804 13.9580825,19.7218391 14.8370536,19.7218391 C15.7160246,19.7218391 16.4285714,20.4556804 16.4285714,21.3609195 C16.4285714,22.2661587 15.7160246,23 14.8370536,23 Z M8.21428571,23 C7.33531467,23 6.62276786,22.2661587 6.62276786,21.3609195 C6.62276786,20.4556804 7.33531467,19.7218391 8.21428571,19.7218391 C9.09325676,19.7218391 9.80580357,20.4556804 9.80580357,21.3609195 C9.80580357,22.2661587 9.09325676,23 8.21428571,23 Z" id="Combined-Shape"></path>
                </g>
                <g id="Group-3" transform="translate(29.000000, 154.000000)">
                    <rect id="Rectangle-13-Copy" fill="url(#linearGradient-2)" x="0" y="0" width="35" height="35" rx="10"></rect>
                    <g id="Asset-17-Copy" transform="translate(6.000000, 6.000000)" fill="#FFFFFF" fill-rule="nonzero">
                        <path d="M17.5066964,14.5226054 C17.5115939,15.957285 16.4445353,17.1546702 15.0561782,17.2724207 C13.6678211,17.3901712 12.4249372,16.3886989 12.2018742,14.9725225 C11.9788112,13.5563461 12.8505639,12.2015902 14.203869,11.8613027 L14.203869,9.25287356 C13.8429563,9.0925672 13.5552082,8.79621977 13.3995536,8.42452107 L10.8497024,8.42452107 C10.5251371,9.78347052 9.26647309,10.6789109 7.91749504,10.5105557 C6.56851698,10.3422006 5.55395698,9.16305737 5.55395698,7.76360153 C5.55395698,6.36414569 6.56851698,5.18500248 7.91749504,5.01664734 C9.26647309,4.8482922 10.5251371,5.74373254 10.8497024,7.10268199 L13.3995536,7.10268199 C13.6501961,6.51502742 14.2138313,6.13495157 14.8370536,6.13333333 C15.7093847,6.1332814 16.4191915,6.85644044 16.4285714,7.75478927 C16.4015901,8.39290795 16.0414932,8.96605276 15.4873512,9.25287356 L15.4873512,11.8613027 C16.6725556,12.167866 17.5043378,13.2640749 17.5066964,14.5226054 Z M8.265625,3.27816092 C7.38665396,3.27816092 6.67410714,2.5443196 6.67410714,1.63908046 C6.67410714,0.733841318 7.38665396,0 8.265625,0 C9.14459604,0 9.85714286,0.733841318 9.85714286,1.63908046 C9.85714286,2.5443196 9.14459604,3.27816092 8.265625,3.27816092 Z M21.4084821,9.41149425 C20.5295111,9.41149425 19.8169643,8.67765293 19.8169643,7.77241379 C19.8169643,6.86717465 20.5295111,6.13333333 21.4084821,6.13333333 C22.2874532,6.13333333 23,6.86717465 23,7.77241379 C23,8.67765293 22.2874532,9.41149425 21.4084821,9.41149425 Z M14.8370536,3.27816092 C13.9580825,3.27816092 13.2455357,2.5443196 13.2455357,1.63908046 C13.2455357,0.733841318 13.9580825,0 14.8370536,0 C15.7160246,0 16.4285714,0.733841318 16.4285714,1.63908046 C16.4285714,2.5443196 15.7160246,3.27816092 14.8370536,3.27816092 Z M21.4084821,16.1793103 C20.5295111,16.1793103 19.8169643,15.445469 19.8169643,14.5402299 C19.8169643,13.6349907 20.5295111,12.9011494 21.4084821,12.9011494 C22.2874532,12.9011494 23,13.6349907 23,14.5402299 C23,15.445469 22.2874532,16.1793103 21.4084821,16.1793103 Z M1.59151786,16.1793103 C0.712546816,16.1793103 0,15.445469 0,14.5402299 C0,13.6349907 0.712546816,12.9011494 1.59151786,12.9011494 C2.4704889,12.9011494 3.18303571,13.6349907 3.18303571,14.5402299 C3.18303571,15.445469 2.4704889,16.1793103 1.59151786,16.1793103 Z M8.21428571,16.1793103 C7.33531467,16.1793103 6.62276786,15.445469 6.62276786,14.5402299 C6.62276786,13.6349907 7.33531467,12.9011494 8.21428571,12.9011494 C9.09325676,12.9011494 9.80580357,13.6349907 9.80580357,14.5402299 C9.80580357,15.445469 9.09325676,16.1793103 8.21428571,16.1793103 Z M1.59151786,9.34099617 C0.712546816,9.34099617 0,8.60715485 0,7.70191571 C0,6.79667657 0.712546816,6.06283525 1.59151786,6.06283525 C2.4704889,6.06283525 3.18303571,6.79667657 3.18303571,7.70191571 C3.18303571,8.60715485 2.4704889,9.34099617 1.59151786,9.34099617 Z M14.8370536,23 C13.9580825,23 13.2455357,22.2661587 13.2455357,21.3609195 C13.2455357,20.4556804 13.9580825,19.7218391 14.8370536,19.7218391 C15.7160246,19.7218391 16.4285714,20.4556804 16.4285714,21.3609195 C16.4285714,22.2661587 15.7160246,23 14.8370536,23 Z M8.21428571,23 C7.33531467,23 6.62276786,22.2661587 6.62276786,21.3609195 C6.62276786,20.4556804 7.33531467,19.7218391 8.21428571,19.7218391 C9.09325676,19.7218391 9.80580357,20.4556804 9.80580357,21.3609195 C9.80580357,22.2661587 9.09325676,23 8.21428571,23 Z" id="Combined-Shape"></path>
                    </g>
                </g>
                <text id="ALL" font-family="HelveticaNeue-Medium, Helvetica Neue" font-size="12" font-weight="400" fill="#697882">
                    <tspan x="310.22" y="12">ALL</tspan>
                </text>
                <text id="LAST-10-DAYS" font-family="HelveticaNeue-Medium, Helvetica Neue" font-size="12" font-weight="400" fill="#697882">
                    <tspan x="24.98" y="12">LAST 10 DAYS</tspan>
                </text>
                <text id="8d" font-family="HelveticaNeue-Medium, Helvetica Neue" font-size="12" font-weight="400" fill="#697882">
                    <tspan x="334.996" y="675">8d</tspan>
                </text>
                <text id="4d" font-family="HelveticaNeue-Medium, Helvetica Neue" font-size="12" font-weight="400" fill="#697882">
                    <tspan x="334.996" y="592">4d</tspan>
                </text>
                <text id="4d" font-family="HelveticaNeue-Medium, Helvetica Neue" font-size="12" font-weight="400" fill="#697882">
                    <tspan x="334.996" y="509">4d</tspan>
                </text>
                <text id="4d" font-family="HelveticaNeue-Medium, Helvetica Neue" font-size="12" font-weight="400" fill="#697882">
                    <tspan x="334.996" y="425">4d</tspan>
                </text>
                <text id="2d" font-family="HelveticaNeue-Medium, Helvetica Neue" font-size="12" font-weight="400" fill="#697882">
                    <tspan x="334.996" y="338">2d</tspan>
                </text>
                <text id="2d-copy" font-family="HelveticaNeue-Medium, Helvetica Neue" font-size="12" font-weight="400" fill="#697882">
                    <tspan x="334.996" y="250">2d</tspan>
                </text>
                <text id="2-hr" font-family="HelveticaNeue-Medium, Helvetica Neue" font-size="12" font-weight="400" fill="#697882">
                    <tspan x="327.88" y="166">2 hr</tspan>
                </text>
                <text id="Now" font-family="HelveticaNeue-Medium, Helvetica Neue" font-size="12" font-weight="400" fill="#697882">
                    <tspan x="323.884" y="78">Now</tspan>
                </text>
                <text id="Scan-Completed" font-family="HelveticaNeue-Medium, Helvetica Neue" font-size="14" font-weight="400" fill="#FFFFFF">
                    <tspan x="84" y="337">Scan Completed</tspan>
                </text>
                <text id="SuperDuperApp-Submit" font-family="HelveticaNeue-Medium, Helvetica Neue" font-size="14" font-weight="400" fill="#FFFFFF">
                    <tspan x="84" y="424">SuperDuperApp Submitted</tspan>
                </text>
                <text id="SuperDuperApp-has-fi" font-family="HelveticaNeue-Light, Helvetica Neue" font-size="13" font-weight="300" fill="#FFFFFF">
                    <tspan x="84" y="356">SuperDuperApp has finished </tspan>
                    <tspan x="84" y="372">scanning.</tspan>
                </text>
                <text id="SuperDuperApp-succes" font-family="HelveticaNeue-Light, Helvetica Neue" font-size="13" font-weight="300" fill="#FFFFFF">
                    <tspan x="84" y="443">SuperDuperApp successfully </tspan>
                    <tspan x="84" y="459">submitted.</tspan>
                </text>
                <rect id="Rectangle-13-Copy-3" fill="url(#linearGradient-2)" x="29" y="413" width="35" height="35" rx="10"></rect>
                <g id="Asset-17-Copy-3" transform="translate(35.000000, 419.000000)" fill="#FFFFFF" fill-rule="nonzero">
                    <path d="M17.5066964,14.5226054 C17.5115939,15.957285 16.4445353,17.1546702 15.0561782,17.2724207 C13.6678211,17.3901712 12.4249372,16.3886989 12.2018742,14.9725225 C11.9788112,13.5563461 12.8505639,12.2015902 14.203869,11.8613027 L14.203869,9.25287356 C13.8429563,9.0925672 13.5552082,8.79621977 13.3995536,8.42452107 L10.8497024,8.42452107 C10.5251371,9.78347052 9.26647309,10.6789109 7.91749504,10.5105557 C6.56851698,10.3422006 5.55395698,9.16305737 5.55395698,7.76360153 C5.55395698,6.36414569 6.56851698,5.18500248 7.91749504,5.01664734 C9.26647309,4.8482922 10.5251371,5.74373254 10.8497024,7.10268199 L13.3995536,7.10268199 C13.6501961,6.51502742 14.2138313,6.13495157 14.8370536,6.13333333 C15.7093847,6.1332814 16.4191915,6.85644044 16.4285714,7.75478927 C16.4015901,8.39290795 16.0414932,8.96605276 15.4873512,9.25287356 L15.4873512,11.8613027 C16.6725556,12.167866 17.5043378,13.2640749 17.5066964,14.5226054 Z M8.265625,3.27816092 C7.38665396,3.27816092 6.67410714,2.5443196 6.67410714,1.63908046 C6.67410714,0.733841318 7.38665396,0 8.265625,0 C9.14459604,0 9.85714286,0.733841318 9.85714286,1.63908046 C9.85714286,2.5443196 9.14459604,3.27816092 8.265625,3.27816092 Z M21.4084821,9.41149425 C20.5295111,9.41149425 19.8169643,8.67765293 19.8169643,7.77241379 C19.8169643,6.86717465 20.5295111,6.13333333 21.4084821,6.13333333 C22.2874532,6.13333333 23,6.86717465 23,7.77241379 C23,8.67765293 22.2874532,9.41149425 21.4084821,9.41149425 Z M14.8370536,3.27816092 C13.9580825,3.27816092 13.2455357,2.5443196 13.2455357,1.63908046 C13.2455357,0.733841318 13.9580825,0 14.8370536,0 C15.7160246,0 16.4285714,0.733841318 16.4285714,1.63908046 C16.4285714,2.5443196 15.7160246,3.27816092 14.8370536,3.27816092 Z M21.4084821,16.1793103 C20.5295111,16.1793103 19.8169643,15.445469 19.8169643,14.5402299 C19.8169643,13.6349907 20.5295111,12.9011494 21.4084821,12.9011494 C22.2874532,12.9011494 23,13.6349907 23,14.5402299 C23,15.445469 22.2874532,16.1793103 21.4084821,16.1793103 Z M1.59151786,16.1793103 C0.712546816,16.1793103 0,15.445469 0,14.5402299 C0,13.6349907 0.712546816,12.9011494 1.59151786,12.9011494 C2.4704889,12.9011494 3.18303571,13.6349907 3.18303571,14.5402299 C3.18303571,15.445469 2.4704889,16.1793103 1.59151786,16.1793103 Z M8.21428571,16.1793103 C7.33531467,16.1793103 6.62276786,15.445469 6.62276786,14.5402299 C6.62276786,13.6349907 7.33531467,12.9011494 8.21428571,12.9011494 C9.09325676,12.9011494 9.80580357,13.6349907 9.80580357,14.5402299 C9.80580357,15.445469 9.09325676,16.1793103 8.21428571,16.1793103 Z M1.59151786,9.34099617 C0.712546816,9.34099617 0,8.60715485 0,7.70191571 C0,6.79667657 0.712546816,6.06283525 1.59151786,6.06283525 C2.4704889,6.06283525 3.18303571,6.79667657 3.18303571,7.70191571 C3.18303571,8.60715485 2.4704889,9.34099617 1.59151786,9.34099617 Z M14.8370536,23 C13.9580825,23 13.2455357,22.2661587 13.2455357,21.3609195 C13.2455357,20.4556804 13.9580825,19.7218391 14.8370536,19.7218391 C15.7160246,19.7218391 16.4285714,20.4556804 16.4285714,21.3609195 C16.4285714,22.2661587 15.7160246,23 14.8370536,23 Z M8.21428571,23 C7.33531467,23 6.62276786,22.2661587 6.62276786,21.3609195 C6.62276786,20.4556804 7.33531467,19.7218391 8.21428571,19.7218391 C9.09325676,19.7218391 9.80580357,20.4556804 9.80580357,21.3609195 C9.80580357,22.2661587 9.09325676,23 8.21428571,23 Z" id="Combined-Shape"></path>
                </g>
                <polygon id="Triangle-3" fill="#697882" transform="translate(341.500000, 7.500000) rotate(180.000000) translate(-341.500000, -7.500000) " points="341.5 4 347 11 336 11"></polygon>
                <polygon id="Triangle-3-Copy" fill="#697882" transform="translate(116.500000, 7.500000) rotate(180.000000) translate(-116.500000, -7.500000) " points="116.5 4 122 11 111 11"></polygon>
                <g id="Progress-Circle-Copy-2" transform="translate(30.000000, 580.000000)">
                    <path d="M30.3743687,5.62563133 C37.2085438,12.4598064 37.2085438,23.5401936 30.3743687,30.3743687 C23.5401936,37.2085438 12.4598064,37.2085438 5.62563133,30.3743687 C-1.20854378,23.5401936 -1.20854378,12.4598064 5.62563133,5.62563133 C12.4598064,-1.20854378 23.5401936,-1.20854378 30.3743687,5.62563133 M27.5459415,8.45405845 C32.8180195,13.7261364 32.8180195,22.2738636 27.5459415,27.5459415 C22.2738636,32.8180195 13.7261364,32.8180195 8.45405845,27.5459415 C3.18198052,22.2738636 3.18198052,13.7261364 8.45405845,8.45405845 C13.7261364,3.18198052 22.2738636,3.18198052 27.5459415,8.45405845" id="Background" fill="#BFBFBF"></path>
                    <path d="M18,0.5 C27.6649831,0.5 35.5,8.33501688 35.5,18 C35.5,27.6649831 27.6649831,35.5 18,35.5 C8.33501688,35.5 0.5,27.6649831 0.5,18 C0.5,8.33501688 8.33501688,0.5 18,0.5 L18,4.5 C10.5441559,4.5 4.5,10.5441559 4.5,18 C4.5,25.4558441 10.5441559,31.5 18,31.5 C25.4558441,31.5 31.5,25.4558441 31.5,18 C31.5,10.5441559 25.4558441,4.5 18,4.5 L18,0.5 Z" id="Progress" fill="#00A3A3"></path>
                </g>
                <g id="Progress-Circle-Copy-3" transform="translate(30.000000, 325.000000)">
                    <path d="M30.3743687,5.62563133 C37.2085438,12.4598064 37.2085438,23.5401936 30.3743687,30.3743687 C23.5401936,37.2085438 12.4598064,37.2085438 5.62563133,30.3743687 C-1.20854378,23.5401936 -1.20854378,12.4598064 5.62563133,5.62563133 C12.4598064,-1.20854378 23.5401936,-1.20854378 30.3743687,5.62563133 M27.5459415,8.45405845 C32.8180195,13.7261364 32.8180195,22.2738636 27.5459415,27.5459415 C22.2738636,32.8180195 13.7261364,32.8180195 8.45405845,27.5459415 C3.18198052,22.2738636 3.18198052,13.7261364 8.45405845,8.45405845 C13.7261364,3.18198052 22.2738636,3.18198052 27.5459415,8.45405845" id="Background" fill="#BFBFBF"></path>
                    <path d="M18,0.5 C27.6649831,0.5 35.5,8.33501688 35.5,18 C35.5,27.6649831 27.6649831,35.5 18,35.5 C8.33501688,35.5 0.5,27.6649831 0.5,18 C0.5,8.33501688 8.33501688,0.5 18,0.5 L18,4.5 C10.5441559,4.5 4.5,10.5441559 4.5,18 C4.5,25.4558441 10.5441559,31.5 18,31.5 C25.4558441,31.5 31.5,25.4558441 31.5,18 C31.5,10.5441559 25.4558441,4.5 18,4.5 L18,0.5 Z" id="Progress" fill="#00A3A3"></path>
                </g>
                <g id="Pass" transform="translate(29.000000, 238.000000)">
                    <g id="Group-5">
                        <g id="Group-2" fill="url(#linearGradient-3)">
                            <rect id="Rectangle-13-Copy-6" x="0" y="0" width="35" height="35" rx="10"></rect>
                        </g>
                        <path d="M23.8158448,15.8662535 L16.2898341,23.3922642 C15.9378381,23.7442603 15.46851,23.9286392 15.0159437,23.9286392 C14.5466156,23.9286392 14.0940493,23.7442603 13.7420532,23.4090259 L10.4902802,20.1572529 C9.83657326,19.503546 9.83657326,18.4307961 10.4902802,17.7770892 C11.1439872,17.1233823 12.1999753,17.1233823 12.8536822,17.7770892 L15.0159437,19.9393506 L21.4524428,13.5028515 C22.1061497,12.8323828 23.1621379,12.8323828 23.8158448,13.5028515 C24.4863135,14.1565584 24.4863135,15.2125466 23.8158448,15.8662535" id="Fill-4" fill="#FEFEFE"></path>
                    </g>
                </g>
                <g id="Fail" transform="translate(29.000000, 495.000000)">
                    <g id="Group-5">
                        <g id="Group-4" fill="url(#linearGradient-4)">
                            <rect id="Rectangle-13-Copy-5" x="0" y="0" width="35" height="35" rx="10"></rect>
                        </g>
                        <g id="Page-1" transform="translate(11.000000, 11.000000)">
                            <mask id="mask-6" fill="white">
                                <use xlink:href="#path-5"></use>
                            </mask>
                            <g id="Clip-2"></g>
                            <path d="M12.5045118,10.1195829 C13.1651627,10.7803845 13.1651627,11.8478332 12.5045118,12.5086347 C12.1657165,12.8475073 11.7252826,13 11.3017884,13 C10.8613545,13 10.4378604,12.8475073 10.0990651,12.5086347 L6.49089488,8.89964158 L2.8827247,12.5086347 C2.56086914,12.8475073 2.12043522,13 1.69694107,13 C1.25650715,13 0.833012998,12.8475073 0.494217676,12.5086347 C-0.164739225,11.8478332 -0.164739225,10.7803845 0.494217676,10.1195829 L4.10238786,6.51058977 L0.494217676,2.90159661 C-0.164739225,2.24079505 -0.164739225,1.17334637 0.494217676,0.495601173 C1.15486855,-0.165200391 2.22207382,-0.165200391 2.8827247,0.495601173 L6.49089488,4.10459433 L10.0990651,0.495601173 C10.7597159,-0.165200391 11.843861,-0.165200391 12.5045118,0.495601173 C13.1651627,1.17334637 13.1651627,2.24079505 12.5045118,2.90159661 L8.89634166,6.51058977 L12.5045118,10.1195829 Z" id="Fill-1" fill="#FEFEFE" mask="url(#mask-6)"></path>
                        </g>
                    </g>
                </g>
            </g>
        </g>
    </g>
</svg>