<?xml version="1.0" encoding="UTF-8"?>
<svg width="35px" height="35px" viewBox="0 0 35 35" version="1.1" xmlns="http://www.w3.org/2000/svg" xmlns:xlink="http://www.w3.org/1999/xlink">
    <!-- Generator: Sketch 49 (51002) - http://www.bohemiancoding.com/sketch -->
    <title>Pass</title>
    <desc>Created with Sketch.</desc>
    <defs>
        <linearGradient x1="0%" y1="0%" x2="100%" y2="100%" id="linearGradient-1">
            <stop stop-color="#2AF598" offset="0%"></stop>
            <stop stop-color="#66CB85" offset="100%"></stop>
        </linearGradient>
    </defs>
    <g id="Page-1" stroke="none" stroke-width="1" fill="none" fill-rule="evenodd">
        <g id="Scanned-Apps---Hover" transform="translate(-114.000000, -269.000000)">
            <g id="App-Bar" transform="translate(50.000000, 257.000000)">
                <g id="Pass" transform="translate(64.000000, 12.000000)">
                    <g id="Group-5">
                        <g id="Group-2" fill="url(#linearGradient-1)">
                            <rect id="Rectangle-13-Copy-6" x="0" y="0" width="35" height="35" rx="10"></rect>
                        </g>
                        <path d="M23.8158448,15.8662535 L16.2898341,23.3922642 C15.9378381,23.7442603 15.46851,23.9286392 15.0159437,23.9286392 C14.5466156,23.9286392 14.0940493,23.7442603 13.7420532,23.4090259 L10.4902802,20.1572529 C9.83657326,19.503546 9.83657326,18.4307961 10.4902802,17.7770892 C11.1439872,17.1233823 12.1999753,17.1233823 12.8536822,17.7770892 L15.0159437,19.9393506 L21.4524428,13.5028515 C22.1061497,12.8323828 23.1621379,12.8323828 23.8158448,13.5028515 C24.4863135,14.1565584 24.4863135,15.2125466 23.8158448,15.8662535" id="Fill-4" fill="#FEFEFE"></path>
                    </g>
                </g>
            </g>
        </g>
    </g>
</svg>