<svg width="291" height="44" viewBox="0 0 291 44" fill="none" xmlns="http://www.w3.org/2000/svg">
<path d="M77.2704 3.5625C82.1361 3.5625 85.9488 4.72562 88.7085 7.05186C91.4682 9.37811 92.848 12.5767 92.848 16.6476C92.848 20.7185 91.4682 23.9171 88.7085 26.2434C85.9488 28.5332 82.1361 29.6782 77.2704 29.6782H67.0306V41.7274H63V3.5625H77.2704ZM77.1615 26.1343C80.9379 26.1343 83.8246 25.3165 85.8217 23.6809C87.8189 22.0089 88.8174 19.6645 88.8174 16.6476C88.8174 13.5581 87.8189 11.1955 85.8217 9.55984C83.8246 7.88786 80.9379 7.05186 77.1615 7.05186H67.0306V26.1343H77.1615Z" fill="white"/>
<path d="M101.278 1.27261H105.145V41.7274H101.278V1.27261Z" fill="white"/>
<path d="M125.927 12.8311C129.668 12.8311 132.536 13.7762 134.533 15.6662C136.53 17.5199 137.529 20.2824 137.529 23.9535V41.7274H133.825V37.2567C132.954 38.7469 131.665 39.91 129.958 40.746C128.288 41.582 126.291 42 123.967 42C120.771 42 118.229 41.2367 116.341 39.7101C114.453 38.1835 113.509 36.1662 113.509 33.6582C113.509 31.223 114.38 29.2602 116.123 27.7699C117.903 26.2797 120.717 25.5346 124.566 25.5346H133.662V23.7899C133.662 21.3183 132.972 19.4464 131.592 18.1742C130.212 16.8657 128.197 16.2114 125.546 16.2114C123.731 16.2114 121.988 16.5204 120.317 17.1383C118.647 17.7199 117.213 18.5377 116.014 19.5918L114.271 16.7021C115.724 15.4663 117.467 14.5213 119.5 13.867C121.534 13.1764 123.676 12.8311 125.927 12.8311ZM124.566 38.9468C126.744 38.9468 128.614 38.4561 130.176 37.4747C131.737 36.457 132.899 35.0031 133.662 33.113V28.4242H124.675C119.773 28.4242 117.322 30.1325 117.322 33.5492C117.322 35.2212 117.957 36.5479 119.228 37.5293C120.499 38.4743 122.278 38.9468 124.566 38.9468Z" fill="white"/>
<path d="M163.12 39.9827C162.394 40.637 161.486 41.1458 160.397 41.5093C159.344 41.8364 158.236 42 157.074 42C154.387 42 152.317 41.2731 150.865 39.8192C149.412 38.3652 148.686 36.3116 148.686 33.6582V16.3205H143.566V13.0492H148.686V6.77926H152.553V13.0492H161.268V16.3205H152.553V33.4402C152.553 35.1485 152.971 36.457 153.806 37.3657C154.678 38.238 155.912 38.6742 157.51 38.6742C158.309 38.6742 159.071 38.547 159.798 38.2926C160.56 38.0381 161.214 37.6747 161.758 37.2021L163.12 39.9827Z" fill="white"/>
<path d="M179.637 4.27128C177.967 4.27128 176.696 4.72562 175.824 5.63431C174.989 6.543 174.572 7.88786 174.572 9.66889V13.0492H183.395V16.3205H174.681V41.7274H170.814V16.3205H165.694V13.0492H170.814V9.50532C170.814 6.8883 171.558 4.81649 173.047 3.28989C174.572 1.7633 176.714 1 179.474 1C180.563 1 181.616 1.16356 182.633 1.49069C183.65 1.78147 184.503 2.21764 185.193 2.7992L183.886 5.68883C182.76 4.7438 181.344 4.27128 179.637 4.27128Z" fill="white"/>
<path d="M199.849 42C197.089 42 194.602 41.3821 192.387 40.1463C190.172 38.8741 188.429 37.1294 187.158 34.9122C185.887 32.695 185.252 30.1871 185.252 27.3883C185.252 24.5895 185.887 22.0816 187.158 19.8644C188.429 17.6472 190.172 15.9207 192.387 14.6848C194.602 13.449 197.089 12.8311 199.849 12.8311C202.608 12.8311 205.096 13.449 207.311 14.6848C209.526 15.9207 211.251 17.6472 212.485 19.8644C213.756 22.0816 214.391 24.5895 214.391 27.3883C214.391 30.1871 213.756 32.695 212.485 34.9122C211.251 37.1294 209.526 38.8741 207.311 40.1463C205.096 41.3821 202.608 42 199.849 42ZM199.849 38.5652C201.882 38.5652 203.698 38.1108 205.295 37.2021C206.929 36.2571 208.2 34.9304 209.108 33.2221C210.016 31.5137 210.47 29.5692 210.47 27.3883C210.47 25.2074 210.016 23.2629 209.108 21.5545C208.2 19.8462 206.929 18.5377 205.295 17.629C203.698 16.684 201.882 16.2114 199.849 16.2114C197.815 16.2114 195.982 16.684 194.348 17.629C192.75 18.5377 191.479 19.8462 190.535 21.5545C189.627 23.2629 189.173 25.2074 189.173 27.3883C189.173 29.5692 189.627 31.5137 190.535 33.2221C191.479 34.9304 192.75 36.2571 194.348 37.2021C195.982 38.1108 197.815 38.5652 199.849 38.5652Z" fill="white"/>
<path d="M225.99 18.6649C226.898 16.7385 228.242 15.2846 230.021 14.3032C231.837 13.3218 234.07 12.8311 236.72 12.8311V16.5931L235.795 16.5386C232.781 16.5386 230.42 17.4654 228.714 19.3192C227.007 21.1729 226.154 23.7717 226.154 27.1157V41.7274H222.287V13.0492H225.99V18.6649Z" fill="white"/>
<path d="M279.453 12.8311C283.048 12.8311 285.862 13.867 287.895 15.9388C289.965 18.0106 291 21.0638 291 25.0984V41.7274H287.133V25.4801C287.133 22.4996 286.407 20.2278 284.954 18.6649C283.538 17.102 281.523 16.3205 278.908 16.3205C275.931 16.3205 273.589 17.2473 271.882 19.1011C270.175 20.9184 269.322 23.4446 269.322 26.6795V41.7274H265.455V25.4801C265.455 22.4996 264.729 20.2278 263.276 18.6649C261.86 17.102 259.827 16.3205 257.176 16.3205C254.235 16.3205 251.893 17.2473 250.15 19.1011C248.443 20.9184 247.59 23.4446 247.59 26.6795V41.7274H243.722V13.0492H247.426V18.2832C248.443 16.5386 249.859 15.1937 251.675 14.2487C253.49 13.3036 255.578 12.8311 257.938 12.8311C260.335 12.8311 262.405 13.34 264.148 14.3577C265.927 15.3754 267.252 16.8839 268.124 18.883C269.177 16.9929 270.684 15.5208 272.645 14.4668C274.642 13.3763 276.911 12.8311 279.453 12.8311Z" fill="white"/>
<path d="M31.8652 44L22.876 30.36L14.0108 44H0L15.8086 21.7486L0.681941 0H14.5067L23.186 12.6971L31.7412 0H45.0081L29.8814 21.2457L46 44H31.8652Z" fill="#6946C6"/>
</svg>
