<svg width="68" height="68" viewBox="0 0 68 68" fill="none" xmlns="http://www.w3.org/2000/svg">
<path d="M16.7343 35.5096C16.523 35.5096 16.3203 35.5935 16.1709 35.7429C16.0214 35.8924 15.9375 36.0951 15.9375 36.3064V36.6563H10.3594V31.0781H15.4665C15.6779 31.0781 15.8806 30.9942 16.03 30.8447C16.1794 30.6953 16.2634 30.4926 16.2634 30.2813C16.2634 30.0699 16.1794 29.8672 16.03 29.7178C15.8806 29.5683 15.6779 29.4844 15.4665 29.4844H9.5067C9.06669 29.4844 8.7656 29.8347 8.7656 30.2749V37.4951C8.76015 37.5945 8.77547 37.6939 8.8106 37.7871C8.84573 37.8802 8.89989 37.965 8.96962 38.036C9.03936 38.1071 9.12313 38.1628 9.21561 38.1996C9.30808 38.2365 9.40722 38.2536 9.5067 38.25H16.7269C16.8297 38.2548 16.9323 38.2389 17.0288 38.2033C17.1254 38.1677 17.2137 38.1131 17.2887 38.0427C17.3637 37.9723 17.4238 37.8875 17.4655 37.7935C17.5072 37.6994 17.5295 37.598 17.5312 37.4951V36.3064C17.5312 36.0951 17.4473 35.8924 17.2978 35.7429C17.1484 35.5935 16.9457 35.5096 16.7343 35.5096Z" fill="#6946C6"/>
<path d="M16.8406 31.5018L14.2485 33.675L13.4141 32.8406C13.3404 32.7649 13.2525 32.7047 13.1554 32.6633C13.0583 32.6219 12.9539 32.6003 12.8484 32.5995C12.7428 32.5988 12.6382 32.6191 12.5405 32.6592C12.4429 32.6992 12.3541 32.7583 12.2795 32.833C12.2049 32.9076 12.1458 32.9963 12.1058 33.094C12.0657 33.1917 12.0454 33.2963 12.0462 33.4019C12.0469 33.5074 12.0686 33.6118 12.11 33.7089C12.1514 33.806 12.2116 33.8939 12.2873 33.9675L13.6378 35.3181C13.7788 35.4591 13.9674 35.5421 14.1666 35.5508C14.3657 35.5596 14.5609 35.4933 14.7136 35.3652L17.865 32.7233C17.9452 32.6561 18.0114 32.5737 18.0598 32.4809C18.1082 32.3881 18.1379 32.2867 18.1471 32.1824C18.1563 32.0781 18.1448 31.9731 18.1134 31.8732C18.082 31.7734 18.0312 31.6807 17.964 31.6004C17.8968 31.5202 17.8144 31.454 17.7216 31.4056C17.6288 31.3572 17.5274 31.3276 17.4231 31.3184C17.3188 31.3092 17.2138 31.3206 17.1139 31.352C17.0141 31.3834 16.9214 31.4342 16.8412 31.5014L16.8406 31.5018Z" fill="#6946C6"/>
<path d="M30.9329 31.4766H20.9261C20.7148 31.4766 20.5121 31.5605 20.3627 31.71C20.2132 31.8594 20.1293 32.0621 20.1293 32.2734C20.1293 32.4848 20.2132 32.6875 20.3627 32.8369C20.5121 32.9864 20.7148 33.0703 20.9261 33.0703H30.9329C31.1442 33.0703 31.3469 32.9864 31.4964 32.8369C31.6458 32.6875 31.7298 32.4848 31.7298 32.2734C31.7298 32.0621 31.6458 31.8594 31.4964 31.71C31.3469 31.5605 31.1442 31.4766 30.9329 31.4766Z" fill="black"/>
<path d="M16.7344 42.2344H9.5625C9.35116 42.2344 9.14847 42.3183 8.99902 42.4678C8.84958 42.6172 8.76562 42.8199 8.76562 43.0312V50.2031C8.76562 50.4145 8.84958 50.6172 8.99902 50.7666C9.14847 50.916 9.35116 51 9.5625 51H16.7344C16.9457 51 17.1484 50.916 17.2979 50.7666C17.4473 50.6172 17.5312 50.4145 17.5312 50.2031V43.0312C17.5312 42.8199 17.4473 42.6172 17.2979 42.4678C17.1484 42.3183 16.9457 42.2344 16.7344 42.2344ZM15.9375 49.5391H10.3594V43.8281H15.9375V49.5391Z" fill="black"/>
<path d="M8.76558 17.6184V24.8386C8.76558 25.2786 9.06666 25.6328 9.50667 25.6328H16.7269C16.9387 25.6337 17.1423 25.5506 17.293 25.4018C17.4438 25.2529 17.5294 25.0504 17.5312 24.8386V23.65C17.5312 23.4387 17.4472 23.236 17.2978 23.0866C17.1484 22.9371 16.9457 22.8532 16.7343 22.8532C16.523 22.8532 16.3203 22.9371 16.1709 23.0866C16.0214 23.236 15.9375 23.4387 15.9375 23.65V24.039H10.3593V18.4609H15.4665C15.6778 18.4609 15.8805 18.377 16.03 18.2275C16.1794 18.0781 16.2634 17.8754 16.2634 17.664C16.2634 17.4527 16.1794 17.25 16.03 17.1006C15.8805 16.9511 15.6778 16.8672 15.4665 16.8672H9.50667C9.4074 16.8631 9.30838 16.8799 9.21596 16.9163C9.12354 16.9528 9.03976 17.0081 8.96998 17.0789C8.90021 17.1496 8.84598 17.2341 8.81078 17.327C8.77558 17.4199 8.76018 17.5192 8.76558 17.6184Z" fill="#6946C6"/>
<path d="M16.8406 18.846L14.2485 21.0191L13.4141 20.1841C13.3404 20.1085 13.2525 20.0482 13.1554 20.0068C13.0583 19.9654 12.9539 19.9438 12.8484 19.9431C12.7428 19.9423 12.6382 19.9626 12.5405 20.0027C12.4429 20.0427 12.3541 20.1018 12.2795 20.1765C12.2049 20.2511 12.1458 20.3398 12.1058 20.4375C12.0657 20.5352 12.0454 20.6398 12.0462 20.7454C12.0469 20.8509 12.0686 20.9553 12.11 21.0524C12.1514 21.1495 12.2116 21.2374 12.2873 21.311L13.6378 22.6616C13.7788 22.8026 13.9674 22.8856 14.1666 22.8944C14.3657 22.9031 14.5609 22.8368 14.7136 22.7087L17.865 20.0667C17.9452 19.9995 18.0114 19.9171 18.0598 19.8243C18.1082 19.7315 18.1379 19.63 18.1471 19.5258C18.1563 19.4215 18.1448 19.3164 18.1134 19.2166C18.082 19.1167 18.0312 19.0241 17.964 18.9438C17.8968 18.8636 17.8144 18.7974 17.7216 18.749C17.6288 18.7006 17.5274 18.671 17.4231 18.6618C17.3188 18.6526 17.2138 18.664 17.1139 18.6954C17.0141 18.7268 16.9214 18.7776 16.8412 18.8448L16.8406 18.846Z" fill="#6946C6"/>
<path d="M20.1293 19.6562C20.1293 19.8676 20.2132 20.0703 20.3627 20.2197C20.5121 20.3692 20.7148 20.4531 20.9261 20.4531H30.9329C31.1442 20.4531 31.3469 20.3692 31.4964 20.2197C31.6458 20.0703 31.7298 19.8676 31.7298 19.6562C31.7298 19.4449 31.6458 19.2422 31.4964 19.0928C31.3469 18.9433 31.1442 18.8594 30.9329 18.8594H20.9261C20.7148 18.8594 20.5121 18.9433 20.3627 19.0928C20.2132 19.2422 20.1293 19.4449 20.1293 19.6562Z" fill="black"/>
<path d="M20.1293 22.8438C20.1293 23.0551 20.2132 23.2578 20.3627 23.4072C20.5121 23.5567 20.7148 23.6406 20.9261 23.6406H36.1C36.3113 23.6406 36.514 23.5567 36.6635 23.4072C36.8129 23.2578 36.8969 23.0551 36.8969 22.8438C36.8969 22.6324 36.8129 22.4297 36.6635 22.2803C36.514 22.1308 36.3113 22.0469 36.1 22.0469H20.9261C20.7148 22.0469 20.5121 22.1308 20.3627 22.2803C20.2132 22.4297 20.1293 22.6324 20.1293 22.8438Z" fill="black"/>
<path d="M9.42969 11.1562C9.42969 10.9449 9.34573 10.7422 9.19629 10.5928C9.04684 10.4433 8.84416 10.3594 8.63281 10.3594H8.36719C8.15584 10.3594 7.95315 10.4433 7.80371 10.5928C7.65427 10.7422 7.57031 10.9449 7.57031 11.1562C7.57031 11.3676 7.65427 11.5703 7.80371 11.7197C7.95315 11.8692 8.15584 11.9531 8.36719 11.9531H8.63281C8.84416 11.9531 9.04684 11.8692 9.19629 11.7197C9.34573 11.5703 9.42969 11.3676 9.42969 11.1562Z" fill="black"/>
<path d="M11.2891 11.9531H23.5078C23.7192 11.9531 23.9218 11.8692 24.0713 11.7197C24.2207 11.5703 24.3047 11.3676 24.3047 11.1562C24.3047 10.9449 24.2207 10.7422 24.0713 10.5928C23.9218 10.4433 23.7192 10.3594 23.5078 10.3594H11.2891C11.0777 10.3594 10.875 10.4433 10.7256 10.5928C10.5761 10.7422 10.4922 10.9449 10.4922 11.1562C10.4922 11.3676 10.5761 11.5703 10.7256 11.7197C10.875 11.8692 11.0777 11.9531 11.2891 11.9531Z" fill="black"/>
<path d="M62.7332 61.5805L54.8184 53.6648C54.6689 53.5154 54.4663 53.4315 54.255 53.4315C54.0437 53.4315 53.841 53.5154 53.6916 53.6648L53.1764 54.18L52.8809 53.8845C54.716 51.4173 55.6035 48.3728 55.3817 45.306C55.1598 42.2391 53.8434 39.3541 51.6723 37.1767C50.8416 36.3477 49.9002 35.6376 48.875 35.0664V8.56344C48.8751 8.26929 48.8122 7.97854 48.6904 7.71077C48.5687 7.443 48.391 7.20443 48.1692 7.01113L41.5113 1.20271C41.1131 0.855424 40.6026 0.66407 40.0742 0.664018H15.5998C14.8017 0.65625 14.0178 0.875499 13.3396 1.29621C12.7136 1.68304 12.1968 2.22322 11.838 2.86561C11.4792 3.508 11.2902 4.23133 11.2891 4.96714V6.50777H8.58394C7.43554 6.51113 6.33514 6.96882 5.5231 7.78086C4.71105 8.59291 4.25336 9.69331 4.25 10.8417V52.7758C4.25336 53.9241 4.71101 55.0244 5.52298 55.8363C6.33495 56.6483 7.43525 57.106 8.58354 57.1093H35.7897C37.8275 58.4118 40.1958 59.1031 42.6142 59.1015H42.6162C45.3795 59.0975 48.0665 58.1952 50.2722 56.5307L50.5656 56.8078L50.0505 57.3148C49.9766 57.3882 49.9178 57.4755 49.8778 57.5716C49.8377 57.6678 49.8171 57.771 49.8171 57.8752C49.8171 57.9794 49.8377 58.0826 49.8778 58.1787C49.9178 58.2749 49.9766 58.3622 50.0505 58.4356L57.9654 66.3495C58.5981 66.9799 59.4553 67.3336 60.3485 67.3327C61.2418 67.3318 62.0982 66.9765 62.7297 66.3448C63.3613 65.7131 63.7164 64.8566 63.7171 63.9634C63.7177 63.0701 63.3639 62.2131 62.7333 61.5805H62.7332ZM41.3047 3.21481L45.9689 7.17183H41.3047V3.21481ZM8.5846 55.5156H8.5838C7.85775 55.5134 7.16205 55.2241 6.64865 54.7107C6.13526 54.1973 5.84589 53.5016 5.84375 52.7755V10.8418C5.84375 10.1151 6.13246 9.41805 6.64637 8.90414C7.16028 8.39023 7.85729 8.10152 8.58407 8.10152H32.8047V13.8708C32.8047 14.0666 32.8825 14.2545 33.021 14.393C33.1595 14.5315 33.3474 14.6093 33.5433 14.6093H40.2422V23.3415C40.2389 23.5528 40.3175 23.7571 40.4614 23.9119C40.6053 24.0666 40.8034 24.1598 41.0144 24.1718C41.1211 24.1751 41.2274 24.157 41.3269 24.1184C41.4265 24.0798 41.5172 24.0217 41.5939 23.9473C41.6705 23.873 41.7314 23.784 41.773 23.6857C41.8146 23.5874 41.836 23.4817 41.8359 23.375V14.3936C41.8359 14.1009 41.7732 13.8115 41.652 13.545C41.5308 13.2786 41.354 13.0411 41.1334 12.8486L34.4856 7.0523C34.0836 6.70136 33.5682 6.50792 33.0346 6.50777H12.8828V5.03767C12.8756 4.4197 13.0726 3.81663 13.4433 3.32213C13.6966 2.99029 14.0232 2.72154 14.3976 2.53689C14.772 2.35225 15.184 2.25672 15.6015 2.25777H39.7109V8.02635C39.7109 8.2224 39.7888 8.41043 39.9275 8.54906C40.0661 8.6877 40.2541 8.76558 40.4502 8.76558H47.2813V34.3138C45.5499 33.6359 43.6921 33.3414 41.8359 33.4505V28.9531C41.8359 28.7417 41.752 28.539 41.6025 28.3896C41.4531 28.2402 41.2504 28.1562 41.0391 28.1562C40.8277 28.1562 40.625 28.2402 40.4756 28.3896C40.3261 28.539 40.2422 28.7417 40.2422 28.9531V33.6481C38.9948 33.8867 37.7896 34.3086 36.6658 34.9C36.5919 34.8251 36.5038 34.7657 36.4066 34.7252C36.3095 34.6847 36.2053 34.6639 36.1 34.664H20.9262C20.7149 34.664 20.5122 34.748 20.3627 34.8974C20.2133 35.0469 20.1293 35.2495 20.1293 35.4609C20.1293 35.6722 20.2133 35.8749 20.3627 36.0244C20.5122 36.1738 20.7149 36.2578 20.9262 36.2578H34.5901C32.108 38.2436 30.4588 41.0862 29.9666 44.2265H20.9262C20.7149 44.2265 20.5122 44.3105 20.3627 44.4599C20.2133 44.6094 20.1293 44.812 20.1293 45.0234C20.1293 45.2347 20.2133 45.4374 20.3627 45.5869C20.5122 45.7363 20.7149 45.8203 20.9262 45.8203H29.818C29.8136 45.9563 29.8107 46.0925 29.8107 46.2293C29.8107 46.6693 29.8329 47.1091 29.8771 47.5468H20.9255C20.7142 47.5468 20.5115 47.6308 20.3621 47.7802C20.2126 47.9297 20.1287 48.1324 20.1287 48.3437C20.1287 48.555 20.2126 48.7577 20.3621 48.9072C20.5115 49.0566 20.7142 49.1406 20.9255 49.1406H30.1394C30.6757 51.4802 31.8611 53.621 33.5595 55.3172C33.6259 55.3842 33.6943 55.45 33.7627 55.5156H8.5846ZM34.3984 13.0156V9.06016L38.943 13.0156H34.3984ZM50.5427 54.1932C49.5057 55.2415 48.2713 56.0742 46.9109 56.6431C45.5504 57.212 44.0907 57.5059 42.6161 57.5078H42.6145C40.3939 57.4995 38.2255 56.8344 36.3822 55.5962C34.5389 54.358 33.1032 52.602 32.2559 50.5495C31.4086 48.497 31.1875 46.2396 31.6205 44.0617C32.0536 41.8838 33.1214 39.8827 34.6894 38.3104C36.3957 36.6105 38.6009 35.5008 40.9828 35.1433C41.5177 35.0642 42.0578 35.0243 42.5986 35.0238C44.8208 35.021 46.9939 35.6778 48.8425 36.9111C50.6911 38.1444 52.132 39.8986 52.9828 41.9516C53.8335 44.0045 54.0558 46.2638 53.6214 48.4432C53.187 50.6225 52.1156 52.6239 50.5427 54.1938V54.1932ZM51.4899 55.4623C51.5502 55.4044 51.6103 55.3465 51.6695 55.2873C51.7287 55.228 51.786 55.164 51.8448 55.1028L52.0495 55.3076L51.6924 55.6647L51.4899 55.4623ZM51.7408 57.8701L54.255 55.3559L54.9484 56.0495L52.4344 58.5636L51.7408 57.8701ZM61.6063 65.2215C61.2726 65.5544 60.8206 65.7413 60.3493 65.7413C59.878 65.7413 59.4259 65.5544 59.0923 65.2215L53.5614 59.6907L56.0756 57.1765L61.6063 62.7074C61.7714 62.8724 61.9024 63.0684 61.9917 63.2841C62.0811 63.4998 62.1271 63.731 62.1271 63.9644C62.1271 64.1979 62.0811 64.4291 61.9917 64.6448C61.9024 64.8605 61.7714 65.0564 61.6063 65.2215Z" fill="black"/>
<path d="M49.8765 38.9731C47.9515 37.0475 45.3404 35.9655 42.6176 35.9651C39.8949 35.9647 37.2834 37.0458 35.3578 38.9708C33.9218 40.4064 32.9437 42.2355 32.5472 44.2269C32.1507 46.2184 32.3537 48.2826 33.1305 50.1587C33.9072 52.0348 35.2228 53.6384 36.911 54.7668C38.5991 55.8952 40.5839 56.4976 42.6144 56.4979C44.6449 56.4982 46.63 55.8964 48.3184 54.7686C50.0069 53.6407 51.323 52.0375 52.1004 50.1617C52.8777 48.2858 53.0813 46.2216 52.6854 44.2301C52.2896 42.2385 51.3121 40.4091 49.8765 38.9731ZM48.7476 52.3647C47.7769 53.3351 46.5897 54.0613 45.2837 54.4836C43.9777 54.9058 42.5901 55.012 41.235 54.7935C39.8799 54.575 38.5961 54.0379 37.489 53.2265C36.3819 52.4151 35.4832 51.3525 34.8668 50.1261C34.2504 48.8997 33.9339 47.5446 33.9433 46.172C33.9527 44.7994 34.2878 43.4487 34.921 42.2309C35.5541 41.0131 36.4673 39.9629 37.5854 39.1668C38.7035 38.3706 39.9946 37.8512 41.3526 37.6513C41.7664 37.5904 42.1842 37.5599 42.6025 37.5599C44.319 37.5569 45.9979 38.0634 47.4263 39.0153C48.8548 39.9672 49.9685 41.3216 50.6266 42.907C51.2847 44.4925 51.4574 46.2375 51.1228 47.9211C50.7883 49.6048 49.9616 51.1513 48.7474 52.3647H48.7476Z" fill="black"/>
<path d="M50.4069 45.9622C50.2665 45.7699 46.9188 41.2531 42.6161 41.2531C38.3134 41.2531 34.9661 45.7699 34.8252 45.9622C34.7256 46.0986 34.6719 46.2632 34.6719 46.4321C34.6719 46.6011 34.7256 46.7657 34.8252 46.9021C34.9657 47.0943 38.3134 51.6114 42.6161 51.6114C46.9188 51.6114 50.2661 47.0943 50.4069 46.9021C50.5065 46.7657 50.5602 46.6011 50.5602 46.4321C50.5602 46.2632 50.5065 46.0986 50.4069 45.9622ZM38.2147 48.1281C37.5938 47.6125 37.0178 47.0451 36.4928 46.4321C37.0178 45.8191 37.5938 45.2518 38.2147 44.7362C37.7927 45.8274 37.7927 47.0368 38.2147 48.1281ZM42.6159 49.5561C41.998 49.5559 41.3941 49.3726 40.8805 49.0292C40.3668 48.6858 39.9665 48.1979 39.7302 47.627C39.4939 47.0562 39.4321 46.4281 39.5528 45.8221C39.6734 45.2162 39.971 44.6596 40.4079 44.2228C40.8449 43.786 41.4015 43.4885 42.0075 43.368C42.6135 43.2476 43.2416 43.3095 43.8123 43.5459C44.3831 43.7824 44.871 44.1828 45.2142 44.6965C45.5575 45.2103 45.7407 45.8142 45.7407 46.4321C45.7398 47.2604 45.4103 48.0546 44.8245 48.6403C44.2387 49.2259 43.4445 49.5553 42.6161 49.5561H42.6159ZM47.017 48.1281C47.4392 47.0369 47.4392 45.8275 47.017 44.7363C47.6378 45.2519 48.2138 45.8192 48.7388 46.4321C48.2139 47.0451 47.638 47.6124 47.0173 48.1281H47.017Z" fill="#6946C6"/>
</svg>
