<svg width="55" height="55" viewBox="0 0 55 55" fill="none" xmlns="http://www.w3.org/2000/svg">
<path d="M49 25.6613V42.82C51.9636 43.247 54.25 45.7959 54.25 48.875C54.25 52.2516 51.5025 55 48.125 55C44.7475 55 42 52.2516 42 48.875H0V13.875H26.2946C26.7496 6.5635 32.8265 0.75 40.25 0.75C47.9692 0.75 54.25 7.03075 54.25 14.75C54.25 19.1591 52.1964 23.0931 49 25.6613ZM48.125 53.25C50.5374 53.25 52.5 51.2874 52.5 48.875C52.5 46.4626 50.5374 44.5 48.125 44.5C45.7126 44.5 43.75 46.4626 43.75 48.875C43.75 51.2874 45.7126 53.25 48.125 53.25ZM1.75 47.125H42.2581C42.4673 46.4268 42.7998 45.7836 43.2267 45.2131L37.8752 39.8616C37.5322 40.0261 37.1543 40.125 36.75 40.125C36.3457 40.125 35.9678 40.0261 35.6256 39.8616L33.8625 41.6248C34.0261 41.9678 34.125 42.3457 34.125 42.75C34.125 44.1973 32.9473 45.375 31.5 45.375C30.0527 45.375 28.875 44.1973 28.875 42.75C28.875 42.3457 28.9739 41.9678 29.1384 41.6256L24.7502 37.2375C24.4072 37.4011 24.0292 37.5 23.625 37.5C22.1777 37.5 21 36.3223 21 34.875C21 33.4277 22.1777 32.25 23.625 32.25C25.0723 32.25 26.25 33.4277 26.25 34.875C26.25 35.2792 26.1511 35.6572 25.9866 35.9994L30.3748 40.3875C30.7178 40.2239 31.0958 40.125 31.5 40.125C31.9042 40.125 32.2822 40.2239 32.6244 40.3884L34.3875 38.6252C34.2239 38.2822 34.125 37.9042 34.125 37.5C34.125 36.0527 35.3027 34.875 36.75 34.875C38.1973 34.875 39.375 36.0527 39.375 37.5C39.375 37.9042 39.2761 38.2822 39.1116 38.6244L44.464 43.9759C45.2646 43.3756 46.2149 42.9688 47.25 42.8191V26.8547C45.1876 28.0526 42.8015 28.75 40.25 28.75C36.0675 28.75 32.3172 26.8968 29.75 23.9786V27.875H24.5V17.375H26.5055C26.397 16.8036 26.3314 16.2183 26.2946 15.625H1.75V47.125ZM36.75 38.375C37.2321 38.375 37.625 37.983 37.625 37.5C37.625 37.017 37.2321 36.625 36.75 36.625C36.2679 36.625 35.875 37.017 35.875 37.5C35.875 37.983 36.2679 38.375 36.75 38.375ZM30.625 42.75C30.625 43.233 31.0179 43.625 31.5 43.625C31.9821 43.625 32.375 43.233 32.375 42.75C32.375 42.267 31.9821 41.875 31.5 41.875C31.0179 41.875 30.625 42.267 30.625 42.75ZM24.5 34.875C24.5 34.392 24.1071 34 23.625 34C23.1429 34 22.75 34.392 22.75 34.875C22.75 35.358 23.1429 35.75 23.625 35.75C24.1071 35.75 24.5 35.358 24.5 34.875ZM40.25 7.75C36.3904 7.75 33.25 10.8904 33.25 14.75C33.25 18.6096 36.3904 21.75 40.25 21.75C44.1096 21.75 47.25 18.6096 47.25 14.75C47.25 10.8904 44.1096 7.75 40.25 7.75ZM28 21.5129C27.5809 20.7569 27.2344 19.958 26.9596 19.125H26.25V26.125H28V21.5129ZM39.375 26.9554V23.4554C34.9598 23.0144 31.5 19.279 31.5 14.75C31.5 13.4699 31.7835 12.2562 32.2796 11.159L29.2443 9.40638C28.455 11.0234 28 12.8329 28 14.75C28 21.2093 33.0286 26.5039 39.375 26.9554ZM40.25 2.5C36.0378 2.5 32.3155 4.63762 30.1105 7.88562L33.1581 9.64525C34.7489 7.442 37.331 6 40.25 6C43.169 6 45.7511 7.442 47.3419 9.64525L50.3895 7.88562C48.1845 4.63762 44.4622 2.5 40.25 2.5ZM51.2557 9.40638L48.2204 11.159C48.7165 12.2562 49 13.4699 49 14.75C49 19.279 45.5402 23.0153 41.125 23.4554V26.9554C47.4714 26.5039 52.5 21.2093 52.5 14.75C52.5 12.8329 52.045 11.0234 51.2557 9.40638Z" fill="black" fill-opacity="0.9"/>
<path d="M40.25 20C37.3546 20 35 17.6454 35 14.75C35 11.8546 37.3546 9.5 40.25 9.5C43.1454 9.5 45.5 11.8546 45.5 14.75C45.5 17.6454 43.1454 20 40.25 20ZM40.25 11.25C38.3197 11.25 36.75 12.8197 36.75 14.75C36.75 16.6803 38.3197 18.25 40.25 18.25C42.1803 18.25 43.75 16.6803 43.75 14.75C43.75 12.8197 42.1803 11.25 40.25 11.25Z" fill="#6946C6"/>
<path d="M3.5 45.375H5.25V43.625H3.5V45.375Z" fill="#6946C6"/>
<path d="M7 45.375H19.25V43.625H7V45.375Z" fill="#6946C6"/>
<path d="M3.5 41.875H5.25V40.125H3.5V41.875Z" fill="#6946C6"/>
<path d="M7 41.875H19.25V40.125H7V41.875Z" fill="#6946C6"/>
<path d="M3.5 38.375H5.25V36.625H3.5V38.375Z" fill="#6946C6"/>
<path d="M7 38.375H19.25V36.625H7V38.375Z" fill="#6946C6"/>
<path d="M3.5 34.875H5.25V33.125H3.5V34.875Z" fill="#6946C6"/>
<path d="M7 34.875H19.25V33.125H7V34.875Z" fill="#6946C6"/>
<path d="M3.5 17.375H8.75V26.125H3.5V17.375ZM5.25 24.375H7V19.125H5.25V24.375Z" fill="black" fill-opacity="0.9"/>
<path d="M10.5 17.375H15.75V24.375H10.5V17.375ZM12.25 22.625H14V19.125H12.25V22.625Z" fill="black" fill-opacity="0.9"/>
<path d="M17.5 17.375H22.75V31.375H17.5V17.375ZM19.25 29.625H21V19.125H19.25V29.625Z" fill="black" fill-opacity="0.9"/>
</svg>
