<svg width="36" height="36" viewBox="0 0 36 36" fill="none" xmlns="http://www.w3.org/2000/svg">
<path d="M32.2903 16.4162V27.7235C34.2433 28.0049 35.75 29.6846 35.75 31.7137C35.75 33.9389 33.9394 35.75 31.7137 35.75C29.488 35.75 27.6774 33.9389 27.6774 31.7137H0V8.64919H17.3278C17.6276 3.83102 21.6322 0 26.5242 0C31.6111 0 35.75 4.13893 35.75 9.22581C35.75 12.1314 34.3967 14.7238 32.2903 16.4162ZM31.7137 34.5968C33.3034 34.5968 34.5968 33.3034 34.5968 31.7137C34.5968 30.124 33.3034 28.8306 31.7137 28.8306C30.124 28.8306 28.8306 30.124 28.8306 31.7137C28.8306 33.3034 30.124 34.5968 31.7137 34.5968ZM1.15323 30.5605H27.8475C27.9853 30.1003 28.2044 29.6765 28.4858 29.3006L24.9593 25.774C24.7332 25.8824 24.4841 25.9476 24.2177 25.9476C23.9513 25.9476 23.7022 25.8824 23.4768 25.774L22.3149 26.9359C22.4227 27.1619 22.4879 27.411 22.4879 27.6774C22.4879 28.6311 21.7118 29.4073 20.7581 29.4073C19.8043 29.4073 19.0282 28.6311 19.0282 27.6774C19.0282 27.411 19.0934 27.1619 19.2018 26.9365L16.3101 24.0448C16.084 24.1526 15.8349 24.2177 15.5685 24.2177C14.6148 24.2177 13.8387 23.4416 13.8387 22.4879C13.8387 21.5342 14.6148 20.7581 15.5685 20.7581C16.5223 20.7581 17.2984 21.5342 17.2984 22.4879C17.2984 22.7543 17.2332 23.0034 17.1248 23.2289L20.0165 26.1206C20.2426 26.0127 20.4917 25.9476 20.7581 25.9476C21.0245 25.9476 21.2736 26.0127 21.499 26.1211L22.6609 24.9593C22.5531 24.7332 22.4879 24.4841 22.4879 24.2177C22.4879 23.264 23.264 22.4879 24.2177 22.4879C25.1715 22.4879 25.9476 23.264 25.9476 24.2177C25.9476 24.4841 25.8824 24.7332 25.774 24.9587L29.3012 28.4853C29.8288 28.0897 30.455 27.8216 31.1371 27.723V17.2027C29.778 17.9921 28.2056 18.4516 26.5242 18.4516C23.768 18.4516 21.2966 17.2303 19.6048 15.3073V17.875H16.1452V10.9556H17.4668C17.3953 10.5791 17.352 10.1934 17.3278 9.80242H1.15323V30.5605ZM24.2177 24.7944C24.5355 24.7944 24.7944 24.536 24.7944 24.2177C24.7944 23.8995 24.5355 23.6411 24.2177 23.6411C23.9 23.6411 23.6411 23.8995 23.6411 24.2177C23.6411 24.536 23.9 24.7944 24.2177 24.7944ZM20.1815 27.6774C20.1815 27.9957 20.4403 28.254 20.7581 28.254C21.0758 28.254 21.3347 27.9957 21.3347 27.6774C21.3347 27.3591 21.0758 27.1008 20.7581 27.1008C20.4403 27.1008 20.1815 27.3591 20.1815 27.6774ZM16.1452 22.4879C16.1452 22.1696 15.8863 21.9113 15.5685 21.9113C15.2508 21.9113 14.9919 22.1696 14.9919 22.4879C14.9919 22.8062 15.2508 23.0645 15.5685 23.0645C15.8863 23.0645 16.1452 22.8062 16.1452 22.4879ZM26.5242 4.6129C23.9808 4.6129 21.9113 6.68237 21.9113 9.22581C21.9113 11.7692 23.9808 13.8387 26.5242 13.8387C29.0676 13.8387 31.1371 11.7692 31.1371 9.22581C31.1371 6.68237 29.0676 4.6129 26.5242 4.6129ZM18.4516 13.6824C18.1754 13.1843 17.9471 12.6578 17.766 12.1089H17.2984V16.7218H18.4516V13.6824ZM25.9476 17.269V14.9625C23.038 14.6719 20.7581 12.2104 20.7581 9.22581C20.7581 8.38222 20.9449 7.58246 21.2718 6.85939L19.2716 5.70443C18.7515 6.77001 18.4516 7.96245 18.4516 9.22581C18.4516 13.4824 21.7654 16.9714 25.9476 17.269ZM26.5242 1.15323C23.7484 1.15323 21.2955 2.56189 19.8424 4.70228L21.8507 5.86185C22.899 4.40993 24.6006 3.45968 26.5242 3.45968C28.4478 3.45968 30.1494 4.40993 31.1976 5.86185L33.206 4.70228C31.7529 2.56189 29.3 1.15323 26.5242 1.15323ZM33.7768 5.70443L31.7766 6.85939C32.1035 7.58246 32.2903 8.38222 32.2903 9.22581C32.2903 12.2104 30.0104 14.6725 27.1008 14.9625V17.269C31.283 16.9714 34.5968 13.4824 34.5968 9.22581C34.5968 7.96245 34.2969 6.77001 33.7768 5.70443Z" fill="black" fill-opacity="0.9"/>
<path d="M26.5242 12.6855C24.6162 12.6855 23.0645 11.1338 23.0645 9.22581C23.0645 7.3178 24.6162 5.76613 26.5242 5.76613C28.4322 5.76613 29.9839 7.3178 29.9839 9.22581C29.9839 11.1338 28.4322 12.6855 26.5242 12.6855ZM26.5242 6.91936C25.2522 6.91936 24.2177 7.9538 24.2177 9.22581C24.2177 10.4978 25.2522 11.5323 26.5242 11.5323C27.7962 11.5323 28.8306 10.4978 28.8306 9.22581C28.8306 7.9538 27.7962 6.91936 26.5242 6.91936Z" fill="#6946C6"/>
<path d="M2.30646 29.4073H3.45968V28.254H2.30646V29.4073Z" fill="#6946C6"/>
<path d="M4.61292 29.4073H12.6855V28.254H4.61292V29.4073Z" fill="#6946C6"/>
<path d="M2.30646 27.1008H3.45968V25.9476H2.30646V27.1008Z" fill="#6946C6"/>
<path d="M4.61292 27.1008H12.6855V25.9476H4.61292V27.1008Z" fill="#6946C6"/>
<path d="M2.30646 24.7943H3.45968V23.6411H2.30646V24.7943Z" fill="#6946C6"/>
<path d="M4.61292 24.7943H12.6855V23.6411H4.61292V24.7943Z" fill="#6946C6"/>
<path d="M2.30646 22.4879H3.45968V21.3347H2.30646V22.4879Z" fill="#6946C6"/>
<path d="M4.61292 22.4879H12.6855V21.3347H4.61292V22.4879Z" fill="#6946C6"/>
<path d="M2.30646 10.9556H5.76613V16.7218H2.30646V10.9556ZM3.45968 15.5685H4.61291V12.1089H3.45968V15.5685Z" fill="black" fill-opacity="0.9"/>
<path d="M6.91937 10.9556H10.379V15.5685H6.91937V10.9556ZM8.0726 14.4153H9.22582V12.1089H8.0726V14.4153Z" fill="black" fill-opacity="0.9"/>
<path d="M11.5322 10.9557H14.9919V20.1815H11.5322V10.9557ZM12.6855 19.0282H13.8387V12.1089H12.6855V19.0282Z" fill="black" fill-opacity="0.9"/>
</svg>
