<?xml version="1.0" encoding="UTF-8"?>
<svg width="19px" height="19px" viewBox="0 0 19 19" version="1.1" xmlns="http://www.w3.org/2000/svg" xmlns:xlink="http://www.w3.org/1999/xlink">
    <!-- Generator: Sketch 49 (51002) - http://www.bohemiancoding.com/sketch -->
    <title>Fill 1</title>
    <desc>Created with Sketch.</desc>
    <defs></defs>
    <g id="Page-1" stroke="none" stroke-width="1" fill="none" fill-rule="evenodd">
        <g id="Scanned-Apps---SAST-Dive-In-Copy-4" transform="translate(-577.000000, -486.000000)" fill="#BDBDBD">
            <g id="Page-1" transform="translate(577.000000, 486.000000)">
                <path d="M12.1173295,14.1181495 C11.1873313,14.6725979 10.0932158,14.997153 8.91704157,14.997153 C5.47057765,14.997153 2.68058305,12.2384342 2.68058305,8.83060498 C2.68058305,5.4227758 5.47057765,2.66405694 8.91704157,2.66405694 C12.3635055,2.66405694 15.1535001,5.4227758 15.1535001,8.83060498 C15.1535001,10.1017794 14.7705597,11.2782918 14.1004139,12.2519573 C13.5943855,13.0092527 12.9105633,13.658363 12.1173295,14.1181495 M18.599964,16.6875445 L16.0287925,14.1451957 C17.1639374,12.6711744 17.8340831,10.8320285 17.8340831,8.83060498 C17.8340831,3.94875445 13.8405615,0 8.91704157,0 C3.99352168,0 0,3.94875445 0,8.83060498 C0,13.6989324 3.99352168,17.6476868 8.91704157,17.6476868 C10.8317437,17.6476868 12.6096815,17.052669 14.0593846,16.0384342 L16.6579089,18.6078292 C16.9314378,18.8647687 17.2733489,19 17.6289365,19 C17.984524,19 18.3264351,18.8647687 18.599964,18.6078292 C19.1333453,18.080427 19.1333453,17.2149466 18.599964,16.6875445" id="Fill-1"></path>
            </g>
        </g>
    </g>
</svg>