<?xml version="1.0" encoding="UTF-8"?>
<svg width="143px" height="152px" viewBox="0 0 143 152" version="1.1" xmlns="http://www.w3.org/2000/svg" xmlns:xlink="http://www.w3.org/1999/xlink">
    <!-- Generator: Sketch 49 (51002) - http://www.bohemiancoding.com/sketch -->
    <title>Page 1 Copy</title>
    <desc>Created with Sketch.</desc>
    <defs>
        <polygon id="path-1" points="0 0.333385526 142.373481 0.333385526 142.373481 151.171053 0 151.171053"></polygon>
    </defs>
    <g id="Page-1" stroke="none" stroke-width="1" fill="none" fill-rule="evenodd">
        <g id="Scanned-Apps---Hover" transform="translate(-875.000000, -402.000000)">
            <g id="Page-1-Copy" transform="translate(875.000000, 402.000000)">
                <g id="Group-3">
                    <mask id="mask-2" fill="white">
                        <use xlink:href="#path-1"></use>
                    </mask>
                    <g id="Clip-2"></g>
                    <path d="M124.498481,107.566017 C124.498481,122.01457 112.432856,133.764899 97.5966062,133.764899 L44.6866062,133.764899 C29.8503562,133.764899 17.8741062,122.01457 17.8741062,107.566017 L17.8741062,69.1816092 C17.8741062,64.3944382 21.8066062,60.4776618 26.8116062,60.4776618 L115.560981,60.4776618 C120.476606,60.4776618 124.498481,64.3944382 124.498481,69.0945697 L124.498481,107.566017 Z M71.1416062,17.7412803 C86.0672312,17.7412803 98.2222312,28.8823329 99.2053562,43.0697671 L43.0778562,43.0697671 C44.1503562,28.8823329 56.3053562,17.7412803 71.1416062,17.7412803 Z M117.169731,43.1568066 C116.097231,19.3079908 95.8984812,0.333385526 71.1416062,0.333385526 C46.4741062,0.333385526 26.1859812,19.3079908 25.1134812,43.1568066 C11.0816062,43.9401618 -0.00089375,55.3423329 -0.00089375,69.1816092 L-0.00089375,107.566017 C-0.00089375,131.588912 20.0191062,151.172793 44.6866062,151.172793 L97.5966062,151.172793 C122.264106,151.172793 142.373481,131.588912 142.373481,107.566017 L142.373481,69.0945697 C142.373481,55.2552934 131.201606,43.9401618 117.169731,43.1568066 Z" id="Fill-1" fill="#EBF0F5" mask="url(#mask-2)"></path>
                </g>
                <path d="M88,89.5324675 C88,94.567718 85.6263736,99.0055659 81.7582418,101.821892 C81.4945055,102.077922 81.1428571,102.333952 80.7912088,102.504638 L80.7912088,111.465677 C80.7912088,116.159555 76.8351648,120 72,120 C67.1648352,120 63.2087912,116.159555 63.2087912,111.465677 L63.2087912,102.589981 C58.8131868,99.7736549 56,94.9944341 56,89.5324675 L56,88.9350649 C56.0879121,87.3135436 56.3516484,85.8627087 56.8791209,84.4118738 C57.4065934,82.7903525 58.2857143,81.3395176 59.3406593,80.0593692 C62.2417582,76.3042672 66.8131868,74 72,74 C80.8791209,74 88,80.9128015 88,89.5324675" id="Fill-4" fill="#EBF0F5"></path>
            </g>
        </g>
    </g>
</svg>