<?xml version="1.0" encoding="UTF-8"?>
<svg width="18px" height="20px" viewBox="0 0 18 20" version="1.1" xmlns="http://www.w3.org/2000/svg" xmlns:xlink="http://www.w3.org/1999/xlink">
    <!-- Generator: Sketch 49 (51002) - http://www.bohemiancoding.com/sketch -->
    <title>Security</title>
    <desc>Created with Sketch.</desc>
    <defs></defs>
    <g id="Page-1" stroke="none" stroke-width="1" fill="none" fill-rule="evenodd">
        <g id="Date-Filter-—-Range-Same-Month-Copy" transform="translate(-651.000000, -983.000000)" fill="#ED850A">
            <g id="Page-1" transform="translate(651.000000, 983.000000)">
                <g id="Security">
                    <path d="M15.6711375,14.3575895 C15.6711375,16.1923263 14.1523875,17.6844316 12.2848875,17.6844316 L5.6248875,17.6844316 C3.7573875,17.6844316 2.2498875,16.1923263 2.2498875,14.3575895 L2.2498875,9.48337895 C2.2498875,8.87548421 2.7448875,8.37811579 3.3748875,8.37811579 L14.5461375,8.37811579 C15.1648875,8.37811579 15.6711375,8.87548421 15.6711375,9.47232632 L15.6711375,14.3575895 Z M8.9548875,2.95127368 C10.8336375,2.95127368 12.3636375,4.36601053 12.4873875,6.16758947 L5.4223875,6.16758947 C5.5573875,4.36601053 7.0873875,2.95127368 8.9548875,2.95127368 Z M14.7486375,6.17864211 C14.6136375,3.15022105 12.0711375,0.740747368 8.9548875,0.740747368 C5.8498875,0.740747368 3.2961375,3.15022105 3.1611375,6.17864211 C1.3948875,6.27811579 -0.0001125,7.72601053 -0.0001125,9.48337895 L-0.0001125,14.3575895 C-0.0001125,17.4081158 2.5198875,19.8949579 5.6248875,19.8949579 L12.2848875,19.8949579 C15.3898875,19.8949579 17.9211375,17.4081158 17.9211375,14.3575895 L17.9211375,9.47232632 C17.9211375,7.71495789 16.5148875,6.27811579 14.7486375,6.17864211 Z" id="Fill-1"></path>
                    <path d="M11,12.025974 C11,12.6827458 10.7032967,13.2615955 10.2197802,13.6289425 C10.1868132,13.6623377 10.1428571,13.6957328 10.0989011,13.7179963 L10.0989011,14.8868275 C10.0989011,15.4990724 9.6043956,16 9,16 C8.3956044,16 7.9010989,15.4990724 7.9010989,14.8868275 L7.9010989,13.729128 C7.35164835,13.3617811 7,12.7384045 7,12.025974 L7,11.9480519 C7.01098901,11.7365492 7.04395604,11.5473098 7.10989011,11.3580705 C7.17582418,11.1465677 7.28571429,10.9573284 7.41758242,10.7903525 C7.78021978,10.3005566 8.35164835,10 9,10 C10.1098901,10 11,10.9016698 11,12.025974" id="Fill-4"></path>
                </g>
            </g>
        </g>
    </g>
</svg>