<?xml version="1.0" encoding="UTF-8"?>
<svg width="18px" height="18px" viewBox="0 0 18 18" version="1.1" xmlns="http://www.w3.org/2000/svg" xmlns:xlink="http://www.w3.org/1999/xlink">
    <!-- Generator: Sketch 49 (51002) - http://www.bohemiancoding.com/sketch -->
    <title>Shape</title>
    <desc>Created with Sketch.</desc>
    <defs></defs>
    <g id="Page-1" stroke="none" stroke-width="1" fill="none" fill-rule="evenodd">
        <g id="Date-Filter-—-Range-Same-Month" transform="translate(-833.000000, -984.000000)" fill="#697882" fill-rule="nonzero">
            <g id="Asset-14" transform="translate(833.000000, 942.000000)">
                <path d="M16.9760447,53.1709458 L15.1404961,52.1349306 C15.2157574,51.7642974 15.2534847,51.3870244 15.2531065,51.0088272 C15.2527358,50.6306674 15.2150159,50.2534687 15.1404961,49.8827238 L16.9760447,48.7566204 C17.2763835,48.5845806 17.3819259,48.2026178 17.2125264,47.9007818 L15.6021985,45.0855233 C15.4301587,44.7851845 15.0481959,44.6796421 14.74636,44.8490416 L12.8995504,45.975145 C12.3037136,45.4774063 11.6200562,45.0954748 10.8838253,44.8490416 L10.8838253,42.6306179 C10.8838253,42.2823373 10.601488,42 10.2532074,42 L7.0550737,42 C6.70679304,42 6.42445579,42.2823373 6.42445579,42.6306179 L6.42445579,44.7476923 C5.6882249,44.9941255 5.00456745,45.376057 4.40873069,45.8737957 L2.56192111,44.7476923 C2.26008517,44.5782928 1.87812234,44.6838352 1.70608252,44.984174 L0.095754654,47.8669987 C0.00336320674,48.0149262 -0.0236386969,48.1945117 0.0211673263,48.3630677 C0.0659733496,48.5316237 0.178585728,48.6740966 0.332236369,48.7566204 L2.16778492,49.8151576 C2.09326518,50.1859025 2.05554531,50.5631012 2.05517458,50.941261 C2.05479636,51.3194582 2.09252367,51.6967312 2.16778492,52.0673644 L0.332236369,53.1709458 C0.0304460037,53.3473631 -0.0746836437,53.7328385 0.095754654,54.0380454 L1.70608252,56.8082598 C1.87812234,57.1085986 2.26008517,57.214141 2.56192111,57.0447415 L4.39746966,55.9862043 C4.99697372,56.4847232 5.68446592,56.8666633 6.42445579,57.1123077 L6.42445579,59.2293821 C6.42445579,59.5776627 6.70679304,59.86 7.0550737,59.86 L10.2532074,59.86 C10.601488,59.86 10.8838253,59.5776627 10.8838253,59.2293821 L10.8838253,57.1460908 C11.6238151,56.9004464 12.3113073,56.5185063 12.9108114,56.0199874 L14.74636,57.0785246 C15.0481959,57.2479241 15.4301587,57.1423817 15.6021985,56.8420429 L17.2125264,54.0718285 C17.3053447,53.9221547 17.3325865,53.7409177 17.2878705,53.5705711 C17.2431545,53.4002245 17.1304093,53.2557341 16.9760447,53.1709458 Z M8.65414053,54.893884 C7.05491965,54.8937208 5.61432227,53.9272323 5.00772099,52.4475221 C4.4011197,50.9678118 4.74877483,49.2682364 5.88770069,48.1455809 C7.02662655,47.0229254 8.73102806,46.6997593 10.2018575,47.3275875 C11.6726869,47.9554157 12.6183485,49.4097695 12.5955024,51.0088272 C12.5647174,53.1635611 10.8090943,54.8941039 8.65414053,54.893884 Z" id="Shape"></path>
            </g>
        </g>
    </g>
</svg>