<?xml version="1.0" encoding="UTF-8"?>
<svg width="18px" height="18px" viewBox="0 0 18 18" version="1.1" xmlns="http://www.w3.org/2000/svg" xmlns:xlink="http://www.w3.org/1999/xlink">
    <!-- Generator: Sketch 49 (51002) - http://www.bohemiancoding.com/sketch -->
    <title>Shape</title>
    <desc>Created with Sketch.</desc>
    <defs></defs>
    <g id="Page-1" stroke="none" stroke-width="1" fill="none" fill-rule="evenodd">
        <g id="Date-Filter-—-Range-Same-Month-Copy" transform="translate(-833.000000, -984.000000)" fill="#32B9E3" fill-rule="nonzero">
            <g id="Asset-14" transform="translate(833.000000, 984.000000)">
                <path d="M16.9760447,11.1709458 L15.1404961,10.1349306 C15.2157574,9.76429744 15.2534847,9.38702439 15.2531065,9.00882724 C15.2527358,8.63066743 15.2150159,8.25346874 15.1404961,7.88272383 L16.9760447,6.75662043 C17.2763835,6.58458061 17.3819259,6.20261778 17.2125264,5.90078184 L15.6021985,3.08552333 C15.4301587,2.78518448 15.0481959,2.67964212 14.74636,2.84904161 L12.8995504,3.97514502 C12.3037136,3.47740633 11.6200562,3.0954748 10.8838253,2.84904161 L10.8838253,0.630617907 C10.8838253,0.282337254 10.601488,2.13260393e-17 10.2532074,0 L7.0550737,0 C6.70679304,-2.13260393e-17 6.42445579,0.282337254 6.42445579,0.630617907 L6.42445579,2.74769231 C5.6882249,2.99412549 5.00456745,3.37605703 4.40873069,3.87379571 L2.56192111,2.74769231 C2.26008517,2.57829281 1.87812234,2.68383517 1.70608252,2.98417402 L0.095754654,5.86699874 C0.00336320674,6.01492616 -0.0236386969,6.19451172 0.0211673263,6.36306771 C0.0659733496,6.5316237 0.178585728,6.6740966 0.332236369,6.75662043 L2.16778492,7.81515763 C2.09326518,8.18590253 2.05554531,8.56310123 2.05517458,8.94126103 C2.05479636,9.31945819 2.09252367,9.69673123 2.16778492,10.0673644 L0.332236369,11.1709458 C0.0304460037,11.3473631 -0.0746836437,11.7328385 0.095754654,12.0380454 L1.70608252,14.8082598 C1.87812234,15.1085986 2.26008517,15.214141 2.56192111,15.0447415 L4.39746966,13.9862043 C4.99697372,14.4847232 5.68446592,14.8666633 6.42445579,15.1123077 L6.42445579,17.2293821 C6.42445579,17.5776627 6.70679304,17.86 7.0550737,17.86 L10.2532074,17.86 C10.601488,17.86 10.8838253,17.5776627 10.8838253,17.2293821 L10.8838253,15.1460908 C11.6238151,14.9004464 12.3113073,14.5185063 12.9108114,14.0199874 L14.74636,15.0785246 C15.0481959,15.2479241 15.4301587,15.1423817 15.6021985,14.8420429 L17.2125264,12.0718285 C17.3053447,11.9221547 17.3325865,11.7409177 17.2878705,11.5705711 C17.2431545,11.4002245 17.1304093,11.2557341 16.9760447,11.1709458 Z M8.65414053,12.893884 C7.05491965,12.8937208 5.61432227,11.9272323 5.00772099,10.4475221 C4.4011197,8.96781184 4.74877483,7.26823638 5.88770069,6.14558089 C7.02662655,5.0229254 8.73102806,4.69975931 10.2018575,5.3275875 C11.6726869,5.95541569 12.6183485,7.40976954 12.5955024,9.00882724 C12.5647174,11.1635611 10.8090943,12.8941039 8.65414053,12.893884 Z" id="Shape"></path>
            </g>
        </g>
    </g>
</svg>