<svg width="18" height="18" viewBox="0 0 18 18" fill="none" xmlns="http://www.w3.org/2000/svg">
<path d="M17.9188 6.84178C17.7025 6.17889 17.1122 5.75057 16.4149 5.75057H11.9184L10.5025 1.4505C10.2848 0.789474 9.69575 0.363403 9.00049 0.363403C8.99828 0.363403 8.99599 0.363403 8.99378 0.363438C8.29567 0.36618 7.70685 0.797524 7.49372 1.46234L6.11902 5.75057H1.58508C0.886061 5.75057 0.295306 6.18034 0.080109 6.8454C-0.135123 7.51047 0.0918847 8.20485 0.658456 8.61436L4.3269 11.266L2.91486 15.5541C2.69633 16.2178 2.91954 16.9132 3.48351 17.3256C3.76676 17.5328 4.09187 17.6364 4.4172 17.6364C4.73957 17.6364 5.06212 17.5346 5.34397 17.3309L9.01877 14.6747L12.6499 17.3264C13.2132 17.7378 13.9428 17.7398 14.5085 17.3316C15.0741 16.9234 15.302 16.2303 15.0891 15.566L13.7105 11.266L17.3478 8.60983C17.9109 8.19863 18.135 7.50463 17.9188 6.84178ZM16.7259 7.75818L12.474 10.8632L14.0848 15.8879C14.1933 16.2261 13.9641 16.4239 13.8913 16.4764C13.8185 16.529 13.5586 16.6842 13.2717 16.4747L9.0219 13.3712L4.72618 16.4762C4.4379 16.6846 4.17866 16.5276 4.10604 16.4745C4.03345 16.4214 3.80521 16.2218 3.9165 15.8839L5.56978 10.8631L1.27621 7.75972C0.987754 7.55121 1.05574 7.25565 1.08344 7.17006C1.11114 7.08447 1.22917 6.80512 1.58508 6.80512H6.88838L8.49797 1.78426C8.60648 1.44579 8.90811 1.41833 8.99799 1.41795H8.99982C9.09192 1.41795 9.39046 1.44498 9.50091 1.78032L11.1555 6.80512H16.415C16.77 6.80512 16.8884 7.08352 16.9163 7.16886C16.9441 7.25421 17.0126 7.54885 16.7259 7.75818Z" fill="black"/>
</svg>
