<svg width="390" height="320" viewBox="0 0 390 320" fill="none" xmlns="http://www.w3.org/2000/svg">
<path d="M142.466 106.192C141.796 106.191 141.251 105.647 141.25 104.977C141.251 104.307 141.796 103.763 142.466 103.762C143.137 103.763 143.679 104.305 143.681 104.977C143.679 105.647 143.137 106.191 142.466 106.192Z" fill="#F4F0FA"/>
<path d="M386.997 320H299.017C292.621 312.939 286.762 305.499 280.839 298.361C293.789 296.042 307.153 292.845 320.303 288.853L318.722 290.436C318.929 291.011 319.161 291.576 319.413 292.13L323.757 287.785C325.681 287.179 327.6 286.556 329.509 285.916L320.765 294.662C321.066 295.149 321.386 295.625 321.722 296.089L333.131 284.679C335.166 283.971 337.183 283.247 339.193 282.502L323.476 298.22C323.859 298.631 324.256 299.029 324.669 299.412L343.03 281.051C345.204 280.212 347.359 279.352 349.495 278.47L326.8 301.165C327.262 301.503 327.738 301.821 328.227 302.124L353.625 276.726C356.002 275.7 358.355 274.644 360.669 273.565L330.758 303.475C331.311 303.728 331.877 303.958 332.452 304.166L361.73 274.888C361.543 274.369 361.337 273.858 361.114 273.357C373.1 267.737 384.163 261.414 393.654 254.473V313.344C393.654 317.02 390.675 320 386.997 320ZM363.062 283.71L341.275 305.499C342.176 305.458 343.064 305.365 343.935 305.223L362.787 286.371C362.929 285.5 363.022 284.611 363.062 283.71ZM335.475 305.028C336.148 305.17 336.831 305.282 337.524 305.365L362.928 279.96C362.847 279.266 362.734 278.584 362.592 277.911L335.475 305.028ZM361.144 291.898L349.461 303.58C354.663 301.28 358.844 297.098 361.144 291.898ZM87.0169 283.411C79.8996 283.411 72.2469 282.922 63.9234 281.802C-2.44953 272.878 -21.1818 204.165 28.4574 175.406C31.3564 189.912 40.7834 203.997 57.2621 214.111C89.7614 234.058 108.587 257.387 136.504 275.229C122.107 279.714 106.578 283.411 87.0169 283.411ZM140.138 114.53C131.661 114.53 121.621 113.823 109.588 112.431C111.389 99.3685 111.794 84.9794 117.456 69.7101C125.98 46.7256 144.11 38.801 164.691 38.801C177.968 38.801 192.269 42.102 205.661 46.7838C185.82 93.2373 186.625 114.529 140.138 114.53ZM142.466 102.282C140.978 102.283 139.772 103.487 139.771 104.977C139.772 106.465 140.978 107.67 142.466 107.671C143.954 107.67 145.159 106.465 145.161 104.977C145.159 103.488 143.954 102.282 142.466 102.282Z" fill="#F4F0FA"/>
<path d="M370.669 64.2949C348.456 64.296 325.71 58.6938 311.43 42.1928C309.114 39.516 306.736 36.9165 304.307 34.4164C306.637 31.821 308.914 28.9718 311.126 25.8506C325.116 6.10898 340.633 -4.57764e-05 355.677 -4.57764e-05C369.207 -4.57764e-05 382.356 4.94515 393.654 9.36134V62.4233C386.326 63.5935 378.533 64.2949 370.669 64.2949ZM385.765 45.9583C384.954 44.8844 383.679 44.1809 382.23 44.1809C381.277 44.1809 380.4 44.4866 379.675 44.9977C379.236 43.0065 377.466 41.5146 375.343 41.5146C374.719 41.5146 374.128 41.6448 373.59 41.8765C372.021 38.3279 368.474 35.8489 364.346 35.8489C360.353 35.8489 356.913 38.1692 355.269 41.5295L355.125 41.5146C353.75 41.5146 352.536 42.1526 351.72 43.1345C350.362 41.4374 348.275 40.3487 345.932 40.3487C343.699 40.3487 341.701 41.3401 340.342 42.9028C339.533 42.0511 338.396 41.5146 337.129 41.5146C335.358 41.5146 333.843 42.5568 333.129 44.056C332.427 43.5926 331.589 43.3196 330.686 43.3196C328.875 43.3196 327.327 44.4062 326.632 45.9583H385.765ZM357.718 15.0514L358.485 15.8185C358.588 15.9211 358.723 15.9729 358.859 15.9729C358.994 15.9729 359.13 15.9211 359.233 15.8185C359.44 15.6111 359.44 15.2767 359.233 15.0694L358.466 14.3034L359.233 13.5373C359.44 13.331 359.44 12.9956 359.233 12.7893C359.13 12.6856 358.994 12.6338 358.859 12.6338C358.723 12.6338 358.588 12.6856 358.485 12.7893L357.718 13.5553L356.951 12.7893C356.849 12.6856 356.713 12.6338 356.578 12.6338C356.442 12.6338 356.307 12.6856 356.203 12.7893C355.997 12.9956 355.997 13.331 356.203 13.5373L356.97 14.3034L356.203 15.0694C355.997 15.2767 355.997 15.6111 356.203 15.8185C356.307 15.9211 356.442 15.9729 356.578 15.9729C356.713 15.9729 356.849 15.9211 356.951 15.8185L357.718 15.0514Z" fill="#F4F0FA"/>
<path d="M235.784 302.764C230.927 302.764 226.309 302.567 221.992 302.169C182.518 298.516 157.05 288.359 136.504 275.229C140.4 274.016 144.213 272.744 148 271.473C165.782 265.504 183.006 259.535 205.604 259.535C212.054 259.535 218.939 260.02 226.404 261.131C251.069 264.801 266.153 280.659 280.839 298.361C264.763 301.24 249.331 302.764 235.784 302.764ZM28.4575 175.407C22.2543 144.363 45.9223 111.412 94.2919 111.412C98.6806 111.412 103.284 111.684 108.075 112.254C108.582 112.314 109.088 112.373 109.588 112.431C106.412 135.458 98.8932 154.353 50.5723 166.626C42.0816 168.783 34.7263 171.775 28.4575 175.407ZM74.3661 138.573L75.8981 140.105C76.1045 140.312 76.3753 140.415 76.6462 140.415C76.917 140.415 77.1879 140.312 77.3942 140.105C77.8079 139.692 77.8079 139.023 77.3942 138.609L75.8622 137.076L77.3942 135.544C77.8079 135.13 77.8079 134.46 77.3942 134.047C77.1879 133.84 76.917 133.738 76.6462 133.738C76.3753 133.738 76.1045 133.84 75.8981 134.048L74.3661 135.58L72.8341 134.048C72.6267 133.84 72.3559 133.738 72.085 133.738C71.8152 133.738 71.5444 133.84 71.337 134.047C70.9244 134.46 70.9244 135.13 71.337 135.544L72.8701 137.076L71.337 138.609C70.9244 139.023 70.9244 139.692 71.337 140.105C71.5444 140.312 71.8152 140.415 72.085 140.415C72.3559 140.415 72.6267 140.312 72.8341 140.105L74.3661 138.573ZM251.692 58.4669C238.265 58.4669 226.045 54.9458 217.235 51.2437C213.488 49.6694 209.615 48.167 205.661 46.7842C206.404 45.0448 207.178 43.2663 207.983 41.456C219.642 15.2181 234.867 4.99756 251.035 4.99756C268.821 4.99756 287.749 17.3754 304.307 34.4169C287.855 52.7514 268.795 58.4658 251.692 58.4669ZM251.416 22.2359C249.927 22.237 248.721 23.442 248.721 24.9307C248.721 26.4193 249.927 27.6245 251.416 27.6245C252.903 27.6245 254.109 26.4193 254.109 24.9307C254.109 23.442 252.903 22.237 251.416 22.2359ZM251.416 26.1453C250.744 26.1443 250.201 25.6015 250.2 24.9307C250.201 24.2599 250.744 23.7161 251.416 23.7151C252.086 23.7161 252.629 24.2599 252.63 24.9307C252.629 25.6015 252.086 26.1443 251.416 26.1453Z" fill="#F6F3FB"/>
<path d="M77.7169 193.98C76.6377 193.98 75.6685 193.546 74.9618 192.84C74.255 192.132 73.8202 191.163 73.8202 190.085C73.8202 189.006 74.255 188.036 74.9618 187.329C75.6685 186.623 76.6377 186.188 77.7169 186.188C78.795 186.188 79.7641 186.623 80.472 187.329C81.1777 188.036 81.6125 189.006 81.6136 190.085C81.6125 191.163 81.1777 192.132 80.472 192.84C79.7641 193.546 78.795 193.98 77.7169 193.98ZM332.908 135.468C332.599 135.468 332.298 135.432 332.01 135.364L336.7 130.675C336.767 130.963 336.803 131.262 336.803 131.571C336.802 132.65 336.369 133.619 335.662 134.327C334.955 135.033 333.986 135.468 332.908 135.468ZM330.419 134.57C330.327 134.493 330.238 134.412 330.153 134.326C329.556 133.728 329.153 132.943 329.042 132.064L333.401 127.706C334.28 127.816 335.064 128.219 335.662 128.816C335.747 128.902 335.829 128.99 335.906 129.083L330.419 134.57ZM379.625 81.4608C378.954 81.4598 378.411 80.9159 378.41 80.2452C378.411 79.5744 378.954 79.0316 379.625 79.0295C380.296 79.0316 380.839 79.5744 380.84 80.2452C380.839 80.9159 380.296 81.4598 379.625 81.4608Z" fill="#EEE9F7"/>
<path d="M280.839 298.36C266.153 280.658 251.069 264.801 226.404 261.13C218.939 260.02 212.054 259.534 205.604 259.534C183.006 259.534 165.782 265.503 148 271.473C144.212 272.743 140.4 274.015 136.504 275.229C108.587 257.387 89.7613 234.058 57.2621 214.111C40.7834 203.997 31.3564 189.912 28.4574 175.406C34.7262 171.774 42.0816 168.782 50.5722 166.626C98.8931 154.353 106.411 135.457 109.588 112.431C121.621 113.823 131.661 114.53 140.138 114.53C186.625 114.529 185.82 93.237 205.661 46.7835C209.615 48.1663 213.488 49.6687 217.235 51.2431C226.045 54.9451 238.265 58.4662 251.692 58.4662C268.795 58.4651 287.855 52.7508 304.307 34.4163C306.736 36.9164 309.114 39.516 311.43 42.1927C325.71 58.6937 348.456 64.2959 370.67 64.2948C378.533 64.2948 386.326 63.5934 393.654 62.4232V254.472C384.162 261.414 373.1 267.737 361.113 273.357C361.089 273.302 361.064 273.248 361.039 273.194L360.669 273.564C358.355 274.644 356.002 275.699 353.625 276.726L359.687 270.662C359.386 270.173 359.066 269.698 358.73 269.235L349.495 278.469C347.359 279.352 345.204 280.212 343.03 281.051L356.977 267.104C356.594 266.692 356.196 266.294 355.784 265.912L339.193 282.501C337.183 283.246 335.165 283.971 333.131 284.679L353.653 264.157C353.19 263.821 352.715 263.501 352.226 263.2L329.509 285.916C327.6 286.556 325.681 287.179 323.757 287.785L349.694 261.848C349.141 261.595 348.577 261.364 348 261.157L320.303 288.853C307.153 292.845 293.789 296.042 280.839 298.36ZM317.524 285.363C317.605 286.056 317.718 286.74 317.86 287.412L344.978 260.295C344.306 260.153 343.621 260.04 342.929 259.958L317.524 285.363ZM317.665 278.953C317.523 279.825 317.43 280.712 317.39 281.614L339.18 259.824C338.278 259.865 337.39 259.957 336.519 260.1L317.665 278.953ZM330.992 261.742C325.79 264.042 321.608 268.224 319.308 273.426L330.992 261.742ZM379.625 222.503L380.696 223.574C380.84 223.718 381.03 223.791 381.219 223.791C381.408 223.791 381.598 223.718 381.742 223.574C382.031 223.285 382.031 222.816 381.742 222.527L380.671 221.457L381.742 220.386C382.031 220.097 382.031 219.63 381.742 219.341C381.598 219.196 381.408 219.124 381.219 219.124C381.03 219.124 380.84 219.196 380.696 219.341L379.625 220.411L378.553 219.341C378.409 219.196 378.22 219.124 378.03 219.124C377.841 219.124 377.651 219.196 377.508 219.341C377.219 219.63 377.219 220.097 377.508 220.386L378.579 221.457L377.508 222.527C377.219 222.816 377.219 223.285 377.508 223.574C377.651 223.718 377.841 223.791 378.03 223.791C378.22 223.791 378.409 223.718 378.553 223.574L379.625 222.503ZM106.034 152.254C98.0457 152.254 92.3863 157.578 96.1063 165.022C99.6697 172.152 109.54 168.101 114.544 172.188C120.099 176.725 118.372 182.973 111.183 188.835C108.951 190.656 105.52 193.371 106.404 196.473C106.977 198.483 110.565 201.677 112.875 201.761L116.917 201.804C118.618 197.586 122.709 196.31 124.713 192.502C128.299 185.687 122.268 183.93 121.552 179.401C120.598 173.372 124.831 173.914 127.015 170.243C129.585 165.925 125.237 160.817 127.903 156.716C129.913 153.627 132.307 152.503 134.862 152.503C140.732 152.503 147.456 158.436 152.356 160.077C154.488 160.791 157.144 161.3 159.692 161.3C162.294 161.3 164.786 160.77 166.498 159.386C170.974 155.768 175.436 147.387 170.696 142.547C164.016 135.729 166.466 132.236 173.688 130.51C176.885 129.746 178.35 127.31 174.801 124.527C177.147 127.916 175.069 128.488 171.708 128.488C170.851 128.488 169.912 128.451 168.94 128.414C167.968 128.377 166.964 128.34 165.982 128.34C162.944 128.34 160.105 128.696 159.007 130.51C156.783 134.183 159.525 136.351 160.298 139.174C161.654 144.124 159.75 148.601 155.086 148.601C152.943 148.601 150.22 147.656 146.961 145.381C141.009 141.221 141.51 133.812 135.197 131.926C134.422 131.694 133.628 131.584 132.831 131.584C127.572 131.584 122.151 136.381 120.266 142.54C118.314 148.914 116.032 152.467 109.961 152.468C109.349 152.468 108.698 152.431 108.005 152.358C107.335 152.287 106.677 152.254 106.034 152.254ZM77.7168 184.708C74.7469 184.708 72.341 187.114 72.341 190.084C72.341 193.053 74.7469 195.459 77.7168 195.459C80.6856 195.459 83.0916 193.053 83.0916 190.084C83.0916 187.114 80.6856 184.708 77.7168 184.708ZM234.698 160.983L212.909 182.772C213.809 182.732 214.699 182.639 215.57 182.497L234.422 163.644C234.564 162.773 234.656 161.885 234.698 160.983ZM207.11 182.301C207.783 182.444 208.465 182.556 209.159 182.638L234.563 157.234C234.482 156.541 234.369 155.858 234.227 155.185L207.11 182.301ZM202.393 180.75C202.946 181.002 203.511 181.233 204.087 181.441L233.366 152.163C233.157 151.587 232.927 151.021 232.675 150.469L202.393 180.75ZM232.778 169.172L221.097 180.854C226.298 178.554 230.479 174.373 232.778 169.172ZM198.434 178.44C198.897 178.776 199.372 179.096 199.861 179.397L231.323 147.936C231.02 147.448 230.702 146.972 230.364 146.508L198.434 178.44ZM195.111 175.494C195.494 175.906 195.892 176.303 196.303 176.686L228.611 144.379C228.229 143.967 227.83 143.569 227.419 143.186L195.111 175.494ZM192.399 171.936C192.701 172.425 193.02 172.9 193.357 173.363L225.288 141.432C224.824 141.096 224.349 140.776 223.86 140.475L192.399 171.936ZM190.356 167.71C190.563 168.286 190.795 168.851 191.047 169.404L221.329 139.122C220.775 138.871 220.21 138.639 219.635 138.432L190.356 167.71ZM189.158 162.638C189.24 163.332 189.352 164.015 189.495 164.687L216.612 137.57C215.939 137.427 215.257 137.315 214.564 137.234L189.158 162.638ZM189.299 156.229C189.157 157.099 189.064 157.987 189.024 158.888L210.813 137.1C209.911 137.14 209.024 137.233 208.153 137.375L189.299 156.229ZM341.259 155.076C341.317 155.076 341.375 155.077 341.433 155.077C342.199 155.077 342.959 155.053 343.713 155.008L377.959 120.76C378.006 120.006 378.029 119.246 378.029 118.48C378.029 118.422 378.029 118.364 378.029 118.306L341.259 155.076ZM335.472 154.594C336.166 154.708 336.868 154.802 337.576 154.876L377.828 114.623C377.754 113.916 377.66 113.215 377.547 112.52L335.472 154.594ZM377.417 125.188L348.141 154.464C349.192 154.269 350.225 154.03 351.242 153.747L376.7 128.289C376.983 127.273 377.222 126.239 377.417 125.188ZM330.41 153.388C331.02 153.58 331.638 153.758 332.263 153.919L376.872 109.311C376.71 108.686 376.533 108.067 376.341 107.457L330.41 153.388ZM325.9 151.627C326.445 151.883 326.999 152.126 327.558 152.355L375.308 104.605C375.078 104.047 374.835 103.494 374.58 102.949L325.9 151.627ZM374.32 134.555L357.507 151.367C359.759 150.264 361.884 148.935 363.847 147.412L370.365 140.895C371.887 138.931 373.216 136.806 374.32 134.555ZM202.625 139.019C197.424 141.318 193.242 145.499 190.942 150.7L202.625 139.019ZM321.853 149.404C322.342 149.715 322.838 150.014 323.343 150.3L373.253 100.39C372.965 99.8867 372.667 99.3905 372.357 98.9017L338.018 133.241C338.189 132.715 338.282 132.153 338.282 131.57C338.282 130.838 338.135 130.14 337.871 129.504L370.772 96.6016C370.434 96.1487 370.083 95.7012 369.725 95.2642L336.956 128.033C336.338 127.327 335.538 126.784 334.629 126.477L367.9 93.2053C367.511 92.799 367.113 92.4012 366.707 92.0129L332.511 126.209C329.857 126.403 327.74 128.521 327.547 131.174L314.966 143.754C315.354 144.162 315.751 144.559 316.158 144.948L327.813 133.292C328.12 134.201 328.664 135 329.371 135.618L318.217 146.772C318.654 147.131 319.1 147.481 319.554 147.819L330.84 136.535C331.476 136.799 332.174 136.946 332.908 136.946C333.491 136.946 334.051 136.853 334.576 136.682L321.853 149.404ZM312.092 140.358C312.432 140.812 312.781 141.258 313.141 141.696L364.647 90.1878C364.21 89.8281 363.765 89.48 363.31 89.1404L312.092 140.358ZM309.612 136.569C309.899 137.072 310.198 137.57 310.507 138.058L361.011 87.5555C360.522 87.2455 360.026 86.9471 359.521 86.6593L309.612 136.569ZM307.557 132.355C307.787 132.914 308.03 133.467 308.285 134.012L356.964 85.3336C356.419 85.0776 355.866 84.8342 355.307 84.6057L307.557 132.355ZM305.994 127.649C306.156 128.273 306.332 128.891 306.525 129.503L352.455 83.5731C351.843 83.3795 351.226 83.2028 350.601 83.0419L305.994 127.649ZM305.037 122.337C305.111 123.044 305.205 123.745 305.319 124.439L347.392 82.3669C346.697 82.2527 345.995 82.1585 345.289 82.0844L305.037 122.337ZM304.906 116.198C304.859 116.953 304.836 117.714 304.836 118.48C304.836 118.539 304.836 118.596 304.836 118.653L341.606 81.8845C341.547 81.8845 341.49 81.8834 341.433 81.8834C340.666 81.8834 339.905 81.9077 339.151 81.9543L304.906 116.198ZM199.509 110.771L200.58 111.842C200.725 111.986 200.914 112.058 201.103 112.058C201.293 112.058 201.482 111.986 201.626 111.842C201.915 111.553 201.915 111.085 201.626 110.796L200.554 109.724L201.626 108.654C201.915 108.365 201.915 107.896 201.626 107.607C201.482 107.463 201.293 107.391 201.103 107.391C200.914 107.391 200.725 107.463 200.58 107.607L199.509 108.679L198.437 107.607C198.293 107.463 198.104 107.391 197.915 107.391C197.725 107.391 197.536 107.463 197.392 107.607C197.103 107.896 197.103 108.365 197.392 108.654L198.463 109.724L197.392 110.796C197.103 111.085 197.103 111.553 197.392 111.842C197.536 111.986 197.725 112.058 197.915 112.058C198.104 112.058 198.293 111.986 198.437 111.842L199.509 110.771ZM306.166 108.669C305.884 109.686 305.645 110.72 305.45 111.77L334.722 82.4981C333.673 82.6928 332.638 82.9319 331.621 83.2144L306.166 108.669ZM312.504 96.062C310.979 98.0267 309.65 100.15 308.547 102.405L325.357 85.595C323.102 86.6985 320.979 88.0273 319.015 89.552L312.504 96.062ZM379.625 77.5498C378.136 77.5508 376.931 78.7559 376.93 80.2445C376.931 81.7332 378.136 82.9383 379.625 82.9393C381.113 82.9383 382.319 81.7332 382.319 80.2445C382.319 78.7559 381.113 77.5508 379.625 77.5498Z" fill="#EEE9F7"/>
<path d="M308.547 102.405C309.65 100.15 310.979 98.0267 312.504 96.0619L319.015 89.5519C320.979 88.0273 323.102 86.6985 325.356 85.5949L308.547 102.405Z" fill="#F2EEF9"/>
<path d="M305.45 111.771C305.645 110.72 305.884 109.686 306.166 108.669L331.621 83.2145C332.638 82.932 333.673 82.6929 334.722 82.4982L305.45 111.771Z" fill="#F2EEF9"/>
<path d="M304.836 118.653C304.836 118.596 304.836 118.539 304.836 118.48C304.836 117.714 304.859 116.953 304.906 116.198L339.151 81.9543C339.905 81.9077 340.666 81.8834 341.433 81.8834C341.49 81.8834 341.547 81.8844 341.605 81.8844L304.836 118.653Z" fill="#F2EEF9"/>
<path d="M305.319 124.439C305.205 123.745 305.111 123.044 305.037 122.337L345.289 82.0847C345.995 82.1588 346.697 82.2529 347.392 82.3672L305.319 124.439Z" fill="#F2EEF9"/>
<path d="M306.525 129.503C306.332 128.891 306.156 128.274 305.994 127.649L350.601 83.042C351.226 83.2028 351.843 83.3795 352.455 83.5731L306.525 129.503Z" fill="#F2EEF9"/>
<path d="M308.285 134.012C308.03 133.467 307.787 132.914 307.557 132.355L355.307 84.6057C355.866 84.8343 356.419 85.0776 356.964 85.3337L308.285 134.012Z" fill="#F2EEF9"/>
<path d="M310.507 138.058C310.198 137.57 309.899 137.072 309.612 136.569L359.521 86.6594C360.026 86.9472 360.522 87.2455 361.011 87.5555L310.507 138.058Z" fill="#F2EEF9"/>
<path d="M313.14 141.696C312.781 141.258 312.432 140.812 312.092 140.358L363.31 89.1406C363.765 89.4803 364.21 89.8284 364.647 90.1881L313.14 141.696Z" fill="#F2EEF9"/>
<path d="M316.158 144.948C315.751 144.559 315.354 144.162 314.965 143.755L327.546 131.174C327.537 131.305 327.532 131.437 327.532 131.571C327.532 132.173 327.631 132.751 327.813 133.292L316.158 144.948ZM329.041 132.064C329.021 131.903 329.011 131.738 329.011 131.571C329.011 130.492 329.446 129.523 330.152 128.816C330.859 128.109 331.829 127.675 332.907 127.674C333.075 127.674 333.239 127.684 333.4 127.706L329.041 132.064ZM334.629 126.477C334.088 126.294 333.509 126.196 332.907 126.195C332.774 126.195 332.642 126.2 332.511 126.21L366.707 92.0133C367.113 92.4015 367.511 92.7994 367.899 93.2056L334.629 126.477Z" fill="#F2EEF9"/>
<path d="M319.554 147.82C319.101 147.481 318.654 147.131 318.217 146.772L329.371 135.619C329.805 135.999 330.3 136.31 330.84 136.535L319.554 147.82ZM332.01 135.364C331.416 135.224 330.875 134.948 330.419 134.57L335.906 129.083C336.284 129.539 336.56 130.08 336.7 130.675L332.01 135.364ZM337.871 129.504C337.646 128.964 337.334 128.469 336.956 128.034L369.725 95.2647C370.083 95.7016 370.434 96.1492 370.772 96.602L337.871 129.504Z" fill="#F2EEF9"/>
<path d="M323.343 150.301C322.838 150.014 322.342 149.716 321.853 149.405L334.576 136.682C336.202 136.152 337.487 134.866 338.018 133.241L372.357 98.902C372.667 99.3908 372.965 99.887 373.253 100.391L323.343 150.301Z" fill="#F2EEF9"/>
<path d="M327.558 152.355C326.998 152.126 326.445 151.884 325.9 151.628L374.58 102.949C374.835 103.494 375.078 104.047 375.308 104.606L327.558 152.355Z" fill="#F2EEF9"/>
<path d="M332.263 153.919C331.638 153.759 331.02 153.581 330.41 153.388L376.34 107.457C376.533 108.068 376.71 108.687 376.872 109.311L332.263 153.919Z" fill="#F2EEF9"/>
<path d="M337.576 154.876C336.868 154.802 336.166 154.708 335.472 154.594L377.547 112.52C377.66 113.215 377.754 113.916 377.828 114.623L337.576 154.876Z" fill="#F2EEF9"/>
<path d="M341.433 155.078C341.375 155.078 341.317 155.077 341.259 155.077L378.029 118.306C378.029 118.364 378.029 118.422 378.029 118.481C378.029 119.247 378.006 120.006 377.959 120.761L343.713 155.008C342.959 155.053 342.199 155.078 341.433 155.078Z" fill="#F2EEF9"/>
<path d="M348.141 154.464L377.416 125.188C377.222 126.239 376.983 127.273 376.7 128.289L351.242 153.748C350.225 154.03 349.191 154.269 348.141 154.464Z" fill="#F2EEF9"/>
<path d="M357.507 151.367L374.32 134.555C373.216 136.807 371.887 138.931 370.365 140.895L363.847 147.412C361.884 148.935 359.759 150.265 357.507 151.367Z" fill="#F2EEF9"/>
<path d="M190.942 150.7C193.242 145.499 197.424 141.318 202.625 139.019L190.942 150.7Z" fill="#F2EEF9"/>
<path d="M189.024 158.889C189.064 157.987 189.157 157.1 189.299 156.229L208.153 137.375C209.024 137.233 209.911 137.14 210.813 137.1L189.024 158.889Z" fill="#F2EEF9"/>
<path d="M189.495 164.688C189.352 164.015 189.24 163.333 189.159 162.639L214.564 137.234C215.257 137.316 215.939 137.428 216.612 137.571L189.495 164.688Z" fill="#F2EEF9"/>
<path d="M191.047 169.404C190.795 168.851 190.563 168.286 190.356 167.71L219.635 138.432C220.21 138.639 220.775 138.871 221.329 139.123L191.047 169.404Z" fill="#F2EEF9"/>
<path d="M193.357 173.363C193.02 172.9 192.701 172.425 192.399 171.936L223.861 140.475C224.349 140.776 224.825 141.096 225.288 141.432L193.357 173.363Z" fill="#F2EEF9"/>
<path d="M196.303 176.687C195.892 176.304 195.494 175.906 195.111 175.494L227.419 143.186C227.83 143.569 228.229 143.967 228.611 144.379L196.303 176.687Z" fill="#F2EEF9"/>
<path d="M199.861 179.397C199.373 179.096 198.897 178.776 198.434 178.44L230.364 146.509C230.702 146.972 231.02 147.448 231.323 147.936L199.861 179.397Z" fill="#F2EEF9"/>
<path d="M204.087 181.441C203.511 181.233 202.946 181.002 202.393 180.751L232.675 150.469C232.927 151.021 233.157 151.587 233.366 152.163L204.087 181.441Z" fill="#F2EEF9"/>
<path d="M209.159 182.638C208.465 182.557 207.783 182.445 207.11 182.302L234.227 155.186C234.369 155.859 234.482 156.541 234.563 157.234L209.159 182.638Z" fill="#F2EEF9"/>
<path d="M212.909 182.772L234.698 160.984C234.657 161.885 234.564 162.774 234.422 163.644L215.57 182.497C214.699 182.639 213.809 182.732 212.909 182.772Z" fill="#F2EEF9"/>
<path d="M221.097 180.854L232.778 169.172C230.479 174.373 226.298 178.554 221.097 180.854Z" fill="#F2EEF9"/>
<path d="M319.308 273.426C321.608 268.225 325.79 264.043 330.991 261.743L319.308 273.426Z" fill="#F2EEF9"/>
<path d="M317.39 281.614C317.43 280.713 317.523 279.825 317.665 278.953L336.519 260.1C337.39 259.958 338.278 259.866 339.18 259.824L317.39 281.614Z" fill="#F2EEF9"/>
<path d="M317.86 287.412C317.717 286.74 317.605 286.057 317.524 285.364L342.929 259.959C343.621 260.04 344.306 260.153 344.977 260.295L317.86 287.412Z" fill="#F2EEF9"/>
<path d="M319.412 292.13C319.161 291.577 318.929 291.012 318.721 290.436L320.303 288.853C321.453 288.505 322.611 288.146 323.757 287.786L319.412 292.13Z" fill="#F7F4FB"/>
<path d="M320.303 288.853L348 261.157C348.577 261.365 349.141 261.595 349.694 261.848L323.757 287.785C322.611 288.146 321.454 288.505 320.303 288.853Z" fill="#F2EEF9"/>
<path d="M321.722 296.089C321.385 295.625 321.066 295.149 320.764 294.662L329.509 285.916C330.723 285.51 331.926 285.099 333.131 284.679L321.722 296.089Z" fill="#F7F4FB"/>
<path d="M329.509 285.916L352.226 263.2C352.715 263.502 353.19 263.821 353.653 264.158L333.131 284.679C331.926 285.099 330.723 285.51 329.509 285.916Z" fill="#F2EEF9"/>
<path d="M324.669 299.412C324.256 299.029 323.859 298.631 323.476 298.22L339.193 282.502C340.477 282.026 341.757 281.542 343.03 281.051L324.669 299.412Z" fill="#F7F4FB"/>
<path d="M339.193 282.502L355.784 265.912C356.196 266.294 356.594 266.693 356.977 267.105L343.03 281.051C341.757 281.542 340.477 282.026 339.193 282.502Z" fill="#F2EEF9"/>
<path d="M328.227 302.124C327.738 301.822 327.262 301.503 326.8 301.166L349.495 278.47C350.879 277.898 352.259 277.316 353.625 276.726L328.227 302.124Z" fill="#F7F4FB"/>
<path d="M349.495 278.47L358.73 269.236C359.066 269.699 359.386 270.174 359.687 270.663L353.625 276.727C352.259 277.316 350.879 277.898 349.495 278.47Z" fill="#F2EEF9"/>
<path d="M332.452 304.166C331.877 303.959 331.311 303.728 330.758 303.475L360.669 273.565C360.819 273.494 360.963 273.427 361.114 273.358C361.337 273.858 361.543 274.369 361.73 274.889L332.452 304.166Z" fill="#F7F4FB"/>
<path d="M360.669 273.565L361.039 273.195C361.064 273.249 361.089 273.303 361.113 273.358C360.963 273.427 360.819 273.494 360.669 273.565Z" fill="#F2EEF9"/>
<path d="M337.524 305.365C336.831 305.282 336.148 305.17 335.475 305.028L362.592 277.911C362.734 278.584 362.847 279.266 362.928 279.96L337.524 305.365Z" fill="#F7F4FB"/>
<path d="M341.275 305.499L363.062 283.71C363.022 284.612 362.929 285.5 362.787 286.371L343.935 305.223C343.064 305.365 342.176 305.458 341.275 305.499Z" fill="#F7F4FB"/>
<path d="M349.461 303.58L361.144 291.898C358.844 297.098 354.662 301.281 349.461 303.58Z" fill="#F7F4FB"/>
<path d="M185.233 24.9302H114.834C115.799 23.6521 117.316 22.8141 119.042 22.8141C120.177 22.8141 121.222 23.1781 122.083 23.7865C122.607 21.4165 124.714 19.6401 127.242 19.6401C127.983 19.6401 128.688 19.7956 129.329 20.0717C131.198 15.8471 135.418 12.8952 140.335 12.8952C145.088 12.8952 149.184 15.6577 151.14 19.657L151.312 19.6401C152.95 19.6401 154.395 20.3997 155.365 21.5688C156.984 19.548 159.466 18.2509 162.256 18.2509C164.915 18.2509 167.293 19.4316 168.911 21.2916C169.875 20.2791 171.228 19.6401 172.737 19.6401C174.845 19.6401 176.649 20.8811 177.499 22.666C178.334 22.1148 179.332 21.7889 180.407 21.7889C182.562 21.7889 184.408 23.0818 185.233 24.9302Z" fill="#F1EDF8"/>
<path d="M385.765 45.9585H326.633C327.327 44.4064 328.876 43.3198 330.686 43.3198C331.589 43.3198 332.427 43.5928 333.129 44.0562C333.843 42.557 335.358 41.5148 337.129 41.5148C338.396 41.5148 339.533 42.0512 340.342 42.9029C341.701 41.3402 343.7 40.3489 345.932 40.3489C348.275 40.3489 350.362 41.4376 351.72 43.1346C352.536 42.1528 353.75 41.5148 355.125 41.5148L355.269 41.5296C356.913 38.1693 360.353 35.8491 364.346 35.8491C368.474 35.8491 372.021 38.3281 373.59 41.8767C374.128 41.645 374.719 41.5148 375.343 41.5148C377.466 41.5148 379.236 43.0066 379.676 44.9978C380.4 44.4868 381.277 44.181 382.231 44.181C383.679 44.181 384.954 44.8846 385.765 45.9585Z" fill="#E9E3F5"/>
<path d="M332.62 199.283C323.417 197.663 313.458 170.841 330.594 161.855C347.731 152.868 353.508 148.106 357.09 127.175C360.671 106.244 372.855 116.179 370.11 128.429C367.365 140.68 385.659 139.158 389.477 145.001C396.092 155.127 381.461 156.745 373.084 162.507C364.707 168.27 379.658 172.215 373.711 181.968C367.765 191.719 348.31 202.047 332.62 199.283Z" fill="#32B5C6"/>
<path d="M331.677 199.028L334.935 193.289L338.264 187.59C340.49 183.795 342.818 180.061 345.174 176.343C347.552 172.641 349.961 168.956 352.505 165.362C353.773 163.561 355.065 161.779 356.37 160.004C357.711 158.256 359.051 156.508 360.474 154.826C359.878 155.753 359.274 156.672 358.658 157.582L356.87 160.354C355.671 162.194 354.469 164.033 353.302 165.895L346.223 177.014C343.845 180.709 341.492 184.421 339.074 188.095C336.652 191.763 334.293 195.479 331.677 199.028Z" fill="white"/>
<path d="M341.176 183.826C344.804 182.48 348.516 181.503 352.249 180.615C355.991 179.765 359.755 179.004 363.605 178.617C359.978 179.966 356.265 180.943 352.532 181.828C348.789 182.677 345.026 183.436 341.176 183.826Z" fill="white"/>
<path d="M350.293 169.565C349.878 167.309 349.845 165.066 349.9 162.826C349.996 160.587 350.183 158.351 350.753 156.13C351.17 158.385 351.204 160.628 351.145 162.868C351.047 165.107 350.861 167.343 350.293 169.565Z" fill="white"/>
<path d="M335.491 212.731C335.491 212.731 330.329 202.652 339.145 196.192C347.96 189.731 351.86 181.428 346.831 173.797C341.802 166.167 328.892 170.924 323.434 167.276C317.976 163.628 320.321 155.822 315.847 147.378C309.848 136.063 298.239 139.051 295.523 140.797C292.807 142.542 287.993 147.882 294.294 158.148C300.595 168.414 295.951 172.013 290.936 180.072C285.922 188.128 294.71 191.26 308.976 193.981C323.241 196.703 325.706 214.226 325.706 214.226L335.491 212.731Z" fill="#4DD0E1"/>
<path d="M331.864 222.859C331.776 219.521 331.452 216.206 330.987 212.915C330.505 209.626 329.945 206.352 329.168 203.127C328.416 199.896 327.545 196.697 326.558 193.535L324.994 188.82L323.184 184.194C322.63 182.633 321.892 181.147 321.22 179.634C320.521 178.134 319.899 176.595 319.09 175.147L316.795 170.738C316.437 169.988 315.966 169.305 315.551 168.588L314.284 166.446C310.95 160.698 306.907 155.411 302.837 150.111C303.973 151.331 305.102 152.564 306.216 153.81C307.316 155.068 308.511 156.255 309.498 157.609C311.507 160.283 313.625 162.895 315.383 165.756C319.175 171.305 322.142 177.376 324.745 183.562C327.315 189.776 329.181 196.271 330.431 202.863C331.062 206.159 331.488 209.491 331.804 212.826C331.995 216.171 332.155 219.526 331.864 222.859Z" fill="white"/>
<path d="M325.83 190.084C323.978 188.341 321.904 186.948 319.743 185.754C317.572 184.576 315.294 183.632 312.946 182.902C311.755 182.588 310.58 182.211 309.359 182.013C308.754 181.895 308.154 181.726 307.539 181.652C306.925 181.576 306.312 181.487 305.697 181.39C305.083 181.273 304.462 181.242 303.84 181.19L301.969 181.016C300.716 180.937 299.458 180.929 298.179 180.811C299.423 180.558 300.685 180.341 301.957 180.19C303.23 180.142 304.519 179.987 305.801 180.079C308.378 180.122 310.94 180.598 313.438 181.291C315.904 182.09 318.293 183.166 320.43 184.639C322.556 186.098 324.509 187.885 325.83 190.084Z" fill="white"/>
<path d="M328.013 196.354C327.205 194.196 326.946 191.836 327.086 189.497C327.228 187.153 327.896 184.808 329.055 182.717L329.498 181.935C329.656 181.682 329.852 181.453 330.028 181.212C330.408 180.75 330.715 180.227 331.153 179.819L332.454 178.592C332.885 178.184 333.413 177.896 333.896 177.558C334.834 176.832 335.965 176.443 337.01 175.948C338.096 175.542 339.239 175.296 340.348 175.044C339.356 175.652 338.321 176.097 337.373 176.691C336.457 177.34 335.473 177.854 334.676 178.617C332.949 179.961 331.567 181.665 330.527 183.537C329.457 185.4 328.779 187.488 328.388 189.653C328.02 191.824 327.893 194.066 328.013 196.354Z" fill="white"/>
<path d="M366.389 207.524C382.731 211.657 383.126 197.417 373.114 189.475C366.855 184.512 379.632 181.864 384.579 177.037C393.082 168.746 379.447 158.322 372.375 165.584C365.302 172.848 360.918 175.079 355.764 175.713C350.613 176.346 336.072 176.505 337.327 185.754C338.109 191.518 333.125 196.443 333.806 202.219C348.917 197.107 357.876 205.371 366.389 207.524Z" fill="#60E3F4"/>
<path d="M333.806 202.219C339.751 197.05 346.166 192.469 352.767 188.185C356.091 186.076 359.467 184.045 362.93 182.168C366.395 180.297 369.959 178.596 373.622 177.147C370.228 179.149 366.891 181.196 363.548 183.235C360.23 185.318 356.912 187.393 353.619 189.513L343.741 195.885C340.457 198.026 337.139 200.125 333.806 202.219Z" fill="white"/>
<path d="M350.591 190.536C350.439 189.433 350.441 188.356 350.497 187.288C350.544 186.218 350.669 185.161 350.836 184.11C351.007 183.061 351.225 182.019 351.52 180.989C351.805 179.959 352.147 178.935 352.641 177.94C352.795 179.042 352.794 180.119 352.738 181.187C352.69 182.258 352.567 183.315 352.396 184.364C352.223 185.413 352.005 186.456 351.71 187.484C351.425 188.516 351.085 189.539 350.591 190.536Z" fill="white"/>
<path d="M346.116 193.516C348.05 193.194 349.985 193.029 351.919 192.918C353.853 192.797 355.787 192.77 357.72 192.76C359.654 192.779 361.587 192.818 363.523 192.95C365.456 193.072 367.389 193.25 369.32 193.583C367.386 193.907 365.452 194.073 363.518 194.184C361.583 194.304 359.649 194.331 357.716 194.34C355.782 194.318 353.849 194.278 351.916 194.146C349.982 194.025 348.049 193.848 346.116 193.516Z" fill="white"/>
<path d="M351.203 228.828H327.289L321.724 204.927H356.77L351.203 228.828Z" fill="#39306C"/>
<path d="M360.512 208.461H317.982V198.84H360.512V208.461Z" fill="#4B4583"/>
<path d="M116.917 201.805L112.875 201.761C110.565 201.678 106.977 198.484 106.404 196.473C105.52 193.372 108.951 190.656 111.183 188.835C118.372 182.974 120.099 176.725 114.544 172.189C109.54 168.101 99.6697 172.153 96.1063 165.023C92.3863 157.578 98.0457 152.254 106.034 152.254C106.677 152.254 107.335 152.288 108.005 152.359C108.698 152.432 109.349 152.469 109.961 152.469C116.032 152.468 118.314 148.915 120.266 142.541C122.151 136.382 127.572 131.585 132.831 131.585C133.628 131.585 134.422 131.695 135.197 131.927C141.51 133.813 141.009 141.221 146.961 145.381C150.22 147.657 152.943 148.602 155.086 148.602C159.75 148.602 161.654 144.124 160.298 139.175C159.525 136.352 156.783 134.183 159.007 130.511C160.105 128.696 162.944 128.341 165.982 128.341C166.964 128.341 167.968 128.378 168.94 128.415C169.912 128.452 170.851 128.489 171.708 128.489C175.069 128.489 177.147 127.917 174.801 124.528C178.35 127.31 176.885 129.747 173.688 130.511C166.466 132.237 164.016 135.73 170.696 142.548C175.436 147.387 170.974 155.769 166.498 159.386C164.786 160.77 162.294 161.3 159.692 161.3C157.144 161.3 154.488 160.791 152.356 160.077C147.456 158.436 140.732 152.504 134.862 152.504C132.307 152.504 129.913 153.628 127.903 156.717C125.237 160.818 129.585 165.926 127.015 170.244C124.831 173.915 120.598 173.372 121.552 179.402C122.268 183.93 128.299 185.688 124.713 192.503C122.709 196.31 118.618 197.586 116.917 201.805Z" fill="#FBF9FD"/>
<path d="M131.476 217.974C131.476 218.667 130.912 219.231 130.219 219.231H128.213C128.264 218.802 128.299 218.367 128.299 217.923V206.841H130.219C130.912 206.841 131.476 207.407 131.476 208.099V217.974ZM130.219 204.616H128.299V202.018C128.299 200.912 127.403 200.014 126.296 200.014H103.552C102.445 200.014 101.548 200.912 101.548 202.018V217.923C101.548 223.945 106.429 228.828 112.453 228.828H117.395C122.177 228.828 126.231 225.743 127.702 221.459H130.219C132.143 221.459 133.703 219.898 133.703 217.974V208.099C133.703 206.175 132.143 204.616 130.219 204.616Z" fill="#6445B7"/>
<path d="M125.379 205.663C125.379 203.684 124.962 201.789 124.226 200.014H103.552C102.445 200.014 101.548 200.911 101.548 202.018V217.922C101.548 219.848 102.052 221.654 102.927 223.225C103.241 223.236 103.548 223.264 103.866 223.264C115.746 223.264 125.379 215.384 125.379 205.663Z" fill="#6946C6"/>
<path d="M368.884 252.794H80.8431C77.7621 252.794 75.2642 250.297 75.2642 247.216C75.2642 244.134 77.7621 241.636 80.8431 241.636H368.884C371.965 241.636 374.463 244.134 374.463 247.216C374.463 250.297 371.965 252.794 368.884 252.794Z" fill="#39306C"/>
<path d="M375.943 244.571H73.7862C69.4377 244.571 65.9135 241.045 65.9135 236.698C65.9135 232.352 69.4377 228.827 73.7862 228.827H375.943C380.289 228.827 383.813 232.352 383.813 236.698C383.813 241.045 380.289 244.571 375.943 244.571Z" fill="#221B4C"/>
<path d="M347.488 78.984C347.488 90.272 338.337 99.4229 327.048 99.4229C315.76 99.4229 306.609 90.272 306.609 78.984C306.609 67.6949 315.76 58.544 327.048 58.544C338.337 58.544 347.488 67.6949 347.488 78.984Z" fill="#4B4583"/>
<path d="M342.985 78.9839C342.985 87.7856 335.85 94.9209 327.048 94.9209C318.248 94.9209 311.111 87.7856 311.111 78.9839C311.111 70.1812 318.248 63.0459 327.048 63.0459C335.85 63.0459 342.985 70.1812 342.985 78.9839Z" fill="white"/>
<path d="M327.566 78.9841V69.4005C327.566 69.1149 327.334 68.8832 327.048 68.8832C326.763 68.8832 326.531 69.1149 326.531 69.4005V78.9841C326.531 79.2698 326.763 79.5015 327.048 79.5015C327.334 79.5015 327.566 79.2698 327.566 78.9841Z" fill="#4B4583"/>
<path d="M326.682 79.35L332.542 85.2083C332.744 85.4104 333.072 85.4104 333.274 85.2083C333.476 85.0062 333.476 84.6782 333.274 84.4762L327.414 78.6179C327.212 78.4158 326.884 78.4158 326.682 78.6179C326.48 78.82 326.48 79.148 326.682 79.35Z" fill="#4B4583"/>
<path d="M327.41 93.1181V91.2264C327.41 91.0264 327.248 90.8646 327.048 90.8646C326.848 90.8646 326.686 91.0264 326.686 91.2264V93.1181C326.686 93.3181 326.848 93.48 327.048 93.48C327.248 93.48 327.41 93.3181 327.41 93.1181Z" fill="#4B4583"/>
<path d="M334.427 91.0451L333.482 89.4041C333.382 89.2306 333.161 89.1713 332.987 89.2708C332.815 89.3713 332.754 89.5924 332.855 89.7649L333.8 91.4069C333.899 91.5794 334.121 91.6397 334.294 91.5392C334.467 91.4397 334.527 91.2186 334.427 91.0451Z" fill="#4B4583"/>
<path d="M339.468 85.7384L337.827 84.7925C337.655 84.6931 337.433 84.7523 337.333 84.9259C337.234 85.0994 337.293 85.3205 337.467 85.4199L339.107 86.3658C339.28 86.4663 339.501 86.406 339.602 86.2336C339.701 86.0601 339.642 85.8389 339.468 85.7384Z" fill="#4B4583"/>
<path d="M341.19 78.624H339.288C339.088 78.624 338.926 78.7859 338.926 78.9858C338.926 79.1858 339.088 79.3477 339.288 79.3477H341.19C341.39 79.3477 341.552 79.1858 341.552 78.9858C341.552 78.7859 341.39 78.624 341.19 78.624Z" fill="#4B4583"/>
<path d="M339.106 71.6061L337.475 72.552C337.301 72.6525 337.242 72.8747 337.343 73.0471C337.443 73.2206 337.664 73.2788 337.838 73.1783L339.469 72.2325C339.642 72.133 339.701 71.9108 339.601 71.7384C339.5 71.5648 339.279 71.5067 339.106 71.6061Z" fill="#4B4583"/>
<path d="M333.8 66.5647L332.855 68.1962C332.754 68.3686 332.813 68.5908 332.987 68.6903C333.159 68.7908 333.38 68.7315 333.481 68.5591L334.427 66.9276C334.526 66.7541 334.468 66.533 334.295 66.4324C334.122 66.333 333.9 66.3912 333.8 66.5647Z" fill="#4B4583"/>
<path d="M327.41 66.746V64.8448C327.41 64.6448 327.248 64.4829 327.048 64.4829C326.848 64.4829 326.686 64.6448 326.686 64.8448V66.746C326.686 66.946 326.848 67.1079 327.048 67.1079C327.248 67.1079 327.41 66.946 327.41 66.746Z" fill="#4B4583"/>
<path d="M321.241 68.2061L320.296 66.5651C320.196 66.3927 319.974 66.3324 319.801 66.4329C319.628 66.5323 319.568 66.7535 319.669 66.927L320.613 68.568C320.714 68.7415 320.935 68.8008 321.109 68.7013C321.281 68.6008 321.34 68.3796 321.241 68.2061Z" fill="#4B4583"/>
<path d="M316.62 72.552L314.989 71.6061C314.816 71.5067 314.594 71.5648 314.495 71.7384C314.394 71.9108 314.452 72.133 314.626 72.2325L316.257 73.1783C316.43 73.2788 316.652 73.2206 316.752 73.0471C316.852 72.8747 316.794 72.6525 316.62 72.552Z" fill="#4B4583"/>
<path d="M314.808 78.624H312.915C312.716 78.624 312.553 78.7859 312.553 78.9858C312.553 79.1858 312.716 79.3477 312.915 79.3477H314.808C315.007 79.3477 315.17 79.1858 315.17 78.9858C315.17 78.7859 315.007 78.624 314.808 78.624Z" fill="#4B4583"/>
<path d="M316.267 84.7925L314.627 85.7384C314.453 85.8389 314.394 86.0601 314.494 86.2336C314.593 86.406 314.815 86.4663 314.988 86.3658L316.629 85.4199C316.802 85.3205 316.861 85.0994 316.762 84.9259C316.662 84.7523 316.44 84.6931 316.267 84.7925Z" fill="#4B4583"/>
<path d="M320.613 89.4041L319.669 91.0451C319.568 91.2186 319.628 91.4397 319.801 91.5392C319.974 91.6397 320.196 91.5794 320.296 91.4069L321.241 89.7649C321.34 89.5924 321.281 89.3713 321.108 89.2708C320.935 89.1713 320.714 89.2306 320.613 89.4041Z" fill="#4B4583"/>
<path d="M327.974 78.984C327.974 79.495 327.559 79.9087 327.048 79.9087C326.537 79.9087 326.124 79.495 326.124 78.984C326.124 78.473 326.537 78.0582 327.048 78.0582C327.559 78.0582 327.974 78.473 327.974 78.984Z" fill="#4B4583"/>
<path d="M178.959 56.9948C170.264 48.3 156.108 48.3952 147.533 57.2805C139.661 65.4368 139.317 78.5087 146.783 87.0395C154.032 95.3217 165.855 96.785 174.729 91.4441C175.513 90.9722 176.465 90.8674 177.342 91.1288L182.91 92.7856C183.335 92.9115 183.73 92.5169 183.604 92.0926L181.946 86.5232C181.684 85.6429 181.793 84.6896 182.266 83.9035C187.357 75.4393 186.259 64.2941 178.959 56.9948Z" fill="#6946C6"/>
<path d="M150.922 63.814H175.882C176.369 63.814 176.763 63.4193 176.763 62.9326C176.763 62.446 176.369 62.0524 175.882 62.0524H150.922C150.436 62.0524 150.041 62.446 150.041 62.9326C150.041 63.4193 150.436 63.814 150.922 63.814Z" fill="white"/>
<path d="M169.897 70.2358H175.882C176.369 70.2358 176.763 69.8412 176.763 69.3545C176.763 68.8678 176.369 68.4732 175.882 68.4732H169.897C169.41 68.4732 169.016 68.8678 169.016 69.3545C169.016 69.8412 169.41 70.2358 169.897 70.2358Z" fill="white"/>
<path d="M150.922 70.2358H163.95C164.435 70.2358 164.83 69.8412 164.83 69.3545C164.83 68.8678 164.435 68.4732 163.95 68.4732H150.922C150.436 68.4732 150.041 68.8678 150.041 69.3545C150.041 69.8412 150.436 70.2358 150.922 70.2358Z" fill="white"/>
<path d="M162.334 76.6587H175.882C176.369 76.6587 176.764 76.264 176.764 75.7774C176.764 75.2917 176.369 74.8971 175.882 74.8971H162.334C161.848 74.8971 161.454 75.2917 161.454 75.7774C161.454 76.264 161.848 76.6587 162.334 76.6587Z" fill="white"/>
<path d="M150.922 76.6587H157.435C157.922 76.6587 158.317 76.264 158.317 75.7774C158.317 75.2917 157.922 74.8971 157.435 74.8971H150.922C150.436 74.8971 150.041 75.2917 150.041 75.7774C150.041 76.264 150.436 76.6587 150.922 76.6587Z" fill="white"/>
<path d="M169.896 83.0806H175.882C176.369 83.0806 176.763 82.687 176.763 82.2003C176.763 81.7136 176.369 81.319 175.882 81.319H169.896C169.409 81.319 169.014 81.7136 169.014 82.2003C169.014 82.687 169.409 83.0806 169.896 83.0806Z" fill="white"/>
<path d="M150.922 83.0806H163.657C164.143 83.0806 164.538 82.687 164.538 82.2003C164.538 81.7136 164.143 81.319 163.657 81.319H150.922C150.436 81.319 150.041 81.7136 150.041 82.2003C150.041 82.687 150.436 83.0806 150.922 83.0806Z" fill="white"/>
<path d="M225.027 67.442C225.027 67.442 222.801 57.6088 232.264 49.1658C241.726 40.7238 256.35 41.493 264.368 45.8954C274.759 51.6013 284.959 66.7004 275.635 88.2703C266.312 109.839 309.034 100.933 294.7 130.156C280.367 159.38 255.597 139.202 246.69 151.309C237.784 163.415 206.954 131.674 233.294 109.485C259.632 87.2959 227.023 87.3889 225.027 67.442Z" fill="#221B4C"/>
<path d="M222.617 131.828C211.807 136.436 202.855 163.833 202.02 222.281H225.32C225.32 222.281 239.474 124.644 222.617 131.828Z" fill="#6946C6"/>
<path d="M251.521 123.116C264.299 121.855 285.127 123.979 292.613 132.245C294.264 134.068 294.272 137.484 293.387 142.209C290.26 158.909 275.974 191.956 283.566 228.828H217.049C217.049 228.828 223.358 200.015 219.832 190.923C215.801 180.528 212.313 171.134 216.283 162.45C225.319 142.681 217.225 134.496 222.951 131.639C230.83 127.705 240.713 124.183 251.521 123.116Z" fill="#6946C6"/>
<path d="M278.975 172.044C276.192 188.187 257.499 190.18 248.128 187.027C248.128 187.027 261.766 195.284 271.601 190.645C271.601 190.645 274.105 198.53 270.36 223.328H282.59L282.584 223.202C280.647 210.231 281.255 197.823 282.943 186.548C283.26 183.691 283.684 181.1 284.25 179L284.268 178.931C285.818 171.025 287.758 163.798 289.498 157.488C290.239 153.21 290.525 149.464 290.525 144.768C290.525 144.768 281.759 155.901 278.975 172.044Z" fill="#5737AB"/>
<path d="M279.672 206.695C279.672 206.695 268.053 220.967 262.435 217.102C254.993 211.983 248.87 212.076 243.953 215.012C238.854 218.058 236.903 223.328 236.903 223.328H276.784L288.391 213.283L279.672 206.695Z" fill="#F4AE98"/>
<path d="M293.05 132.832C293.05 132.832 303.304 159.612 312.095 181.506C319.193 199.179 276.395 223.264 276.395 223.264L269.327 213.792L293.975 186.469L278.9 154.683C278.9 154.683 270.161 137.345 283.428 131.2C290.81 127.781 293.05 132.832 293.05 132.832Z" fill="#6946C6"/>
<path d="M260.271 97.0368C260.271 97.0368 258.658 117.339 263.529 122.642C269.791 129.461 258.797 144.165 242.284 155.298C242.284 155.298 233.052 145.047 240.289 128.347C247.525 111.648 240.511 102.217 240.511 102.217L260.271 97.0368Z" fill="#F4AE98"/>
<path d="M263.529 88.2702C263.529 102.18 253.728 113.445 245.448 113.445C237.168 113.445 226.822 104.195 225.43 87.0778C224.304 73.2125 231.774 63.0819 243.072 63.0819C254.371 63.0819 263.529 74.3594 263.529 88.2702Z" fill="#FFB99F"/>
<path d="M229.025 59.8243C227.862 60.4961 225.342 62.1287 222.406 64.0839C219.206 66.2126 215.797 69.9009 214.624 73.9362C212.611 80.8663 217.71 89.6457 227.853 86.5457C237.996 83.4457 242.843 67.1744 251.074 76.5802C261.302 88.2703 265.012 81.755 265.012 81.755C265.012 81.755 262.963 67.2008 252.597 60.6506C247.044 57.1411 238.674 54.258 229.025 59.8243Z" fill="#221B4C"/>
<path d="M270.36 83.2605C270.36 87.7983 267.677 91.4771 264.368 91.4771C261.059 91.4771 258.376 87.7983 258.376 83.2605C258.376 78.7226 261.059 75.0439 264.368 75.0439C267.677 75.0439 270.36 78.7226 270.36 83.2605Z" fill="#6946C6"/>
<path d="M245.512 55.8715C236.296 54.0971 227.409 57.5801 222.406 64.0838C227.926 60.3109 235.16 58.6689 242.576 60.0961C254.817 62.4545 263.49 72.3967 263.776 83.4351C264.003 82.7167 264.194 81.9824 264.339 81.228C266.567 69.6554 258.138 58.3038 245.512 55.8715Z" fill="#6946C6"/>
<path d="M262.51 85.9919L262.516 86.0713C262.528 86.2395 262.552 86.6638 262.552 87.2785C262.556 89.3734 262.26 93.6785 260.246 97.5783C259.24 99.5293 257.811 101.38 255.777 102.836C253.741 104.291 251.093 105.361 247.608 105.722L247.722 106.829C251.374 106.453 254.226 105.316 256.424 103.741C259.726 101.379 261.537 98.0618 262.517 94.9534C263.5 91.8428 263.665 88.9258 263.666 87.2785C263.666 86.4194 263.62 85.9062 263.619 85.8925L262.51 85.9919Z" fill="#6946C6"/>
<path d="M246.551 108.131H243.86C242.989 108.131 242.284 107.425 242.284 106.554C242.284 105.683 242.989 104.976 243.86 104.976H246.551C247.421 104.976 248.128 105.683 248.128 106.554C248.128 107.425 247.421 108.131 246.551 108.131Z" fill="#6946C6"/>
<path d="M286.431 228.828H189.548C188.193 228.828 187.096 227.73 187.096 226.376V225.715C187.096 224.362 188.193 223.265 189.548 223.265H286.431C287.785 223.265 288.882 224.362 288.882 225.715V226.376C288.882 227.73 287.785 228.828 286.431 228.828Z" fill="#39306C"/>
<path d="M241.643 228.828H152.166C149.735 228.828 147.563 227.307 146.731 225.022L125.867 167.698C124.495 163.926 127.288 159.937 131.303 159.937H220.779C223.211 159.937 225.383 161.458 226.214 163.742L247.079 221.066C248.452 224.838 245.658 228.828 241.643 228.828Z" fill="#47417F"/>
<path d="M129.238 160.315C129.575 194.195 174.949 221.599 230.879 221.599C236.363 221.599 241.743 221.333 246.991 220.825L226.214 163.742C225.383 161.458 223.211 159.936 220.779 159.936H131.303C130.568 159.936 129.874 160.073 129.238 160.315Z" fill="#4B4583"/>
<path d="M191.907 193.242C191.907 196.982 188.876 200.015 185.136 200.015C181.396 200.015 178.363 196.982 178.363 193.242C178.363 189.502 181.396 186.47 185.136 186.47C188.876 186.47 191.907 189.502 191.907 193.242Z" fill="#5E5896"/>
<path d="M288.964 13.636C295.271 7.32916 305.539 7.39795 311.759 13.8424C317.47 19.7599 317.719 29.2408 312.303 35.4292C307.045 41.4366 298.468 42.4978 292.032 38.6234C291.463 38.2806 290.774 38.2054 290.137 38.3948L286.098 39.5967C285.79 39.6888 285.503 39.4021 285.595 39.0942L286.797 35.0547C286.987 34.4156 286.908 33.7247 286.564 33.1534C282.873 27.0147 283.669 18.9304 288.964 13.636Z" fill="#6946C6"/>
<path d="M293.966 24.9304C293.966 26.3545 292.812 27.5088 291.387 27.5088C289.962 27.5088 288.808 26.3545 288.808 24.9304C288.808 23.5063 289.962 22.3509 291.387 22.3509C292.812 22.3509 293.966 23.5063 293.966 24.9304Z" fill="white"/>
<path d="M302.827 24.9304C302.827 26.3545 301.673 27.5088 300.249 27.5088C298.824 27.5088 297.669 26.3545 297.669 24.9304C297.669 23.5063 298.824 22.3509 300.249 22.3509C301.673 22.3509 302.827 23.5063 302.827 24.9304Z" fill="white"/>
<path d="M311.688 24.9304C311.688 26.3545 310.534 27.5088 309.11 27.5088C307.684 27.5088 306.53 26.3545 306.53 24.9304C306.53 23.5063 307.684 22.3509 309.11 22.3509C310.534 22.3509 311.688 23.5063 311.688 24.9304Z" fill="white"/>
<path d="M358.859 15.9731C358.723 15.9731 358.588 15.9213 358.485 15.8187L357.718 15.0516L358.466 14.3036L359.233 15.0696C359.44 15.277 359.44 15.6113 359.233 15.8187C359.13 15.9213 358.994 15.9731 358.859 15.9731ZM356.97 14.3036L356.203 13.5376C355.997 13.3313 355.997 12.9959 356.203 12.7895C356.307 12.6859 356.442 12.634 356.578 12.634C356.713 12.634 356.848 12.6859 356.951 12.7895L357.718 13.5556L356.97 14.3036Z" fill="#E8E4F2"/>
<path d="M356.578 15.9731C356.442 15.9731 356.307 15.9213 356.203 15.8187C355.997 15.6113 355.997 15.277 356.203 15.0696L356.97 14.3036L357.718 13.5556L358.485 12.7895C358.588 12.6859 358.723 12.634 358.859 12.634C358.994 12.634 359.13 12.6859 359.233 12.7895C359.44 12.9959 359.44 13.3313 359.233 13.5376L358.466 14.3036L357.718 15.0516L356.951 15.8187C356.848 15.9213 356.713 15.9731 356.578 15.9731Z" fill="#E8E4F2"/>
<path d="M76.6461 140.415C76.3752 140.415 76.1044 140.312 75.8981 140.105L74.366 138.573L75.8621 137.076L77.3941 138.609C77.8078 139.023 77.8078 139.692 77.3941 140.105C77.1878 140.312 76.9169 140.415 76.6461 140.415ZM72.87 137.076L71.3369 135.544C70.9243 135.13 70.9243 134.46 71.3369 134.047C71.5443 133.84 71.8151 133.738 72.0849 133.738C72.3558 133.738 72.6267 133.84 72.834 134.048L74.366 135.58L72.87 137.076Z" fill="#EAE7F3"/>
<path d="M72.0849 140.415C71.8151 140.415 71.5443 140.312 71.3369 140.105C70.9243 139.692 70.9243 139.023 71.3369 138.609L72.87 137.076L74.366 135.58L75.8981 134.048C76.1044 133.84 76.3752 133.738 76.6461 133.738C76.9169 133.738 77.1878 133.84 77.3941 134.047C77.8078 134.46 77.8078 135.13 77.3941 135.544L75.8621 137.076L74.366 138.573L72.834 140.105C72.6267 140.312 72.3558 140.415 72.0849 140.415Z" fill="#EAE7F3"/>
<path d="M201.103 112.059C200.914 112.059 200.725 111.987 200.58 111.843L199.509 110.771L200.554 109.725L201.626 110.797C201.915 111.086 201.915 111.553 201.626 111.843C201.482 111.987 201.293 112.059 201.103 112.059ZM198.463 109.725L197.392 108.654C197.103 108.366 197.103 107.897 197.392 107.608C197.536 107.464 197.725 107.392 197.914 107.392C198.104 107.392 198.293 107.464 198.437 107.608L199.509 108.68L198.463 109.725Z" fill="#E2DDEF"/>
<path d="M197.914 112.059C197.725 112.059 197.536 111.987 197.392 111.843C197.103 111.553 197.103 111.086 197.392 110.797L198.463 109.725L199.509 108.68L200.58 107.608C200.725 107.464 200.914 107.392 201.103 107.392C201.293 107.392 201.482 107.464 201.626 107.608C201.915 107.897 201.915 108.366 201.626 108.654L200.554 109.725L199.509 110.771L198.437 111.843C198.293 111.987 198.104 112.059 197.914 112.059Z" fill="#E2DDEF"/>
<path d="M381.219 223.791C381.03 223.791 380.84 223.718 380.696 223.574L379.625 222.503L380.671 221.457L381.742 222.528C382.03 222.817 382.03 223.285 381.742 223.574C381.598 223.718 381.408 223.791 381.219 223.791ZM378.579 221.457L377.507 220.386C377.219 220.097 377.219 219.63 377.507 219.341C377.651 219.196 377.841 219.124 378.03 219.124C378.219 219.124 378.409 219.196 378.553 219.341L379.625 220.412L378.579 221.457Z" fill="#E2DDEF"/>
<path d="M378.03 223.791C377.841 223.791 377.651 223.718 377.507 223.574C377.219 223.285 377.219 222.817 377.507 222.528L378.579 221.457L379.625 220.412L380.696 219.341C380.84 219.196 381.03 219.124 381.219 219.124C381.408 219.124 381.598 219.196 381.742 219.341C382.03 219.63 382.03 220.097 381.742 220.386L380.671 221.457L379.625 222.503L378.553 223.574C378.409 223.718 378.219 223.791 378.03 223.791Z" fill="#E2DDEF"/>
<path d="M251.415 27.6245C249.927 27.6245 248.721 26.4194 248.721 24.9308C248.721 23.4421 249.927 22.237 251.415 22.236C252.903 22.237 254.109 23.4421 254.109 24.9308C254.109 26.4194 252.903 27.6245 251.415 27.6245ZM251.415 23.7151C250.743 23.7162 250.201 24.26 250.2 24.9308C250.201 25.6016 250.743 26.1443 251.415 26.1454C252.086 26.1443 252.629 25.6016 252.63 24.9308C252.629 24.26 252.086 23.7162 251.415 23.7151Z" fill="#EAE7F3"/>
<path d="M142.466 107.671C140.978 107.67 139.772 106.465 139.771 104.977C139.772 103.487 140.978 102.283 142.466 102.282C143.954 102.282 145.159 103.489 145.16 104.977C145.159 106.465 143.954 107.67 142.466 107.671ZM142.466 103.762C141.796 103.763 141.251 104.306 141.25 104.977C141.251 105.647 141.796 106.191 142.466 106.192C143.136 106.191 143.679 105.647 143.681 104.977C143.679 104.305 143.136 103.763 142.466 103.762Z" fill="#E8E4F2"/>
<path d="M379.624 82.9399C378.136 82.9389 376.931 81.7338 376.93 80.2452C376.931 78.7565 378.136 77.5514 379.624 77.5504C381.113 77.5514 382.319 78.7565 382.319 80.2452C382.319 81.7338 381.113 82.9389 379.624 82.9399ZM379.624 79.0295C378.954 79.0316 378.411 79.5744 378.41 80.2452C378.411 80.9159 378.954 81.4598 379.624 81.4608C380.295 81.4598 380.839 80.9159 380.84 80.2452C380.839 79.5744 380.295 79.0316 379.624 79.0295Z" fill="#E2DDEF"/>
<path d="M77.7167 195.459C74.7469 195.459 72.3409 193.054 72.3409 190.085C72.3409 187.115 74.7469 184.709 77.7167 184.709C80.6855 184.709 83.0915 187.115 83.0915 190.085C83.0915 193.054 80.6855 195.459 77.7167 195.459ZM77.7167 186.188C76.6376 186.188 75.6684 186.623 74.9616 187.329C74.2549 188.036 73.8201 189.006 73.8201 190.085C73.8201 191.163 74.2549 192.132 74.9616 192.84C75.6684 193.546 76.6376 193.98 77.7167 193.98C78.7949 193.98 79.764 193.546 80.4718 192.84C81.1775 192.132 81.6124 191.163 81.6134 190.085C81.6124 189.006 81.1775 188.036 80.4718 187.329C79.764 186.623 78.7949 186.188 77.7167 186.188Z" fill="#E2DDEF"/>
<path d="M332.908 136.947C332.174 136.947 331.476 136.8 330.84 136.535L332.01 135.364C332.298 135.432 332.599 135.468 332.908 135.468C333.986 135.468 334.955 135.033 335.662 134.327C336.368 133.619 336.802 132.65 336.803 131.571C336.803 131.262 336.767 130.963 336.699 130.675L337.871 129.505C338.135 130.141 338.282 130.839 338.282 131.571C338.282 132.154 338.189 132.716 338.018 133.242L334.576 136.682C334.051 136.854 333.49 136.947 332.908 136.947ZM329.371 135.619C328.664 135.001 328.12 134.201 327.813 133.292L329.041 132.064C329.153 132.943 329.556 133.728 330.152 134.326C330.238 134.412 330.327 134.493 330.419 134.57L329.371 135.619ZM327.547 131.174C327.74 128.522 329.857 126.404 332.511 126.21L327.547 131.174ZM335.906 129.084C335.829 128.99 335.747 128.902 335.662 128.816C335.064 128.219 334.28 127.816 333.401 127.706L334.629 126.478C335.538 126.784 336.338 127.327 336.956 128.034L335.906 129.084Z" fill="#E2DDEF"/>
<path d="M327.813 133.292C327.631 132.752 327.532 132.173 327.532 131.571C327.532 131.438 327.537 131.306 327.547 131.174L332.511 126.21C332.642 126.201 332.774 126.195 332.908 126.195C333.51 126.196 334.088 126.295 334.629 126.478L333.401 127.706C333.239 127.685 333.075 127.674 332.908 127.674C331.83 127.675 330.859 128.109 330.153 128.816C329.446 129.524 329.011 130.493 329.011 131.571C329.011 131.738 329.022 131.903 329.042 132.064L327.813 133.292Z" fill="#E6E2F1"/>
<path d="M330.84 136.535C330.3 136.31 329.804 135.999 329.371 135.619L330.419 134.57C330.875 134.948 331.416 135.224 332.01 135.364L330.84 136.535ZM336.7 130.675C336.56 130.08 336.284 129.54 335.906 129.084L336.956 128.034C337.334 128.469 337.645 128.964 337.871 129.505L336.7 130.675Z" fill="#E6E2F1"/>
<path d="M334.576 136.682L338.018 133.241C337.487 134.867 336.202 136.152 334.576 136.682Z" fill="#E6E2F1"/>
</svg>
