<?xml version="1.0" encoding="UTF-8"?>
<svg width="63px" height="63px" viewBox="0 0 63 63" version="1.1" xmlns="http://www.w3.org/2000/svg" xmlns:xlink="http://www.w3.org/1999/xlink">
    <!-- Generator: Sketch 49 (51002) - http://www.bohemiancoding.com/sketch -->
    <title>Group 4</title>
    <desc>Created with Sketch.</desc>
    <defs>
        <linearGradient x1="0%" y1="50%" x2="100%" y2="50%" id="linearGradient-1">
            <stop stop-color="#50BEBE" offset="0%"></stop>
            <stop stop-color="#0099CB" offset="100%"></stop>
        </linearGradient>
    </defs>
    <g id="Page-1" stroke="none" stroke-width="1" fill="none" fill-rule="evenodd">
        <g id="System-Dashboard-Copy-5" transform="translate(-170.000000, -136.000000)">
            <g id="Group-4" transform="translate(170.000000, 136.000000)">
                <rect id="Rectangle-19" fill="url(#linearGradient-1)" x="0" y="0" width="63" height="63" rx="20"></rect>
                <path d="M40.9999733,36.5081672 C41.0077583,38.8437405 39.3115709,40.7930124 37.1046502,40.9847033 C34.8977296,41.1763942 32.9220519,39.5460567 32.5674729,37.2406056 C32.2128939,34.9351544 33.5986245,32.7296924 35.7498269,32.1757244 L35.7498269,27.9293567 C35.176123,27.6683875 34.7187211,27.1859515 34.4712938,26.580848 L30.418072,26.580848 C29.9021458,28.7931371 27.9013841,30.2508608 25.7570601,29.9767886 C23.612736,29.7027164 22,27.7831413 22,25.5049103 C22,23.2266793 23.612736,21.3071041 25.7570601,21.0330319 C27.9013841,20.7589598 29.9021458,22.2166835 30.418072,24.4289725 L34.4712938,24.4289725 C34.8697131,23.4723058 35.7656629,22.8535648 36.7563317,22.8509304 C38.1429818,22.8508459 39.2712847,24.0281059 39.2861949,25.4905644 C39.2433056,26.5293838 38.6708987,27.4624295 37.7900392,27.9293567 L37.7900392,32.1757244 C39.6740301,32.6747913 40.9962241,34.4593544 40.9999733,36.5081672 Z M26.5,18 C25.1192881,18 24,16.8807119 24,15.5 C24,14.1192881 25.1192881,13 26.5,13 C27.8807119,13 29,14.1192881 29,15.5 C29,16.8807119 27.8807119,18 26.5,18 Z M47.5,27 C46.1192881,27 45,25.8807119 45,24.5 C45,23.1192881 46.1192881,22 47.5,22 C48.8807119,22 50,23.1192881 50,24.5 C50,25.8807119 48.8807119,27 47.5,27 Z M36.5,18 C35.1192881,18 34,16.8807119 34,15.5 C34,14.1192881 35.1192881,13 36.5,13 C37.8807119,13 39,14.1192881 39,15.5 C39,16.8807119 37.8807119,18 36.5,18 Z M47.5,39 C46.1192881,39 45,37.8807119 45,36.5 C45,35.1192881 46.1192881,34 47.5,34 C48.8807119,34 50,35.1192881 50,36.5 C50,37.8807119 48.8807119,39 47.5,39 Z M15.5,39 C14.1192881,39 13,37.8807119 13,36.5 C13,35.1192881 14.1192881,34 15.5,34 C16.8807119,34 18,35.1192881 18,36.5 C18,37.8807119 16.8807119,39 15.5,39 Z M26.5,39 C25.1192881,39 24,37.8807119 24,36.5 C24,35.1192881 25.1192881,34 26.5,34 C27.8807119,34 29,35.1192881 29,36.5 C29,37.8807119 27.8807119,39 26.5,39 Z M15.5,27 C14.1192881,27 13,25.8807119 13,24.5 C13,23.1192881 14.1192881,22 15.5,22 C16.8807119,22 18,23.1192881 18,24.5 C18,25.8807119 16.8807119,27 15.5,27 Z M36.5,50 C35.1192881,50 34,48.8807119 34,47.5 C34,46.1192881 35.1192881,45 36.5,45 C37.8807119,45 39,46.1192881 39,47.5 C39,48.8807119 37.8807119,50 36.5,50 Z M26.5,50 C25.1192881,50 24,48.8807119 24,47.5 C24,46.1192881 25.1192881,45 26.5,45 C27.8807119,45 29,46.1192881 29,47.5 C29,48.8807119 27.8807119,50 26.5,50 Z" id="Combined-Shape" fill="#FFFFFF" fill-rule="nonzero"></path>
            </g>
        </g>
    </g>
</svg>