<?xml version="1.0" encoding="UTF-8"?>
<svg width="14px" height="18px" viewBox="0 0 14 18" version="1.1" xmlns="http://www.w3.org/2000/svg" xmlns:xlink="http://www.w3.org/1999/xlink">
    <!-- Generator: Sketch 49 (51002) - http://www.bohemiancoding.com/sketch -->
    <title>Combined Shape</title>
    <desc>Created with Sketch.</desc>
    <defs></defs>
    <g id="Page-1" stroke="none" stroke-width="1" fill="none" fill-rule="evenodd">
        <g id="Date-Filter-—-Range-Same-Month" transform="translate(-773.000000, -985.000000)" fill="#697882" fill-rule="nonzero">
            <g id="Asset-2-Copy" transform="translate(773.000000, 985.000000)">
                <path d="M5.84589892,3.77876847 L2.51362841,6.98171325 C2.06065906,7.41710282 1.32625063,7.41710282 0.873281281,6.98171325 C0.420311929,6.54632368 0.420311929,5.84041772 0.873281281,5.40502815 L6.13922991,0.343451469 L6.31501427,0.204790314 C6.7401846,-0.0682634381 7.29461241,-0.0682634381 7.71978275,0.204790314 L7.89737564,0.345193657 L13.1401263,5.40677033 C13.5920946,5.84311997 13.5904734,6.54902421 13.1365052,6.9834516 C12.682537,7.41787899 11.9481304,7.4163207 11.4961621,6.97997107 L8.16570008,3.7646 L8.16570008,11.0431193 C8.16570008,11.6588531 7.6463949,12.158004 7.0057995,12.158004 C6.3652041,12.158004 5.84589892,11.6588531 5.84589892,11.0431193 L5.84589892,3.77876847 Z M1.15990058,18 C0.519305178,18 0,17.5008491 0,16.8851153 C0,16.2693814 0.519305178,15.7702305 1.15990058,15.7702305 L12.8400994,15.7702305 C13.4806948,15.7702305 14,16.2693814 14,16.8851153 C14,17.5008491 13.4806948,18 12.8400994,18 L1.15990058,18 Z" id="Combined-Shape"></path>
            </g>
        </g>
    </g>
</svg>