<svg width="65" height="65" viewBox="0 0 65 65" fill="none" xmlns="http://www.w3.org/2000/svg">
<g clip-path="url(#clip0)">
<path d="M62.6275 40.8122C62.4281 40.8122 62.2516 40.6868 62.1886 40.4999C61.9979 39.9355 61.7673 39.3788 61.5028 38.8454C61.4147 38.6674 61.4501 38.4531 61.5917 38.3117C62.5167 37.3867 62.5167 35.8814 61.5917 34.9564L59.3131 32.6777C58.3882 31.7529 56.883 31.7529 55.9579 32.6777C55.9566 32.679 55.9552 32.6803 55.9541 32.6815C55.8129 32.8198 55.6006 32.8539 55.4242 32.7666C54.8905 32.5021 54.3338 32.2715 53.7695 32.0809C53.5827 32.0178 53.4573 31.8414 53.4573 31.6419C53.4573 30.3337 52.3929 29.2694 51.0848 29.2694H47.8626C46.5543 29.2694 45.4901 30.3338 45.4901 31.6419C45.4901 31.8414 45.3645 32.0178 45.1777 32.0809C44.6135 32.2715 44.0568 32.5021 43.5232 32.7666C43.3452 32.8549 43.1311 32.8193 42.9899 32.6782C42.9872 32.6756 42.9847 32.673 42.9819 32.6704C42.0563 31.7526 40.5564 31.7552 39.634 32.6777L37.3556 34.9563C36.4306 35.8813 36.4306 37.3865 37.356 38.3119C37.4971 38.4529 37.5327 38.6674 37.4443 38.8454C37.1801 39.3788 36.9495 39.9355 36.7586 40.4999C36.6955 40.6867 36.5191 40.8121 36.3198 40.8121C35.0115 40.8121 33.9473 41.8764 33.9473 43.1846V46.4069C33.9473 47.7152 35.0116 48.7794 36.3198 48.7794C36.5192 48.7794 36.6957 48.9049 36.7586 49.0917C36.9493 49.6562 37.18 50.2129 37.4443 50.7462C37.5326 50.9242 37.4971 51.1386 37.3556 51.28C36.4306 52.205 36.4306 53.7103 37.3556 54.6353L39.6341 56.9138C40.5567 57.8363 42.056 57.8386 42.9815 56.9216C42.9843 56.9188 42.9871 56.916 42.9899 56.9133C43.1311 56.7723 43.3452 56.737 43.5232 56.8248C44.0567 57.0893 44.6132 57.32 45.1778 57.5106C45.3645 57.5737 45.4901 57.7501 45.4901 57.9495C45.4901 59.2578 46.5545 60.322 47.8626 60.322H51.0848C52.393 60.322 53.4573 59.2576 53.4573 57.9495C53.4573 57.7501 53.5827 57.5736 53.7695 57.5106C54.3339 57.32 54.8907 57.0893 55.4242 56.8248C55.6003 56.7374 55.8128 56.7717 55.9538 56.9098L55.9579 56.9138C56.8829 57.8387 58.3879 57.8388 59.3133 56.9138L61.5917 54.6353C62.5167 53.7103 62.5167 52.205 61.5913 51.2797C61.4501 51.1385 61.4146 50.9242 61.503 50.7462C61.7671 50.2127 61.9978 49.6561 62.1886 49.0916C62.2517 48.9049 62.4282 48.7794 62.6275 48.7794C63.9358 48.7794 65 47.7151 65 46.4069V43.1846C65 41.8765 63.9356 40.8122 62.6275 40.8122ZM63.0928 46.4071C63.0928 46.6636 62.8841 46.8725 62.6274 46.8725C61.6091 46.8725 60.7066 47.5192 60.3816 48.4816C60.2182 48.9654 60.0204 49.4425 59.7939 49.8997C59.342 50.8116 59.5222 51.9082 60.2429 52.6289C60.4245 52.8103 60.4245 53.1056 60.2429 53.287L57.9646 55.5655C57.7842 55.7459 57.4917 55.747 57.3099 55.569C57.3087 55.5676 57.3073 55.5664 57.3061 55.5651C56.5858 54.8449 55.4893 54.6645 54.5774 55.1163C54.1201 55.3429 53.643 55.5406 53.1593 55.7041C52.1968 56.0291 51.5502 56.9316 51.5502 57.9499C51.5502 58.2065 51.3415 58.4153 51.0848 58.4153H47.8626C47.6059 58.4153 47.3972 58.2065 47.3972 57.9499C47.3972 56.9316 46.7504 56.029 45.7881 55.7041C45.3044 55.5407 44.8271 55.3429 44.3699 55.1163C44.035 54.9504 43.6753 54.8698 43.3184 54.8698C42.7068 54.8698 42.1036 55.1068 41.6488 55.5577C41.646 55.5604 41.6434 55.5629 41.6408 55.5656C41.4593 55.7471 41.164 55.7471 40.9826 55.5656L38.7042 53.287C38.5227 53.1056 38.5227 52.8103 38.7046 52.6285C39.4248 51.9083 39.6051 50.8117 39.1534 49.8998C38.9267 49.4425 38.729 48.9654 38.5656 48.4817C38.2406 47.5192 37.3381 46.8725 36.3198 46.8725C36.0631 46.8725 35.8544 46.6636 35.8544 46.4071V43.1847C35.8544 42.9282 36.0631 42.7195 36.3198 42.7195C37.3381 42.7195 38.2406 42.0728 38.5656 41.1103C38.729 40.6265 38.9267 40.1494 39.1534 39.6921C39.6051 38.7802 39.4248 37.6836 38.7042 36.963C38.5227 36.7816 38.5227 36.4863 38.7042 36.3049L40.9825 34.0265C41.1642 33.8451 41.4593 33.8453 41.6408 34.0265C41.6432 34.0289 41.6456 34.0313 41.6481 34.0337C42.3684 34.7482 43.4609 34.9261 44.37 34.4755C44.8273 34.2489 45.3044 34.0512 45.7879 33.8878C46.7505 33.5628 47.3972 32.6603 47.3972 31.6419C47.3972 31.3853 47.6059 31.1765 47.8626 31.1765H51.0848C51.3415 31.1765 51.5502 31.3853 51.5502 31.6419C51.5502 32.6602 52.1969 33.5627 53.1593 33.8878C53.6429 34.0511 54.1201 34.2489 54.5774 34.4755C55.4894 34.9275 56.5858 34.7469 57.306 34.0269C57.3074 34.0256 57.3087 34.0242 57.3099 34.0229C57.4917 33.8449 57.7844 33.8462 57.9645 34.0263L60.2429 36.3049C60.4245 36.4863 60.4245 36.7816 60.2426 36.9634C59.5222 37.6837 59.342 38.7804 59.7938 39.6921C60.0204 40.1494 60.2182 40.6265 60.3816 41.1102C60.7066 42.0728 61.6091 42.7195 62.6274 42.7195C62.8841 42.7195 63.0928 42.9282 63.0928 43.1847V46.4071Z" fill="black"/>
<path d="M49.4735 37.5763C45.4926 37.5763 42.2539 40.815 42.2539 44.7959C42.2539 48.7767 45.4926 52.0154 49.4735 52.0154C53.4545 52.0154 56.6932 48.7767 56.6932 44.7959C56.6932 40.815 53.4545 37.5763 49.4735 37.5763ZM49.4735 50.1083C46.5442 50.1083 44.1611 47.7252 44.1611 44.796C44.1611 41.8668 46.5443 39.4836 49.4735 39.4836C52.4027 39.4836 54.7859 41.8668 54.7859 44.796C54.7859 47.7252 52.4028 50.1083 49.4735 50.1083Z" fill="#6946C6"/>
<path d="M36.1583 57.7885L29.4609 61.6552C29.2744 61.7629 29.0789 61.8486 28.8782 61.914V33.0504L53.8746 18.6188C53.9184 18.8253 53.942 19.0374 53.942 19.2528V28.9717C53.942 29.4983 54.3689 29.9252 54.8956 29.9252C55.4223 29.9252 55.8491 29.4983 55.8491 28.9717V19.2528C55.8491 17.4875 54.8923 15.8253 53.359 14.9402L30.4144 1.69298C28.8788 0.806342 26.9706 0.806215 25.4347 1.69298L2.48993 14.9402C0.97208 15.8164 0 17.4696 0 19.2528V45.7471C0 47.5205 0.954053 49.1731 2.48993 50.0597L25.4347 63.3069C26.9704 64.1935 28.8785 64.1938 30.4144 63.3069L37.1118 59.4401C37.5678 59.1768 37.7243 58.5936 37.4608 58.1375C37.1977 57.6815 36.6142 57.5251 36.1583 57.7885ZM26.9709 61.9138C26.7702 61.8486 26.5747 61.7629 26.3882 61.6552L3.44348 48.4081C2.4959 47.8609 1.90722 46.8413 1.90722 45.7471V19.2528C1.90722 19.0374 1.93083 18.8253 1.97463 18.6188L26.9709 33.0504V61.9138ZM2.92817 16.9671C3.08509 16.8259 3.25698 16.6993 3.44348 16.5917L26.3882 3.34464C27.3361 2.7976 28.5134 2.7976 29.4609 3.34464L52.4056 16.5918C52.5921 16.6995 52.7641 16.826 52.9211 16.9672L27.9245 31.3989L2.92817 16.9671Z" fill="black"/>
</g>
<defs>
<clipPath id="clip0">
<rect width="65" height="65" fill="white"/>
</clipPath>
</defs>
</svg>
