<svg width="59" height="59" viewBox="0 0 59 59" fill="none" xmlns="http://www.w3.org/2000/svg">
<path d="M0.18347 5.32047L4.05161 12.0893C4.18208 12.318 4.40047 12.4835 4.65585 12.5476L8.26463 13.4498L20.642 25.8271L22.0096 24.4599L9.43852 11.8892C9.31481 11.7651 9.15967 11.6772 8.98981 11.6346L5.52225 10.7647L2.22892 4.99826L5.05245 2.17473L10.8212 5.47124L11.6916 8.9388C11.7338 9.10905 11.8221 9.26459 11.9458 9.3883L24.5169 21.9594L25.8841 20.5917L13.5067 8.21442L12.6046 4.60763C12.5405 4.35185 12.375 4.13306 12.1463 4.00219L5.37705 0.134449C4.99955 -0.0803594 4.52458 -0.0167125 4.21669 0.289986L0.348952 4.15812C0.0378782 4.46403 -0.0297465 4.93979 0.18347 5.32047Z" fill="black"/>
<path d="M40.3864 19.0579L19.1129 40.3318L17.7452 38.9642L39.0192 17.6907L40.3864 19.0579Z" fill="#6946C6"/>
<path d="M15.3895 41.0845C15.2145 40.7933 14.9002 40.6155 14.5605 40.6155H8.75871C8.41939 40.6155 8.10474 40.7933 7.93011 41.0845L5.029 45.9193C4.84482 46.2256 4.84482 46.6086 5.029 46.9153L7.93011 51.7501C8.10474 52.0409 8.41939 52.2191 8.75871 52.2191H14.5605C14.9002 52.2191 15.2145 52.0409 15.3895 51.7501L18.2902 46.9153C18.4744 46.6086 18.4744 46.2256 18.2902 45.9193L15.3895 41.0845ZM14.0136 50.2851H9.30607L6.98535 46.4173L9.30607 42.5492H14.0136L16.3343 46.4173L14.0136 50.2851Z" fill="#6946C6"/>
<path d="M46.4711 23.2096C52.8576 23.2311 58.0528 18.0709 58.0743 11.6843C58.0775 10.7121 57.9581 9.74391 57.7191 8.80154C57.5902 8.28321 57.0655 7.96776 56.5472 8.09665C56.3769 8.13921 56.2218 8.22713 56.0976 8.35084L50.0782 14.3663L45.3023 12.7747L43.7096 7.99999L49.729 1.97939C50.1065 1.60149 50.1061 0.989288 49.7282 0.611783C49.6037 0.487274 49.4469 0.398964 49.2755 0.356798C43.0819 -1.2117 36.79 2.5375 35.2215 8.73073C34.9832 9.67032 34.8643 10.6362 34.8674 11.6056C34.8698 12.367 34.9482 13.1259 35.1025 13.8714L13.9252 35.0483C13.1798 34.8944 12.4208 34.816 11.6598 34.8132C5.25096 34.8132 0.0557861 40.0084 0.0557861 46.4172C0.0557861 52.8257 5.25096 58.0208 11.6598 58.0208C18.0682 58.0208 23.2634 52.8257 23.2634 46.4172C23.261 45.6558 23.1823 44.8968 23.0283 44.1514L28.0982 39.0815L30.3155 41.2988C30.6934 41.6763 31.3052 41.6763 31.6831 41.2988L32.1664 40.8151C32.5905 40.3938 33.2759 40.3938 33.6999 40.8151C34.1236 41.2376 34.1244 41.9233 33.7019 42.347C33.7015 42.3474 33.7007 42.3482 33.6999 42.349L33.2166 42.8323C32.8391 43.2098 32.8391 43.822 33.2166 44.1995L44.7518 55.7347C47.7858 58.7965 52.7271 58.8188 55.789 55.7848C58.8504 52.7509 58.8727 47.8091 55.8387 44.7477C55.8224 44.731 55.8057 44.7143 55.789 44.6976L44.2538 33.1628C43.8763 32.7853 43.2641 32.7853 42.8865 33.1628L42.4032 33.6461C41.9788 34.0677 41.2938 34.0677 40.8693 33.6461C40.4461 33.2236 40.4449 32.5378 40.8674 32.1146C40.8681 32.1138 40.8689 32.1134 40.8693 32.1126L41.3531 31.6289C41.7306 31.2514 41.7306 30.6392 41.3531 30.2617L39.1358 28.0444L44.2056 22.9745C44.9511 23.1284 45.7101 23.2072 46.4711 23.2096ZM50.2704 56.0872C49.5679 56.086 48.8713 55.9591 48.2138 55.712L55.7659 48.1595C56.9056 51.1911 55.3721 54.5724 52.3405 55.712C51.679 55.9607 50.9777 56.0879 50.2704 56.0872ZM39.3156 30.955C38.2447 32.2323 38.4126 34.1362 39.6899 35.2066C40.8125 36.1474 42.4486 36.1466 43.57 35.2038L54.4217 46.0652C54.5395 46.1833 54.6497 46.3078 54.7563 46.4343L46.4886 54.702C46.3617 54.5958 46.2372 54.4856 46.119 54.3675L35.2589 43.5066C36.3297 42.2293 36.1619 40.3254 34.8845 39.255C33.762 38.3138 32.1255 38.315 31.0041 39.2573L29.4571 37.7103L37.7681 29.4116L39.3156 30.955ZM43.2203 21.2294L21.284 43.1613C21.0433 43.4015 20.9467 43.7504 21.0286 44.0802C22.3553 49.2901 19.2071 54.5891 13.9968 55.9153C8.78694 57.2419 3.48794 54.0938 2.1613 48.8835C0.835062 43.6736 3.9832 38.3746 9.19349 37.048C10.7695 36.647 12.4208 36.647 13.9968 37.048C14.3266 37.1288 14.6747 37.0321 14.9157 36.793L36.8469 14.8607C37.0871 14.6205 37.1838 14.2716 37.101 13.9422C35.7836 8.79319 38.8895 3.55107 44.0386 2.23319C45.0116 1.98457 46.018 1.8891 47.0204 1.95155L41.9195 7.05443C41.6605 7.313 41.5699 7.69607 41.6856 8.04335L43.6193 13.8455C43.7159 14.1339 43.9427 14.3607 44.2315 14.4566L50.0337 16.3906C50.3806 16.5064 50.7636 16.4161 51.0226 16.1575L56.1235 11.0566C56.135 11.2412 56.141 11.4238 56.141 11.6056C56.1681 16.9189 51.883 21.2481 46.5697 21.2755C45.7483 21.2795 44.9296 21.1785 44.134 20.9748C43.8043 20.8924 43.4554 20.9887 43.2151 21.229H43.2203V21.2294Z" fill="black"/>
<path d="M50.0567 48.6342L48.6891 50.0018L39.0195 40.3322L40.3867 38.9646L50.0567 48.6342Z" fill="#6946C6"/>
</svg>
