<svg width="239" height="36" viewBox="0 0 239 36" fill="none" xmlns="http://www.w3.org/2000/svg">
<path d="M63.2212 2.91477C67.2022 2.91477 70.3217 3.86641 72.5796 5.7697C74.8376 7.67299 75.9665 10.29 75.9665 13.6208C75.9665 16.9515 74.8376 19.5685 72.5796 21.4718C70.3217 23.3454 67.2022 24.2822 63.2212 24.2822H54.8432V34.1406H51.5454V2.91477H63.2212ZM63.1321 21.3826C66.2218 21.3826 68.5837 20.7135 70.2177 19.3752C71.8518 18.0072 72.6688 16.0891 72.6688 13.6208C72.6688 11.093 71.8518 9.15993 70.2177 7.82168C68.5837 6.4537 66.2218 5.7697 63.1321 5.7697H54.8432V21.3826H63.1321Z" fill="black"/>
<path d="M82.8638 1.04122H86.0279V34.1406H82.8638V1.04122Z" fill="black"/>
<path d="M103.032 10.4982C106.092 10.4982 108.439 11.2714 110.073 12.8178C111.707 14.3345 112.524 16.5947 112.524 19.5983V34.1406H109.493V30.4827C108.78 31.702 107.726 32.6537 106.329 33.3376C104.963 34.0216 103.329 34.3636 101.427 34.3636C98.8128 34.3636 96.7331 33.7391 95.1882 32.4901C93.6433 31.2411 92.8709 29.5905 92.8709 27.5386C92.8709 25.5461 93.5839 23.9402 95.01 22.7209C96.4657 21.5016 98.7682 20.8919 101.917 20.8919H109.36V19.4645C109.36 17.4422 108.795 15.9107 107.666 14.8698C106.537 13.7992 104.888 13.2639 102.72 13.2639C101.234 13.2639 99.808 13.5167 98.4414 14.0222C97.0748 14.4981 95.9013 15.1672 94.9209 16.0296L93.4948 13.6654C94.6832 12.6543 96.1092 11.881 97.7729 11.3457C99.4367 10.7807 101.19 10.4982 103.032 10.4982ZM101.917 31.8656C103.7 31.8656 105.23 31.4641 106.508 30.6611C107.785 29.8285 108.736 28.6389 109.36 27.0925V23.2562H102.007C97.9958 23.2562 95.9904 24.6539 95.9904 27.4493C95.9904 28.8173 96.5103 29.9028 97.5501 30.7058C98.59 31.479 100.046 31.8656 101.917 31.8656Z" fill="black"/>
<path d="M133.462 32.7131C132.868 33.2484 132.125 33.6648 131.234 33.9622C130.372 34.2298 129.466 34.3636 128.515 34.3636C126.317 34.3636 124.623 33.7689 123.435 32.5793C122.247 31.3897 121.652 29.7095 121.652 27.5386V13.3531H117.463V10.6766H121.652V5.54666H124.816V10.6766H131.947V13.3531H124.816V27.3601C124.816 28.7579 125.158 29.8285 125.841 30.5719C126.554 31.2857 127.564 31.6425 128.872 31.6425C129.525 31.6425 130.149 31.5384 130.743 31.3303C131.367 31.1221 131.902 30.8247 132.348 30.4381L133.462 32.7131Z" fill="black"/>
<path d="M146.976 3.49468C145.609 3.49468 144.569 3.86641 143.856 4.60988C143.173 5.35336 142.831 6.4537 142.831 7.9109V10.6766H150.051V13.3531H142.921V34.1406H139.756V13.3531H135.567V10.6766H139.756V7.77708C139.756 5.63588 140.366 3.94076 141.584 2.69173C142.831 1.44269 144.584 0.818176 146.842 0.818176C147.733 0.818176 148.595 0.952002 149.427 1.21965C150.259 1.45756 150.957 1.81443 151.521 2.29025L150.452 4.65449C149.531 3.88128 148.372 3.49468 146.976 3.49468Z" fill="black"/>
<path d="M163.513 34.3636C161.255 34.3636 159.22 33.8581 157.407 32.847C155.595 31.8061 154.169 30.3786 153.129 28.5646C152.089 26.7505 151.569 24.6985 151.569 22.4086C151.569 20.1187 152.089 18.0667 153.129 16.2527C154.169 14.4386 155.595 13.026 157.407 12.0149C159.22 11.0037 161.255 10.4982 163.513 10.4982C165.77 10.4982 167.806 11.0037 169.618 12.0149C171.43 13.026 172.841 14.4386 173.851 16.2527C174.891 18.0667 175.411 20.1187 175.411 22.4086C175.411 24.6985 174.891 26.7505 173.851 28.5646C172.841 30.3786 171.43 31.8061 169.618 32.847C167.806 33.8581 165.77 34.3636 163.513 34.3636ZM163.513 31.5533C165.176 31.5533 166.662 31.1816 167.969 30.4381C169.306 29.6649 170.346 28.5794 171.088 27.1817C171.831 25.784 172.203 24.1929 172.203 22.4086C172.203 20.6243 171.831 19.0332 171.088 17.6355C170.346 16.2378 169.306 15.1672 167.969 14.4237C166.662 13.6505 165.176 13.2639 163.513 13.2639C161.849 13.2639 160.349 13.6505 159.012 14.4237C157.704 15.1672 156.665 16.2378 155.892 17.6355C155.149 19.0332 154.778 20.6243 154.778 22.4086C154.778 24.1929 155.149 25.784 155.892 27.1817C156.665 28.5794 157.704 29.6649 159.012 30.4381C160.349 31.1816 161.849 31.5533 163.513 31.5533Z" fill="black"/>
<path d="M184.901 15.2713C185.644 13.6951 186.743 12.5056 188.199 11.7026C189.684 10.8997 191.512 10.4982 193.68 10.4982V13.5762L192.923 13.5315C190.457 13.5315 188.526 14.2899 187.129 15.8066C185.733 17.3233 185.035 19.4496 185.035 22.1856V34.1406H181.871V10.6766H184.901V15.2713Z" fill="black"/>
<path d="M228.643 10.4982C231.585 10.4982 233.887 11.3457 235.551 13.0409C237.244 14.736 238.091 17.234 238.091 20.5351V34.1406H234.927V20.8473C234.927 18.4087 234.333 16.55 233.144 15.2713C231.986 13.9925 230.337 13.3531 228.198 13.3531C225.761 13.3531 223.845 14.1115 222.449 15.6281C221.053 17.1151 220.354 19.1819 220.354 21.8287V34.1406H217.19V20.8473C217.19 18.4087 216.596 16.55 215.408 15.2713C214.249 13.9925 212.585 13.3531 210.417 13.3531C208.01 13.3531 206.094 14.1115 204.668 15.6281C203.271 17.1151 202.573 19.1819 202.573 21.8287V34.1406H199.409V10.6766H202.44V14.959C203.271 13.5315 204.43 12.4312 205.916 11.658C207.401 10.8848 209.109 10.4982 211.04 10.4982C213.001 10.4982 214.695 10.9145 216.121 11.7472C217.577 12.5799 218.661 13.8141 219.374 15.4497C220.236 13.9033 221.468 12.6989 223.073 11.8364C224.707 10.9443 226.564 10.4982 228.643 10.4982Z" fill="black"/>
<path d="M26.0716 36L18.7167 24.84L11.4634 36H0L12.9343 17.7943L0.557952 0H11.8692L18.9704 10.3886L25.9701 0H36.8248L24.4484 17.3829L37.6364 36H26.0716Z" fill="#6946C6"/>
</svg>
