<svg width="38" height="39" viewBox="0 0 38 39" fill="none" xmlns="http://www.w3.org/2000/svg">
<path d="M38 19.0112C38.0001 16.5129 36.6606 14.1807 34.1265 12.2672C33.881 12.082 33.532 12.1306 33.3468 12.376C33.1615 12.6214 33.2102 12.9705 33.4555 13.1557C35.7002 14.8507 36.8868 16.8755 36.8868 19.0113C36.8868 26.0823 23.9225 30.9766 11.6823 28.0596C0.725346 25.354 -1.85813 17.9263 4.63401 13.0907C4.80917 12.9602 4.89188 12.7394 4.8454 12.5259C4.79892 12.3125 4.63194 12.1459 4.4184 12.1001C3.74504 11.9555 3.65497 11.9655 3.55117 11.8049C3.37691 11.5355 3.61547 11.1837 3.93281 11.2521C6.881 11.885 6.76465 11.8234 6.87402 11.9925C6.98435 12.1633 6.97218 12.0423 6.34181 14.9784C6.3006 15.1701 6.10629 15.2997 5.91005 15.2575C5.81509 15.2371 5.73379 15.1809 5.68099 15.0994C5.62828 15.0178 5.61053 14.9207 5.63088 14.8256L5.72042 14.4085C5.82927 13.9012 5.24189 13.5334 4.833 13.8534C-3.0444 20.0194 5.52106 28.1894 18.9997 28.1894C28.3293 28.1894 36.1597 24.1106 36.1597 19.0115C36.1597 16.602 34.4043 14.3193 31.2169 12.5839C30.443 12.1626 29.595 11.7806 28.6922 11.4463C28.6179 11.1445 28.5329 10.8237 28.4683 10.5956C29.467 10.9402 30.4075 11.3413 31.2743 11.7928C31.5471 11.9349 31.8831 11.829 32.0251 11.5563C32.1672 11.2835 32.0613 10.9474 31.7887 10.8055C30.6541 10.2144 29.4022 9.70754 28.0658 9.2945C24.285 -1.85593 15.3482 -2.96246 10.5146 5.91455C7.55859 11.343 6.95146 18.7816 8.0545 24.8387C5.63481 23.673 2.95421 21.6651 2.95421 19.0113C2.95421 17.8104 3.53246 16.6139 4.63825 15.5063C4.66884 15.5741 4.70477 15.6401 4.74591 15.7038C4.96004 16.035 5.29037 16.263 5.67543 16.3457C5.77774 16.3679 5.88251 16.379 5.98712 16.379C6.6783 16.379 7.28514 15.8881 7.43014 15.2119L8.0124 12.5C8.09541 12.1142 8.02302 11.7192 7.80866 11.3879C7.59453 11.0568 7.26435 10.8288 6.87848 10.7458L4.16625 10.1635C2.88398 9.88841 1.90404 11.3077 2.61594 12.4094C2.74528 12.6095 2.91716 12.7719 3.11793 12.8875C-2.3674 17.734 -0.729778 24.9601 8.94281 28.4004C9.31732 29.5569 9.76222 30.6468 10.269 31.6421C10.4086 31.916 10.744 32.0249 11.0177 31.8855C11.2917 31.746 11.4006 31.4108 11.2611 31.1369C10.8948 30.4174 10.5614 29.6448 10.2658 28.8301C10.5512 28.9141 10.8399 28.9938 11.1323 29.0693C14.6069 37.95 21.2459 38.4047 25.1272 30.9631C25.1721 30.8769 25.2479 30.8135 25.3406 30.7844C25.6495 30.6877 25.9209 31.0136 25.7721 31.2993C22.2461 38.0586 16.5173 38.6489 12.608 33.3406C12.4257 33.093 12.0772 33.04 11.8297 33.2224C11.5822 33.4047 11.5293 33.7532 11.7116 34.0007C15.1845 38.7165 19.8036 39.0279 23.2919 36.2343C24.6157 35.1742 25.7822 33.6871 26.7594 31.8141C27.1358 31.092 26.8548 30.1982 26.1328 29.8216C25.409 29.4442 24.5179 29.7241 24.1403 30.448C20.7641 36.9211 15.615 36.5656 12.4658 29.3781C14.5309 29.8058 16.7364 30.0296 18.9996 30.0296C29.2605 30.0296 38 25.3989 38 19.0112ZM30.6844 13.5616C33.4972 15.093 35.0462 17.0285 35.0462 19.0113C35.0462 24.7425 22.3472 29.1815 11.3413 26.0682C10.7795 23.8663 10.4939 21.4941 10.4939 19.0109C10.4939 10.0709 14.3321 2.96555 18.5587 2.96555C21.3521 2.96555 23.4257 5.92591 24.5706 8.46135C20.9729 7.83871 17.0744 7.83722 13.4833 8.45274C13.0945 8.51934 12.7548 8.73348 12.527 9.05557C12.2993 9.37758 12.2105 9.76909 12.2772 10.1579C12.3991 10.8692 13.0106 11.3855 13.7314 11.3855C13.8151 11.3855 13.8996 11.3783 13.9824 11.3641C17.7113 10.7252 21.936 10.8026 25.7132 11.7088C26.3081 13.9449 26.623 16.4288 26.623 19.0108C26.623 19.2399 26.6204 19.4706 26.615 19.7022C26.4035 19.5894 26.165 19.5284 25.9189 19.5284C25.5685 19.5284 25.2283 19.6537 24.9616 19.8811C24.3417 20.4091 24.267 21.343 24.7953 21.9632L26.5943 24.0746C26.8503 24.375 27.2078 24.5576 27.6008 24.589C27.9937 24.6201 28.3798 24.4936 28.6764 24.2409L30.7879 22.4415C31.4077 21.9133 31.4822 20.9793 30.9539 20.3596C30.6729 20.0298 30.2629 19.8406 29.8294 19.8406C29.7405 19.8406 29.6524 19.8486 29.5659 19.8644C29.5732 19.5792 29.5767 19.2942 29.5767 19.0109C29.5767 16.849 29.3729 14.7397 28.982 12.7553C29.5829 13.0028 30.1531 13.2724 30.6844 13.5616ZM25.0718 9.68594C25.1685 9.94662 25.2614 10.213 25.3499 10.484C21.6519 9.6895 17.5213 9.62817 13.7941 10.2668C13.5952 10.3007 13.4081 10.1656 13.3746 9.96979C13.3406 9.77184 13.4733 9.58399 13.6715 9.55014C17.3433 8.92073 21.3846 8.95518 25.0718 9.68594ZM11.4924 6.44692C13.361 3.01507 15.8705 1.12507 18.5586 1.12507C24.184 1.12507 28.4634 9.33756 28.4634 19.0109C28.4634 19.6083 28.4465 20.2139 28.4135 20.8108C28.4011 21.0331 28.5225 21.2415 28.722 21.3404C28.9214 21.439 29.1608 21.4098 29.3303 21.2653L29.5939 21.0407C29.6782 20.9689 29.7684 20.9538 29.8293 20.9538C29.9362 20.9538 30.0373 21.0004 30.1065 21.0816C30.2365 21.2341 30.2181 21.464 30.0656 21.5941C27.7668 23.553 27.8893 23.4954 27.6891 23.4791C27.5924 23.4714 27.5046 23.4265 27.4416 23.3526L25.6425 21.2414C25.5125 21.0887 25.5308 20.8587 25.6834 20.7286C25.7678 20.6568 25.858 20.6418 25.9189 20.6418C26.0257 20.6418 26.1268 20.6883 26.196 20.7695L26.6924 21.3521C26.8395 21.5247 27.0767 21.5909 27.2917 21.5193C27.5069 21.4477 27.6572 21.2528 27.6716 21.0264C27.7145 20.3537 27.7362 19.6756 27.7362 19.0108C27.7362 9.67391 23.6544 1.85219 18.5587 1.85219C11.9733 1.85219 7.56409 14.5343 10.1009 25.6775C9.82681 25.5823 9.55737 25.4825 9.29378 25.3785C8.03096 19.3492 8.57261 11.8089 11.4924 6.44692Z" fill="white"/>
</svg>
