<svg width="27" height="25" viewBox="0 0 27 25" fill="none" xmlns="http://www.w3.org/2000/svg">
<path d="M26.8782 9.37643C26.5538 8.41701 25.6683 7.79708 24.6224 7.79708H17.8777L15.7537 1.5734C15.4272 0.61667 14.5436 0 13.5007 0C13.4974 0 13.494 -2.79495e-08 13.4907 5.08482e-05C12.4435 0.00401919 11.5603 0.628321 11.2406 1.59054L9.17853 7.79708H2.37762C1.32909 7.79708 0.442959 8.41909 0.120164 9.38167C-0.202685 10.3442 0.137827 11.3493 0.987684 11.942L6.49035 15.7798L4.37229 21.9862C4.04449 22.9467 4.37931 23.9532 5.22526 24.5502C5.65014 24.85 6.13781 25 6.6258 25C7.10936 24.9999 7.59319 24.8526 8.01595 24.5577L13.5282 20.7134L18.9749 24.5513C19.8199 25.1467 20.9142 25.1496 21.7627 24.5588C22.6112 23.9679 22.953 22.9649 22.6337 22.0034L20.5658 15.7798L26.0217 11.9354C26.8664 11.3403 27.2026 10.3358 26.8782 9.37643Z" fill="#6946C6"/>
</svg>
