<svg width="40" height="36" viewBox="0 0 40 36" fill="none" xmlns="http://www.w3.org/2000/svg">
<path d="M16.5343 19.0286V16.6848H14.9359C14.8328 16.3044 14.682 15.9442 14.489 15.6106L15.6203 14.4793L13.9632 12.8215L12.8312 13.9535C12.4976 13.7606 12.1374 13.609 11.7569 13.5067V11.9082H9.41315V13.5067C9.03268 13.609 8.67252 13.7606 8.33892 13.9535L7.20687 12.8215L5.54982 14.4793L6.68108 15.6106C6.48889 15.9442 6.33733 16.3044 6.2342 16.6848H4.63574V19.0286H6.2342C6.33733 19.4091 6.48889 19.7692 6.68108 20.1036L5.54982 21.2349L7.20687 22.8919L8.33892 21.7607C8.67252 21.9537 9.03268 22.1052 9.41315 22.2076V23.806H11.7569V22.2076C12.1374 22.1052 12.4976 21.9537 12.8312 21.7607L13.9632 22.8919L15.6203 21.2349L14.489 20.1036C14.682 19.77 14.8328 19.4091 14.9359 19.0286H16.5343ZM10.585 20.0193C9.39284 20.0193 8.42251 19.049 8.42251 17.8568C8.42251 16.6646 9.39284 15.6951 10.585 15.6951C11.7772 15.6951 12.7476 16.6646 12.7476 17.8568C12.7476 19.0489 11.7772 20.0193 10.585 20.0193Z" fill="white"/>
<path d="M23.4648 16.6848V19.0286H25.0633C25.1664 19.4091 25.318 19.7692 25.5102 20.1036L24.3789 21.2349L26.036 22.8919L27.168 21.7607C27.5016 21.9537 27.8618 22.1052 28.2423 22.2076V23.806H30.586V22.2076C30.9665 22.1052 31.3267 21.9537 31.6603 21.7607L32.7923 22.8919L34.4494 21.2349L33.3181 20.1036C33.5111 19.77 33.6619 19.4091 33.765 19.0286H35.3635V16.6848H33.765C33.6619 16.3044 33.5111 15.9442 33.3181 15.6106L34.4494 14.4793L32.7923 12.8215L31.6603 13.9535C31.3267 13.7606 30.9665 13.609 30.586 13.5067V11.9082H28.2423V13.5067C27.8618 13.609 27.5016 13.7606 27.168 13.9535L26.036 12.8215L24.3789 14.4793L25.5102 15.6106C25.318 15.9442 25.1664 16.3044 25.0633 16.6848H23.4648ZM29.4141 15.695C30.6064 15.695 31.5767 16.6645 31.5767 17.8567C31.5767 19.0489 30.6064 20.0193 29.4141 20.0193C28.2219 20.0193 27.2516 19.0489 27.2516 17.8567C27.2516 16.6645 28.2219 15.695 29.4141 15.695Z" fill="white"/>
<path d="M39.9964 17.5932C39.9253 14.8135 38.7721 12.215 36.7502 10.2751C34.7408 8.34777 32.0986 7.28604 29.3118 7.28604C28.4986 7.28604 27.8368 6.62431 27.8368 5.81102V3.82193L29.2509 4.88757L30.6619 3.01645L26.6618 0L22.6954 3.01957L24.1149 4.88444L25.493 3.83521V5.81102C25.493 7.91652 27.2064 9.62982 29.3118 9.62982C33.7978 9.62982 37.5393 13.2291 37.6534 17.6534C37.7112 19.8987 36.8815 22.0191 35.3174 23.6238C33.7525 25.23 31.6556 26.1144 29.4142 26.1144C24.8696 26.1144 21.1719 22.4167 21.1719 17.8721V17.8565C21.1719 16.1143 20.7492 14.4697 20 13.0189C18.2406 9.60794 14.6804 7.27041 10.5858 7.27041C7.70686 7.27041 5.01386 8.40637 3.00367 10.4689C0.995051 12.5306 -0.0705884 15.2533 0.00363133 18.1354C0.0747261 20.9151 1.22787 23.5136 3.24977 25.4535C5.25995 27.3808 7.9014 28.4426 10.6882 28.4426C11.5014 28.4426 12.1632 29.1043 12.1632 29.9176V31.902L10.7553 30.841L9.34439 32.7122L13.3444 35.7286L17.3109 32.709L15.8906 30.8442L14.507 31.8981V29.9176C14.507 27.8121 12.7937 26.0988 10.6882 26.0988C6.20215 26.0988 2.4607 22.4995 2.34663 18.0752C2.28882 15.8299 3.11852 13.7096 4.6826 12.1049C6.24747 10.4986 8.34437 9.61419 10.5858 9.61419C15.1304 9.61419 18.8281 13.3119 18.8281 17.8565V17.8721C18.8281 19.6143 19.2508 21.2589 20 22.7097C21.7594 26.1207 25.3196 28.4582 29.4142 28.4582C32.2931 28.4582 34.9861 27.3223 36.9963 25.2597C39.0049 23.198 40.0706 20.4753 39.9964 17.5932Z" fill="white"/>
</svg>
