<svg width="26" height="26" viewBox="0 0 26 26" fill="none" xmlns="http://www.w3.org/2000/svg">
<g clip-path="url(#clip0)">
<path d="M10.8391 1.73828C5.81521 1.73828 1.74255 5.81094 1.74255 10.8348C1.74255 15.8587 5.81521 19.9314 10.8391 19.9314C15.863 19.9314 19.9357 15.8587 19.9357 10.8348C19.9302 5.81321 15.8607 1.74375 10.8391 1.73828ZM10.8391 2.60462C13.5148 2.60673 16.0221 3.91079 17.5602 6.10029L16.4772 7.18322C16.2137 7.02376 15.912 6.93842 15.604 6.93631C14.647 6.93631 13.8713 7.71206 13.8713 8.66899C13.8728 8.97735 13.9577 9.27954 14.1169 9.54356L11.2805 12.3799C10.7434 12.0525 10.0684 12.0525 9.53137 12.3799L7.56131 10.4099C7.72056 10.1459 7.80541 9.84369 7.80692 9.53533C7.80811 8.5803 7.03491 7.80514 6.07988 7.80395C5.29005 7.80297 4.59995 8.33723 4.40308 9.10216H2.79602C3.61617 5.3148 6.96397 2.6103 10.8391 2.60462ZM16.4703 8.66899C16.4703 9.14748 16.0825 9.53533 15.604 9.53533C15.1255 9.53533 14.7376 9.14748 14.7376 8.66899C14.7376 8.1905 15.1255 7.80265 15.604 7.80265C16.0825 7.80265 16.4703 8.1905 16.4703 8.66899ZM11.2723 13.867C11.2723 14.3455 10.8844 14.7334 10.4059 14.7334C9.92745 14.7334 9.5396 14.3455 9.5396 13.867C9.5396 13.3885 9.92745 13.0007 10.4059 13.0007C10.8844 13.0007 11.2723 13.3885 11.2723 13.867ZM6.94058 9.53533C6.94058 10.0138 6.55273 10.4017 6.07424 10.4017C5.59576 10.4017 5.20791 10.0138 5.20791 9.53533C5.20791 9.05684 5.59576 8.66899 6.07424 8.66899C6.55273 8.66899 6.94058 9.05684 6.94058 9.53533ZM14.838 18.0312C13.6147 18.7104 12.2383 19.0662 10.8391 19.065C6.29679 19.0681 2.61198 15.3884 2.60889 10.846C2.60868 10.5529 2.62416 10.2599 2.65524 9.96844H4.40308C4.60001 10.7311 5.28658 11.265 6.07424 11.2679C6.38261 11.2664 6.6848 11.1816 6.94881 11.0223L8.91887 12.9924C8.75962 13.2564 8.67478 13.5586 8.67326 13.867C8.67326 14.8239 9.44901 15.5996 10.4059 15.5996C11.3629 15.5996 12.1386 14.8239 12.1386 13.867C12.1371 13.5586 12.0522 13.2564 11.893 12.9924L14.7294 10.156C14.9934 10.3152 15.2956 10.4001 15.604 10.4016C16.5609 10.4016 17.3366 9.62586 17.3366 8.66893C17.3351 8.36057 17.2503 8.05838 17.091 7.79436L18.0353 6.85049C20.2399 10.8209 18.8084 15.8267 14.838 18.0312Z" fill="black"/>
<path d="M21.6683 4.33894C22.456 4.33596 23.1425 3.80214 23.3395 3.03943H26V2.1731H23.3395C23.1425 1.41039 22.456 0.876567 21.6683 0.873589C20.7114 0.873589 19.9356 1.64934 19.9356 2.60627C19.9371 2.91463 20.022 3.21682 20.1812 3.48083L19.4201 4.24191C15.7785 -0.502427 8.98039 -1.39638 4.23605 2.24522C-0.508286 5.88682 -1.40224 12.685 2.23936 17.4294C5.67677 21.9076 11.9778 22.994 16.7163 19.9252L18.0236 21.2325L18.6361 21.845L22.1231 25.332C23.01 26.2189 24.4478 26.2189 25.3346 25.332C26.2215 24.4452 26.2215 23.0074 25.3346 22.1205L21.8476 18.6335L21.2351 18.021L19.9278 16.7137C22.2485 13.1392 22.2485 8.5338 19.9278 4.95924L20.7942 4.0929C21.058 4.2522 21.3601 4.33721 21.6683 4.33894ZM21.6683 1.73993C22.1468 1.73993 22.5346 2.12778 22.5346 2.60627C22.5346 3.08475 22.1468 3.4726 21.6683 3.4726C21.1898 3.4726 20.802 3.08475 20.802 2.60627C20.802 2.12778 21.1899 1.73993 21.6683 1.73993ZM24.7221 22.733C25.2769 23.2754 25.287 24.1648 24.7447 24.7195C24.2024 25.2743 23.313 25.2845 22.7582 24.7421C22.7506 24.7347 22.7431 24.7272 22.7356 24.7195L19.2486 21.2325L21.2351 19.246L24.7221 22.733ZM20.6226 18.6335L18.6361 20.62L17.4371 19.421C17.4982 19.3742 17.5554 19.3227 17.6156 19.2746C17.6758 19.2265 17.7455 19.1689 17.8101 19.1148C17.9049 19.0351 17.9985 18.9545 18.0903 18.8718C18.1375 18.8284 18.1826 18.7851 18.2289 18.7418C18.4065 18.5755 18.5785 18.4035 18.7448 18.2259C18.7882 18.1796 18.8315 18.1345 18.8748 18.0873C18.9575 17.9955 19.0381 17.9019 19.1178 17.807C19.1721 17.7429 19.2254 17.6781 19.2776 17.6125C19.3253 17.5528 19.3768 17.4956 19.4236 17.4345L20.6226 18.6335ZM18.9428 16.6215C18.8063 16.812 18.6656 16.9987 18.517 17.1785C18.4737 17.2309 18.4273 17.2816 18.3827 17.3331C18.2502 17.4874 18.1133 17.637 17.9721 17.7819C17.9106 17.8454 17.848 17.908 17.7845 17.9695C17.6401 18.1107 17.4905 18.2476 17.3357 18.3801C17.2842 18.4234 17.2335 18.4707 17.1811 18.5144C17.0013 18.663 16.8146 18.8038 16.624 18.9402C12.1399 22.1438 5.90771 21.1056 2.70415 16.6215C-0.499406 12.1373 0.538737 5.90512 5.0229 2.70156C9.50707 -0.501994 15.7392 0.536096 18.9428 5.02032C21.4217 8.49011 21.4217 13.1517 18.9428 16.6215Z" fill="black"/>
</g>
<defs>
<clipPath id="clip0">
<rect width="26" height="26" fill="white"/>
</clipPath>
</defs>
</svg>
