<svg width="40" height="40" viewBox="0 0 40 40" fill="none" xmlns="http://www.w3.org/2000/svg">
<path d="M26.4712 12.1211C26.05 12.1211 25.708 12.4702 25.708 12.902C25.708 13.3336 26.05 13.6833 26.4712 13.6833C26.8934 13.6833 27.2344 13.3336 27.2344 12.902C27.2344 12.4702 26.8934 12.1211 26.4712 12.1211Z" fill="white"/>
<path d="M12.604 26.3164C12.1819 26.3164 11.8408 26.6664 11.8408 27.0977C11.8408 27.5298 12.1819 27.8789 12.604 27.8789C13.0253 27.8789 13.3672 27.5298 13.3672 27.0977C13.3672 26.6664 13.0253 26.3164 12.604 26.3164Z" fill="white"/>
<path d="M38.1268 4.80629C37.8692 4.74495 37.5985 4.8246 37.4125 5.01686L34.2484 8.28133H32.7315L31.0617 6.51039V4.93599L34.1805 1.69594C34.365 1.50429 34.4401 1.22871 34.379 0.966567C34.3182 0.704725 34.1298 0.493544 33.8805 0.407484C33.0971 0.137098 32.2772 7.41186e-05 31.4433 7.41186e-05C28.9575 7.41186e-05 26.6992 1.1866 25.2473 3.25539C23.8885 5.19203 23.4696 7.56539 24.0697 9.83681L18.4479 15.5915L9.08189 5.98213V4.09615C9.08189 3.82179 8.94118 3.56728 8.71132 3.42629L3.31489 0.111463C3.01438 -0.0731681 2.63009 -0.0246451 2.38264 0.228956L0.224193 2.43812C-0.0232541 2.69173 -0.0706565 3.0851 0.109413 3.39272L3.34709 8.91671C3.48483 9.152 3.73317 9.29573 4.00118 9.29604L5.84302 9.29665L15.2099 18.906L9.60958 24.6388C7.39061 24.0247 5.07087 24.4541 3.17805 25.846C1.15823 27.3313 0 29.6424 0 32.187C0 33.0403 0.13386 33.8798 0.398002 34.6815C0.482372 34.9381 0.690764 35.1319 0.948347 35.193C1.20623 35.2543 1.47663 35.1747 1.66296 34.9824L4.8267 31.7182H6.35193L8.08972 33.4971V35.0584L4.90094 38.2969C4.71312 38.4876 4.6353 38.7644 4.69523 39.0284C4.75485 39.2921 4.94417 39.5054 5.19489 39.5918C5.97808 39.8622 6.79823 39.9992 7.6318 39.9992C10.1176 39.9992 12.375 38.8133 13.8263 36.7457C15.1861 34.8081 15.6055 32.4339 15.0057 30.1624L19.5036 25.5583L20.5339 26.7039L20.0611 27.1876C19.7629 27.4928 19.7629 27.9875 20.0611 28.2926C20.3592 28.5975 20.8422 28.5975 21.1406 28.2926L21.5687 27.8544L31.2358 38.6033C31.243 38.6112 31.2504 38.6189 31.2579 38.6265C33.0467 40.4576 35.9448 40.4582 37.7344 38.6262C39.519 36.7985 39.519 33.8246 37.7344 31.9969C37.7267 31.9889 37.7186 31.9813 37.7106 31.9737L27.1935 22.097L27.6169 21.6636C27.915 21.3587 27.915 20.864 27.6169 20.5589C27.3187 20.2537 26.8358 20.2537 26.5373 20.5589L26.0678 21.0398L24.9465 19.9864L29.4661 15.3599C30.1086 15.5357 30.7716 15.6248 31.4433 15.6248C35.6517 15.6248 39.0751 12.1201 39.0751 7.81258C39.0751 6.959 38.9413 6.11977 38.6771 5.31777C38.5928 5.06111 38.3844 4.86733 38.1268 4.80629ZM6.69985 7.96364C6.55674 7.81685 6.36266 7.74208 6.15993 7.74208L4.43377 7.74147L1.72497 3.11195L3.04061 1.76521L7.55547 4.53865V6.30562C7.55547 6.51253 7.63567 6.71089 7.77848 6.85738L17.3687 16.6966L16.2892 17.8013L6.69985 7.96364ZM26.1131 23.2029L36.666 33.1129C37.8447 34.3324 37.8412 36.3069 36.6549 37.5218C35.466 38.7388 33.5413 38.7425 32.3476 37.5324L22.6488 26.7484L26.1131 23.2029ZM24.9874 22.1455L21.614 25.5979L20.5837 24.4523L23.8661 21.092L24.9874 22.1455ZM31.4433 14.0623C30.7758 14.0623 30.1193 13.9527 29.4927 13.7367C29.2181 13.6424 28.9146 13.715 28.7095 13.9246C24.8833 17.8413 16.6389 26.2803 13.603 29.3882C13.3979 29.5982 13.3266 29.9088 13.4194 30.1902C14.0538 32.1186 13.7503 34.1755 12.5864 35.8341C11.4258 37.4879 9.61972 38.4367 7.6318 38.4367C7.4085 38.4367 7.18639 38.4242 6.96637 38.4001L9.39046 35.9379C9.53475 35.7914 9.61614 35.5918 9.61614 35.3834V33.1733C9.61614 32.9661 9.53565 32.7674 9.39254 32.6209L7.20756 30.3843C7.06446 30.2378 6.87038 30.1554 6.66795 30.1554H4.5089C4.30528 30.1554 4.1103 30.2387 3.9669 30.3864L1.5619 32.8678C1.53805 32.6426 1.52612 32.4153 1.52612 32.1867C1.52612 30.1515 2.4527 28.303 4.06856 27.115C5.68859 25.9236 7.69828 25.6126 9.58245 26.2623C9.85703 26.3572 10.1605 26.2843 10.3656 26.0743C10.4077 26.0316 25.4614 10.6217 25.4721 10.6107C25.6772 10.4008 25.7482 10.0904 25.6558 9.80904C25.021 7.88063 25.3239 5.82436 26.4869 4.16695C27.6485 2.51167 29.4548 1.56258 31.443 1.56258C31.6732 1.56258 31.9019 1.5757 32.1284 1.60133L29.7547 4.06746C29.614 4.21364 29.5353 4.41048 29.5353 4.61556V6.82564C29.5353 7.02828 29.6119 7.22267 29.7494 7.36824L31.858 9.60488C32.0017 9.75747 32.2 9.84352 32.4072 9.84352H34.5662C34.7696 9.84352 34.9645 9.76052 35.1079 9.61251L37.5129 7.13143C37.5368 7.35665 37.5487 7.584 37.5487 7.81258C37.5487 11.2586 34.8098 14.0623 31.4433 14.0623Z" fill="white"/>
<path d="M23.7732 14.559L14.2226 24.3353C13.9248 24.6401 13.9248 25.1348 14.2226 25.44C14.5208 25.7452 15.004 25.7452 15.3022 25.44L24.8527 15.6637C25.1508 15.3588 25.1508 14.8641 24.8527 14.559C24.5546 14.2538 24.0713 14.2538 23.7732 14.559Z" fill="white"/>
<path d="M33.4176 35.3127C33.7158 35.617 34.199 35.617 34.4972 35.3109C34.7947 35.0054 34.7938 34.5107 34.4954 34.2062L27.616 27.1868C27.3176 26.8823 26.8341 26.8832 26.5368 27.1887C26.239 27.4945 26.2399 27.9888 26.5383 28.2934L33.4176 35.3127Z" fill="white"/>
</svg>
