<svg width="25" height="25" viewBox="0 0 25 25" fill="none" xmlns="http://www.w3.org/2000/svg">
<path d="M11.0791 21.9178H4.03405C3.37314 21.9178 2.83542 21.3801 2.83542 20.7192V1.93249C2.83542 1.27158 3.37314 0.733855 4.03405 0.733855H14.626V2.71526C14.626 3.78082 15.493 4.64775 16.5585 4.64775H18.5399V12.1086C18.5399 12.3113 18.7042 12.4755 18.9068 12.4755C19.1095 12.4755 19.2738 12.3113 19.2738 12.1086V4.28082C19.2738 4.26854 19.2731 4.25631 19.2719 4.24418C19.271 4.23527 19.2695 4.22661 19.268 4.21791C19.2675 4.21482 19.2672 4.21164 19.2666 4.20856C19.2645 4.19829 19.2619 4.18821 19.259 4.17828C19.2586 4.17681 19.2583 4.17529 19.2579 4.17383C19.2548 4.1637 19.2511 4.15382 19.2472 4.14408C19.2467 4.14276 19.2463 4.14139 19.2457 4.14012C19.2419 4.13087 19.2375 4.12192 19.233 4.11311C19.232 4.1113 19.2313 4.10944 19.2303 4.10763C19.226 4.09946 19.2211 4.09163 19.2161 4.08386C19.2146 4.08151 19.2133 4.07906 19.2118 4.07676C19.2068 4.06937 19.2014 4.06233 19.1959 4.05533C19.194 4.05289 19.1924 4.05034 19.1904 4.04795C19.1828 4.0387 19.1748 4.02975 19.1663 4.02128L15.2525 0.107534C15.244 0.0990704 15.2351 0.090998 15.2258 0.0834149C15.2234 0.0814579 15.2208 0.0797945 15.2184 0.0778865C15.2114 0.072407 15.2044 0.0669765 15.197 0.0620352C15.1947 0.0604697 15.1923 0.0591976 15.1899 0.0577299C15.1821 0.0527886 15.1743 0.0478963 15.1661 0.0434932C15.1644 0.0425147 15.1625 0.0417808 15.1607 0.0408513C15.1518 0.0363014 15.1429 0.0318982 15.1337 0.0280822C15.1323 0.027544 15.131 0.0271526 15.1297 0.0266145C15.12 0.0227006 15.1101 0.0190313 15.0999 0.0159491C15.0985 0.0155088 15.097 0.0152153 15.0955 0.0148239C15.0856 0.0119374 15.0755 0.00924658 15.0652 0.00719178C15.0621 0.00655577 15.0589 0.00631115 15.0559 0.00577299C15.0472 0.00425636 15.0385 0.00273973 15.0296 0.0018591C15.0175 0.000636008 15.0052 0 14.993 0H4.03405C2.96849 0 2.10156 0.866928 2.10156 1.93249V20.7192C2.10156 21.7847 2.96849 22.6517 4.03405 22.6517H11.0791C11.2817 22.6517 11.446 22.4874 11.446 22.2847C11.446 22.0821 11.2817 21.9178 11.0791 21.9178ZM15.3599 2.71526V1.25274L18.021 3.91389H16.5585C15.8976 3.91389 15.3599 3.37617 15.3599 2.71526Z" fill="black"/>
<path d="M17.341 16.0469C15.628 16.0469 14.2344 17.4405 14.2344 19.1535C14.2344 20.8665 15.628 22.2602 17.341 22.2602C19.054 22.2602 20.4477 20.8665 20.4477 19.1535C20.4477 17.4405 19.054 16.0469 17.341 16.0469ZM17.341 21.5263C16.0327 21.5263 14.9682 20.4619 14.9682 19.1535C14.9682 17.8452 16.0327 16.7807 17.341 16.7807C18.6494 16.7807 19.7138 17.8452 19.7138 19.1535C19.7138 20.4619 18.6494 21.5263 17.341 21.5263Z" fill="black"/>
<path d="M22.5167 20.3629L22.2843 20.2288C22.3633 19.8697 22.4033 19.5091 22.4033 19.1535C22.4033 18.7979 22.3633 18.4374 22.2843 18.0783L22.5167 17.9441C22.6921 17.8428 22.8175 17.6793 22.87 17.4836C22.9224 17.288 22.8955 17.0836 22.7942 16.9082L22.0114 15.5524C21.9102 15.377 21.7466 15.2515 21.551 15.1991C21.3553 15.1467 21.151 15.1736 20.9755 15.2748L20.7445 15.4082C20.2089 14.9217 19.5731 14.5556 18.8808 14.3348V14.0654C18.8808 13.6473 18.5406 13.3071 18.1224 13.3071H16.5569C16.1387 13.3071 15.7986 13.6473 15.7986 14.0654V14.3348C15.1062 14.5555 14.4705 14.9217 13.9348 15.4082L13.7038 15.2748C13.5284 15.1735 13.324 15.1466 13.1284 15.1991C12.9327 15.2515 12.7692 15.377 12.6679 15.5524L11.8852 16.9082C11.7838 17.0835 11.7569 17.288 11.8094 17.4836C11.8618 17.6792 11.9873 17.8427 12.1627 17.9441L12.3951 18.0782C12.316 18.4373 12.2761 18.7978 12.2761 19.1535C12.2761 19.5091 12.316 19.8696 12.3951 20.2287L12.1628 20.3629C11.9873 20.4641 11.8618 20.6277 11.8094 20.8233C11.757 21.019 11.7839 21.2233 11.8852 21.3988L12.6679 22.7546C12.877 23.1167 13.3417 23.2412 13.7038 23.0321L13.9348 22.8988C14.4704 23.3853 15.1062 23.7514 15.7986 23.9722V24.2415C15.7986 24.6596 16.1387 24.9998 16.5569 24.9998H18.1224C18.5406 24.9998 18.8808 24.6596 18.8808 24.2415V23.9722C19.5731 23.7514 20.2088 23.3853 20.7445 22.8988L20.9755 23.0321C21.3375 23.2411 21.8023 23.1166 22.0114 22.7545L22.7942 21.3987C22.8954 21.2233 22.9223 21.0189 22.8699 20.8233C22.8175 20.6277 22.6921 20.4642 22.5167 20.3629ZM21.5081 17.9966C21.6151 18.3831 21.6695 18.7723 21.6695 19.1535C21.6695 19.5347 21.6151 19.924 21.5081 20.3105C21.4634 20.4716 21.5333 20.6426 21.6782 20.7262L22.1497 20.9984C22.1519 20.9996 22.1585 21.0035 22.1611 21.0132C22.1637 21.023 22.16 21.0296 22.1587 21.0318L21.3759 22.3876C21.3692 22.3993 21.3542 22.4034 21.3425 22.3966L20.8727 22.1254C20.7278 22.0417 20.5447 22.0666 20.4275 22.186C19.8786 22.7448 19.1853 23.1441 18.4222 23.3409C18.2602 23.3827 18.1469 23.5288 18.1469 23.6962V24.2416C18.1469 24.2551 18.136 24.266 18.1225 24.266H16.5569C16.5434 24.266 16.5325 24.2551 16.5325 24.2416V23.6963C16.5325 23.5289 16.4192 23.3828 16.2572 23.341C15.4942 23.1442 14.8007 22.7449 14.2519 22.1861C14.1811 22.114 14.0861 22.0763 13.9901 22.0763C13.9272 22.0763 13.864 22.0924 13.8067 22.1255L13.337 22.3967C13.3252 22.4034 13.3103 22.3994 13.3035 22.3877L12.5207 21.0319C12.5195 21.0297 12.5156 21.0231 12.5183 21.0133C12.5209 21.0036 12.5275 20.9997 12.5297 20.9985L13.0012 20.7263C13.146 20.6426 13.216 20.4717 13.1714 20.3105C13.0643 19.924 13.01 19.5347 13.01 19.1536C13.01 18.7724 13.0643 18.3831 13.1714 17.9966C13.216 17.8355 13.1461 17.6645 13.0012 17.5809L12.5297 17.3086C12.5275 17.3074 12.5209 17.3036 12.5183 17.2938C12.5157 17.284 12.5195 17.2774 12.5207 17.2752L13.3036 15.9194C13.3103 15.9077 13.3253 15.9037 13.337 15.9105L13.8067 16.1816C13.9516 16.2653 14.1347 16.2403 14.252 16.121C14.8008 15.5622 15.4942 15.1629 16.2572 14.9661C16.4193 14.9244 16.5325 14.7782 16.5325 14.6108V14.0654C16.5325 14.0519 16.5435 14.041 16.557 14.041H18.1225C18.136 14.041 18.147 14.0519 18.147 14.0654V14.6107C18.147 14.7781 18.2603 14.9243 18.4223 14.966C19.1853 15.1628 19.8787 15.5622 20.4275 16.1209C20.5447 16.2402 20.7278 16.2651 20.8728 16.1815L21.3425 15.9104C21.3542 15.9035 21.3692 15.9076 21.376 15.9193L22.1587 17.2751C22.16 17.2773 22.1638 17.2839 22.1612 17.2937C22.1585 17.3035 22.1519 17.3073 22.1498 17.3085L21.6783 17.5808C21.5334 17.6644 21.4634 17.8354 21.5081 17.9966Z" fill="black"/>
<path d="M4.81615 6.99606H5.59893C5.80157 6.99606 5.96585 6.83178 5.96585 6.62913C5.96585 6.42649 5.80157 6.26221 5.59893 6.26221H4.81615C4.6135 6.26221 4.44922 6.42649 4.44922 6.62913C4.44922 6.83178 4.6135 6.99606 4.81615 6.99606Z" fill="black"/>
<path d="M7.16576 6.99606H7.94853C8.15118 6.99606 8.31546 6.83178 8.31546 6.62913C8.31546 6.42649 8.15118 6.26221 7.94853 6.26221H7.16576C6.96311 6.26221 6.79883 6.42649 6.79883 6.62913C6.79883 6.83178 6.96311 6.99606 7.16576 6.99606Z" fill="black"/>
<path d="M13.4273 6.26221H9.51341C9.31077 6.26221 9.14648 6.42649 9.14648 6.62913C9.14648 6.83178 9.31077 6.99606 9.51341 6.99606H13.4273C13.63 6.99606 13.7942 6.83178 13.7942 6.62913C13.7942 6.42649 13.63 6.26221 13.4273 6.26221Z" fill="black"/>
<path d="M10.6638 8.58617C10.6638 8.38352 10.4995 8.21924 10.2969 8.21924H7.16576C6.96311 8.21924 6.79883 8.38352 6.79883 8.58617C6.79883 8.78881 6.96311 8.95309 7.16576 8.95309H10.2969C10.4995 8.95309 10.6638 8.78881 10.6638 8.58617Z" fill="black"/>
<path d="M11.4941 8.58617C11.4941 8.78881 11.6584 8.95309 11.8611 8.95309H14.6008C14.8034 8.95309 14.9677 8.78881 14.9677 8.58617C14.9677 8.38352 14.8034 8.21924 14.6008 8.21924H11.8611C11.6584 8.21924 11.4941 8.38352 11.4941 8.58617Z" fill="black"/>
<path d="M4.81615 8.95309H5.59893C5.80157 8.95309 5.96585 8.78881 5.96585 8.58617C5.96585 8.38352 5.80157 8.21924 5.59893 8.21924H4.81615C4.6135 8.21924 4.44922 8.38352 4.44922 8.58617C4.44922 8.78881 4.6135 8.95309 4.81615 8.95309Z" fill="black"/>
<path d="M4.81615 10.9101H5.59893C5.80157 10.9101 5.96585 10.7458 5.96585 10.5432C5.96585 10.3406 5.80157 10.1763 5.59893 10.1763H4.81615C4.6135 10.1763 4.44922 10.3406 4.44922 10.5432C4.44922 10.7458 4.6135 10.9101 4.81615 10.9101Z" fill="black"/>
<path d="M9.90404 10.9101H16.5577C16.7603 10.9101 16.9246 10.7458 16.9246 10.5432C16.9246 10.3406 16.7603 10.1763 16.5577 10.1763H9.90404C9.7014 10.1763 9.53711 10.3406 9.53711 10.5432C9.53711 10.7458 9.7014 10.9101 9.90404 10.9101Z" fill="black"/>
<path d="M7.16576 10.1763C6.96311 10.1763 6.79883 10.3406 6.79883 10.5432C6.79883 10.7458 6.96311 10.9101 7.16576 10.9101H8.33992C8.54257 10.9101 8.70685 10.7458 8.70685 10.5432C8.70685 10.3406 8.54257 10.1763 8.33992 10.1763H7.16576Z" fill="black"/>
<path d="M11.471 12.1333H7.16576C6.96311 12.1333 6.79883 12.2976 6.79883 12.5002C6.79883 12.7029 6.96311 12.8672 7.16576 12.8672H11.471C11.6737 12.8672 11.838 12.7029 11.838 12.5002C11.838 12.2976 11.6737 12.1333 11.471 12.1333Z" fill="black"/>
<path d="M6.77318 15.998H8.33873C8.54138 15.998 8.70566 15.8337 8.70566 15.6311C8.70566 15.4284 8.54138 15.2642 8.33873 15.2642H6.77318C6.57054 15.2642 6.40625 15.4284 6.40625 15.6311C6.40625 15.8337 6.57054 15.998 6.77318 15.998Z" fill="black"/>
<path d="M4.81615 12.8672H5.59893C5.80157 12.8672 5.96585 12.7029 5.96585 12.5002C5.96585 12.2976 5.80157 12.1333 5.59893 12.1333H4.81615C4.6135 12.1333 4.44922 12.2976 4.44922 12.5002C4.44922 12.7029 4.6135 12.8672 4.81615 12.8672Z" fill="black"/>
<path d="M4.55669 15.8907C4.62832 15.9623 4.72225 15.9981 4.81613 15.9981C4.91002 15.9981 5.00395 15.9623 5.07558 15.8907L5.85835 15.1079C6.00165 14.9646 6.00165 14.7322 5.85835 14.589L5.07558 13.8062C4.93228 13.6629 4.69994 13.6629 4.55669 13.8062C4.41339 13.9495 4.41339 14.1818 4.55669 14.3251L5.08003 14.8484L4.55669 15.3718C4.41339 15.515 4.41339 15.7474 4.55669 15.8907Z" fill="black"/>
</svg>
