<svg width="18" height="15" viewBox="0 0 18 15" fill="none" xmlns="http://www.w3.org/2000/svg">
<path d="M14.1898 1.31229H4.90553C4.61792 1.31229 4.38476 1.07914 4.38476 0.791531V0.530957C4.38476 0.237723 4.14704 0 3.85381 0H1.06191C0.475446 0 0 0.475411 0 1.06191V9.9972L1.36253 3.36834C1.41231 3.12619 1.62543 2.95241 1.87264 2.95241H15.2517V2.37421C15.2517 1.7877 14.7762 1.31229 14.1898 1.31229Z" fill="white"/>
<path d="M16.9378 3.9939H2.29741L0.248288 13.9629C0.181071 14.29 0.430887 14.5964 0.764832 14.5964H15.9998C16.5411 14.5964 16.9958 14.1893 17.0553 13.6512L17.9933 5.1726C18.0629 4.5437 17.5705 3.9939 16.9378 3.9939Z" fill="white"/>
</svg>
