<svg width="64" height="64" viewBox="0 0 64 64" fill="none" xmlns="http://www.w3.org/2000/svg">
<circle cx="32" cy="32" r="32" fill="black"/>
<path d="M48.0054 18H46.0127C45.6983 18 45.4436 18.2547 45.4436 18.5691C45.4436 18.8835 45.6983 19.1382 46.0127 19.1382H48.0054C48.9468 19.1382 49.7127 19.9042 49.7127 20.8455V23.4634H13.1382V20.8455C13.1382 19.9042 13.9041 19.1382 14.8455 19.1382H43.514C43.8283 19.1382 44.0831 18.8835 44.0831 18.5691C44.0831 18.2547 43.8283 18 43.514 18H14.8455C13.2765 18 12 19.2765 12 20.8455V27.1194C12 27.4338 12.2548 27.6885 12.5691 27.6885C12.8834 27.6885 13.1382 27.4338 13.1382 27.1194V24.6016H49.7127V39.2744C49.7127 39.5888 49.9675 39.8435 50.2818 39.8435C50.5962 39.8435 50.8509 39.5888 50.8509 39.2744V20.8455C50.8509 19.2765 49.5745 18 48.0054 18V18Z" fill="white"/>
<path d="M50.2818 41.1053C49.9675 41.1053 49.7127 41.36 49.7127 41.6744V43.1545C49.7127 44.0959 48.9468 44.8618 48.0054 44.8618H14.8455C13.9041 44.8618 13.1382 44.0959 13.1382 43.1545V29.5618C13.1382 29.2474 12.8834 28.9927 12.5691 28.9927C12.2548 28.9927 12 29.2474 12 29.5618V43.1545C12 44.7236 13.2765 46.0001 14.8455 46.0001H48.0054C49.5745 46.0001 50.8509 44.7236 50.8509 43.1545V41.6744C50.8509 41.3601 50.5962 41.1053 50.2818 41.1053Z" fill="white"/>
<path d="M20.2318 30.3652C20.0095 30.1431 19.6492 30.1431 19.427 30.3652L16.007 33.7852C15.9003 33.892 15.8403 34.0367 15.8403 34.1877C15.8403 34.3387 15.9003 34.4833 16.007 34.5901L19.3818 37.9649C19.4929 38.0759 19.6385 38.1315 19.7842 38.1315C19.9298 38.1315 20.0755 38.0759 20.1866 37.9649C20.4088 37.7425 20.4088 37.3822 20.1866 37.16L17.2142 34.1877L20.2318 31.1702C20.4541 30.9479 20.4541 30.5876 20.2318 30.3652V30.3652Z" fill="white"/>
<path d="M27.8853 37.9649C27.9963 38.0759 28.142 38.1315 28.2877 38.1315C28.4333 38.1315 28.579 38.0759 28.69 37.9649L32.0648 34.5901C32.1715 34.4834 32.2315 34.3387 32.2315 34.1877C32.2315 34.0367 32.1715 33.892 32.0648 33.7852L28.6448 30.3652C28.4226 30.1431 28.0622 30.1431 27.84 30.3652C27.6178 30.5876 27.6178 30.9479 27.84 31.1701L30.8577 34.1877L27.8853 37.1599C27.663 37.3823 27.663 37.7426 27.8853 37.9649V37.9649Z" fill="white"/>
<path d="M22.0154 40.0611C22.2449 40.0611 22.4613 39.9211 22.5476 39.6937L26.5915 29.0402C26.7031 28.7463 26.5553 28.4177 26.2615 28.3061C25.9677 28.1945 25.6389 28.3424 25.5275 28.6362L21.4835 39.2899C21.3719 39.5837 21.5198 39.9123 21.8136 40.0239C21.88 40.0491 21.9483 40.0611 22.0154 40.0611V40.0611Z" fill="white"/>
<path d="M14.5044 21.3289C14.5044 22.2703 15.2703 23.0362 16.2117 23.0362C17.1532 23.0362 17.919 22.2703 17.919 21.3289C17.919 20.3875 17.1532 19.6216 16.2117 19.6216C15.2703 19.6216 14.5044 20.3875 14.5044 21.3289V21.3289ZM16.7808 21.3289C16.7808 21.6427 16.5256 21.898 16.2117 21.898C15.8979 21.898 15.6426 21.6427 15.6426 21.3289C15.6426 21.0151 15.8979 20.7598 16.2117 20.7598C16.5256 20.7598 16.7808 21.0151 16.7808 21.3289Z" fill="white"/>
<path d="M18.918 21.3289C18.918 22.2703 19.6838 23.0362 20.6253 23.0362C21.5667 23.0362 22.3326 22.2703 22.3326 21.3289C22.3326 20.3875 21.5667 19.6216 20.6253 19.6216C19.6838 19.6216 18.918 20.3875 18.918 21.3289V21.3289ZM21.1944 21.3289C21.1944 21.6427 20.9391 21.898 20.6253 21.898C20.3114 21.898 20.0562 21.6427 20.0562 21.3289C20.0562 21.0151 20.3114 20.7598 20.6253 20.7598C20.9391 20.7598 21.1944 21.0151 21.1944 21.3289Z" fill="white"/>
<path d="M23.3311 21.3289C23.3311 22.2703 24.0969 23.0362 25.0384 23.0362C25.9798 23.0362 26.7457 22.2703 26.7457 21.3289C26.7457 20.3875 25.9798 19.6216 25.0384 19.6216C24.0969 19.6216 23.3311 20.3875 23.3311 21.3289V21.3289ZM25.6075 21.3289C25.6075 21.6427 25.3522 21.898 25.0384 21.898C24.7245 21.898 24.4693 21.6427 24.4693 21.3289C24.4693 21.0151 24.7245 20.7598 25.0384 20.7598C25.3522 20.7598 25.6075 21.0151 25.6075 21.3289Z" fill="white"/>
<path d="M37.4578 30.9657H41.0242C41.9656 30.9657 42.7315 30.1997 42.7315 29.2583C42.7315 28.317 41.9656 27.551 41.0242 27.551H37.4578C36.5164 27.551 35.7505 28.317 35.7505 29.2583C35.7505 30.1997 36.5164 30.9657 37.4578 30.9657ZM37.4578 28.6892H41.0242C41.338 28.6892 41.5933 28.9445 41.5933 29.2583C41.5933 29.5722 41.338 29.8274 41.0242 29.8274H37.4578C37.144 29.8274 36.8887 29.5722 36.8887 29.2583C36.8887 28.9445 37.144 28.6892 37.4578 28.6892Z" fill="white"/>
<path d="M37.4578 35.5185H46.867C47.8084 35.5185 48.5743 34.7526 48.5743 33.8112C48.5743 32.8698 47.8084 32.1039 46.867 32.1039H37.4578C36.5164 32.1039 35.7505 32.8698 35.7505 33.8112C35.7505 34.7526 36.5164 35.5185 37.4578 35.5185ZM37.4578 33.2421H46.867C47.1809 33.2421 47.4361 33.4974 47.4361 33.8112C47.4361 34.125 47.1809 34.3803 46.867 34.3803H37.4578C37.144 34.3803 36.8887 34.125 36.8887 33.8112C36.8887 33.4974 37.144 33.2421 37.4578 33.2421Z" fill="white"/>
<path d="M37.4578 40.0713H44.072C45.0133 40.0713 45.7793 39.3053 45.7793 38.3639C45.7793 37.4226 45.0133 36.6566 44.072 36.6566H37.4578C36.5164 36.6566 35.7505 37.4226 35.7505 38.3639C35.7505 39.3053 36.5164 40.0713 37.4578 40.0713ZM37.4578 37.7948H44.072C44.3858 37.7948 44.6411 38.0501 44.6411 38.3639C44.6411 38.6778 44.3858 38.933 44.072 38.933H37.4578C37.144 38.933 36.8887 38.6778 36.8887 38.3639C36.8887 38.0501 37.144 37.7948 37.4578 37.7948Z" fill="white"/>
</svg>
