<svg width="29" height="29" viewBox="0 0 29 29" fill="none" xmlns="http://www.w3.org/2000/svg">
<g clip-path="url(#clip0)">
<path d="M14.499 3.95312C13.0444 3.95312 11.8613 5.13615 11.8613 6.59081C11.8613 8.04547 13.0444 9.22843 14.499 9.22843C15.9537 9.22843 17.1366 8.0454 17.1366 6.59081C17.1366 5.13621 15.9536 3.95312 14.499 3.95312ZM14.499 7.91027C13.7717 7.91027 13.1796 7.31814 13.1796 6.59081C13.1796 5.86348 13.7717 5.27135 14.499 5.27135C15.2263 5.27135 15.8185 5.86348 15.8185 6.59081C15.8185 7.31814 15.2263 7.91027 14.499 7.91027Z" fill="#6946C6"/>
<path d="M28.341 11.8636C28.7053 11.8636 29.0001 11.5706 29.0001 11.2064V8.5703C29.0001 8.33797 28.8778 8.12238 28.6776 8.00393L15.7847 0.347307C15.7789 0.343414 15.7731 0.340201 15.7673 0.336988C14.966 -0.107095 14.0623 -0.120565 13.2146 0.34601L0.322481 8.00393C0.122282 8.12232 0 8.33797 0 8.5703V11.2064C0 11.5706 0.294799 11.8636 0.659112 11.8636H2.63639V23.7278C1.18235 23.7278 0 24.9101 0 26.3639V28.341C0 28.7052 0.294799 29 0.659112 29H28.341C28.7053 29 29.0001 28.7053 29.0001 28.341V26.3639C29.0001 24.9101 27.8177 23.7278 26.3637 23.7278V11.8636H28.341ZM27.6818 26.3637V27.6818H1.31816V26.3637C1.31816 25.637 1.90968 25.0455 2.63632 25.0455H3.29544H25.7046H26.3637C27.0903 25.0454 27.6818 25.637 27.6818 26.3637ZM3.95455 23.7273V11.8636H6.59093V23.7273H3.95455ZM7.9091 23.7273V11.8636H11.8636V23.7273H7.9091ZM13.1818 23.7273V11.8636H15.8182V23.7273H13.1818ZM17.1364 23.7273V11.8636H21.0909V23.7273H17.1364ZM22.4091 23.7273V11.8636H25.0455V23.7273H22.4091ZM1.31816 10.5455V8.94345L13.8686 1.48745C14.2793 1.26155 14.7156 1.26217 15.1211 1.48294L27.6818 8.94345V10.5455H1.31816Z" fill="black"/>
</g>
<defs>
<clipPath id="clip0">
<rect width="29" height="29" fill="white"/>
</clipPath>
</defs>
</svg>
