<svg width="30" height="29" viewBox="0 0 30 29" fill="none" xmlns="http://www.w3.org/2000/svg">
<path d="M10.8333 29C8.59412 29 6.77075 27.1778 6.77075 24.9375C6.77075 24.489 7.13475 24.125 7.58325 24.125C8.03175 24.125 8.39575 24.489 8.39575 24.9375C8.39575 26.282 9.48993 27.375 10.8333 27.375C12.1766 27.375 13.2708 26.282 13.2708 24.9375C13.2708 24.489 13.6348 24.125 14.0833 24.125C14.5318 24.125 14.8958 24.489 14.8958 24.9375C14.8958 27.1778 13.0726 29 10.8333 29Z" fill="black"/>
<path d="M19.7708 25.75H1.89577C0.850388 25.75 0 24.8996 0 23.8543C0 23.2994 0.241608 22.7742 0.662933 22.4133C0.690109 22.3895 0.719269 22.3679 0.749619 22.3483C2.3399 20.9605 3.25 18.964 3.25 16.8558V13.8333C3.25 10.305 5.64088 7.27597 9.06425 6.46665C9.50185 6.36588 9.93964 6.63347 10.0426 7.07126C10.1453 7.50786 9.87457 7.94545 9.43916 8.0484C6.75133 8.68317 4.875 11.0622 4.875 13.8333V16.8558C4.875 19.4732 3.72766 21.9498 1.73013 23.6494C1.71387 23.6624 1.69978 23.6744 1.68233 23.6863C1.65317 23.7231 1.625 23.7795 1.625 23.8543C1.625 24.0015 1.74858 24.125 1.89577 24.125H19.7708C19.9182 24.125 20.0417 24.0015 20.0417 23.8543C20.0417 23.7783 20.0136 23.7231 19.9832 23.6863C19.9669 23.6744 19.9517 23.6624 19.9366 23.6494C18.966 22.8218 18.1999 21.823 17.6606 20.68C17.4678 20.2748 17.6409 19.7906 18.0472 19.5978C18.4568 19.405 18.9366 19.5805 19.1285 19.9856C19.5573 20.8913 20.1586 21.6865 20.9191 22.3517C20.9473 22.3711 20.9766 22.3917 21.0014 22.4133C21.4251 22.7742 21.6667 23.2994 21.6667 23.8543C21.6667 24.8996 20.8163 25.75 19.7708 25.75Z" fill="black"/>
<path d="M20.9999 18C16.0375 18 12 13.9625 12 9.00013C12 4.03749 16.0375 0 20.9999 0C25.9625 0 30 4.03749 30 9.00013C30 13.9625 25.9625 18 20.9999 18ZM20.9999 2.07693C17.1824 2.07693 14.0769 5.1827 14.0769 9.00013C14.0769 12.8176 17.1824 15.9231 20.9999 15.9231C24.8173 15.9231 27.9231 12.8176 27.9231 9.00013C27.9231 5.1827 24.8173 2.07693 20.9999 2.07693Z" fill="#6946C6"/>
<path d="M21.1818 13C20.7302 13 20.3637 12.5724 20.3637 12.0455V7.90905H19.8182C19.3665 7.90905 19 7.48142 19 6.95452C19 6.42763 19.3665 6 19.8182 6H21.1818C21.6335 6 22 6.42763 22 6.95452V12.0455C22 12.5724 21.6335 13 21.1818 13Z" fill="#6946C6"/>
</svg>
