<svg width="35" height="29" viewBox="0 0 35 29" fill="none" xmlns="http://www.w3.org/2000/svg">
<path d="M18.2607 0V5.98654H23.0345C21.9206 2.75128 20.201 0.477782 18.2607 0Z" fill="white"/>
<path d="M11.9658 5.98654H16.7396V0C14.7993 0.477782 13.0797 2.75128 11.9658 5.98654Z" fill="white"/>
<path d="M28.2529 4.71799C26.4876 2.74887 24.234 1.32908 21.7642 0.560547C22.9526 1.8814 23.9433 3.74402 24.654 5.98713H27.6853C27.9851 5.98713 28.2574 5.81058 28.3807 5.53667C28.504 5.26275 28.4537 4.94169 28.2529 4.71799Z" fill="white"/>
<path d="M6.74672 4.71799C6.54585 4.94169 6.49563 5.26275 6.61739 5.53667C6.74066 5.81058 7.0115 5.98713 7.31281 5.98713H10.3441C11.0548 3.74409 12.0455 1.88147 13.2339 0.560547C10.7656 1.32908 8.5104 2.74887 6.74672 4.71799Z" fill="white"/>
<path d="M11.9658 22.7266C13.0797 25.9618 14.7993 28.2353 16.7396 28.7131V22.7266H11.9658Z" fill="white"/>
<path d="M18.2607 22.7266V28.7131C20.201 28.2352 21.9206 25.9618 23.0345 22.7266H18.2607Z" fill="white"/>
<path d="M28.3822 23.177C28.2589 22.9031 27.9865 22.7266 27.6868 22.7266H24.6554C23.9447 24.9696 22.9541 26.8322 21.7656 28.1531C24.2354 27.3847 26.4892 25.9649 28.2543 23.9957C28.4537 23.7721 28.5039 23.4509 28.3822 23.177Z" fill="white"/>
<path d="M10.3441 22.7266H7.31281C7.013 22.7266 6.74066 22.9031 6.61739 23.177C6.49563 23.4509 6.54585 23.772 6.74672 23.9957C8.51197 25.9648 10.7656 27.3846 13.2354 28.1531C12.0455 26.8322 11.0548 24.9696 10.3441 22.7266Z" fill="white"/>
<path d="M31.1958 7.50781H3.80435C1.7059 7.50781 0 9.21522 0 11.3122V17.3992C0 19.4961 1.7059 21.2036 3.80435 21.2036H31.1958C33.2943 21.2036 35.0002 19.4961 35.0002 17.3992V11.3122C35.0002 9.21522 33.2943 7.50781 31.1958 7.50781ZM12.1512 11.4963L10.6295 17.5833C10.5473 17.912 10.2582 18.1463 9.92035 18.1585C9.90972 18.1585 9.89902 18.1585 9.88989 18.1585C9.56269 18.1585 9.27209 17.95 9.16709 17.6381L8.36967 15.2398L7.57075 17.6397C7.46425 17.9592 7.22229 18.1753 6.81898 18.1586C6.48115 18.1464 6.19204 17.9106 6.10987 17.5834L4.58807 11.4963C4.48614 11.09 4.73266 10.6761 5.14197 10.5742C5.54371 10.4707 5.96221 10.7188 6.06415 11.1281L6.9513 14.6798L7.64672 12.5935C7.85522 11.9726 8.8839 11.9726 9.09083 12.5935L9.78625 14.6798L10.6734 11.1281C10.7769 10.7187 11.1832 10.4722 11.5971 10.5742C12.0066 10.6761 12.2531 11.09 12.1512 11.4963ZM21.2817 11.4963L19.76 17.5833C19.6778 17.912 19.3887 18.1463 19.0508 18.1585C19.0402 18.1585 19.0295 18.1585 19.0204 18.1585C18.6932 18.1585 18.4026 17.95 18.2976 17.6381L17.5002 15.2398L16.7012 17.6397C16.5947 17.9592 16.3466 18.1753 15.9495 18.1586C15.6116 18.1464 15.3225 17.9106 15.2404 17.5834L13.7186 11.4964C13.6167 11.0901 13.8632 10.6762 14.2725 10.5742C14.6743 10.4707 15.0943 10.7188 15.1947 11.1281L16.0819 14.6799L16.7773 12.5936C16.9858 11.9727 18.0145 11.9727 18.2214 12.5936L18.9168 14.6799L19.804 11.1281C19.9044 10.7188 20.3122 10.4722 20.7261 10.5742C21.1371 10.6761 21.3836 11.09 21.2817 11.4963ZM30.4122 11.4963L28.8904 17.5833C28.8083 17.912 28.5192 18.1463 28.1813 18.1585C28.1707 18.1585 28.16 18.1585 28.1509 18.1585C27.8237 18.1585 27.5331 17.95 27.4281 17.6381L26.6307 15.2398L25.8317 17.6397C25.7252 17.9592 25.4696 18.1753 25.08 18.1586C24.7421 18.1464 24.453 17.9106 24.3709 17.5834L22.8491 11.4964C22.7487 11.0886 22.9952 10.6762 23.403 10.5742C23.8048 10.4707 24.2248 10.7188 24.3252 11.1281L25.2124 14.6799L25.9078 12.5936C26.1163 11.9727 27.145 11.9727 27.3519 12.5936L28.0473 14.6799L28.9345 11.1281C29.0349 10.7188 29.4412 10.4722 29.8566 10.5742C30.2676 10.6761 30.5141 11.09 30.4122 11.4963Z" fill="white"/>
</svg>
