<svg width="34" height="34" viewBox="0 0 34 34" fill="none" xmlns="http://www.w3.org/2000/svg">
<g clip-path="url(#clip0)">
<path d="M2.87451 26.442L0.145878 29.1707C-0.048626 29.3652 -0.048626 29.6805 0.145878 29.875C0.243097 29.9723 0.370597 30.0209 0.49803 30.0209C0.625464 30.0209 0.752964 29.9723 0.850183 29.875L3.57881 27.1464C3.77332 26.9518 3.77332 26.6365 3.57881 26.442C3.38431 26.2477 3.06895 26.2477 2.87451 26.442Z" fill="black"/>
<path d="M21.4272 0C14.4946 0 8.85447 5.64008 8.85447 12.5727C8.85447 14.7999 9.44449 16.9396 10.5102 18.806L8.25183 21.0645C8.05733 21.259 8.05733 21.5743 8.25183 21.7688L8.48479 22.0018L6.85205 23.6345L6.61884 23.4013C6.42433 23.2069 6.10897 23.2069 5.91453 23.4013L4.51734 24.7985C4.32284 24.9931 4.32284 25.3084 4.51734 25.5029C4.71185 25.6973 5.02721 25.6973 5.22165 25.5029L6.26668 24.4578L9.54204 27.7332L4.12488 33.1497C3.93038 33.3442 3.93038 33.6595 4.12488 33.854C4.22217 33.9513 4.3496 33.9999 4.4771 33.9999C4.6046 33.9999 4.73203 33.9513 4.82925 33.854L10.5986 28.0853C10.692 27.992 10.7445 27.8653 10.7445 27.7331C10.7445 27.601 10.6921 27.4744 10.5986 27.3809L10.3654 27.1477L11.9981 25.5149L12.2312 25.748C12.3284 25.8452 12.4559 25.8938 12.5833 25.8938C12.7107 25.8938 12.8382 25.8452 12.9355 25.748L15.1929 23.4905C15.2505 23.5235 15.3076 23.557 15.3659 23.5891C15.4271 23.6338 15.4897 23.677 15.5547 23.7178L18.3574 25.476V27.4802C18.3574 27.7554 18.5803 27.9783 18.8554 27.9783C19.1306 27.9783 19.3535 27.7554 19.3535 27.4802V25.2005C19.3535 25.0291 19.2654 24.8697 19.1201 24.7786L16.084 22.874C15.443 22.4719 15.0603 21.7799 15.0603 21.0228V16.7297C15.0603 16.2818 15.2566 15.8595 15.599 15.5713L17.2494 14.1809V15.5955C17.2494 15.5991 17.2497 15.6026 17.2497 15.6061V19.8587C17.2497 20.0475 17.3564 20.22 17.5253 20.3044L21.2049 22.1405C21.3448 22.2104 21.5096 22.2104 21.6496 22.1405L25.3299 20.3044C25.4988 20.22 25.6055 20.0475 25.6055 19.8587V14.1809L27.2557 15.5713C27.598 15.8595 27.7943 16.2817 27.7943 16.7296V21.0228C27.7943 21.7798 27.4116 22.4718 26.7706 22.8739L23.7345 24.7785C23.5893 24.8696 23.5011 25.029 23.5011 25.2004V33.502C23.5011 33.7771 23.724 34 23.9991 34C24.2743 34 24.4972 33.7771 24.4972 33.502V25.476L27.2999 23.7179C27.3647 23.6771 27.4274 23.6339 27.4886 23.5893C29.2871 22.598 30.8318 21.1653 31.9571 19.4433C32.1076 19.2131 32.0429 18.9044 31.8126 18.7539C31.5824 18.6034 31.2738 18.6681 31.1233 18.8984C30.4715 19.8957 29.6665 20.7871 28.7473 21.5389C28.7747 21.37 28.7903 21.1979 28.7903 21.0229V18.7584C30.2475 17.0256 31.0481 14.8368 31.0481 12.5727C31.0481 7.2677 26.7322 2.95176 21.4272 2.95176C16.1222 2.95176 11.8062 7.2677 11.8062 12.5727C11.8062 14.8368 12.6068 17.0257 14.064 18.7584V21.0229C14.064 21.1988 14.0798 21.3719 14.1074 21.5416C11.4416 19.3647 9.85056 16.0859 9.85056 12.5727C9.85056 6.18933 15.0438 0.996094 21.4272 0.996094C27.8105 0.996094 33.0038 6.18933 33.0038 12.5727C33.0038 14.0798 32.7188 15.5444 32.1566 16.9258C32.053 17.1806 32.1755 17.4712 32.4302 17.5749C32.6852 17.6785 32.9756 17.556 33.0793 17.3013C33.6901 15.8001 33.9999 14.2091 33.9999 12.5727C33.9999 5.64008 28.3597 0 21.4272 0V0ZM9.66091 26.4434L7.55643 24.339L9.18916 22.7062L11.2936 24.8107L9.66091 26.4434ZM24.609 15.5956C24.609 15.9234 24.4814 16.2314 24.2497 16.463L22.9603 17.7525C22.7285 17.9843 22.4203 18.1119 22.0927 18.1119H21.9253V9.90828H23.7271C24.2134 9.90828 24.609 10.3039 24.609 10.7902V15.5956ZM23.2291 8.91218H19.6253V8.83529C19.6253 7.84171 20.4337 7.03342 21.4272 7.03342C22.4208 7.03342 23.2291 7.84171 23.2291 8.83529V8.91218ZM19.1273 9.90828H20.9292V18.1119H20.7618C20.4341 18.1119 20.126 17.9843 19.8943 17.7525L18.6048 16.463C18.3731 16.2313 18.2454 15.9232 18.2454 15.5956V10.7903C18.2454 10.3039 18.641 9.90828 19.1273 9.90828ZM21.4272 21.1383L18.2456 19.5507V17.5127L19.1899 18.457C19.6098 18.8768 20.168 19.1081 20.7618 19.1081H22.0927C22.6864 19.1081 23.2446 18.8768 23.6646 18.457H23.6647L24.6094 17.5122V19.5507L21.4272 21.1383ZM12.8023 12.5727C12.8023 7.81695 16.6714 3.94785 21.4272 3.94785C26.1829 3.94785 30.052 7.81695 30.052 12.5727C30.052 14.1638 29.6105 15.7134 28.7903 17.0572V16.7297C28.7903 15.9872 28.4648 15.2874 27.8973 14.8096L26.2744 13.442H26.7362C27.0113 13.442 27.2343 13.2191 27.2343 12.944C27.2343 12.6689 27.0113 12.4459 26.7362 12.4459H25.6051V11.2883H26.7362C27.0113 11.2883 27.2343 11.0653 27.2343 10.7902C27.2343 10.5151 27.0113 10.2922 26.7362 10.2922H25.5376C25.3625 9.65633 24.861 9.15483 24.2252 8.97972V8.83522C24.2252 7.29247 22.97 6.03726 21.4272 6.03726C19.8844 6.03726 18.6292 7.2924 18.6292 8.83522V8.97972C17.9934 9.15483 17.4919 9.65633 17.3168 10.2922H16.1182C15.8432 10.2922 15.6202 10.5151 15.6202 10.7902C15.6202 11.0653 15.8432 11.2883 16.1182 11.2883H17.2493V12.4459H16.1182C15.8432 12.4459 15.6202 12.6689 15.6202 12.944C15.6202 13.2191 15.8432 13.442 16.1182 13.442H16.5803L14.9571 14.8095C14.3896 15.2874 14.064 15.9873 14.064 16.7297V17.0572C13.2439 15.7134 12.8023 14.1638 12.8023 12.5727ZM14.3258 22.9489L12.5832 24.6916L9.30836 21.4167L11.0517 19.6735C11.921 20.944 13.0261 22.0587 14.3258 22.9489Z" fill="black"/>
<path d="M18.8555 29.3064C18.5803 29.3064 18.3574 29.5293 18.3574 29.8044V33.5019C18.3574 33.7771 18.5803 34 18.8555 34C19.1306 34 19.3535 33.7771 19.3535 33.5019V29.8044C19.3535 29.5294 19.1306 29.3064 18.8555 29.3064Z" fill="black"/>
<path d="M21.4272 26.9102C21.1521 26.9102 20.9292 27.1331 20.9292 27.4083V33.502C20.9292 33.7771 21.1521 34 21.4272 34C21.7024 34 21.9253 33.7771 21.9253 33.502V27.4083C21.9253 27.1332 21.7024 26.9102 21.4272 26.9102Z" fill="black"/>
</g>
<defs>
<clipPath id="clip0">
<rect width="34" height="34" fill="white"/>
</clipPath>
</defs>
</svg>
