<svg width="40" height="36" viewBox="0 0 40 36" fill="none" xmlns="http://www.w3.org/2000/svg">
<path d="M22.7373 14.3398H17.2628C16.5789 14.3398 16.0225 14.8962 16.0225 15.5801V20.194C16.0225 20.8779 16.5789 21.4343 17.2628 21.4343H19.2506C19.5745 21.4343 19.8371 21.1718 19.8371 20.8478C19.8371 20.5238 19.5745 20.2613 19.2506 20.2613H17.2628C17.2257 20.2613 17.1954 20.2311 17.1954 20.194V15.5801C17.1954 15.543 17.2257 15.5128 17.2628 15.5128H22.7373C22.7745 15.5128 22.8047 15.543 22.8047 15.5801V20.194C22.8047 20.2311 22.7745 20.2613 22.7373 20.2613H21.75C21.4261 20.2613 21.1636 20.5238 21.1636 20.8478C21.1636 21.1718 21.4261 21.4343 21.75 21.4343H22.7373C23.4212 21.4343 23.9777 20.8779 23.9777 20.194V15.5801C23.9777 14.8962 23.4213 14.3398 22.7373 14.3398Z" fill="white"/>
<path d="M37.4302 12.8644H38.9647C39.5356 12.8644 40 12.4 40 11.8291V10.2946C40 9.72371 39.5356 9.2593 38.9647 9.2593H37.4302C36.8593 9.2593 36.3949 9.72371 36.3949 10.2946V10.4754H34.7605C34.6326 10.4754 34.5082 10.5172 34.4063 10.5944L33.648 11.1692C33.4729 10.8143 33.284 10.4655 33.0805 10.1236L34.2581 8.94597C34.5425 8.66157 34.6991 8.28349 34.6991 7.88141C34.6991 7.47932 34.5425 7.10116 34.2581 6.81676L31.148 3.70666C30.561 3.11972 29.6058 3.1198 29.0188 3.70666L27.8605 4.86506C26.5653 4.08114 25.1712 3.5003 23.7047 3.13356V1.50567C23.7047 0.67546 23.0294 0 22.1992 0H17.8009C16.9707 0 16.2953 0.67546 16.2953 1.50567V3.13364C14.829 3.5003 13.4348 4.08114 12.1396 4.86514L10.9813 3.70666C10.3943 3.11972 9.43908 3.1198 8.85206 3.70666L5.74196 6.81684C5.45763 7.10124 5.30101 7.47932 5.30101 7.88141C5.30101 8.28349 5.45763 8.66165 5.74203 8.94589L6.91967 10.1236C6.7162 10.4655 6.52728 10.8143 6.3522 11.1692L5.59385 10.5944C5.49188 10.5172 5.36747 10.4754 5.23962 10.4754H3.60516V10.2946C3.60516 9.72371 3.14075 9.2593 2.56984 9.2593H1.03532C0.464408 9.2593 0 9.72371 0 10.2946V11.8291C0 12.4 0.464408 12.8644 1.03532 12.8644H2.56977C3.14068 12.8644 3.60508 12.4 3.60508 11.8291V11.6483H5.04233L5.86285 12.2702C5.60605 12.9165 5.39343 13.5805 5.22735 14.26H3.54089C2.71068 14.26 2.03529 14.9355 2.03529 15.7656V20.1639C2.03529 20.994 2.71075 21.6695 3.54089 21.6695H5.26676C5.43738 22.3365 5.65297 22.9882 5.91141 23.6226L5.04241 24.2811H3.60516V24.1003C3.60516 23.5294 3.14075 23.065 2.56984 23.065H1.03532C0.464408 23.065 0 23.5294 0 24.1003V25.6348C0 26.2057 0.464408 26.6701 1.03532 26.6701H2.56977C3.14068 26.6701 3.60508 26.2057 3.60508 25.6348V25.454H5.23947C5.36739 25.454 5.49181 25.4122 5.5937 25.335L6.40889 24.7171C6.58507 25.0668 6.77462 25.4103 6.9784 25.7469L5.74188 26.9834C5.45748 27.2678 5.30085 27.6459 5.30085 28.048C5.30085 28.4501 5.45748 28.8282 5.74188 29.1126L8.8519 32.2227C9.43892 32.8097 10.3942 32.8096 10.9811 32.2227L12.2369 30.9668C13.5043 31.7208 14.8657 32.2818 16.2952 32.6393V34.4237C16.2952 35.2538 16.9706 35.9292 17.8008 35.9292H22.199C23.0292 35.9292 23.7046 35.2538 23.7046 34.4237V32.6393C25.134 32.2819 26.4954 31.7208 27.7628 30.9668L29.0187 32.2227C29.6057 32.8097 30.5609 32.8096 31.1479 32.2227L34.2579 29.1126C34.5422 28.8282 34.6988 28.4501 34.6988 28.048C34.6988 27.6459 34.5422 27.2678 34.2578 26.9835L33.0213 25.7469C33.225 25.4103 33.4146 25.0668 33.5908 24.7171L34.406 25.335C34.508 25.4122 34.6324 25.454 34.7602 25.454H36.3946V25.6348C36.3946 26.2057 36.859 26.6701 37.4299 26.6701H38.9644C39.5353 26.6701 39.9997 26.2057 39.9997 25.6348V24.1003C39.9997 23.5294 39.5353 23.065 38.9644 23.065H37.4302C36.8593 23.065 36.3949 23.5294 36.3949 24.1003V24.2811H34.9577L34.0887 23.6226C34.3471 22.9882 34.5627 22.3365 34.7333 21.6695H36.4592C37.2894 21.6695 37.9648 20.994 37.9648 20.1639V15.7656C37.9648 14.9355 37.2893 14.26 36.4592 14.26H34.7726C34.6065 13.5806 34.3939 12.9165 34.1371 12.2702L34.9576 11.6483H36.3948V11.8291C36.3949 12.4 36.8593 12.8644 37.4302 12.8644ZM2.43222 11.6914H1.17294V10.4322H2.43222V11.6914ZM2.43222 25.4972H1.17294V24.238H2.43222V25.4972ZM37.5679 24.238H38.8271V25.4973H37.5679V24.238ZM8.07674 9.6219L6.57146 8.11654C6.50859 8.05375 6.47403 7.97024 6.47403 7.88141C6.47403 7.7925 6.50867 7.70898 6.57146 7.64619L9.68149 4.53617C9.81114 4.4066 10.0223 4.4066 10.1519 4.53609L11.6405 6.02479C11.8362 6.22044 12.1422 6.25258 12.3743 6.10213C13.7958 5.18027 15.3542 4.53085 17.0064 4.17193C17.276 4.11336 17.4684 3.87471 17.4684 3.59883V1.50567C17.4684 1.32222 17.6176 1.17294 17.801 1.17294H22.1992C22.3827 1.17294 22.5319 1.32222 22.5319 1.50567V3.59891C22.5319 3.87478 22.7242 4.11344 22.9939 4.17201C24.646 4.53093 26.2044 5.18035 27.6259 6.10221C27.8581 6.25258 28.164 6.22052 28.3597 6.02487L29.8483 4.53625C29.978 4.40667 30.1891 4.4066 30.3187 4.53625L33.4287 7.64619C33.4916 7.70906 33.5262 7.79257 33.5262 7.88148C33.5262 7.97032 33.4916 8.05383 33.4288 8.11662L31.9235 9.62198C31.729 9.81653 31.6958 10.1201 31.8437 10.352C32.1608 10.8494 32.444 11.3637 32.6942 11.8923L30.9695 13.1994C29.1446 8.94503 24.9149 5.95731 20.0002 5.95731C15.0855 5.95731 10.8558 8.94503 9.03089 13.1994L7.30619 11.8923C7.55634 11.3637 7.83957 10.8495 8.15674 10.352C8.30437 10.12 8.27122 9.81645 8.07674 9.6219ZM30.0164 20.5363C29.9145 20.4591 29.7901 20.4173 29.6622 20.4173H26.9787V18.5513H30.7353C30.688 19.3236 30.5593 20.0742 30.3568 20.7944L30.0164 20.5363ZM23.7719 23.1788H16.2281C15.1066 23.1788 14.1943 22.2665 14.1943 21.145V14.6281C14.1943 13.5066 15.1066 12.5943 16.2281 12.5943H23.7719C24.8934 12.5943 25.8057 13.5066 25.8057 14.6281V21.145C25.8057 22.2665 24.8934 23.1788 23.7719 23.1788ZM10.3378 20.4172C10.2099 20.4172 10.0854 20.459 9.98356 20.5362L9.64356 20.7939C9.43923 20.0658 9.3117 19.3143 9.26462 18.5511H13.0213V20.4171H10.3378V20.4172ZM9.98356 15.3932C10.0855 15.4704 10.2099 15.5122 10.3378 15.5122H13.0213V17.3782H9.25586C9.29238 16.5972 9.41288 15.8377 9.60798 15.1085L9.98356 15.3932ZM26.9787 17.3783V15.5123H29.6622C29.7901 15.5123 29.9145 15.4704 30.0164 15.3933L30.392 15.1086C30.5871 15.8379 30.7076 16.5973 30.7441 17.3783H26.9787V17.3783ZM29.4651 14.3393H26.9651C26.8318 12.8545 25.6826 11.6586 24.2194 11.4533V10.1707C24.2194 9.84671 23.9569 9.58421 23.633 9.58421C23.3091 9.58421 23.0465 9.84671 23.0465 10.1707V11.4214H20.5865V9.22419C20.5865 8.90023 20.3239 8.63772 20 8.63772C19.6761 8.63772 19.4136 8.90023 19.4136 9.22419V11.4214H16.9536V10.1707C16.9536 9.84671 16.691 9.58421 16.3671 9.58421C16.0432 9.58421 15.7806 9.84671 15.7806 10.1707V11.4533C14.3174 11.6585 13.1683 12.8545 13.035 14.3393H10.535L9.99701 13.9315C11.5761 9.95165 15.4647 7.1301 20.0001 7.1301C24.5355 7.1301 28.4241 9.95165 30.0032 13.9315L29.4651 14.3393ZM6.30176 20.9553C6.24194 20.6871 6.00407 20.4965 5.72937 20.4965H3.54089C3.35744 20.4965 3.20824 20.3473 3.20824 20.1639V15.7656C3.20824 15.5822 3.35752 15.433 3.54089 15.433H5.69527C5.9724 15.433 6.21168 15.2391 6.26908 14.9679C6.41061 14.2984 6.60071 13.6444 6.83639 13.008L8.60597 14.3492C8.30625 15.3126 8.1264 16.3282 8.08214 17.3783H7.68912C7.36523 17.3783 7.10265 17.6408 7.10265 17.9647C7.10265 18.2887 7.36523 18.5512 7.68912 18.5512H8.0898C8.14688 19.5768 8.33518 20.5838 8.64664 21.5495L6.88229 22.8867C6.6434 22.2598 6.44893 21.6152 6.30176 20.9553ZM31.8619 26.246L33.4286 27.8129C33.4915 27.8757 33.526 27.9592 33.526 28.0481C33.526 28.137 33.4914 28.2205 33.4286 28.2833L30.3186 31.3933C30.189 31.523 29.9779 31.523 29.8482 31.3934L28.2647 29.8098C28.0702 29.6154 27.7667 29.5821 27.5347 29.7299C26.1382 30.6203 24.6105 31.2499 22.9938 31.6011C22.7242 31.6597 22.5318 31.8983 22.5318 32.1742V34.4238C22.5318 34.6073 22.3826 34.7565 22.1992 34.7565H17.8009C17.6175 34.7565 17.4683 34.6073 17.4683 34.4238V32.1742C17.4683 31.8983 17.276 31.6597 17.0063 31.6011C15.3897 31.2499 13.8619 30.6203 12.4654 29.7299C12.3684 29.6681 12.259 29.638 12.1502 29.638C11.9988 29.638 11.8485 29.6965 11.7353 29.8097L10.1518 31.3932C10.0223 31.5229 9.81114 31.523 9.68141 31.3932L6.57146 28.2833C6.50859 28.2204 6.47395 28.1369 6.47395 28.048C6.47395 27.9592 6.50851 27.8757 6.57138 27.8128L8.13813 26.246C8.33385 26.0503 8.36607 25.7444 8.21546 25.5122C7.89791 25.0224 7.61335 24.516 7.36109 23.9955L9.08125 22.6918C9.57279 23.8082 10.2361 24.8516 11.0575 25.7813C11.272 26.024 11.6426 26.047 11.8853 25.8325C12.128 25.618 12.1509 25.2475 11.9365 25.0047C11.133 24.0953 10.497 23.0653 10.045 21.9614L10.5348 21.5901H13.0528C13.2499 23.0018 14.369 24.1217 15.7806 24.3198V25.6023C15.7806 25.9263 16.0431 26.1888 16.367 26.1888C16.6909 26.1888 16.9535 25.9263 16.9535 25.6023V24.3517H19.4135V26.5488C19.4135 26.8728 19.6761 27.1353 20 27.1353C20.3238 27.1353 20.5864 26.8728 20.5864 26.5488V24.3517H23.0464V25.6023C23.0464 25.9263 23.309 26.1888 23.6329 26.1888C23.9568 26.1888 24.2194 25.9263 24.2194 25.6023V24.3198C25.6309 24.1217 26.75 23.0018 26.9471 21.5901H29.4651L29.9543 21.9608C28.3452 25.8774 24.4898 28.6428 20 28.6428C17.7174 28.6428 15.5367 27.9366 13.6937 26.6004C13.4315 26.4103 13.0647 26.4687 12.8747 26.7309C12.6845 26.9932 12.743 27.3599 13.0052 27.55C15.0497 29.0323 17.4684 29.8159 20 29.8159C24.8694 29.8159 29.066 26.883 30.9179 22.6912L32.6389 23.9955C32.3866 24.5161 32.1022 25.0225 31.7845 25.5122C31.6339 25.7445 31.6661 26.0504 31.8619 26.246ZM33.7309 14.9679C33.7882 15.2391 34.0276 15.433 34.3047 15.433H36.4591C36.6426 15.433 36.7918 15.5822 36.7918 15.7656V20.1639C36.7918 20.3473 36.6425 20.4965 36.4591 20.4965H34.2706C33.9959 20.4965 33.758 20.6871 33.6982 20.9553C33.5511 21.6152 33.3566 22.2598 33.1177 22.8867L31.3534 21.5494C31.6616 20.5964 31.8532 19.5914 31.9106 18.5511H32.3891C32.713 18.5511 32.9755 18.2886 32.9755 17.9647C32.9755 17.6407 32.713 17.3782 32.3891 17.3782H31.9179C31.8736 16.3281 31.6937 15.3125 31.394 14.3491L33.1636 13.008C33.3993 13.6444 33.5894 14.2984 33.7309 14.9679ZM37.5679 10.4322H38.8271V11.6915H37.5679V10.4322Z" fill="white"/>
<path d="M5.18985 17.3789H4.89067C4.56678 17.3789 4.3042 17.6414 4.3042 17.9654C4.3042 18.2893 4.56678 18.5518 4.89067 18.5518H5.18985C5.51374 18.5518 5.77632 18.2893 5.77632 17.9654C5.77632 17.6414 5.51374 17.3789 5.18985 17.3789Z" fill="white"/>
<path d="M34.8885 18.5518H35.1877C35.5115 18.5518 35.7741 18.2893 35.7741 17.9654C35.7741 17.6414 35.5115 17.3789 35.1877 17.3789H34.8885C34.5646 17.3789 34.302 17.6414 34.302 17.9654C34.302 18.2893 34.5646 18.5518 34.8885 18.5518Z" fill="white"/>
</svg>
