<svg width="36" height="34" viewBox="0 0 36 34" fill="none" xmlns="http://www.w3.org/2000/svg">
<path d="M30.0153 27.5672H16.711C16.3226 27.5672 16.0078 27.2699 16.0078 26.9032C16.0078 26.5364 16.3226 26.2391 16.711 26.2391H30.0153C32.5399 26.2391 34.5938 24.2993 34.5938 21.915C34.5938 19.9073 33.0897 18.133 31.0174 17.6961C30.8289 17.6564 30.6661 17.5452 30.567 17.3887C30.468 17.2322 30.4414 17.044 30.4938 16.8684C30.6811 16.2388 30.7761 15.5851 30.7761 14.9255C30.7761 10.9744 27.3724 7.75983 23.1888 7.75983C19.2919 7.75983 16.0481 10.516 15.6433 14.1708C15.6157 14.42 15.4419 14.6334 15.1939 14.7225C14.9459 14.8115 14.6659 14.7612 14.47 14.5922C13.4724 13.732 12.0339 13.5177 10.8051 14.0463C9.47538 14.6183 8.69217 15.9236 8.85621 17.2944C8.88462 17.5317 8.77584 17.7652 8.57145 17.9058C8.36698 18.0464 8.09831 18.0725 7.8679 17.974C7.27277 17.7199 6.63919 17.5911 5.98479 17.5911C3.46015 17.5909 1.40625 19.5307 1.40625 21.915C1.40625 24.2992 3.46015 26.2391 5.98472 26.2391H11.086C11.4744 26.2391 11.7892 26.5364 11.7892 26.9032C11.7892 27.2699 11.4744 27.5672 11.086 27.5672H5.98472C2.68474 27.5672 0 25.0317 0 21.915C0 18.7983 2.68474 16.2628 5.98472 16.2628C6.4864 16.2628 6.97873 16.3207 7.45713 16.4357C7.63889 14.883 8.66693 13.5065 10.2223 12.8375C11.5933 12.2477 13.1487 12.3102 14.4384 12.958C14.8551 11.3 15.7949 9.7912 17.1513 8.63022C18.8075 7.21244 20.9517 6.43164 23.1889 6.43164C28.1479 6.43164 32.1824 10.242 32.1824 14.9255C32.1824 15.4852 32.1246 16.0415 32.01 16.5865C33.043 16.9325 33.9685 17.5465 34.6652 18.3573C35.5259 19.3591 36 20.6226 36 21.915C36 25.0317 33.3153 27.5672 30.0153 27.5672Z" fill="black"/>
<path d="M23.2119 10.416C23.2107 10.416 23.2097 10.416 23.2087 10.416H23.1887C22.8004 10.416 22.4856 10.1187 22.4856 9.75195C22.4856 9.38519 22.8004 9.08789 23.1887 9.08789H23.215C23.6033 9.08955 23.9167 9.38818 23.915 9.75488C23.9132 10.1206 23.5987 10.416 23.2119 10.416Z" fill="black"/>
<path d="M28.6666 15.5894C28.2783 15.5894 27.9635 15.2921 27.9635 14.9253C27.9635 13.3215 27.0494 11.8251 25.5781 11.02C25.2421 10.8362 25.1275 10.4299 25.3222 10.1125C25.5168 9.79517 25.947 9.687 26.283 9.87081C28.187 10.9125 29.3698 12.8493 29.3698 14.9253C29.3697 15.2921 29.055 15.5894 28.6666 15.5894Z" fill="black"/>
<path d="M13.8987 27.5684C13.7131 27.5684 13.5324 27.4973 13.4016 27.3738C13.2701 27.2503 13.1956 27.0789 13.1956 26.9043C13.1956 26.7296 13.2701 26.5583 13.4016 26.4348C13.5324 26.3113 13.7138 26.2402 13.8987 26.2402C14.0836 26.2402 14.265 26.3113 14.3958 26.4348C14.5266 26.5583 14.6018 26.7296 14.6018 26.9043C14.6018 27.0789 14.5266 27.2503 14.3958 27.3738C14.265 27.4973 14.0836 27.5684 13.8987 27.5684Z" fill="black"/>
</svg>
