<svg width="315" height="173" viewBox="0 0 315 173" fill="none" xmlns="http://www.w3.org/2000/svg">
<path fill-rule="evenodd" clip-rule="evenodd" d="M291.156 38.7911C291.261 39.1499 291.637 39.3558 291.996 39.251L301.342 36.5204C301.701 36.4156 301.907 36.0397 301.802 35.6809C301.697 35.3221 301.322 35.1162 300.963 35.2211L291.616 37.9516C291.257 38.0565 291.051 38.4323 291.156 38.7911Z" fill="#3E1E50"/>
<path fill-rule="evenodd" clip-rule="evenodd" d="M281.949 29.056C282.301 29.1819 282.688 28.9986 282.814 28.6467L285.984 19.7867C286.11 19.4348 285.927 19.0474 285.575 18.9215C285.223 18.7956 284.835 18.9788 284.709 19.3308L281.54 28.1907C281.414 28.5427 281.597 28.93 281.949 29.056Z" fill="#3E1E50"/>
<path fill-rule="evenodd" clip-rule="evenodd" d="M288.013 32.6012C288.289 32.8533 288.717 32.834 288.969 32.558L299.529 21.0016C299.781 20.7256 299.761 20.2975 299.485 20.0454C299.209 19.7933 298.781 19.8126 298.529 20.0885L287.97 31.6449C287.718 31.9209 287.737 32.349 288.013 32.6012Z" fill="#3E1E50"/>
<path d="M167.519 165.32L155.648 158.466V172.173L167.519 165.32Z" fill="#3E1E50"/>
<path d="M183.54 165.32L171.67 158.466V172.173L183.54 165.32Z" fill="#3E1E50"/>
<path fill-rule="evenodd" clip-rule="evenodd" d="M109.086 17.9716C109.086 18.3454 109.389 18.6484 109.763 18.6484H119.916C120.29 18.6484 120.593 18.3454 120.593 17.9716C120.593 17.5978 120.29 17.2948 119.916 17.2948H109.763C109.389 17.2948 109.086 17.5978 109.086 17.9716Z" fill="#3E1E50"/>
<path fill-rule="evenodd" clip-rule="evenodd" d="M96.4531 165.757C96.4531 166.28 96.8774 166.704 97.4007 166.704H141.886C142.409 166.704 142.833 166.28 142.833 165.757C142.833 165.233 142.409 164.809 141.886 164.809H97.4007C96.8774 164.809 96.4531 165.233 96.4531 165.757Z" fill="#6946C6"/>
<path fill-rule="evenodd" clip-rule="evenodd" d="M0 68.2663C0 68.7896 0.424236 69.2139 0.947558 69.2139H51.0637C51.587 69.2139 52.0112 68.7896 52.0112 68.2663C52.0112 67.743 51.587 67.3188 51.0637 67.3188H0.947558C0.424236 67.3188 0 67.743 0 68.2663Z" fill="#6946C6"/>
<path fill-rule="evenodd" clip-rule="evenodd" d="M13.4141 62.4033C13.4141 62.7771 13.7171 63.0801 14.0909 63.0801H38.2152C38.589 63.0801 38.892 62.7771 38.892 62.4033C38.892 62.0294 38.589 61.7264 38.2152 61.7264H14.0909C13.7171 61.7264 13.4141 62.0294 13.4141 62.4033Z" fill="#3E1E50"/>
<path fill-rule="evenodd" clip-rule="evenodd" d="M242.102 102.734C242.102 103.108 242.405 103.411 242.778 103.411H262.571C262.945 103.411 263.248 103.108 263.248 102.734C263.248 102.361 262.945 102.057 262.571 102.057H242.778C242.405 102.057 242.102 102.361 242.102 102.734Z" fill="#3E1E50"/>
<path d="M229.019 83.2676L249.856 35.1121C249.856 34.8928 249.856 34.7835 249.856 34.7992H59.7102L38.7383 83.2676H229.019Z" fill="#2F2F2F"/>
<path d="M238.44 109.057C236.97 107.892 235.72 106.443 234.876 104.763C234.062 103.145 233.64 101.369 233.529 99.5664C233.354 96.7399 233.864 93.9097 234.71 91.1916H57.0754L36.1035 148.049H224.218L239.723 109.973C239.283 109.686 238.852 109.384 238.44 109.057Z" fill="#6946C6"/>
<path fill-rule="evenodd" clip-rule="evenodd" d="M24.1367 48.8984C24.1367 49.2722 24.4397 49.5752 24.8135 49.5752H61.9768C62.3506 49.5752 62.6536 49.2722 62.6536 48.8984C62.6536 48.5246 62.3506 48.2215 61.9768 48.2215H24.8135C24.4397 48.2215 24.1367 48.5246 24.1367 48.8984Z" fill="#6946C6"/>
<path fill-rule="evenodd" clip-rule="evenodd" d="M27.0495 144.062H218.773L239.815 87.0164V86.5284H238.462V86.7751L217.83 142.709H28.9916L49.9635 85.8516H29.0509L49.4371 38.7368H239.815V38.0584L239.139 38.0585V37.3832H48.5478L26.9902 87.2052H48.0214L27.0495 144.062Z" fill="#3E1E50"/>
<path fill-rule="evenodd" clip-rule="evenodd" d="M240.268 117.95C240.268 118.473 240.692 118.897 241.215 118.897H280.631C281.155 118.897 281.579 118.473 281.579 117.95C281.579 117.427 281.155 117.002 280.631 117.002H241.215C240.692 117.002 240.268 117.427 240.268 117.95Z" fill="#6946C6"/>
<path fill-rule="evenodd" clip-rule="evenodd" d="M237.27 134.068C237.27 134.591 237.694 135.016 238.217 135.016H313.677C314.2 135.016 314.624 134.591 314.624 134.068C314.624 133.545 314.2 133.121 313.677 133.121H238.217C237.694 133.121 237.27 133.545 237.27 134.068Z" fill="#6946C6"/>
<path fill-rule="evenodd" clip-rule="evenodd" d="M155.893 27.9802C155.893 28.5035 156.317 28.9277 156.84 28.9277H196.82C197.343 28.9277 197.767 28.5035 197.767 27.9802C197.767 27.4569 197.343 27.0326 196.82 27.0326H156.84C156.317 27.0326 155.893 27.4569 155.893 27.9802Z" fill="#6946C6"/>
<path d="M249.924 152.917C249.924 152.917 258.726 135.028 255.456 119.871C252.869 107.872 235.242 101.091 236.223 94.6454C237.292 87.6189 258.751 85.1455 263.937 76.1556C268.393 68.4311 268.364 46.4093 268.364 46.4093L217.186 38.06C217.186 38.06 210.159 58.9306 211.929 67.6714C213.989 77.8428 233.549 87.0081 232.33 94.0103C231.211 100.433 212.344 101.262 206.077 111.816C198.16 125.148 200.821 144.907 200.821 144.907L249.924 152.917Z" fill="white"/>
<path d="M242.758 47.4859C242.758 47.4859 256.258 56.4114 260.608 72.4766C265.517 63.9978 263.956 50.9448 263.956 50.9448L242.758 47.4859Z" fill="#6946C6"/>
<path d="M253.663 153.427L236.609 150.644L214.178 146.985L197.124 144.203C192.969 143.526 189.051 146.345 188.373 150.499L187.84 153.768L212.417 157.778L234.848 161.437L259.426 165.446L259.959 162.177C260.637 158.022 257.818 154.105 253.663 153.427Z" fill="#FEF4CC"/>
<path d="M258.992 36.5085L236.562 32.8493L211.984 28.8398L211.45 32.1086C210.773 36.2638 213.592 40.1813 217.747 40.8592L234.801 43.6417L257.232 47.3009L274.286 50.083C278.441 50.7609 282.359 47.942 283.037 43.7868L283.57 40.518L258.992 36.5085Z" fill="#6946C6"/>
<path d="M256.898 156.663L239.844 153.881L217.413 150.221L200.359 147.439C196.203 146.762 192.285 149.58 191.608 153.736L191.074 157.004L215.652 161.013L238.083 164.673L262.661 168.683L263.194 165.413C263.872 161.259 261.053 157.341 256.898 156.663Z" fill="#6946C6"/>
<path fill-rule="evenodd" clip-rule="evenodd" d="M279.132 40.4423C278.514 44.2286 274.944 46.7972 271.157 46.1794L231.673 39.7382L214.618 36.9562C210.832 36.3385 208.264 32.7683 208.881 28.9826C208.881 28.9826 208.881 28.9826 208.881 28.9826L209.305 26.3813L233.215 30.2818L255.645 33.9415L279.556 37.8416L279.132 40.4423ZM270.94 47.5154C275.464 48.2535 279.73 45.1844 280.468 40.6603L281.11 36.7235L255.863 32.6055L233.433 28.9458L208.187 24.8273L207.545 28.7646C206.807 33.2881 209.877 37.5541 214.4 38.2922L231.455 41.0742L253.885 44.7334L270.94 47.5154Z" fill="#3E1E50"/>
<path fill-rule="evenodd" clip-rule="evenodd" d="M259.985 166.222L260.627 162.285C261.365 157.761 258.296 153.495 253.772 152.757L236.717 149.975L197.232 143.534C192.708 142.796 188.442 145.865 187.704 150.389L187.062 154.325L212.308 158.444L259.985 166.222ZM258.867 164.668L188.616 153.207L189.04 150.607C189.04 150.607 189.04 150.607 189.04 150.607C189.658 146.821 193.228 144.252 197.014 144.87C197.014 144.87 197.014 144.87 197.014 144.87L253.554 154.093C257.34 154.711 259.909 158.281 259.291 162.067L258.867 164.668Z" fill="#3E1E50"/>
<path fill-rule="evenodd" clip-rule="evenodd" d="M201.375 133.403C201.697 126.853 202.999 118.752 206.848 112.27C209.807 107.288 215.794 104.535 221.478 102.188C221.883 102.021 222.286 101.855 222.687 101.691C225.042 100.726 227.297 99.8028 229.08 98.7935C231.133 97.6316 232.858 96.1973 233.213 94.1618C233.592 91.982 232.341 89.8139 230.631 87.7923C228.921 85.7713 226.534 83.6503 224.104 81.4917L223.955 81.3596C221.45 79.1334 218.893 76.8522 216.832 74.5023C214.763 72.1439 213.276 69.8067 212.808 67.4923C212.395 65.4549 212.486 62.6302 212.892 59.4693C213.296 56.3283 214.001 52.9349 214.764 49.7973C215.527 46.6621 216.346 43.7963 216.974 41.7137C217.287 40.6728 217.553 39.8285 217.741 39.2451C217.834 38.9535 217.908 38.7271 217.959 38.5741C217.984 38.4976 218.003 38.4394 218.016 38.4006L218.031 38.357L218.035 38.3439L218.035 38.3433C218.035 38.3432 218.035 38.3432 217.188 38.0582C216.342 37.7731 216.342 37.7733 216.342 37.7735L216.341 37.7744L216.34 37.7776L216.336 37.7896L216.321 37.836C216.307 37.8767 216.287 37.9368 216.261 38.0153C216.21 38.1723 216.134 38.4028 216.039 38.6989C215.849 39.2911 215.58 40.1456 215.263 41.1979C214.628 43.3016 213.801 46.1998 213.028 49.3749C212.256 52.5475 211.536 56.0107 211.12 59.2413C210.707 62.452 210.584 65.514 211.056 67.847C211.618 70.6183 213.348 73.241 215.488 75.6806C217.636 78.1287 220.279 80.4836 222.769 82.6954L222.85 82.7677C225.333 84.9741 227.64 87.0238 229.267 88.9464C230.946 90.9305 231.683 92.5339 231.452 93.8552C231.248 95.0311 230.195 96.1089 228.2 97.2386C226.524 98.187 224.394 99.0602 222.028 100.03C221.624 100.195 221.213 100.364 220.796 100.536C215.2 102.847 208.62 105.786 205.312 111.358C201.243 118.209 199.917 126.653 199.59 133.315C199.426 136.658 199.512 139.578 199.64 141.664C199.703 142.707 199.777 143.543 199.836 144.12C199.865 144.408 199.89 144.632 199.908 144.785C199.917 144.861 199.925 144.92 199.93 144.96L199.936 145.006L199.937 145.019L199.938 145.023C199.938 145.024 199.938 145.024 200.823 144.905C201.709 144.786 201.709 144.786 201.709 144.786L201.708 144.784L201.707 144.775L201.702 144.735C201.698 144.7 201.691 144.646 201.683 144.574C201.666 144.431 201.641 144.218 201.613 143.94C201.557 143.384 201.485 142.572 201.423 141.555C201.299 139.519 201.215 136.666 201.375 133.403Z" fill="#3E1E50"/>
<path fill-rule="evenodd" clip-rule="evenodd" d="M254.78 142.32C256.587 135.899 258.014 127.471 256.334 119.682C254.968 113.348 249.663 108.47 245.092 104.501C244.751 104.205 244.415 103.915 244.084 103.629C242.15 101.958 240.407 100.453 239.12 99.0212C237.587 97.3159 236.932 95.9596 237.111 94.7795C237.313 93.4537 238.521 92.1676 240.743 90.8198C242.896 89.5139 245.735 88.3037 248.791 87.001L248.891 86.9583C251.954 85.6523 255.209 84.2596 258.023 82.6209C260.828 80.9878 263.303 79.0511 264.716 76.6017C265.905 74.54 266.761 71.5976 267.39 68.4222C268.022 65.2271 268.44 61.7145 268.716 58.4611C268.993 55.2051 269.129 52.1941 269.196 49.9979C269.23 48.8994 269.246 48.0036 269.254 47.3818C269.258 47.0708 269.26 46.8282 269.261 46.663C269.261 46.5803 269.261 46.517 269.262 46.4741L269.262 46.4252L269.262 46.4082C269.262 46.408 269.262 46.4078 268.368 46.409C267.475 46.4102 267.475 46.4102 267.475 46.4103L267.475 46.4248L267.475 46.4707C267.475 46.5116 267.474 46.5729 267.474 46.6534C267.473 46.8145 267.471 47.0526 267.467 47.3589C267.46 47.9715 267.443 48.8566 267.41 49.9433C267.344 52.1175 267.209 55.0948 266.936 58.3098C266.663 61.5274 266.252 64.9686 265.637 68.0751C265.018 71.2013 264.207 73.9083 263.168 75.7088C261.988 77.7544 259.835 79.4981 257.124 81.0768C254.423 82.6497 251.274 84.0002 248.19 85.3146L248.007 85.3925C245.018 86.667 242.08 87.9193 239.816 89.2921C237.552 90.6652 235.677 92.3233 235.345 94.5107M254.78 142.32C253.874 145.541 252.864 148.283 252.081 150.22L254.78 142.32ZM252.081 150.22C251.689 151.189 251.353 151.958 251.114 152.486L252.081 150.22ZM251.114 152.486C250.995 152.75 250.9 152.955 250.834 153.094L251.114 152.486ZM250.834 153.094C250.801 153.163 250.776 153.217 250.758 153.253L250.834 153.094ZM250.758 153.253L250.738 153.295L250.758 153.253ZM250.738 153.295L250.732 153.306L250.738 153.295ZM250.732 153.306L250.731 153.31L250.732 153.306ZM250.731 153.31L250.73 153.311L250.731 153.31ZM250.73 153.311C250.73 153.311 250.73 153.311 249.928 152.917L250.73 153.311ZM249.928 152.917C249.127 152.522 249.126 152.522 249.126 152.522L249.928 152.917ZM249.126 152.522L249.127 152.521L249.126 152.522ZM249.127 152.521L249.131 152.512L249.127 152.521ZM249.131 152.512L249.149 152.477L249.131 152.512ZM249.149 152.477C249.164 152.444 249.188 152.395 249.218 152.33L249.149 152.477ZM249.218 152.33C249.28 152.2 249.371 152.005 249.486 151.751L249.218 152.33ZM249.486 151.751C249.716 151.242 250.042 150.495 250.424 149.55L249.486 151.751ZM250.424 149.55C251.189 147.659 252.175 144.981 253.06 141.836L250.424 149.55ZM253.06 141.836C254.837 135.523 256.177 127.428 254.587 120.059L253.06 141.836ZM254.587 120.059C253.366 114.395 248.564 109.882 243.92 105.85L254.587 120.059ZM243.92 105.85C243.59 105.563 243.26 105.278 242.932 104.995L243.92 105.85ZM242.932 104.995C241.005 103.332 239.161 101.739 237.791 100.216L242.932 104.995ZM237.791 100.216C236.214 98.4618 235.034 96.5534 235.345 94.5107L237.791 100.216Z" fill="#3E1E50"/>
<path d="M216.179 66.8513C215.914 66.9878 215.826 67.3202 215.986 67.5715C216.837 68.9056 219.511 72.9298 223.199 76.8575C227.401 81.3333 232.833 85.5317 235.837 86.0212C243.931 87.3419 260.069 75.2732 260.342 74.2526C249.377 77.4705 245.555 76.3052 235.416 67.2737C228.456 61.0745 218.471 65.6633 216.179 66.8513Z" fill="#3E1E50"/>
<path d="M247.522 149.828C246.794 142.753 243.523 121.62 230.289 119.46C217.18 117.321 207.254 136.063 204.154 142.753L247.522 149.828Z" fill="#3E1E50"/>
<path d="M239.442 116.264C239.208 117.697 237.857 118.668 236.425 118.435C234.991 118.201 234.02 116.85 234.253 115.417C234.487 113.984 235.838 113.012 237.27 113.246C238.704 113.48 239.676 114.831 239.442 116.264Z" fill="#3E1E50"/>
<path d="M229.139 110.214C228.962 111.303 227.935 112.042 226.846 111.864C225.757 111.687 225.019 110.66 225.196 109.571C225.374 108.482 226.4 107.744 227.489 107.921C228.578 108.099 229.317 109.126 229.139 110.214Z" fill="#3E1E50"/>
<path d="M235.529 103.052C235.389 103.912 234.578 104.495 233.718 104.355C232.858 104.215 232.275 103.404 232.415 102.545C232.556 101.685 233.367 101.102 234.226 101.242C235.085 101.383 235.669 102.193 235.529 103.052Z" fill="#3E1E50"/>
<path d="M240.898 107.432C240.898 107.432 249.302 111.375 251.906 120.597C254.079 128.297 252.129 133.91 252.129 133.91C252.129 133.91 249.737 124.072 248.559 121.043C245.435 113.01 240.898 107.432 240.898 107.432Z" fill="#6946C6"/>
<path d="M305.783 170.364C305.654 171.602 304.547 172.501 303.309 172.373C302.072 172.244 301.173 171.137 301.301 169.9C301.43 168.661 302.537 167.763 303.775 167.891C305.012 168.02 305.911 169.127 305.783 170.364Z" fill="white"/>
<path d="M246.267 2.25241C246.267 3.49669 245.258 4.50488 244.014 4.50488C242.77 4.50488 241.762 3.49669 241.762 2.25241C241.762 1.00813 242.77 -7.62939e-05 244.014 -7.62939e-05C245.258 -7.62939e-05 246.267 1.00813 246.267 2.25241Z" fill="white"/>
<path d="M223.615 11.3177C223.615 13.6633 221.713 15.5654 219.367 15.5654C217.021 15.5654 215.119 13.6633 215.119 11.3177C215.119 8.97151 217.021 7.0699 219.367 7.0699C221.713 7.0699 223.615 8.97151 223.615 11.3177Z" fill="white"/>
<path d="M249.845 23.9854L246.561 20.7003L249.845 17.4158L253.13 20.7003L249.845 23.9854Z" fill="#6946C6"/>
<path d="M81.3755 69.5933C79.1712 69.5933 77.1873 69.1324 75.4238 68.2106C73.6804 67.2688 72.3077 65.9662 71.3057 64.3029C70.3037 62.6396 69.8027 60.7559 69.8027 58.6518C69.8027 56.5476 70.3037 54.6639 71.3057 53.0006C72.3077 51.3374 73.6804 50.0448 75.4238 49.123C77.1873 48.1811 79.1712 47.7102 81.3755 47.7102C83.2993 47.7102 85.0328 48.0509 86.5758 48.7322C88.1188 49.4136 89.4014 50.3955 90.4234 51.678L86.6359 55.1048C85.2732 53.4616 83.62 52.6399 81.6761 52.6399C80.5339 52.6399 79.5119 52.8904 78.6101 53.3914C77.7284 53.8924 77.037 54.6038 76.536 55.5256C76.0551 56.4274 75.8146 57.4695 75.8146 58.6518C75.8146 59.8341 76.0551 60.8862 76.536 61.808C77.037 62.7098 77.7284 63.4112 78.6101 63.9122C79.5119 64.4131 80.5339 64.6636 81.6761 64.6636C83.62 64.6636 85.2732 63.842 86.6359 62.1988L90.4234 65.6255C89.4014 66.9081 88.1188 67.89 86.5758 68.5713C85.0328 69.2527 83.2993 69.5933 81.3755 69.5933Z" fill="white"/>
<path d="M100.484 69.4431C98.7402 69.4431 97.1671 69.0823 95.7643 68.3609C94.3615 67.6395 93.2594 66.6375 92.4578 65.355C91.6762 64.0725 91.2855 62.6196 91.2855 60.9964C91.2855 59.3932 91.6762 57.9504 92.4578 56.6679C93.2594 55.3853 94.3515 54.3934 95.7342 53.692C97.137 52.9706 98.7201 52.6099 100.484 52.6099C102.247 52.6099 103.83 52.9706 105.233 53.692C106.636 54.3934 107.728 55.3853 108.509 56.6679C109.291 57.9304 109.682 59.3732 109.682 60.9964C109.682 62.6196 109.291 64.0725 108.509 65.355C107.728 66.6375 106.636 67.6395 105.233 68.3609C103.83 69.0823 102.247 69.4431 100.484 69.4431ZM100.484 64.9041C101.486 64.9041 102.307 64.5634 102.948 63.8821C103.59 63.1807 103.91 62.2188 103.91 60.9964C103.91 59.794 103.59 58.8522 102.948 58.1708C102.307 57.4895 101.486 57.1488 100.484 57.1488C99.4816 57.1488 98.66 57.4895 98.0187 58.1708C97.3775 58.8522 97.0568 59.794 97.0568 60.9964C97.0568 62.2188 97.3775 63.1807 98.0187 63.8821C98.66 64.5634 99.4816 64.9041 100.484 64.9041Z" fill="white"/>
<path d="M133.549 52.6099C135.553 52.6099 137.146 53.2111 138.329 54.4134C139.531 55.6158 140.132 57.4294 140.132 59.8542V69.1725H134.421V60.786C134.421 59.6437 134.201 58.8021 133.76 58.261C133.339 57.7199 132.738 57.4494 131.956 57.4494C131.094 57.4494 130.403 57.75 129.882 58.3512C129.361 58.9524 129.1 59.8642 129.1 61.0866V69.1725H123.389V60.786C123.389 58.5616 122.568 57.4494 120.924 57.4494C120.043 57.4494 119.341 57.75 118.82 58.3512C118.299 58.9524 118.039 59.8642 118.039 61.0866V69.1725H112.327V52.8804H117.768V54.5938C118.369 53.9325 119.081 53.4415 119.902 53.1209C120.744 52.7802 121.656 52.6099 122.638 52.6099C123.78 52.6099 124.802 52.8203 125.704 53.2411C126.606 53.6619 127.337 54.3032 127.898 55.1649C128.539 54.3433 129.351 53.712 130.333 53.2712C131.315 52.8303 132.387 52.6099 133.549 52.6099Z" fill="white"/>
<path d="M143.737 52.8804H149.448V69.1725H143.737V52.8804ZM146.593 51.0769C145.551 51.0769 144.709 50.7863 144.068 50.2051C143.426 49.624 143.106 48.9026 143.106 48.0409C143.106 47.1792 143.426 46.4577 144.068 45.8766C144.709 45.2955 145.551 45.0049 146.593 45.0049C147.635 45.0049 148.476 45.2854 149.118 45.8465C149.759 46.3876 150.079 47.089 150.079 47.9507C150.079 48.8525 149.759 49.6039 149.118 50.2051C148.476 50.7863 147.635 51.0769 146.593 51.0769Z" fill="white"/>
<path d="M163.771 52.6099C165.795 52.6099 167.418 53.2111 168.64 54.4134C169.883 55.6158 170.504 57.4294 170.504 59.8542V69.1725H164.793V60.786C164.793 58.5616 163.901 57.4494 162.118 57.4494C161.136 57.4494 160.344 57.77 159.743 58.4113C159.162 59.0526 158.871 60.0145 158.871 61.297V69.1725H153.16V52.8804H158.601V54.6539C159.242 53.9926 160.003 53.4916 160.885 53.1509C161.767 52.7902 162.729 52.6099 163.771 52.6099Z" fill="white"/>
<path d="M191.849 52.8804V66.1967C191.849 69.2226 191.028 71.4871 189.384 72.99C187.741 74.513 185.376 75.2745 182.29 75.2745C180.687 75.2745 179.184 75.0942 177.781 74.7335C176.379 74.3728 175.186 73.8417 174.204 73.1403L176.278 69.1425C176.94 69.6835 177.771 70.1044 178.773 70.4049C179.795 70.7256 180.797 70.8859 181.779 70.8859C183.282 70.8859 184.384 70.5552 185.086 69.8939C185.787 69.2326 186.138 68.2507 186.138 66.9481V66.4071C185.036 67.6896 183.423 68.3309 181.298 68.3309C179.856 68.3309 178.523 68.0102 177.3 67.369C176.078 66.7077 175.106 65.7858 174.385 64.6035C173.663 63.4011 173.303 62.0184 173.303 60.4553C173.303 58.9123 173.663 57.5496 174.385 56.3673C175.106 55.1649 176.078 54.2431 177.3 53.6018C178.523 52.9405 179.856 52.6099 181.298 52.6099C183.623 52.6099 185.326 53.3614 186.408 54.8643V52.8804H191.849ZM182.651 63.7919C183.673 63.7919 184.515 63.4813 185.176 62.8601C185.857 62.2389 186.198 61.4373 186.198 60.4553C186.198 59.4734 185.867 58.6818 185.206 58.0807C184.545 57.4594 183.693 57.1488 182.651 57.1488C181.609 57.1488 180.747 57.4594 180.066 58.0807C179.405 58.6818 179.074 59.4734 179.074 60.4553C179.074 61.4373 179.415 62.2389 180.096 62.8601C180.777 63.4813 181.629 63.7919 182.651 63.7919Z" fill="white"/>
<path d="M82.5325 131.933C80.2473 131.933 78.0147 131.684 75.8346 131.185C73.6807 130.659 71.9077 129.963 70.5156 129.096L73.51 122.32C74.8233 123.081 76.2942 123.699 77.9227 124.171C79.5512 124.618 81.1141 124.841 82.6113 124.841C83.8983 124.841 84.8176 124.723 85.3692 124.487C85.9208 124.224 86.1966 123.843 86.1966 123.344C86.1966 122.766 85.8289 122.333 85.0934 122.044C84.3842 121.755 83.2023 121.44 81.5475 121.098C79.4199 120.652 77.6469 120.179 76.2285 119.68C74.8102 119.155 73.5756 118.314 72.525 117.158C71.4743 115.976 70.949 114.387 70.949 112.391C70.949 110.657 71.4349 109.081 72.4068 107.663C73.3787 106.245 74.8233 105.128 76.7407 104.314C78.6844 103.5 81.0353 103.093 83.7932 103.093C85.6844 103.093 87.5362 103.303 89.3486 103.723C91.1872 104.117 92.8026 104.708 94.1947 105.496L91.3973 112.233C88.6919 110.868 86.1309 110.185 83.7144 110.185C81.3242 110.185 80.1291 110.763 80.1291 111.918C80.1291 112.47 80.4837 112.89 81.1929 113.179C81.9021 113.442 83.0709 113.731 84.6994 114.046C86.8007 114.44 88.5737 114.899 90.0184 115.425C91.463 115.924 92.7107 116.751 93.7613 117.907C94.8382 119.063 95.3767 120.639 95.3767 122.635C95.3767 124.368 94.8908 125.944 93.9189 127.363C92.9471 128.755 91.4893 129.871 89.5456 130.712C87.6281 131.526 85.2904 131.933 82.5325 131.933Z" fill="white"/>
<path d="M109.254 131.697C106.864 131.697 104.71 131.224 102.793 130.278C100.902 129.307 99.4175 127.98 98.3406 126.299C97.2637 124.592 96.7252 122.661 96.7252 120.507C96.7252 118.354 97.2637 116.436 98.3406 114.755C99.4175 113.048 100.902 111.721 102.793 110.776C104.71 109.83 106.864 109.357 109.254 109.357C111.671 109.357 113.825 109.83 115.716 110.776C117.633 111.721 119.117 113.048 120.168 114.755C121.245 116.436 121.783 118.354 121.783 120.507C121.783 122.661 121.245 124.592 120.168 126.299C119.117 127.98 117.633 129.307 115.716 130.278C113.825 131.224 111.671 131.697 109.254 131.697ZM109.254 124.762C110.279 124.762 111.119 124.395 111.776 123.659C112.432 122.898 112.761 121.847 112.761 120.507C112.761 119.168 112.432 118.13 111.776 117.395C111.119 116.659 110.279 116.292 109.254 116.292C108.23 116.292 107.389 116.659 106.733 117.395C106.076 118.13 105.748 119.168 105.748 120.507C105.748 121.847 106.076 122.898 106.733 123.659C107.389 124.395 108.23 124.762 109.254 124.762Z" fill="white"/>
<path d="M135.957 131.697C133.566 131.697 131.413 131.224 129.495 130.278C127.604 129.307 126.12 127.98 125.043 126.299C123.966 124.592 123.428 122.661 123.428 120.507C123.428 118.354 123.966 116.436 125.043 114.755C126.12 113.048 127.604 111.721 129.495 110.776C131.413 109.83 133.566 109.357 135.957 109.357C138.373 109.357 140.527 109.83 142.418 110.776C144.336 111.721 145.82 113.048 146.87 114.755C147.947 116.436 148.486 118.354 148.486 120.507C148.486 122.661 147.947 124.592 146.87 126.299C145.82 127.98 144.336 129.307 142.418 130.278C140.527 131.224 138.373 131.697 135.957 131.697ZM135.957 124.762C136.981 124.762 137.821 124.395 138.478 123.659C139.135 122.898 139.463 121.847 139.463 120.507C139.463 119.168 139.135 118.13 138.478 117.395C137.821 116.659 136.981 116.292 135.957 116.292C134.932 116.292 134.092 116.659 133.435 117.395C132.778 118.13 132.45 119.168 132.45 120.507C132.45 121.847 132.778 122.898 133.435 123.659C134.092 124.395 134.932 124.762 135.957 124.762Z" fill="white"/>
<path d="M166.244 109.357C168.897 109.357 171.025 110.158 172.627 111.761C174.256 113.363 175.07 115.779 175.07 119.01V131.303H166.166V120.547C166.166 118.078 165.286 116.843 163.526 116.843C162.528 116.843 161.713 117.198 161.083 117.907C160.479 118.59 160.177 119.68 160.177 121.177V131.303H151.273V109.751H159.743V111.879C160.584 111.038 161.556 110.408 162.659 109.988C163.762 109.567 164.957 109.357 166.244 109.357Z" fill="white"/>
<path d="M177.834 103.723H188.471L186.698 120.744H179.607L177.834 103.723ZM183.153 131.697C181.629 131.697 180.381 131.237 179.41 130.318C178.438 129.398 177.952 128.282 177.952 126.969C177.952 125.629 178.438 124.526 179.41 123.659C180.381 122.766 181.629 122.32 183.153 122.32C184.676 122.32 185.924 122.766 186.895 123.659C187.867 124.526 188.353 125.629 188.353 126.969C188.353 128.282 187.867 129.398 186.895 130.318C185.924 131.237 184.676 131.697 183.153 131.697Z" fill="white"/>
</svg>
