<svg width="35" height="35" viewBox="0 0 35 35" fill="none" xmlns="http://www.w3.org/2000/svg">
<path d="M8.81429 6.42009C8.81429 5.6716 8.59232 4.93993 8.17646 4.31761C7.7606 3.69529 7.16952 3.21027 6.47799 2.9239C5.78646 2.63754 5.02553 2.56268 4.29145 2.7088C3.55737 2.85492 2.88311 3.21546 2.35395 3.74481C1.82479 4.27416 1.4645 4.94855 1.31864 5.68268C1.17278 6.41682 1.24792 7.17772 1.53454 7.86915C1.82115 8.56058 2.30638 9.15148 2.92886 9.56711C3.55133 9.98275 4.28308 10.2045 5.03156 10.2042C6.0346 10.2027 6.99611 9.80355 7.70524 9.09417C8.41436 8.38479 8.81321 7.42312 8.81429 6.42009ZM2.2034 6.42009C2.2034 5.86099 2.36918 5.31445 2.67977 4.84957C2.99036 4.38468 3.43183 4.02233 3.94834 3.80832C4.46486 3.59431 5.03323 3.53827 5.5816 3.64726C6.12997 3.75625 6.6337 4.0254 7.02912 4.42066C7.42453 4.81592 7.69387 5.31956 7.80308 5.86788C7.91229 6.41621 7.85646 6.9846 7.64265 7.5012C7.42884 8.0178 7.06666 8.4594 6.6019 8.77018C6.13713 9.08095 5.59066 9.24694 5.03156 9.24715C4.28185 9.24658 3.563 8.94857 3.03277 8.41855C2.50255 7.88853 2.20427 7.16979 2.2034 6.42009Z" fill="black"/>
<path d="M12.0042 19.6633H7.56252V13.1695C7.566 12.8347 7.50307 12.5026 7.37738 12.1923C7.25168 11.8821 7.06572 11.5998 6.83024 11.3619C6.59476 11.1239 6.31444 10.935 6.0055 10.8061C5.69655 10.6772 5.36511 10.6108 5.03035 10.6108C4.69559 10.6108 4.36415 10.6772 4.05521 10.8061C3.74626 10.935 3.46594 11.1239 3.23046 11.3619C2.99498 11.5998 2.80902 11.8821 2.68333 12.1923C2.55763 12.5026 2.49471 12.8347 2.49818 13.1695V22.1956C2.49891 22.8672 2.76609 23.5111 3.24106 23.9858C3.71604 24.4606 4.36001 24.7275 5.03158 24.7279H9.47057V31.2221C9.47057 31.8937 9.73736 32.5378 10.2123 33.0127C10.6872 33.4876 11.3313 33.7544 12.0029 33.7544C12.6745 33.7544 13.3186 33.4876 13.7935 33.0127C14.2684 32.5378 14.5352 31.8937 14.5352 31.2221V22.1956C14.5344 21.5245 14.2675 20.8811 13.7931 20.4064C13.3187 19.9317 12.6754 19.6645 12.0042 19.6633ZM13.5795 31.2221C13.5795 31.6399 13.4135 32.0405 13.1181 32.336C12.8227 32.6314 12.422 32.7973 12.0042 32.7973C11.5865 32.7973 11.1858 32.6314 10.8904 32.336C10.5949 32.0405 10.429 31.6399 10.429 31.2221V24.2494C10.429 24.1225 10.3786 24.0008 10.2888 23.9111C10.1991 23.8213 10.0774 23.7709 9.95045 23.7709H5.03158C4.61393 23.7705 4.2135 23.6044 3.91818 23.309C3.62285 23.0137 3.45674 22.6133 3.45631 22.1956V13.1695C3.45356 12.9609 3.49227 12.7538 3.5702 12.5603C3.64812 12.3668 3.76371 12.1907 3.91025 12.0422C4.05678 11.8937 4.23135 11.7758 4.42382 11.6953C4.61629 11.6149 4.82283 11.5734 5.03145 11.5734C5.24006 11.5734 5.4466 11.6149 5.63907 11.6953C5.83154 11.7758 6.00611 11.8937 6.15265 12.0422C6.29918 12.1907 6.41477 12.3668 6.49269 12.5603C6.57062 12.7538 6.60933 12.9609 6.60658 13.1695V20.1421C6.60665 20.269 6.65709 20.3907 6.74682 20.4804C6.83654 20.5701 6.95821 20.6206 7.0851 20.6206H12.0042C12.4219 20.6211 12.8223 20.7873 13.1176 21.0826C13.4129 21.3779 13.579 21.7783 13.5795 22.1959V31.2221Z" fill="black"/>
<path d="M29.9687 2.59277C29.2203 2.59277 28.4886 2.81471 27.8663 3.23051C27.244 3.64631 26.759 4.23731 26.4726 4.92876C26.1862 5.62021 26.1113 6.38107 26.2573 7.11511C26.4033 7.84916 26.7637 8.52342 27.2929 9.05263C27.8221 9.58185 28.4964 9.94225 29.2304 10.0883C29.9645 10.2343 30.7253 10.1593 31.4168 9.87292C32.1083 9.58651 32.6992 9.1015 33.1151 8.47921C33.5309 7.85691 33.7528 7.1253 33.7528 6.37687C33.7517 5.3736 33.3527 4.41173 32.6432 3.70231C31.9338 2.99289 30.972 2.59386 29.9687 2.59277ZM29.9687 9.20394C29.4095 9.20394 28.863 9.03814 28.398 8.72749C27.9331 8.41685 27.5708 7.97532 27.3568 7.45874C27.1428 6.94217 27.0868 6.37374 27.1959 5.82534C27.305 5.27694 27.5743 4.77321 27.9696 4.37783C28.365 3.98246 28.8687 3.71321 29.4171 3.60413C29.9655 3.49504 30.534 3.55103 31.0506 3.765C31.5671 3.97898 32.0087 4.34133 32.3193 4.80624C32.63 5.27115 32.7958 5.81773 32.7958 6.37687C32.7949 7.12639 32.4968 7.84496 31.9668 8.37495C31.4368 8.90494 30.7182 9.20307 29.9687 9.20394Z" fill="black"/>
<path d="M29.9684 10.6367C29.2971 10.6375 28.6535 10.9046 28.1788 11.3793C27.7041 11.854 27.4371 12.4977 27.4364 13.169V19.6632H22.9971C22.3258 19.664 21.6821 19.931 21.2074 20.4057C20.7327 20.8805 20.4656 21.5241 20.4648 22.1955V31.2219C20.4648 31.8935 20.7316 32.5376 21.2065 33.0125C21.6814 33.4874 22.3255 33.7542 22.9971 33.7542C23.6688 33.7542 24.3129 33.4874 24.7878 33.0125C25.2627 32.5376 25.5294 31.8935 25.5294 31.2219V24.7278H29.9684C30.6398 24.727 31.2835 24.46 31.7582 23.9853C32.233 23.5105 32.5 22.8669 32.5007 22.1955V13.1693C32.5001 12.4979 32.2331 11.8541 31.7583 11.3793C31.2836 10.9045 30.6399 10.6374 29.9684 10.6367ZM31.5437 22.1952C31.5433 22.6128 31.3772 23.0133 31.0818 23.3086C30.7865 23.6039 30.3861 23.77 29.9684 23.7705H25.0509C24.924 23.7705 24.8023 23.8209 24.7126 23.9106C24.6228 24.0004 24.5724 24.1221 24.5724 24.249V31.2216C24.5724 31.6394 24.4065 32.0401 24.111 32.3355C23.8156 32.6309 23.4149 32.7969 22.9971 32.7969C22.5794 32.7969 22.1787 32.6309 21.8833 32.3355C21.5878 32.0401 21.4219 31.6394 21.4219 31.2216V22.1955C21.4224 21.7778 21.5885 21.3775 21.8838 21.0821C22.1791 20.7868 22.5795 20.6207 22.9971 20.6202H27.916C28.0429 20.6201 28.1646 20.5697 28.2543 20.48C28.344 20.3902 28.3945 20.2686 28.3945 20.1417V13.169C28.3918 12.9604 28.4305 12.7534 28.5084 12.5598C28.5863 12.3663 28.7019 12.1902 28.8485 12.0417C28.995 11.8933 29.1696 11.7754 29.362 11.6949C29.5545 11.6144 29.761 11.573 29.9697 11.573C30.1783 11.573 30.3848 11.6144 30.5773 11.6949C30.7698 11.7754 30.9443 11.8933 31.0909 12.0417C31.2374 12.1902 31.353 12.3663 31.4309 12.5598C31.5088 12.7534 31.5475 12.9604 31.5448 13.169L31.5437 22.1952Z" fill="black"/>
<path d="M10.3506 17.3557H24.6492C24.7761 17.3557 24.8978 17.3053 24.9875 17.2155C25.0773 17.1258 25.1277 17.0041 25.1277 16.8772V14.3801C25.1277 14.2532 25.0773 14.1315 24.9875 14.0418C24.8978 13.952 24.7761 13.9016 24.6492 13.9016H10.3506C10.2237 13.9016 10.102 13.952 10.0122 14.0418C9.92248 14.1315 9.87207 14.2532 9.87207 14.3801V16.8772C9.87207 17.0041 9.92248 17.1258 10.0122 17.2155C10.102 17.3053 10.2237 17.3557 10.3506 17.3557ZM10.828 14.8586H24.1717V16.3986H10.828V14.8586Z" fill="black"/>
<path d="M10.3513 9.7891H13.3905V11.1161C13.3906 11.243 13.4411 11.3647 13.5308 11.4544C13.6205 11.5441 13.7422 11.5945 13.8691 11.5946H23.0604C23.1873 11.5945 23.309 11.5441 23.3987 11.4544C23.4884 11.3647 23.5388 11.243 23.5389 11.1161V5.41082L24.9988 3.85742C25.0627 3.78936 25.1053 3.70408 25.1214 3.6121C25.1374 3.52012 25.1262 3.42545 25.0891 3.33977C25.052 3.25408 24.9907 3.18111 24.9126 3.12986C24.8346 3.07861 24.7433 3.05131 24.6499 3.05133H21.6106V1.72461C21.6106 1.5977 21.5602 1.47599 21.4705 1.38625C21.3807 1.29651 21.259 1.24609 21.1321 1.24609H11.9408C11.8139 1.24609 11.6922 1.29651 11.6024 1.38625C11.5127 1.47599 11.4623 1.5977 11.4623 1.72461V7.42934L10.0026 8.98246C9.93844 9.05044 9.89556 9.13575 9.87933 9.22784C9.8631 9.31993 9.87422 9.41476 9.91132 9.5006C9.94842 9.58643 10.0099 9.65951 10.0881 9.71078C10.1663 9.76206 10.2578 9.78929 10.3513 9.7891ZM21.6106 9.31059V4.00836H23.5436L22.7118 4.89457C22.6282 4.98339 22.5818 5.10076 22.5819 5.22269V10.6368H14.3476V9.7891H21.1321C21.195 9.7891 21.2573 9.77671 21.3154 9.75262C21.3734 9.72854 21.4262 9.69325 21.4707 9.64875C21.5151 9.60426 21.5503 9.55145 21.5744 9.49333C21.5984 9.43521 21.6107 9.37292 21.6106 9.31004V9.31059ZM12.2894 7.94668C12.3729 7.85783 12.4194 7.74048 12.4193 7.61855V2.20312H20.6536V8.83207H11.4576L12.2894 7.94668Z" fill="black"/>
<path d="M18.8495 6.15649H14.2227C14.0957 6.15649 13.974 6.20691 13.8843 6.29665C13.7946 6.38639 13.7441 6.5081 13.7441 6.63501C13.7441 6.76192 13.7946 6.88363 13.8843 6.97337C13.974 7.06311 14.0957 7.11353 14.2227 7.11353H18.8495C18.9764 7.11353 19.0981 7.06311 19.1879 6.97337C19.2776 6.88363 19.328 6.76192 19.328 6.63501C19.328 6.5081 19.2776 6.38639 19.1879 6.29665C19.0981 6.20691 18.9764 6.15649 18.8495 6.15649Z" fill="black"/>
<path d="M18.8495 3.9209H14.2227C14.0957 3.9209 13.974 3.97131 13.8843 4.06105C13.7946 4.15079 13.7441 4.27251 13.7441 4.39942C13.7441 4.52633 13.7946 4.64804 13.8843 4.73778C13.974 4.82752 14.0957 4.87793 14.2227 4.87793H18.8495C18.9764 4.87793 19.0981 4.82752 19.1879 4.73778C19.2776 4.64804 19.328 4.52633 19.328 4.39942C19.328 4.27251 19.2776 4.15079 19.1879 4.06105C19.0981 3.97131 18.9764 3.9209 18.8495 3.9209Z" fill="black"/>
</svg>
