<svg width="15" height="15" viewBox="0 0 15 15" fill="none" xmlns="http://www.w3.org/2000/svg">
<path d="M10.5143 12.0918H1.57714C0.70611 12.0918 0 11.3857 0 10.5147V1.57753C0 0.706497 0.70611 0.000386238 1.57714 0.000386238H10.5143C11.3853 0.000386238 12.0914 0.706497 12.0914 1.57753V10.5147C12.0914 11.3857 11.3853 12.0918 10.5143 12.0918Z" fill="#DDDDDD"/>
<path d="M13.1416 14.7207H3.6787C2.81239 14.7207 2.10822 14.022 2.10156 13.1557C2.10156 13.1514 2.10156 13.1478 2.10156 13.1436H10.513C11.964 13.1418 13.1398 11.966 13.1416 10.515V2.10357C13.1458 2.10357 13.1494 2.10357 13.1537 2.10357C14.02 2.11022 14.7187 2.81439 14.7187 3.68071V13.1436C14.7187 14.0146 14.0126 14.7207 13.1416 14.7207Z" fill="#DDDDDD"/>
</svg>
