<svg width="32" height="32" viewBox="0 0 32 32" fill="none" xmlns="http://www.w3.org/2000/svg">
<g clip-path="url(#clip0)">
<path d="M28.6667 5.33398H3.33331C1.496 5.33398 0 6.82998 0 8.66736V23.334C0 25.1714 1.496 26.6674 3.33331 26.6674H28.6666C30.5039 26.6674 31.9999 25.1714 31.9999 23.334V8.66736C32 6.82998 30.504 5.33398 28.6667 5.33398ZM30.6667 23.334C30.6667 24.4367 29.7694 25.334 28.6667 25.334H3.33331C2.23062 25.334 1.33331 24.4367 1.33331 23.334V8.66736C1.33331 7.56467 2.23062 6.66736 3.33331 6.66736H28.6666C29.7693 6.66736 30.6666 7.56467 30.6666 8.66736V23.334H30.6667Z" fill="black"/>
<path d="M31.3333 9.33398H0.666687C0.298687 9.33398 0 9.63267 0 10.0007V14.0007C0 14.3687 0.298687 14.6674 0.666687 14.6674H31.3334C31.7014 14.6674 32.0001 14.3687 32.0001 14.0007V10.0007C32 9.63267 31.7013 9.33398 31.3333 9.33398ZM30.6667 13.334H1.33331V10.6673H30.6666V13.334H30.6667Z" fill="black"/>
<path d="M12.6667 18.666H4.66669C4.29869 18.666 4 18.9647 4 19.3327C4 19.7007 4.29869 19.9993 4.66669 19.9993H12.6667C13.0347 19.9993 13.3334 19.7006 13.3334 19.3326C13.3334 18.9646 13.0347 18.666 12.6667 18.666Z" fill="black"/>
<path d="M12.6667 21.334H4.66669C4.29869 21.334 4 21.6327 4 22.0007C4 22.3687 4.29869 22.6674 4.66669 22.6674H12.6667C13.0347 22.6674 13.3334 22.3687 13.3334 22.0007C13.3333 21.6327 13.0347 21.334 12.6667 21.334Z" fill="black"/>
<path d="M25.9993 17.334H24.666C23.5633 17.334 22.666 18.2313 22.666 19.334V20.6673C22.666 21.77 23.5633 22.6673 24.666 22.6673H25.9993C27.102 22.6673 27.9993 21.77 27.9993 20.6673V19.334C27.9993 18.2314 27.102 17.334 25.9993 17.334ZM26.666 20.6674C26.666 21.0354 26.3673 21.334 25.9993 21.334H24.666C24.298 21.334 23.9993 21.0354 23.9993 20.6674V19.334C23.9993 18.966 24.298 18.6674 24.666 18.6674H25.9993C26.3673 18.6674 26.666 18.966 26.666 19.334V20.6674Z" fill="black"/>
</g>
<defs>
<clipPath id="clip0">
<rect width="32" height="32" fill="white"/>
</clipPath>
</defs>
</svg>
