<svg width="64" height="64" viewBox="0 0 64 64" fill="none" xmlns="http://www.w3.org/2000/svg">
<circle cx="32" cy="32" r="32" fill="black"/>
<path d="M48.7529 44.4384L48.2964 43.9818C48.1133 43.7987 47.8165 43.7988 47.6335 43.9818C47.4504 44.1648 47.4504 44.4616 47.6334 44.6446L48.0236 45.0349L46.035 47.0236L42.6541 43.6427L44.6428 41.6541L46.2201 43.2313C46.4032 43.4143 46.6999 43.4143 46.883 43.2313C47.0661 43.0482 47.0661 42.7514 46.883 42.5684L44.9751 40.6606C44.9748 40.6603 44.9746 40.6599 44.9743 40.6596L43.6485 39.3338C43.6481 39.3334 43.6478 39.3332 43.6474 39.3328L42.4773 38.1628C42.3179 38.0033 42.1061 37.9155 41.8806 37.9155C41.6552 37.9155 41.4433 38.0033 41.284 38.1626L41.2177 38.229L39.5404 36.5513C40.7392 35.0534 41.6051 33.2783 42.0254 31.3389H45.3282C45.5871 31.3389 45.7969 31.1291 45.7969 30.8701C45.7969 30.6112 45.5871 30.4014 45.3282 30.4014H42.1916C42.2329 30.1032 42.2637 29.8019 42.2838 29.4976H47.5625C47.8214 29.4976 48.0312 29.2877 48.0312 29.0288C48.0312 28.7699 47.8214 28.5601 47.5625 28.5601H42.3115C42.3093 28.2567 42.2967 27.9554 42.2737 27.6562H45.3283C45.5872 27.6562 45.797 27.4464 45.797 27.1874C45.797 26.9285 45.5872 26.7187 45.3283 26.7187H42.1666C41.8391 24.5637 40.9633 22.548 39.5851 20.8069C39.4244 20.6039 39.1297 20.5697 38.9266 20.7302C38.7237 20.8909 38.6894 21.1858 38.85 21.3888C40.5019 23.4756 41.375 25.9886 41.375 28.6562C41.375 35.118 36.118 40.375 29.6562 40.375C23.1945 40.375 17.9375 35.118 17.9375 28.6562C17.9375 22.1945 23.1945 16.9375 29.6562 16.9375C32.5774 16.9375 35.3757 18.0186 37.5356 19.9817C37.7271 20.1559 38.0237 20.1417 38.1977 19.9501C38.3718 19.7586 38.3577 19.4621 38.1661 19.2879C35.8333 17.1677 32.8111 16 29.6562 16C22.6776 16 17 21.6776 17 28.6562C17 34.8176 21.4259 39.9638 27.2652 41.0849V44.2474C27.2652 44.5063 27.475 44.7161 27.7339 44.7161C27.9929 44.7161 28.2027 44.5063 28.2027 44.2474V41.2286C28.501 41.2628 28.8024 41.2868 29.1066 41.2999V46.4517C29.1066 46.7107 29.3164 46.9205 29.5753 46.9205C29.8343 46.9205 30.0441 46.7107 30.0441 46.4517V41.306C30.3481 41.2968 30.6496 41.2774 30.9479 41.2471V44.2474C30.9479 44.5063 31.1578 44.7161 31.4167 44.7161C31.6756 44.7161 31.8854 44.5063 31.8854 44.2474V41.1159C34.0019 40.7383 35.9373 39.8322 37.5513 38.5404L39.2291 40.2178L39.1628 40.284C39.0034 40.4434 38.9156 40.6553 38.9156 40.8807C38.9156 41.1061 39.0034 41.318 39.1627 41.4773L40.3332 42.6478C40.3334 42.648 40.3336 42.6483 40.3339 42.6485L41.6597 43.9743C41.6599 43.9746 41.6603 43.9748 41.6606 43.9751L45.4382 47.7528C45.5976 47.9123 45.8095 48 46.0349 48C46.2604 48 46.4722 47.9122 46.6316 47.7529L48.7529 45.6316C48.9122 45.4722 49 45.2604 49 45.0349C49 44.8095 48.9122 44.5976 48.7529 44.4384V44.4384ZM38.9263 37.263L40.5547 38.8918L39.8918 39.5546L38.2631 37.9263C38.4922 37.7134 38.7134 37.4922 38.9263 37.263ZM41.9912 42.9799L41.3283 42.317L43.3169 40.3283L43.9798 40.9912L41.9912 42.9799ZM41.8807 38.8919L42.6541 39.6653L40.6654 41.654L39.892 40.8806L41.8807 38.8919Z" fill="white"/>
<path d="M23.1284 37.237C25.0058 38.6482 27.2612 39.4091 29.6561 39.4375C35.6009 39.4375 40.4374 34.6011 40.4374 28.6562C40.4374 22.7114 35.6009 17.875 29.6561 17.875C26.7872 17.875 24.0887 18.9979 22.0581 21.0369C20.0359 23.0673 18.9055 25.7714 18.8749 28.6512C18.8467 31.3024 19.8101 33.8507 21.5873 35.8266C21.7604 36.019 22.0568 36.0348 22.2493 35.8616C22.4418 35.6885 22.4575 35.3921 22.2844 35.1996C20.6646 33.3989 19.7867 31.0768 19.8124 28.6613C19.8403 26.0273 20.8737 23.5546 22.7223 21.6986C24.5758 19.8374 27.0382 18.8125 29.6561 18.8125C35.084 18.8125 39.4999 23.2284 39.4999 28.6562C39.4999 34.0841 35.084 38.5 29.6617 38.5001C27.473 38.4741 25.4086 37.7781 23.6916 36.4876C23.4848 36.3319 23.1908 36.3737 23.0353 36.5807C22.8797 36.7876 22.9214 37.0815 23.1284 37.237V37.237Z" fill="white"/>
<path d="M31.4377 20.2812H28.1877C27.7914 20.2812 27.4689 20.6037 27.4689 21V22.6562H24.4377C24.0414 22.6562 23.7189 22.9787 23.7189 23.375V28.4062H23.0916C22.8326 28.4062 22.6228 28.6161 22.6228 28.875C22.6228 29.1339 22.8326 29.3438 23.0916 29.3438H36.5338C36.7927 29.3438 37.0026 29.1339 37.0026 28.875C37.0026 28.6161 36.7927 28.4062 36.5338 28.4062H35.9064V25.75C35.9064 25.3537 35.584 25.0312 35.1877 25.0312H32.1564V21C32.1564 20.6037 31.834 20.2812 31.4377 20.2812ZM24.6564 23.5938H27.4689V28.4062H24.6564V23.5938ZM28.4064 21.2188H31.2189V28.4062H28.4064V21.2188ZM34.9689 25.9688V28.4062H32.1564V25.9688H34.9689Z" fill="white"/>
<path d="M35.0625 33.3159H32.8557L31.8532 30.7532C31.7823 30.5721 31.6087 30.455 31.4125 30.4552C31.218 30.457 31.0447 30.5786 30.9771 30.761L29.6071 34.4553L28.6496 31.7414C28.5884 31.5676 28.431 31.4459 28.2474 31.4303C28.064 31.4144 27.8881 31.508 27.7982 31.6688L26.8787 33.3158H24.6777C24.4188 33.3158 24.209 33.5256 24.209 33.7846C24.209 34.0435 24.4188 34.2533 24.6777 34.2533H27.1539C27.3237 34.2533 27.4804 34.1614 27.5632 34.0131L28.1109 33.0321L29.154 35.989C29.2197 36.1752 29.3949 36.3002 29.5924 36.3018H29.5962C29.792 36.3018 29.9674 36.1799 30.0356 35.996L31.4283 32.2405L32.0991 33.9554C32.1694 34.1351 32.3426 34.2534 32.5356 34.2534H35.0625C35.3214 34.2534 35.5312 34.0436 35.5312 33.7846C35.5312 33.5257 35.3214 33.3159 35.0625 33.3159V33.3159Z" fill="white"/>
</svg>
