<svg width="18" height="17" viewBox="0 0 18 17" fill="none" xmlns="http://www.w3.org/2000/svg">
<path d="M2.22264 9.54286V7.39187H3.76085C3.85373 7.09764 3.97255 6.81174 4.11557 6.53768L3.02723 5.44934L5.27608 3.20049L6.36442 4.28882C6.63848 4.14581 6.92438 4.02699 7.21861 3.93398V2.3959H10.3989V3.93398C10.6933 4.02699 10.9792 4.14568 11.2533 4.28882L12.3416 3.20049L14.5903 5.44934L13.502 6.53768C13.6451 6.81174 13.7638 7.0975 13.8568 7.39187H15.395V9.54286H17.6177V2.58071C17.6177 1.15769 16.46 0 15.037 0H2.58071C1.15769 0 0 1.15769 0 2.58071V9.54286H2.22264Z" fill="white"/>
<path d="M6.29166 8.97474C6.29166 7.58667 7.42085 6.45747 8.80879 6.45747C10.1967 6.45747 11.3259 7.58667 11.3259 8.97474C11.3259 9.17018 11.3028 9.3601 11.2605 9.5429L14.3627 9.53995V8.42419H13.0327C12.9331 7.66611 12.6334 6.97025 12.1885 6.39121L13.1304 5.44938L12.3414 4.66038L11.3996 5.60234C10.8207 5.15744 10.1247 4.8577 9.36661 4.7581V3.42822H8.25085V4.7581C7.49277 4.8577 6.79691 5.15744 6.21787 5.60234L5.27604 4.66038L4.48704 5.44938L5.429 6.39121C4.9841 6.97025 4.68436 7.66611 4.58476 8.42419H3.25488V9.53995L6.35712 9.5429C6.31478 9.3601 6.29166 9.17018 6.29166 8.97474V8.97474Z" fill="white"/>
<path d="M10.2937 8.97473C10.2937 8.15455 9.62888 7.48975 8.80883 7.48975C7.98878 7.48975 7.32397 8.15468 7.32397 8.97473C7.32397 9.17595 7.36416 9.36789 7.43675 9.54289H10.1809C10.2535 9.36789 10.2937 9.17608 10.2937 8.97473V8.97473Z" fill="white"/>
<path d="M0 10.5752V13.5114H5.1117V15.0484H4.03734V16.0807H13.5803V15.0484H12.506V13.5114H17.6177V10.5752H0Z" fill="white"/>
</svg>
