<svg width="23" height="24" viewBox="0 0 23 24" fill="none" xmlns="http://www.w3.org/2000/svg">
<path d="M15.0039 2.7168C14.7558 2.7168 14.5547 2.92806 14.5547 3.18695C14.5547 3.44584 14.7558 3.65575 15.0039 3.65575C15.252 3.65575 15.4531 3.44589 15.4531 3.187V3.18414C15.4531 2.92525 15.252 2.7168 15.0039 2.7168Z" fill="black"/>
<path d="M13.2763 1.94869C12.1503 1.74998 10.674 1.64062 9.11914 1.64062C8.87108 1.64062 8.66992 1.85048 8.66992 2.10937C8.66992 2.36826 8.87108 2.57812 9.11914 2.57812C10.6253 2.57812 12.0484 2.68284 13.1264 2.87301C13.1518 2.87751 13.177 2.87967 13.2019 2.87967C13.417 2.87967 13.6072 2.71776 13.6443 2.48901C13.6856 2.23373 13.5209 1.99186 13.2763 1.94869Z" fill="black"/>
<path d="M20.0351 18C19.7871 18 19.5859 18.2099 19.5859 18.4688C19.5859 18.9947 19.3897 19.489 19.0333 19.8609C18.2977 20.6285 17.1007 20.6285 16.3651 19.8609C16.0088 19.489 15.8125 18.9947 15.8125 18.4688C15.8125 17.9429 16.0087 17.4485 16.3651 17.0766C16.749 16.6761 17.2803 16.4672 17.8225 16.5042C18.0689 16.5206 18.2838 16.3252 18.2999 16.0668C18.3159 15.8085 18.1284 15.5854 17.8807 15.5687C17.081 15.5142 16.2964 15.8223 15.7298 16.4137C15.2038 16.9626 14.9141 17.6925 14.9141 18.4688C14.9141 19.2451 15.2038 19.9749 15.7298 20.5238C16.2728 21.0904 16.986 21.3737 17.6992 21.3737C18.4124 21.3737 19.1257 21.0904 19.6686 20.5238C20.1947 19.9749 20.4844 19.2451 20.4844 18.4688C20.4844 18.2099 20.2832 18 20.0351 18Z" fill="black"/>
<path d="M19.6707 16.415L19.6635 16.4076L19.3438 16.7368L19.6614 16.4054C19.4859 16.2223 19.2016 16.2223 19.0261 16.4054C18.8507 16.5884 18.8507 16.8852 19.0261 17.0683C19.0264 17.0686 19.0323 17.0748 19.0327 17.0752C19.1205 17.1676 19.236 17.2138 19.3517 17.2138C19.466 17.2138 19.5804 17.1685 19.668 17.0779C19.8441 16.8956 19.8453 16.5988 19.6707 16.415Z" fill="black"/>
<path d="M22.6593 17.2414L22.0072 17.0719L21.6918 16.2779L22.0378 15.6772C22.1441 15.4927 22.1163 15.2565 21.9704 15.1043L20.9234 14.0117C20.7775 13.8595 20.5511 13.8305 20.3743 13.9414L19.7987 14.3025L19.0377 13.9734L18.8752 13.2929C18.8254 13.084 18.6456 12.9374 18.4394 12.9374H18.2382V3.18703C18.2382 2.22234 17.2495 1.4025 15.379 0.815998C13.7007 0.289781 11.4775 0 9.11912 0C6.76073 0 4.53768 0.289781 2.85932 0.815998C0.988729 1.40245 0 2.22234 0 3.18703V20.8129C0 21.7776 0.988729 22.5975 2.85927 23.184C4.53768 23.7102 6.76073 24 9.11912 24C10.1155 24 11.0937 23.9482 12.0266 23.846C12.2733 23.8189 12.4523 23.5883 12.4264 23.3309C12.4005 23.0733 12.1788 22.8865 11.9328 22.9136C11.031 23.0124 10.0843 23.0625 9.11912 23.0625C6.8459 23.0625 4.71459 22.7867 3.11784 22.2861C1.47972 21.7725 0.898436 21.1715 0.898436 20.8129V16.3967C1.37196 16.7415 2.0284 17.0482 2.85927 17.3087C4.53768 17.8349 6.76073 18.1247 9.11912 18.1247C9.80764 18.1247 10.4936 18.0996 11.1579 18.0503C11.4053 18.0319 11.5917 17.8076 11.5741 17.5494C11.5564 17.2912 11.3403 17.0965 11.0941 17.1152C10.451 17.1629 9.78648 17.1872 9.11912 17.1872C6.8459 17.1872 4.71459 16.9114 3.11784 16.4108C1.47972 15.8972 0.898436 15.2962 0.898436 14.9376V10.5213C1.372 10.8662 2.02844 11.1728 2.85932 11.4333C4.53759 11.9595 6.76073 12.2493 9.11912 12.2493C11.4775 12.2493 13.7006 11.9595 15.3789 11.4333C16.2098 11.1728 16.8663 10.8661 17.3398 10.5213V12.9374H16.959C16.7527 12.9374 16.5729 13.084 16.5231 13.2929L16.3606 13.9734L15.5996 14.3025L15.024 13.9414C14.8473 13.8305 14.6208 13.8595 14.4749 14.0117L13.4279 15.1043C13.282 15.2565 13.2543 15.4928 13.3605 15.6772L13.7065 16.2779L13.3911 17.0719L12.739 17.2414C12.5388 17.2935 12.3984 17.4811 12.3984 17.6963V19.2411C12.3984 19.4563 12.5388 19.6439 12.739 19.6959L13.3911 19.8654L13.7065 20.6595L13.3605 21.2602C13.2543 21.4447 13.2821 21.681 13.4279 21.8332L14.4749 22.9257C14.6208 23.0779 14.8473 23.1068 15.024 22.996L15.5996 22.6349L16.3606 22.964L16.5231 23.6445C16.5729 23.8534 16.7527 24 16.959 24H18.4394C18.6456 24 18.8254 23.8534 18.8752 23.6445L19.0377 22.964L19.7987 22.6349L20.3743 22.996C20.551 23.1068 20.7775 23.0779 20.9234 22.9257L21.9704 21.8332C22.1163 21.681 22.1441 21.4447 22.0378 21.2602L21.6918 20.6595L22.0072 19.8654L22.6594 19.6959C22.8595 19.6439 23 19.4563 23 19.2411V17.6963C23 17.4811 22.8595 17.2935 22.6593 17.2414ZM3.11784 1.71384C4.71459 1.21322 6.8459 0.937498 9.11912 0.937498C11.3923 0.937498 13.5237 1.21322 15.1204 1.71384C16.7586 2.22745 17.3398 2.82843 17.3398 3.18703C17.3398 3.54562 16.7586 4.1466 15.1204 4.66016C13.5237 5.16079 11.3924 5.43651 9.11912 5.43651C6.84586 5.43651 4.71459 5.16079 3.11784 4.66016C1.47972 4.14655 0.898436 3.54562 0.898436 3.18703C0.898436 2.82843 1.47972 2.22745 3.11784 1.71384ZM15.1204 10.5355C13.5237 11.0361 11.3924 11.3118 9.11912 11.3118C6.84586 11.3118 4.71459 11.0361 3.11784 10.5355C1.47972 10.0219 0.898436 9.42092 0.898436 9.06233V4.64601C1.372 4.99087 2.02844 5.29752 2.85932 5.558C4.53759 6.08422 6.76073 6.374 9.11912 6.374C11.4775 6.374 13.7006 6.08422 15.3789 5.558C16.2098 5.29747 16.8663 4.99082 17.3398 4.64601V9.06233C17.3398 9.42092 16.7586 10.0219 15.1204 10.5355ZM22.1015 18.8747L21.5703 19.0129C21.4321 19.0488 21.3184 19.151 21.2639 19.2883L20.7751 20.519C20.7206 20.6563 20.7317 20.8125 20.8051 20.9399L21.087 21.4292L20.5364 22.0037L20.0675 21.7096C19.9455 21.6331 19.7957 21.6214 19.6641 21.6783L18.4846 22.1883C18.3531 22.2452 18.2551 22.3639 18.2207 22.5081L18.0884 23.0624H17.3101L17.1777 22.5081C17.1433 22.3639 17.0454 22.2452 16.9138 22.1883L15.7344 21.6783C15.6026 21.6214 15.453 21.6331 15.331 21.7096L14.8621 22.0037L14.3115 21.4292L14.5933 20.9399C14.6668 20.8125 14.6779 20.6563 14.6233 20.519L14.1346 19.2883C14.08 19.151 13.9664 19.0488 13.8282 19.0129L13.2968 18.8747V18.0626L13.8281 17.9245C13.9662 17.8885 14.0799 17.7864 14.1345 17.6491L14.6233 16.4184C14.6778 16.2811 14.6667 16.1249 14.5932 15.9975L14.3114 15.5081L14.862 14.9336L15.3309 15.2278C15.4529 15.3044 15.6026 15.3161 15.7343 15.2591L16.9137 14.7491C17.0453 14.6921 17.1432 14.5735 17.1776 14.4293L17.31 13.875H18.0883L18.2207 14.4293C18.2551 14.5735 18.353 14.6921 18.4846 14.7491L19.6641 15.2591C19.7956 15.316 19.9454 15.3043 20.0675 15.2278L20.5364 14.9336L21.0869 15.5081L20.8051 15.9975C20.7316 16.1249 20.7205 16.2811 20.7751 16.4184L21.2639 17.6491C21.3184 17.7864 21.4321 17.8885 21.5703 17.9245L22.1015 18.0626V18.8747Z" fill="black"/>
</svg>
