<svg width="22" height="22" viewBox="0 0 22 22" fill="none" xmlns="http://www.w3.org/2000/svg">
<path d="M20.8995 0.188948L19.5654 1.52303C18.6473 1.378 16.0188 1.09625 13.2466 2.05538L19.9446 8.7534C20.9037 5.98121 20.622 3.35267 20.477 2.43454L21.8111 1.10046C22.0629 0.848618 22.0629 0.440879 21.8111 0.188948C21.5591 -0.0629827 21.1514 -0.0629827 20.8995 0.188948Z" fill="white"/>
<path d="M11.1265 8.13922C10.3726 8.89312 10.3726 10.1198 11.1265 10.8737C11.8805 11.6277 13.1071 11.6277 13.861 10.8737C14.615 10.1198 14.615 8.89312 13.861 8.13922C13.1071 7.38523 11.8805 7.38523 11.1265 8.13922Z" fill="white"/>
<path d="M19.409 10.0405L11.9594 2.59082C11.04 3.0484 10.1348 3.66132 9.30354 4.49257C7.28998 6.50608 6.6753 8.07503 5.89686 10.0613C5.53141 10.9951 5.11048 12.0682 4.48071 13.3425L8.65719 17.5191C9.93158 16.8893 11.0047 16.4683 11.9383 16.1028C13.9248 15.3244 15.4937 14.7097 17.5072 12.6962C18.3385 11.865 18.9514 10.9598 19.409 10.0405ZM14.7726 11.7848C13.5162 13.0412 11.4714 13.0412 10.215 11.7848C8.95858 10.5283 8.95858 8.48359 10.215 7.22707C11.4714 5.97064 13.5162 5.97064 14.7726 7.22707C16.0291 8.48359 16.0291 10.5283 14.7726 11.7848Z" fill="white"/>
<path d="M2.46705 15.8869C1.72818 16.6258 1.08188 19.2847 0.838067 20.3938C0.791316 20.6088 0.856715 20.8327 1.01201 20.988C1.16739 21.1433 1.39126 21.2087 1.6058 21.1616C2.71489 20.9186 5.37338 20.2728 6.11315 19.533C7.11851 18.5276 7.11851 16.8923 6.11315 15.8869C5.1077 14.8815 3.47241 14.8815 2.46705 15.8869Z" fill="white"/>
<path d="M0.0955613 12.5799C0.251326 12.8282 0.564661 12.9466 0.847745 12.8522C1.0213 12.8219 1.94549 12.3216 3.32632 12.7682C3.93159 11.5431 4.338 10.5062 4.69636 9.59116C4.80666 9.3098 4.91555 9.03436 5.02594 8.76172C3.84195 8.80546 2.69097 9.28212 1.81886 10.1542L0.188161 11.785C-0.0232497 11.9964 -0.0611059 12.3253 0.0955613 12.5799Z" fill="white"/>
<path d="M9.42006 21.9042C9.67465 22.0609 10.0035 22.023 10.215 21.8116L11.8457 20.1809C12.7178 19.3088 13.1946 18.1577 13.2383 16.9736C12.9657 17.0839 12.6904 17.1928 12.4092 17.303C11.4936 17.6618 10.4569 18.0682 9.23177 18.6735C9.67646 20.0486 9.17479 20.9968 9.14768 21.1521C9.0549 21.4292 9.16018 21.7418 9.42006 21.9042Z" fill="white"/>
</svg>
