<svg width="24" height="24" viewBox="0 0 24 24" fill="none" xmlns="http://www.w3.org/2000/svg">
<path d="M22.2422 0.867188H1.75781C0.788531 0.867188 0 1.65572 0 2.625V18.0938C0 19.063 0.788531 19.8516 1.75781 19.8516H9.26048L8.83734 21.3325C8.66742 21.9273 8.00133 22.4297 7.38281 22.4297H4.73438C4.54022 22.4297 4.38281 22.587 4.38281 22.7812C4.38281 22.9755 4.54022 23.1328 4.73438 23.1328H19.2656C19.4598 23.1328 19.6172 22.9755 19.6172 22.7812C19.6172 22.587 19.4598 22.4297 19.2656 22.4297H16.6172C15.9987 22.4297 15.3326 21.9272 15.1627 21.3325L14.7395 19.8516H22.2422C23.2115 19.8516 24 19.063 24 18.0938V2.625C24 1.65572 23.2115 0.867188 22.2422 0.867188ZM1.75781 1.57031H22.2422C22.8238 1.57031 23.2969 2.04347 23.2969 2.625V14.9297H0.703125V2.625C0.703125 2.04347 1.17623 1.57031 1.75781 1.57031ZM14.4866 21.5257C14.583 21.8634 14.7748 22.1737 15.0262 22.4297H8.9738C9.22519 22.1737 9.41695 21.8634 9.51342 21.5257L9.99173 19.8516H14.0082L14.4866 21.5257ZM22.2422 19.1484H1.75781C1.17623 19.1484 0.703125 18.6753 0.703125 18.0938V15.6328H23.2969V18.0938C23.2969 18.6753 22.8238 19.1484 22.2422 19.1484Z" fill="black"/>
<path d="M1.75781 14.2266H22.2422C22.4363 14.2266 22.5938 14.0692 22.5938 13.875V2.625C22.5938 2.4308 22.4363 2.27344 22.2422 2.27344H1.75781C1.56366 2.27344 1.40625 2.4308 1.40625 2.625V7.54688C1.40625 7.74108 1.56366 7.89844 1.75781 7.89844C1.95197 7.89844 2.10938 7.74108 2.10938 7.54688V2.97656H21.8906V13.5234H2.10938V8.95312C2.10938 8.75892 1.95197 8.60156 1.75781 8.60156C1.56366 8.60156 1.40625 8.75892 1.40625 8.95312V13.875C1.40625 14.0692 1.56366 14.2266 1.75781 14.2266Z" fill="black"/>
<path d="M12 16.3359C11.4184 16.3359 10.9453 16.8091 10.9453 17.3906C10.9453 17.9722 11.4184 18.4453 12 18.4453C12.5816 18.4453 13.0547 17.9722 13.0547 17.3906C13.0547 16.8091 12.5816 16.3359 12 16.3359ZM12 17.7422C11.8061 17.7422 11.6484 17.5845 11.6484 17.3906C11.6484 17.1967 11.8061 17.0391 12 17.0391C12.1939 17.0391 12.3516 17.1967 12.3516 17.3906C12.3516 17.5845 12.1939 17.7422 12 17.7422Z" fill="black"/>
</svg>
