<svg width="18" height="18" viewBox="0 0 18 18" fill="none" xmlns="http://www.w3.org/2000/svg">
<path d="M15.7514 0H2.24859C1.00863 0 0 1.00863 0 2.24859V3.44531H18V2.24859C18 1.00863 16.991 0 15.7514 0ZM2.75414 2.25H1.98035C1.68891 2.25 1.45301 2.01375 1.45301 1.72266C1.45301 1.43121 1.68891 1.19531 1.98035 1.19531H2.75414C3.04559 1.19531 3.28148 1.43121 3.28148 1.72266C3.28148 2.01375 3.04559 2.25 2.75414 2.25ZM5.11031 2.25H4.33617C4.04508 2.25 3.80883 2.01375 3.80883 1.72266C3.80883 1.43121 4.04508 1.19531 4.33617 1.19531H5.11031C5.40141 1.19531 5.63766 1.43121 5.63766 1.72266C5.63766 2.01375 5.40141 2.25 5.11031 2.25ZM15.9993 2.25H6.69199C6.4009 2.25 6.16465 2.01375 6.16465 1.72266C6.16465 1.43121 6.4009 1.19531 6.69199 1.19531H15.9993C16.2904 1.19531 16.5266 1.43121 16.5266 1.72266C16.5266 2.01375 16.2904 2.25 15.9993 2.25Z" fill="white"/>
<path d="M9.69035 11.4453C9.75239 11.0626 9.49245 10.7021 9.10974 10.64C8.72704 10.578 8.36651 10.8379 8.30447 11.2206C8.24243 11.6033 8.50238 11.9639 8.88508 12.0259C9.26778 12.0879 9.62832 11.828 9.69035 11.4453Z" fill="white"/>
<path d="M5.27633 11.9628H5.78012C6.00266 11.9628 6.20129 12.1024 6.27617 12.3119C6.30746 12.3987 6.34332 12.4856 6.38305 12.5692C6.47832 12.7703 6.43648 13.0097 6.27934 13.1672L5.92285 13.5237C5.80438 13.6422 5.73898 13.8001 5.73898 13.9678C5.73898 14.1354 5.80438 14.2933 5.92285 14.4118C6.16789 14.6565 6.56621 14.6565 6.8109 14.4118L7.16738 14.0556C7.26863 13.9544 7.40328 13.901 7.54039 13.901C7.61668 13.901 7.69332 13.9175 7.76539 13.9516C7.85258 13.9927 7.94258 14.03 8.03258 14.062C8.24316 14.1365 8.38379 14.3355 8.38379 14.5587V15.0583C8.38379 15.4046 8.66539 15.6862 9.01168 15.6862C9.35797 15.6862 9.63957 15.4046 9.63957 15.0583L9.63992 14.5503C9.63992 14.3285 9.77879 14.1305 9.98727 14.0546C10.0734 14.0233 10.1595 13.9874 10.2429 13.9477C10.4439 13.8517 10.6837 13.8925 10.8416 14.0497L11.1963 14.4023C11.4424 14.6484 11.8407 14.6484 12.0854 14.4033C12.2039 14.2849 12.2693 14.127 12.2693 13.9593C12.2693 13.7916 12.2039 13.6341 12.0854 13.5153L11.7264 13.1581C11.5689 13.001 11.5268 12.7619 11.621 12.5604C11.6589 12.4796 11.6934 12.3959 11.7236 12.3119C11.7989 12.1024 11.9975 11.9628 12.22 11.9628H12.7238C13.0701 11.9628 13.3517 11.6808 13.3517 11.3346C13.3517 10.9883 13.0701 10.7067 12.7238 10.7067H12.22C11.9975 10.7067 11.7989 10.5667 11.7236 10.3572C11.6927 10.2704 11.6565 10.1839 11.6171 10.1002C11.5218 9.89877 11.5633 9.65936 11.7208 9.50186L12.077 9.14572C12.1958 9.0269 12.2612 8.86939 12.2612 8.7017C12.2612 8.534 12.1958 8.37615 12.077 8.25768C11.9585 8.13885 11.801 8.07381 11.6329 8.07381C11.4652 8.07381 11.3077 8.13885 11.1889 8.25768L10.8328 8.61381C10.6753 8.77131 10.4359 8.81279 10.2344 8.71752C10.1539 8.67955 10.0709 8.64475 9.98727 8.61451C9.77879 8.53893 9.63992 8.34064 9.63992 8.11881L9.63957 7.61115C9.63957 7.26451 9.35797 6.98291 9.01168 6.98291C8.66539 6.98291 8.38379 7.26451 8.38379 7.6108V8.11037C8.38379 8.33361 8.24316 8.5326 8.03293 8.60748C7.94293 8.63947 7.85363 8.67604 7.7675 8.71682C7.56289 8.81314 7.31996 8.7685 7.16281 8.60572L6.81652 8.24643C6.57148 8.00455 6.17527 8.00525 5.93129 8.24924C5.81246 8.36772 5.74742 8.52557 5.74742 8.69326C5.74742 8.86096 5.81246 9.01881 5.93129 9.13729L6.28496 9.49307C6.44211 9.65127 6.48289 9.89068 6.38691 10.0918C6.34578 10.1783 6.30852 10.2676 6.27617 10.3572C6.20129 10.5667 6.00266 10.7067 5.78012 10.7067H5.27633C4.93004 10.7067 4.64844 10.9883 4.64844 11.3346C4.64844 11.6808 4.93004 11.9628 5.27633 11.9628ZM9.00008 9.57779C9.96863 9.57779 10.7568 10.366 10.7568 11.3346C10.7568 12.3035 9.96863 13.0913 9.00008 13.0913C8.03152 13.0913 7.24332 12.3035 7.24332 11.3346C7.24332 10.366 8.03152 9.57779 9.00008 9.57779Z" fill="white"/>
<path d="M0 15.7511C0 16.991 1.00863 18 2.24859 18H15.7514C16.991 18 18 16.991 18 15.7511V4.5H0L0 15.7511ZM5.00695 9.67324C4.80305 9.38988 4.69266 9.04992 4.69266 8.69309C4.69266 8.24379 4.86773 7.82121 5.18555 7.5034C5.77477 6.91383 6.69656 6.85406 7.35363 7.32375C7.49004 6.53238 8.18156 5.92805 9.0116 5.92805C9.84094 5.92805 10.5318 6.53098 10.6696 7.32129C10.9498 7.12477 11.2834 7.01895 11.6329 7.01895C12.0825 7.01895 12.5051 7.19367 12.8229 7.51148C13.1407 7.8293 13.3158 8.25187 13.3158 8.70152C13.3158 9.05555 13.2071 9.39269 13.0057 9.67535C13.7995 9.81 14.4063 10.5026 14.4063 11.3344C14.4063 12.162 13.8062 12.8517 13.018 12.9913C13.217 13.2729 13.3239 13.6079 13.3239 13.9591C13.3239 14.4088 13.1488 14.8314 12.831 15.1492C12.2442 15.7359 11.328 15.7978 10.6717 15.3345C10.5395 16.1314 9.84551 16.7407 9.0116 16.7407C8.17734 16.7407 7.48266 16.1304 7.35152 15.3323C6.6941 15.807 5.76844 15.7486 5.17711 15.1573C4.8593 14.8395 4.68422 14.4169 4.68422 13.9676C4.68422 13.6136 4.79285 13.2761 4.9943 12.9934C4.20047 12.8591 3.59367 12.1662 3.59367 11.3344C3.59367 10.4984 4.2068 9.80262 5.00695 9.67324Z" fill="white"/>
</svg>
