<svg width="35" height="35" viewBox="0 0 35 35" fill="none" xmlns="http://www.w3.org/2000/svg">
<path d="M31.164 15.9961H31.161C30.5453 15.9959 29.9548 16.2399 29.5188 16.6745C29.0828 17.1091 28.8369 17.6989 28.8352 18.3146L28.8093 30.0728C28.8093 30.1362 28.8242 30.1988 28.8527 30.2554L30.7634 34.0897C30.7975 34.1578 30.8497 34.215 30.9144 34.255C30.9791 34.295 31.0536 34.3163 31.1297 34.3164H31.1303C31.2063 34.3164 31.2809 34.2952 31.3457 34.2553C31.4104 34.2153 31.4628 34.1581 31.4969 34.0901L33.4178 30.2606C33.4464 30.2039 33.4614 30.1413 33.4616 30.0778L33.4872 18.3211C33.4874 17.7047 33.2427 17.1135 32.8071 16.6775C32.3714 16.2415 31.7803 15.9964 31.164 15.9961ZM29.6504 20.6149L30.7496 20.6163L30.7261 29.6635L29.6306 29.6621L29.6504 20.6149ZM31.1314 32.989L29.8826 30.4827L32.3868 30.486L31.1314 32.989ZM32.6417 29.6661L31.5464 29.6646L31.5699 20.6174L32.6614 20.6188L32.6417 29.6661ZM32.6632 19.7995L29.6522 19.795L29.6555 18.3162C29.6566 17.9178 29.8157 17.5361 30.098 17.2549C30.3802 16.9737 30.7625 16.816 31.161 16.8164H31.1629C31.3603 16.8158 31.5559 16.8542 31.7384 16.9294C31.921 17.0046 32.0869 17.1151 32.2266 17.2546C32.3663 17.3941 32.477 17.5598 32.5525 17.7422C32.628 17.9246 32.6667 18.1202 32.6664 18.3176L32.6632 19.7995Z" fill="black"/>
<path d="M24.6674 7.04102H24.6094V5.88506C24.6075 5.82932 24.5945 5.7745 24.5713 5.72382C24.548 5.67313 24.5149 5.62758 24.4738 5.58981L19.4996 0.798506C19.4212 0.72468 19.3175 0.683578 19.2098 0.683594H4.08105C3.39926 0.684076 2.7454 0.954513 2.26245 1.43577C1.77951 1.91702 1.50678 2.56993 1.50391 3.25172V29.2693C1.50609 29.953 1.77802 30.6081 2.2606 31.0924C2.74318 31.5767 3.3974 31.8509 4.08105 31.8555H4.98005C5.00582 32.5181 5.28765 33.1448 5.76621 33.6038C6.24478 34.0628 6.88275 34.3183 7.54585 34.3164H24.6674C25.0031 34.3155 25.3352 34.2482 25.6448 34.1184C25.9543 33.9887 26.2352 33.799 26.4712 33.5604C26.7072 33.3217 26.8937 33.0387 27.02 32.7278C27.1463 32.4168 27.2098 32.0839 27.207 31.7483V9.59362C27.2095 9.2588 27.1457 8.92681 27.0191 8.61682C26.8925 8.30684 26.7057 8.02502 26.4696 7.78766C26.2334 7.5503 25.9526 7.3621 25.6432 7.23394C25.3339 7.10578 25.0022 7.04021 24.6674 7.04102ZM19.6191 2.05898L23.1742 5.46875H19.6191V2.05898ZM4.08105 31.0352C3.61487 31.0308 3.16914 30.8431 2.84034 30.5126C2.51154 30.1821 2.32612 29.7354 2.32422 29.2692V3.25172C2.32682 2.78741 2.51304 2.34299 2.8422 2.01552C3.17137 1.68804 3.61674 1.50412 4.08105 1.50391H18.7988V5.8962C18.7993 5.9492 18.8104 6.00158 18.8314 6.05023C18.8524 6.09888 18.883 6.14282 18.9213 6.17945C18.9596 6.21607 19.0049 6.24464 19.0545 6.26347C19.104 6.2823 19.1568 6.291 19.2098 6.28906H23.7891V29.2692C23.7847 29.7366 23.5969 30.1835 23.2662 30.5138C22.9355 30.8441 22.4883 31.0313 22.0209 31.0352H4.08105ZM26.3867 31.7483C26.3896 31.9762 26.3474 32.2025 26.2624 32.414C26.1774 32.6255 26.0513 32.8181 25.8914 32.9806C25.7316 33.1431 25.5411 33.2723 25.331 33.3608C25.1209 33.4493 24.8954 33.4953 24.6674 33.4961H7.54585C7.10147 33.4937 6.67448 33.3232 6.35068 33.0188C6.02688 32.7145 5.83027 32.2988 5.80036 31.8555H22.0209C22.7058 31.8514 23.3615 31.5777 23.846 31.0936C24.3304 30.6095 24.6047 29.9541 24.6094 29.2692V7.86133H24.6674C24.8945 7.86041 25.1196 7.90468 25.3295 7.99157C25.5393 8.07846 25.7298 8.20623 25.8898 8.36745C26.0498 8.52867 26.1762 8.7201 26.2615 8.93061C26.3468 9.14112 26.3894 9.3665 26.3867 9.59362V31.7483Z" fill="black"/>
<path d="M6.33398 21.3281C6.2252 21.3281 6.12088 21.3713 6.04396 21.4483C5.96704 21.5252 5.92383 21.6295 5.92383 21.7383C5.92383 21.8471 5.96704 21.9514 6.04396 22.0283C6.12088 22.1052 6.2252 22.1484 6.33398 22.1484H14.876C14.9847 22.1484 15.0891 22.1052 15.166 22.0283C15.2429 21.9514 15.2861 21.8471 15.2861 21.7383C15.2861 21.6295 15.2429 21.5252 15.166 21.4483C15.0891 21.3713 14.9847 21.3281 14.876 21.3281H6.33398Z" fill="black"/>
<path d="M19.7716 23.9258H6.33398C6.2252 23.9258 6.12088 23.969 6.04396 24.0459C5.96704 24.1228 5.92383 24.2272 5.92383 24.3359C5.92383 24.4447 5.96704 24.549 6.04396 24.626C6.12088 24.7029 6.2252 24.7461 6.33398 24.7461H19.7716C19.8804 24.7461 19.9847 24.7029 20.0616 24.626C20.1385 24.549 20.1817 24.4447 20.1817 24.3359C20.1817 24.2272 20.1385 24.1228 20.0616 24.0459C19.9847 23.969 19.8804 23.9258 19.7716 23.9258Z" fill="black"/>
<path d="M17.8432 26.4551H6.33398C6.2252 26.4551 6.12088 26.4983 6.04396 26.5752C5.96704 26.6521 5.92383 26.7565 5.92383 26.8652C5.92383 26.974 5.96704 27.0783 6.04396 27.1553C6.12088 27.2322 6.2252 27.2754 6.33398 27.2754H17.8432C17.952 27.2754 18.0563 27.2322 18.1332 27.1553C18.2101 27.0783 18.2533 26.974 18.2533 26.8652C18.2533 26.7565 18.2101 26.6521 18.1332 26.5752C18.0563 26.4983 17.952 26.4551 17.8432 26.4551Z" fill="black"/>
<path d="M12.0375 18.7852C12.9784 18.7854 13.9085 18.5845 14.7655 18.1961C15.6226 17.8077 16.3867 17.2407 17.0069 16.5331C17.6271 15.8255 18.0889 14.9936 18.3616 14.0931C18.6343 13.1925 18.7114 12.2441 18.5879 11.3114C18.4645 10.3786 18.1431 9.48296 17.6455 8.68441C17.1479 7.88585 16.4855 7.2028 15.7025 6.68096C14.9196 6.15913 14.0342 5.81055 13.1056 5.65855C12.1771 5.50655 11.2268 5.55465 10.3183 5.79962L10.0977 5.1377C10.0704 5.05605 10.0182 4.98505 9.94835 4.93475C9.8785 4.88445 9.7946 4.8574 9.70853 4.85742C8.35483 4.85762 7.05664 5.39551 6.0995 6.35279C5.14235 7.31006 4.60463 8.60832 4.60461 9.96202C4.60459 10.0481 4.63164 10.132 4.68194 10.2018C4.73224 10.2717 4.80324 10.3239 4.88489 10.3512L5.62269 10.5973C5.38283 11.5703 5.36749 12.5852 5.57782 13.5651C5.78815 14.5449 6.21864 15.4641 6.8367 16.253C7.45476 17.0419 8.2442 17.6799 9.14525 18.1186C10.0463 18.5573 11.0354 18.7853 12.0375 18.7852ZM12.0375 6.39209C13.2384 6.3924 14.4094 6.76641 15.3881 7.46224C16.3668 8.15807 17.1047 9.14123 17.4994 10.2753C17.8942 11.4095 17.9262 12.6383 17.5911 13.7914C17.256 14.9446 16.5703 15.9648 15.6292 16.7107C14.688 17.4566 13.5381 17.8911 12.3389 17.954C11.1397 18.0169 9.95068 17.705 8.93671 17.0616C7.92275 16.4183 7.13413 15.4753 6.68025 14.3635C6.22636 13.2518 6.12971 12.0263 6.4037 10.8571L11.9261 12.6976C11.9984 12.7216 12.0759 12.7251 12.15 12.7076C12.2242 12.6901 12.292 12.6523 12.3458 12.5985C12.3997 12.5446 12.4375 12.4768 12.455 12.4027C12.4725 12.3285 12.469 12.251 12.4449 12.1787L10.5781 6.57912C11.0546 6.45488 11.5451 6.39207 12.0375 6.39223V6.39209ZM5.43443 9.66965C5.50529 8.63694 5.94754 7.66478 6.67947 6.93281C7.4114 6.20083 8.38352 5.75851 9.41622 5.68758L11.4073 11.6603L5.43443 9.66965Z" fill="black"/>
<path d="M3.69141 2.77344C3.58263 2.77344 3.4783 2.81665 3.40138 2.89357C3.32446 2.97049 3.28125 3.07481 3.28125 3.18359V3.47754C3.28125 3.58632 3.32446 3.69064 3.40138 3.76756C3.4783 3.84448 3.58263 3.8877 3.69141 3.8877C3.80019 3.8877 3.90451 3.84448 3.98143 3.76756C4.05835 3.69064 4.10156 3.58632 4.10156 3.47754V3.18359C4.10156 3.07481 4.05835 2.97049 3.98143 2.89357C3.90451 2.81665 3.80019 2.77344 3.69141 2.77344Z" fill="black"/>
<path d="M3.69141 4.50391C3.58263 4.50391 3.4783 4.54712 3.40138 4.62404C3.32446 4.70096 3.28125 4.80528 3.28125 4.91406V9.83594C3.28125 9.94472 3.32446 10.049 3.40138 10.126C3.4783 10.2029 3.58263 10.2461 3.69141 10.2461C3.80019 10.2461 3.90451 10.2029 3.98143 10.126C4.05835 10.049 4.10156 9.94472 4.10156 9.83594V4.91406C4.10156 4.80528 4.05835 4.70096 3.98143 4.62404C3.90451 4.54712 3.80019 4.50391 3.69141 4.50391Z" fill="black"/>
</svg>
