<svg width="21" height="17" viewBox="0 0 21 17" fill="none" xmlns="http://www.w3.org/2000/svg">
<path d="M10.6289 0V3.48453H13.4075C12.7591 1.60141 11.7582 0.278098 10.6289 0Z" fill="white"/>
<path d="M6.9646 3.48453H9.74321V0C8.61388 0.278098 7.61297 1.60141 6.9646 3.48453Z" fill="white"/>
<path d="M16.4448 2.74581C15.4173 1.59967 14.1055 0.77326 12.668 0.325928C13.3597 1.09475 13.9364 2.17891 14.35 3.48453H16.1144C16.2889 3.48453 16.4475 3.38177 16.5192 3.22233C16.5909 3.0629 16.5617 2.87602 16.4448 2.74581Z" fill="white"/>
<path d="M3.92744 2.74581C3.81052 2.87602 3.78129 3.0629 3.85217 3.22233C3.92391 3.38177 4.08156 3.48453 4.25694 3.48453H6.02136C6.43502 2.17895 7.01164 1.09479 7.7034 0.325928C6.2667 0.77326 4.95402 1.59967 3.92744 2.74581Z" fill="white"/>
<path d="M6.9646 13.2278C7.61297 15.1109 8.61388 16.4342 9.74321 16.7123V13.2278H6.9646Z" fill="white"/>
<path d="M10.6289 13.2278V16.7123C11.7582 16.4342 12.7591 15.1109 13.4075 13.2278H10.6289Z" fill="white"/>
<path d="M16.5202 13.49C16.4484 13.3305 16.2899 13.2278 16.1154 13.2278H14.351C13.9373 14.5334 13.3607 15.6175 12.6689 16.3864C14.1065 15.9391 15.4183 15.1127 16.4458 13.9665C16.5618 13.8363 16.5911 13.6494 16.5202 13.49Z" fill="white"/>
<path d="M6.02136 13.2278H4.25694C4.08244 13.2278 3.92391 13.3305 3.85217 13.49C3.78129 13.6494 3.81052 13.8363 3.92744 13.9665C4.95493 15.1126 6.2667 15.9391 7.70427 16.3864C7.01164 15.6175 6.43502 14.5334 6.02136 13.2278Z" fill="white"/>
<path d="M18.1579 4.37036H2.21436C0.992941 4.37036 0 5.36417 0 6.58477V10.1278C0 11.3483 0.992941 12.3421 2.21436 12.3421H18.1579C19.3793 12.3421 20.3722 11.3483 20.3722 10.1278V6.58477C20.3723 5.36417 19.3793 4.37036 18.1579 4.37036ZM7.07273 6.69193L6.187 10.2349C6.13917 10.4262 5.97089 10.5626 5.77425 10.5697C5.76806 10.5697 5.76184 10.5697 5.75652 10.5697C5.56607 10.5697 5.39692 10.4484 5.3358 10.2668L4.87166 8.87088L4.40664 10.2677C4.34465 10.4537 4.20382 10.5795 3.96906 10.5698C3.77243 10.5627 3.60415 10.4254 3.55632 10.235L2.67054 6.69193C2.61121 6.45543 2.7547 6.2145 2.99294 6.15516C3.22678 6.09492 3.47037 6.23932 3.5297 6.47756L4.04608 8.5449L4.45086 7.33054C4.57222 6.96915 5.17097 6.96915 5.29142 7.33054L5.69619 8.5449L6.21257 6.47756C6.27282 6.23928 6.50931 6.09579 6.75021 6.15516C6.98857 6.2145 7.13207 6.45543 7.07273 6.69193ZM12.3872 6.69193L11.5015 10.2349C11.4537 10.4262 11.2854 10.5626 11.0888 10.5697C11.0826 10.5697 11.0763 10.5697 11.071 10.5697C10.8806 10.5697 10.7114 10.4484 10.6503 10.2668L10.1862 8.87088L9.72114 10.2677C9.65915 10.4537 9.51475 10.5795 9.28357 10.5698C9.08693 10.5627 8.91865 10.4254 8.87082 10.235L7.98509 6.69197C7.92575 6.45547 8.06925 6.21454 8.30748 6.1552C8.54132 6.09496 8.78579 6.23936 8.84425 6.4776L9.36063 8.54495L9.7654 7.33058C9.88676 6.9692 10.4855 6.9692 10.606 7.33058L11.0107 8.54495L11.5271 6.4776C11.5856 6.23932 11.8229 6.09583 12.0639 6.1552C12.3031 6.21449 12.4466 6.45543 12.3872 6.69193ZM17.7017 6.69193L16.816 10.2349C16.7682 10.4262 16.5999 10.5626 16.4033 10.5697C16.3971 10.5697 16.3908 10.5697 16.3855 10.5697C16.1951 10.5697 16.0259 10.4484 15.9648 10.2668L15.5007 8.87088L15.0356 10.2677C14.9737 10.4537 14.8249 10.5795 14.5981 10.5698C14.4014 10.5627 14.2332 10.4254 14.1853 10.235L13.2996 6.69197C13.2411 6.4546 13.3846 6.21454 13.622 6.1552C13.8558 6.09496 14.1003 6.23936 14.1588 6.4776L14.6751 8.54495L15.0799 7.33058C15.2013 6.9692 15.8 6.9692 15.9205 7.33058L16.3252 8.54495L16.8416 6.4776C16.9001 6.23932 17.1366 6.09583 17.3784 6.1552C17.6176 6.21449 17.7611 6.45543 17.7017 6.69193Z" fill="white"/>
</svg>
