<svg width="340" height="340" viewBox="0 0 340 340" fill="none" xmlns="http://www.w3.org/2000/svg">
<path d="M146.383 338.543C141.08 338.543 135.858 338.331 130.731 337.906C111.427 336.309 72.5871 333.094 42.2596 304.415C29.2671 292.129 19.6175 276.848 13.0879 259.777C15.9067 261.172 19.0645 261.99 22.4097 262.076C59.6316 263.036 161.168 264.942 237.177 265.775L239.195 267.098C239.128 270.729 239.641 274.397 240.772 277.96L235.755 283.897C235.579 284.104 235.555 284.401 235.694 284.635L240.467 292.65C240.585 292.847 240.795 292.963 241.017 292.963C241.06 292.963 241.103 292.958 241.146 292.948L248.756 291.366C251.35 294.057 254.331 296.254 257.556 297.925L258.207 305.676C258.23 305.948 258.423 306.174 258.687 306.241L258.992 306.319C224.457 328.038 183.598 338.543 146.383 338.543ZM332.629 210.667C332.674 206.989 332.71 203.206 332.737 199.359C334.789 197.358 335.821 194.587 335.866 191.508L336.827 125.599C342.207 153.477 340.704 183.259 332.629 210.667ZM187.697 78.0548C166.239 77.6195 144.164 77.2096 123.091 76.8712L124.814 70.0763C124.893 69.7647 124.766 69.4373 124.496 69.2602L116.819 64.2274C116.897 59.9417 116.291 55.6122 114.958 51.4066L120.879 44.3995C121.086 44.1533 121.115 43.8029 120.95 43.5263L115.316 34.0671C115.179 33.8355 114.93 33.6985 114.668 33.6985C114.617 33.6985 114.565 33.7033 114.514 33.7142L105.533 35.583C102.471 32.407 98.9516 29.8129 95.1461 27.8398L94.9993 26.0899C117.147 12.1194 146.454 -0.000549316 181.524 -0.000549316C182.037 -0.000549316 182.549 0.00189209 183.064 0.00674438C239.765 0.580353 279.563 32.6094 284.403 36.6005C287.737 39.3497 293.263 44.163 299.57 51.0537H194.372C190.692 51.0537 187.708 54.7646 187.706 59.3426L187.697 78.0548Z" fill="url(#paint0_linear)"/>
<path d="M230.426 236.299C230.32 236.299 230.213 236.266 230.121 236.197C229.898 236.028 229.854 235.711 230.022 235.488C230.432 234.945 230.858 234.405 231.287 233.879C231.463 233.662 231.783 233.632 231.999 233.808C232.216 233.985 232.248 234.304 232.071 234.521C231.65 235.035 231.233 235.566 230.831 236.099C230.732 236.23 230.579 236.299 230.426 236.299Z" fill="#91B3FA"/>
<path d="M265.369 215.697C265.12 215.697 264.905 215.514 264.868 215.261C264.828 214.985 265.021 214.728 265.299 214.688C266.681 214.491 268.088 214.347 269.481 214.258C269.765 214.254 270.002 214.454 270.019 214.733C270.037 215.013 269.825 215.253 269.546 215.27C268.179 215.356 266.798 215.498 265.441 215.692C265.416 215.695 265.393 215.697 265.369 215.697ZM280.424 215.705C280.399 215.705 280.375 215.704 280.351 215.7C278.996 215.505 277.616 215.363 276.247 215.275C275.967 215.256 275.756 215.016 275.773 214.736C275.791 214.457 276.036 214.253 276.311 214.263C277.707 214.353 279.114 214.498 280.494 214.696C280.772 214.736 280.963 214.993 280.925 215.27C280.888 215.523 280.671 215.705 280.424 215.705ZM291.016 218.343C290.959 218.343 290.9 218.334 290.843 218.312C289.555 217.849 288.232 217.428 286.912 217.065C286.641 216.991 286.482 216.713 286.556 216.442C286.632 216.172 286.911 216.014 287.18 216.088C288.527 216.458 289.874 216.886 291.187 217.36C291.451 217.455 291.587 217.745 291.492 218.008C291.417 218.215 291.223 218.343 291.016 218.343ZM254.777 218.344C254.57 218.344 254.376 218.217 254.301 218.011C254.206 217.747 254.342 217.458 254.604 217.36C255.917 216.885 257.266 216.455 258.611 216.082C258.881 216.008 259.16 216.166 259.234 216.435C259.309 216.706 259.15 216.985 258.881 217.059C257.562 217.424 256.238 217.846 254.951 218.314C254.894 218.334 254.834 218.344 254.777 218.344ZM300.849 223.08C300.759 223.08 300.666 223.055 300.584 223.004C299.422 222.289 298.212 221.609 296.989 220.982C296.741 220.854 296.643 220.549 296.77 220.3C296.897 220.052 297.203 219.952 297.451 220.081C298.698 220.719 299.93 221.412 301.115 222.141C301.354 222.288 301.428 222.599 301.281 222.838C301.185 222.994 301.019 223.08 300.849 223.08ZM244.952 223.106C244.782 223.106 244.616 223.02 244.52 222.865C244.373 222.627 244.447 222.316 244.685 222.168C245.876 221.433 247.108 220.737 248.345 220.099C248.595 219.97 248.9 220.067 249.028 220.317C249.156 220.566 249.058 220.871 248.809 220.999C247.595 221.624 246.386 222.308 245.217 223.03C245.135 223.082 245.043 223.106 244.952 223.106ZM309.505 229.725C309.38 229.725 309.254 229.679 309.155 229.587C308.163 228.646 307.119 227.732 306.054 226.872C305.836 226.696 305.802 226.377 305.978 226.16C306.154 225.942 306.473 225.908 306.691 226.084C307.777 226.96 308.84 227.892 309.853 228.851C310.056 229.044 310.065 229.365 309.872 229.568C309.773 229.673 309.638 229.725 309.505 229.725ZM236.289 229.756C236.156 229.756 236.021 229.702 235.922 229.597C235.729 229.393 235.739 229.073 235.942 228.88C236.955 227.923 238.021 226.992 239.109 226.114C239.326 225.938 239.645 225.972 239.821 226.19C239.997 226.407 239.963 226.728 239.744 226.903C238.677 227.764 237.632 228.678 236.639 229.617C236.54 229.71 236.415 229.756 236.289 229.756ZM316.615 238.008C316.455 238.008 316.297 237.933 316.199 237.791C315.415 236.663 314.58 235.555 313.715 234.496C313.538 234.279 313.571 233.96 313.788 233.783C314.004 233.606 314.323 233.638 314.5 233.855C315.381 234.934 316.233 236.064 317.031 237.213C317.191 237.442 317.134 237.758 316.903 237.917C316.816 237.979 316.715 238.008 316.615 238.008ZM321.906 247.56C321.708 247.56 321.521 247.444 321.439 247.253C320.903 245.996 320.308 244.741 319.671 243.524C319.541 243.276 319.638 242.969 319.886 242.84C320.133 242.71 320.44 242.807 320.569 243.054C321.218 244.295 321.825 245.573 322.372 246.855C322.481 247.112 322.362 247.409 322.104 247.52C322.039 247.548 321.971 247.56 321.906 247.56ZM325.133 257.99C324.896 257.99 324.684 257.823 324.637 257.582C324.369 256.238 324.044 254.888 323.672 253.571C323.595 253.301 323.752 253.022 324.021 252.945C324.289 252.865 324.57 253.025 324.647 253.295C325.026 254.638 325.357 256.015 325.63 257.384C325.685 257.658 325.506 257.925 325.232 257.979C325.198 257.987 325.166 257.99 325.133 257.99Z" fill="#91B3FA"/>
<path d="M326.132 266.738C325.859 266.738 325.633 266.521 325.625 266.247C325.605 265.583 325.571 264.908 325.527 264.244C325.507 263.965 325.718 263.722 325.997 263.703C326.275 263.697 326.517 263.894 326.537 264.175C326.584 264.851 326.618 265.539 326.639 266.217C326.647 266.496 326.426 266.73 326.148 266.738H326.132Z" fill="#91B3FA"/>
<path d="M311.142 305.477C311.015 305.477 310.887 305.429 310.788 305.333C310.588 305.139 310.583 304.818 310.778 304.618C311.245 304.137 311.706 303.643 312.149 303.151C312.335 302.944 312.656 302.926 312.864 303.113C313.072 303.3 313.088 303.62 312.902 303.828C312.451 304.329 311.981 304.833 311.505 305.323C311.405 305.426 311.273 305.477 311.142 305.477Z" fill="#91B3FA"/>
<path d="M221.009 280.323C220.779 280.323 220.569 280.164 220.515 279.93C220.209 278.591 219.95 277.223 219.748 275.862C219.707 275.586 219.897 275.329 220.173 275.286C220.446 275.246 220.708 275.437 220.749 275.713C220.948 277.048 221.202 278.391 221.504 279.703C221.566 279.976 221.396 280.248 221.123 280.309C221.084 280.319 221.047 280.323 221.009 280.323ZM224.464 290.496C224.271 290.496 224.088 290.386 224.003 290.2C223.432 288.951 222.902 287.663 222.428 286.373C222.332 286.11 222.467 285.819 222.73 285.723C222.992 285.626 223.283 285.762 223.38 286.024C223.844 287.29 224.363 288.552 224.925 289.778C225.041 290.033 224.929 290.334 224.675 290.45C224.606 290.482 224.534 290.496 224.464 290.496ZM229.889 299.771C229.732 299.771 229.577 299.698 229.479 299.561C228.843 298.688 228.223 297.782 227.639 296.867C227.481 296.62 227.326 296.373 227.172 296.126C227.025 295.887 227.099 295.575 227.338 295.428C227.576 295.282 227.888 295.356 228.035 295.593C228.185 295.837 228.337 296.08 228.493 296.321C229.066 297.218 229.674 298.108 230.297 298.966C230.462 299.193 230.412 299.509 230.186 299.674C230.096 299.738 229.992 299.771 229.889 299.771ZM237.048 307.776C236.927 307.776 236.805 307.733 236.708 307.644C235.695 306.721 234.704 305.744 233.762 304.74C233.57 304.536 233.58 304.216 233.784 304.024C233.988 303.832 234.309 303.841 234.501 304.046C235.426 305.031 236.398 305.99 237.39 306.896C237.598 307.084 237.612 307.404 237.423 307.611C237.324 307.722 237.187 307.776 237.048 307.776ZM302.921 312.389C302.759 312.389 302.601 312.313 302.502 312.169C302.345 311.937 302.404 311.622 302.635 311.464C303.749 310.705 304.848 309.892 305.9 309.052C306.12 308.877 306.438 308.913 306.612 309.131C306.788 309.349 306.752 309.669 306.533 309.844C305.461 310.7 304.341 311.527 303.206 312.302C303.118 312.362 303.019 312.389 302.921 312.389ZM245.677 314.171C245.59 314.171 245.5 314.148 245.419 314.099C244.24 313.398 243.072 312.642 241.948 311.851C241.719 311.69 241.664 311.374 241.825 311.145C241.987 310.916 242.302 310.861 242.531 311.023C243.633 311.799 244.779 312.541 245.936 313.229C246.178 313.372 246.257 313.682 246.113 313.922C246.019 314.082 245.85 314.171 245.677 314.171ZM293.483 317.526C293.286 317.526 293.098 317.409 293.017 317.215C292.907 316.958 293.029 316.661 293.287 316.553C294.524 316.032 295.762 315.455 296.966 314.837C297.215 314.708 297.521 314.808 297.649 315.056C297.776 315.305 297.678 315.61 297.43 315.738C296.202 316.368 294.941 316.956 293.679 317.486C293.616 317.514 293.549 317.526 293.483 317.526ZM255.419 318.697C255.364 318.697 255.307 318.688 255.253 318.669C253.952 318.218 252.656 317.711 251.4 317.164C251.143 317.051 251.026 316.753 251.138 316.497C251.249 316.24 251.548 316.122 251.805 316.234C253.037 316.771 254.309 317.269 255.585 317.712C255.849 317.804 255.99 318.093 255.898 318.357C255.825 318.566 255.628 318.697 255.419 318.697ZM283.206 320.661C282.969 320.661 282.757 320.494 282.71 320.253C282.655 319.979 282.835 319.712 283.109 319.657C284.433 319.396 285.762 319.081 287.058 318.72C287.328 318.643 287.608 318.802 287.683 319.071C287.758 319.342 287.601 319.621 287.331 319.696C286.009 320.065 284.655 320.386 283.304 320.652C283.271 320.659 283.238 320.661 283.206 320.661ZM265.87 321.184C265.848 321.184 265.825 321.183 265.802 321.18C264.441 320.997 263.071 320.76 261.726 320.473C261.452 320.415 261.277 320.146 261.335 319.873C261.394 319.599 261.662 319.427 261.937 319.483C263.256 319.763 264.603 319.997 265.937 320.175C266.214 320.213 266.408 320.467 266.372 320.745C266.338 321 266.12 321.184 265.87 321.184ZM272.963 321.658L272.505 321.656C272.224 321.653 272 321.424 272.003 321.144C272.005 320.866 272.232 320.642 272.509 320.642H272.514L272.963 320.644C274.16 320.644 275.374 320.603 276.572 320.521C276.852 320.515 277.094 320.712 277.112 320.992C277.131 321.271 276.92 321.513 276.641 321.532C275.42 321.616 274.183 321.658 272.963 321.658Z" fill="#91B3FA"/>
<path d="M219.68 269.643C219.406 269.643 219.18 269.423 219.174 269.148C219.158 268.472 219.156 267.785 219.167 267.102C219.172 266.822 219.403 266.61 219.681 266.604C219.961 266.608 220.184 266.839 220.181 267.118C220.17 267.787 220.172 268.463 220.187 269.125C220.193 269.405 219.971 269.637 219.692 269.643H219.68Z" fill="#91B3FA"/>
<path d="M232.42 262.143C232.353 262.407 232.461 262.685 232.689 262.834L239.194 267.098C239.127 270.729 239.64 274.398 240.771 277.961L235.754 283.897C235.578 284.104 235.554 284.401 235.693 284.635L240.466 292.65C240.606 292.884 240.879 293.004 241.145 292.949L248.755 291.366C251.349 294.057 254.33 296.254 257.555 297.926L258.206 305.676C258.229 305.948 258.422 306.174 258.686 306.241L267.728 308.533C267.993 308.6 268.27 308.492 268.419 308.264L272.683 301.76C276.314 301.826 279.983 301.314 283.546 300.184L289.482 305.199C289.69 305.375 289.988 305.4 290.222 305.26L298.236 300.487C298.471 300.347 298.591 300.075 298.535 299.808L296.951 292.199C299.642 289.604 301.839 286.623 303.512 283.398L311.261 282.747C311.533 282.724 311.759 282.533 311.826 282.268L314.118 273.225C314.186 272.961 314.077 272.683 313.849 272.534L307.345 268.27C307.412 264.639 306.899 260.97 305.769 257.409L310.786 251.471C310.962 251.264 310.986 250.967 310.846 250.733L306.072 242.718C305.934 242.484 305.661 242.364 305.393 242.419L297.784 244.002C295.19 241.311 292.209 239.114 288.985 237.442L288.333 229.693C288.31 229.422 288.118 229.194 287.853 229.127L278.811 226.835C278.547 226.768 278.269 226.876 278.119 227.104L273.856 233.608C270.224 233.542 266.557 234.055 262.994 235.184L257.056 230.169C256.849 229.993 256.552 229.968 256.318 230.108L248.303 234.881C248.069 235.021 247.949 235.294 248.005 235.56L249.587 243.169C246.897 245.764 244.7 248.745 243.028 251.97L235.278 252.621C235.007 252.644 234.779 252.836 234.712 253.1L232.42 262.143Z" fill="#6946C6" fill-opacity="0.43"/>
<path d="M273.269 260.161C271.262 260.161 269.376 260.941 267.954 262.358C266.532 263.778 265.747 265.667 265.746 267.676C265.744 269.686 266.525 271.576 267.945 272.999C269.364 274.42 271.253 275.205 273.263 275.207H273.27C275.277 275.207 277.163 274.426 278.584 273.008C280.007 271.588 280.791 269.7 280.792 267.691C280.795 265.681 280.014 263.791 278.594 262.369C277.175 260.947 275.285 260.162 273.276 260.161H273.269ZM273.27 276.727H273.264C270.846 276.724 268.575 275.782 266.869 274.072C265.162 272.362 264.223 270.091 264.227 267.675C264.228 265.259 265.171 262.989 266.881 261.283C270.41 257.76 276.148 257.766 279.669 261.295C281.376 263.005 282.314 265.276 282.312 267.692C282.311 270.108 281.367 272.378 279.657 274.084C277.95 275.788 275.682 276.727 273.27 276.727Z" fill="#BDD0FB"/>
<path d="M273.503 290.984C265.565 290.984 257.821 286.928 253.473 279.627C252.623 278.201 251.925 276.686 251.4 275.127L252.841 274.642C253.332 276.099 253.983 277.516 254.778 278.849C259.6 286.944 268.89 290.773 277.645 289.065C277.662 289.061 277.678 289.057 277.695 289.055C277.712 289.051 277.727 289.049 277.744 289.045C280.101 288.575 282.416 287.703 284.594 286.405C289.585 283.433 293.12 278.695 294.547 273.063C294.999 271.278 295.223 269.472 295.222 267.677C295.222 263.81 294.181 259.999 292.15 256.591C286.013 246.287 272.639 242.897 262.334 249.034C258.947 251.052 256.175 253.943 254.317 257.396L252.979 256.675C254.966 252.981 257.932 249.887 261.557 247.727C272.581 241.162 286.891 244.788 293.456 255.812C295.629 259.46 296.743 263.537 296.743 267.675C296.743 269.594 296.504 271.528 296.02 273.436C294.493 279.461 290.712 284.532 285.371 287.711C281.649 289.929 277.55 290.984 273.503 290.984Z" fill="#BDD0FB"/>
<path d="M26.0272 26.4941C25.9016 26.4941 25.7752 26.4553 25.6672 26.3729C25.4037 26.174 25.3515 25.7992 25.5506 25.5349C26.0345 24.8958 26.5365 24.2567 27.0429 23.6382C27.2515 23.3823 27.6288 23.3459 27.8844 23.5533C28.1402 23.7631 28.1778 24.139 27.9687 24.3949C27.4722 25.0025 26.9796 25.6295 26.5051 26.2577C26.3873 26.4129 26.2083 26.4941 26.0272 26.4941Z" fill="#91B3FA"/>
<path d="M67.2683 2.17614C66.9761 2.17614 66.7202 1.96148 66.6777 1.66315C66.6317 1.33572 66.8584 1.03255 67.1859 0.986473C68.817 0.753632 70.4784 0.583843 72.1229 0.479549C72.4576 0.473484 72.7365 0.709953 72.7583 1.03981C72.7789 1.36846 72.5279 1.65224 72.198 1.67408C70.5851 1.77473 68.9552 1.94209 67.3545 2.17129C67.3253 2.17493 67.2975 2.17614 67.2683 2.17614ZM85.0383 2.18707C85.0104 2.18707 84.9813 2.18464 84.9522 2.181C83.355 1.95058 81.7252 1.78322 80.1086 1.67893C79.7787 1.65831 79.5289 1.37332 79.5495 1.04346C79.5714 0.713604 79.86 0.472271 80.185 0.485611C81.8319 0.591118 83.4933 0.763317 85.122 0.996162C85.4494 1.04346 85.6762 1.34543 85.6301 1.67287C85.5865 1.9712 85.3306 2.18707 85.0383 2.18707ZM97.5402 5.30131C97.4735 5.30131 97.4044 5.28918 97.3377 5.26493C95.8169 4.71678 94.2562 4.22199 92.6966 3.79147C92.3777 3.70416 92.1909 3.37552 92.2782 3.05657C92.3655 2.73884 92.6954 2.55208 93.0131 2.63939C94.603 3.07597 96.1941 3.58168 97.7439 4.14075C98.0544 4.25232 98.2145 4.5943 98.1029 4.90476C98.0144 5.14973 97.7852 5.30131 97.5402 5.30131ZM54.7672 5.30131C54.5228 5.30131 54.2932 5.15092 54.2051 4.90838C54.0923 4.59793 54.2526 4.25474 54.5631 4.14195C56.1132 3.57925 57.7042 3.07113 59.2923 2.63212C59.6103 2.54481 59.9398 2.73035 60.0279 3.0493C60.1159 3.36703 59.9292 3.69688 59.6105 3.78541C58.0531 4.21593 56.4923 4.71435 54.9713 5.26613C54.9038 5.29039 54.835 5.30131 54.7672 5.30131ZM109.147 10.8907C109.04 10.8907 108.932 10.8628 108.834 10.8022C107.463 9.95814 106.035 9.15413 104.592 8.41437C104.299 8.2652 104.182 7.90502 104.333 7.61032C104.483 7.31685 104.843 7.20042 105.138 7.3508C106.609 8.1039 108.064 8.92248 109.462 9.7835C109.743 9.95692 109.831 10.3244 109.658 10.6069C109.545 10.7901 109.348 10.8907 109.147 10.8907ZM43.1696 10.9223C42.969 10.9223 42.7733 10.8216 42.66 10.6385C42.4866 10.3571 42.5739 9.98969 42.8548 9.81506C44.261 8.94675 45.7147 8.12574 47.1754 7.37264C47.469 7.22105 47.8299 7.33625 47.9809 7.62973C48.1324 7.9232 48.0172 8.2846 47.7233 8.43497C46.29 9.17473 44.8634 9.98118 43.4832 10.8325C43.3854 10.8944 43.2768 10.9223 43.1696 10.9223ZM119.364 18.7358C119.216 18.7358 119.068 18.6812 118.953 18.5721C117.78 17.4612 116.548 16.3831 115.292 15.3681C115.035 15.1595 114.995 14.7836 115.202 14.5265C115.41 14.2694 115.787 14.2306 116.043 14.4367C117.324 15.4724 118.581 16.5711 119.775 17.7038C120.016 17.9318 120.025 18.3101 119.798 18.549C119.681 18.6739 119.522 18.7358 119.364 18.7358ZM32.9458 18.771C32.7871 18.771 32.6286 18.7079 32.5109 18.5842C32.2843 18.3441 32.2948 17.9645 32.5349 17.7389C33.731 16.6087 34.9886 15.51 36.2726 14.4731C36.5291 14.2645 36.906 14.3057 37.1136 14.5628C37.321 14.8199 37.2807 15.1971 37.0238 15.4045C35.7639 16.4207 34.5301 17.4988 33.3566 18.6073C33.2409 18.7164 33.0932 18.771 32.9458 18.771ZM127.757 28.5127C127.568 28.5127 127.382 28.423 127.265 28.2556C126.341 26.9241 125.355 25.6155 124.335 24.3664C124.125 24.1105 124.164 23.7346 124.42 23.5248C124.675 23.3162 125.052 23.3526 125.261 23.6097C126.301 24.8831 127.306 26.217 128.247 27.5729C128.437 27.8445 128.369 28.2168 128.098 28.406C127.994 28.4776 127.875 28.5127 127.757 28.5127ZM134.002 39.7861C133.769 39.7861 133.548 39.6503 133.451 39.4236C132.818 37.9404 132.116 36.4597 131.364 35.0226C131.211 34.7291 131.325 34.3689 131.618 34.2161C131.91 34.0621 132.271 34.1761 132.424 34.4684C133.19 35.9333 133.906 37.442 134.551 38.9542C134.681 39.2574 134.54 39.6091 134.236 39.7389C134.159 39.7716 134.079 39.7861 134.002 39.7861ZM137.811 52.0977C137.532 52.0977 137.282 51.9 137.225 51.6162C136.909 50.03 136.525 48.4365 136.086 46.8818C135.995 46.5628 136.181 46.233 136.499 46.1432C136.815 46.0486 137.148 46.2378 137.237 46.5555C137.686 48.1418 138.077 49.7656 138.398 51.3822C138.463 51.7059 138.252 52.0213 137.929 52.0855C137.89 52.094 137.85 52.0977 137.811 52.0977Z" fill="#91B3FA"/>
<path d="M138.991 62.4258C138.67 62.4258 138.404 62.1711 138.394 61.8461C138.37 61.0615 138.33 60.266 138.277 59.4813C138.254 59.1515 138.504 58.8665 138.832 58.8434C139.161 58.8362 139.448 59.0702 139.47 59.4001C139.525 60.1992 139.566 61.0106 139.59 61.8097C139.6 62.1408 139.34 62.4161 139.011 62.4258H138.991Z" fill="#91B3FA"/>
<path d="M121.301 108.146C121.15 108.146 121 108.091 120.885 107.978C120.647 107.747 120.642 107.369 120.873 107.133C121.423 106.565 121.968 105.982 122.489 105.401C122.71 105.157 123.088 105.137 123.334 105.356C123.579 105.577 123.6 105.955 123.379 106.201C122.847 106.793 122.293 107.386 121.73 107.965C121.612 108.086 121.457 108.146 121.301 108.146Z" fill="#91B3FA"/>
<path d="M14.9079 78.4521C14.6356 78.4521 14.3891 78.2654 14.3257 77.9876C13.9632 76.4087 13.6581 74.7934 13.4187 73.1877C13.3701 72.8615 13.5953 72.5571 13.922 72.5086C14.2445 72.4601 14.5532 72.6844 14.6018 73.0119C14.8367 74.5872 15.136 76.171 15.4914 77.7208C15.5655 78.0422 15.3642 78.3636 15.0423 78.4376C14.9973 78.4473 14.9523 78.4521 14.9079 78.4521ZM18.9859 90.4604C18.7592 90.4604 18.5423 90.3307 18.4415 90.1112C17.7673 88.6365 17.142 87.1158 16.5834 85.5938C16.4699 85.2834 16.6289 84.9389 16.9391 84.8262C17.2482 84.711 17.5924 84.8723 17.7065 85.1815C18.2544 86.6756 18.8679 88.166 19.5297 89.6128C19.667 89.9135 19.5347 90.2688 19.2344 90.4059C19.1539 90.4423 19.0692 90.4604 18.9859 90.4604ZM25.3886 101.408C25.2037 101.408 25.0215 101.322 24.9044 101.16C24.1544 100.129 23.4236 99.0598 22.733 97.9805C22.5471 97.6895 22.3637 97.3972 22.1831 97.1049C22.0097 96.8236 22.097 96.4549 22.3783 96.2827C22.6589 96.1081 23.0274 96.1966 23.2012 96.4767C23.3782 96.7642 23.558 97.0504 23.7406 97.3354C24.4187 98.3953 25.1356 99.4455 25.8716 100.458C26.066 100.725 26.0067 101.098 25.7398 101.292C25.6336 101.37 25.5102 101.408 25.3886 101.408ZM33.8406 110.857C33.6969 110.857 33.5524 110.806 33.4379 110.701C32.2431 109.612 31.0733 108.457 29.9607 107.272C29.7347 107.032 29.7466 106.654 29.9872 106.427C30.2276 106.202 30.6063 106.212 30.8326 106.454C31.9243 107.617 33.0723 108.748 34.2439 109.818C34.488 110.04 34.5052 110.418 34.2828 110.662C34.1648 110.792 34.003 110.857 33.8406 110.857ZM111.593 116.302C111.401 116.302 111.213 116.211 111.098 116.042C110.912 115.769 110.983 115.396 111.255 115.21C112.57 114.313 113.866 113.355 115.109 112.362C115.368 112.156 115.744 112.198 115.95 112.457C116.156 112.714 116.115 113.091 115.856 113.297C114.59 114.309 113.269 115.285 111.928 116.198C111.825 116.268 111.709 116.302 111.593 116.302ZM44.025 118.404C43.9211 118.404 43.816 118.377 43.7203 118.32C42.328 117.493 40.9496 116.601 39.6229 115.667C39.3528 115.476 39.2879 115.103 39.4781 114.834C39.6683 114.562 40.0411 114.498 40.3116 114.688C41.6131 115.605 42.9655 116.481 44.331 117.292C44.6153 117.462 44.7084 117.828 44.5398 118.112C44.428 118.3 44.2291 118.404 44.025 118.404ZM100.453 122.365C100.218 122.365 99.9966 122.228 99.9008 121.998C99.7734 121.694 99.9165 121.344 100.221 121.215C101.681 120.603 103.142 119.921 104.564 119.191C104.857 119.039 105.219 119.156 105.369 119.449C105.52 119.743 105.404 120.103 105.111 120.255C103.663 120.999 102.172 121.693 100.684 122.319C100.608 122.35 100.53 122.365 100.453 122.365ZM55.5233 123.747C55.458 123.747 55.3918 123.737 55.3271 123.714C53.7921 123.182 52.2622 122.583 50.7793 121.937C50.4767 121.804 50.3383 121.453 50.4703 121.149C50.6016 120.846 50.9538 120.707 51.2572 120.84C52.7122 121.474 54.2137 122.061 55.7196 122.584C56.0315 122.692 56.1967 123.034 56.0884 123.346C56.0026 123.593 55.7709 123.747 55.5233 123.747ZM88.3217 126.066C88.0416 126.066 87.7918 125.868 87.736 125.583C87.6717 125.259 87.8827 124.944 88.2077 124.881C89.7697 124.573 91.339 124.201 92.8694 123.774C93.1871 123.684 93.517 123.871 93.6055 124.19C93.6953 124.508 93.5085 124.837 93.1908 124.926C91.63 125.361 90.0317 125.741 88.4381 126.055C88.3993 126.062 88.3605 126.066 88.3217 126.066ZM67.8595 126.683C67.8329 126.683 67.8062 126.681 67.7795 126.678C66.1736 126.462 64.5548 126.182 62.9677 125.844C62.6446 125.775 62.4383 125.457 62.5075 125.134C62.5762 124.811 62.8925 124.608 63.217 124.674C64.7741 125.006 66.3628 125.281 67.9384 125.492C68.2658 125.536 68.495 125.837 68.4514 126.164C68.4113 126.465 68.1542 126.683 67.8595 126.683ZM76.2321 127.242L75.6901 127.24C75.3602 127.236 75.0946 126.966 75.0983 126.636C75.1007 126.307 75.3687 126.044 75.6961 126.044H75.7022L76.2321 126.045C77.645 126.045 79.0772 125.997 80.4912 125.9C80.8223 125.892 81.106 126.127 81.1291 126.456C81.1509 126.785 80.9023 127.071 80.5737 127.094C79.1318 127.191 77.6716 127.242 76.2321 127.242Z" fill="#91B3FA"/>
<path d="M13.3398 65.8477C13.0156 65.8477 12.7493 65.5881 12.7423 65.2631C12.7244 64.4664 12.7218 63.6539 12.7344 62.8486C12.7396 62.5188 13.0136 62.2677 13.3418 62.2605C13.6722 62.2653 13.9358 62.5369 13.9306 62.868C13.918 63.6575 13.9207 64.4543 13.9379 65.2364C13.9454 65.5663 13.6838 65.8404 13.3535 65.8477H13.3398Z" fill="#91B3FA"/>
<path d="M28.3806 56.9972C28.3015 57.3101 28.4292 57.6375 28.6982 57.8134L36.3752 62.8461C36.2973 67.1331 36.9025 71.4625 38.2362 75.667L32.3155 82.6741C32.1077 82.9203 32.079 83.2707 32.2435 83.5472L37.8779 93.0076C38.0427 93.2841 38.3646 93.4248 38.6795 93.3593L47.6609 91.4917C50.7234 94.6666 54.2418 97.2606 58.0478 99.2337L58.8165 108.381C58.8436 108.701 59.0708 108.971 59.3827 109.049L70.0566 111.754C70.3683 111.834 70.6957 111.705 70.8716 111.436L75.9043 103.76C80.1913 103.837 84.5207 103.232 88.7252 101.898L95.7335 107.82C95.9784 108.027 96.3289 108.056 96.6054 107.891L106.066 102.257C106.342 102.092 106.484 101.771 106.418 101.455L104.55 92.474C107.725 89.4119 110.319 85.8926 112.292 82.0871L121.439 81.3182C121.761 81.2916 122.029 81.0636 122.108 80.7519L124.813 70.0788C124.892 69.7671 124.765 69.4397 124.496 69.2626L116.818 64.2299C116.897 59.9441 116.29 55.6147 114.957 51.409L120.878 44.4019C121.085 44.1557 121.114 43.8053 120.95 43.5288L115.315 34.0696C115.15 33.7931 114.829 33.6512 114.514 33.7167L105.532 35.5855C102.47 32.4094 98.9508 29.8154 95.1453 27.8423L94.3765 18.6947C94.3498 18.3746 94.1218 18.1066 93.8101 18.0277L83.137 15.3222C82.8253 15.2433 82.4979 15.3707 82.3208 15.6399L77.288 23.3164C73.0023 23.2388 68.6729 23.8439 64.4675 25.1779L57.4601 19.2562C57.2146 19.0489 56.864 19.021 56.5875 19.1847L47.1276 24.819C46.8514 24.9839 46.7097 25.3065 46.7751 25.6206L48.6436 34.602C45.4683 37.6653 42.8741 41.1834 40.9009 44.9889L31.7536 45.7577C31.4329 45.7844 31.1649 46.0124 31.0857 46.3241L28.3806 56.9972Z" fill="#6946C6" fill-opacity="0.6"/>
<path d="M76.596 54.6578C74.2263 54.6578 71.9998 55.5795 70.3226 57.253C68.6442 58.929 67.7177 61.158 67.7165 63.53C67.714 65.9021 68.6357 68.1323 70.3105 69.8119C71.9864 71.4903 74.2154 72.4156 76.5875 72.4181H76.5935C78.9644 72.4181 81.1922 71.4964 82.8694 69.8228C84.5478 68.1469 85.4731 65.9191 85.4755 63.547C85.4779 61.1749 84.5562 58.9435 82.8803 57.2651C81.2055 55.5867 78.9765 54.6602 76.6045 54.6578H76.596ZM76.596 74.2129H76.5863C73.7352 74.2093 71.0551 73.0972 69.0407 71.0792C67.0264 69.0613 65.919 66.3799 65.9219 63.5288C65.9245 60.6765 67.0373 57.9976 69.0553 55.9833C73.221 51.8249 79.9928 51.8322 84.1512 55.9979C86.1643 58.0158 87.2727 60.6971 87.2703 63.5482C87.2667 66.3993 86.1546 69.0795 84.1366 71.0926C82.1211 73.1045 79.4434 74.2129 76.596 74.2129Z" fill="white" fill-opacity="0.5"/>
<path d="M76.8735 91.0352C67.504 91.0352 58.3633 86.2473 53.2305 77.6298C52.2278 75.9465 51.4049 74.159 50.7852 72.3181L52.4855 71.7457C53.0652 73.4665 53.8343 75.1376 54.7717 76.7118C60.4628 86.2655 71.4284 90.7865 81.7632 88.7686C81.7826 88.7662 81.802 88.7613 81.8202 88.7577C81.8408 88.754 81.8602 88.7504 81.8796 88.7467C84.6604 88.1913 87.3926 87.1617 89.9648 85.6301C95.855 82.1217 100.028 76.5286 101.712 69.8817C102.246 67.7752 102.51 65.6433 102.51 63.5247C102.509 58.96 101.281 54.462 98.8831 50.4382C91.6396 38.2771 75.8524 34.2751 63.6911 41.5187C59.6923 43.9005 56.4198 47.3143 54.2278 51.3902L52.6479 50.5389C54.9934 46.1779 58.495 42.5264 62.773 39.9773C75.7845 32.2293 92.6752 36.5077 100.426 49.5202C102.989 53.8265 104.304 58.6374 104.305 63.521C104.305 65.7876 104.023 68.0687 103.451 70.3219C101.649 77.4345 97.1853 83.4181 90.8828 87.1727C86.4892 89.7897 81.6504 91.0352 76.8735 91.0352Z" fill="white" fill-opacity="0.5"/>
<path d="M145.95 250.898L139.979 304.449H209.254L200.23 250.898H145.95Z" fill="url(#paint1_linear)"/>
<path d="M296.672 266.184C280.836 266.184 260.172 266.03 237.176 265.777C161.167 264.944 59.6305 263.038 22.4085 262.079C19.0634 261.992 15.9056 261.174 13.0867 259.779C5.69703 256.124 0.636719 248.509 0.636719 239.737V92.4217C0.636719 84.4518 6.37942 77.8 13.9895 76.432C14.3801 76.3617 14.7758 76.3059 15.1759 76.2647C15.6179 76.2174 16.0648 76.1895 16.5169 76.1798C22.0572 76.0549 29.3279 75.9979 37.9579 75.9967C38.0747 75.9967 38.1887 75.9967 38.306 75.9967C60.0821 75.9967 90.3802 76.3484 123.09 76.8735C144.163 77.2118 166.238 77.6217 187.696 78.0571L187.692 85.1078L20.1087 81.7219C20.0263 81.7207 19.9431 81.7195 19.861 81.7195C14.3647 81.7195 9.88042 86.1774 9.88042 91.705V231.665C9.88042 238.74 15.5602 244.505 22.6348 244.611L308.256 248.14C308.32 248.141 308.386 248.141 308.449 248.141C315.376 248.142 321.02 242.538 321.046 235.587L321.16 202.568L323.263 202.601C323.329 202.601 323.393 202.602 323.457 202.602C327.599 202.602 330.68 201.367 332.736 199.362C332.709 203.208 332.673 206.991 332.628 210.669C332.436 226.341 332.099 240.222 331.814 250.099C331.561 258.9 324.429 265.945 315.626 266.074C313.161 266.111 310.385 266.138 307.318 266.156C304.076 266.175 300.52 266.184 296.672 266.184Z" fill="url(#paint2_linear)"/>
<path d="M308.453 248.139C308.39 248.139 308.325 248.139 308.26 248.137L22.6392 244.608C15.5645 244.503 9.88477 238.738 9.88477 231.663V91.7029C9.88477 86.1754 14.369 81.7174 19.8653 81.7174C19.9474 81.7174 20.0306 81.7186 20.1131 81.7198L187.697 85.1057L187.693 92.6974L171.239 92.4948C170.247 89.3818 167.789 87.1722 164.906 87.1722H25.3671C21.6121 87.1722 18.5677 90.9256 18.5654 95.557L18.5257 177.717L17.8635 225.707C17.8474 226.87 18.076 227.98 18.501 228.984L18.5005 229.982C18.4983 234.577 21.4923 238.318 25.2168 238.376L160.366 240.468C160.406 240.468 160.444 240.469 160.484 240.469C162.274 240.469 163.95 239.84 165.37 238.75L299.906 243.51C300.068 243.516 300.231 243.518 300.392 243.518C304.028 243.518 307.42 242.071 310.05 239.471C312.798 236.755 314.221 233.014 314.221 229.104V202.457L321.165 202.566L321.051 235.585C321.024 242.536 315.38 248.14 308.453 248.139Z" fill="url(#paint3_linear)"/>
<path d="M323.198 253.885H323.191L9.87522 248.546C9.64905 248.541 9.46884 248.356 9.47272 248.13C9.47684 247.904 9.6722 247.736 9.8888 247.728L323.204 253.066C323.431 253.07 323.611 253.257 323.607 253.482C323.603 253.707 323.421 253.885 323.198 253.885Z" fill="#91B3FA"/>
<path d="M169.629 253.891C168.057 253.891 166.778 255.169 166.778 256.742C166.778 258.313 168.057 259.592 169.629 259.592C171.2 259.592 172.48 258.313 172.48 256.742C172.48 255.169 171.2 253.891 169.629 253.891ZM169.629 260.41C167.606 260.41 165.959 258.764 165.959 256.742C165.959 254.718 167.606 253.072 169.629 253.072C171.651 253.072 173.298 254.718 173.298 256.742C173.298 258.764 171.651 260.41 169.629 260.41Z" fill="#91B3FA"/>
<path d="M224.179 315.406H122.791C120.036 315.406 117.968 313.445 118.5 311.339L119.801 306.193C120.193 304.646 121.894 303.511 123.917 303.448L221.659 300.398C223.771 300.331 225.641 301.453 226.101 303.061L228.446 311.256C229.056 313.385 226.978 315.406 224.179 315.406Z" fill="url(#paint4_linear)"/>
<path d="M177.369 304.922C177.145 304.922 176.963 304.742 176.959 304.519C176.957 304.292 177.136 304.107 177.363 304.103L181.55 304.041H181.556C181.781 304.041 181.963 304.221 181.966 304.445C181.969 304.671 181.789 304.858 181.562 304.86L177.375 304.922H177.369Z" fill="#91B3FA"/>
<path d="M122.252 312.646C122.23 312.646 122.208 312.644 122.186 312.64C121.963 312.605 121.812 312.395 121.847 312.172L122.445 308.43C122.772 306.382 124.515 304.872 126.59 304.842L171.013 304.193C171.246 304.182 171.425 304.37 171.428 304.595C171.431 304.821 171.251 305.008 171.025 305.01L126.601 305.66C124.926 305.684 123.517 306.904 123.252 308.56L122.655 312.301C122.623 312.502 122.45 312.646 122.252 312.646Z" fill="#91B3FA"/>
<path d="M300.385 243.52C300.224 243.52 300.061 243.517 299.899 243.511L165.363 238.751C167.94 236.772 169.677 233.272 169.736 229.251L171.7 95.7159C171.715 94.5783 171.549 93.4905 171.232 92.4961L187.686 92.6986L187.638 192.234C187.638 192.376 187.641 192.516 187.647 192.657C187.82 197.077 191.526 200.543 195.949 200.612L314.213 202.458V229.105C314.213 233.015 312.791 236.756 310.043 239.473C307.413 242.073 304.021 243.52 300.385 243.52ZM18.4938 228.985C18.0687 227.981 17.8401 226.871 17.8563 225.708L18.5185 177.719L18.4938 228.985Z" fill="url(#paint5_linear)"/>
<path d="M25.3626 87.1719H164.902C168.706 87.1719 171.772 91.021 171.703 95.7142L169.739 229.249C169.647 235.535 165.457 240.547 160.361 240.468L25.2124 238.376C21.4879 238.318 18.4939 234.576 18.4961 229.981L18.561 95.5566C18.5633 90.9252 21.6077 87.1719 25.3626 87.1719Z" fill="#AF99E9"/>
<path d="M27.5721 91.1104H161.562C165.216 91.1104 168.159 94.8006 168.092 99.2974L166.208 227.28C166.119 233.304 162.095 238.108 157.202 238.032L27.4278 236.028C23.8513 235.972 20.9765 232.386 20.9785 227.983L21.0409 99.147C21.043 94.7073 23.9665 91.1104 27.5721 91.1104Z" fill="#B5A0EF"/>
<path d="M30.4477 95.6631C29.8279 95.6631 29.2468 95.8911 28.8112 96.3071C28.3831 96.7158 28.1477 97.2566 28.1477 97.8302L28.148 101.3C28.1485 102.946 29.5649 104.3 31.3057 104.32L119.793 105.307H119.821C121.017 105.307 122.018 104.432 122.105 103.304L122.531 97.7987C122.572 97.2651 122.389 96.7497 122.016 96.3459C121.613 95.9117 121.032 95.6631 120.42 95.6631H30.4477ZM119.821 106.535C119.806 106.535 119.793 106.535 119.779 106.534L31.2923 105.548C28.8819 105.52 26.9208 103.615 26.9204 101.3L26.9199 97.8302C26.9196 96.9183 27.29 96.0621 27.963 95.4194C28.6285 94.7851 29.5109 94.4346 30.4477 94.4346H120.42C121.373 94.4346 122.282 94.8276 122.917 95.5127C123.524 96.1688 123.822 97.0141 123.755 97.8921L123.329 103.399C123.193 105.165 121.655 106.535 119.821 106.535Z" fill="white"/>
<path d="M118.774 104.678C118.763 104.678 118.751 104.678 118.74 104.678L32.9005 103.955C30.877 103.938 29.2489 102.752 29.2485 101.293L29.248 98.7524C29.2478 97.627 30.5134 96.715 32.0748 96.715H119.356C120.895 96.715 122.11 97.6573 121.996 98.7633L121.584 102.797C121.476 103.858 120.247 104.678 118.774 104.678Z" fill="white" fill-opacity="0.4"/>
<path d="M148.128 119.57H27.5636C26.7637 119.57 26.1152 118.856 26.1152 117.974V113.703C26.1152 112.822 26.7644 112.107 27.5631 112.107C27.5676 112.107 27.5718 112.107 27.5763 112.107L148.141 113.282C148.936 113.29 149.577 114.003 149.577 114.878V117.974C149.577 118.856 148.928 119.57 148.128 119.57Z" fill="white" fill-opacity="0.5"/>
<path d="M157.732 148.648C157.712 148.648 157.693 148.648 157.675 148.648L30.7065 146.955C28.449 146.925 26.6348 145.087 26.6348 142.829V125.396C26.6348 123.089 28.5056 121.223 30.8064 121.223C30.8217 121.223 30.8366 121.223 30.8519 121.223L157.45 122.577C159.947 122.604 161.958 124.635 161.958 127.132V144.422C161.958 146.759 160.061 148.648 157.732 148.648Z" fill="white" fill-opacity="0.4"/>
<path d="M137.171 161.631H27.3852C26.6568 161.631 26.0664 160.917 26.0664 160.035V155.764C26.0664 154.881 26.6576 154.168 27.385 154.168C27.389 154.168 27.3929 154.168 27.3968 154.168L137.184 155.343C137.908 155.35 138.491 156.063 138.491 156.939V160.035C138.491 160.917 137.9 161.631 137.171 161.631Z" fill="white" fill-opacity="0.5"/>
<path d="M157.679 193.316C157.659 193.316 157.641 193.315 157.622 193.315L30.6537 191.461C28.3963 191.428 26.582 189.415 26.582 186.942V167.853C26.582 165.328 28.4528 163.285 30.7537 163.285C30.7689 163.285 30.784 163.285 30.7993 163.285L157.397 164.768C159.894 164.797 161.905 167.021 161.905 169.756V188.687C161.905 191.246 160.009 193.316 157.679 193.316Z" fill="white" fill-opacity="0.4"/>
<path d="M160.876 207.012H27.9233C27.0413 207.012 26.3262 206.297 26.3262 205.416V201.145C26.3262 200.263 27.0422 199.549 27.9232 199.549C27.9281 199.549 27.9327 199.549 27.9375 199.549L160.889 200.724C161.766 200.731 162.473 201.444 162.473 202.32V205.416C162.473 206.297 161.758 207.012 160.876 207.012Z" fill="white" fill-opacity="0.5"/>
<path d="M157.939 234.764C157.919 234.764 157.9 234.764 157.881 234.764L30.9136 233.152C28.656 233.123 26.8418 231.374 26.8418 229.225V212.638C26.8418 210.443 28.7127 208.667 31.0137 208.667C31.0288 208.667 31.0439 208.667 31.059 208.667L157.657 209.955C160.154 209.981 162.164 211.915 162.164 214.291V230.742C162.164 232.966 160.268 234.764 157.939 234.764Z" fill="white" fill-opacity="0.4"/>
<path d="M194.37 51.0538H331.123C334.852 51.0538 337.856 54.8594 337.788 59.498L335.864 191.508C335.774 197.721 331.668 202.676 323.262 202.599L195.951 200.611C191.529 200.542 187.823 197.076 187.649 192.656C187.643 192.515 187.641 192.374 187.641 192.232L187.704 59.3428C187.706 54.7648 190.691 51.0538 194.37 51.0538Z" fill="#AF99E9"/>
<path d="M197.388 54.6306H328.704C332.284 54.6306 335.169 58.2469 335.103 62.6539L333.256 188.083C333.169 193.985 329.225 198.694 324.43 198.62L197.246 196.654C193.742 196.6 190.925 193.085 190.926 188.769L190.988 62.506C190.99 58.156 193.855 54.6306 197.388 54.6306Z" fill="#6946C6" fill-opacity="0.6"/>
<path d="M322.255 79.998H202.022C200.551 79.998 199.357 78.8047 199.357 77.3325V70.8469C199.357 69.3031 200.609 68.0503 202.154 68.0503H321.783C323.29 68.0503 324.511 69.2727 324.511 70.7789V77.7424C324.511 78.9879 323.501 79.998 322.255 79.998Z" fill="#AF99E9"/>
<path d="M314.721 76.4277C314.611 76.4277 314.495 76.4071 314.376 76.3622H268.506C268.386 76.4071 268.271 76.4277 268.159 76.4277C267.571 76.4277 267.137 75.8347 267.137 75.1301V72.883C267.137 72.045 267.749 71.3659 268.506 71.3659H314.376C315.131 71.3659 315.745 72.045 315.745 72.883V75.1301C315.745 75.8347 315.31 76.4277 314.721 76.4277Z" fill="white" fill-opacity="0.4"/>
<path d="M289.31 139.37C289.31 142.516 286.763 145.067 283.617 145.075L203.733 145.238C201.646 145.238 199.953 143.508 199.953 141.372V98.9331C199.953 96.7745 201.681 95.033 203.793 95.067L285.588 96.3682C287.652 96.4009 289.31 98.1218 289.31 100.234V139.37Z" fill="#C5B4F4"/>
<path d="M279.083 191.615L244.904 191.33C243.749 191.32 242.82 190.377 242.83 189.222L243.115 154.99C243.124 153.855 244.036 152.935 245.169 152.916L278.921 153.556C280.35 153.583 281.492 154.756 281.479 156.186L281.192 189.541C281.182 190.696 280.239 191.625 279.083 191.615Z" fill="#A489ED"/>
<path d="M235.61 191.615L201.431 191.33C200.276 191.32 199.348 190.377 199.357 189.222L199.641 154.99C199.651 153.855 200.563 152.935 201.697 152.916L235.448 153.556C236.878 153.583 238.019 154.756 238.007 156.186L237.719 189.541C237.71 190.696 236.765 191.625 235.61 191.615Z" fill="#A489ED"/>
<path d="M322.111 192.422L287.931 192.138C286.777 192.128 285.848 191.185 285.857 190.029L286.141 155.796C286.151 154.663 287.063 153.743 288.197 153.723L321.948 154.363C323.378 154.391 324.519 155.564 324.507 156.993L324.219 190.348C324.21 191.504 323.266 192.432 322.111 192.422Z" fill="#A489ED"/>
<path d="M321.633 147.146H296.92C295.332 147.146 294.047 145.851 294.047 144.254V99.101C294.047 97.7585 295.09 96.6695 296.381 96.6622L321.758 96.5191C323.294 96.5858 324.506 97.8604 324.506 99.409V144.254C324.506 145.851 323.219 147.146 321.633 147.146Z" fill="#A489ED"/>
<path d="M228.056 58.2533C226.292 58.2533 224.856 59.6892 224.856 61.4537C224.856 63.2182 226.292 64.6541 228.056 64.6541C229.821 64.6541 231.255 63.2182 231.255 61.4537C231.255 59.6892 229.821 58.2533 228.056 58.2533ZM228.056 65.4727C225.84 65.4727 224.037 63.6693 224.037 61.4537C224.037 59.2381 225.84 57.4347 228.056 57.4347C230.272 57.4347 232.074 59.2381 232.074 61.4537C232.074 63.6693 230.272 65.4727 228.056 65.4727Z" fill="white"/>
<path d="M215.563 58.5424C213.798 58.5424 212.364 59.9782 212.364 61.7427C212.364 63.5073 213.798 64.9431 215.563 64.9431C217.327 64.9431 218.763 63.5073 218.763 61.7427C218.763 59.9782 217.327 58.5424 215.563 58.5424ZM215.563 65.7617C213.347 65.7617 211.545 63.9584 211.545 61.7427C211.545 59.5271 213.347 57.7238 215.563 57.7238C217.778 57.7238 219.582 59.5271 219.582 61.7427C219.582 63.9584 217.778 65.7617 215.563 65.7617Z" fill="white"/>
<path d="M203.56 58.5424C201.795 58.5424 200.36 59.9782 200.36 61.7427C200.36 63.5073 201.795 64.9431 203.56 64.9431C205.325 64.9431 206.76 63.5073 206.76 61.7427C206.76 59.9782 205.325 58.5424 203.56 58.5424ZM203.56 65.7617C201.344 65.7617 199.541 63.9584 199.541 61.7427C199.541 59.5271 201.344 57.7238 203.56 57.7238C205.776 57.7238 207.579 59.5271 207.579 61.7427C207.579 63.9584 205.776 65.7617 203.56 65.7617Z" fill="white"/>
<path d="M57.6094 314.711C57.6094 326.032 59.6615 335.293 62.1698 335.293H99.7471C102.256 335.293 104.308 326.032 104.308 314.711V296.102C104.308 284.78 102.256 275.519 99.7471 275.519H62.1698C59.6615 275.519 57.6094 284.78 57.6094 296.102V314.711Z" fill="#91B3FA"/>
<path d="M103.92 321.845C103.92 321.845 115.421 330.135 113.424 335.705C113.424 335.705 100.841 330.276 99.3202 325.998C97.7994 321.721 99.5773 319.833 99.5773 319.833L103.92 321.845Z" fill="url(#paint6_linear)"/>
<path d="M102.192 314.898L100.311 320.335C100.028 321.156 100.311 322.09 101.045 322.553C101.413 322.786 101.916 323 102.602 323.156C103.571 323.375 104.571 322.928 105.037 322.051L107.287 317.815L102.192 314.898Z" fill="url(#paint7_linear)"/>
<path d="M83.89 265.959C83.89 265.959 107.514 270.053 117.648 279.415C127.782 288.776 108.347 318.637 108.347 318.637C108.347 318.637 105.162 318.617 101.303 315.31C101.303 315.31 112.827 292.852 102.896 286.302C91.7302 278.94 78.8633 277.281 78.8633 277.281L83.662 266.68L83.89 265.959Z" fill="url(#paint8_linear)"/>
<path d="M111.425 332.625C108.895 331.453 101.733 326.441 100.525 326.219C99.3181 325.998 97.2238 327.417 97.2238 327.417C97.2238 327.417 96.7144 328.333 97.2602 329.931C98.941 331.965 102.673 335.842 107.691 337.288C111.381 338.35 113.963 337.359 115.571 336.2C114.687 334.852 113.109 333.404 111.425 332.625Z" fill="url(#paint9_linear)"/>
<path d="M107.692 337.287C102.674 335.842 98.9425 331.964 97.2617 329.931C97.6292 331.01 98.4781 332.401 100.292 334.031C104.791 338.074 113.384 339.532 115.212 339.252C116.679 339.026 116.54 337.673 115.573 336.199C113.964 337.359 111.383 338.349 107.692 337.287Z" fill="url(#paint10_linear)"/>
<path d="M95.0801 323.877C95.1092 324.574 96.5329 326.964 97.366 328.306C97.7614 328.942 98.4551 329.332 99.2045 329.334C99.6811 329.335 100.228 329.294 100.724 329.151C101.47 328.937 101.888 328.143 101.67 327.398L100.044 321.843L95.0801 323.877Z" fill="url(#paint11_linear)"/>
<path d="M61.1501 258.87C61.1501 258.87 55.9037 272.898 61.1501 277.164C66.3965 281.43 78.9129 286.234 81.7082 294.731C84.5047 303.229 89.2489 319.742 95.5987 325.59C95.5987 325.59 100.059 325.158 101.729 323.38C101.729 323.38 98.1126 298.728 95.7272 292.403C93.6619 286.925 90.6192 279.018 84.7873 274.598C83.1174 273.333 83.4084 271.329 84.1821 269.383L85.5925 265.838L61.1501 258.87Z" fill="url(#paint12_linear)"/>
<path d="M115.865 247.874C107.068 248.404 109.808 234.351 109.967 233.792L96.6152 243.222C96.6152 243.222 97.3223 250.739 108.423 254.68C111.232 255.678 113.798 255.722 116.067 255.234C115.101 252.412 115.297 249.88 115.865 247.874Z" fill="url(#paint13_linear)"/>
<path d="M132.876 243.642C129.598 241.363 125.884 243.642 125.884 243.642C121.501 246.509 118.258 247.728 115.867 247.872C115.299 249.878 115.103 252.41 116.069 255.232C120.979 254.177 124.493 250.623 126.019 248.8C126.569 248.143 127.541 248.029 128.213 248.56C128.896 249.098 129.559 249.837 129.439 250.613C129.202 252.145 130.979 252.632 131.114 252.077C131.248 251.521 130.505 248.228 130.505 248.228C130.505 248.228 134.061 251.803 135.448 253.177C136.837 254.55 138.582 253.177 138.582 253.177C138.582 253.177 136.154 245.922 132.876 243.642Z" fill="url(#paint14_linear)"/>
<path d="M74.8482 212.088C74.8482 212.088 87.6461 206.964 111.464 226.627C111.464 226.627 113.453 230.744 111.283 234.41C109.112 238.075 88.4331 255.935 85.5917 265.838C85.5917 265.838 73.2717 269.841 60.5312 260.349C60.5312 260.349 61.6556 232.785 74.8482 212.088Z" fill="url(#paint15_linear)"/>
<path d="M100.148 207.516L93.8484 215.154C93.2238 215.911 93.0856 216.967 93.5185 217.849C94.3929 219.633 96.4679 222.23 101.069 221.871C102.438 221.764 103.65 220.938 104.249 219.702L108.653 210.596L100.148 207.516Z" fill="url(#paint16_linear)"/>
<path d="M64.9417 244.798C63.4561 238.746 78.5047 225.257 78.5047 225.257L74.8496 212.087C74.8496 212.087 42.3552 233.719 50.6361 251.115C51.8233 253.609 53.3999 255.356 55.2278 256.523C57.8445 249.481 62.0143 246.25 64.9417 244.798Z" fill="url(#paint17_linear)"/>
<path d="M64.9305 243.918C64.7708 243.918 64.6254 243.81 64.5856 243.648C63.0663 237.461 77.6358 224.316 78.2567 223.758C78.4022 223.628 78.6266 223.639 78.7588 223.786C78.8898 223.932 78.8776 224.157 78.7321 224.288C78.5829 224.421 63.8579 237.703 65.2763 243.478C65.3229 243.668 65.2064 243.861 65.0156 243.908C64.9874 243.916 64.9588 243.918 64.9305 243.918Z" fill="url(#paint18_linear)"/>
<path d="M87.7335 244.276C87.7335 244.276 69.892 251.203 65.5365 245.994C65.2412 245.639 65.0486 245.238 64.9404 244.798C62.0131 246.251 57.8432 249.481 55.2266 256.524C64.6105 262.52 80.65 253.189 84.9867 250.437C85.701 249.985 86.5559 249.826 87.3842 249.998C89.0566 250.345 91.9465 250.854 93.5048 250.614C95.7847 250.264 99.0591 258.305 102.755 255.825C102.755 255.825 99.5902 241.845 87.7335 244.276Z" fill="url(#paint19_linear)"/>
<path d="M115.362 200.689C115.362 200.689 114.436 208.933 112.638 212.503C110.838 216.074 110.291 218.748 105.89 217.141C101.488 215.536 99.2651 211.603 99.424 207.105C99.424 207.105 99.6204 200.148 101.513 198.342C103.408 196.537 115.362 200.689 115.362 200.689Z" fill="url(#paint20_linear)"/>
<path d="M102.216 205.415L102.722 205.706C102.722 205.706 103.099 200.232 105.362 200.535C107.626 200.839 115.73 203.534 118.776 201.862C121.713 200.249 122.213 196.27 120.716 194.215C120.62 194.085 120.436 194.058 120.3 194.144L119.952 194.364C119.713 194.514 119.413 194.297 119.481 194.024C119.544 193.764 119.272 193.543 119.035 193.669C118.114 194.163 116.097 194.667 112.248 193.306C106.788 191.376 102.374 191.496 100.331 194.861C100.201 195.073 99.9012 195.06 99.7812 194.842C99.5447 194.409 99.022 193.97 97.8651 194.176C95.8532 194.536 94.706 197.812 96.2776 201.953C96.3528 202.151 96.2243 202.37 96.0145 202.381C95.2735 202.422 93.9905 202.795 95.4312 205.104C96.9046 207.467 98.235 208.068 98.7807 208.22C98.9274 208.262 99.0802 208.194 99.1481 208.058L100.702 204.927C100.782 204.765 100.982 204.705 101.138 204.795L102.216 205.415Z" fill="url(#paint21_linear)"/>
<path d="M101.98 206.121C101.98 206.121 103.309 201.28 100.742 201.374C98.173 201.468 99.0049 206.655 100.431 207.688L101.98 206.121Z" fill="url(#paint22_linear)"/>
<path d="M96.8723 257.937C96.9014 257.938 96.9306 257.939 96.9584 257.939L134.394 257.898C135.319 257.898 136.069 257.146 136.067 256.221C136.066 255.296 135.313 254.531 134.39 254.548L96.9548 254.589C96.0295 254.589 95.28 255.339 95.2813 256.266C95.2825 257.162 95.9871 257.893 96.8723 257.937Z" fill="url(#paint23_linear)"/>
<path d="M168.048 223.948H136.873C134.572 223.948 132.479 225.276 131.498 227.356L117.086 257.918H155.829C157.312 257.918 158.643 257.012 159.188 255.633L170.364 227.354C171.009 225.72 169.805 223.948 168.048 223.948Z" fill="url(#paint24_linear)"/>
<path d="M162.993 338.227C163.2 338.227 163.41 338.187 163.614 338.103C164.412 337.771 164.78 336.874 164.437 336.102L131.445 261.851C131.102 261.078 130.177 260.722 129.378 261.053C128.58 261.386 128.211 262.281 128.554 263.054L161.546 337.306C161.803 337.882 162.383 338.227 162.993 338.227Z" fill="#7D97F4"/>
<path d="M125.825 338.227C126.435 338.227 127.014 337.882 127.27 337.306L160.262 263.054C160.605 262.281 160.237 261.386 159.439 261.053C158.642 260.721 157.716 261.077 157.372 261.851L124.38 336.102C124.037 336.874 124.406 337.771 125.204 338.103C125.406 338.187 125.617 338.227 125.825 338.227Z" fill="#7D97F4"/>
<path d="M60.869 338.227C61.0764 338.227 61.2872 338.187 61.4899 338.103C62.288 337.771 62.6567 336.874 62.3134 336.102L29.3213 261.851C28.9779 261.078 28.0537 260.722 27.2545 261.053C26.4566 261.386 26.0878 262.281 26.4312 263.054L59.4232 337.306C59.6792 337.882 60.2594 338.227 60.869 338.227Z" fill="#7D97F4"/>
<path d="M23.7036 338.227C24.3133 338.227 24.8934 337.882 25.1494 337.306L58.1414 263.054C58.4847 262.281 58.1161 261.386 57.318 261.053C56.5205 260.721 55.5949 261.077 55.2513 261.851L22.2593 336.102C21.916 336.874 22.2846 337.771 23.0827 338.103C23.2853 338.187 23.4963 338.227 23.7036 338.227Z" fill="#7D97F4"/>
<path d="M19.8337 259.555C19.7495 259.069 19.8641 258.566 20.1461 258.183C20.428 257.801 20.8479 257.579 21.291 257.579H171.381C171.963 257.579 172.506 257.911 172.82 258.46C173.133 259.01 173.176 259.701 172.932 260.293L171.305 264.234C170.932 265.136 170.126 265.715 169.238 265.715H22.3208C21.4949 265.715 20.7848 265.059 20.6279 264.15L19.8337 259.555Z" fill="#6946C6"/>
<defs>
<linearGradient id="paint0_linear" x1="360.52" y1="382.559" x2="111.74" y2="114.034" gradientUnits="userSpaceOnUse">
<stop stop-color="#DAE3FE"/>
<stop offset="1" stop-color="#E9EFFD"/>
</linearGradient>
<linearGradient id="paint1_linear" x1="175.993" y1="331.709" x2="172.398" y2="260.527" gradientUnits="userSpaceOnUse">
<stop stop-color="#09005D"/>
<stop offset="1" stop-color="#1A0F91"/>
</linearGradient>
<linearGradient id="paint2_linear" x1="0.63684" y1="171.09" x2="332.782" y2="171.09" gradientUnits="userSpaceOnUse">
<stop stop-color="#09005D"/>
<stop offset="1" stop-color="#1A0F91"/>
</linearGradient>
<linearGradient id="paint3_linear" x1="355.368" y1="69.4787" x2="-365.129" y2="429.728" gradientUnits="userSpaceOnUse">
<stop stop-color="#6946C6"/>
<stop offset="1" stop-color="#6946C6"/>
</linearGradient>
<linearGradient id="paint4_linear" x1="176.22" y1="304.85" x2="143.146" y2="377.47" gradientUnits="userSpaceOnUse">
<stop stop-color="#09005D"/>
<stop offset="1" stop-color="#1A0F91"/>
</linearGradient>
<linearGradient id="paint5_linear" x1="355.361" y1="69.48" x2="-365.137" y2="429.729" gradientUnits="userSpaceOnUse">
<stop stop-color="#6946C6"/>
<stop offset="1" stop-color="#B298F8"/>
</linearGradient>
<linearGradient id="paint6_linear" x1="113.724" y1="313.489" x2="106.613" y2="327.473" gradientUnits="userSpaceOnUse">
<stop stop-color="#09005D"/>
<stop offset="1" stop-color="#1A0F91"/>
</linearGradient>
<linearGradient id="paint7_linear" x1="100.204" y1="319.054" x2="107.287" y2="319.054" gradientUnits="userSpaceOnUse">
<stop stop-color="#FEBBBA"/>
<stop offset="1" stop-color="#FF928E"/>
</linearGradient>
<linearGradient id="paint8_linear" x1="90.4011" y1="300.31" x2="120.501" y2="258.123" gradientUnits="userSpaceOnUse">
<stop stop-color="#09005D"/>
<stop offset="1" stop-color="#1A0F91"/>
</linearGradient>
<linearGradient id="paint9_linear" x1="109.595" y1="327.627" x2="84.9458" y2="359.86" gradientUnits="userSpaceOnUse">
<stop stop-color="#09005D"/>
<stop offset="1" stop-color="#1A0F91"/>
</linearGradient>
<linearGradient id="paint10_linear" x1="97.2617" y1="334.607" x2="116.308" y2="334.607" gradientUnits="userSpaceOnUse">
<stop stop-color="#4F52FF"/>
<stop offset="1" stop-color="#4042E2"/>
</linearGradient>
<linearGradient id="paint11_linear" x1="95.0801" y1="325.588" x2="101.728" y2="325.588" gradientUnits="userSpaceOnUse">
<stop stop-color="#FEBBBA"/>
<stop offset="1" stop-color="#FF928E"/>
</linearGradient>
<linearGradient id="paint12_linear" x1="79.552" y1="321.334" x2="81.211" y2="264.927" gradientUnits="userSpaceOnUse">
<stop stop-color="#09005D"/>
<stop offset="1" stop-color="#1A0F91"/>
</linearGradient>
<linearGradient id="paint13_linear" x1="117.807" y1="139.788" x2="108.804" y2="225.73" gradientUnits="userSpaceOnUse">
<stop/>
<stop offset="1" stop-color="#040404"/>
</linearGradient>
<linearGradient id="paint14_linear" x1="133.55" y1="208.945" x2="126.984" y2="251.769" gradientUnits="userSpaceOnUse">
<stop stop-color="#FEBBBA"/>
<stop offset="1" stop-color="#FF928E"/>
</linearGradient>
<linearGradient id="paint15_linear" x1="97.6765" y1="137.679" x2="88.673" y2="223.621" gradientUnits="userSpaceOnUse">
<stop/>
<stop offset="1"/>
</linearGradient>
<linearGradient id="paint16_linear" x1="93.2675" y1="214.711" x2="108.653" y2="214.711" gradientUnits="userSpaceOnUse">
<stop stop-color="#FEBBBA"/>
<stop offset="1" stop-color="#FF928E"/>
</linearGradient>
<linearGradient id="paint17_linear" x1="74.3233" y1="135.231" x2="65.3198" y2="221.173" gradientUnits="userSpaceOnUse">
<stop/>
<stop offset="1" stop-color="#161616"/>
</linearGradient>
<linearGradient id="paint18_linear" x1="66.8244" y1="210.058" x2="69.6891" y2="223.972" gradientUnits="userSpaceOnUse">
<stop stop-color="white"/>
<stop offset="1" stop-color="#4F4F4F"/>
</linearGradient>
<linearGradient id="paint19_linear" x1="82.7747" y1="249.211" x2="23.87" y2="351.57" gradientUnits="userSpaceOnUse">
<stop stop-color="#FEBBBA"/>
<stop offset="1" stop-color="#FF928E"/>
</linearGradient>
<linearGradient id="paint20_linear" x1="40.4995" y1="312.699" x2="27.2231" y2="334.044" gradientUnits="userSpaceOnUse">
<stop stop-color="#FEBBBA"/>
<stop offset="1" stop-color="#FF928E"/>
</linearGradient>
<linearGradient id="paint21_linear" x1="106.802" y1="190.295" x2="110.646" y2="217.972" gradientUnits="userSpaceOnUse">
<stop stop-color="#09005D"/>
<stop offset="1" stop-color="#1A0F91"/>
</linearGradient>
<linearGradient id="paint22_linear" x1="35.2342" y1="309.425" x2="21.9579" y2="330.771" gradientUnits="userSpaceOnUse">
<stop stop-color="#FEBBBA"/>
<stop offset="1" stop-color="#FF928E"/>
</linearGradient>
<linearGradient id="paint23_linear" x1="90.5213" y1="247.992" x2="120.238" y2="257.738" gradientUnits="userSpaceOnUse">
<stop stop-color="#09005D"/>
<stop offset="1" stop-color="#1A0F91"/>
</linearGradient>
<linearGradient id="paint24_linear" x1="131.346" y1="228.507" x2="152.747" y2="251.127" gradientUnits="userSpaceOnUse">
<stop stop-color="#09005D"/>
<stop offset="1" stop-color="#1A0F91"/>
</linearGradient>
</defs>
</svg>
