<svg width="40" height="40" viewBox="0 0 40 40" fill="none" xmlns="http://www.w3.org/2000/svg">
<path d="M20.7613 15.0547C20.3751 14.8624 19.906 15.0197 19.7137 15.4059L17.5992 19.6528C17.4068 20.0391 17.5641 20.508 17.9503 20.7004C18.0424 20.7462 18.1392 20.7712 18.2357 20.7789C18.2523 20.7808 18.271 20.7819 18.2922 20.7821C18.2941 20.7821 18.296 20.7824 18.2979 20.7824C18.2987 20.7824 18.2994 20.7823 18.3001 20.7823H20.4381L18.8874 23.9001C18.6953 24.2863 18.8526 24.7553 19.2389 24.9475C19.3507 25.003 19.4693 25.0294 19.5862 25.0294C19.8734 25.0294 20.1497 24.8705 20.2863 24.5958L22.3986 20.3489C22.5907 19.9626 22.4334 19.4937 22.0471 19.3015C21.9389 19.2476 21.8242 19.2222 21.7108 19.2206C21.7067 19.2205 21.7035 19.2198 21.6992 19.2198H19.5601L21.1123 16.1023C21.3047 15.7159 21.1474 15.2469 20.7613 15.0547Z" fill="white"/>
<path d="M37.7025 15.5812H36.7308C36.3349 14.0757 35.7397 12.6384 34.9554 11.2941L35.6424 10.6069C36.0751 10.1743 36.3133 9.59749 36.3133 8.98273C36.3133 8.36796 36.0751 7.79117 35.6424 7.35851L32.6413 4.35742C31.7458 3.46187 30.2885 3.46187 29.3928 4.35742L28.7058 5.04453C27.3592 4.25859 25.9219 3.66258 24.4187 3.26695V2.29742C24.4187 1.03062 23.388 0 22.1212 0H17.8765C16.6109 0 15.5813 1.03062 15.5813 2.29742V3.26695C14.0781 3.66258 12.6408 4.25859 11.2941 5.04453L10.607 4.35742C9.7114 3.46179 8.25413 3.46195 7.35851 4.35742L4.3575 7.35851C3.92476 7.79117 3.68648 8.36796 3.68648 8.98273C3.68648 9.59749 3.92476 10.1743 4.35742 10.6069L5.04445 11.294C4.25859 12.6406 3.66265 14.078 3.26703 15.5812H2.29742C1.03062 15.5812 0 16.6109 0 17.8765V22.1212C0 23.388 1.03062 24.4186 2.29742 24.4186H3.26703C3.66281 25.9227 4.25882 27.3597 5.04468 28.7044L4.35757 29.3929C3.92484 29.8255 3.68656 30.4023 3.68656 31.0171C3.68656 31.6318 3.92484 32.2086 4.3575 32.6413L7.35859 35.6424C8.25413 36.5379 9.7114 36.5379 10.6071 35.6424L11.2941 34.9553C12.6409 35.7413 14.0782 36.3372 15.5814 36.7329V37.7024C15.5814 38.9692 16.611 39.9998 17.8765 39.9998H22.1213C23.3881 39.9998 24.4187 38.9692 24.4187 37.7024V36.7329C25.9219 36.3373 27.3593 35.7413 28.706 34.9553L29.393 35.6424C30.2886 36.5379 31.7459 36.5379 32.6415 35.6424L35.6426 32.6413C36.0752 32.2086 36.3135 31.6318 36.3135 31.0171C36.3135 30.4023 36.0752 29.8255 35.6431 29.3935L34.9554 28.7043C35.7395 27.3618 36.3348 25.9248 36.7309 24.4186H37.7026C38.9694 24.4186 40 23.388 40 22.1212V17.8765C40 16.6109 38.9693 15.5812 37.7025 15.5812ZM38.4375 22.1212C38.4375 22.5265 38.1078 22.8561 37.7025 22.8561H36.1172C35.7516 22.8561 35.4351 23.1095 35.3549 23.4662C34.96 25.2243 34.2718 26.8856 33.3093 28.4039C33.1136 28.7125 33.158 29.1154 33.4161 29.374L34.5376 30.4979C34.6751 30.6354 34.7509 30.8198 34.7509 31.0172C34.7509 31.2145 34.6751 31.399 34.5376 31.5365L31.5366 34.5375C31.2502 34.8239 30.7842 34.824 30.4979 34.5375L29.3769 33.4165C29.1186 33.1582 28.7154 33.1134 28.4066 33.3089C26.8817 34.2741 25.2195 34.9633 23.4662 35.3571C23.1096 35.4372 22.8562 35.7538 22.8562 36.1193V37.7025C22.8562 38.1078 22.5265 38.4374 22.1212 38.4374H17.8765C17.4725 38.4374 17.1438 38.1077 17.1438 37.7025V36.1193C17.1438 35.7538 16.8904 35.4372 16.5337 35.3571C14.7805 34.9633 13.1183 34.2742 11.5934 33.3089C11.4648 33.2275 11.3198 33.1877 11.1758 33.1877C10.974 33.1877 10.7738 33.2658 10.623 33.4165L9.50218 34.5375C9.21585 34.824 8.74984 34.824 8.46343 34.5375L5.46234 31.5365C5.32476 31.3989 5.24906 31.2145 5.24906 31.0172C5.24906 30.8198 5.32484 30.6354 5.46297 30.4972L6.5839 29.374C6.84203 29.1154 6.8864 28.7125 6.69078 28.4039C5.72601 26.8821 5.03703 25.2208 4.64289 23.4662C4.56281 23.1096 4.24609 22.8561 3.88062 22.8561H2.29742C1.89219 22.8561 1.5625 22.5264 1.5625 22.1212V17.8765C1.5625 17.4724 1.89219 17.1437 2.29742 17.1437H3.88054C4.24601 17.1437 4.56265 16.8903 4.64281 16.5337C5.03672 14.7802 5.72578 13.118 6.69093 11.5933C6.8864 11.2844 6.84171 10.8815 6.58328 10.623L5.46234 9.50202C5.32476 9.36444 5.24906 9.18007 5.24906 8.98273C5.24906 8.78538 5.32484 8.60093 5.46242 8.46343L8.46343 5.46234C8.74976 5.17593 9.21577 5.17585 9.50218 5.46234L10.6231 6.58335C10.8816 6.84171 11.2847 6.88648 11.5934 6.69101C13.1184 5.72578 14.7805 5.03656 16.5338 4.64281C16.8905 4.56273 17.1439 4.24609 17.1439 3.88054V2.29742C17.1439 1.89211 17.4726 1.5625 17.8765 1.5625H22.1213C22.5265 1.5625 22.8562 1.89219 22.8562 2.29742V3.88054C22.8562 4.24609 23.1097 4.56265 23.4663 4.64281C25.2196 5.03664 26.8818 5.7257 28.4067 6.69101C28.7155 6.8864 29.1186 6.84163 29.377 6.58335L30.4979 5.46234C30.7843 5.17601 31.2503 5.17585 31.5366 5.46234L34.5377 8.46343C34.6752 8.60101 34.751 8.78538 34.751 8.98273C34.751 9.18007 34.6752 9.36452 34.5377 9.50202L33.4168 10.623C33.1583 10.8815 33.1136 11.2844 33.3091 11.5933C34.272 13.1145 34.9604 14.7766 35.3551 16.5337C35.4351 16.8902 35.7518 17.1437 36.1173 17.1437H37.7027C38.1079 17.1437 38.4376 17.4724 38.4376 17.8765V22.1212H38.4375Z" fill="white"/>
<path d="M14.1066 24.7897C13.8014 25.0947 13.8012 25.5893 14.1062 25.8946C15.6803 27.47 17.7735 28.3376 20 28.3376C22.2264 28.3376 24.3196 27.4701 25.8931 25.8952C27.2722 24.5183 28.1087 22.7418 28.2953 20.8248L29.1228 21.6523C29.2753 21.8048 29.4753 21.8812 29.6752 21.8812C29.8751 21.8812 30.0751 21.8048 30.2276 21.6523C30.5327 21.3473 30.5328 20.8526 30.2276 20.5474L28.0281 18.348C27.8817 18.2015 27.6829 18.1191 27.4757 18.1191C27.2685 18.1191 27.0698 18.2015 26.9233 18.348L24.7239 20.5474C24.4188 20.8525 24.4188 21.3472 24.7239 21.6523C25.0289 21.9573 25.5236 21.9573 25.8287 21.6523L26.7305 20.7505C26.5637 22.2773 25.8898 23.6904 24.7884 24.7902C23.5093 26.0702 21.8088 26.7751 19.9999 26.7751C18.191 26.7751 16.4904 26.0702 15.2114 24.7902C14.9064 24.485 14.4118 24.4848 14.1066 24.7897Z" fill="white"/>
<path d="M11.7049 19.1736L10.8773 18.3459C10.5722 18.0409 10.0775 18.0409 9.77242 18.3459C9.46734 18.6509 9.46726 19.1456 9.77242 19.4508L11.9719 21.6502C12.2729 21.9507 12.7757 21.9509 13.0768 21.6502L15.2762 19.4508C15.5813 19.1457 15.5813 18.651 15.2762 18.3459C14.9712 18.0409 14.4765 18.0409 14.1714 18.3459L13.2699 19.2473C13.4373 17.7218 14.111 16.3087 15.2115 15.2082C17.8519 12.5677 22.1484 12.5677 24.7889 15.2082C25.094 15.5132 25.5887 15.5132 25.8938 15.2082C26.1989 14.9031 26.1989 14.4084 25.8938 14.1033C22.644 10.8536 17.3564 10.8536 14.1066 14.1033C12.7281 15.4816 11.8919 17.258 11.7049 19.1736Z" fill="white"/>
<path d="M23.8449 6.69847C23.4306 6.57917 22.9973 6.81816 22.8778 7.23269C22.7583 7.6473 22.9974 8.08027 23.412 8.1998C25.3943 8.77144 27.2168 9.84933 28.6828 11.3175C31.0019 13.6365 32.2791 16.7201 32.2791 20.0004C32.2791 23.2807 31.0019 26.3643 28.6828 28.6834C23.8951 33.4711 16.1048 33.471 11.3169 28.6833C8.99697 26.3642 7.71924 23.2806 7.71924 20.0004C7.71924 16.7203 8.99689 13.6366 11.3174 11.3171C12.8231 9.80941 14.6992 8.71706 16.7428 8.15808C17.1591 8.04425 17.4042 7.61464 17.2903 7.19847C17.1765 6.7823 16.7467 6.53699 16.3306 6.65097C14.0252 7.28144 11.9093 8.51316 10.2124 10.2125C7.59705 12.8267 6.15674 16.3028 6.15674 20.0004C6.15674 23.6981 7.59705 27.1742 10.2123 29.7882C12.9108 32.4867 16.4554 33.836 20 33.836C23.5446 33.836 27.0893 32.4867 29.7878 29.7882C32.4019 27.174 33.8416 23.698 33.8416 20.0004C33.8416 16.3028 32.402 12.8267 29.7882 10.213C28.136 8.55855 26.0809 7.34324 23.8449 6.69847Z" fill="white"/>
<path d="M19.9955 7.71875H19.9999C20.4314 7.71875 20.7789 7.36891 20.7789 6.9375C20.7789 6.50609 20.427 6.15625 19.9955 6.15625C19.564 6.15625 19.2142 6.50609 19.2142 6.9375C19.2142 7.36891 19.564 7.71875 19.9955 7.71875Z" fill="white"/>
</svg>
