<svg width="36" height="36" viewBox="0 0 36 36" fill="none" xmlns="http://www.w3.org/2000/svg">
<g clip-path="url(#clip0)">
<path d="M21.7397 14.2871H20.973C20.6815 14.2871 20.4453 14.5234 20.4453 14.8148V17.6215C20.4453 17.9128 20.6815 18.1491 20.973 18.1491H21.7397C23.8751 18.1491 24.1056 16.7883 24.1056 16.2032C24.1056 15.6271 23.8751 14.2871 21.7397 14.2871ZM21.5008 17.0936V15.3425C22.3234 15.3425 23.0502 15.3848 23.0502 16.2031C23.0502 17.0427 22.3435 17.0936 21.5008 17.0936Z" fill="black"/>
<path d="M15.0811 19.2827L13.9997 15.7891C13.8461 15.2934 13.1264 15.2963 12.9713 15.7856L11.8666 19.2682C11.7821 19.5346 11.92 19.8205 12.1809 19.9205C12.9774 20.2255 13.9464 20.2306 14.7578 19.9345C15.0221 19.8381 15.1642 19.5515 15.0811 19.2827ZM13.0392 19.0624L13.4789 17.676L13.9091 19.066C13.624 19.1092 13.3209 19.1079 13.0392 19.0624Z" fill="black"/>
<path d="M35.1545 8.72266H15.6193C15.3278 8.72266 15.0916 8.95891 15.0916 9.25035C15.0916 9.5418 15.3278 9.77805 15.6193 9.77805H34.6454L26.7704 17.6523C27.1408 16.4088 27.0914 14.2193 25.5518 13.037C24.653 12.3468 23.3394 12.0113 21.536 12.0113L18.0515 12.0107H18.0514C17.7602 12.0107 17.5237 12.2469 17.5237 12.5384V17.8496L15.5055 12.3563C15.4292 12.1486 15.2314 12.0106 15.0102 12.0106H11.9929C11.773 12.0106 11.5761 12.1469 11.4989 12.3529L9.36359 18.0431C8.0794 16.307 5.26191 16.2306 4.51934 15.4232C4.60582 15.3468 4.89073 15.2014 5.51981 15.2345C6.11114 15.2646 6.6697 15.2931 7.86108 15.8691C8.11013 15.9894 8.41008 15.897 8.54824 15.6572C9.85641 13.3837 9.89613 13.4243 9.80979 13.1347C9.76845 12.996 9.67191 12.8802 9.54274 12.8148C6.84675 11.4475 2.69487 11.2603 1.05532 13.804V9.77805H13.1566C13.4481 9.77805 13.6843 9.5418 13.6843 9.25035C13.6843 8.95891 13.4481 8.72266 13.1566 8.72266H0.844594C0.378914 8.72266 0 9.10143 0 9.56711V26.7499C0 27.0413 0.23618 27.2776 0.527695 27.2776H13.1567C13.4482 27.2776 13.6844 27.0413 13.6844 26.7499C13.6844 26.4584 13.4482 26.2222 13.1567 26.2222H1.05539V23.106C2.94975 24.092 5.54576 24.4534 7.45488 23.5827C7.54193 23.7691 7.72861 23.8874 7.93322 23.8874H11.0959C11.3238 23.8874 11.5259 23.7412 11.5971 23.5246L11.9689 22.3946C12.9057 22.6177 13.9525 22.6348 14.9531 22.4043L15.3119 23.5212C15.382 23.7394 15.585 23.8875 15.8143 23.8875H20.5348L18.1998 26.2223H15.6194C15.3278 26.2223 15.0917 26.4586 15.0917 26.75C15.0917 27.0415 15.3278 27.2777 15.6194 27.2777H18.2872C18.5096 27.2777 18.7272 27.1875 18.8842 27.0304L35.7518 10.1644C36.2825 9.63348 35.9059 8.72266 35.1545 8.72266ZM1.63821 20.1226L1.05539 21.2789V17.6368C1.78727 18.7132 3.19043 19.288 4.44248 19.6746C4.83286 19.796 5.74713 20.0804 5.81597 20.2768C5.81006 20.6006 5.30599 20.6481 4.9841 20.6559C4.12242 20.6708 3.48391 20.5591 2.37776 19.9057C2.11486 19.7505 1.77546 19.8502 1.63821 20.1226ZM21.5013 22.921V20.5457C22.2327 20.5457 23.1507 20.5818 24.1981 20.2244L21.5013 22.921ZM22.0969 19.4902H20.9735C20.682 19.4902 20.4458 19.7265 20.4458 20.0179V22.8321H16.1992L15.8036 21.6007C15.7145 21.3234 15.4174 21.1709 15.1404 21.2595C14.0335 21.6136 12.8162 21.5877 11.7918 21.2483C11.515 21.1565 11.2157 21.307 11.1246 21.5842L10.714 22.832H8.69407L8.77514 22.6151C8.85952 22.3896 8.78055 22.1356 8.58319 21.9977C7.84146 21.4793 7.8468 22.9881 4.97862 23.0175C3.86297 23.0175 2.75252 22.7598 1.73834 22.2687L2.33388 21.0873C3.37423 21.6222 4.1239 21.7264 5.00611 21.7111C6.36905 21.6782 6.85898 20.9662 6.87129 20.2957C6.90848 18.1504 1.50096 19.1172 1.56136 15.6644C1.59968 13.1336 5.04816 12.1019 8.5571 13.5257L7.87331 14.7141C5.74748 13.7978 3.4643 14.049 3.44004 15.4192C3.42998 16.1027 4.15716 16.6574 5.73124 17.1659C7.3253 17.6708 8.66201 18.1982 8.87393 19.543C8.95802 20.0773 9.69989 20.1508 9.88924 19.6463L12.3585 13.0661H14.6418L17.556 20.9982C17.7579 21.5475 18.579 21.4037 18.579 20.8163V13.0661C22.5981 13.0668 25.9012 12.6771 25.9012 16.3112C25.9012 18.3315 24.5145 19.4902 22.0969 19.4902Z" fill="black"/>
</g>
<defs>
<clipPath id="clip0">
<rect width="36" height="36" fill="white"/>
</clipPath>
</defs>
</svg>
