<svg width="22" height="22" viewBox="0 0 22 22" fill="none" xmlns="http://www.w3.org/2000/svg">
<path d="M0.322282 12.3824C0.174255 12.4678 0.066231 12.6086 0.0219732 12.7737C-0.0222847 12.9388 0.00087547 13.1148 0.0863834 13.2628L1.5117 15.7315C1.63107 15.9383 1.84772 16.0539 2.07047 16.0539C2.17978 16.0539 2.29064 16.026 2.39213 15.9674L4.06667 15.0006L1.99686 11.4155L0.322282 12.3824Z" fill="white"/>
<path d="M3.11304 10.771L4.75066 9.82549L6.82049 13.4104L5.18287 14.3559L3.11304 10.771Z" fill="white"/>
<path d="M21.9138 6.2756L18.4767 0.322394C18.2987 0.0141352 17.9046 -0.0915681 17.5963 0.0864947L13.5185 2.44948C13.2109 2.62776 13.1057 3.02148 13.2835 3.32944L16.7143 9.27177C16.892 9.57956 17.2852 9.68543 17.5934 9.50844C18.8274 8.79972 21.6779 7.15607 21.6779 7.15607C21.826 7.07061 21.934 6.9298 21.9783 6.76471C22.0225 6.59958 21.9993 6.42363 21.9138 6.2756Z" fill="white"/>
<path d="M8.20661 13.2331C8.38463 13.5414 8.77883 13.6469 9.08713 13.4689L9.42585 13.2733C8.92157 12.7222 8.62698 11.9762 8.67038 11.1628C8.74806 9.70657 9.91892 8.52308 11.3743 8.43087C12.7466 8.3439 13.9324 9.21913 14.3221 10.4457L15.5081 9.76071L12.2551 4.12646L5.83215 7.83081C5.52368 8.0087 5.41793 8.40302 5.596 8.71141L8.20661 13.2331Z" fill="white"/>
<path d="M14.5637 17.0566C14.5633 17.0555 14.5628 17.0543 14.5624 17.0531L13.2126 13.698C12.8623 13.9419 12.4562 14.1108 12.0172 14.1805L13.015 16.6606H10.1085L11.1061 14.1804C10.6671 14.1107 10.261 13.9418 9.91081 13.6978L8.56111 17.0532C8.56064 17.0543 8.56025 17.0554 8.55978 17.0565L6.92709 21.1155C6.79428 21.4457 6.95429 21.8211 7.28455 21.954C7.3634 21.9857 7.44478 22.0007 7.52488 22.0007C7.7802 22.0007 8.02194 21.8479 8.12305 21.5965L9.58996 17.9497H13.5336L15.0006 21.5964C15.1335 21.9267 15.5088 22.0867 15.8391 21.9538C16.1694 21.8209 16.3294 21.4455 16.1965 21.1152L14.5637 17.0566Z" fill="white"/>
<path d="M11.5619 12.927C12.4492 12.927 13.1684 12.2077 13.1684 11.3204C13.1684 10.4331 12.4492 9.71387 11.5619 9.71387C10.6746 9.71387 9.95532 10.4331 9.95532 11.3204C9.95532 12.2077 10.6746 12.927 11.5619 12.927Z" fill="white"/>
</svg>
