<svg width="26" height="26" viewBox="0 0 26 26" fill="none" xmlns="http://www.w3.org/2000/svg">
<path d="M25.8827 9.88256C25.5703 8.92505 24.7176 8.30637 23.7105 8.30637H17.2155L15.1702 2.09515C14.8559 1.14034 14.005 0.524902 13.0007 0.524902C12.9975 0.524902 12.9942 0.524902 12.991 0.524953C11.9826 0.528913 11.1321 1.15197 10.8243 2.11226L8.83859 8.30637H2.28956C1.27987 8.30637 0.426553 8.92714 0.115713 9.88779C-0.195178 10.8484 0.132722 11.8514 0.951103 12.443L6.24996 16.2731L4.21036 22.4671C3.89469 23.4257 4.21711 24.4301 5.03173 25.0259C5.44087 25.3252 5.91048 25.4748 6.3804 25.4748C6.84605 25.4748 7.31195 25.3277 7.71906 25.0335L13.0271 21.1968L18.2721 25.027C19.0858 25.6213 20.1396 25.6241 20.9567 25.0345C21.7737 24.4448 22.1029 23.4438 21.7954 22.4842L19.8041 16.2731L25.0579 12.4364C25.8713 11.8424 26.1951 10.84 25.8827 9.88256ZM24.1596 11.2062L18.018 15.6912L20.3448 22.9492C20.5014 23.4377 20.1703 23.7234 20.0652 23.7993C19.96 23.8752 19.5846 24.0994 19.1703 23.7967L13.0316 19.3139L6.82671 23.799C6.41031 24.0999 6.03584 23.8732 5.93094 23.7964C5.8261 23.7197 5.49642 23.4315 5.65717 22.9434L8.04524 15.6912L1.84341 11.2085C1.42676 10.9073 1.52495 10.4804 1.56496 10.3567C1.60497 10.2331 1.77547 9.8296 2.28956 9.8296H9.94988L12.2748 2.57725C12.4316 2.08834 12.8673 2.04869 12.9971 2.04813H12.9997C13.1328 2.04813 13.564 2.08718 13.7235 2.57156L16.1135 9.8296H23.7105C24.2234 9.8296 24.3944 10.2317 24.4346 10.355C24.4748 10.4783 24.5737 10.9039 24.1596 11.2062Z" fill="#6946C6"/>
</svg>
