<svg width="29" height="35" viewBox="0 0 29 35" fill="none" xmlns="http://www.w3.org/2000/svg">
<path d="M9.60337 12.4243C9.60337 12.1501 9.82565 11.9277 10.1 11.9277H16.3178C16.5921 11.9277 16.8145 12.1501 16.8145 12.4243C16.8145 12.6986 16.5921 12.9209 16.3178 12.9209H10.1C9.82571 12.9209 9.60337 12.6986 9.60337 12.4243Z" fill="white"/>
<path d="M24.1387 21.0528C24.1387 21.7784 23.5484 22.3686 22.8229 22.3686H19.8749C19.1494 22.3686 18.5591 21.7783 18.5591 21.0528V18.1186L18.0975 17.657C17.9036 17.4631 17.9036 17.1486 18.0975 16.9547C18.2915 16.7607 18.6059 16.7608 18.7998 16.9547L18.9842 17.1391C19.2188 16.9226 19.5311 16.7891 19.8748 16.7891H22.8228C23.5484 16.7891 24.1386 17.3794 24.1386 18.1049V21.0528H24.1387ZM23.1455 18.1049C23.1455 17.927 23.0007 17.7823 22.8229 17.7823H19.8749C19.8051 17.7823 19.7409 17.8051 19.688 17.8429L21.215 19.3699L21.567 19.0179C21.7609 18.8239 22.0754 18.8239 22.2693 19.0179C22.4632 19.2118 22.4632 19.5263 22.2693 19.7202L21.5661 20.4233C21.4691 20.5203 21.342 20.5688 21.2149 20.5688C21.0879 20.5688 20.9607 20.5203 20.8638 20.4233L19.5522 19.1118V21.0528C19.5522 21.2308 19.697 21.3754 19.8748 21.3754H22.8228C23.0007 21.3754 23.1454 21.2307 23.1454 21.0528V18.1049H23.1455Z" fill="white"/>
<path d="M16.3178 19.082C16.5921 19.082 16.8145 19.3044 16.8145 19.5786C16.8145 19.8529 16.5921 20.0752 16.3178 20.0752H14.046C13.7717 20.0752 13.5494 19.8529 13.5494 19.5786C13.5494 19.3044 13.7717 19.082 14.046 19.082H16.3178Z" fill="white"/>
<path d="M24.1387 28.2071C24.1387 28.9326 23.5484 29.5229 22.8229 29.5229H19.8749C19.1494 29.5229 18.5591 28.9326 18.5591 28.2071V25.2592C18.5591 24.5336 19.1494 23.9434 19.8749 23.9434H22.8229C23.5484 23.9434 24.1387 24.5337 24.1387 25.2592V28.2071ZM23.1455 25.2591C23.1455 25.0812 23.0007 24.9365 22.8229 24.9365H19.8749C19.697 24.9365 19.5523 25.0812 19.5523 25.2591V28.207C19.5523 28.3849 19.697 28.5296 19.8749 28.5296H22.8229C23.0008 28.5296 23.1455 28.3849 23.1455 28.207V25.2591Z" fill="white"/>
<path d="M0.00556374 12.5506C0.00748444 12.0706 0.194538 11.4786 0.630424 11.0438C1.42208 10.2042 2.96466 10.2124 3.77333 11.1744V5.13751C3.77333 4.01009 4.69059 3.09283 5.81802 3.09283H10.5433V2.11703C10.5432 1.4645 11.0741 0.933594 11.7267 0.933594H20.8472C21.4997 0.933594 22.0307 1.4645 22.0307 2.11703V3.09283H26.7561C27.8835 3.09283 28.8008 4.01009 28.8008 5.13751V32.7904C28.8008 33.9178 27.8835 34.8351 26.7561 34.8351H5.81795C4.69053 34.8351 3.77327 33.9178 3.77327 32.7904V19.5779C3.77327 19.3036 3.99555 19.0813 4.26987 19.0813C4.5442 19.0813 4.76648 19.3036 4.76648 19.5779V32.7904C4.76648 33.3702 5.23818 33.8419 5.81795 33.8419H26.7561C27.3359 33.8419 27.8076 33.3702 27.8076 32.7904V5.13751C27.8076 4.55774 27.3359 4.08604 26.7561 4.08604H23.8334V5.12142C23.8626 6.33082 22.6533 7.4346 21.371 7.18438L16.7894 6.36922C16.4592 6.31049 16.1243 6.31049 15.7943 6.36909L11.2025 7.18491C10.0529 7.44096 8.69375 6.40716 8.7405 5.12189V4.08604H6.74488V14.1464L15.0443 22.4462C15.5223 22.8945 15.9133 23.4353 16.1304 24.1814L16.7974 26.6004C16.8159 26.8117 16.801 27.3009 16.1866 27.2112L13.7682 26.5443C13.1631 26.3904 12.4885 25.9605 12.0325 25.4594L6.74501 20.1716V31.7376C6.74501 31.8066 6.80116 31.8628 6.87022 31.8628H25.7033C25.7723 31.8628 25.8284 31.8066 25.8284 31.7376V5.93168C25.8284 5.65742 26.0508 5.43508 26.325 5.43508C26.5993 5.43508 26.8216 5.65742 26.8216 5.93168V31.7376C26.8216 32.3543 26.3199 32.856 25.7033 32.856H6.87009C6.25344 32.856 5.75167 32.3543 5.75167 31.7376V19.1783L0.629831 14.0565H0.629894C0.287239 13.7331 -0.000858307 13.1091 0.00556374 12.5506ZM21.0375 2.11703C21.0375 2.01215 20.9521 1.9268 20.8472 1.9268H11.7267C11.6218 1.9268 11.5364 2.01215 11.5364 2.11703V3.09283H21.0375V2.11703ZM9.73377 5.12182C9.72377 5.71622 10.3187 6.33804 11.0288 6.20693L15.6206 5.39111C15.8432 5.35158 16.0674 5.33178 16.2916 5.33178C16.5161 5.33178 16.7405 5.35158 16.9635 5.39124L21.5449 6.20647C22.1286 6.32049 22.8449 5.84335 22.8401 5.12142V4.08617H9.73377V5.12182ZM1.33229 13.3539L2.79946 14.8212L4.40733 13.2133L2.9401 11.746C2.55122 11.356 1.81261 11.2687 1.33295 11.746C0.972353 12.1076 0.828602 12.8555 1.33229 13.3539ZM12.3836 24.4059L13.9915 22.7981L5.1096 13.9157L3.50172 15.5236L12.3836 24.4059ZM5.75174 4.08941C5.20283 4.12384 4.76648 4.58012 4.76648 5.13758V12.1676L5.75174 13.1532V4.08941ZM15.173 24.4454C15.1389 24.3642 15.0688 23.9768 14.685 23.5091L13.0954 25.0988C13.468 25.5236 15.0337 25.8497 15.6074 26.0212L15.173 24.4454Z" fill="white"/>
<path d="M18.0976 9.76071C18.2915 9.56671 18.606 9.56677 18.7998 9.76071L19.005 9.96584C19.2372 9.76045 19.5412 9.63458 19.8749 9.63458H22.8229C23.5484 9.63458 24.1387 10.2249 24.1387 10.9504V13.8984C24.1387 14.6239 23.5484 15.2142 22.8229 15.2142H19.8749C19.1494 15.2142 18.5591 14.6239 18.5591 13.8984V10.9504C18.5591 10.9421 18.5602 10.934 18.5604 10.9258L18.0975 10.463C17.9036 10.2691 17.9036 9.95465 18.0976 9.76071ZM19.5523 13.8984C19.5523 14.0762 19.697 14.2209 19.8749 14.2209H22.8229C23.0008 14.2209 23.1455 14.0762 23.1455 13.8984V10.9504C23.1455 10.7725 23.0007 10.6278 22.8229 10.6278H19.8749C19.8154 10.6278 19.7603 10.6451 19.7125 10.6733L21.2151 12.1759L21.5671 11.8239C21.761 11.6299 22.0754 11.6299 22.2693 11.8239C22.4633 12.0178 22.4633 12.3323 22.2693 12.5261L21.5661 13.2293C21.4692 13.3263 21.3421 13.3748 21.215 13.3748C21.0879 13.3748 20.9608 13.3263 20.8639 13.2293L19.5523 11.9178V13.8984Z" fill="white"/>
</svg>
