<svg width="36" height="26" viewBox="0 0 36 26" fill="none" xmlns="http://www.w3.org/2000/svg">
<path d="M20.3759 15.3906C20.264 15.3906 20.1517 15.3639 20.0488 15.3099L18 14.2327L15.9512 15.3099C15.7144 15.4344 15.4272 15.4136 15.2107 15.2563C14.9942 15.099 14.8857 14.8324 14.9309 14.5686L15.3222 12.2873L13.6647 10.6715C13.4731 10.4847 13.4042 10.2053 13.4869 9.95078C13.5696 9.69624 13.7896 9.51076 14.0545 9.47223L16.3451 9.13937L17.3694 7.06367C17.4879 6.8237 17.7323 6.67175 17.9999 6.67175C18.2676 6.67175 18.512 6.8237 18.6305 7.06367L19.6548 9.13937L21.9454 9.47223C22.2103 9.51069 22.4303 9.69624 22.513 9.95078C22.5957 10.2053 22.5267 10.4847 22.3351 10.6715L20.6776 12.2873L21.0689 14.5686C21.1142 14.8324 21.0057 15.099 20.7892 15.2563C20.6668 15.3453 20.5217 15.3906 20.3759 15.3906ZM18 12.7352C18.1124 12.7352 18.2247 12.7621 18.3272 12.8159L19.4421 13.4021L19.2291 12.1606C19.19 11.9325 19.2657 11.6997 19.4314 11.5382L20.3334 10.659L19.0868 10.4778C18.8577 10.4446 18.6598 10.3007 18.5574 10.0932L18 8.96373L17.4426 10.0933C17.3401 10.3008 17.1422 10.4446 16.9131 10.4779L15.6665 10.659L16.5686 11.5383C16.7342 11.6998 16.8099 11.9325 16.7708 12.1606L16.5578 13.4021L17.6728 12.816C17.7753 12.7621 17.8876 12.7352 18 12.7352Z" fill="white"/>
<path d="M9.73597 15.3906C9.62404 15.3906 9.51175 15.3639 9.40888 15.3099L7.36005 14.2327L5.31128 15.3098C5.07447 15.4344 4.78738 15.4136 4.57082 15.2563C4.35433 15.099 4.24583 14.8324 4.29104 14.5686L4.68226 12.2872L3.02486 10.6716C2.83318 10.4847 2.76428 10.2053 2.84697 9.95078C2.92972 9.69625 3.14973 9.51076 3.4146 9.47223L5.70517 9.13937L6.72948 7.06368C6.84796 6.8237 7.09237 6.67175 7.36005 6.67175C7.62773 6.67175 7.87206 6.8237 7.99061 7.06368L9.01499 9.13937L11.3056 9.47223C11.5705 9.51069 11.7904 9.69625 11.8732 9.95078C11.9559 10.2054 11.8869 10.4847 11.6953 10.6716L10.0378 12.2872L10.429 14.5686C10.4743 14.8323 10.3658 15.0989 10.1493 15.2563C10.0269 15.3453 9.88173 15.3906 9.73597 15.3906ZM5.02658 10.659L5.92862 11.5383C6.09428 11.6998 6.16994 11.9325 6.13084 12.1606L5.91794 13.4021L7.03281 12.816C7.23756 12.7083 7.48232 12.7083 7.68721 12.816L8.80215 13.4021L8.58918 12.1606C8.55008 11.9325 8.62574 11.6998 8.7914 11.5382L9.69344 10.659L8.44694 10.4779C8.21786 10.4447 8.01993 10.3008 7.91748 10.0933L7.35997 8.96373L6.80254 10.0933C6.70009 10.3008 6.50216 10.4447 6.27308 10.4779L5.02658 10.659Z" fill="white"/>
<path d="M26.264 15.3906C26.1183 15.3906 25.9732 15.3453 25.8507 15.2563C25.6342 15.0989 25.5257 14.8324 25.5709 14.5685L25.9622 12.2872L24.3046 10.6715C24.113 10.4847 24.0441 10.2053 24.1268 9.95078C24.2095 9.69624 24.4295 9.51076 24.6944 9.47223L26.985 9.13937L28.0093 7.06367C28.1278 6.8237 28.3723 6.67175 28.6399 6.67175C28.9076 6.67175 29.152 6.8237 29.2705 7.06367L30.2948 9.13937L32.5853 9.47223C32.8503 9.51069 33.0702 9.69624 33.153 9.95078C33.2357 10.2053 33.1667 10.4847 32.9751 10.6715L31.3176 12.2873L31.7088 14.5686C31.7541 14.8324 31.6456 15.099 31.429 15.2563C31.2125 15.4136 30.9254 15.4344 30.6886 15.3099L28.6398 14.2328L26.591 15.3099C26.4883 15.3639 26.376 15.3906 26.264 15.3906ZM28.64 12.7352C28.7524 12.7352 28.8647 12.7621 28.9671 12.816L30.082 13.4021L29.8691 12.1606C29.83 11.9325 29.9057 11.6998 30.0713 11.5383L30.9734 10.659L29.7268 10.4779C29.4977 10.4446 29.2998 10.3008 29.1973 10.0933L28.6399 8.96373L28.0824 10.0933C27.9799 10.3008 27.782 10.4446 27.5529 10.4779L26.3064 10.659L27.2085 11.5382C27.3741 11.6997 27.4498 11.9325 27.4107 12.1606L27.1977 13.4021L28.3127 12.816C28.4152 12.7621 28.5276 12.7352 28.64 12.7352Z" fill="white"/>
<path d="M18 25.5156C17.7488 25.5156 17.5167 25.3816 17.3911 25.1641L15.3207 21.5781H2.10938C0.946266 21.5781 0 20.6319 0 19.4688V2.59375C0 1.43064 0.946266 0.484375 2.10938 0.484375H14.8359C15.2242 0.484375 15.5391 0.799164 15.5391 1.1875C15.5391 1.57584 15.2242 1.89062 14.8359 1.89062H2.10938C1.72167 1.89062 1.40625 2.20605 1.40625 2.59375V19.4688C1.40625 19.8565 1.72167 20.1719 2.10938 20.1719H15.7267C15.9778 20.1719 16.21 20.3059 16.3356 20.5234L18 23.4062L19.6644 20.5234C19.79 20.3059 20.0222 20.1719 20.2733 20.1719H33.8906C34.2783 20.1719 34.5938 19.8565 34.5938 19.4688V2.59375C34.5938 2.20605 34.2783 1.89062 33.8906 1.89062H21.1641C20.7758 1.89062 20.4609 1.57584 20.4609 1.1875C20.4609 0.799164 20.7758 0.484375 21.1641 0.484375H33.8906C35.0537 0.484375 36 1.43064 36 2.59375V19.4688C36 20.6319 35.0537 21.5781 33.8906 21.5781H20.6793L18.6089 25.1641C18.4833 25.3816 18.2512 25.5156 18 25.5156Z" fill="white"/>
<path d="M18 1.89062C17.8151 1.89062 17.6337 1.81539 17.5029 1.68461C17.3721 1.55383 17.2969 1.37242 17.2969 1.1875C17.2969 1.00258 17.372 0.821172 17.5029 0.690391C17.6337 0.559609 17.8151 0.484375 18 0.484375C18.1849 0.484375 18.3663 0.559609 18.497 0.690391C18.6279 0.821172 18.7031 1.00258 18.7031 1.1875C18.7031 1.37242 18.6279 1.55383 18.497 1.68461C18.3663 1.81539 18.1849 1.89062 18 1.89062Z" fill="white"/>
</svg>
