<svg width="27" height="27" viewBox="0 0 27 27" fill="none" xmlns="http://www.w3.org/2000/svg">
<path d="M23.0611 3.05664H22.2716V22.4523C22.2716 23.7409 21.2227 24.7897 19.9342 24.7897H11.9351H5.57422V25.5087C5.57422 26.332 6.24245 27.0002 7.06576 27.0002H15.062H23.0583C23.8816 27.0002 24.5498 26.332 24.5498 25.5087V4.54818C24.5498 3.72487 23.8844 3.05664 23.0611 3.05664Z" fill="#6946C6"/>
<path d="M11.9352 23.9436H19.9314C20.7547 23.9436 21.423 23.2754 21.423 22.4521V3.05639V1.49154C21.423 0.668233 20.7547 0 19.9314 0H11.9352H9.27633V0.493421C9.28194 0.544173 9.28479 0.597744 9.28479 0.651316V3.90226V4.73684C9.28479 5.89568 8.34306 6.83741 7.18422 6.83741H6.34963H3.09869C3.0564 6.83741 3.01129 6.83459 2.96899 6.83177H2.4502V22.4521C2.4502 23.2754 3.11843 23.9436 3.94174 23.9436H5.57708H11.9352ZM12.2369 18.8741H7.02351C6.63441 18.8741 6.31862 18.5582 6.31862 18.1692C6.31862 17.78 6.63441 17.4643 7.02351 17.4643H12.2397C12.6288 17.4643 12.9446 17.78 12.9446 18.1692C12.9446 18.5582 12.626 18.8741 12.2369 18.8741ZM17.453 15.2763H7.02351C6.63441 15.2763 6.31862 14.9605 6.31862 14.5715C6.31862 14.1823 6.63441 13.8666 7.02351 13.8666H17.453C17.8421 13.8666 18.1579 14.1823 18.1579 14.5715C18.1579 14.9605 17.8421 15.2763 17.453 15.2763ZM7.02351 10.0461H17.453C17.8421 10.0461 18.1579 10.3618 18.1579 10.7509C18.1579 11.14 17.8421 11.4558 17.453 11.4558H7.02351C6.63441 11.4558 6.31862 11.14 6.31862 10.7509C6.31862 10.3618 6.63441 10.0461 7.02351 10.0461Z" fill="#6946C6"/>
<path d="M3.09855 5.99242H7.18408C7.1869 5.99242 7.19254 5.99242 7.19535 5.99242C7.87769 5.98678 8.43032 5.43415 8.43596 4.75182C8.43596 4.749 8.43596 4.74336 8.43596 4.74054V0.652197C8.43596 0.274377 8.12581 0.0234375 7.80441 0.0234375C7.64933 0.0234375 7.49426 0.0798285 7.36456 0.209528L2.65306 4.92099C2.25832 5.31573 2.53745 5.99242 3.09855 5.99242Z" fill="#6946C6"/>
</svg>
