<svg width="37" height="37" viewBox="0 0 37 37" fill="none" xmlns="http://www.w3.org/2000/svg">
<g clip-path="url(#clip0)">
<path d="M36.9801 23.1559C36.8879 21.036 36.5193 18.6856 35.9662 16.4735C35.4132 14.3536 34.7219 12.372 33.8924 10.8511C30.6665 5.18268 27.164 6.0583 22.9703 7.16434C21.6338 7.48694 20.2051 7.85562 18.7304 7.99387H18.2696C16.7949 7.85562 15.3662 7.48694 14.0297 7.16434C9.83601 6.10438 6.33354 5.18268 3.10759 10.8972C2.27806 12.418 1.54069 14.3997 1.03376 16.5196C0.480738 18.7317 0.112057 21.082 0.0198872 23.202C-0.0722829 25.5523 0.158142 27.2574 0.665078 28.4557C1.17201 29.5617 1.90938 30.253 2.87716 30.5295C3.75278 30.7599 4.76665 30.6677 5.82661 30.2069C7.62392 29.4695 9.69775 27.9026 11.7255 26.0131C13.1541 24.6306 15.8271 23.9393 18.5 23.9393C21.1729 23.9393 23.8459 24.6306 25.2745 26.0131C27.3022 27.9026 29.3761 29.4695 31.1734 30.2069C32.2334 30.6217 33.2472 30.7599 34.1228 30.5295C35.0445 30.253 35.828 29.6078 36.3349 28.4096C36.8419 27.2574 37.0723 25.5523 36.9801 23.1559ZM34.768 27.7644C34.4915 28.4096 34.1228 28.7783 33.662 28.9165C33.1551 29.0548 32.5099 28.9626 31.7725 28.6861C30.1595 28.0409 28.27 26.6123 26.4266 24.861C24.6754 23.1098 21.5877 22.2342 18.5 22.2342C15.4123 22.2342 12.3246 23.1098 10.5273 24.7689C8.6378 26.5201 6.74831 27.9948 5.18142 28.5939C4.44405 28.8704 3.79886 29.0087 3.29193 28.8243C2.83108 28.6861 2.4624 28.3174 2.18589 27.6722C1.8172 26.7966 1.63286 25.368 1.72503 23.248C1.8172 21.2664 2.1398 19.0082 2.69282 16.8883C3.19976 14.9066 3.84495 13.0632 4.62839 11.6807C7.16307 7.11825 10.1125 7.85562 13.615 8.77732C15.0436 9.146 16.5183 9.51468 18.1313 9.65294C18.1774 9.65294 18.1774 9.65294 18.2235 9.65294H18.7304C18.7765 9.65294 18.7765 9.65294 18.8226 9.65294C20.4817 9.51468 21.9564 9.146 23.385 8.77732C26.8875 7.9017 29.8369 7.11825 32.3716 11.6807C33.1551 13.0632 33.8002 14.8606 34.3072 16.8883C34.8141 19.0082 35.1828 21.2203 35.275 23.248C35.3671 25.368 35.1828 26.7966 34.768 27.7644Z" fill="black"/>
<path d="M14.2611 14.1693C13.8003 13.7546 13.2472 13.432 12.602 13.3859C12.556 12.7868 12.2794 12.1877 11.8647 11.7729L11.8186 11.7268C11.3117 11.2199 10.6665 10.9434 9.92911 10.9434C9.19175 10.9434 8.50047 11.266 8.03962 11.7268C7.62485 12.1416 7.30226 12.7407 7.25617 13.3859C6.61098 13.432 6.05796 13.7085 5.59711 14.1232L5.55102 14.1693C5.04409 14.6763 4.76758 15.3214 4.76758 16.0588C4.76758 16.7962 5.09017 17.4874 5.55102 17.9483C6.01188 18.4091 6.5649 18.6857 7.25617 18.7317C7.30226 19.3769 7.57877 19.976 8.03962 20.3908C8.54656 20.8977 9.19175 21.1743 9.92911 21.1743C10.6665 21.1743 11.3577 20.8517 11.8186 20.3908C12.2334 19.93 12.556 19.3769 12.602 18.7317C13.2472 18.6857 13.8463 18.4091 14.2611 17.9483C14.768 17.4414 15.0446 16.7962 15.0446 16.0588C15.0446 15.3214 14.722 14.6302 14.2611 14.1693ZM13.109 16.7501C12.9246 16.9344 12.6942 17.0266 12.4177 17.0266H11.7725C11.3117 17.0266 10.8969 17.3953 10.8969 17.9022V18.5013C10.8969 18.7778 10.8047 19.0083 10.6204 19.1926C10.436 19.3769 10.2056 19.4691 9.92911 19.4691C9.6526 19.4691 9.42217 19.3769 9.23783 19.1926C9.05349 19.0083 8.96132 18.7778 8.96132 18.5013V17.8561C8.96132 17.3953 8.59264 16.9805 8.0857 16.9805H7.44051C7.164 16.9805 6.93358 16.8883 6.74924 16.704C6.61098 16.5657 6.47273 16.3353 6.47273 16.0588C6.47273 15.7823 6.5649 15.5519 6.74924 15.3675C6.74924 15.3675 6.74924 15.3675 6.79532 15.3214C6.97966 15.1832 7.21009 15.091 7.44051 15.091H8.0857C8.54656 15.091 8.96132 14.7223 8.96132 14.2154V13.5702C8.96132 13.2937 9.05349 13.0633 9.23783 12.8789C9.42217 12.6946 9.6526 12.6024 9.92911 12.6024C10.2056 12.6024 10.436 12.6946 10.6204 12.8789C10.6204 12.8789 10.6204 12.8789 10.6665 12.925C10.8047 13.1094 10.8969 13.3398 10.8969 13.5702V14.2154C10.8969 14.6763 11.2656 15.091 11.7725 15.091H12.4177C12.6942 15.091 12.9246 15.1832 13.109 15.3675C13.2933 15.5519 13.3855 15.7823 13.3855 16.0588C13.3855 16.3353 13.2933 16.5657 13.109 16.7501Z" fill="black"/>
<path d="M26.5192 14.3998C27.41 14.3998 28.1322 13.6776 28.1322 12.7868C28.1322 11.896 27.41 11.1738 26.5192 11.1738C25.6284 11.1738 24.9062 11.896 24.9062 12.7868C24.9062 13.6776 25.6284 14.3998 26.5192 14.3998Z" fill="black"/>
<path d="M26.5192 20.9428C27.41 20.9428 28.1322 20.2206 28.1322 19.3298C28.1322 18.439 27.41 17.7168 26.5192 17.7168C25.6284 17.7168 24.9062 18.439 24.9062 19.3298C24.9062 20.2206 25.6284 20.9428 26.5192 20.9428Z" fill="black"/>
<path d="M23.2458 17.6713C24.1366 17.6713 24.8588 16.9491 24.8588 16.0583C24.8588 15.1675 24.1366 14.4453 23.2458 14.4453C22.355 14.4453 21.6328 15.1675 21.6328 16.0583C21.6328 16.9491 22.355 17.6713 23.2458 17.6713Z" fill="black"/>
<path d="M29.7907 17.6713C30.6815 17.6713 31.4037 16.9491 31.4037 16.0583C31.4037 15.1675 30.6815 14.4453 29.7907 14.4453C28.8999 14.4453 28.1777 15.1675 28.1777 16.0583C28.1777 16.9491 28.8999 17.6713 29.7907 17.6713Z" fill="black"/>
</g>
<defs>
<clipPath id="clip0">
<rect width="37" height="37" fill="white"/>
</clipPath>
</defs>
</svg>
