<svg width="35" height="35" viewBox="0 0 35 35" fill="none" xmlns="http://www.w3.org/2000/svg">
<g clip-path="url(#clip0)">
<path d="M4.69739 23.271H2.79533C1.52214 23.271 0.486328 24.3071 0.486328 25.5803V31.5374C0.486328 31.9147 0.792344 32.221 1.16992 32.221H6.32306C6.70064 32.221 7.00666 31.9147 7.00666 31.5374V25.5803C7.00666 24.3071 5.97085 23.271 4.69739 23.271ZM5.63947 30.8536H1.85352V25.5803C1.85352 25.0609 2.27596 24.6382 2.79533 24.6382H4.69765C5.21702 24.6382 5.63947 25.0609 5.63947 25.5803V30.8536Z" fill="black"/>
<path d="M13.5365 20.5366H11.6345C10.3613 20.5366 9.3252 21.5724 9.3252 22.8459V31.5374C9.3252 31.9148 9.63121 32.221 10.0088 32.221H15.1622C15.5398 32.221 15.8458 31.9148 15.8458 31.5374V22.8459C15.8458 21.5724 14.81 20.5366 13.5365 20.5366ZM14.4786 30.8536H10.6927V22.8459C10.6927 22.3263 11.1151 21.9038 11.6345 21.9038H13.5368C14.0562 21.9038 14.4786 22.3265 14.4786 22.8459V30.8536Z" fill="black"/>
<path d="M22.3773 16.8159H20.4753C19.2021 16.8159 18.166 17.852 18.166 19.1252V31.5373C18.166 31.9148 18.4723 32.2209 18.8496 32.2209H24.003C24.3806 32.2209 24.6866 31.9148 24.6866 31.5373V19.1252C24.6866 17.852 23.6508 16.8159 22.3773 16.8159ZM23.3194 30.8537H19.5335V19.1252C19.5335 18.6058 19.9559 18.1831 20.4753 18.1831H22.3776C22.897 18.1831 23.3194 18.6058 23.3194 19.1252V30.8537Z" fill="black"/>
<path d="M29.6127 8.86431C30.232 9.62988 31.4643 9.34283 31.6782 8.37858L32.8718 3.00301C33.0564 2.17175 32.4315 1.36692 31.5482 1.36719L26.0418 1.41178C25.057 1.42006 24.5146 2.56321 25.1357 3.33066L26.045 4.45458C22.6035 7.30192 17.9948 9.93724 12.3466 12.2876C7.7051 14.2188 3.54879 15.4538 1.48465 16.0178C0.332415 16.3326 -0.294838 17.5772 0.136949 18.691C0.502245 19.6333 1.51722 20.1621 2.49909 19.9201C5.31439 19.2261 12.6203 17.2277 19.6373 13.6708C19.974 13.4999 20.1089 13.0887 19.938 12.752C19.7674 12.4153 19.3559 12.2807 19.0194 12.4513C12.1279 15.9443 4.94161 17.9099 2.17171 18.5927C1.63952 18.7236 1.18664 18.1671 1.43712 17.6699C1.52096 17.5041 1.66569 17.3858 1.84514 17.3369C10.162 15.0637 20.3375 10.9642 26.9467 5.48291C27.504 5.02069 27.5865 4.18622 27.1307 3.62279L26.4455 2.77604L31.5308 2.73465L30.4288 7.69953L29.7334 6.83996C29.2485 6.24048 28.3764 6.18921 27.8183 6.68108C26.6874 7.67763 25.3923 8.65923 23.9691 9.59864C23.654 9.80666 23.5669 10.2307 23.7749 10.5458C23.983 10.8609 24.407 10.9477 24.7221 10.7397C26.1868 9.77301 27.5235 8.7607 28.6952 7.7305L29.6127 8.86431Z" fill="black"/>
<path d="M33.5262 25.413V14.0629C33.5262 12.7895 32.4903 11.7537 31.2172 11.7537H29.3148C28.0416 11.7537 27.0058 12.7895 27.0058 14.0629V25.3145C23.7753 28.2355 25.8232 33.6528 30.2131 33.6528C32.8527 33.6528 35.0004 31.5053 35.0004 28.8655C35.0004 27.5103 34.4343 26.2849 33.5262 25.413ZM28.373 24.4432V14.0629C28.373 13.5433 28.7955 13.1209 29.3148 13.1209H31.2172C31.7365 13.1209 32.159 13.5436 32.159 14.0629V24.4918C30.9509 23.9521 29.5653 23.9457 28.373 24.4432ZM30.2131 32.2856C28.3274 32.2856 26.793 30.7515 26.793 28.8655C26.793 26.4091 29.3362 24.7516 31.5822 25.7316C32.7884 26.2606 33.6332 27.4662 33.6332 28.8655C33.6332 30.7512 32.0989 32.2856 30.2131 32.2856Z" fill="black"/>
<path d="M31.4524 27.0853C30.5824 27.7846 30.0916 28.7192 29.838 29.3564L28.7989 28.9662C28.4457 28.8332 28.0515 29.0122 27.9188 29.3657C27.7861 29.7193 27.965 30.1134 28.3183 30.2461L29.6502 30.7463C30.2097 30.9561 30.8305 30.6592 31.0217 30.0958C31.1806 29.6282 31.559 28.7539 32.3091 28.1507C32.6033 27.9144 32.6501 27.4839 32.4135 27.1897C32.1771 26.8957 31.747 26.8489 31.4524 27.0853Z" fill="black"/>
<path d="M22.4161 11.7705C22.4161 11.3929 22.1101 11.0869 21.7325 11.0869H21.7306C21.3531 11.0869 21.0479 11.3929 21.0479 11.7705C21.0479 12.1478 21.3549 12.4541 21.7325 12.4541C22.1101 12.4541 22.4161 12.1481 22.4161 11.7705Z" fill="black"/>
</g>
<defs>
<clipPath id="clip0">
<rect width="35" height="35" fill="white"/>
</clipPath>
</defs>
</svg>
