<svg width="35" height="35" viewBox="0 0 35 35" fill="none" xmlns="http://www.w3.org/2000/svg">
<g clip-path="url(#clip0)">
<path d="M20.9195 22.0561C21.3527 22.0561 21.7578 21.8854 22.0603 21.5753L24.7476 18.8202C25.3609 18.1912 25.3482 17.1806 24.7192 16.5672C24.0903 15.954 23.0794 15.9667 22.4661 16.5955L20.8897 18.2117L20.6135 17.9432C19.9837 17.3309 18.9729 17.345 18.3603 17.9748C17.748 18.6045 17.7621 19.6152 18.392 20.2276L19.8088 21.6052C20.1079 21.896 20.5024 22.0561 20.9195 22.0561ZM19.0971 18.691C19.3148 18.4672 19.6738 18.4626 19.8973 18.6799L20.5412 19.306C20.7444 19.5036 21.0692 19.4992 21.2672 19.2963L23.2017 17.313C23.4197 17.0895 23.7786 17.0852 24.0019 17.3029C24.2253 17.5207 24.2297 17.8796 24.012 18.1029L21.3247 20.858C21.117 21.0801 20.7387 21.0848 20.5251 20.8687L19.1083 19.4911C18.8847 19.2736 18.8796 18.9146 19.0971 18.691Z" fill="black"/>
<path d="M16.9475 22.4056C16.7766 22.1791 16.4546 22.134 16.2279 22.3049C16.0014 22.4758 15.9564 22.7979 16.1272 23.0244C16.3143 23.2723 16.5213 23.5101 16.7423 23.731C18.0055 24.9941 19.685 25.6897 21.4714 25.6897C23.2579 25.6897 24.9373 24.9941 26.2005 23.731C27.4638 22.468 28.1594 20.7887 28.1594 19.0025C28.1594 17.2163 27.4637 15.5371 26.2005 14.274C23.5928 11.6668 19.35 11.6668 16.7423 14.274C14.9644 16.0516 14.3353 18.6447 15.1005 21.0414C15.1867 21.3116 15.476 21.4607 15.7461 21.3745C16.0164 21.2883 16.1656 20.9992 16.0793 20.7289C15.4316 18.7002 15.964 16.5052 17.4689 15.0006C19.6758 12.7939 23.267 12.7939 25.4739 15.0006C26.5431 16.0696 27.1319 17.4908 27.1319 19.0026C27.1319 20.5144 26.5431 21.9356 25.4739 23.0046C24.4049 24.0736 22.9834 24.6623 21.4714 24.6623C19.9595 24.6623 18.538 24.0736 17.4688 23.0046C17.2814 22.8171 17.106 22.6156 16.9475 22.4056Z" fill="black"/>
<path d="M34.2923 28.3877L31.051 25.1468C30.8503 24.9463 30.525 24.9462 30.3243 25.1468L30.3045 25.1666L29.0572 23.9195C29.8957 22.6268 30.3952 21.1332 30.4935 19.5744C30.5114 19.2913 30.2962 19.0473 30.0131 19.0294C29.7302 19.0122 29.486 19.2267 29.468 19.5098C29.3453 21.4559 28.5174 23.2879 27.1368 24.6683C25.5766 26.2284 23.5276 27.0093 21.4781 27.0113C21.4755 27.0112 21.473 27.0109 21.4703 27.0109H21.4295C19.391 27.0007 17.3557 26.22 15.8038 24.6683C14.2902 23.155 13.4566 21.1428 13.4566 19.0025C13.4566 16.8623 14.2902 14.8501 15.8038 13.3368C18.9283 10.2126 24.0123 10.2126 27.1368 13.3368C28.3006 14.5004 29.0685 15.9681 29.3577 17.5815C29.4078 17.8607 29.675 18.0463 29.9541 17.9965C30.2334 17.9465 30.4192 17.6795 30.3692 17.4002C30.0427 15.5793 29.1762 13.923 27.8634 12.6103C27.2129 11.9598 26.4869 11.4298 25.7136 11.0195V6.87921C25.7132 6.74399 25.6585 6.61165 25.5631 6.51595L19.1968 0.150459C19.101 0.055166 18.9688 0.000341797 18.8334 0H1.54039C0.690547 0 -0.000908203 0.691318 -0.000908203 1.54109V5.85888C-0.000908203 6.14257 0.229053 6.3726 0.512881 6.3726C0.796641 6.3726 1.02667 6.14264 1.02667 5.85888V1.54109C1.02667 1.25781 1.25711 1.02737 1.54046 1.02737H18.3198V5.85184C18.3198 6.70161 19.0113 7.39293 19.8611 7.39293H24.6862V10.5542C23.6838 10.1744 22.6269 9.97931 21.5684 9.96789C21.5633 9.96721 21.5584 9.96618 21.5531 9.96618H10.0824C9.79868 9.96618 9.56866 10.1962 9.56866 10.4799C9.56866 10.7636 9.79868 10.9936 10.0824 10.9936H17.2756C16.5427 11.3768 15.8519 11.8674 15.2263 12.4651H10.0824C9.79868 12.4651 9.56866 12.6951 9.56866 12.9788C9.56866 13.2625 9.79868 13.4925 10.0824 13.4925H14.3016C13.463 14.5788 12.8898 15.8299 12.6155 17.1654H10.0825C9.79875 17.1654 9.56872 17.3955 9.56872 17.6792C9.56872 17.9629 9.79875 18.1929 10.0825 18.1929H12.4655C12.4418 18.4607 12.4293 18.7307 12.4293 19.0027C12.4293 19.2258 12.4374 19.4477 12.4534 19.668H10.0826C9.79882 19.668 9.56879 19.898 9.56879 20.1817C9.56879 20.4654 9.79882 20.6955 10.0826 20.6955H12.5873C12.8493 22.086 13.4335 23.3889 14.3032 24.5147H10.0826C9.79882 24.5147 9.56879 24.7447 9.56879 25.0284C9.56879 25.3122 9.79882 25.5421 10.0826 25.5421H15.2283C15.8531 26.1387 16.5428 26.6284 17.2744 27.0112H10.0823C9.79855 27.0112 9.56852 27.2412 9.56852 27.5249C9.56852 27.8086 9.79855 28.0386 10.0823 28.0386H21.4703C22.5614 28.0385 23.6527 27.8425 24.6861 27.451V33.4592C24.6861 33.7424 24.4556 33.9729 24.1723 33.9729H1.54039C1.25711 33.9729 1.0266 33.7425 1.0266 33.4592V7.91396C1.0266 7.63027 0.796572 7.40024 0.512813 7.40024C0.229053 7.40024 -0.000976562 7.6302 -0.000976562 7.91396V33.4592C-0.000908203 34.3087 0.690547 35 1.54039 35H24.1723C25.0222 35 25.7136 34.3087 25.7136 33.4589V26.9855C25.9429 26.8638 26.168 26.7315 26.3881 26.5887L27.6352 27.8356C27.4194 28.024 27.4079 28.383 27.6153 28.5819L30.8567 31.8229C31.7608 32.7652 33.3881 32.7651 34.2922 31.8229C35.2347 30.9187 35.2347 29.2917 34.2923 28.3877ZM19.861 6.36556C19.5778 6.36556 19.3473 6.13512 19.3473 5.85184V1.7539L23.9595 6.36556H19.861ZM27.2262 25.9737C27.4455 25.7925 27.6583 25.5998 27.8634 25.3948C28.0673 25.191 28.2602 24.9782 28.4423 24.7577L29.5779 25.8931L28.3617 27.109L27.2262 25.9737ZM33.5657 31.0963C33.044 31.6401 32.105 31.64 31.5833 31.0963L28.7052 28.2187L30.6877 26.2365L33.5657 29.1141C34.1095 29.6359 34.1095 30.5746 33.5657 31.0963Z" fill="black"/>
<path d="M4.66286 14H6.91052C7.54421 14 8.05978 13.4846 8.05978 12.851V10.6036C8.05978 9.97002 7.54428 9.45459 6.91052 9.45459H4.66286C4.02924 9.45459 3.51367 9.97002 3.51367 10.6036V12.851C3.51367 13.4846 4.02924 14 4.66286 14ZM4.54125 10.6036C4.54125 10.5366 4.59587 10.482 4.66286 10.482H6.91052C6.97765 10.482 7.0322 10.5366 7.0322 10.6036V12.851C7.0322 12.9181 6.97758 12.9726 6.91052 12.9726H4.66286C4.5958 12.9726 4.54125 12.9181 4.54125 12.851V10.6036Z" fill="black"/>
<path d="M3.51367 20.0541C3.51367 20.6876 4.02917 21.2031 4.66286 21.2031H6.91052C7.54421 21.2031 8.05978 20.6876 8.05978 20.0541V17.8067C8.05978 17.1731 7.54428 16.6577 6.91052 16.6577H4.66286C4.02924 16.6577 3.51367 17.1731 3.51367 17.8067V20.0541ZM4.54125 17.8067C4.54125 17.7396 4.59587 17.6851 4.66286 17.6851H6.91052C6.97765 17.6851 7.0322 17.7396 7.0322 17.8067V20.0541C7.0322 20.1212 6.97758 20.1757 6.91052 20.1757H4.66286C4.5958 20.1757 4.54125 20.1212 4.54125 20.0541V17.8067Z" fill="black"/>
<path d="M3.51367 27.403C3.51367 28.0366 4.02917 28.552 4.66286 28.552H6.91052C7.54421 28.552 8.05978 28.0366 8.05978 27.403V25.1556C8.05978 24.522 7.54428 24.0066 6.91052 24.0066H4.66286C4.02924 24.0066 3.51367 24.522 3.51367 25.1556V27.403ZM4.54125 25.1556C4.54125 25.0886 4.59587 25.034 4.66286 25.034H6.91052C6.97765 25.034 7.0322 25.0886 7.0322 25.1556V27.403C7.0322 27.4701 6.97758 27.5246 6.91052 27.5246H4.66286C4.5958 27.5246 4.54125 27.4701 4.54125 27.403V25.1556Z" fill="black"/>
</g>
<defs>
<clipPath id="clip0">
<rect width="35" height="35" fill="white"/>
</clipPath>
</defs>
</svg>
