<svg width="17" height="17" viewBox="0 0 17 17" fill="none" xmlns="http://www.w3.org/2000/svg">
<g clip-path="url(#clip0)">
<path d="M8.1124 0C3.63908 0 0 3.63908 0 8.1124C0 12.5857 3.63908 16.2248 8.1124 16.2248C12.5857 16.2248 16.2248 12.5857 16.2248 8.1124C16.2248 3.63908 12.5857 0 8.1124 0ZM8.1124 14.8727C4.38475 14.8727 1.35208 11.84 1.35208 8.1124C1.35208 4.38475 4.38475 1.35208 8.1124 1.35208C11.84 1.35208 14.8727 4.38475 14.8727 8.1124C14.8727 11.84 11.84 14.8727 8.1124 14.8727Z" fill="white"/>
<path d="M7.94317 10.9315C7.50171 10.939 7.14613 11.2945 7.13868 11.736C7.13802 11.7495 7.13802 11.7637 7.13868 11.7772C7.15424 12.2214 7.52605 12.5689 7.9702 12.554H7.94317C8.38936 12.5466 8.74766 12.1829 8.74766 11.736C8.73682 11.2959 8.38327 10.9423 7.94317 10.9315Z" fill="white"/>
<path d="M8.09887 3.69791C7.14566 3.66952 6.2249 4.04538 5.56374 4.73224C5.48734 4.82823 5.44677 4.94788 5.4488 5.07027C5.45219 5.36976 5.69015 5.6138 5.98964 5.6246C6.12891 5.62527 6.26343 5.57457 6.36823 5.48264C6.78738 5.04796 7.36672 4.80389 7.97043 4.80661C8.88308 4.80661 9.32251 5.30011 9.32251 5.88151C9.32251 7.1254 7.11188 7.28089 7.11188 8.89662C7.11188 9.28871 7.35525 10.0121 7.86228 10.0121C7.86633 10.0121 7.87105 10.0121 7.87581 10.0121C8.14824 10.0121 8.3693 9.79101 8.3693 9.51858C8.3693 9.33605 8.24087 9.18056 8.24087 8.99803C8.24087 7.78117 10.6205 7.61217 10.6746 5.72604C10.6746 4.57677 9.70107 3.69791 8.09887 3.69791Z" fill="white"/>
</g>
<defs>
<clipPath id="clip0">
<rect width="16.2248" height="16.2248" fill="white"/>
</clipPath>
</defs>
</svg>
