<svg width="26" height="26" viewBox="0 0 26 26" fill="none" xmlns="http://www.w3.org/2000/svg">
<path d="M13 0C5.83157 0 0 5.83157 0 13C0 20.1684 5.83157 26 13 26C20.1684 26 26 20.1684 26 13C26 5.83157 20.1684 0 13 0ZM13 23.8333C7.0265 23.8333 2.16668 18.9735 2.16668 13C2.16668 7.0265 7.0265 2.16668 13 2.16668C18.9735 2.16668 23.8333 7.0265 23.8333 13C23.8333 18.9735 18.9735 23.8333 13 23.8333Z" fill="black"/>
<path d="M12.7292 17.5175C12.0218 17.5295 11.4519 18.0993 11.44 18.8067C11.4389 18.8284 11.4389 18.8512 11.44 18.8728C11.4649 19.5845 12.0608 20.1414 12.7725 20.1175H12.7292C13.4442 20.1056 14.0184 19.5228 14.0184 18.8067C14.001 18.1015 13.4344 17.5349 12.7292 17.5175Z" fill="black"/>
<path d="M12.9782 5.92587C11.4507 5.88037 9.97525 6.48268 8.91575 7.58336C8.79331 7.73718 8.72831 7.92893 8.73156 8.12505C8.737 8.60498 9.11831 8.99605 9.59825 9.01336C9.82143 9.01443 10.037 8.93318 10.2049 8.78586C10.8766 8.0893 11.805 7.69818 12.7724 7.70255C14.2349 7.70255 14.9391 8.49336 14.9391 9.42505C14.9391 11.4184 11.3966 11.6675 11.3966 14.2567C11.3966 14.885 11.7866 16.0442 12.5991 16.0442C12.6056 16.0442 12.6132 16.0442 12.6208 16.0442C13.0574 16.0442 13.4116 15.69 13.4116 15.2534C13.4116 14.9609 13.2058 14.7117 13.2058 14.4192C13.2058 12.4692 17.0191 12.1984 17.1058 9.17591C17.1058 7.33423 15.5458 5.92587 12.9782 5.92587Z" fill="black"/>
</svg>
