<svg width="18" height="16" viewBox="0 0 18 16" fill="none" xmlns="http://www.w3.org/2000/svg">
<path d="M9 2.39282C10.8615 2.39282 12.6263 2.92332 14.1629 3.90545C15.6995 4.88041 17.0078 6.307 17.9473 8.09204C18.0176 8.22825 18.0176 8.38596 17.9473 8.515C16.0683 12.0851 12.7229 14.2214 9 14.2214H8.99122C5.27707 14.2214 1.93171 12.0851 0.0526829 8.515C-0.017561 8.38596 -0.017561 8.22825 0.0526829 8.09204C1.93171 4.52196 5.27707 2.39282 8.99122 2.39282H9ZM9 5.43958C7.05951 5.43958 5.4878 6.7228 5.4878 8.30711C5.4878 9.88425 7.05951 11.1675 9 11.1675C10.9317 11.1675 12.5034 9.88425 12.5034 8.30711C12.5034 6.7228 10.9317 5.43958 9 5.43958ZM9.00105 6.51332C10.204 6.51332 11.1874 7.31623 11.1874 8.30553C11.1874 9.28766 10.204 10.0906 9.00105 10.0906C7.78935 10.0906 6.80593 9.28766 6.80593 8.30553C6.80593 8.18366 6.82349 8.06896 6.84983 7.95426H6.89374C7.86837 7.95426 8.65861 7.3234 8.69374 6.53483C8.79032 6.52049 8.89569 6.51332 9.00105 6.51332Z" fill="#A0A0A0"/>
<line x1="3.9855" y1="1.75" x2="16.0713" y2="13.8358" stroke="#818181" stroke-width="2" stroke-linecap="round"/>
</svg>
