<svg width="31" height="31" viewBox="0 0 31 31" fill="none" xmlns="http://www.w3.org/2000/svg">
<g clip-path="url(#clip0)">
<path d="M30.225 13.423C30.2241 13.4223 30.2234 13.4213 30.2227 13.4206L17.5771 0.775514C17.0381 0.236268 16.3215 -0.0605545 15.5592 -0.0605545C14.7969 -0.0605545 14.0803 0.236268 13.541 0.775514L0.902087 13.4142C0.89783 13.4185 0.893336 13.423 0.889316 13.4272C-0.217559 14.5405 -0.215667 16.3467 0.894755 17.4572C1.40207 17.9647 2.07187 18.2585 2.78827 18.2894C2.8176 18.2923 2.84692 18.2937 2.87649 18.2937H3.38026V27.5995C3.38026 29.4412 4.8788 30.9395 6.72051 30.9395H11.6679C12.1695 30.9395 12.5761 30.5327 12.5761 30.0313V22.7354C12.5761 21.8951 13.2598 21.2115 14.1002 21.2115H17.0182C17.8586 21.2115 18.5421 21.8951 18.5421 22.7354V30.0313C18.5421 30.5327 18.9486 30.9395 19.4503 30.9395H24.3976C26.2396 30.9395 27.7379 29.4412 27.7379 27.5995V18.2937H28.2052C28.9673 18.2937 29.6839 17.9969 30.2234 17.4574C31.335 16.3453 31.3355 14.5358 30.225 13.423ZM28.9389 16.1731C28.7428 16.3692 28.4822 16.4773 28.2052 16.4773H26.8297C26.328 16.4773 25.9215 16.8839 25.9215 17.3855V27.5995C25.9215 28.4396 25.238 29.1231 24.3976 29.1231H20.3585V22.7354C20.3585 20.8937 18.8602 19.3951 17.0182 19.3951H14.1002C12.2582 19.3951 10.7597 20.8937 10.7597 22.7354V29.1231H6.72051C5.88042 29.1231 5.19667 28.4396 5.19667 27.5995V17.3855C5.19667 16.8839 4.7901 16.4773 4.28846 16.4773H2.93656C2.92237 16.4763 2.90842 16.4756 2.89399 16.4754C2.62342 16.4707 2.36964 16.3633 2.17949 16.1729C1.77505 15.7685 1.77505 15.1103 2.17949 14.7056C2.17972 14.7056 2.17972 14.7053 2.17996 14.7051L2.18067 14.7044L14.8258 2.05977C15.0216 1.8637 15.282 1.75586 15.5592 1.75586C15.8361 1.75586 16.0965 1.8637 16.2926 2.05977L28.9349 14.7018C28.9368 14.7037 28.9389 14.7056 28.9408 14.7075C29.3431 15.1126 29.3424 15.7694 28.9389 16.1731Z" fill="black"/>
</g>
<defs>
<clipPath id="clip0">
<rect width="31" height="31" fill="white"/>
</clipPath>
</defs>
</svg>
