<svg width="24" height="24" viewBox="0 0 24 24" fill="none" xmlns="http://www.w3.org/2000/svg">
<path d="M12 0C5.36761 0 0 5.367 0 12C0 18.6323 5.367 24 12 24C18.6324 24 24 18.633 24 12C24 5.3677 18.633 0 12 0ZM13.2323 16.7635C13.2323 17.1426 12.6795 17.5216 12.0002 17.5216C11.2894 17.5216 10.784 17.1426 10.784 16.7635V10.7453C10.784 10.3031 11.2895 10.0029 12.0002 10.0029C12.6795 10.0029 13.2323 10.3031 13.2323 10.7453V16.7635ZM12.0003 8.54981C11.2737 8.54981 10.7051 8.01277 10.7051 7.41248C10.7051 6.81225 11.2737 6.291 12.0003 6.291C12.7111 6.291 13.2798 6.81225 13.2798 7.41248C13.2798 8.01277 12.711 8.54981 12.0003 8.54981Z" fill="#6946C6"/>
</svg>
