<svg width="20" height="20" viewBox="0 0 20 20" fill="none" xmlns="http://www.w3.org/2000/svg">
<path d="M2.34375 8.82812C2.34375 8.50433 2.0816 8.24219 1.75781 8.24219H0.585938C0.262146 8.24219 0 8.50433 0 8.82812C0 9.15207 0.262146 9.41406 0.585938 9.41406H1.75781C2.0816 9.41406 2.34375 9.15207 2.34375 8.82812Z" fill="white"/>
<path d="M19.4141 8.24219H18.2422C17.9184 8.24219 17.6562 8.50433 17.6562 8.82812C17.6562 9.15207 17.9184 9.41406 18.2422 9.41406H19.4141C19.7379 9.41406 20 9.15207 20 8.82812C20 8.50433 19.7379 8.24219 19.4141 8.24219Z" fill="white"/>
<path d="M3.18896 4.21887L2.17379 3.63293C1.89348 3.47089 1.53521 3.56702 1.37331 3.84747C1.21142 4.12793 1.30755 4.48605 1.58785 4.64795L2.60302 5.23389C2.88149 5.39472 3.24023 5.30103 3.40349 5.01935C3.56539 4.73889 3.46926 4.38077 3.18896 4.21887Z" fill="white"/>
<path d="M18.4121 13.0082L17.3969 12.4222C17.116 12.2608 16.7579 12.3563 16.5965 12.6368C16.4346 12.9172 16.5307 13.2753 16.811 13.4372L17.8262 14.0232C18.1046 14.184 18.4634 14.0903 18.6266 13.8086C18.7885 13.5282 18.6924 13.17 18.4121 13.0082Z" fill="white"/>
<path d="M5.39099 1.89394C5.55411 2.17562 5.91299 2.26931 6.19147 2.10848C6.47192 1.94643 6.56805 1.58831 6.406 1.308L5.82007 0.292836C5.65817 0.0131427 5.29822 -0.0831403 5.01959 0.0782977C4.73914 0.240193 4.64301 0.59847 4.80505 0.878774L5.39099 1.89394Z" fill="white"/>
<path d="M2.60302 12.4222L1.58785 13.0082C1.30755 13.17 1.21142 13.5282 1.37331 13.8086C1.53658 14.0905 1.89532 14.1841 2.17379 14.0232L3.18896 13.4372C3.46926 13.2753 3.56539 12.9172 3.40349 12.6368C3.24099 12.3563 2.88103 12.2608 2.60302 12.4222Z" fill="white"/>
<path d="M17.3969 5.23389L18.4121 4.64795C18.6924 4.48605 18.7885 4.12793 18.6266 3.84747C18.4641 3.56702 18.1042 3.47089 17.8262 3.63293L16.811 4.21887C16.5307 4.38077 16.4346 4.73889 16.5965 5.01935C16.7597 5.30118 17.1185 5.39487 17.3969 5.23389Z" fill="white"/>
<path d="M13.8087 2.10841C14.0871 2.26924 14.446 2.17555 14.6091 1.89387L15.1951 0.878706C15.3571 0.598402 15.261 0.240126 14.9805 0.0782299C14.7007 -0.0830555 14.3419 0.0130749 14.1801 0.292768L13.5941 1.30794C13.4321 1.58824 13.5282 1.94652 13.8087 2.10841Z" fill="white"/>
<path d="M14.0632 3.82478C12.5497 2.59401 10.5665 2.12083 8.61918 2.52702C6.08958 3.05406 4.09373 5.12819 3.65305 7.68724C3.28394 9.83064 3.99073 11.9975 5.54301 13.4848C6.36881 14.2749 6.87083 15.3322 7.00938 16.4453H9.41401V13.6931L7.20072 10.3731L6.07005 9.24241C5.84116 9.01353 5.84116 8.64274 6.07005 8.41386C6.29893 8.18498 6.66972 8.18498 6.8986 8.41386L7.6562 9.17146L8.4138 8.41386C8.64268 8.18498 9.01347 8.18498 9.24235 8.41386L9.99995 9.17146L10.7575 8.41386C10.9864 8.18498 11.3572 8.18498 11.5861 8.41386L12.3437 9.17146L13.1013 8.41386C13.3302 8.18498 13.701 8.18498 13.9298 8.41386C14.1587 8.64274 14.1587 9.01353 13.9298 9.24241L12.7992 10.3731L10.5859 13.6931V16.4453H12.9569C13.0253 15.3926 13.525 14.3616 14.4174 13.5219C15.706 12.3084 16.4453 10.5974 16.4453 8.82814C16.4453 6.87913 15.5772 5.05555 14.0632 3.82478Z" fill="white"/>
<path d="M11.1718 9.65674L10.4142 10.4143C10.1854 10.6432 9.81458 10.6432 9.58569 10.4143L8.82809 9.65674L8.41016 10.0747L9.99997 12.4595L11.5898 10.0747L11.1718 9.65674Z" fill="white"/>
<path d="M7.07031 18.2422C7.07031 19.2114 7.85889 20 8.82812 20H11.1719C12.1411 20 12.9297 19.2114 12.9297 18.2422V17.6172H7.07031V18.2422Z" fill="white"/>
</svg>
