<svg width="36" height="36" viewBox="0 0 36 36" fill="none" xmlns="http://www.w3.org/2000/svg">
<g clip-path="url(#clip0)">
<path d="M35.9 22.4698C35.8025 22.1168 35.6384 21.7895 35.4119 21.4967C34.5256 20.3532 32.8818 20.0747 31.6696 20.8623L24.2906 25.6523C23.6406 26.074 22.8628 26.2334 22.1 26.1008L16.0931 25.0549L19.0834 23.2622C19.1858 23.4515 19.314 23.6273 19.4674 23.7807C19.8904 24.2029 20.4523 24.4353 21.0493 24.4353C22.2827 24.4353 23.2861 23.4319 23.2861 22.1985V13.1585C23.7894 12.2865 24.712 11.7489 25.7248 11.7489C26.7784 11.7489 27.7358 12.33 28.2234 13.2654C28.3153 13.4417 28.4977 13.5523 28.6965 13.5523H28.6967C28.8956 13.5522 29.0779 13.4415 29.1698 13.2651C29.6567 12.3298 30.614 11.7488 31.6682 11.7488C32.7217 11.7488 33.6791 12.3299 34.1667 13.2653C34.2803 13.4832 34.5274 13.5954 34.7669 13.5369C35.0056 13.4784 35.1735 13.2644 35.1735 13.0186C35.1735 9.83131 33.968 6.80107 31.7791 4.48611C31.5766 4.2719 31.2388 4.26258 31.0249 4.46498C30.8107 4.66746 30.8012 5.00518 31.0037 5.21932C32.6431 6.95318 33.679 9.1262 33.9997 11.4573C33.34 10.9617 32.5272 10.6816 31.6682 10.6816C30.7424 10.6816 29.8716 11.0073 29.1873 11.5764C29.0276 8.86347 28.4187 6.34653 27.4326 4.3742C26.9735 3.45609 26.4512 2.69371 25.8823 2.09986C27.1656 2.46647 28.3782 3.06088 29.4758 3.86879C29.713 4.04345 30.0471 3.99265 30.2218 3.75539C30.3965 3.51805 30.3457 3.18403 30.1084 3.00937C27.9672 1.43317 25.4265 0.599364 22.7603 0.597799C22.7578 0.597799 22.7552 0.597656 22.7527 0.597656C22.7494 0.597656 22.7461 0.59787 22.7428 0.59787C15.8983 0.603206 10.3315 6.17308 10.3315 13.0188C10.3315 13.2646 10.4994 13.4785 10.7381 13.5371C10.7805 13.5475 10.8231 13.5524 10.8652 13.5524C11.0605 13.5524 11.2447 13.4447 11.3382 13.2654C11.8258 12.33 12.7834 11.7489 13.8374 11.7489C14.8912 11.7489 15.8483 12.33 16.3351 13.2652C16.427 13.4417 16.6094 13.5524 16.8083 13.5524H16.8084C17.0073 13.5524 17.1896 13.4418 17.2816 13.2655C17.7692 12.3301 18.7268 11.749 19.7808 11.749C20.7933 11.749 21.7157 12.2866 22.219 13.1587V22.1987C22.219 22.8436 21.6943 23.3683 21.0494 23.3683C20.7369 23.3683 20.4427 23.2465 20.2215 23.0258C20.101 22.9053 20.0094 22.7593 19.9513 22.6011C20.8494 21.6424 21.0706 20.19 20.4127 18.9774C19.7165 17.6945 18.2479 17.0677 16.8427 17.4528C16.6556 17.5037 16.471 17.5733 16.2939 17.6597L8.26423 21.5818C8.13467 21.6444 8.00732 21.7167 7.88745 21.7952C6.95041 22.4035 6.36674 23.4213 6.29994 24.5226L5.64932 24.7028C5.58102 24.5356 5.51301 24.3683 5.44372 24.2015C5.35187 23.9805 5.12435 23.8476 4.88644 23.8766C3.22943 24.0785 1.67002 24.6296 0.251262 25.5144C0.0481451 25.6411 -0.0457651 25.8876 0.0216084 26.1173C0.910839 29.1494 1.97601 32.1635 3.18766 35.0758C3.27119 35.2766 3.46683 35.4045 3.68005 35.4045C3.70147 35.4045 3.72317 35.4031 3.74487 35.4005C5.40373 35.1983 6.96307 34.6472 8.37955 33.7625C8.58245 33.6358 8.67615 33.3895 8.60899 33.16C8.57996 33.0609 8.54937 32.9618 8.51999 32.8628L10.4509 32.1485L22.6907 33.6383C22.8552 33.6583 23.0199 33.6682 23.1845 33.6682C24.1184 33.6682 25.0401 33.3491 25.7722 32.7614L34.9318 25.4139C34.9379 25.4095 34.9438 25.4049 34.9497 25.4001C35.8227 24.6997 36.1957 23.5499 35.9 22.4698ZM28.1139 11.5023C27.4441 10.9792 26.6094 10.6817 25.725 10.6817C24.8183 10.6817 23.9642 10.9946 23.2862 11.5423V1.72223C24.4669 1.97536 25.5845 3.06394 26.4783 4.85158C27.385 6.66497 27.9513 8.98555 28.1139 11.5023ZM13.8376 10.6817C12.9783 10.6817 12.1656 10.9617 11.5058 11.4572C12.1241 6.98078 15.3621 3.32966 19.6174 2.10541C19.0505 2.69847 18.5301 3.45907 18.0725 4.37434C17.0863 6.34667 16.4775 8.86361 16.3177 11.5765C15.6336 11.0075 14.763 10.6817 13.8376 10.6817ZM19.7809 10.6817C18.8963 10.6817 18.0613 10.9792 17.3914 11.5024C17.554 8.98562 18.1203 6.66497 19.0271 4.85158C19.9208 3.06394 21.0384 1.97543 22.2191 1.72223V11.5423C21.5411 10.9946 20.6873 10.6817 19.7809 10.6817ZM34.297 24.5554C34.2917 24.5594 34.2865 24.5634 34.2812 24.5675L25.1043 31.929C24.466 32.4413 23.6334 32.678 22.82 32.5787L10.4516 31.0733C10.367 31.0629 10.2817 31.073 10.202 31.1026L8.20944 31.8396C7.9302 30.9398 7.63716 30.0424 7.33124 29.1595C7.23477 28.881 6.93091 28.7335 6.65238 28.83C6.37393 28.9265 6.22644 29.2304 6.32292 29.5089C6.72794 30.6779 7.11254 31.872 7.46805 33.0643C6.39498 33.6784 5.23697 34.0877 4.0155 34.2845C2.93596 31.6536 1.97757 28.9418 1.16276 26.2125C2.23732 25.5982 3.39555 25.1889 4.61567 24.9923C4.6898 25.173 4.76294 25.354 4.83572 25.535C4.83679 25.5377 4.83792 25.5405 4.83906 25.5433C5.10457 26.2035 5.36098 26.8635 5.60436 27.5148C5.70752 27.7909 6.015 27.931 6.29097 27.8278C6.56701 27.7246 6.70716 27.4172 6.60401 27.1412C6.42565 26.6639 6.24046 26.1822 6.04994 25.699L6.97588 25.4425C7.21947 25.375 7.38225 25.1459 7.36589 24.8936C7.30855 24.0132 7.73107 23.1688 8.4704 22.6889C8.55378 22.6342 8.64086 22.5849 8.73093 22.5413L16.7622 18.6185C16.879 18.5615 17.0004 18.5157 17.1239 18.4821C18.0495 18.2284 19.0163 18.6413 19.4749 19.4861C20.0024 20.4583 19.6723 21.6652 18.7233 22.2338L14.3145 24.8768C14.1234 24.9914 14.0236 25.2128 14.0643 25.432C14.1051 25.6512 14.2778 25.8219 14.4974 25.8602L21.9172 27.1521C22.946 27.3308 23.995 27.1162 24.8716 26.5475L32.251 21.7572C33.0141 21.2613 34.0104 21.4303 34.5681 22.15C34.7089 22.332 34.811 22.5352 34.8711 22.7527C35.0523 23.415 34.8271 24.1204 34.297 24.5554Z" fill="black"/>
<path d="M15.9367 21.9525C16.1955 22.339 16.6195 22.5511 17.0565 22.5511C17.2732 22.5511 17.4933 22.4989 17.6978 22.3898L18.3593 22.037C18.6192 21.8984 18.7176 21.5752 18.579 21.3151C18.4404 21.0552 18.1172 20.9566 17.8571 21.0954L17.1957 21.4482C17.0666 21.517 16.9031 21.4778 16.8234 21.3588C16.3822 20.6999 16.2427 20.0277 16.2391 20.0099C16.183 19.7212 15.9036 19.5324 15.6148 19.5878C15.3254 19.6433 15.1358 19.9229 15.1913 20.2123C15.1981 20.2482 15.3664 21.101 15.9367 21.9525Z" fill="black"/>
<path d="M4.88082 31.8969C4.68474 32.0354 4.6067 32.2993 4.69321 32.5227C4.77211 32.7265 4.97217 32.8643 5.19094 32.8643C5.43859 32.8643 5.65565 32.6883 5.71093 32.448C5.81907 31.9778 5.26969 31.622 4.88082 31.8969Z" fill="black"/>
</g>
<defs>
<clipPath id="clip0">
<rect width="36" height="36" fill="white"/>
</clipPath>
</defs>
</svg>
