<svg width="42" height="42" viewBox="0 0 42 42" fill="none" xmlns="http://www.w3.org/2000/svg">
<path d="M32.1986 19.6967V2.10005C32.1986 0.940118 31.2584 0 30.0985 0H2.09972C0.940118 0 0 0.940118 0 2.10005V27.299C0 28.4586 0.940118 29.3987 2.09972 29.3987H19.6963C19.1276 33.892 21.3222 38.2853 25.2563 40.5292C29.1904 42.7731 34.0887 42.4258 37.6669 39.649C41.245 36.8722 42.7975 32.2133 41.6004 27.8453C40.4033 23.4773 36.6921 20.2609 32.1986 19.6967ZM2.09972 1.39992H30.0985C30.4853 1.39992 30.7986 1.7133 30.7986 2.10005V5.5997H1.39992V2.10005C1.39992 1.7133 1.7133 1.39992 2.09972 1.39992ZM1.39992 27.299V6.99962H12.5993V27.9988H2.09972C1.7133 27.9988 1.39992 27.6854 1.39992 27.299ZM13.9992 27.9988V6.99962H30.7986V19.5993C25.6978 19.6089 21.2465 23.0608 19.968 27.9988H13.9992ZM30.7986 40.5984C26.835 40.5984 23.2617 38.211 21.7451 34.5489C20.2282 30.8871 21.0665 26.6723 23.8692 23.8695C26.6719 21.0668 30.8871 20.2282 34.5488 21.7451C38.2106 23.262 40.5981 26.8353 40.5981 30.7986C40.5923 36.2086 36.2083 40.5927 30.7986 40.5984Z" fill="white"/>
<path d="M30.798 22.3984C26.1589 22.3984 22.3984 26.1592 22.3984 30.798C22.3984 35.4371 26.1589 39.1978 30.798 39.1978C35.4371 39.1978 39.1975 35.4371 39.1975 30.798C39.1927 26.1612 35.4348 22.4036 30.798 22.3984ZM30.798 37.7979C26.9321 37.7979 23.7984 34.6639 23.7984 30.798C23.7984 26.9324 26.9321 23.7984 30.798 23.7984C34.6639 23.7984 37.7976 26.9324 37.7976 30.798C37.7934 34.6623 34.662 37.7938 30.798 37.7979Z" fill="white"/>
<path d="M3.49915 4.20076H4.1993C4.58574 4.20076 4.89912 3.88737 4.89912 3.50093C4.89912 3.11417 4.58574 2.80078 4.1993 2.80078H3.49915C3.1127 2.80078 2.79932 3.11417 2.79932 3.50093C2.79932 3.88737 3.1127 4.20076 3.49915 4.20076Z" fill="white"/>
<path d="M6.99947 4.20076H7.6993C8.08606 4.20076 8.39944 3.88737 8.39944 3.50093C8.39944 3.11417 8.08606 2.80078 7.6993 2.80078H6.99947C6.6127 2.80078 6.29932 3.11417 6.29932 3.50093C6.29932 3.88737 6.6127 4.20076 6.99947 4.20076Z" fill="white"/>
<path d="M10.499 4.20076H11.1988C11.5856 4.20076 11.899 3.88737 11.899 3.50093C11.899 3.11417 11.5856 2.80078 11.1988 2.80078H10.499C10.1122 2.80078 9.79883 3.11417 9.79883 3.50093C9.79883 3.88737 10.1122 4.20076 10.499 4.20076Z" fill="white"/>
<path d="M4.1993 9.79883H3.49915C3.1127 9.79883 2.79932 10.1125 2.79932 10.499C2.79932 10.8854 3.1127 11.1991 3.49915 11.1991H4.1993C4.58574 11.1991 4.89912 10.8854 4.89912 10.499C4.89912 10.1125 4.58574 9.79883 4.1993 9.79883Z" fill="white"/>
<path d="M6.99944 11.1991H10.4994C10.8858 11.1991 11.1992 10.8854 11.1992 10.499C11.1992 10.1125 10.8858 9.79883 10.4994 9.79883H6.99944C6.61269 9.79883 6.29932 10.1125 6.29932 10.499C6.29932 10.8854 6.61269 11.1991 6.99944 11.1991Z" fill="white"/>
<path d="M4.1993 12.5996H3.49915C3.1127 12.5996 2.79932 12.913 2.79932 13.2994C2.79932 13.6862 3.1127 13.9996 3.49915 13.9996H4.1993C4.58574 13.9996 4.89912 13.6862 4.89912 13.2994C4.89912 12.913 4.58574 12.5996 4.1993 12.5996Z" fill="white"/>
<path d="M10.4994 12.5996H6.99944C6.61269 12.5996 6.29932 12.913 6.29932 13.2994C6.29932 13.6862 6.61269 13.9995 6.99944 13.9995H10.4994C10.8858 13.9995 11.1992 13.6862 11.1992 13.2994C11.1992 12.913 10.8858 12.5996 10.4994 12.5996Z" fill="white"/>
<path d="M4.1993 15.4004H3.49915C3.1127 15.4004 2.79932 15.7138 2.79932 16.1002C2.79932 16.487 3.1127 16.8004 3.49915 16.8004H4.1993C4.58574 16.8004 4.89912 16.487 4.89912 16.1002C4.89912 15.7138 4.58574 15.4004 4.1993 15.4004Z" fill="white"/>
<path d="M10.4994 15.4004H6.99944C6.61269 15.4004 6.29932 15.7138 6.29932 16.1002C6.29932 16.4869 6.61269 16.8003 6.99944 16.8003H10.4994C10.8858 16.8003 11.1992 16.4869 11.1992 16.1002C11.1992 15.7138 10.8858 15.4004 10.4994 15.4004Z" fill="white"/>
<path d="M4.1993 18.1992H3.49915C3.1127 18.1992 2.79932 18.5126 2.79932 18.899C2.79932 19.2858 3.1127 19.5992 3.49915 19.5992H4.1993C4.58574 19.5992 4.89912 19.2858 4.89912 18.899C4.89912 18.5126 4.58574 18.1992 4.1993 18.1992Z" fill="white"/>
<path d="M10.4994 18.1992H6.99944C6.61269 18.1992 6.29932 18.5126 6.29932 18.899C6.29932 19.2858 6.61269 19.5991 6.99944 19.5991H10.4994C10.8858 19.5991 11.1992 19.2858 11.1992 18.899C11.1992 18.5126 10.8858 18.1992 10.4994 18.1992Z" fill="white"/>
<path d="M4.1993 20.998H3.49915C3.1127 20.998 2.79932 21.3114 2.79932 21.6982C2.79932 22.0846 3.1127 22.398 3.49915 22.398H4.1993C4.58574 22.398 4.89912 22.0846 4.89912 21.6982C4.89912 21.3114 4.58574 20.998 4.1993 20.998Z" fill="white"/>
<path d="M10.4994 20.998H6.99944C6.61269 20.998 6.29932 21.3114 6.29932 21.6982C6.29932 22.0846 6.61269 22.398 6.99944 22.398H10.4994C10.8858 22.398 11.1992 22.0846 11.1992 21.6982C11.1992 21.3114 10.8858 20.998 10.4994 20.998Z" fill="white"/>
<path d="M4.1993 23.7988H3.49915C3.1127 23.7988 2.79932 24.1122 2.79932 24.499C2.79932 24.8854 3.1127 25.1988 3.49915 25.1988H4.1993C4.58574 25.1988 4.89912 24.8854 4.89912 24.499C4.89912 24.1122 4.58574 23.7988 4.1993 23.7988Z" fill="white"/>
<path d="M10.4994 23.7988H6.99944C6.61269 23.7988 6.29932 24.1122 6.29932 24.499C6.29932 24.8854 6.61269 25.1988 6.99944 25.1988H10.4994C10.8858 25.1988 11.1992 24.8854 11.1992 24.499C11.1992 24.1122 10.8858 23.7988 10.4994 23.7988Z" fill="white"/>
<path d="M19.3938 10.705C19.1205 10.4317 18.6777 10.4317 18.404 10.705L15.6042 13.5048C15.3312 13.7782 15.3312 14.2213 15.6042 14.4946L18.404 17.2945C18.6789 17.5598 19.1153 17.5559 19.3855 17.2861C19.6553 17.016 19.6591 16.5793 19.3938 16.3047L17.089 13.9999L19.3938 11.6948C19.6671 11.4215 19.6671 10.9783 19.3938 10.705Z" fill="white"/>
<path d="M25.4037 17.2938C25.677 17.5671 26.1202 17.5671 26.3935 17.2938L29.1934 14.4939C29.4667 14.2206 29.4667 13.7775 29.1934 13.5041L26.3935 10.7043C26.1189 10.439 25.6822 10.4428 25.4121 10.713C25.1423 10.9827 25.1384 11.4195 25.4037 11.6941L27.7085 13.9992L25.4037 16.304C25.1304 16.5773 25.1304 17.0205 25.4037 17.2938Z" fill="white"/>
<path d="M23.2679 10.521C22.893 10.4275 22.5133 10.655 22.4194 11.0299L21.0195 16.6296C20.9743 16.8096 21.0028 17.0003 21.0983 17.1595C21.1938 17.3188 21.3489 17.4335 21.529 17.4787C21.5844 17.4928 21.6414 17.4998 21.6985 17.4995C22.0192 17.4992 22.299 17.281 22.3768 16.9698L23.7767 11.3698C23.8706 10.9949 23.6428 10.6149 23.2679 10.521Z" fill="white"/>
<path d="M33.1032 28.2022L28.6981 32.6074L27.7932 31.7022C27.5186 31.4369 27.0819 31.4407 26.8121 31.7109C26.542 31.9806 26.5381 32.4174 26.8034 32.692L28.2033 34.0919C28.4767 34.3652 28.9198 34.3652 29.1931 34.0919L34.093 29.192C34.3583 28.9174 34.3545 28.481 34.0844 28.2109C33.8143 27.9408 33.3778 27.9372 33.1032 28.2022Z" fill="white"/>
</svg>
