<svg width="32" height="32" viewBox="0 0 32 32" fill="none" xmlns="http://www.w3.org/2000/svg">
<path d="M31.7529 28.4384L31.2964 27.9818C31.1133 27.7987 30.8165 27.7987 30.6335 27.9818C30.4504 28.1648 30.4504 28.4616 30.6334 28.6446L31.0236 29.0349L29.035 31.0236L25.6541 27.6427L27.6428 25.6541L29.2201 27.2313C29.4032 27.4143 29.6999 27.4143 29.883 27.2313C30.0661 27.0482 30.0661 26.7514 29.883 26.5684L27.9751 24.6606C27.9748 24.6602 27.9746 24.6599 27.9743 24.6596L26.6485 23.3338C26.6481 23.3334 26.6478 23.3332 26.6474 23.3328L25.4773 22.1628C25.3179 22.0033 25.1061 21.9155 24.8806 21.9155C24.6552 21.9155 24.4433 22.0033 24.284 22.1626L24.2177 22.229L22.5404 20.5513C23.7393 19.0534 24.6051 17.2783 25.0254 15.3389H28.3282C28.5871 15.3389 28.7969 15.1291 28.7969 14.8701C28.7969 14.6112 28.5871 14.4014 28.3282 14.4014H25.1916C25.2329 14.1032 25.2637 13.8019 25.2838 13.4976H30.5625C30.8214 13.4976 31.0312 13.2878 31.0312 13.0288C31.0312 12.7699 30.8214 12.5601 30.5625 12.5601H25.3115C25.3092 12.2568 25.2967 11.9554 25.2737 11.6562H28.3283C28.5872 11.6562 28.797 11.4464 28.797 11.1874C28.797 10.9285 28.5872 10.7187 28.3283 10.7187H25.1666C24.8391 8.56375 23.9633 6.548 22.5851 4.80688C22.4244 4.60394 22.1297 4.56969 21.9266 4.73025C21.7237 4.89094 21.6894 5.18575 21.85 5.38875C23.5019 7.47556 24.375 9.98862 24.375 12.6562C24.375 19.118 19.118 24.375 12.6562 24.375C6.1945 24.375 0.9375 19.118 0.9375 12.6562C0.9375 6.1945 6.1945 0.9375 12.6562 0.9375C15.5774 0.9375 18.3757 2.01863 20.5356 3.98169C20.7271 4.15594 21.0237 4.14169 21.1977 3.95012C21.3718 3.75856 21.3577 3.46206 21.1661 3.28794C18.8333 1.16769 15.8111 0 12.6562 0C5.67756 0 0 5.67756 0 12.6562C0 18.8176 4.42587 23.9638 10.2652 25.0849V28.2474C10.2652 28.5063 10.475 28.7161 10.7339 28.7161C10.9929 28.7161 11.2027 28.5063 11.2027 28.2474V25.2286C11.501 25.2628 11.8024 25.2868 12.1066 25.2999V30.4517C12.1066 30.7107 12.3164 30.9205 12.5753 30.9205C12.8343 30.9205 13.0441 30.7107 13.0441 30.4517V25.306C13.3481 25.2968 13.6496 25.2774 13.9479 25.2471V28.2474C13.9479 28.5063 14.1578 28.7161 14.4167 28.7161C14.6756 28.7161 14.8854 28.5063 14.8854 28.2474V25.1159C17.0019 24.7383 18.9373 23.8323 20.5513 22.5404L22.2291 24.2178L22.1628 24.284C22.0034 24.4434 21.9156 24.6553 21.9156 24.8807C21.9156 25.1061 22.0034 25.318 22.1627 25.4773L23.3332 26.6478C23.3334 26.648 23.3336 26.6483 23.3339 26.6485L24.6597 27.9743C24.6599 27.9746 24.6603 27.9748 24.6606 27.9751L28.4382 31.7528C28.5976 31.9123 28.8095 32 29.0349 32C29.2604 32 29.4722 31.9122 29.6316 31.7529L31.7529 29.6316C31.9122 29.4722 32 29.2604 32 29.0349C32 28.8095 31.9122 28.5976 31.7529 28.4384ZM21.9263 21.263L23.5547 22.8918L22.8918 23.5546L21.2631 21.9263C21.4922 21.7134 21.7134 21.4922 21.9263 21.263ZM24.9912 26.9799L24.3283 26.317L26.3169 24.3283L26.9798 24.9912L24.9912 26.9799ZM24.8807 22.8919L25.6541 23.6653L23.6654 25.654L22.892 24.8806L24.8807 22.8919Z" fill="white"/>
<path d="M6.1291 21.237C8.00654 22.6482 10.2619 23.4091 12.6568 23.4375C18.6017 23.4375 23.4381 18.6011 23.4381 12.6562C23.4381 6.71144 18.6017 1.875 12.6568 1.875C9.78791 1.875 7.08947 2.99794 5.05879 5.03694C3.03666 7.06725 1.90622 9.77144 1.8756 12.6512C1.84747 15.3024 2.81079 17.8507 4.58804 19.8266C4.76116 20.019 5.05754 20.0347 5.25004 19.8616C5.44254 19.6885 5.45822 19.3921 5.2851 19.1996C3.66535 17.3989 2.78741 15.0768 2.8131 12.6613C2.84104 10.0273 3.87447 7.55456 5.72304 5.69856C7.57654 3.83744 10.039 2.8125 12.6568 2.8125C18.0847 2.8125 22.5006 7.22837 22.5006 12.6562C22.5006 18.0841 18.0847 22.5 12.6624 22.5001C10.4737 22.4741 8.40935 21.7781 6.69235 20.4876C6.48554 20.3319 6.19154 20.3737 6.03604 20.5807C5.88041 20.7876 5.9221 21.0815 6.1291 21.237Z" fill="white"/>
<path d="M14.4379 4.28125H11.1879C10.7916 4.28125 10.4692 4.60369 10.4692 5V6.65625H7.43792C7.04161 6.65625 6.71917 6.97869 6.71917 7.375V12.4062H6.0918C5.83286 12.4062 5.62305 12.6161 5.62305 12.875C5.62305 13.1339 5.83286 13.3438 6.0918 13.3438H19.534C19.793 13.3438 20.0028 13.1339 20.0028 12.875C20.0028 12.6161 19.793 12.4062 19.534 12.4062H18.9067V9.75C18.9067 9.35369 18.5842 9.03125 18.1879 9.03125H15.1567V5C15.1567 4.60369 14.8342 4.28125 14.4379 4.28125ZM7.65667 7.59375H10.4692V12.4062H7.65667V7.59375ZM11.4067 5.21875H14.2192V12.4062H11.4067V5.21875ZM17.9692 9.96875V12.4062H15.1567V9.96875H17.9692Z" fill="white"/>
<path d="M18.0625 17.3158H15.8557L14.8532 14.7531C14.7823 14.572 14.6087 14.4548 14.4125 14.4551C14.218 14.4568 14.0447 14.5785 13.9771 14.7609L12.6071 18.4552L11.6496 15.7413C11.5884 15.5675 11.431 15.4458 11.2474 15.4301C11.064 15.4143 10.8881 15.5079 10.7982 15.6686L9.87873 17.3157H7.67773C7.4188 17.3157 7.20898 17.5255 7.20898 17.7845C7.20898 18.0434 7.4188 18.2532 7.67773 18.2532H10.1539C10.3237 18.2532 10.4804 18.1613 10.5632 18.013L11.1109 17.032L12.154 19.9889C12.2197 20.1751 12.3949 20.3001 12.5924 20.3017H12.5962C12.792 20.3017 12.9674 20.1798 13.0356 19.9959L14.4283 16.2404L15.0991 17.9553C15.1694 18.135 15.3426 18.2533 15.5356 18.2533H18.0625C18.3214 18.2533 18.5312 18.0435 18.5312 17.7845C18.5312 17.5256 18.3214 17.3158 18.0625 17.3158Z" fill="white"/>
</svg>
