<svg width="38" height="38" viewBox="0 0 38 38" fill="none" xmlns="http://www.w3.org/2000/svg">
<path d="M20.875 10.25C22.6977 10.2522 24.4451 10.9772 25.734 12.266C27.0228 13.5549 27.7478 15.3023 27.75 17.125C27.75 17.2908 27.8158 17.4497 27.9331 17.5669C28.0503 17.6842 28.2092 17.75 28.375 17.75C28.5408 17.75 28.6997 17.6842 28.8169 17.5669C28.9342 17.4497 29 17.2908 29 17.125C28.9975 14.9709 28.1407 12.9057 26.6175 11.3825C25.0943 9.8593 23.0291 9.00248 20.875 9C20.7092 9 20.5503 9.06585 20.4331 9.18306C20.3158 9.30027 20.25 9.45924 20.25 9.625C20.25 9.79076 20.3158 9.94973 20.4331 10.0669C20.5503 10.1842 20.7092 10.25 20.875 10.25Z" fill="black"/>
<path d="M24 17.125C23.999 16.2965 23.6694 15.5022 23.0836 14.9164C22.4978 14.3306 21.7035 14.001 20.875 14C20.7092 14 20.5503 14.0658 20.4331 14.1831C20.3158 14.3003 20.25 14.4592 20.25 14.625C20.25 14.7908 20.3158 14.9497 20.4331 15.0669C20.5503 15.1842 20.7092 15.25 20.875 15.25C21.3723 15.25 21.8492 15.4475 22.2008 15.7992C22.5525 16.1508 22.75 16.6277 22.75 17.125C22.75 17.2908 22.8158 17.4497 22.9331 17.5669C23.0503 17.6842 23.2092 17.75 23.375 17.75C23.5408 17.75 23.6997 17.6842 23.8169 17.5669C23.9342 17.4497 24 17.2908 24 17.125Z" fill="black"/>
<path d="M20.875 12.75C22.0349 12.7513 23.1469 13.2127 23.9671 14.0329C24.7873 14.8531 25.2487 15.9651 25.25 17.125C25.25 17.2908 25.3158 17.4497 25.4331 17.5669C25.5503 17.6842 25.7092 17.75 25.875 17.75C26.0408 17.75 26.1997 17.6842 26.3169 17.5669C26.4342 17.4497 26.5 17.2908 26.5 17.125C26.4983 15.6337 25.9052 14.2039 24.8506 13.1494C23.7961 12.0948 22.3663 11.5017 20.875 11.5C20.7092 11.5 20.5503 11.5658 20.4331 11.6831C20.3158 11.8003 20.25 11.9592 20.25 12.125C20.25 12.2908 20.3158 12.4497 20.4331 12.5669C20.5503 12.6842 20.7092 12.75 20.875 12.75Z" fill="black"/>
<path d="M34.625 0.25H15.875C15.0462 0.25 14.2513 0.57924 13.6653 1.16529C13.0792 1.75134 12.75 2.5462 12.75 3.375V19.625H4.625C3.46508 19.6263 2.35305 20.0877 1.53287 20.9079C0.712685 21.7281 0.251323 22.8401 0.25 24V24.0562L1.2875 34.9187C1.3583 35.6944 1.71717 36.4154 2.29333 36.9395C2.8695 37.4636 3.62113 37.7528 4.4 37.75H5.8375C6.33469 37.7495 6.82463 37.6308 7.26691 37.4037C7.70919 37.1765 8.09114 36.8475 8.38125 36.4437L10.0125 34.1625C10.1853 33.919 10.414 33.7204 10.6793 33.5834C10.9446 33.4464 11.2389 33.3749 11.5375 33.375H12.75V34.625C12.75 35.4538 13.0792 36.2487 13.6653 36.8347C14.2513 37.4208 15.0462 37.75 15.875 37.75H34.625C35.4538 37.75 36.2487 37.4208 36.8347 36.8347C37.4208 36.2487 37.75 35.4538 37.75 34.625V3.375C37.75 2.5462 37.4208 1.75134 36.8347 1.16529C36.2487 0.57924 35.4538 0.25 34.625 0.25ZM15.875 36.5C15.3782 36.4985 14.9021 36.3005 14.5508 35.9492C14.1995 35.5979 14.0015 35.1218 14 34.625V33.375H14.625V34C14.6265 34.4968 14.8245 34.9729 15.1758 35.3242C15.5271 35.6755 16.0032 35.8735 16.5 35.875H19.2125L19.6188 36.4437C19.6336 36.464 19.6504 36.4828 19.6688 36.5H15.875ZM15.875 34V33.375H16.4625C16.7611 33.3749 17.0554 33.4464 17.3207 33.5834C17.586 33.7204 17.8147 33.919 17.9875 34.1625L18.3188 34.625H16.5C16.3342 34.625 16.1753 34.5592 16.0581 34.4419C15.9408 34.3247 15.875 34.1658 15.875 34ZM23.6 36.5H22.1625C21.8639 36.5001 21.5696 36.4286 21.3043 36.2916C21.039 36.1546 20.8103 35.956 20.6375 35.7125L19.0062 33.4312C18.7161 33.0275 18.3342 32.6985 17.8919 32.4713C17.4496 32.2442 16.9597 32.1255 16.4625 32.125H11.5375C11.0403 32.1255 10.5504 32.2442 10.1081 32.4713C9.66581 32.6985 9.28386 33.0275 8.99375 33.4312L7.3625 35.7125C7.18968 35.956 6.96104 36.1546 6.69572 36.2916C6.4304 36.4286 6.13611 36.5001 5.8375 36.5H4.4C3.93236 36.5016 3.48108 36.328 3.13515 36.0133C2.78922 35.6986 2.57376 35.2657 2.53125 34.8L1.5 23.9687C1.50823 23.1454 1.84111 22.3585 2.42627 21.7792C3.01143 21.1999 3.80158 20.875 4.625 20.875H23.375C24.1949 20.8723 24.9829 21.1929 25.5679 21.7674C26.1529 22.3419 26.4878 23.1239 26.5 23.9437L25.4688 34.8C25.4262 35.2657 25.2108 35.6986 24.8649 36.0133C24.5189 36.328 24.0676 36.5016 23.6 36.5ZM23.375 19.625H15.875V4C15.875 3.83424 15.9408 3.67527 16.0581 3.55806C16.1753 3.44085 16.3342 3.375 16.5 3.375H20.8312C20.9329 3.37409 21.0331 3.39881 21.1227 3.44687C21.2123 3.49494 21.2883 3.5648 21.3438 3.65L21.8687 4.425C22.0392 4.67947 22.2699 4.88792 22.5403 5.03184C22.8107 5.17576 23.1124 5.2507 23.4188 5.25H27.075C27.3837 5.2508 27.6879 5.17534 27.9605 5.03033C28.2331 4.88532 28.4656 4.67524 28.6375 4.41875L29.15 3.65C29.209 3.56542 29.2876 3.49628 29.3789 3.44842C29.4703 3.40056 29.5719 3.37538 29.675 3.375H34C34.1658 3.375 34.3247 3.44085 34.4419 3.55806C34.5592 3.67527 34.625 3.83424 34.625 4V34C34.625 34.1658 34.5592 34.3247 34.4419 34.4419C34.3247 34.5592 34.1658 34.625 34 34.625H26.7375L27.75 24C27.7487 22.8401 27.2873 21.7281 26.4671 20.9079C25.6469 20.0877 24.5349 19.6263 23.375 19.625ZM36.5 34.625C36.4985 35.1218 36.3005 35.5979 35.9492 35.9492C35.5979 36.3005 35.1218 36.4985 34.625 36.5H26.1062C26.2459 36.3054 26.3633 36.0957 26.4562 35.875H34C34.4968 35.8735 34.9729 35.6755 35.3242 35.3242C35.6755 34.9729 35.8735 34.4968 35.875 34V4C35.8735 3.50318 35.6755 3.02712 35.3242 2.67581C34.9729 2.3245 34.4968 2.12648 34 2.125H29.675C29.3663 2.1242 29.0621 2.19965 28.7895 2.34467C28.5169 2.48968 28.2844 2.69976 28.1125 2.95625L27.6 3.725C27.541 3.80958 27.4624 3.87872 27.3711 3.92658C27.2797 3.97444 27.1781 3.99962 27.075 4H23.4188C23.3171 4.00091 23.2169 3.97619 23.1273 3.92813C23.0377 3.88006 22.9617 3.8102 22.9062 3.725L22.3813 2.95C22.2108 2.69553 21.9801 2.48708 21.7097 2.34316C21.4393 2.19924 21.1376 2.1243 20.8312 2.125H16.5C16.0032 2.12648 15.5271 2.3245 15.1758 2.67581C14.8245 3.02712 14.6265 3.50318 14.625 4V19.625H14V3.375C14.0015 2.87818 14.1995 2.40212 14.5508 2.05081C14.9021 1.6995 15.3782 1.50148 15.875 1.5H34.625C35.1218 1.50148 35.5979 1.6995 35.9492 2.05081C36.3005 2.40212 36.4985 2.87818 36.5 3.375V34.625Z" fill="black"/>
<path d="M25.875 2.125H24.625C24.4592 2.125 24.3003 2.19085 24.1831 2.30806C24.0658 2.42527 24 2.58424 24 2.75C24 2.91576 24.0658 3.07473 24.1831 3.19194C24.3003 3.30915 24.4592 3.375 24.625 3.375H25.875C26.0408 3.375 26.1997 3.30915 26.3169 3.19194C26.4342 3.07473 26.5 2.91576 26.5 2.75C26.5 2.58424 26.4342 2.42527 26.3169 2.30806C26.1997 2.19085 26.0408 2.125 25.875 2.125Z" fill="black"/>
<path d="M10.875 25.25H9V23.375C9 23.2092 8.93415 23.0503 8.81694 22.9331C8.69973 22.8158 8.54076 22.75 8.375 22.75H5.875C5.70924 22.75 5.55027 22.8158 5.43306 22.9331C5.31585 23.0503 5.25 23.2092 5.25 23.375V25.25H3.375C3.20924 25.25 3.05027 25.3158 2.93306 25.4331C2.81585 25.5503 2.75 25.7092 2.75 25.875V28.375C2.75 28.5408 2.81585 28.6997 2.93306 28.8169C3.05027 28.9342 3.20924 29 3.375 29H5.25V30.875C5.25 31.0408 5.31585 31.1997 5.43306 31.3169C5.55027 31.4342 5.70924 31.5 5.875 31.5H8.375C8.54076 31.5 8.69973 31.4342 8.81694 31.3169C8.93415 31.1997 9 31.0408 9 30.875V29H10.875C11.0408 29 11.1997 28.9342 11.3169 28.8169C11.4342 28.6997 11.5 28.5408 11.5 28.375V25.875C11.5 25.7092 11.4342 25.5503 11.3169 25.4331C11.1997 25.3158 11.0408 25.25 10.875 25.25ZM6.5 24H7.75V25.25H6.5V24ZM7.75 26.5V27.75H6.5V26.5H7.75ZM4 26.5H5.25V27.75H4V26.5ZM7.75 30.25H6.5V29H7.75V30.25ZM10.25 27.75H9V26.5H10.25V27.75Z" fill="black"/>
<path d="M25.25 24.625C25.25 24.2542 25.14 23.8917 24.934 23.5833C24.728 23.275 24.4351 23.0346 24.0925 22.8927C23.7499 22.7508 23.3729 22.7137 23.0092 22.786C22.6455 22.8584 22.3114 23.037 22.0492 23.2992C21.787 23.5614 21.6084 23.8955 21.536 24.2592C21.4637 24.6229 21.5008 24.9999 21.6427 25.3425C21.7846 25.6851 22.025 25.978 22.3333 26.184C22.6417 26.39 23.0042 26.5 23.375 26.5C23.8723 26.5 24.3492 26.3025 24.7008 25.9508C25.0525 25.5992 25.25 25.1223 25.25 24.625ZM23.375 25.25C23.2514 25.25 23.1306 25.2133 23.0278 25.1447C22.925 25.076 22.8449 24.9784 22.7976 24.8642C22.7503 24.75 22.7379 24.6243 22.762 24.5031C22.7861 24.3818 22.8457 24.2705 22.9331 24.1831C23.0205 24.0957 23.1318 24.0361 23.2531 24.012C23.3743 23.9879 23.5 24.0003 23.6142 24.0476C23.7284 24.0949 23.826 24.175 23.8947 24.2778C23.9633 24.3806 24 24.5014 24 24.625C24 24.7908 23.9342 24.9497 23.8169 25.0669C23.6997 25.1842 23.5408 25.25 23.375 25.25Z" fill="black"/>
<path d="M21.5 27.125C21.1292 27.125 20.7667 27.235 20.4583 27.441C20.15 27.647 19.9096 27.9399 19.7677 28.2825C19.6258 28.6251 19.5887 29.0021 19.661 29.3658C19.7334 29.7295 19.912 30.0636 20.1742 30.3258C20.4364 30.5881 20.7705 30.7666 21.1342 30.839C21.4979 30.9113 21.8749 30.8742 22.2175 30.7323C22.5601 30.5904 22.853 30.35 23.059 30.0417C23.265 29.7334 23.375 29.3708 23.375 29C23.375 28.5027 23.1775 28.0258 22.8258 27.6742C22.4742 27.3225 21.9973 27.125 21.5 27.125ZM21.5 29.625C21.3764 29.625 21.2556 29.5883 21.1528 29.5197C21.05 29.451 20.9699 29.3534 20.9226 29.2392C20.8753 29.125 20.8629 28.9993 20.887 28.8781C20.9111 28.7568 20.9707 28.6455 21.0581 28.5581C21.1455 28.4707 21.2568 28.4111 21.3781 28.387C21.4993 28.3629 21.625 28.3753 21.7392 28.4226C21.8534 28.4699 21.951 28.55 22.0197 28.6528C22.0884 28.7556 22.125 28.8764 22.125 29C22.125 29.1658 22.0592 29.3247 21.9419 29.4419C21.8247 29.5592 21.6658 29.625 21.5 29.625Z" fill="black"/>
<path d="M17.125 27.125C16.7542 27.125 16.3917 27.235 16.0833 27.441C15.775 27.647 15.5346 27.9399 15.3927 28.2825C15.2508 28.6251 15.2137 29.0021 15.286 29.3658C15.3584 29.7295 15.537 30.0636 15.7992 30.3258C16.0614 30.5881 16.3955 30.7666 16.7592 30.839C17.1229 30.9113 17.4999 30.8742 17.8425 30.7323C18.1852 30.5904 18.478 30.35 18.684 30.0417C18.89 29.7334 19 29.3708 19 29C19 28.5027 18.8025 28.0258 18.4508 27.6742C18.0992 27.3225 17.6223 27.125 17.125 27.125ZM17.125 29.625C17.0014 29.625 16.8806 29.5883 16.7778 29.5197C16.675 29.451 16.5949 29.3534 16.5476 29.2392C16.5003 29.125 16.4879 28.9993 16.512 28.8781C16.5361 28.7568 16.5957 28.6455 16.6831 28.5581C16.7705 28.4707 16.8818 28.4111 17.0031 28.387C17.1243 28.3629 17.25 28.3753 17.3642 28.4226C17.4784 28.4699 17.576 28.55 17.6447 28.6528C17.7134 28.7556 17.75 28.8764 17.75 29C17.75 29.1658 17.6842 29.3247 17.5669 29.4419C17.4497 29.5592 17.2908 29.625 17.125 29.625Z" fill="black"/>
<path d="M20.875 24.625C20.875 24.2542 20.765 23.8917 20.559 23.5833C20.353 23.275 20.0601 23.0346 19.7175 22.8927C19.3749 22.7508 18.9979 22.7137 18.6342 22.786C18.2705 22.8584 17.9364 23.037 17.6742 23.2992C17.412 23.5614 17.2334 23.8955 17.161 24.2592C17.0887 24.6229 17.1258 24.9999 17.2677 25.3425C17.4096 25.6851 17.65 25.978 17.9583 26.184C18.2667 26.39 18.6292 26.5 19 26.5C19.4973 26.5 19.9742 26.3025 20.3258 25.9508C20.6775 25.5992 20.875 25.1223 20.875 24.625ZM19 25.25C18.8764 25.25 18.7556 25.2133 18.6528 25.1447C18.55 25.076 18.4699 24.9784 18.4226 24.8642C18.3753 24.75 18.3629 24.6243 18.387 24.5031C18.4111 24.3818 18.4707 24.2705 18.5581 24.1831C18.6455 24.0957 18.7568 24.0361 18.8781 24.012C18.9993 23.9879 19.125 24.0003 19.2392 24.0476C19.3534 24.0949 19.451 24.175 19.5197 24.2778C19.5884 24.3806 19.625 24.5014 19.625 24.625C19.625 24.7908 19.5592 24.9497 19.4419 25.0669C19.3247 25.1842 19.1658 25.25 19 25.25Z" fill="black"/>
</svg>
