<svg width="26" height="26" viewBox="0 0 26 26" fill="none" xmlns="http://www.w3.org/2000/svg">
<path d="M23.5506 2.45027C20.2836 -0.816791 14.9679 -0.81674 11.7009 2.45032C9.46929 4.6819 8.69417 7.97055 9.66043 10.9542L0.22416 20.3905C0.0813125 20.5334 0.000976562 20.7267 0.000976562 20.9291V25.2383C0.000976562 25.6593 0.341668 26 0.762695 26H5.07189C5.2742 26 5.46763 25.9197 5.61043 25.7768L6.68755 24.699C6.85193 24.5346 6.93226 24.304 6.9055 24.0726L6.77159 22.9152L8.37536 22.7641C8.73987 22.7299 9.02775 22.442 9.06198 22.0775L9.213 20.4738L10.3705 20.6084C10.5854 20.6374 10.8019 20.5652 10.9648 20.4209C11.1269 20.2759 11.2199 20.0691 11.2199 19.8519V18.4336H12.6124C12.8148 18.4336 13.0082 18.3533 13.151 18.2104L15.1044 16.2829C18.0873 17.2499 21.319 16.5332 23.5506 14.3001C26.8177 11.0331 26.8177 5.71733 23.5506 2.45027ZM21.3957 7.83664C20.5046 8.7278 19.0555 8.7278 18.1644 7.83664C17.2732 6.94548 17.2732 5.49644 18.1644 4.60528C19.0555 3.71412 20.5046 3.71412 21.3957 4.60528C22.2869 5.49644 22.2868 6.94548 21.3957 7.83664Z" fill="#6946C6"/>
</svg>
