<svg width="32" height="32" viewBox="0 0 32 32" fill="none" xmlns="http://www.w3.org/2000/svg">
<path d="M19.7373 27.7V28.6261C19.7373 29.3631 19.1959 29.9762 18.4915 30.0806L18.2632 30.922C18.1393 31.3785 17.7284 31.6981 17.2523 31.6981H14.9891C14.5129 31.6981 14.102 31.3785 13.9781 30.922L13.7564 30.0806C13.0454 29.9697 12.5041 29.3631 12.5041 28.6196V27.6934C12.5041 27.1978 12.9019 26.7999 13.3976 26.7999H18.8437C19.3394 26.8064 19.7373 27.2043 19.7373 27.7ZM23.9311 15.2164C23.9311 17.3231 23.0962 19.2341 21.7396 20.6364C20.7091 21.706 20.0438 23.0692 19.8221 24.5236C19.7242 25.1498 19.1829 25.6129 18.5437 25.6129H13.6977C13.065 25.6129 12.5171 25.1563 12.4258 24.5302C12.1975 23.0757 11.5258 21.693 10.4952 20.6299C9.1647 19.2471 8.33638 17.3687 8.31681 15.3012C8.27115 10.9574 11.7279 7.44188 16.0718 7.40927C20.4091 7.37666 23.9311 10.8856 23.9311 15.2164ZM17.0044 10.4878C17.0044 10.0051 16.6131 9.60727 16.1239 9.60727C13.0193 9.60727 10.4887 12.1314 10.4887 15.2425C10.4887 15.7251 10.8801 16.123 11.3692 16.123C11.8519 16.123 12.2497 15.7317 12.2497 15.2425C12.2497 13.1032 13.9912 11.3683 16.1239 11.3683C16.6131 11.3683 17.0044 10.9769 17.0044 10.4878ZM16.1239 4.84603C16.6066 4.84603 17.0044 4.45469 17.0044 3.96552V0.880503C17.0044 0.397857 16.6131 0 16.1239 0C15.6348 0 15.2434 0.391335 15.2434 0.880503V3.96552C15.2434 4.45469 15.6413 4.84603 16.1239 4.84603ZM5.76009 15.2099C5.76009 14.7272 5.36876 14.3294 4.87959 14.3294H1.79457C1.31192 14.3294 0.914062 14.7207 0.914062 15.2099C0.914062 15.6925 1.3054 16.0904 1.79457 16.0904H4.87959C5.36876 16.0904 5.76009 15.699 5.76009 15.2099ZM30.4533 14.3294H27.3683C26.8856 14.3294 26.4878 14.7207 26.4878 15.2099C26.4878 15.6925 26.8791 16.0904 27.3683 16.0904H30.4533C30.936 16.0904 31.3338 15.699 31.3338 15.2099C31.3338 14.7272 30.9425 14.3294 30.4533 14.3294ZM7.55371 22.5409L5.36876 24.7258C5.02308 25.0715 5.02308 25.6259 5.36876 25.9716C5.53833 26.1412 5.76661 26.2259 5.98837 26.2259C6.21012 26.2259 6.4384 26.1412 6.60798 25.9716L8.79293 23.7866C9.13861 23.4409 9.13861 22.8866 8.79293 22.5409C8.45378 22.1952 7.89286 22.1952 7.55371 22.5409ZM24.0746 8.13976C24.2963 8.13976 24.5246 8.05497 24.6942 7.88539L26.8791 5.70044C27.2248 5.35476 27.2248 4.80037 26.8791 4.45469C26.5334 4.10901 25.979 4.10901 25.6334 4.45469L23.4484 6.63964C23.1027 6.98532 23.1027 7.53971 23.4484 7.88539C23.6245 8.05497 23.8463 8.13976 24.0746 8.13976ZM7.55371 7.87887C7.72329 8.04845 7.95156 8.13324 8.17332 8.13324C8.39508 8.13324 8.62336 8.04845 8.79293 7.87887C9.13861 7.53319 9.13861 6.9788 8.79293 6.63312L6.60798 4.44817C6.2623 4.10249 5.70791 4.10249 5.36223 4.44817C5.01655 4.79385 5.01655 5.34824 5.36223 5.69392L7.55371 7.87887ZM24.6942 22.5409C24.3485 22.1952 23.7941 22.1952 23.4484 22.5409C23.1027 22.8866 23.1027 23.4409 23.4484 23.7866L25.6334 25.9716C25.8029 26.1412 26.0312 26.2259 26.253 26.2259C26.4747 26.2259 26.703 26.1412 26.8726 25.9716C27.2183 25.6259 27.2183 25.0715 26.8726 24.7258L24.6942 22.5409Z" fill="#6946C6"/>
</svg>
