<svg width="250" height="250" viewBox="0 0 250 250" fill="none" xmlns="http://www.w3.org/2000/svg">
<rect width="250" height="250" fill="white"/>
<path d="M61.3953 121.971C61.3953 114.897 61.5028 108.066 61.698 101.485C61.8438 96.523 57.5951 92.58 52.6844 93.1146C40.9811 94.3885 30.9688 95.81 22.8012 97.1441C18.8708 97.7864 16 101.189 16 105.19V145.342C16 149.323 18.8444 152.714 22.7503 153.379C30.9829 154.783 41.0824 156.267 52.8436 157.563C57.7676 158.107 62.0216 154.138 61.8536 149.164C61.5607 140.527 61.3953 131.458 61.3953 121.971" fill="#5E3DA0"/>
<path d="M156.934 53.0689C155.646 41.1825 154.208 31.0402 152.867 22.8095C152.225 18.8719 148.843 15.9998 144.871 15.9998C134.449 15.9998 114.699 15.9998 104.317 15.9998C100.366 15.9998 97.0132 18.8473 96.3466 22.7612C94.9299 31.0851 93.422 41.3575 92.1066 53.3613C91.5625 58.3266 95.5315 62.6193 100.499 62.4347C109.795 62.0892 119.603 61.8913 129.908 61.8913C136.349 61.8913 142.59 61.9806 148.624 62.1449C153.558 62.2792 157.469 57.9986 156.934 53.0689Z" fill="#5E3DA0"/>
<path d="M233.458 145.295V104.715C233.458 100.725 230.598 97.3289 226.681 96.6733C218.357 95.28 208.227 93.8215 196.487 92.5581C191.549 92.0271 187.305 96.0267 187.491 101.014C187.847 110.492 188.051 120.501 188.051 131.031C188.051 137.187 187.969 143.158 187.819 148.942C187.692 153.89 191.92 157.82 196.818 157.296C208.416 156.055 218.406 154.663 226.631 153.344C230.571 152.712 233.458 149.305 233.458 145.295" fill="#5E3DA0"/>
<path d="M92.213 197.115C93.4378 208.902 94.8199 219.067 96.1389 227.451C96.7622 231.417 100.156 234.324 104.153 234.324L145.551 234.325C149.527 234.325 152.909 231.443 153.557 227.5C154.946 219.04 156.391 208.78 157.636 196.904C158.154 191.968 154.206 187.715 149.268 187.891C140.279 188.213 130.811 188.394 120.89 188.394C113.865 188.394 107.082 188.286 100.544 188.092C95.6201 187.945 91.7012 192.192 92.213 197.115" fill="#5E3DA0"/>
<path d="M57.2411 185.377C45.0938 184.197 34.4192 182.792 25.3654 181.383C20.4406 180.617 16.002 184.428 16.002 189.435V226.174C16.002 230.677 19.6333 234.325 24.1141 234.325H60.3606C65.304 234.325 69.105 229.947 68.3912 225.032C67.0572 215.839 65.7224 205.054 64.582 192.78C64.2191 188.874 61.1274 185.754 57.2411 185.377" fill="#5E3DA0"/>
<path d="M64.4042 57.9548C65.6017 45.5207 67.0316 34.621 68.4604 25.4169C69.2289 20.4669 65.4585 16.0017 60.4721 16.0017C50.1388 16.0017 33.8363 16.0017 24.1034 16.0017C19.6226 16.0017 16 19.6504 16 24.1527V61.1607C16 66.1498 20.4088 69.9568 25.3195 69.2201C34.3146 67.8701 44.9388 66.506 57.0641 65.3257C60.94 64.9491 64.0297 61.8491 64.4042 57.9548Z" fill="#5E3DA0"/>
<path d="M160.256 97.1832C160.069 92.9505 156.679 89.6057 152.465 89.4573C145.258 89.2045 137.736 89.0606 129.902 89.0606C118.123 89.0606 107.015 89.3317 96.6093 89.7928C92.3975 89.9791 89.0475 93.3621 88.8902 97.5957C88.5999 105.352 88.4355 113.481 88.4355 121.968C88.4355 132.893 88.6668 143.24 89.0624 152.991C89.2349 157.233 92.6105 160.611 96.8336 160.769C104.492 161.055 112.514 161.219 120.888 161.219C132.188 161.219 142.875 160.965 152.925 160.534C157.155 160.353 160.5 156.935 160.642 152.683C160.872 145.751 161.002 138.53 161.002 131.027C161.002 119.044 160.726 107.751 160.256 97.1832Z" fill="#54A4DF"/>
<path d="M185.28 192.476C184.143 204.819 182.769 215.706 181.374 224.993C180.636 229.919 184.441 234.325 189.399 234.325L225.337 234.324C229.818 234.324 233.449 230.676 233.449 226.173L233.45 189.325C233.45 184.354 229.084 180.534 224.189 181.258C215.2 182.586 204.644 183.919 192.637 185.069C188.742 185.44 185.64 188.562 185.28 192.476" fill="#54A4DF"/>
<path d="M191.954 64.7555C204.199 65.9121 214.982 67.3024 224.162 68.7064C229.068 69.4573 233.46 65.6319 233.46 60.6445V24.1524C233.46 19.6502 229.829 16.0015 225.348 16.0015L188.694 16.0007C183.726 16.0007 179.936 20.4376 180.675 25.3743C182.03 34.4194 183.403 45.1306 184.593 57.3829C184.972 61.2843 188.07 64.3888 191.954 64.7555" fill="#54A4DF"/>
<path d="M149.984 106.737L149.811 106.63C145.904 104.216 144.837 99.0517 147.432 95.2995C155.586 83.5066 173.697 59.8099 195.687 46.5427C199.712 44.115 204.949 45.746 206.916 50.0288L207.001 50.2129C208.727 53.9701 207.46 58.4494 203.964 60.5582C184.903 72.0533 168.36 93.7081 160.882 104.458C158.418 108 153.648 109 149.984 106.737Z" fill="#54A4DF"/>
<path d="M195.557 204.571C173.739 191.358 155.757 167.909 147.558 156.079C144.888 152.226 145.981 146.925 149.962 144.467L149.981 144.455C153.646 142.192 158.417 143.192 160.88 146.734C168.383 157.52 185.009 179.281 204.15 190.746C207.544 192.779 208.763 197.136 207.107 200.742L207.031 200.907C205.009 205.309 199.658 207.054 195.557 204.571Z" fill="#54A4DF"/>
</svg>
