<svg width="35" height="35" viewBox="0 0 35 35" fill="none" xmlns="http://www.w3.org/2000/svg">
<path d="M1.09375 21.875V31.7188C1.09375 33.4458 5.56281 33.9062 8.20312 33.9062C10.8434 33.9062 15.3125 33.4458 15.3125 31.7188V21.875C15.3125 20.148 10.8434 19.6875 8.20312 19.6875C5.56281 19.6875 1.09375 20.148 1.09375 21.875ZM2.1875 23.135C3.67992 23.8416 6.37766 24.0625 8.20312 24.0625C10.0297 24.0625 12.7296 23.841 14.2215 23.1334L14.2259 25.1169C14.0317 25.5238 11.8535 26.25 8.20312 26.25C4.55273 26.25 2.37453 25.5237 2.1875 25.1562V23.135ZM2.1875 26.4163C3.67992 27.1228 6.37766 27.3438 8.20312 27.3438C10.0297 27.3438 12.7296 27.1223 14.2215 26.4146L14.2259 28.3981C14.0317 28.805 11.8535 29.5312 8.20312 29.5312C4.55273 29.5312 2.37453 28.805 2.1875 28.4375V26.4163ZM8.20312 32.8125C4.55273 32.8125 2.37453 32.0863 2.1875 31.7188V29.6975C3.67992 30.4041 6.37766 30.625 8.20312 30.625C10.0297 30.625 12.7296 30.4035 14.2215 29.6959L14.2259 31.6794C14.0317 32.0863 11.8535 32.8125 8.20312 32.8125ZM8.20312 20.7812C11.7387 20.7812 13.8934 21.4627 14.2018 21.875C13.8939 22.2873 11.7387 22.9688 8.20312 22.9688C4.66758 22.9688 2.51289 22.2873 2.20445 21.875C2.51289 21.4627 4.66758 20.7812 8.20312 20.7812Z" fill="black"/>
<path d="M6.40219 8.58965L7.65617 7.33567V18.0468H8.74992V7.33567L10.0039 8.58965L10.7772 7.81637L8.58968 5.62888C8.37586 5.41505 8.03023 5.41505 7.8164 5.62888L5.62891 7.81637L6.40219 8.58965Z" fill="black"/>
<path d="M29.371 26.957L27.1835 24.7695L26.4102 25.5428L27.6642 26.7968H16.9531V27.8905H27.6642L26.4102 29.1445L27.1835 29.9178L29.371 27.7303C29.5848 27.5165 29.5848 27.1709 29.371 26.957Z" fill="black"/>
<path d="M18.9803 16.7929L28.4374 7.33578V9.29688H29.5312V6.01562C29.5312 5.71375 29.2867 5.46875 28.9843 5.46875H25.703V6.5625H27.6641L18.207 16.0196L18.9803 16.7929Z" fill="black"/>
<path d="M15.8594 33.3594H16.9531V34.4531H15.8594V33.3594Z" fill="black"/>
<path d="M18.0469 33.3594H19.1406V34.4531H18.0469V33.3594Z" fill="black"/>
<path d="M20.2344 33.3594H21.3281V34.4531H20.2344V33.3594Z" fill="black"/>
<path d="M22.4219 33.3594H23.5156V34.4531H22.4219V33.3594Z" fill="black"/>
<path d="M24.6094 33.3594H25.7031V34.4531H24.6094V33.3594Z" fill="black"/>
<path d="M26.7969 33.3594H27.8906V34.4531H26.7969V33.3594Z" fill="black"/>
<path d="M28.9844 33.3594H30.0781V34.4531H28.9844V33.3594Z" fill="black"/>
<path d="M31.1719 33.3594H32.2656V34.4531H31.1719V33.3594Z" fill="black"/>
<path d="M33.3594 33.3594H34.4531V34.4531H33.3594V33.3594Z" fill="black"/>
<path d="M33.3594 31.1719H34.4531V32.2656H33.3594V31.1719Z" fill="black"/>
<path d="M33.3594 28.9844H34.4531V30.0781H33.3594V28.9844Z" fill="black"/>
<path d="M33.3594 26.7969H34.4531V27.8906H33.3594V26.7969Z" fill="black"/>
<path d="M33.3594 24.6094H34.4531V25.7031H33.3594V24.6094Z" fill="black"/>
<path d="M33.3594 22.4219H34.4531V23.5156H33.3594V22.4219Z" fill="black"/>
<path d="M33.3594 20.2344H34.4531V21.3281H33.3594V20.2344Z" fill="black"/>
<path d="M33.3594 18.0469H34.4531V19.1406H33.3594V18.0469Z" fill="black"/>
<path d="M33.3594 15.8594H34.4531V16.9531H33.3594V15.8594Z" fill="black"/>
<path d="M33.3594 13.6719H34.4531V14.7656H33.3594V13.6719Z" fill="black"/>
<path d="M33.3594 11.4844H34.4531V12.5781H33.3594V11.4844Z" fill="black"/>
<path d="M33.3594 9.29688H34.4531V10.3906H33.3594V9.29688Z" fill="black"/>
<path d="M33.3594 7.10938H34.4531V8.20312H33.3594V7.10938Z" fill="black"/>
<path d="M33.3594 4.92188H34.4531V6.01562H33.3594V4.92188Z" fill="black"/>
<path d="M33.3594 2.73438H34.4531V3.82812H33.3594V2.73438Z" fill="black"/>
<path d="M33.3594 0.546875H34.4531V1.64062H33.3594V0.546875Z" fill="black"/>
<path d="M31.1719 0.546875H32.2656V1.64062H31.1719V0.546875Z" fill="black"/>
<path d="M28.9844 0.546875H30.0781V1.64062H28.9844V0.546875Z" fill="black"/>
<path d="M26.7969 0.546875H27.8906V1.64062H26.7969V0.546875Z" fill="black"/>
<path d="M24.6094 0.546875H25.7031V1.64062H24.6094V0.546875Z" fill="black"/>
<path d="M22.4219 0.546875H23.5156V1.64062H22.4219V0.546875Z" fill="black"/>
<path d="M20.2344 0.546875H21.3281V1.64062H20.2344V0.546875Z" fill="black"/>
<path d="M18.0469 0.546875H19.1406V1.64062H18.0469V0.546875Z" fill="black"/>
<path d="M15.8594 0.546875H16.9531V1.64062H15.8594V0.546875Z" fill="black"/>
<path d="M13.6719 0.546875H14.7656V1.64062H13.6719V0.546875Z" fill="black"/>
<path d="M11.4844 0.546875H12.5781V1.64062H11.4844V0.546875Z" fill="black"/>
<path d="M9.29688 0.546875H10.3906V1.64062H9.29688V0.546875Z" fill="black"/>
<path d="M7.10938 0.546875H8.20312V1.64062H7.10938V0.546875Z" fill="black"/>
<path d="M4.92188 0.546875H6.01562V1.64062H4.92188V0.546875Z" fill="black"/>
<path d="M2.73438 0.546875H3.82812V1.64062H2.73438V0.546875Z" fill="black"/>
<path d="M0.546875 0.546875H1.64062V1.64062H0.546875V0.546875Z" fill="black"/>
<path d="M0.546875 2.73438H1.64062V3.82812H0.546875V2.73438Z" fill="black"/>
<path d="M0.546875 4.92188H1.64062V6.01562H0.546875V4.92188Z" fill="black"/>
<path d="M0.546875 7.10938H1.64062V8.20312H0.546875V7.10938Z" fill="black"/>
<path d="M0.546875 9.29688H1.64062V10.3906H0.546875V9.29688Z" fill="black"/>
<path d="M0.546875 11.4844H1.64062V12.5781H0.546875V11.4844Z" fill="black"/>
<path d="M0.546875 13.6719H1.64062V14.7656H0.546875V13.6719Z" fill="black"/>
<path d="M0.546875 15.8594H1.64062V16.9531H0.546875V15.8594Z" fill="black"/>
<path d="M0.546875 18.0469H1.64062V19.1406H0.546875V18.0469Z" fill="black"/>
</svg>
