<svg width="35" height="35" viewBox="0 0 35 35" fill="none" xmlns="http://www.w3.org/2000/svg">
<path d="M14.7656 2.73438C14.3883 2.73438 14.082 3.04063 14.082 3.41797C14.082 3.79531 14.3883 4.10156 14.7656 4.10156C15.143 4.10156 15.4492 3.79531 15.4492 3.41797C15.4492 3.04063 15.143 2.73438 14.7656 2.73438Z" fill="black"/>
<path d="M6.5625 11.7578C6.18516 11.7578 5.87891 12.0641 5.87891 12.4414C5.87891 12.8188 6.18516 13.125 6.5625 13.125C6.93984 13.125 7.24609 12.8188 7.24609 12.4414C7.24609 12.0641 6.93984 11.7578 6.5625 11.7578Z" fill="black"/>
<path d="M6.5625 15.8594C6.18516 15.8594 5.87891 16.1656 5.87891 16.543C5.87891 16.9203 6.18516 17.2266 6.5625 17.2266C6.93984 17.2266 7.24609 16.9203 7.24609 16.543C7.24609 16.1656 6.93984 15.8594 6.5625 15.8594Z" fill="black"/>
<path d="M6.5625 19.9609C6.18516 19.9609 5.87891 20.2672 5.87891 20.6445C5.87891 21.0219 6.18516 21.3281 6.5625 21.3281C6.93984 21.3281 7.24609 21.0219 7.24609 20.6445C7.24609 20.2672 6.93984 19.9609 6.5625 19.9609Z" fill="black"/>
<path d="M6.5625 24.0625C6.18516 24.0625 5.87891 24.3688 5.87891 24.7461C5.87891 25.1234 6.18516 25.4297 6.5625 25.4297C6.93984 25.4297 7.24609 25.1234 7.24609 24.7461C7.24609 24.3688 6.93984 24.0625 6.5625 24.0625Z" fill="black"/>
<path d="M6.5625 28.1641C6.18516 28.1641 5.87891 28.4703 5.87891 28.8477C5.87891 29.225 6.18516 29.5312 6.5625 29.5312C6.93984 29.5312 7.24609 29.225 7.24609 28.8477C7.24609 28.4703 6.93984 28.1641 6.5625 28.1641Z" fill="black"/>
<path d="M22.9688 11.7578H9.29688C8.91939 11.7578 8.61328 12.0639 8.61328 12.4414C8.61328 12.8189 8.91939 13.125 9.29688 13.125H22.9688C23.3462 13.125 23.6523 12.8189 23.6523 12.4414C23.6523 12.0639 23.3462 11.7578 22.9688 11.7578Z" fill="black"/>
<path d="M22.9688 15.8594H9.29688C8.91939 15.8594 8.61328 16.1655 8.61328 16.543C8.61328 16.9204 8.91939 17.2266 9.29688 17.2266H22.9688C23.3462 17.2266 23.6523 16.9204 23.6523 16.543C23.6523 16.1655 23.3462 15.8594 22.9688 15.8594Z" fill="black"/>
<path d="M22.9688 19.9609H9.29688C8.91939 19.9609 8.61328 20.2671 8.61328 20.6445C8.61328 21.022 8.91939 21.3281 9.29688 21.3281H22.9688C23.3462 21.3281 23.6523 21.022 23.6523 20.6445C23.6523 20.2671 23.3462 19.9609 22.9688 19.9609Z" fill="black"/>
<path d="M28.9209 26.3134C28.6539 26.0466 28.2212 26.0466 27.9542 26.3135L25.7032 28.5644L24.8194 27.6806C24.5523 27.4137 24.1196 27.4137 23.8526 27.6806C23.5856 27.9476 23.5856 28.3804 23.8526 28.6474L25.2197 30.0146C25.3533 30.1481 25.5282 30.2148 25.7032 30.2148C25.8782 30.2148 26.053 30.1481 26.1866 30.0146L28.9209 27.2802C29.1879 27.0133 29.1879 26.5804 28.9209 26.3134Z" fill="black"/>
<path d="M27.7539 21.4653V6.15234C27.7539 5.02154 26.8339 4.10156 25.7031 4.10156H20.8004C20.5182 3.30593 19.7584 2.73438 18.8672 2.73438H18.1149C17.7974 1.17619 16.4162 0 14.7656 0C13.115 0 11.7339 1.17619 11.4164 2.73438H10.6641C9.77293 2.73438 9.01305 3.30593 8.73086 4.10156H3.82812C2.69732 4.10156 1.77734 5.02154 1.77734 6.15234V32.9492C1.77734 34.08 2.69732 35 3.82812 35H26.3867C30.1561 35 33.2227 31.9335 33.2227 28.1641C33.2227 24.881 30.9113 22.1026 27.7539 21.4653ZM9.98047 4.78516C9.98047 4.40822 10.2871 4.10156 10.6641 4.10156H12.0312C12.4087 4.10156 12.7148 3.79545 12.7148 3.41797C12.7148 2.28717 13.6348 1.36719 14.7656 1.36719C15.8964 1.36719 16.8164 2.28717 16.8164 3.41797C16.8164 3.79545 17.1225 4.10156 17.5 4.10156H18.8672C19.2441 4.10156 19.5508 4.40822 19.5508 4.78516V5.46875H9.98047V4.78516ZM3.82812 33.6328C3.45119 33.6328 3.14453 33.3262 3.14453 32.9492V6.15234C3.14453 5.77541 3.45119 5.46875 3.82812 5.46875H8.61328V6.15234C8.61328 6.52982 8.91939 6.83594 9.29688 6.83594H20.2344C20.6119 6.83594 20.918 6.52982 20.918 6.15234V5.46875H25.7031C26.0801 5.46875 26.3867 5.77541 26.3867 6.15234V21.3281C24.2247 21.3281 22.2076 22.3439 20.9184 24.0625H9.29688C8.91939 24.0625 8.61328 24.3686 8.61328 24.7461C8.61328 25.1236 8.91939 25.4229 9.29688 25.4229H20.1204C19.7459 26.2793 19.5508 27.2136 19.5508 28.1641H9.29688C8.91939 28.1641 8.61328 28.4702 8.61328 28.8477C8.61328 29.2251 8.91939 29.5312 9.29688 29.5312H19.6879C20.0272 31.2119 20.9729 32.6526 22.2787 33.6328H3.82812ZM26.3867 33.6328C23.594 33.6328 21.2574 31.5434 20.9515 28.7732C20.9292 28.5702 20.918 28.3652 20.918 28.1641C20.918 27.0769 21.2358 26.0274 21.8373 25.1286C21.8376 25.1282 21.8378 25.1278 21.838 25.1275C21.8383 25.1271 21.8385 25.1267 21.8388 25.1263C22.8574 23.6041 24.5575 22.6953 26.3867 22.6953C26.5879 22.6953 26.7928 22.7066 26.9959 22.7288C29.7663 23.0351 31.8555 25.3716 31.8555 28.1641C31.8555 31.1795 29.4022 33.6328 26.3867 33.6328Z" fill="black"/>
</svg>
