<svg width="55" height="55" viewBox="0 0 55 55" fill="none" xmlns="http://www.w3.org/2000/svg">
<path d="M54.1776 25.5509L43.591 15.1553C43.3303 14.8993 43.0209 14.6963 42.6803 14.5577C42.3397 14.4192 41.9746 14.3479 41.606 14.3479C41.2373 14.3479 40.8723 14.4192 40.5317 14.5577C40.1911 14.6963 39.8816 14.8993 39.6209 15.1553C39.0945 15.6723 38.7987 16.3734 38.7987 17.1045C38.7987 17.8356 39.0945 18.5367 39.6209 19.0537L45.4154 24.7435H14.7635C14.019 24.7435 13.305 25.034 12.7785 25.5509C12.2521 26.0679 11.9563 26.769 11.9563 27.5001C11.9563 28.2312 12.2521 28.9323 12.7785 29.4493C13.305 29.9662 14.019 30.2566 14.7635 30.2566H45.4154L39.6209 35.9465C39.0945 36.4635 38.7988 37.1646 38.7988 37.8957C38.7988 38.6268 39.0945 39.3279 39.621 39.8449C40.1475 40.3618 40.8615 40.6523 41.606 40.6523C42.3505 40.6522 43.0646 40.3618 43.591 39.8448L54.1776 29.4492C54.704 28.9322 54.9998 28.2311 54.9998 27.5C54.9998 26.7689 54.704 26.0678 54.1776 25.5509Z" fill="#6946C6"/>
<path d="M33.0378 43.6207C32.2867 43.6207 31.5664 43.9204 31.0354 44.4539C30.5043 44.9874 30.2059 45.711 30.2059 46.4655V49.3103H5.66362V5.68966H30.2059V8.53448C30.2059 9.28898 30.5043 10.0126 31.0354 10.5461C31.5664 11.0796 32.2867 11.3793 33.0378 11.3793C33.7888 11.3793 34.5091 11.0796 35.0401 10.5461C35.5712 10.0126 35.8696 9.28898 35.8696 8.53448V4.74138C35.8696 4.11873 35.7475 3.50218 35.5103 2.92693C35.2731 2.35168 34.9255 1.829 34.4872 1.38872C34.0489 0.94844 33.5286 0.599193 32.956 0.360916C32.3834 0.122639 31.7697 0 31.1499 0H4.71968C3.46794 0 2.26747 0.499537 1.38236 1.38872C0.49725 2.2779 0 3.48389 0 4.74138V50.2586C0 51.5161 0.49725 52.7221 1.38236 53.6113C2.26747 54.5005 3.46794 55 4.71968 55H31.1499C31.7697 55 32.3834 54.8774 32.956 54.6391C33.5286 54.4008 34.0489 54.0516 34.4872 53.6113C34.9255 53.171 35.2731 52.6483 35.5103 52.0731C35.7475 51.4978 35.8696 50.8813 35.8696 50.2586V46.4655C35.8696 45.711 35.5712 44.9874 35.0401 44.4539C34.5091 43.9204 33.7888 43.6207 33.0378 43.6207Z" fill="#6946C6"/>
</svg>
