<svg width="19" height="19" viewBox="0 0 19 19" fill="none" xmlns="http://www.w3.org/2000/svg">
<path d="M18.716 8.82665L15.0588 5.23547C14.9687 5.14704 14.8618 5.07689 14.7442 5.02903C14.6265 4.98118 14.5004 4.95654 14.373 4.95654C14.2457 4.95654 14.1196 4.98118 14.0019 5.02903C13.8843 5.07689 13.7774 5.14704 13.6873 5.23547C13.5054 5.41406 13.4033 5.65627 13.4033 5.90882C13.4033 6.16138 13.5054 6.40359 13.6873 6.58217L15.689 8.54776H5.10019C4.84299 8.54776 4.59633 8.64809 4.41447 8.82667C4.2326 9.00526 4.13043 9.24747 4.13043 9.50002C4.13043 9.75258 4.2326 9.99479 4.41447 10.1734C4.59633 10.352 4.84299 10.4523 5.10019 10.4523H15.689L13.6873 12.4179C13.5054 12.5965 13.4033 12.8387 13.4033 13.0912C13.4033 13.3438 13.5055 13.586 13.6873 13.7646C13.8692 13.9432 14.1159 14.0435 14.3731 14.0435C14.6303 14.0435 14.8769 13.9432 15.0588 13.7646L18.716 10.1734C18.8978 9.99477 19 9.75256 19 9.5C19 9.24745 18.8978 9.00524 18.716 8.82665Z" fill="black"/>
<path d="M11.413 15.069C11.1536 15.069 10.9048 15.1725 10.7213 15.3568C10.5378 15.5411 10.4348 15.7911 10.4348 16.0517V17.0345H1.95652V1.96552H10.4348V2.94828C10.4348 3.20892 10.5378 3.45889 10.7213 3.64319C10.9048 3.82749 11.1536 3.93103 11.413 3.93103C11.6725 3.93103 11.9213 3.82749 12.1048 3.64319C12.2882 3.45889 12.3913 3.20892 12.3913 2.94828V1.63793C12.3913 1.42283 12.3491 1.20984 12.2672 1.01112C12.1853 0.812399 12.0652 0.631835 11.9138 0.479739C11.7624 0.327643 11.5826 0.206994 11.3848 0.12468C11.187 0.0423663 10.975 0 10.7609 0H1.63043C1.19802 0 0.783309 0.172567 0.477543 0.479739C0.171777 0.786911 0 1.20352 0 1.63793V17.3621C0 17.7965 0.171777 18.2131 0.477543 18.5203C0.783309 18.8274 1.19802 19 1.63043 19H10.7609C10.975 19 11.187 18.9576 11.3848 18.8753C11.5826 18.793 11.7624 18.6724 11.9138 18.5203C12.0652 18.3682 12.1853 18.1876 12.2672 17.9889C12.3491 17.7902 12.3913 17.5772 12.3913 17.3621V16.0517C12.3913 15.7911 12.2882 15.5411 12.1048 15.3568C11.9213 15.1725 11.6725 15.069 11.413 15.069Z" fill="black"/>
</svg>
