<svg width="142" height="140" viewBox="0 0 142 140" fill="none" xmlns="http://www.w3.org/2000/svg">
<path d="M121.378 63.2672C123.599 96.6872 94.1607 125.991 60.7313 123.914C28.8589 121.931 1.83294 94.6259 0.0850736 63.2672C-1.77906 29.8245 27.2611 1.37518 60.7313 2.62051C89.8647 3.70451 119.114 29.2032 121.378 63.2672Z" fill="#F8F7FB"/>
<path d="M129.003 13.2686C129.488 20.5739 123.052 26.9806 115.744 26.5259C108.776 26.0939 102.867 20.1233 102.485 13.2686C102.077 5.95659 108.427 -0.263406 115.744 0.00859381C122.113 0.245927 128.508 5.82059 129.003 13.2686Z" fill="#F8F7FB"/>
<path d="M24.7335 122.102C25.0491 126.854 20.8641 131.021 16.1111 130.725C11.5793 130.443 7.73653 126.561 7.48866 122.102C7.22359 117.347 11.3523 113.303 16.1111 113.479C20.2527 113.634 24.4121 117.259 24.7335 122.102Z" fill="#F8F7FB"/>
<path d="M130.885 47.7792C124.191 53.4272 115.859 60.4579 110.504 69.8685C109.255 72.0645 108.955 73.5779 109.585 74.4939C110.588 75.9512 113.568 75.4952 116.723 75.0112C119.388 74.6032 122.408 74.1405 123.209 75.2232C123.621 75.7792 123.476 76.7992 122.776 78.2525C120.544 82.8965 117.063 83.9085 111.793 85.4419C107.851 86.5872 102.945 88.0152 97.1052 91.5245C89.0185 96.3832 81.9825 102.946 78.8492 106.054C102.947 51.8925 126.699 18.0379 126.956 17.6739L126.411 17.2885C126.152 17.6552 102.077 51.9659 77.7999 106.77C78.1225 103.034 79.1559 91.7939 80.8092 81.0339C82.1145 72.5405 82.3612 65.9685 82.5425 61.1699C82.8199 53.8032 82.9585 50.1045 86.2159 48.1792C86.8745 47.7885 87.4559 47.5952 87.9732 47.5952C88.2559 47.5952 88.5185 47.6539 88.7652 47.7699C90.6292 48.6472 91.2639 52.6685 91.7732 55.9005C92.2559 58.9592 92.5505 60.5619 93.4732 60.7205C94.0879 60.8285 94.7092 60.2205 95.5439 58.6859C97.8052 54.5232 97.5132 47.5245 97.2305 40.7579C96.9225 33.4032 96.6039 25.7992 99.5612 22.0059C100.219 21.1619 100.784 20.7885 101.252 20.8899C102.641 21.2005 103.624 25.5192 104.491 29.3299C105.104 32.0245 105.739 34.8099 106.576 36.8072C107.155 38.1872 107.835 38.8579 108.655 38.8579H108.656C110.972 38.8552 113.407 33.0179 115.984 26.8365C116.409 25.8152 116.832 24.8032 117.248 23.8339C121.144 14.7539 125.212 9.4592 129.343 8.09653C131.429 7.40853 133.599 7.70852 135.793 8.98719C137.216 9.81786 137.996 10.8659 138.18 12.1925C138.791 16.6032 132.603 23.0125 128.085 27.6912C127.645 28.1472 127.221 28.5872 126.82 29.0072C122.084 33.9685 120.213 37.0152 120.932 38.5979C121.289 39.3832 122.259 39.7485 123.792 39.6752C126.064 39.5739 129.149 37.8232 132.131 36.1285C135.423 34.2605 138.829 32.3299 140.276 33.2272C140.915 33.6245 141.193 34.6245 141.105 36.2005C140.931 39.3045 136.497 43.0445 130.885 47.7792ZM140.627 32.6619C138.841 31.5539 135.421 33.4939 131.803 35.5499C128.888 37.2045 125.875 38.9152 123.761 39.0098C122.524 39.0605 121.773 38.8339 121.54 38.3219C121.144 37.4512 121.821 35.2085 127.301 29.4685C127.703 29.0485 128.127 28.6099 128.565 28.1552C133.177 23.3765 139.495 16.8325 138.84 12.1019C138.629 10.5805 137.717 9.33918 136.128 8.41252C133.763 7.03118 131.408 6.71253 129.133 7.4632C124.753 8.90853 120.665 14.1779 116.635 23.5712C116.219 24.5419 115.795 25.5565 115.368 26.5805C113.212 31.7525 110.528 38.1899 108.655 38.1912C108.14 38.1912 107.648 37.6379 107.191 36.5499C106.376 34.6059 105.748 31.8485 105.141 29.1819C104.099 24.5992 103.197 20.6405 101.397 20.2405C100.649 20.0739 99.8772 20.5165 99.0345 21.5965C95.9279 25.5819 96.2505 33.3112 96.5639 40.7859C96.8439 47.4619 97.1319 54.3659 94.9572 58.3672C94.0279 60.0765 93.6292 60.0605 93.5852 60.0645C93.0919 59.9792 92.7105 57.5619 92.4319 55.7965C91.8985 52.4099 91.2332 48.1939 89.0492 47.1659C88.1519 46.7432 87.0825 46.8912 85.8759 47.6045C82.3065 49.7165 82.1532 53.7752 81.8759 61.1445C81.6959 65.9272 81.4492 72.4779 80.1505 80.9325C78.1372 94.0392 77.0372 107.889 77.0265 108.027L76.9799 108.615C75.3505 112.322 73.7239 116.119 72.1025 120.006L72.7185 120.262C74.5012 115.99 76.2919 111.833 78.0825 107.777C80.0652 105.726 88.0385 97.7499 97.4492 92.0952C103.215 88.6312 108.075 87.2179 111.98 86.0819C117.225 84.5552 121.016 83.4525 123.377 78.5419C124.204 76.8245 124.324 75.6085 123.745 74.8272C122.705 73.4219 119.749 73.8739 116.621 74.3525C113.94 74.7632 110.901 75.2285 110.135 74.1165C109.669 73.4405 109.989 72.1219 111.084 70.1979C116.379 60.8899 124.661 53.9032 131.316 48.2885C137.049 43.4499 141.579 39.6285 141.771 36.2379C141.876 34.3739 141.501 33.2032 140.627 32.6619" fill="#ECE7F6"/>
<path d="M56.7808 101.776C50.5053 95.7244 52.7198 75.9978 45.5688 71.2711C40.2209 67.7365 42.3793 80.1658 41.036 86.2978C39.6782 92.4951 33.5876 83.9791 28.587 78.0151C20.9824 68.9431 13.4454 64.6284 6.92357 70.5764C0.402103 76.5244 12.8037 82.1444 19.7225 85.7164C25.3714 88.6324 30.423 92.0978 24.9422 93.4818C19.0381 94.9711 4.57504 87.9231 6.95264 95.8951C8.7261 101.84 30.587 104.048 43.7558 116.196C52.7021 124.451 26.3324 119.42 33.3193 126.964C38.9506 133.043 46.5236 127.99 61.3402 131.07C73.4508 133.586 84.1334 139.318 84.1334 139.318C84.1334 139.318 80.3414 127.71 75.7321 116.872C68.3517 99.5205 69.9961 91.1951 63.7428 89.9418C54.9105 88.1698 63.0574 107.827 56.7808 101.776" fill="#ECE7F6"/>
<g clip-path="url(#clip0_122_12)">
<path d="M63.6664 83.3337C58.1531 83.3337 53.6665 78.8471 53.6665 73.3338C53.6665 67.8206 58.1531 63.3339 63.6664 63.3339H70.3326V50.0009C70.3326 44.4877 65.8459 40.001 60.3327 40.001H24.4999C23.4031 40.001 22.3765 40.5406 21.7534 41.4439C21.1333 42.3472 20.9935 43.4977 21.3866 44.5206L45.5532 107.854C46.0433 109.147 47.2829 110 48.6665 110H60.3327C65.8459 110 70.3326 105.514 70.3326 100V83.3337H63.6664Z" fill="#6946C6"/>
<path d="M79.0563 89.7472C77.813 89.2303 76.9994 88.0138 76.9994 86.6668V76.6669H63.6664C61.8262 76.6669 60.3327 75.174 60.3327 73.3338C60.3327 71.4936 61.8262 70.0007 63.6664 70.0007H76.9994V60.0008C76.9994 58.6538 77.813 57.4374 79.0563 56.9204C80.3026 56.4041 81.7363 56.6909 82.689 57.6443L96.0226 70.9773C97.3257 72.2804 97.3257 74.3873 96.0226 75.6904L82.689 89.024C81.7363 89.9767 80.3026 90.2636 79.0563 89.7472Z" fill="#607D8B"/>
<path d="M45.8199 47.0072L25.7902 40.3306C21.27 38.9409 17 42.2776 17 46.6672V106.667C17 109.517 18.8133 112.06 21.5135 112.993L41.5395 119.67C42.2762 119.896 42.9531 120 43.6666 120C47.3433 120 50.3328 117.01 50.3328 113.333V53.334C50.3328 50.4843 48.5194 47.941 45.8199 47.0072V47.0072Z" fill="#936EF4"/>
</g>
<defs>
<clipPath id="clip0_122_12">
<rect width="80" height="80" fill="white" transform="translate(17 40)"/>
</clipPath>
</defs>
</svg>
