<svg width="1137" height="806" viewBox="0 0 1137 806" fill="none" xmlns="http://www.w3.org/2000/svg">
<rect width="1137" height="806" fill="white"/>
<path fill-rule="evenodd" clip-rule="evenodd" d="M977.255 235.263C956.707 230.653 936.309 243.57 931.7 264.12C927.092 284.665 940.016 305.056 960.564 309.666C981.115 314.273 1001.51 301.353 1006.12 280.808C1010.73 260.26 997.806 239.87 977.255 235.263V235.263ZM1007.83 194.454C1014.79 198.081 1021.15 202.586 1026.78 207.797L1047.02 200.593L1066.04 230.614L1050.88 245.837C1053.19 253.151 1054.56 260.819 1054.86 268.666L1074.26 277.876L1066.48 312.555L1045 312.604C1041.38 319.566 1036.87 325.917 1031.65 331.545L1038.86 351.783L1008.84 370.803L993.609 355.648C986.296 357.955 978.626 359.314 970.778 359.618L961.567 379.018L926.88 371.24L926.832 349.766C919.869 346.142 913.519 341.633 907.891 336.421L887.645 343.627L868.622 313.602L883.785 298.38C881.478 291.067 880.119 283.398 879.809 275.555L860.412 266.341L868.191 231.661L889.667 231.617C893.291 224.652 897.8 218.301 903.014 212.673L895.808 192.433L925.831 173.414L941.058 188.571C948.373 186.265 956.042 184.904 963.89 184.599L973.102 165.202L1007.78 172.981L1007.83 194.454" fill="#DADBD8"/>
<path d="M817.04 128.079C817.04 128.079 819.58 128.256 823.697 130.161C827.727 132.037 833.435 136.133 836.961 143.584C838.674 147.267 839.849 151.725 839.669 156.551C839.468 161.335 838.188 166.52 835.208 171.085C833.789 173.399 831.943 175.528 829.793 177.384C827.666 179.271 825.193 180.863 822.475 182.027C817.081 184.478 810.683 185.119 804.546 183.797C798.43 182.372 792.919 179.062 789.088 174.541C787.126 172.328 785.568 169.829 784.451 167.215C783.3 164.62 782.538 161.906 782.244 159.209C781.5 153.807 782.557 148.571 784.42 144.159C786.319 139.718 789.285 136.189 792.408 133.591C798.78 128.359 805.69 127.095 810.135 127.12C814.671 127.154 817.04 128.079 817.04 128.079C817.011 128.278 814.581 127.589 810.151 127.748C805.804 127.912 799.168 129.332 793.144 134.466C790.189 137.017 787.408 140.432 785.653 144.686C783.931 148.918 782.97 153.906 783.722 159.018C784.019 161.575 784.757 164.139 785.863 166.592C786.931 169.061 788.416 171.417 790.281 173.502C793.921 177.763 799.122 180.87 804.9 182.221C810.7 183.464 816.729 182.877 821.839 180.578C824.412 179.488 826.762 177.993 828.784 176.217C830.829 174.473 832.592 172.467 833.954 170.283C836.815 165.982 838.078 161.063 838.331 156.501C838.56 151.906 837.501 147.629 835.924 144.062C832.67 136.845 827.275 132.727 823.413 130.722C819.478 128.687 816.984 128.271 817.04 128.079" fill="#DADBD8"/>
<path d="M839.621 97.953C839.601 97.9649 839.58 97.6335 839.558 96.9656C839.543 96.2296 839.519 95.2438 839.488 93.9657C839.451 91.2124 839.396 87.2473 839.325 82.1026L839.526 82.3524C832.961 80.9197 824.327 79.0365 813.889 76.7574L814.346 76.5347C812.304 80.8806 810.033 85.7125 807.606 90.8793L807.484 91.1393L807.195 91.1512C801.867 91.379 796.202 92.2951 790.48 94.117L790.176 94.2139L789.946 93.9879C786.433 90.5088 782.628 86.7442 778.673 82.8283L779.387 82.9065C772.416 87.3442 765.021 92.0537 757.255 96.9995L757.515 96.2483C759.169 100.871 760.994 105.961 762.862 111.181L762.998 111.56L762.723 111.857C759.148 115.724 755.718 120.449 752.998 125.711L752.804 126.085H752.38C747.467 126.103 742.046 126.122 736.527 126.142L737.227 125.58C735.435 133.624 733.499 142.299 731.517 151.189L731.106 150.346C735.568 152.459 740.467 154.781 745.431 157.133L745.85 157.332L745.869 157.797C746.076 163.09 747.008 168.855 748.783 174.443L748.925 174.894L748.591 175.23C745.087 178.752 741.264 182.593 737.406 186.475L737.513 185.492C741.961 192.508 746.731 200.029 751.567 207.65L750.618 207.325C755.339 205.644 760.433 203.829 765.562 202.002L766.024 201.839L766.383 202.172C770.318 205.823 775.032 209.219 780.179 211.89L780.186 211.894L780.189 211.895C780.385 212.215 779.757 211.183 780.626 212.613V212.628V212.659V212.721V212.847L780.628 213.097V213.595L780.631 214.593L780.634 216.586L780.643 220.562C780.648 223.208 780.653 225.842 780.658 228.465L780.029 227.68C788.683 229.624 797.22 231.539 805.634 233.429L804.738 233.866C807.03 229.046 809.299 224.274 811.544 219.547L811.752 219.114L812.229 219.095C817.946 218.879 823.557 217.887 828.881 216.211L829.333 216.068L829.67 216.403C833.467 220.188 837.209 223.918 840.901 227.6L839.947 227.494C847.518 222.708 854.914 218.033 862.125 213.474L861.823 214.351C860.024 209.28 858.256 204.3 856.523 199.405L856.375 198.99L856.674 198.669C860.606 194.436 863.876 189.758 866.438 184.855L866.635 184.479H867.056C872.493 184.476 877.764 184.474 882.909 184.473L882.257 184.996C884.296 175.993 886.222 167.497 888.055 159.407L888.393 160.1C883.361 157.697 878.641 155.44 874.087 153.265L873.769 153.113L873.757 152.763C873.531 146.713 872.481 141.15 870.893 136.048L870.796 135.738L871.024 135.512C875.105 131.444 878.78 127.776 882.253 124.312L882.189 124.905C876.785 116.295 872.182 108.96 868.24 102.68L868.666 102.826C862.686 104.911 857.779 106.623 853.692 108.049L853.541 108.1L853.429 107.994C849.215 104.06 845.635 101.668 843.243 100.151C842.072 99.4436 841.175 98.9031 840.517 98.5071C839.886 98.145 839.601 97.9632 839.621 97.953C839.638 97.9428 839.969 98.0907 840.583 98.3898C841.209 98.711 842.155 99.1988 843.383 99.9228C845.829 101.371 849.478 103.706 853.781 107.612L853.517 107.559C857.587 106.08 862.47 104.306 868.425 102.144L868.695 102.046L868.853 102.29C872.848 108.536 877.517 115.831 882.994 124.394L883.198 124.713L882.928 124.987C879.481 128.474 875.829 132.164 871.777 136.262L871.906 135.728C873.552 140.903 874.655 146.558 874.915 152.717L874.585 152.218C879.148 154.371 883.882 156.604 888.923 158.982L889.369 159.194L889.263 159.677C887.461 167.774 885.571 176.28 883.567 185.29L883.452 185.814L882.913 185.815C877.766 185.836 872.496 185.856 867.06 185.876L867.677 185.501C865.074 190.521 861.746 195.313 857.736 199.653L857.886 198.919C859.633 203.809 861.413 208.785 863.223 213.853L863.424 214.413L862.921 214.73C855.718 219.304 848.333 223.995 840.77 228.795L840.253 229.124L839.815 228.691C836.116 225.015 832.371 221.293 828.567 217.511L829.352 217.701C823.901 219.426 818.148 220.451 812.291 220.679L812.977 220.227C810.734 224.955 808.469 229.729 806.185 234.551L805.911 235.129L805.286 234.99C796.87 233.105 788.33 231.193 779.676 229.255L779.047 229.114L779.045 228.468C779.04 225.846 779.033 223.211 779.028 220.565L779.02 216.59L779.014 214.598L779.013 213.598L779.011 213.1V212.851V212.725V212.662V212.631V212.616C779.88 214.044 779.251 213.01 779.443 213.328L779.439 213.327L779.433 213.323C774.153 210.583 769.32 207.098 765.285 203.353L766.104 203.523C760.972 205.347 755.878 207.159 751.159 208.838L750.552 209.052L750.209 208.51C745.381 200.884 740.618 193.36 736.175 186.34L735.837 185.805L736.284 185.358C740.149 181.481 743.975 177.644 747.482 174.127L747.292 174.912C745.483 169.185 744.538 163.279 744.336 157.857L744.773 158.52C739.814 156.157 734.919 153.827 730.46 151.704L729.916 151.446L730.05 150.86C732.053 141.974 734.009 133.305 735.823 125.265L735.949 124.703L736.525 124.701C742.043 124.698 747.464 124.694 752.378 124.693L751.762 125.067C754.56 119.698 758.079 114.883 761.744 110.952L761.605 111.626C759.757 106.403 757.953 101.305 756.315 96.6766L756.145 96.1939L756.573 95.9254C764.362 91.0153 771.78 86.3397 778.771 81.9344L779.161 81.6879L779.485 82.0125C783.419 85.9505 787.201 89.7372 790.694 93.235L790.162 93.1058C795.987 91.2872 801.748 90.3949 807.159 90.2046L806.749 90.4748C809.219 85.325 811.529 80.5135 813.606 76.1829L813.749 75.8855L814.067 75.9586C824.48 78.3567 833.092 80.3401 839.638 81.8494L839.842 81.8952L839.838 82.0992C839.793 87.2014 839.757 91.1308 839.731 93.8604C839.706 95.1538 839.689 96.1548 839.675 96.9009C839.657 97.5876 839.638 97.9411 839.621 97.953" fill="#DADBD8"/>
<path d="M131.737 490.042C131.737 490.042 133.437 490.442 136.017 492.187C138.541 493.904 141.956 497.308 143.523 502.747C144.279 505.43 144.583 508.582 143.928 511.831C143.263 515.05 141.823 518.424 139.301 521.187C138.084 522.6 136.598 523.837 134.937 524.859C133.288 525.902 131.436 526.709 129.465 527.197C125.539 528.263 121.136 527.993 117.123 526.42C113.135 524.779 109.766 521.927 107.669 518.441C106.584 516.726 105.804 514.862 105.336 512.968C104.841 511.08 104.626 509.159 104.723 507.298C104.815 503.556 106.109 500.124 107.858 497.339C109.635 494.541 112.034 492.476 114.437 491.06C119.332 488.219 124.154 488.125 127.162 488.63C130.233 489.155 131.737 490.042 131.737 490.042C131.694 490.173 130.123 489.439 127.104 489.058C124.141 488.691 119.487 488.919 114.838 491.735C112.556 493.137 110.294 495.143 108.634 497.832C107.002 500.512 105.801 503.784 105.745 507.331C105.664 509.097 105.882 510.917 106.361 512.7C106.813 514.491 107.56 516.25 108.592 517.87C110.588 521.159 113.769 523.837 117.536 525.389C121.329 526.871 125.478 527.141 129.194 526.145C131.06 525.691 132.816 524.937 134.382 523.956C135.961 522.999 137.377 521.837 138.54 520.506C140.953 517.907 142.352 514.712 143.026 511.649C143.689 508.561 143.444 505.548 142.768 502.954C141.361 497.706 138.158 494.32 135.764 492.536C133.32 490.724 131.677 490.166 131.737 490.042" fill="#DADBD8"/>
<path d="M150.36 472.119C150.346 472.124 150.369 471.896 150.428 471.44C150.497 470.941 150.59 470.269 150.712 469.401C150.989 467.53 151.39 464.837 151.91 461.343L152.017 461.535C147.728 459.841 142.086 457.611 135.263 454.917L135.599 454.817C133.735 457.536 131.664 460.56 129.448 463.792L129.337 463.955L129.14 463.932C125.504 463.496 121.565 463.493 117.486 464.098L117.269 464.129L117.139 463.95C115.142 461.207 112.98 458.236 110.731 455.146L111.207 455.277C105.994 457.517 100.463 459.892 94.6553 462.385L94.913 461.906C95.5244 465.22 96.1991 468.871 96.8902 472.613L96.9407 472.887L96.7209 473.057C93.8723 475.281 91.0258 478.104 88.6023 481.371L88.4296 481.604L88.1427 481.556C84.8108 481.028 81.1369 480.441 77.3945 479.847L77.931 479.544C75.8281 484.796 73.5591 490.461 71.2353 496.266L71.0493 495.649C73.8401 497.573 76.9044 499.686 80.0087 501.829L80.271 502.009L80.2317 502.325C79.7889 505.935 79.7836 509.943 80.3699 513.927L80.417 514.248L80.1528 514.438C77.3899 516.439 74.3759 518.621 71.3315 520.825L71.5134 520.171C73.7544 525.416 76.1568 531.038 78.591 536.735L77.9849 536.411C81.3693 535.792 85.0199 535.126 88.6985 534.453L89.0291 534.392L89.235 534.657C91.4993 537.565 94.318 540.388 97.5119 542.766L97.5158 542.767L97.5178 542.769C97.6147 543.009 97.304 542.239 97.7349 543.303L97.7335 543.313L97.7303 543.335L97.7237 543.377L97.7104 543.462L97.6825 543.632L97.628 543.971L97.5197 544.645L97.3026 545.996L96.869 548.692C96.5816 550.485 96.2941 552.271 96.0079 554.049L95.6679 553.447C101.316 555.718 106.891 557.958 112.385 560.166L111.729 560.363C113.813 557.351 115.876 554.367 117.92 551.413L118.109 551.143L118.435 551.182C122.33 551.665 126.244 551.612 130.036 551.065L130.359 551.017L130.549 551.28C132.705 554.267 134.828 557.205 136.924 560.106L136.289 559.931C141.947 557.523 147.475 555.171 152.864 552.878L152.562 553.439C151.903 549.804 151.256 546.233 150.619 542.726L150.566 542.429L150.803 542.244C153.936 539.808 156.667 536.999 158.945 533.96L159.119 533.729L159.405 533.775C163.089 534.371 166.661 534.951 170.148 535.517L169.647 535.801C172.023 529.925 174.265 524.381 176.4 519.1L176.552 519.609C173.408 517.425 170.459 515.375 167.613 513.398L167.414 513.261L167.444 513.023C167.959 508.896 167.862 505.011 167.348 501.379L167.318 501.159L167.496 501.032C170.71 498.724 173.605 496.644 176.34 494.681L176.23 495.073C173.52 488.644 171.21 483.168 169.232 478.477L169.506 478.623C165.222 479.376 161.708 479.994 158.781 480.509L158.674 480.528L158.608 480.443C156.188 477.312 154.026 475.298 152.574 474.005C151.857 473.398 151.309 472.933 150.908 472.593C150.52 472.275 150.346 472.124 150.36 472.119C150.374 472.112 150.582 472.249 150.965 472.52C151.354 472.807 151.941 473.242 152.693 473.867C154.191 475.118 156.406 477.102 158.89 480.224L158.717 480.158C161.638 479.607 165.143 478.942 169.416 478.135L169.61 478.098L169.69 478.281C171.708 482.953 174.066 488.411 176.834 494.818L176.937 495.058L176.724 495.211C174.002 497.194 171.121 499.293 167.923 501.622L168.07 501.275C168.614 504.963 168.737 508.916 168.234 513.12L168.066 512.744C170.92 514.705 173.88 516.74 177.036 518.91L177.314 519.1L177.188 519.418C175.075 524.706 172.855 530.262 170.503 536.144L170.367 536.487L170.002 536.428C166.512 535.874 162.939 535.306 159.254 534.721L159.713 534.534C157.396 537.648 154.611 540.529 151.414 543.027L151.598 542.546C152.242 546.054 152.899 549.622 153.566 553.255L153.64 553.657L153.264 553.816C147.88 556.121 142.358 558.483 136.704 560.904L136.316 561.068L136.068 560.727C133.967 557.827 131.84 554.892 129.679 551.911L130.191 552.127C126.306 552.695 122.296 552.754 118.302 552.263L118.816 552.032C116.775 554.987 114.714 557.973 112.632 560.989L112.383 561.351L111.975 561.186C106.48 558.981 100.905 556.743 95.2548 554.476L94.8438 554.311L94.9149 553.872C95.2004 552.095 95.4867 550.308 95.7748 548.517L96.2078 545.821L96.4241 544.47L96.5331 543.794L96.5868 543.456L96.6147 543.287L96.6286 543.202L96.6353 543.158L96.6387 543.138L96.64 543.128C97.0716 544.191 96.7588 543.422 96.8544 543.658L96.8518 543.656L96.8478 543.653C93.5723 541.214 90.6826 538.321 88.3618 535.338L88.897 535.542C85.2191 536.212 81.5671 536.878 78.1834 537.493L77.7504 537.573L77.5777 537.169C75.1475 531.467 72.7505 525.844 70.5133 520.598L70.3434 520.198L70.6954 519.943C73.7419 517.744 76.7591 515.567 79.5239 513.57L79.3075 514.081C78.7132 510.001 78.7245 505.895 79.186 502.198L79.4092 502.696C76.3095 500.548 73.2491 498.428 70.463 496.497L70.123 496.265L70.2771 495.881C72.6157 490.082 74.8972 484.422 77.0141 479.175L77.1614 478.806L77.5512 478.869C81.2916 479.478 84.9648 480.073 88.2948 480.613L87.8353 480.798C90.3239 477.469 93.2403 474.595 96.158 472.334L95.9887 472.778C95.3119 469.032 94.6526 465.38 94.0537 462.064L93.992 461.717L94.3119 461.581C100.131 459.115 105.673 456.764 110.896 454.552L111.188 454.426L111.372 454.684C113.603 457.786 115.748 460.769 117.729 463.524L117.382 463.376C121.53 462.788 125.533 462.818 129.219 463.284L128.913 463.423C131.154 460.208 133.25 457.201 135.136 454.495L135.265 454.31L135.472 454.395C142.265 457.171 147.88 459.462 152.15 461.207L152.282 461.262L152.259 461.399C151.664 464.851 151.206 467.511 150.888 469.357C150.728 470.23 150.606 470.907 150.514 471.41C150.426 471.872 150.374 472.112 150.36 472.119" fill="#DADBD8"/>
<path fill-rule="evenodd" clip-rule="evenodd" d="M259.846 593.852C242.492 586.879 222.765 595.292 215.792 612.648C208.819 630.003 217.239 649.723 234.593 656.695C251.951 663.668 271.673 655.252 278.646 637.899C285.619 620.543 277.204 600.824 259.846 593.852V593.852ZM292.479 562.442C298.063 566.613 302.989 571.472 307.181 576.841L325.953 573.413L338.345 602.447L322.883 613.629C323.86 620.369 323.964 627.287 323.111 634.21L338.804 645.055L327.029 674.343L308.196 671.322C304.026 676.908 299.165 681.832 293.791 686.02L297.218 704.792L268.185 717.18L257 701.721C250.257 702.699 243.34 702.796 236.416 701.943L225.573 717.636L196.273 705.867L199.3 687.036C193.711 682.865 188.788 678.006 184.597 672.634L165.822 676.062L153.43 647.028L168.896 635.846C167.917 629.106 167.82 622.19 168.669 615.267L152.979 604.424L164.75 575.131L183.582 578.157C187.753 572.57 192.615 567.645 197.988 563.455L194.559 544.685L223.595 532.295L234.78 547.756C241.521 546.777 248.438 546.679 255.363 547.532L266.206 531.841L295.5 543.611L292.479 562.442" fill="#DADBD8"/>
<path d="M465.799 135.79C461.236 138.047 458.35 142.792 458.382 147.981L459.016 249.049C459.047 253.806 461.529 258.195 465.545 260.59L549.484 310.61L549.525 310.609L629.871 258.528C633.698 256.048 636.004 251.721 635.977 247.083L635.314 141.553C635.28 136.176 632.122 131.337 627.286 129.247L548.153 95.0492L465.799 135.79Z" fill="#5C3CB3"/>
<path d="M549.504 310.61L549.505 310.609L549.504 310.61ZM581.748 289.722L629.871 258.528C633.653 256.077 635.951 251.821 635.977 247.244C636.004 251.869 633.629 256.116 629.747 258.628L581.748 289.722ZM635.961 244.838L635.314 141.553C635.28 136.176 632.121 131.337 627.285 129.247L548.152 95.0492L627.399 129.262C632.201 131.334 635.322 136.052 635.355 141.282L635.961 244.838Z" fill="#C3C5C2"/>
<path d="M552.183 311.089L548.095 95.4884L787.491 129.692C802.121 131.783 811.676 136.623 811.779 142.001L813.738 245.304L813.784 247.703V247.711C813.707 252.289 806.755 256.546 795.313 258.997L649.73 290.197L552.183 311.089Z" fill="#6946C6"/>
<path d="M972.029 529.455H509.934V260.245H972.029V529.455Z" fill="#17282F"/>
<path d="M546.074 515.901C545.829 515.901 545.631 460.852 545.631 392.958C545.631 325.042 545.829 270.002 546.074 270.002C546.318 270.002 546.515 325.042 546.515 392.958C546.515 460.852 546.318 515.901 546.074 515.901" fill="#DADBD8"/>
<path d="M536.573 280.378C536.573 280.623 533.148 280.82 528.922 280.82C524.695 280.82 521.27 280.623 521.27 280.378C521.27 280.134 524.695 279.935 528.922 279.935C533.148 279.935 536.573 280.134 536.573 280.378Z" fill="#DADBD8"/>
<path d="M536.573 296.578C536.573 296.823 533.148 297.021 528.922 297.021C524.695 297.021 521.27 296.823 521.27 296.578C521.27 296.333 524.695 296.136 528.922 296.136C533.148 296.136 536.573 296.333 536.573 296.578Z" fill="#DADBD8"/>
<path d="M536.573 312.782C536.573 313.026 533.148 313.224 528.922 313.224C524.695 313.224 521.27 313.026 521.27 312.782C521.27 312.537 524.695 312.338 528.922 312.338C533.148 312.338 536.573 312.537 536.573 312.782Z" fill="#DADBD8"/>
<path d="M536.573 328.985C536.573 329.23 533.148 329.427 528.922 329.427C524.695 329.427 521.27 329.23 521.27 328.985C521.27 328.74 524.695 328.543 528.922 328.543C533.148 328.543 536.573 328.74 536.573 328.985Z" fill="#DADBD8"/>
<path d="M536.573 345.187C536.573 345.432 533.148 345.631 528.922 345.631C524.695 345.631 521.27 345.432 521.27 345.187C521.27 344.944 524.695 344.745 528.922 344.745C533.148 344.745 536.573 344.944 536.573 345.187Z" fill="#DADBD8"/>
<path d="M536.573 361.391C536.573 361.636 533.148 361.833 528.922 361.833C524.695 361.833 521.27 361.636 521.27 361.391C521.27 361.146 524.695 360.948 528.922 360.948C533.148 360.948 536.573 361.146 536.573 361.391Z" fill="#DADBD8"/>
<path d="M536.573 377.593C536.573 377.837 533.148 378.036 528.922 378.036C524.695 378.036 521.27 377.837 521.27 377.593C521.27 377.348 524.695 377.151 528.922 377.151C533.148 377.151 536.573 377.348 536.573 377.593Z" fill="#DADBD8"/>
<path d="M536.573 393.798C536.573 394.043 533.148 394.24 528.922 394.24C524.695 394.24 521.27 394.043 521.27 393.798C521.27 393.554 524.695 393.355 528.922 393.355C533.148 393.355 536.573 393.554 536.573 393.798Z" fill="#DADBD8"/>
<path d="M536.573 410C536.573 410.244 533.148 410.441 528.922 410.441C524.695 410.441 521.27 410.244 521.27 410C521.27 409.755 524.695 409.556 528.922 409.556C533.148 409.556 536.573 409.755 536.573 410Z" fill="#DADBD8"/>
<path d="M536.573 426.204C536.573 426.447 533.148 426.646 528.922 426.646C524.695 426.646 521.27 426.447 521.27 426.204C521.27 425.957 524.695 425.76 528.922 425.76C533.148 425.76 536.573 425.957 536.573 426.204Z" fill="#DADBD8"/>
<path d="M536.573 442.408C536.573 442.652 533.148 442.85 528.922 442.85C524.695 442.85 521.27 442.652 521.27 442.408C521.27 442.165 524.695 441.964 528.922 441.964C533.148 441.964 536.573 442.165 536.573 442.408Z" fill="#DADBD8"/>
<path d="M536.573 458.607C536.573 458.852 533.148 459.051 528.922 459.051C524.695 459.051 521.27 458.852 521.27 458.607C521.27 458.364 524.695 458.165 528.922 458.165C533.148 458.165 536.573 458.364 536.573 458.607Z" fill="#DADBD8"/>
<path d="M536.573 474.813C536.573 475.058 533.148 475.255 528.922 475.255C524.695 475.255 521.27 475.058 521.27 474.813C521.27 474.568 524.695 474.371 528.922 474.371C533.148 474.371 536.573 474.568 536.573 474.813Z" fill="#DADBD8"/>
<path d="M536.573 491.015C536.573 491.26 533.148 491.457 528.922 491.457C524.695 491.457 521.27 491.26 521.27 491.015C521.27 490.77 524.695 490.573 528.922 490.573C533.148 490.573 536.573 490.77 536.573 491.015Z" fill="#DADBD8"/>
<path d="M536.573 507.218C536.573 507.461 533.148 507.66 528.922 507.66C524.695 507.66 521.27 507.461 521.27 507.218C521.27 506.972 524.695 506.775 528.922 506.775C533.148 506.775 536.573 506.972 536.573 507.218Z" fill="#DADBD8"/>
<path d="M597.913 279.423C597.913 279.668 589.023 279.865 578.057 279.865C567.087 279.865 558.196 279.668 558.196 279.423C558.196 279.179 567.087 278.98 578.057 278.98C589.023 278.98 597.913 279.179 597.913 279.423Z" fill="#F03D5F"/>
<path d="M597.913 507.218C597.913 507.461 589.023 507.66 578.057 507.66C567.087 507.66 558.196 507.461 558.196 507.218C558.196 506.972 567.087 506.775 578.057 506.775C589.023 506.775 597.913 506.972 597.913 507.218Z" fill="#F03D5F"/>
<path d="M653.221 312.782C653.221 313.026 636.585 313.224 616.069 313.224C595.545 313.224 578.912 313.026 578.912 312.782C578.912 312.537 595.545 312.338 616.069 312.338C636.585 312.338 653.221 312.537 653.221 312.782Z" fill="#F03D5F"/>
<path d="M739.149 312.782C739.149 313.026 722.514 313.224 701.997 313.224C681.471 313.224 664.84 313.026 664.84 312.782C664.84 312.537 681.471 312.338 701.997 312.338C722.514 312.338 739.149 312.537 739.149 312.782Z" fill="#DADBD8"/>
<path d="M706.309 328.985C706.309 329.23 681.79 329.427 651.555 329.427C621.308 329.427 596.796 329.23 596.796 328.985C596.796 328.74 621.308 328.543 651.555 328.543C681.79 328.543 706.309 328.74 706.309 328.985Z" fill="#DADBD8"/>
<path d="M706.309 345.187C706.309 345.432 681.79 345.631 651.555 345.631C621.308 345.631 596.796 345.432 596.796 345.187C596.796 344.944 621.308 344.745 651.555 344.745C681.79 344.745 706.309 344.944 706.309 345.187Z" fill="#DADBD8"/>
<path d="M781.69 393.798C781.69 394.043 757.175 394.24 726.938 394.24C696.691 394.24 672.179 394.043 672.179 393.798C672.179 393.554 696.691 393.355 726.938 393.355C757.175 393.355 781.69 393.554 781.69 393.798Z" fill="#DADBD8"/>
<path d="M749.162 361.391C749.162 361.636 724.645 361.833 694.409 361.833C664.162 361.833 639.65 361.636 639.65 361.391C639.65 361.146 664.162 360.948 694.409 360.948C724.645 360.948 749.162 361.146 749.162 361.391Z" fill="#DADBD8"/>
<path d="M882.984 361.391C882.984 361.636 858.467 361.833 828.232 361.833C797.984 361.833 773.473 361.636 773.473 361.391C773.473 361.146 797.984 360.948 828.232 360.948C858.467 360.948 882.984 361.146 882.984 361.391Z" fill="#DADBD8"/>
<path d="M836.443 328.985C836.443 329.23 811.928 329.427 781.689 329.427C751.444 329.427 726.934 329.23 726.934 328.985C726.934 328.74 751.444 328.543 781.689 328.543C811.928 328.543 836.443 328.74 836.443 328.985Z" fill="#FAFAF9"/>
<path d="M912.091 393.798C912.091 394.043 887.574 394.24 857.337 394.24C827.09 394.24 802.58 394.043 802.58 393.798C802.58 393.554 827.09 393.355 857.337 393.355C887.574 393.355 912.091 393.554 912.091 393.798Z" fill="#FAFAF9"/>
<path d="M896.985 345.187C896.985 345.432 858.913 345.631 811.962 345.631C764.995 345.631 726.934 345.432 726.934 345.187C726.934 344.944 764.995 344.745 811.962 344.745C858.913 344.745 896.985 344.944 896.985 345.187Z" fill="#33535F"/>
<path d="M597.913 296.578C597.913 296.823 589.023 297.021 578.057 297.021C567.087 297.021 558.196 296.823 558.196 296.578C558.196 296.333 567.087 296.136 578.057 296.136C589.023 296.136 597.913 296.333 597.913 296.578Z" fill="#FAFAF9"/>
<path d="M597.913 491.015C597.913 491.26 589.023 491.457 578.057 491.457C567.087 491.457 558.196 491.26 558.196 491.015C558.196 490.77 567.087 490.573 578.057 490.573C589.023 490.573 597.913 490.77 597.913 491.015Z" fill="#FAFAF9"/>
<path d="M617.587 361.391C617.587 361.636 608.697 361.833 597.731 361.833C586.762 361.833 577.872 361.636 577.872 361.391C577.872 361.146 586.762 360.948 597.731 360.948C608.697 360.948 617.587 361.146 617.587 361.391Z" fill="#FAFAF9"/>
<path d="M935.899 361.391C935.899 361.636 927.008 361.833 916.043 361.833C905.072 361.833 896.182 361.636 896.182 361.391C896.182 361.146 905.072 360.948 916.043 360.948C927.008 360.948 935.899 361.146 935.899 361.391Z" fill="#F03D5F"/>
<path d="M653.221 426.105C653.221 426.35 636.585 426.549 616.069 426.549C595.545 426.549 578.912 426.35 578.912 426.105C578.912 425.862 595.545 425.663 616.069 425.663C636.585 425.663 653.221 425.862 653.221 426.105Z" fill="#F03D5F"/>
<path d="M739.149 426.105C739.149 426.35 722.514 426.549 701.997 426.549C681.471 426.549 664.84 426.35 664.84 426.105C664.84 425.862 681.471 425.663 701.997 425.663C722.514 425.663 739.149 425.862 739.149 426.105Z" fill="#DADBD8"/>
<path d="M706.309 442.309C706.309 442.556 681.79 442.753 651.555 442.753C621.308 442.753 596.796 442.556 596.796 442.309C596.796 442.066 621.308 441.869 651.555 441.869C681.79 441.869 706.309 442.066 706.309 442.309Z" fill="#DADBD8"/>
<path d="M706.309 458.514C706.309 458.757 681.79 458.954 651.555 458.954C621.308 458.954 596.796 458.757 596.796 458.514C596.796 458.267 621.308 458.07 651.555 458.07C681.79 458.07 706.309 458.267 706.309 458.514Z" fill="#DADBD8"/>
<path d="M749.162 474.716C749.162 474.959 724.645 475.158 694.409 475.158C664.162 475.158 639.65 474.959 639.65 474.716C639.65 474.472 664.162 474.273 694.409 474.273C724.645 474.273 749.162 474.472 749.162 474.716Z" fill="#DADBD8"/>
<path d="M882.984 474.716C882.984 474.959 858.467 475.158 828.232 475.158C797.984 475.158 773.473 474.959 773.473 474.716C773.473 474.472 797.984 474.273 828.232 474.273C858.467 474.273 882.984 474.472 882.984 474.716Z" fill="#DADBD8"/>
<path d="M836.443 442.309C836.443 442.556 811.928 442.753 781.689 442.753C751.444 442.753 726.934 442.556 726.934 442.309C726.934 442.066 751.444 441.869 781.689 441.869C811.928 441.869 836.443 442.066 836.443 442.309Z" fill="#FAFAF9"/>
<path d="M896.985 458.514C896.985 458.757 858.913 458.954 811.962 458.954C764.995 458.954 726.934 458.757 726.934 458.514C726.934 458.267 764.995 458.07 811.962 458.07C858.913 458.07 896.985 458.267 896.985 458.514Z" fill="#33535F"/>
<path d="M617.587 474.716C617.587 474.959 608.697 475.158 597.731 475.158C586.762 475.158 577.872 474.959 577.872 474.716C577.872 474.472 586.762 474.273 597.731 474.273C608.697 474.273 617.587 474.472 617.587 474.716Z" fill="#FAFAF9"/>
<path d="M935.899 474.716C935.899 474.959 927.008 475.158 916.043 475.158C905.072 475.158 896.182 474.959 896.182 474.716C896.182 474.472 905.072 474.273 916.043 474.273C927.008 474.273 935.899 474.472 935.899 474.716Z" fill="#F03D5F"/>
<path d="M759.622 745.44H278.901C265.224 745.44 254.138 734.356 254.138 720.683V408.022C254.138 400.746 260.038 394.848 267.313 394.848H772.927C779.255 394.848 784.384 399.976 784.384 406.302V720.683C784.384 734.356 773.297 745.44 759.622 745.44" fill="#33535F"/>
<path d="M783.122 750.188H255.289C242.408 750.188 231.966 739.747 231.966 726.867V719.513H806.446V726.867C806.446 739.747 796.003 750.188 783.122 750.188Z" fill="#33535F"/>
<path d="M768.666 704.849H268.369V408.778H768.666V704.849Z" fill="#DADBD8"/>
<path d="M466.988 719.512L474.117 730.851H574.429L581.048 719.512H466.988Z" fill="#17282F"/>
<path d="M784.47 721.099H254.224V719.41H784.47V721.099Z" fill="#17282F"/>
<path d="M755.029 704.849H283.214V425.932H755.029V704.849Z" fill="#17282F"/>
<path d="M319.413 696.662C319.169 696.662 318.971 637.258 318.971 563.995C318.971 490.709 319.169 431.318 319.413 431.318C319.656 431.318 319.855 490.709 319.855 563.995C319.855 637.258 319.656 696.662 319.413 696.662Z" fill="#DADBD8"/>
<path d="M309.899 455.371C309.899 455.615 306.467 455.812 302.234 455.812C298.001 455.812 294.569 455.615 294.569 455.371C294.569 455.128 298.001 454.927 302.234 454.927C306.467 454.927 309.899 455.128 309.899 455.371Z" fill="#DADBD8"/>
<path d="M310.487 440.313C310.487 440.558 307.055 440.755 302.825 440.755C298.59 440.755 295.158 440.558 295.158 440.313C295.158 440.068 298.59 439.871 302.825 439.871C307.055 439.871 310.487 440.068 310.487 440.313Z" fill="#DADBD8"/>
<path d="M309.899 471.598C309.899 471.841 306.467 472.04 302.234 472.04C298.001 472.04 294.569 471.841 294.569 471.598C294.569 471.352 298.001 471.155 302.234 471.155C306.467 471.155 309.899 471.352 309.899 471.598Z" fill="#DADBD8"/>
<path d="M309.899 487.83C309.899 488.073 306.467 488.271 302.234 488.271C298.001 488.271 294.569 488.073 294.569 487.83C294.569 487.584 298.001 487.387 302.234 487.387C306.467 487.387 309.899 487.584 309.899 487.83Z" fill="#DADBD8"/>
<path d="M309.899 504.058C309.899 504.301 306.467 504.498 302.234 504.498C298.001 504.498 294.569 504.301 294.569 504.058C294.569 503.811 298.001 503.614 302.234 503.614C306.467 503.614 309.899 503.811 309.899 504.058Z" fill="#DADBD8"/>
<path d="M309.899 520.287C309.899 520.531 306.467 520.729 302.234 520.729C298.001 520.729 294.569 520.531 294.569 520.287C294.569 520.042 298.001 519.845 302.234 519.845C306.467 519.845 309.899 520.042 309.899 520.287Z" fill="#DADBD8"/>
<path d="M309.899 536.512C309.899 536.759 306.467 536.956 302.234 536.956C298.001 536.956 294.569 536.759 294.569 536.512C294.569 536.269 298.001 536.071 302.234 536.071C306.467 536.071 309.899 536.269 309.899 536.512Z" fill="#DADBD8"/>
<path d="M309.899 552.743C309.899 552.989 306.467 553.187 302.234 553.187C298.001 553.187 294.569 552.989 294.569 552.743C294.569 552.498 298.001 552.301 302.234 552.301C306.467 552.301 309.899 552.498 309.899 552.743Z" fill="#DADBD8"/>
<path d="M309.899 568.97C309.899 569.215 306.467 569.414 302.234 569.414C298.001 569.414 294.569 569.215 294.569 568.97C294.569 568.726 298.001 568.529 302.234 568.529C306.467 568.529 309.899 568.726 309.899 568.97Z" fill="#DADBD8"/>
<path d="M309.899 585.201C309.899 585.446 306.467 585.643 302.234 585.643C298.001 585.643 294.569 585.446 294.569 585.201C294.569 584.956 298.001 584.759 302.234 584.759C306.467 584.759 309.899 584.956 309.899 585.201Z" fill="#DADBD8"/>
<path d="M309.899 601.433C309.899 601.676 306.467 601.875 302.234 601.875C298.001 601.875 294.569 601.676 294.569 601.433C294.569 601.189 298.001 600.991 302.234 600.991C306.467 600.991 309.899 601.189 309.899 601.433Z" fill="#DADBD8"/>
<path d="M309.899 617.659C309.899 617.904 306.467 618.103 302.234 618.103C298.001 618.103 294.569 617.904 294.569 617.659C294.569 617.416 298.001 617.218 302.234 617.218C306.467 617.218 309.899 617.416 309.899 617.659Z" fill="#DADBD8"/>
<path d="M309.899 633.889C309.899 634.134 306.467 634.333 302.234 634.333C298.001 634.333 294.569 634.134 294.569 633.889C294.569 633.647 298.001 633.445 302.234 633.445C306.467 633.445 309.899 633.647 309.899 633.889Z" fill="#DADBD8"/>
<path d="M309.899 650.117C309.899 650.362 306.467 650.561 302.234 650.561C298.001 650.561 294.569 650.362 294.569 650.117C294.569 649.872 298.001 649.673 302.234 649.673C306.467 649.673 309.899 649.872 309.899 650.117Z" fill="#DADBD8"/>
<path d="M309.899 666.349C309.899 666.592 306.467 666.791 302.234 666.791C298.001 666.791 294.569 666.592 294.569 666.349C294.569 666.104 298.001 665.905 302.234 665.905C306.467 665.905 309.899 666.104 309.899 666.349Z" fill="#DADBD8"/>
<path d="M309.899 682.576C309.899 682.819 306.467 683.017 302.234 683.017C298.001 683.017 294.569 682.819 294.569 682.576C294.569 682.332 298.001 682.133 302.234 682.133C306.467 682.133 309.899 682.332 309.899 682.576Z" fill="#DADBD8"/>
<path d="M371.336 454.413C371.336 454.656 362.43 454.854 351.447 454.854C340.459 454.854 331.556 454.656 331.556 454.413C331.556 454.168 340.459 453.971 351.447 453.971C362.43 453.971 371.336 454.168 371.336 454.413Z" fill="#F03D5F"/>
<path d="M371.336 682.576C371.336 682.819 362.43 683.017 351.447 683.017C340.459 683.017 331.556 682.819 331.556 682.576C331.556 682.332 340.459 682.133 351.447 682.133C362.43 682.133 371.336 682.332 371.336 682.576Z" fill="#F03D5F"/>
<path d="M426.734 487.83C426.734 488.073 410.071 488.271 389.521 488.271C368.963 488.271 352.305 488.073 352.305 487.83C352.305 487.584 368.963 487.387 389.521 487.387C410.071 487.387 426.734 487.584 426.734 487.83Z" fill="#F03D5F"/>
<path d="M512.796 487.83C512.796 488.073 496.134 488.271 475.583 488.271C455.026 488.271 438.366 488.073 438.366 487.83C438.366 487.584 455.026 487.387 475.583 487.387C496.134 487.387 512.796 487.584 512.796 487.83Z" fill="#DADBD8"/>
<path d="M479.905 504.058C479.905 504.301 455.349 504.498 425.064 504.498C394.768 504.498 370.217 504.301 370.217 504.058C370.217 503.811 394.768 503.614 425.064 503.614C455.349 503.614 479.905 503.811 479.905 504.058Z" fill="#DADBD8"/>
<path d="M479.905 520.287C479.905 520.531 455.349 520.729 425.064 520.729C394.768 520.729 370.217 520.531 370.217 520.287C370.217 520.042 394.768 519.845 425.064 519.845C455.349 519.845 479.905 520.042 479.905 520.287Z" fill="#DADBD8"/>
<path d="M555.406 568.97C555.406 569.215 530.85 569.414 500.565 569.414C470.269 569.414 445.72 569.215 445.72 568.97C445.72 568.726 470.269 568.529 500.565 568.529C530.85 568.529 555.406 568.726 555.406 568.97Z" fill="#DADBD8"/>
<path d="M522.825 536.512C522.825 536.759 498.269 536.956 467.984 536.956C437.688 536.956 413.139 536.759 413.139 536.512C413.139 536.269 437.688 536.071 467.984 536.071C498.269 536.071 522.825 536.269 522.825 536.512Z" fill="#DADBD8"/>
<path d="M656.867 536.512C656.867 536.759 632.311 536.956 602.024 536.956C571.73 536.956 547.179 536.759 547.179 536.512C547.179 536.269 571.73 536.071 602.024 536.071C632.311 536.071 656.867 536.269 656.867 536.512Z" fill="#DADBD8"/>
<path d="M610.249 504.058C610.249 504.301 585.693 504.498 555.409 504.498C525.114 504.498 500.562 504.301 500.562 504.058C500.562 503.811 525.114 503.614 555.409 503.614C585.693 503.614 610.249 503.811 610.249 504.058Z" fill="#FAFAF9"/>
<path d="M686.016 568.97C686.016 569.215 661.46 569.414 631.177 569.414C600.879 569.414 576.33 569.215 576.33 568.97C576.33 568.726 600.879 568.529 631.177 568.529C661.46 568.529 686.016 568.726 686.016 568.97Z" fill="#FAFAF9"/>
<path d="M670.888 520.287C670.888 520.531 632.755 520.729 585.729 520.729C538.686 520.729 500.562 520.531 500.562 520.287C500.562 520.042 538.686 519.845 585.729 519.845C632.755 519.845 670.888 520.042 670.888 520.287" fill="#33535F"/>
<path d="M371.336 471.598C371.336 471.841 362.43 472.04 351.447 472.04C340.459 472.04 331.556 471.841 331.556 471.598C331.556 471.352 340.459 471.155 351.447 471.155C362.43 471.155 371.336 471.352 371.336 471.598Z" fill="#FAFAF9"/>
<path d="M371.336 666.349C371.336 666.592 362.43 666.791 351.447 666.791C340.459 666.791 331.556 666.592 331.556 666.349C331.556 666.104 340.459 665.905 351.447 665.905C362.43 665.905 371.336 666.104 371.336 666.349Z" fill="#FAFAF9"/>
<path d="M391.04 536.512C391.04 536.759 382.134 536.956 371.151 536.956C360.164 536.956 351.26 536.759 351.26 536.512C351.26 536.269 360.164 536.071 371.151 536.071C382.134 536.071 391.04 536.269 391.04 536.512Z" fill="#FAFAF9"/>
<path d="M709.865 536.512C709.865 536.759 700.957 536.956 689.973 536.956C678.987 536.956 670.083 536.759 670.083 536.512C670.083 536.269 678.987 536.071 689.973 536.071C700.957 536.071 709.865 536.269 709.865 536.512Z" fill="#F03D5F"/>
<path d="M426.734 601.336C426.734 601.579 410.071 601.778 389.521 601.778C368.963 601.778 352.305 601.579 352.305 601.336C352.305 601.09 368.963 600.893 389.521 600.893C410.071 600.893 426.734 601.09 426.734 601.336Z" fill="#F03D5F"/>
<path d="M512.796 601.336C512.796 601.579 496.134 601.778 475.583 601.778C455.026 601.778 438.366 601.579 438.366 601.336C438.366 601.09 455.026 600.893 475.583 600.893C496.134 600.893 512.796 601.09 512.796 601.336Z" fill="#DADBD8"/>
<path d="M479.905 617.564C479.905 617.809 455.349 618.006 425.064 618.006C394.768 618.006 370.217 617.809 370.217 617.564C370.217 617.319 394.768 617.122 425.064 617.122C455.349 617.122 479.905 617.319 479.905 617.564Z" fill="#DADBD8"/>
<path d="M479.905 633.794C479.905 634.039 455.349 634.236 425.064 634.236C394.768 634.236 370.217 634.039 370.217 633.794C370.217 633.55 394.768 633.353 425.064 633.353C455.349 633.353 479.905 633.55 479.905 633.794Z" fill="#DADBD8"/>
<path d="M522.825 650.023C522.825 650.27 498.269 650.467 467.984 650.467C437.688 650.467 413.139 650.27 413.139 650.023C413.139 649.78 437.688 649.583 467.984 649.583C498.269 649.583 522.825 649.78 522.825 650.023Z" fill="#DADBD8"/>
<path d="M656.867 650.023C656.867 650.27 632.311 650.467 602.024 650.467C571.73 650.467 547.179 650.27 547.179 650.023C547.179 649.78 571.73 649.583 602.024 649.583C632.311 649.583 656.867 649.78 656.867 650.023Z" fill="#DADBD8"/>
<path d="M610.249 617.564C610.249 617.809 585.693 618.006 555.409 618.006C525.114 618.006 500.562 617.809 500.562 617.564C500.562 617.319 525.114 617.122 555.409 617.122C585.693 617.122 610.249 617.319 610.249 617.564Z" fill="#FAFAF9"/>
<path d="M670.888 633.794C670.888 634.039 632.755 634.236 585.729 634.236C538.686 634.236 500.562 634.039 500.562 633.794C500.562 633.55 538.686 633.353 585.729 633.353C632.755 633.353 670.888 633.55 670.888 633.794" fill="#33535F"/>
<path d="M391.04 650.023C391.04 650.27 382.134 650.467 371.151 650.467C360.164 650.467 351.26 650.27 351.26 650.023C351.26 649.78 360.164 649.583 371.151 649.583C382.134 649.583 391.04 649.78 391.04 650.023Z" fill="#FAFAF9"/>
<path d="M709.865 650.023C709.865 650.27 700.957 650.467 689.973 650.467C678.987 650.467 670.083 650.27 670.083 650.023C670.083 649.78 678.987 649.583 689.973 649.583C700.957 649.583 709.865 649.78 709.865 650.023Z" fill="#F03D5F"/>
<path d="M1114.33 750.207C1114.33 750.452 866.648 750.649 561.191 750.649C255.63 750.649 8.00391 750.452 8.00391 750.207C8.00391 749.962 255.63 749.765 561.191 749.765C866.648 749.765 1114.33 749.962 1114.33 750.207Z" fill="#17282F"/>
<path d="M890.393 654.283L897.169 675.511C899.769 684.279 907.125 690.869 916.214 692.573L961.534 701.076L973.861 700.682L961.534 685.423L927.465 673.81C924.122 673.073 921.47 670.555 920.593 667.285L907.031 637.785L889.853 648.319L890.393 654.283" fill="#F8A58D"/>
<path d="M857.929 511.705C858.3 508.463 857.142 505.097 855.381 502.295C853.657 499.555 851.13 497.043 847.932 496.543C844.3 495.977 840.553 498.365 839.11 501.746C837.667 505.126 838.367 509.205 840.47 512.22C841.556 513.782 842.982 515.067 844.594 516.082C839.906 519.192 836.166 523.75 834.325 529.073C833.701 530.877 833.274 532.753 832.486 534.492C831.697 536.229 830.473 537.866 828.731 538.646C827.449 539.218 825.997 539.285 824.68 539.772C822.455 540.595 820.77 542.64 820.206 544.944C819.643 547.249 820.153 549.758 821.416 551.768C822.049 552.774 822.89 553.752 822.944 554.938C822.98 555.742 822.645 556.508 822.457 557.29C821.819 559.945 823.086 562.946 825.433 564.343C827.781 565.742 831.02 565.423 833.052 563.597C833.903 565.56 835.039 567.583 836.97 568.504C838.903 569.427 841.752 568.598 842.154 566.497C843.115 568.513 845.517 569.729 847.711 569.313C849.908 568.897 851.696 566.883 851.85 564.656L888.395 524.695C882.941 510.077 861.611 511.367 857.929 511.705" fill="#444444"/>
<path d="M851.739 525.602C849.388 525.852 847.617 527.859 847.663 530.223L850.245 591.751C850.342 599.018 863.529 607.609 871.31 607.446C879.166 607.279 876.856 598.943 876.97 592.029C877.161 580.48 877.155 576.146 877.161 576.213C877.161 576.213 887.088 574.564 889.144 561.611C890.168 555.172 889.843 544.61 889.301 535.978C888.811 528.208 883.662 518.673 875.918 519.494L851.739 525.602" fill="#F8A58D"/>
<path d="M885.938 544.361C885.968 545.238 885.251 545.988 884.335 546.039C883.422 546.086 882.654 545.418 882.623 544.54C882.592 543.663 883.31 542.913 884.224 542.864C885.139 542.813 885.907 543.484 885.938 544.361Z" fill="#17282F"/>
<path d="M887.008 541.471C886.803 541.687 885.545 540.756 883.756 540.761C881.972 540.741 880.659 541.66 880.465 541.443C880.37 541.344 880.579 540.955 881.15 540.537C881.713 540.124 882.674 539.721 883.787 539.726C884.9 539.731 885.837 540.141 886.374 540.56C886.925 540.982 887.11 541.375 887.008 541.471Z" fill="#17282F"/>
<path d="M868.458 544.361C868.491 545.238 867.773 545.988 866.857 546.039C865.944 546.086 865.178 545.418 865.145 544.54C865.115 543.663 865.83 542.913 866.747 542.864C867.661 542.813 868.43 543.484 868.458 544.361Z" fill="#17282F"/>
<path d="M869.439 541.806C869.23 542.02 867.971 541.09 866.186 541.095C864.401 541.073 863.087 541.993 862.893 541.775C862.798 541.677 863.006 541.287 863.58 540.871C864.141 540.456 865.101 540.054 866.215 540.059C867.328 540.065 868.265 540.473 868.804 540.893C869.353 541.315 869.54 541.707 869.439 541.806" fill="#17282F"/>
<path d="M875.927 555.059C875.919 554.959 877.029 554.765 878.83 554.537C879.288 554.488 879.718 554.399 879.796 554.087C879.905 553.757 879.713 553.266 879.492 552.734C879.063 551.629 878.613 550.472 878.142 549.258C876.267 544.311 874.909 540.242 875.109 540.169C875.31 540.094 876.991 544.046 878.864 548.993C879.317 550.213 879.748 551.376 880.158 552.491C880.333 553.007 880.631 553.596 880.396 554.28C880.274 554.622 879.937 554.869 879.645 554.948C879.354 555.039 879.096 555.044 878.87 555.055C877.058 555.152 875.934 555.161 875.927 555.059" fill="#17282F"/>
<path d="M877.161 576.214C877.161 576.214 868.446 576.775 859.811 571.586C859.811 571.586 864.021 580.484 876.986 579.27L877.161 576.214Z" fill="#F68260"/>
<path d="M875.171 559.367C874.527 558.517 873.402 558.05 872.281 558.171C871.506 558.254 870.721 558.628 870.252 559.26C869.781 559.892 869.68 560.788 870.109 561.391C870.592 562.068 871.6 562.226 872.453 561.985C873.306 561.741 874.041 561.179 874.738 560.62C874.931 560.465 875.127 560.304 875.249 560.091C875.37 559.879 875.394 559.602 875.246 559.427" fill="#F68260"/>
<path d="M870.666 556.298C870.956 556.281 870.96 558.222 872.622 559.598C874.278 560.98 876.346 560.763 876.363 561.033C876.389 561.154 875.901 561.41 875.029 561.432C874.172 561.463 872.921 561.188 871.907 560.346C870.892 559.502 870.457 558.375 870.39 557.579C870.315 556.767 870.533 556.286 870.666 556.298Z" fill="#17282F"/>
<path d="M870.239 538.676C870.064 539.162 868.279 538.931 866.182 539.184C864.079 539.395 862.387 540.008 862.109 539.573C861.985 539.364 862.28 538.907 862.964 538.436C863.64 537.967 864.723 537.52 865.981 537.379C867.242 537.243 868.393 537.442 869.158 537.753C869.928 538.062 870.316 538.445 870.239 538.676Z" fill="#313131"/>
<path d="M886.353 536.299C886.038 536.707 884.808 536.284 883.325 536.265C881.845 536.193 880.59 536.537 880.303 536.112C880.175 535.906 880.373 535.5 880.922 535.114C881.462 534.732 882.365 534.419 883.383 534.45C884.4 534.482 885.282 534.851 885.797 535.265C886.319 535.684 886.492 536.102 886.353 536.299" fill="#313131"/>
<path d="M849.096 546.319C848.116 545.638 846.742 545.891 845.71 546.488C843.329 547.864 842.146 551.012 843.028 553.616C843.912 556.22 846.768 557.996 849.494 557.64" fill="#F8A58D"/>
<path d="M869.461 515.179C874.183 515.335 877.763 516.771 881.907 519.038C886.052 521.306 889.516 525.046 890.792 529.593C891.063 530.558 891.217 531.66 890.689 532.511C889.99 533.634 888.343 533.821 887.136 533.276C885.929 532.732 885.064 531.653 884.245 530.613C883.633 532.989 881.275 534.795 878.82 534.768C876.368 534.739 874.049 532.883 873.49 530.492C873.471 532.978 870.982 535.035 868.497 534.945C866.012 534.856 863.811 532.939 862.985 530.594C862.521 532.805 862.028 535.088 860.705 536.918C859.383 538.749 856.988 540.006 854.841 539.306C855.145 541.237 855.441 543.269 854.756 545.098C854.071 546.929 852.036 548.411 850.188 547.775C848.395 547.16 847.698 545.035 847.276 543.184C846.469 539.615 845.775 535.985 845.889 532.327C846.003 528.672 846.982 524.953 849.224 522.062C851.545 519.072 855.06 517.176 858.72 516.21C862.379 515.245 866.208 515.136 869.993 515.184" fill="#444444"/>
<path d="M848.193 553.776C848.156 553.686 847.69 553.888 847.063 553.601C846.447 553.355 845.888 552.446 845.953 551.387C845.988 550.314 846.684 549.544 847.335 549.311C847.981 549.045 848.46 549.174 848.486 549.075C848.531 549.011 848.047 548.667 847.192 548.858C846.779 548.955 846.299 549.201 845.926 549.648C845.553 550.09 845.312 550.702 845.283 551.353C845.188 552.658 846.007 553.844 846.903 554.048C847.783 554.278 848.261 553.831 848.193 553.776" fill="#F68260"/>
<path d="M843.267 554.449C843.258 554.427 843.076 554.478 842.735 554.593C842.39 554.707 841.895 554.913 841.29 555.241C840.097 555.888 838.361 557.061 837.071 559.226C836.439 560.299 835.952 561.636 835.913 563.125C835.844 564.614 836.228 566.198 836.991 567.675C837.77 569.142 838.939 570.498 840.438 571.518C841.931 572.533 843.772 573.206 845.715 573.216C849.641 573.214 852.992 570.702 854.465 567.748C855.247 566.27 855.49 564.633 855.385 563.163C855.246 561.686 854.759 560.369 854.136 559.293C852.868 557.121 851.112 555.922 849.849 555.397C849.215 555.12 848.689 554.979 848.334 554.926C847.975 554.869 847.787 554.848 847.782 554.872C847.766 554.943 848.531 555.042 849.738 555.633C850.93 556.215 852.567 557.427 853.721 559.524C854.289 560.567 854.722 561.822 854.831 563.205C854.904 564.582 854.659 566.093 853.915 567.466C852.514 570.214 849.337 572.551 845.718 572.544C842.087 572.522 838.988 570.104 837.538 567.385C835.997 564.616 836.265 561.492 837.484 559.459C838.655 557.376 840.289 556.169 841.421 555.469C842.575 554.767 843.291 554.508 843.267 554.449" fill="#17282F"/>
<path d="M853.96 514.307C853.821 514.336 853.559 513.179 852.752 511.489C851.958 509.805 850.511 507.602 848.285 505.845C846.058 504.087 843.578 503.195 841.756 502.814C839.923 502.424 838.735 502.439 838.732 502.294C838.721 502.196 839.92 501.953 841.863 502.199C843.787 502.432 846.462 503.28 848.832 505.15C851.203 507.021 852.652 509.424 853.326 511.241C854.017 513.071 854.059 514.293 853.96 514.307Z" fill="#DADBD8"/>
<path d="M824.183 563.506C824.173 563.523 823.966 563.426 823.724 563.081C823.486 562.743 823.274 562.104 823.418 561.312C823.527 560.515 824.1 559.607 825.013 558.961C825.908 558.285 827.093 557.843 828.227 557.192C829.385 556.577 830.384 555.491 830.466 553.988C830.563 552.499 829.99 550.885 829.59 549.119C829.393 548.233 829.225 547.278 829.318 546.269C829.403 545.264 829.815 544.221 830.532 543.437C831.975 541.857 834.056 541.17 836.004 540.563C837.93 539.951 839.856 539.229 840.889 537.747C841.947 536.277 841.889 534.356 841.702 532.628C841.503 530.882 841.212 529.147 841.357 527.504C841.465 525.87 841.901 524.392 842.434 523.12C843.529 520.571 845.086 518.88 846.268 517.92C846.852 517.427 847.354 517.1 847.704 516.907C848.056 516.711 848.248 516.621 848.263 516.647C848.307 516.716 847.585 517.153 846.495 518.176C845.414 519.193 843.99 520.887 843.014 523.358C842.54 524.589 842.162 526.006 842.089 527.553C841.984 529.096 842.281 530.74 842.513 532.536C842.718 534.287 842.856 536.447 841.6 538.245C840.344 540.035 838.209 540.781 836.272 541.406C834.319 542.003 832.404 542.677 831.18 544.015C829.92 545.348 829.995 547.261 830.388 548.947C830.741 550.659 831.334 552.329 831.195 554.051C831.125 554.908 830.779 555.713 830.292 556.351C829.782 556.981 829.145 557.404 828.536 557.738C827.302 558.392 826.153 558.774 825.298 559.366C824.428 559.935 823.906 560.676 823.756 561.381C823.41 562.848 824.278 563.484 824.183 563.506" fill="#DADBD8"/>
<path d="M870.357 530.076C870.211 530.09 870.095 528.708 869.416 526.629C868.749 524.561 867.388 521.792 865.038 519.449C862.687 517.105 859.915 515.748 857.845 515.089C855.764 514.413 854.382 514.304 854.396 514.158C854.394 514.061 855.81 513.945 858.018 514.487C860.206 515.014 863.182 516.347 865.664 518.821C868.144 521.296 869.484 524.267 870.016 526.454C870.566 528.66 870.452 530.076 870.357 530.076" fill="#DADBD8"/>
<path d="M880.799 524.399C880.637 524.457 880.234 522.672 878.548 520.395C876.906 518.124 873.785 515.512 869.672 514.217C865.546 512.93 861.529 513.054 858.709 513.343C855.869 513.642 854.128 514.045 854.094 513.904C854.069 513.809 855.758 513.189 858.629 512.723C861.473 512.272 865.622 512.029 869.938 513.374C874.259 514.73 877.482 517.568 879.061 520.034C879.867 521.267 880.34 522.368 880.566 523.152C880.8 523.937 880.85 524.385 880.799 524.399" fill="#DADBD8"/>
<path d="M858.19 511.057C858.273 511.116 857.867 511.913 856.866 512.943C855.873 513.973 854.226 515.168 852.15 515.913C850.07 516.65 848.037 516.768 846.617 516.598C845.191 516.433 844.37 516.074 844.397 515.974C844.429 515.702 847.906 516.53 851.853 515.08C855.825 513.707 857.994 510.865 858.19 511.057" fill="#17282F"/>
<path d="M867.283 750.318C836.157 740.017 857.502 698.854 857.502 698.854L993.531 711.645C1004.45 711.572 1013.35 720.403 1013.35 731.323C1013.35 742.192 1004.53 751.001 993.665 751.001L867.283 750.318Z" fill="#45259A"/>
<path d="M835.441 750.278C805.114 740.043 826.012 698.841 826.012 698.841L958.624 711.342C971.577 711.512 977.902 717.76 977.902 730.974C977.88 741.841 973.862 751 958.67 750.691L835.441 750.278Z" fill="#5634B0"/>
<path d="M866.225 705.8C866.226 705.788 866.354 705.783 866.604 705.785C866.891 705.791 867.253 705.801 867.707 705.812C868.727 705.854 870.148 705.912 871.951 705.985C875.686 706.17 881.005 706.434 887.554 706.759C900.767 707.482 918.942 708.48 939.014 709.58C941.526 709.698 944.013 709.918 946.454 709.952C948.91 709.991 951.328 710.091 953.701 710.234C956.074 710.38 958.402 710.557 960.68 710.802C962.938 711.065 965.232 711.308 967.313 712.163C969.392 712.97 971.292 714.158 972.829 715.695C974.367 717.231 975.467 719.128 976.174 721.06C976.89 723.002 977.283 724.969 977.534 726.861C977.782 728.758 977.913 730.592 977.9 732.345C977.886 735.852 977.273 739.04 976.149 741.58C975.037 744.127 973.487 745.985 972.025 747.197C970.56 748.419 969.203 749.025 968.27 749.318C967.332 749.614 967.316 749.517 968.228 749.18C969.135 748.849 970.446 748.209 971.858 746.981C973.264 745.761 974.752 743.915 975.804 741.415C976.868 738.92 977.437 735.794 977.42 732.345C977.417 730.619 977.272 728.809 977.018 726.941C976.752 725.078 976.355 723.154 975.649 721.28C974.952 719.41 973.893 717.613 972.419 716.154C970.944 714.692 969.11 713.557 967.097 712.782C965.09 711.966 962.882 711.742 960.616 711.483C958.35 711.247 956.029 711.075 953.663 710.936C951.299 710.798 948.89 710.702 946.444 710.666C943.986 710.632 941.511 710.417 938.995 710.297C918.92 709.114 900.747 708.043 887.532 707.265C880.986 706.845 875.672 706.504 871.938 706.264C870.136 706.133 868.718 706.029 867.7 705.956C867.248 705.915 866.886 705.885 866.6 705.858C866.35 705.83 866.225 705.813 866.225 705.8" fill="#33535F"/>
<path d="M913.377 708.482L902.469 703.13L894.878 677.83L894.154 645.602L909.548 639.11L897.334 608.427C895.104 603.894 890.613 591.887 879.04 587.928C878.977 585.705 879.032 583.518 879.436 582.848C880.351 581.341 851.249 580.438 849.597 581.04C848.062 581.601 849.861 586.956 849.675 587.857C839.333 590.707 829.267 594.965 825.5 609.195C824.033 614.743 824.519 626.433 825.315 632.072L833.401 674.788L828.862 688.804C828.861 688.808 812.972 721.909 818.993 734.851C825.016 747.794 835.266 750.7 835.266 750.7L914.45 750.544L913.377 708.482" fill="#6946C6"/>
<path d="M894.859 676.945C894.808 676.945 894.735 676.131 894.648 674.656C894.57 673.055 894.466 670.951 894.342 668.411C894.116 663.136 893.856 655.848 893.611 647.799C893.368 639.744 893.186 632.453 893.095 627.176C893.064 624.632 893.039 622.526 893.022 620.921C893.02 619.445 893.042 618.627 893.093 618.625C893.142 618.623 893.215 619.436 893.304 620.909C893.382 622.511 893.484 624.615 893.608 627.154C893.834 632.429 894.096 639.719 894.339 647.774C894.584 655.826 894.764 663.118 894.857 668.398C894.886 670.94 894.912 673.046 894.932 674.651C894.932 676.127 894.908 676.943 894.859 676.945" fill="#17282F"/>
<path d="M865.533 646.78C865.549 646.789 865.365 646.865 864.988 647.007C864.554 647.165 863.997 647.367 863.303 647.618C861.731 648.173 859.538 648.944 856.767 649.92C850.979 651.917 842.791 654.743 832.871 658.166L832.476 658.302L832.4 657.891C830.775 649.201 828.874 639.037 826.819 628.05L826.814 628.022L826.813 627.99C826.488 622.576 825.407 616.913 825.873 610.965C826.01 609.493 826.525 608.105 827.032 606.801C827.569 605.482 828.212 604.208 829.012 603.04C830.596 600.682 832.857 598.863 835.302 597.677C840.25 595.149 846.349 595.981 850.231 599.287C852.137 601.039 853.225 603.269 854.216 605.382C855.175 607.523 855.905 609.675 856.553 611.767C857.813 615.951 858.768 619.915 859.717 623.537C861.532 630.691 863.009 636.505 864.053 640.611C864.532 642.554 864.911 644.088 865.188 645.208C865.301 645.688 865.392 646.075 865.465 646.393C865.523 646.656 865.547 646.788 865.533 646.78C865.52 646.772 865.471 646.626 865.386 646.349C865.289 646.024 865.173 645.623 865.029 645.13C864.711 644.002 864.276 642.454 863.727 640.497C862.613 636.435 861.036 630.685 859.094 623.61C858.119 620.072 857.134 616.142 855.851 611.985C855.197 609.918 854.459 607.795 853.507 605.701C852.535 603.643 851.428 601.471 849.693 599.899C846.08 596.85 840.314 596.059 835.689 598.453C833.342 599.601 831.241 601.304 829.74 603.536C828.982 604.641 828.366 605.861 827.853 607.131C827.355 608.424 826.877 609.707 826.751 611.064C826.301 616.797 827.353 622.458 827.678 627.949L827.671 627.891C829.673 638.891 831.526 649.062 833.109 657.76L832.64 657.485C842.524 654.235 850.684 651.553 856.451 649.656C859.278 648.744 861.513 648.024 863.12 647.506C863.849 647.278 864.434 647.096 864.894 646.954C865.299 646.83 865.516 646.77 865.533 646.78" fill="#17282F"/>
<path d="M841.697 654.682C841.466 654.756 840.832 653.437 840.286 651.738C839.74 650.036 839.485 648.597 839.718 648.524C839.951 648.449 840.583 649.766 841.129 651.468C841.676 653.167 841.93 654.607 841.697 654.682Z" fill="#17282F"/>
<path d="M849.49 652.481C849.254 652.538 848.736 651.255 848.335 649.615C847.932 647.975 847.799 646.598 848.037 646.54C848.273 646.481 848.792 647.764 849.193 649.404C849.596 651.046 849.728 652.421 849.49 652.481Z" fill="#17282F"/>
<path d="M857.358 649.664C857.124 649.733 856.603 648.684 856.195 647.321C855.788 645.96 855.646 644.797 855.881 644.726C856.116 644.657 856.636 645.705 857.044 647.068C857.452 648.433 857.593 649.594 857.358 649.664" fill="#17282F"/>
<path d="M899.928 643.149C899.724 643.274 898.832 642.146 898.211 640.507C897.587 638.872 897.509 637.434 897.744 637.392C897.989 637.343 898.444 638.636 899.041 640.193C899.627 641.753 900.144 643.023 899.928 643.149Z" fill="#17282F"/>
<path d="M905.848 639.794C905.629 639.903 904.916 638.928 904.253 637.615C903.591 636.3 903.232 635.146 903.451 635.036C903.669 634.927 904.383 635.903 905.044 637.217C905.707 638.53 906.064 639.684 905.848 639.794" fill="#17282F"/>
<path d="M854.173 589.138C854.26 589.148 854.311 589.427 854.329 589.911L853.86 589.906C853.665 589.075 853.457 587.577 853.315 585.865C853.094 583.208 853.114 581.039 853.357 581.019C853.6 580.998 853.978 583.135 854.199 585.791C854.341 587.505 854.382 589.015 854.329 589.869L853.86 589.862C853.978 589.393 854.086 589.13 854.173 589.138" fill="#17282F"/>
<path d="M861.246 589.144C861.004 589.163 860.673 587.401 860.51 585.208C860.346 583.014 860.41 581.221 860.654 581.202C860.897 581.184 861.226 582.948 861.391 585.142C861.553 587.335 861.489 589.126 861.246 589.144Z" fill="#17282F"/>
<path d="M868.648 590.741C868.402 590.743 868.177 588.613 868.143 585.981C868.106 583.348 868.275 581.213 868.521 581.21C868.764 581.207 868.989 583.337 869.025 585.969C869.061 588.601 868.891 590.738 868.648 590.741" fill="#17282F"/>
<path d="M874.711 589.744C874.469 589.744 874.269 587.92 874.269 585.674C874.269 583.425 874.469 581.603 874.711 581.603C874.956 581.603 875.154 583.425 875.154 585.674C875.154 587.92 874.956 589.744 874.711 589.744Z" fill="#17282F"/>
<path d="M913.883 709.388C913.864 709.633 899.109 708.824 880.926 707.586C862.738 706.346 848.01 705.142 848.027 704.897C848.044 704.654 862.797 705.462 880.987 706.702C899.169 707.941 913.9 709.145 913.883 709.388" fill="#17282F"/>
<path d="M837.44 656.708L844.741 680.454C847.344 689.329 854.699 696.002 863.786 697.73L909.108 706.342L921.433 705.941L917.243 695.417L875.039 678.73C871.694 677.984 869.042 675.434 868.167 672.12L861.789 648.231L837.44 656.708Z" fill="#F8A58D"/>
<path d="M877.505 706.656L877.891 703.719L912.71 702.351L929.796 659.271L994.886 663.687L972.923 711.512L877.505 706.656" fill="#33535F"/>
<path d="M955.411 687.219C954.403 688.812 952.295 689.284 950.702 688.275C949.113 687.266 948.639 685.159 949.647 683.57C950.656 681.978 952.763 681.505 954.355 682.513C955.946 683.521 956.419 685.629 955.411 687.219" fill="white"/>
<path d="M404.765 397.254C433.131 386.957 418.565 344.186 418.565 344.186L274.586 357.377C263.324 357.3 254.155 366.408 254.155 377.667C254.155 388.874 263.241 397.958 274.45 397.958L404.765 397.254Z" fill="#17282F"/>
<path d="M219.378 515.712L219.086 501.437L246.471 491.711L247.603 511.586L246.063 512.33C239.188 515.58 210.872 528.364 205.591 528.849C199.699 529.391 219.378 515.712 219.378 515.712" fill="#6946C6"/>
<path d="M204.923 528.959C204.806 528.959 204.721 528.944 204.67 528.915C204.469 528.794 204.423 528.59 204.497 528.328C204.456 528.672 204.69 528.867 205.279 528.867C205.374 528.867 205.479 528.862 205.593 528.85C205.673 528.843 205.76 528.833 205.85 528.82C205.445 528.911 205.132 528.959 204.923 528.959V528.959ZM208.508 523.938C209.158 523.384 209.674 522.968 209.851 522.827C209.39 523.201 208.94 523.573 208.508 523.938ZM223.489 522.366C232.614 518.518 242.395 514.067 246.065 512.332L247.605 511.587C241.744 514.592 232.138 518.829 223.489 522.366Z" fill="white"/>
<path d="M205.277 528.866C204.689 528.866 204.454 528.671 204.495 528.327C204.785 527.26 206.999 525.226 208.506 523.937C208.938 523.572 209.389 523.2 209.849 522.826C209.893 522.792 209.916 522.773 209.916 522.773C210.045 522.727 210.177 522.707 210.312 522.707C211.763 522.707 213.506 525.139 213.506 525.139L247.331 511.034L247.603 511.586L246.063 512.331C242.393 514.066 232.612 518.517 223.487 522.365C215.656 525.569 208.61 528.198 205.848 528.819C205.758 528.832 205.671 528.842 205.591 528.849C205.477 528.861 205.372 528.866 205.277 528.866" fill="#8863EA"/>
<path d="M247.725 510.857C247.728 510.867 247.584 510.945 247.305 511.081C246.938 511.26 246.533 511.452 246.078 511.671C244.842 512.237 243.321 512.934 241.527 513.756C237.672 515.488 232.314 517.811 226.341 520.249C220.367 522.686 214.911 524.773 210.943 526.23C209.086 526.898 207.513 527.463 206.233 527.924C205.756 528.086 205.332 528.228 204.943 528.361C204.649 528.458 204.491 528.502 204.487 528.492C204.482 528.482 204.632 528.415 204.921 528.298C205.302 528.148 205.718 527.985 206.187 527.8C207.457 527.314 209.019 526.716 210.86 526.01C214.806 524.496 220.243 522.375 226.215 519.941C232.183 517.506 237.555 515.218 241.432 513.54C243.242 512.757 244.777 512.092 246.025 511.552C246.489 511.355 246.902 511.181 247.278 511.022C247.567 510.904 247.72 510.847 247.725 510.857" fill="#17282F"/>
<path d="M213.674 525.533C213.584 525.584 213.061 524.507 211.908 523.676C210.769 522.823 209.586 522.644 209.607 522.544C209.595 522.461 210.882 522.496 212.105 523.406C213.34 524.303 213.758 525.52 213.674 525.533" fill="#17282F"/>
<path d="M219.64 518.654C219.587 518.729 219.048 518.438 218.438 518.005C217.828 517.57 217.376 517.159 217.43 517.082C217.483 517.007 218.022 517.3 218.632 517.731C219.242 518.167 219.693 518.58 219.64 518.654Z" fill="#17282F"/>
<path d="M221.258 516.728C221.226 516.813 220.714 516.709 220.116 516.494C219.515 516.278 219.055 516.031 219.085 515.946C219.118 515.86 219.628 515.963 220.228 516.179C220.828 516.395 221.288 516.641 221.258 516.728" fill="#17282F"/>
<path d="M221.586 513.791C221.624 513.876 221.058 514.193 220.327 514.501C219.594 514.809 218.972 514.989 218.936 514.904C218.9 514.82 219.465 514.501 220.197 514.193C220.928 513.886 221.552 513.704 221.586 513.791Z" fill="#17282F"/>
<path d="M221.341 511.914C221.403 511.979 220.872 512.535 220.034 512.949C219.198 513.367 218.435 513.456 218.419 513.367C218.397 513.274 219.091 513.05 219.886 512.65C220.682 512.257 221.28 511.839 221.341 511.914Z" fill="#17282F"/>
<path d="M217.871 516.787C217.887 516.819 217.29 517.154 216.229 517.443C215.701 517.587 215.055 517.712 214.329 517.768C213.964 517.785 213.595 517.836 213.163 517.763C212.957 517.722 212.716 517.642 212.551 517.419C212.384 517.202 212.403 516.874 212.532 516.665C213.768 515.217 215.694 515.458 216.605 516.029C217.093 516.313 217.404 516.656 217.584 516.906C217.763 517.159 217.824 517.321 217.807 517.331C217.758 517.375 217.433 516.733 216.491 516.238C216.029 515.997 215.408 515.83 214.722 515.898C214.076 515.961 213.233 516.25 212.825 516.824C212.643 517.123 212.869 517.387 213.229 517.443C213.569 517.508 213.96 517.47 214.309 517.462C215.016 517.423 215.65 517.326 216.173 517.214C217.226 516.989 217.851 516.736 217.871 516.787Z" fill="#17282F"/>
<path d="M217.48 517.039C217.463 517.067 217.051 516.747 216.827 515.979C216.72 515.602 216.679 515.119 216.788 514.602C216.929 514.12 217.097 513.469 217.811 513.21C218.211 513.105 218.573 513.462 218.624 513.763C218.712 514.06 218.683 514.359 218.644 514.607C218.567 515.114 218.426 515.557 218.273 515.913C217.964 516.623 217.636 516.98 217.605 516.956C217.561 516.929 217.813 516.53 218.052 515.828C218.173 515.478 218.282 515.049 218.338 514.567C218.423 514.128 218.324 513.445 217.882 513.538C217.456 513.664 217.204 514.244 217.087 514.672C216.975 515.131 216.985 515.571 217.056 515.924C217.203 516.642 217.529 517.005 217.48 517.039" fill="#17282F"/>
<path d="M244.366 504.095C244.383 504.155 243.608 504.323 242.512 504.926C241.421 505.52 240.025 506.633 239.092 508.293C238.16 509.954 237.938 511.727 238.001 512.966C238.057 514.215 238.318 514.966 238.257 514.981C238.239 514.988 238.155 514.81 238.048 514.468C237.939 514.126 237.825 513.62 237.766 512.981C237.64 511.713 237.831 509.864 238.801 508.13C239.773 506.398 241.254 505.271 242.401 504.719C242.978 504.435 243.471 504.27 243.817 504.184C244.164 504.097 244.361 504.075 244.366 504.095" fill="#17282F"/>
<path d="M237.408 494.566C237.491 494.531 238.545 496.835 239.759 499.711C240.974 502.587 241.889 504.949 241.804 504.985C241.719 505.021 240.666 502.718 239.451 499.84C238.237 496.965 237.323 494.602 237.408 494.566Z" fill="#17282F"/>
<path d="M234.061 513.964C234.103 514.039 232.555 514.987 230.489 515.847C228.427 516.712 226.665 517.151 226.641 517.066C226.614 516.972 228.319 516.396 230.362 515.538C232.407 514.686 234.015 513.879 234.061 513.964Z" fill="#17282F"/>
<path d="M239.052 511.924C239.14 511.963 239.06 512.334 239.046 512.784C239.024 513.236 239.075 513.612 238.985 513.642C238.904 513.676 238.692 513.292 238.712 512.772C238.731 512.25 238.974 511.887 239.052 511.924" fill="#17282F"/>
<path d="M239.98 508.815C240.065 508.851 240.009 509.183 239.855 509.558C239.7 509.932 239.505 510.207 239.42 510.172C239.336 510.138 239.392 509.805 239.546 509.431C239.7 509.055 239.895 508.78 239.98 508.815Z" fill="#17282F"/>
<path d="M242.238 506.651C242.257 506.746 241.915 506.88 241.595 507.164C241.269 507.441 241.085 507.756 240.995 507.727C240.909 507.706 240.975 507.256 241.378 506.911C241.777 506.562 242.233 506.561 242.238 506.651Z" fill="#17282F"/>
<path d="M243.948 505.361C244.012 505.429 243.919 505.619 243.741 505.788C243.563 505.956 243.368 506.037 243.305 505.971C243.242 505.903 243.334 505.713 243.512 505.546C243.69 505.376 243.887 505.295 243.948 505.361Z" fill="#17282F"/>
<path d="M329.292 355.434L248.888 356.938C236.033 357.177 225.312 366.838 223.743 379.597L207.799 509.153H251.468L264.802 397.252H328.203L329.292 355.434" fill="#17282F"/>
<path d="M208.344 500.918C208.344 501.125 217.909 501.355 229.707 501.428C241.511 501.501 250.872 501.205 251.08 501.185C252.434 501.052 241.516 500.75 229.713 500.675C217.914 500.602 208.345 500.711 208.344 500.918Z" fill="#33535F"/>
<path d="M373.514 351.348C373.512 351.336 373.376 351.331 373.111 351.333C372.805 351.341 372.417 351.35 371.935 351.36C370.849 351.402 369.336 351.462 367.413 351.537C363.434 351.723 357.768 351.989 350.79 352.317C336.714 353.047 317.353 354.054 295.968 355.163C293.293 355.284 290.643 355.503 288.044 355.539C285.426 355.578 282.851 355.68 280.323 355.825C277.795 355.971 275.314 356.149 272.886 356.397C270.481 356.663 268.038 356.907 265.822 357.769C263.607 358.586 261.581 359.785 259.945 361.335C258.307 362.886 257.135 364.798 256.382 366.751C255.619 368.709 255.201 370.696 254.931 372.605C254.669 374.517 254.528 376.368 254.543 378.139C254.557 381.677 255.209 384.896 256.408 387.459C257.593 390.031 259.245 391.905 260.8 393.127C262.362 394.36 263.807 394.973 264.802 395.267C265.801 395.566 265.818 395.468 264.848 395.129C263.88 394.793 262.481 394.149 260.979 392.91C259.481 391.678 257.897 389.815 256.777 387.291C255.641 384.774 255.036 381.619 255.053 378.139C255.056 376.396 255.209 374.569 255.483 372.685C255.764 370.805 256.187 368.862 256.94 366.972C257.683 365.084 258.81 363.271 260.382 361.797C261.953 360.323 263.906 359.176 266.051 358.396C268.191 357.572 270.54 357.346 272.956 357.084C275.368 356.844 277.843 356.674 280.362 356.533C282.883 356.394 285.448 356.295 288.052 356.26C290.673 356.226 293.308 356.008 295.991 355.888C317.376 354.694 336.736 353.613 350.814 352.828C357.789 352.403 363.451 352.058 367.427 351.817C369.348 351.686 370.857 351.581 371.943 351.506C372.424 351.465 372.81 351.433 373.116 351.407C373.38 351.382 373.514 351.362 373.514 351.348" fill="#33535F"/>
<path d="M347.904 297.615L340.917 319.506C338.235 328.544 330.65 335.339 321.277 337.097L280.675 348.35L277.511 340.832L274.547 329.725L309.676 317.75C313.125 316.99 315.858 314.395 316.763 311.021L330.747 280.604L348.461 291.466L347.904 297.615" fill="#C0776A"/>
<path d="M364.929 229.124C350.057 230.861 345.267 236.91 339.192 245.697C336.666 249.351 334.65 253.316 333.181 257.477L321.918 289.393L345.427 296.64L344.642 322.707L333.936 354.433L424.251 361.534L423.991 315.431L423.343 287.609C424.195 277.073 426.391 254.725 424.512 249.431C416.477 226.782 398.748 231.129 385.739 227.9C383.056 227.236 370.078 227.37 367.826 227.926L364.929 229.124" fill="#6946C6"/>
<path d="M424.243 312.512C424.243 312.756 406.577 312.955 384.79 312.955C362.994 312.955 345.331 312.756 345.331 312.512C345.331 312.267 362.994 312.07 384.79 312.07C406.577 312.07 424.243 312.267 424.243 312.512Z" fill="#FAFAF9"/>
<path d="M422.923 328.278C422.923 328.521 405.256 328.72 383.469 328.72C361.674 328.72 344.011 328.521 344.011 328.278C344.011 328.033 361.674 327.834 383.469 327.834C405.256 327.834 422.923 328.033 422.923 328.278Z" fill="#FAFAF9"/>
<path d="M423.343 346.364C423.343 346.609 404.661 346.808 381.621 346.808C358.573 346.808 339.894 346.609 339.894 346.364C339.894 346.119 358.573 345.922 381.621 345.922C404.661 345.922 423.343 346.119 423.343 346.364Z" fill="#FAFAF9"/>
<path d="M347.14 351.358C346.863 351.358 346.611 351.35 346.389 351.333L356.146 346.713C361.288 346.756 367.385 346.786 374.032 346.798C364.094 349.001 351.828 351.358 347.14 351.358V351.358ZM357.652 346.001L394.188 328.703C398.237 328.691 402.026 328.67 405.436 328.645C404.609 330.272 403.67 331.835 402.564 333.29C398.788 338.261 393.216 341.701 387.253 343.55C385.584 344.067 382.137 344.941 377.902 345.923C370.406 345.93 363.482 345.957 357.652 346.001V346.001ZM405.798 327.912C402.798 327.889 399.497 327.87 395.975 327.856L398.844 326.498L402.135 312.91C405.224 312.893 408.086 312.873 410.657 312.847C410.157 315.638 409.54 318.391 408.605 321C407.769 323.337 406.878 325.677 405.798 327.912V327.912ZM410.774 312.179C408.228 312.156 405.39 312.133 402.327 312.116L405.166 300.401L412.38 302.432C411.767 305.609 411.338 308.914 410.774 312.179Z" fill="#BA2C42"/>
<path d="M402.135 312.909L402.327 312.115C405.39 312.132 408.227 312.155 410.773 312.178C410.734 312.401 410.695 312.624 410.656 312.846C408.086 312.872 405.223 312.892 402.135 312.909" fill="#A4A6A5"/>
<path d="M394.188 328.702L395.975 327.856C399.497 327.869 402.798 327.888 405.798 327.912C405.679 328.157 405.559 328.401 405.436 328.644C402.027 328.67 398.238 328.69 394.188 328.702Z" fill="#A4A6A5"/>
<path d="M374.033 346.799C367.387 346.787 361.29 346.756 356.147 346.714L357.654 346.002C363.484 345.958 370.407 345.93 377.904 345.924C376.671 346.207 375.374 346.503 374.033 346.799" fill="#A4A6A5"/>
<path d="M409.317 301.522L403.548 323.722C401.258 332.981 393.973 340.177 384.685 342.355L338.374 353.213L325.657 353.341V335.862L372.26 323.273C375.674 322.359 378.293 319.617 379.051 316.166L383.542 296.642L409.317 301.522" fill="#C0776A"/>
<path d="M424.705 248.104C424.705 248.347 405.233 248.546 381.221 248.546C357.199 248.546 337.732 248.347 337.732 248.104C337.732 247.859 357.199 247.662 381.221 247.662C405.233 247.662 424.705 247.859 424.705 248.104Z" fill="#FAFAF9"/>
<path d="M425.254 263.147C425.254 263.394 404.269 263.591 378.39 263.591C352.502 263.591 331.521 263.394 331.521 263.147C331.521 262.904 352.502 262.705 378.39 262.705C404.269 262.705 425.254 262.904 425.254 263.147Z" fill="#FAFAF9"/>
<path d="M424.032 279.415C424.034 279.66 401.943 280.03 374.694 280.244C347.439 280.458 325.349 280.433 325.348 280.188C325.346 279.943 347.432 279.573 374.688 279.359C401.934 279.146 424.029 279.17 424.032 279.415Z" fill="#FAFAF9"/>
<path d="M423.34 296.644C423.34 296.891 405.673 297.088 383.886 297.088C362.091 297.088 344.428 296.891 344.428 296.644C344.428 296.401 362.091 296.202 383.886 296.202C405.673 296.202 423.34 296.401 423.34 296.644Z" fill="#FAFAF9"/>
<path d="M417.25 303.372C417.238 303.369 417.246 303.245 417.277 303.003C417.316 302.718 417.365 302.366 417.426 301.934C417.581 300.93 417.793 299.555 418.062 297.809C418.618 294.215 419.43 288.992 420.331 282.45C421.208 275.91 422.273 268.048 422.793 259.178C422.969 254.789 423.337 249.92 421.049 245.623C419.969 243.497 418.324 241.617 416.272 240.219C414.229 238.833 411.773 237.873 409.277 237.509L409.221 237.501L409.179 237.489C406.479 236.66 403.411 237.125 400.586 238.069C397.751 239.025 394.937 240.431 392.617 242.397C392.138 242.817 391.728 243.263 391.403 243.761C391.07 244.301 390.778 244.864 390.506 245.435C389.97 246.585 389.55 247.785 389.199 249C388.5 251.434 388.056 253.934 387.626 256.397C386.747 261.317 385.892 266.1 385.068 270.708C383.411 279.914 381.877 288.424 380.523 295.947L380.268 295.549C391.164 297.882 400.113 299.798 406.411 301.147C409.473 301.827 411.888 302.363 413.605 302.743C414.384 302.927 415.004 303.073 415.482 303.185C415.903 303.292 416.119 303.355 416.116 303.372C416.112 303.389 415.89 303.362 415.46 303.29C414.977 303.202 414.35 303.088 413.563 302.947C411.834 302.611 409.405 302.136 406.325 301.538C400.003 300.258 391.019 298.442 380.082 296.229L379.77 296.166L379.827 295.831C381.145 288.297 382.634 279.775 384.245 270.553C385.058 265.94 385.903 261.152 386.77 256.225C387.196 253.764 387.635 251.261 388.35 248.757C388.709 247.508 389.142 246.264 389.703 245.061C389.989 244.462 390.297 243.869 390.649 243.298C391.034 242.702 391.519 242.18 392.027 241.736C394.507 239.639 397.365 238.228 400.31 237.232C403.238 236.269 406.44 235.742 409.457 236.666L409.36 236.646C412.077 237.047 414.577 238.048 416.751 239.517C418.91 240.997 420.653 243.001 421.783 245.249C422.383 246.363 422.74 247.556 423.099 248.732C423.303 249.933 423.632 251.118 423.634 252.313C423.665 252.908 423.697 253.499 423.729 254.087C423.717 254.67 423.706 255.248 423.695 255.823C423.682 256.973 423.621 258.105 423.549 259.218C422.975 268.136 421.844 275.99 420.891 282.53C419.911 289.067 419.014 294.279 418.363 297.859C418.031 299.596 417.771 300.964 417.581 301.961C417.489 302.388 417.414 302.735 417.353 303.017C417.297 303.255 417.263 303.374 417.25 303.372" fill="#17282F"/>
<path d="M345.164 322.306C345.215 322.306 345.254 321.463 345.281 319.94C345.291 318.286 345.304 316.114 345.32 313.492C345.321 308.046 345.272 300.529 345.17 292.225C345.069 283.917 344.935 276.398 344.801 270.956C344.719 268.333 344.653 266.163 344.602 264.511C344.539 262.988 344.478 262.147 344.427 262.147C344.375 262.147 344.336 262.988 344.31 264.511C344.3 266.163 344.287 268.333 344.27 270.958C344.268 276.4 344.319 283.922 344.421 292.231C344.522 300.537 344.656 308.058 344.79 313.5C344.87 316.121 344.938 318.293 344.989 319.945C345.052 321.466 345.111 322.307 345.164 322.306" fill="#17282F"/>
<path d="M373.515 357.124L374.326 353.339L339.251 349.61L323.954 305.66L252.526 305.169L275.928 356.123L373.515 357.124Z" fill="#33535F"/>
<path d="M298.291 333.276C299.932 332.236 300.42 330.064 299.379 328.424C298.339 326.782 296.167 326.294 294.526 327.335C292.884 328.375 292.396 330.547 293.437 332.189C294.475 333.829 296.649 334.316 298.291 333.276Z" fill="white"/>
<path d="M346.896 156.804C343.077 157.402 339.794 160.57 339.062 164.365C338.329 168.16 340.195 172.321 343.517 174.299C344.953 175.154 346.796 175.605 348.29 174.855C349.681 174.155 350.42 172.608 350.879 171.119C352.356 166.342 351.94 161.003 349.74 156.511" fill="#17282F"/>
<path d="M376.373 243.551C367.888 243.551 361.042 236.622 361.136 228.139C361.194 222.843 361.282 218.264 361.282 218.264C361.282 218.264 349.036 217.127 348.137 205.009C347.24 192.891 347.624 164.917 347.624 164.917C361.292 158.017 377.623 159.054 390.307 167.627L392.19 168.9L391.609 228.465C391.527 236.82 384.73 243.551 376.373 243.551" fill="#C0776A"/>
<path d="M361.253 218.09C361.253 218.09 368.955 218.239 376.786 212.621C376.786 212.621 373.587 221.579 361.418 221.232L361.253 218.09" fill="#B85549"/>
<path d="M389.061 182.3C389.285 182.215 396.735 181.246 396.032 190.041C395.328 198.837 386.678 195.217 386.683 194.963C386.686 194.71 389.061 182.3 389.061 182.3Z" fill="#C0776A"/>
<path d="M389.622 192.091C389.663 192.066 389.766 192.21 390.016 192.35C390.259 192.486 390.688 192.601 391.16 192.465C392.116 192.198 393.017 190.786 393.187 189.205C393.273 188.405 393.166 187.63 392.933 186.977C392.716 186.311 392.335 185.828 391.874 185.709C391.417 185.565 391.063 185.816 390.936 186.056C390.798 186.292 390.841 186.473 390.793 186.484C390.766 186.505 390.616 186.321 390.715 185.963C390.766 185.793 390.885 185.594 391.106 185.441C391.33 185.286 391.648 185.223 391.971 185.285C392.646 185.385 393.205 186.06 393.462 186.775C393.756 187.499 393.895 188.373 393.798 189.27C393.6 191.038 392.559 192.623 391.259 192.89C390.626 193.001 390.125 192.773 389.875 192.545C389.62 192.306 389.59 192.105 389.622 192.091" fill="#B85549"/>
<path d="M355.998 169.927C357.686 169.174 360.264 166.94 361.712 165.793C363.173 168.11 365.709 169.718 368.429 170.049C371.148 170.382 373.996 169.432 375.971 167.534C376.051 169.102 376.986 170.603 378.361 171.366C379.734 172.128 381.502 172.128 382.876 171.364C382.935 176.042 382.995 180.717 383.054 185.395C383.073 186.742 383.122 188.194 383.936 189.27C384.751 190.344 386.634 190.675 387.382 189.554C387.241 187.837 387.115 186.029 387.861 184.477C388.606 182.927 390.554 181.814 392.09 182.587C392.677 179.691 392.67 177.197 392.585 174.288C392.57 173.785 392.667 172.177 392.932 171.749C393.411 170.979 393.632 171.575 394.521 171.39C397.105 170.853 399.06 168.363 399.257 165.73C399.454 163.098 398.047 160.479 395.912 158.925C393.777 157.372 391.008 156.826 388.385 157.124C390.12 155.533 389.969 152.528 388.441 150.735C386.914 148.943 384.394 148.25 382.044 148.391C379.688 148.532 377.04 149.842 376.748 152.181C376.146 147.662 371.961 143.894 367.402 143.766C362.843 143.639 358.457 147.169 357.606 151.649C354.784 150.398 350.833 149.013 348.027 150.295C345.221 151.578 342.78 153.6 342.196 158.361C342.196 158.361 341.484 167.981 347.575 169.925C353.665 171.871 355.998 169.927 355.998 169.927" fill="#17282F"/>
<path d="M350.823 184.313C350.791 185.212 351.525 185.978 352.462 186.028C353.397 186.079 354.182 185.394 354.215 184.495C354.247 183.597 353.512 182.831 352.578 182.78C351.641 182.729 350.854 183.415 350.823 184.313Z" fill="#17282F"/>
<path d="M350.45 182.402C350.661 182.623 351.948 181.671 353.778 181.675C355.606 181.654 356.947 182.594 357.146 182.37C357.244 182.273 357.028 181.872 356.444 181.447C355.869 181.022 354.887 180.611 353.748 180.614C352.609 180.621 351.65 181.041 351.098 181.471C350.535 181.903 350.346 182.304 350.45 182.402Z" fill="#17282F"/>
<path d="M368.736 184.745C368.706 185.643 369.44 186.409 370.377 186.46C371.312 186.511 372.097 185.825 372.129 184.929C372.161 184.03 371.427 183.262 370.492 183.212C369.554 183.161 368.769 183.848 368.736 184.745Z" fill="#17282F"/>
<path d="M368.434 182.745C368.647 182.966 369.935 182.013 371.764 182.018C373.59 181.996 374.933 182.939 375.132 182.713C375.229 182.614 375.016 182.215 374.43 181.788C373.855 181.365 372.874 180.954 371.734 180.957C370.595 180.964 369.636 181.384 369.085 181.814C368.523 182.244 368.332 182.645 368.434 182.745Z" fill="#17282F"/>
<path d="M361.794 196.31C361.804 196.206 360.665 196.009 358.823 195.774C358.357 195.725 357.915 195.633 357.835 195.314C357.724 194.976 357.922 194.473 358.148 193.929C358.586 192.798 359.047 191.615 359.528 190.373C361.447 185.31 362.836 181.146 362.632 181.069C362.428 180.995 360.706 185.038 358.787 190.101C358.326 191.35 357.884 192.54 357.464 193.681C357.288 194.209 356.983 194.812 357.221 195.513C357.347 195.861 357.69 196.114 357.99 196.194C358.289 196.288 358.552 196.293 358.783 196.305C360.638 196.405 361.789 196.413 361.794 196.31" fill="#17282F"/>
<path d="M367.179 197.575C366.882 197.558 366.878 199.545 365.178 200.954C363.482 202.366 361.366 202.144 361.349 202.422C361.322 202.546 361.821 202.806 362.714 202.832C363.591 202.861 364.871 202.58 365.909 201.717C366.946 200.854 367.393 199.701 367.46 198.886C367.536 198.056 367.315 197.565 367.179 197.575Z" fill="#17282F"/>
<path d="M367.962 175.577C368.144 176.075 369.97 175.839 372.117 176.097C374.269 176.313 375.999 176.942 376.283 176.495C376.411 176.28 376.11 175.813 375.409 175.332C374.716 174.851 373.609 174.394 372.321 174.251C371.032 174.11 369.853 174.314 369.071 174.634C368.282 174.95 367.886 175.341 367.962 175.577" fill="#17282F"/>
<path d="M351.124 177.11C351.447 177.525 352.706 177.095 354.221 177.075C355.736 177 357.021 177.353 357.316 176.918C357.446 176.707 357.243 176.293 356.682 175.898C356.13 175.508 355.205 175.186 354.165 175.219C353.123 175.251 352.222 175.627 351.695 176.053C351.158 176.48 350.983 176.908 351.124 177.11" fill="#17282F"/>
<path d="M354.601 156.225C354.579 156.257 354.435 156.145 354.13 156.081C353.831 156.023 353.336 156.06 352.869 156.41C352.391 156.737 352.094 157.454 352.308 158.254C352.498 159.053 353.155 159.844 354.12 160.233C355.075 160.617 356.337 160.627 357.396 160.039C358.45 159.464 359.223 158.246 359.364 156.881C359.538 155.515 358.954 154.058 357.836 153.045C356.729 152.02 355.14 151.471 353.539 151.675C351.939 151.85 350.447 152.642 349.389 153.739C348.319 154.833 347.679 156.249 347.385 157.641C346.784 160.471 347.542 163.148 348.628 165.034C349.717 166.958 351.101 168.173 352.097 168.904C353.114 169.626 353.753 169.917 353.722 169.985C353.705 170.029 353.013 169.846 351.907 169.191C350.821 168.528 349.31 167.339 348.089 165.352C346.877 163.408 345.98 160.562 346.586 157.479C346.886 155.957 347.564 154.386 348.764 153.137C349.95 151.895 351.609 151.001 353.442 150.795C355.274 150.559 357.158 151.208 358.424 152.408C359.714 153.581 360.41 155.358 360.173 156.973C359.985 158.576 359.05 160.01 357.742 160.685C356.44 161.361 354.985 161.297 353.874 160.807C352.75 160.309 352 159.329 351.825 158.363C351.601 157.393 352.063 156.46 352.674 156.126C353.265 155.756 353.852 155.783 354.178 155.909C354.513 156.043 354.618 156.211 354.601 156.225" fill="#33535F"/>
<path d="M69.9982 718.689C71.1376 714.168 68.1516 709.652 64.815 706.395C61.4784 703.141 57.4942 700.228 55.7427 695.908C52.906 688.909 56.6153 679.804 51.8084 673.978C48.9817 670.551 43.94 669.426 41.4281 665.762C40.1101 663.84 39.6732 661.472 39.1473 659.201C36.4606 647.62 30.5955 636.796 22.3619 628.221C21.8513 638.548 24.1879 649.004 29.0485 658.132C31.0019 661.802 33.3963 665.376 34.0589 669.48C35.1373 676.143 31.4534 683.034 33.1295 689.573C35.0464 697.052 43.4878 702.016 43.9306 709.724C44.3053 716.24 38.6552 721.993 39.116 728.504C39.3132 731.276 40.6147 733.844 42.0603 736.217C47.1491 744.565 54.5846 750.293 65.8077 750.043L79.5566 750.445L69.9982 718.689Z" fill="#F03D5F"/>
<path d="M79.5568 750.445L65.8079 750.043C65.5707 750.048 65.3363 750.052 65.1026 750.052C54.2734 750.052 47.0417 744.39 42.0604 736.217C40.6149 733.844 39.3133 731.276 39.1161 728.504C39.0983 728.249 39.0896 727.997 39.0896 727.744C39.0876 721.745 43.9582 716.349 43.9488 710.334C43.9488 710.131 43.9429 709.927 43.9308 709.724C43.488 702.016 35.0465 697.052 33.1296 689.573C32.8088 688.322 32.6846 687.058 32.6853 685.783C32.6887 681.276 34.2636 676.654 34.2603 672.106C34.2597 671.228 34.1998 670.352 34.0591 669.48C33.3965 665.376 31.0021 661.802 29.0486 658.132C24.625 649.823 22.2916 640.416 22.293 631.006C22.293 630.079 22.3162 629.149 22.362 628.221C30.5956 636.796 36.4608 647.62 39.1474 659.201C39.6733 661.472 40.1102 663.84 41.4283 665.762C43.9401 669.426 48.9819 670.551 51.8086 673.978C54.4189 677.14 54.5178 681.27 54.5178 685.506C54.5178 685.856 54.5171 686.208 54.5171 686.558C54.5164 689.782 54.5742 693.023 55.7429 695.908C57.4944 700.228 61.4785 703.141 64.8151 706.395C67.6564 709.169 70.2433 712.854 70.2453 716.68C70.2453 717.346 70.1676 718.018 69.9983 718.689L79.5568 750.445Z" fill="#6946C6"/>
<path d="M82.3423 750.794C82.3423 750.794 83.6551 751.091 86.1272 750.692C87.3582 750.505 88.8721 750.168 90.5879 749.541C92.2924 748.908 94.2321 748.007 96.0873 746.489C96.977 745.702 97.866 744.733 98.3389 743.452C98.8057 742.177 98.8834 740.778 98.9631 739.342C99.028 737.904 99.0214 736.41 99.2585 734.894C99.4822 733.38 100.068 731.889 100.913 730.465C102.518 727.61 105.193 724.899 106.041 721.029C106.96 717.222 106.262 713.112 105.599 708.984C104.938 704.866 104.294 700.374 105.847 696.07C107.297 691.763 110.289 687.865 111.768 683.013C113.242 678.109 112.512 672.849 112.8 667.653C112.93 665.046 113.42 662.436 114.547 660.012C115.646 657.574 117.176 655.27 118.365 652.703C120.777 647.511 121.173 641.641 121.808 635.886C122.117 632.987 122.429 630.055 122.744 627.097C123.055 624.125 123.302 621.164 124.222 618.299C125.054 615.414 126.263 612.62 127.462 609.775C128.048 608.344 128.67 606.91 129.032 605.324C129.291 603.703 129.36 602.185 129.449 600.592C129.586 597.441 129.437 594.248 129.029 591.081C128.637 587.912 128.048 584.771 127.688 581.594C127.666 581.405 127.644 581.219 127.623 581.046L127.548 580.413L126.987 580.699C124.052 582.189 121.544 584.399 119.623 586.986C117.669 589.553 116.252 592.446 115.124 595.388C112.861 601.305 112.07 607.499 110.945 613.409C109.849 619.322 108.392 625.139 105.392 630.065C103.899 632.523 102.089 634.766 100.508 637.164C98.9311 639.542 97.5454 642.156 97.1417 645.016C96.3622 650.834 99.5939 655.923 98.9565 661.074C98.7333 663.635 97.728 666.032 96.489 668.221C95.2532 670.425 93.7984 672.47 92.418 674.525C91.038 676.579 89.7261 678.663 88.7633 680.888C87.7845 683.104 87.2513 685.474 87.1139 687.787C86.8044 692.425 87.4877 696.817 87.1723 700.971C86.9166 705.129 85.4784 708.907 83.8436 712.285C82.2002 715.675 80.3683 718.745 78.8357 721.717C78.0648 723.203 77.3543 724.654 76.7766 726.109C76.1644 727.562 75.8682 729.049 75.5947 730.462C75.1598 733.314 75.2182 735.968 75.5369 738.307C76.1625 743.012 77.9373 746.393 79.527 748.289C79.8921 748.795 80.3139 749.154 80.6465 749.487C80.9705 749.832 81.292 750.066 81.5529 750.248C82.0681 750.623 82.3423 750.794 82.3423 750.794C82.4028 750.724 81.207 750.101 79.6657 748.177C78.1418 746.269 76.4426 742.915 75.8783 738.261C75.5888 735.95 75.5568 733.329 76.0097 730.532C76.2907 729.145 76.5941 727.69 77.2003 726.281C77.7774 724.86 78.4964 723.415 79.2734 721.947C80.8177 718.998 82.6697 715.944 84.349 712.531C86.015 709.135 87.5109 705.283 87.7939 701.014C88.1318 696.774 87.4684 692.365 87.7925 687.836C87.9372 685.572 88.4572 683.313 89.4113 681.17C90.3522 679.017 91.6457 676.974 93.0248 674.934C94.4039 672.891 95.8767 670.84 97.1476 668.591C98.4185 666.358 99.4829 663.862 99.7285 661.151C100.359 655.664 97.1504 650.542 97.9464 645.132C98.3282 642.455 99.6435 639.958 101.199 637.622C102.756 635.269 104.575 633.022 106.112 630.504C109.207 625.437 110.687 619.506 111.795 613.57C112.93 607.622 113.723 601.495 115.946 595.699C117.053 592.817 118.438 589.996 120.327 587.516C122.185 585.017 124.585 582.912 127.381 581.489L126.746 581.143C126.766 581.317 126.788 581.506 126.811 581.695C127.174 584.91 127.766 588.056 128.154 591.19C128.558 594.322 128.703 597.451 128.571 600.556C128.491 602.09 128.406 603.699 128.174 605.144C127.847 606.592 127.239 608.021 126.657 609.439C125.465 612.272 124.238 615.107 123.392 618.058C122.453 620.989 122.196 624.064 121.894 627.002C121.584 629.961 121.275 632.893 120.97 635.794C120.346 641.574 119.948 647.35 117.627 652.362C116.479 654.857 114.953 657.168 113.822 659.686C112.655 662.199 112.146 664.959 112.024 667.611C111.755 672.915 112.475 678.097 111.067 682.805C109.668 687.487 106.691 691.407 105.201 695.849C103.604 700.34 104.304 704.976 104.982 709.083C105.67 713.218 106.359 717.241 105.495 720.902C104.721 724.596 102.122 727.282 100.485 730.219C99.6323 731.675 99.0241 733.254 98.8064 734.824C98.574 736.392 98.5958 737.901 98.5427 739.325C98.4797 740.741 98.4066 742.131 97.979 743.324C97.5541 744.514 96.7181 745.457 95.8621 746.229C94.076 747.725 92.1715 748.644 90.4956 749.297C88.8084 749.941 87.313 750.301 86.0986 750.515C84.8815 750.743 83.9366 750.781 83.3037 750.8C82.671 750.782 82.3423 750.794 82.3423 750.794" fill="#17282F"/>
<path d="M124.858 588.627C124.843 588.625 124.799 588.766 124.727 589.043C124.648 589.375 124.551 589.781 124.431 590.284C124.166 591.369 123.854 593.005 123.347 595.05C122.818 597.088 121.585 599.397 120.534 602.243C119.441 605.066 118.336 608.338 117.322 612.01C116.294 615.681 115.388 619.759 114.441 624.123C113.464 628.482 112.491 633.156 110.117 637.571C109.003 639.81 107.748 642.078 106.754 644.555C105.736 647.034 105.194 649.738 104.819 652.454C104.19 657.901 103.222 663.435 101.951 669.098C99.2583 680.376 96.6932 691.12 94.3586 700.9C91.9656 710.65 89.8095 719.433 87.9915 726.84C86.2232 734.177 84.7863 740.139 83.7737 744.343C83.3062 746.363 82.9377 747.955 82.6695 749.114C82.5625 749.619 82.4757 750.029 82.4053 750.362C82.3494 750.644 82.3288 750.789 82.3434 750.792C82.3587 750.795 82.4085 750.656 82.4922 750.382C82.5851 750.058 82.7007 749.655 82.8422 749.159C83.1495 748.01 83.5719 746.429 84.107 744.427C85.1854 740.238 86.7153 734.299 88.5977 726.991C90.4675 719.598 92.6867 710.83 95.148 701.097C97.5059 691.313 100.095 680.568 102.813 669.284C104.086 663.63 105.063 657.994 105.677 652.573C106.042 649.875 106.56 647.268 107.538 644.865C108.496 642.451 109.732 640.196 110.846 637.932C113.239 633.434 114.219 628.618 115.157 624.278C116.074 619.901 116.941 615.837 117.924 612.175C118.894 608.509 119.953 605.244 120.996 602.418C121.991 599.583 123.185 597.244 123.678 595.136C124.143 593.042 124.395 591.422 124.606 590.318C124.69 589.81 124.76 589.397 124.816 589.062C124.858 588.778 124.873 588.63 124.858 588.627" fill="#17282F"/>
<path d="M84.7684 750.823C93.7157 745.436 96.2011 729.224 92.4004 719.496C88.5997 709.769 81.9934 700.898 80.9237 690.51C80.1011 682.523 82.6722 674.307 80.7665 666.509C78.1947 655.983 67.8561 647.878 67.9132 637.043C67.9458 630.964 71.3721 625.227 71.0627 619.152C70.6821 611.706 64.9305 605.829 61.3516 599.287C55.8735 589.274 55.4492 577.402 53.5309 566.15C51.614 554.899 47.2527 542.862 37.2389 537.385C35.8187 546.953 33.3399 553.515 34.2038 566.463C34.5139 571.115 39.9687 579.988 40.7622 590.179C41.2363 596.27 41.5755 602.37 41.9825 608.467C42.3784 614.398 42.7972 620.439 44.9567 625.977C46.6107 630.223 49.2514 634.075 50.4879 638.459C52.8117 646.708 49.8703 655.677 51.7566 664.036C53.355 671.12 58.2985 677.198 59.3429 684.382C60.8097 694.482 54.3277 705.017 57.7314 714.637C59.4199 719.411 63.3768 723.229 64.5215 728.161C65.4093 731.988 64.4883 736.05 65.2937 739.895C66.5939 746.09 78.4523 750.84 84.7684 750.42" fill="#6946C6"/>
<path d="M39.7679 546.86C39.7519 546.862 39.7672 547.046 39.8091 547.401C39.8636 547.802 39.9333 548.319 40.0209 548.969C40.2354 550.35 40.4778 552.375 40.9592 554.995C41.4764 557.629 42.8516 560.588 43.9579 564.162C45.1238 567.724 46.2865 571.834 47.3204 576.437C48.3714 581.037 49.2572 586.129 50.1889 591.611C51.1496 597.051 52.1343 603.065 54.8886 608.761C56.1648 611.625 57.5937 614.489 58.6714 617.543C59.7757 620.585 60.2936 623.864 60.6203 627.232C61.123 634.003 62.0645 641.04 63.3726 648.131C66.2026 662.281 68.8984 675.761 71.3527 688.028C73.9349 700.248 76.2617 711.256 78.2204 720.525C80.1972 729.724 81.8008 737.189 82.9249 742.417C83.4893 744.951 83.9322 746.943 84.2476 748.359C84.3997 748.998 84.5199 749.506 84.614 749.899C84.7011 750.246 84.7536 750.422 84.7682 750.419C84.7834 750.416 84.7609 750.234 84.7018 749.882C84.6307 749.482 84.5384 748.969 84.4221 748.322C84.1459 746.898 83.7561 744.897 83.2615 742.346C82.2038 737.104 80.6932 729.621 78.8313 720.397C76.9256 711.119 74.6619 700.096 72.1494 687.862C69.7179 675.598 67.0466 662.123 64.2425 647.976C62.935 640.88 61.9987 633.942 61.4815 627.146C61.1488 623.757 60.6084 620.381 59.467 617.262C58.3561 614.144 56.9072 611.268 55.6309 608.43C52.8926 602.816 51.9093 596.944 50.9099 591.485C49.9478 586.012 49.0234 580.905 47.9292 576.297C46.8522 571.685 45.6418 567.566 44.4259 564.006C43.2645 560.421 41.8475 557.486 41.2951 554.92C40.7686 552.35 40.4652 550.304 40.1963 548.941C40.0734 548.296 39.9745 547.783 39.8988 547.385C39.8271 547.035 39.7819 546.857 39.7679 546.86" fill="#17282F"/>
<path d="M1050.55 705.713C1048.48 708.671 1044.45 707.692 1042.59 705.887C1040.72 704.08 1039.93 701.463 1039.21 698.966C1037.57 693.266 1035.92 687.281 1037.14 681.476C1037.5 679.74 1038.15 678.007 1039.37 676.719C1040.59 675.432 1042.47 674.665 1044.18 675.119C1046.21 675.656 1047.48 677.643 1048.39 679.535C1051.07 685.094 1052.49 691.257 1052.51 697.428C1052.52 700.311 1052.18 703.334 1050.55 705.713" fill="#F03D5F"/>
<path d="M1046.86 707.599C1045.24 707.599 1043.6 706.864 1042.59 705.887C1040.72 704.081 1039.93 701.463 1039.21 698.967C1037.97 694.647 1036.72 690.165 1036.71 685.72C1036.71 684.299 1036.84 682.883 1037.14 681.476C1037.5 679.741 1038.15 678.007 1039.37 676.719C1040.35 675.685 1041.75 674.989 1043.16 674.989C1043.5 674.989 1043.84 675.029 1044.18 675.12C1046.21 675.657 1047.48 677.643 1048.39 679.535C1051.07 685.094 1052.49 691.257 1052.51 697.428C1052.51 697.474 1052.51 697.518 1052.51 697.564C1052.51 700.406 1052.15 703.372 1050.55 705.714C1049.6 707.07 1048.24 707.599 1046.86 707.599Z" fill="#6946C6"/>
<path d="M1042.79 720.695C1039.4 718.947 1035.41 718.719 1031.65 719.343C1029.63 719.677 1027.52 720.279 1026.15 721.799C1024.77 723.316 1024.51 725.987 1026.09 727.29C1027.03 728.067 1028.34 728.187 1029.56 728.171C1032.51 728.137 1035.77 727.619 1038.12 729.392C1039.47 730.399 1040.36 732.082 1041.97 732.578C1043.54 733.064 1045.31 732.138 1046.14 730.721C1046.97 729.305 1047 727.534 1046.61 725.936C1046.61 725.936 1046.2 722.457 1042.79 720.695" fill="#6946C6"/>
<path d="M1056.24 709.959C1053.99 707.29 1053.57 703.398 1054.57 700.053C1055.57 696.709 1057.83 693.863 1060.44 691.541C1063.49 688.819 1067.08 686.7 1070.95 685.343C1072.46 684.808 1074.07 684.387 1075.67 684.539C1077.27 684.693 1078.89 685.512 1079.64 686.939C1080.74 689.047 1079.68 691.605 1078.53 693.693C1076.51 697.37 1074.2 700.886 1071.63 704.2C1069.56 706.869 1067.19 709.5 1064.04 710.704C1060.89 711.909 1057.61 711.767 1055.94 709.58" fill="#6946C6"/>
<path d="M1050.69 750.342C1050.65 750.343 1050.59 749.866 1050.51 748.997C1050.41 748.02 1050.29 746.789 1050.15 745.329C1049.98 743.783 1049.75 741.947 1049.32 739.947C1048.9 737.951 1048.23 735.788 1047.37 733.595C1046.48 731.415 1045.39 729.434 1044.12 727.847C1042.86 726.257 1041.4 725.104 1040.02 724.44C1038.65 723.762 1037.42 723.486 1036.57 723.365C1035.71 723.277 1035.23 723.209 1035.23 723.17C1035.23 723.133 1035.71 723.126 1036.59 723.15C1037.46 723.207 1038.75 723.429 1040.19 724.088C1041.64 724.729 1043.2 725.9 1044.52 727.525C1045.85 729.143 1046.98 731.168 1047.88 733.388C1048.76 735.62 1049.41 737.805 1049.82 739.843C1050.23 741.878 1050.42 743.735 1050.54 745.292C1050.66 746.851 1050.7 748.112 1050.72 748.983C1050.74 749.857 1050.73 750.34 1050.69 750.342" fill="#17282F"/>
<path d="M1050.44 747.521C1050.42 747.521 1050.41 747.304 1050.4 746.894C1050.4 746.428 1050.41 745.836 1050.41 745.112C1050.41 743.565 1050.41 741.324 1050.33 738.556C1050.19 733.024 1049.71 725.388 1048.79 716.994C1047.87 708.596 1046.64 701.043 1045.52 695.623C1045.25 694.266 1044.99 693.041 1044.74 691.972C1044.5 690.898 1044.29 689.974 1044.1 689.226C1043.93 688.522 1043.79 687.948 1043.68 687.492C1043.59 687.093 1043.55 686.882 1043.57 686.877C1043.59 686.872 1043.66 687.073 1043.79 687.462C1043.92 687.911 1044.09 688.475 1044.31 689.171C1044.53 689.912 1044.77 690.83 1045.04 691.899C1045.32 692.965 1045.61 694.185 1045.9 695.542C1047.13 700.953 1048.42 708.516 1049.35 716.932C1050.27 725.345 1050.69 733.004 1050.72 738.55C1050.75 741.324 1050.69 743.567 1050.62 745.119C1050.58 745.841 1050.54 746.432 1050.52 746.9C1050.48 747.308 1050.46 747.522 1050.44 747.521" fill="#17282F"/>
<path d="M1050.4 732.744C1050.36 732.744 1050.37 732.083 1050.42 730.883C1050.48 729.684 1050.65 727.953 1050.99 725.834C1051.34 723.719 1051.84 721.207 1052.63 718.479C1053.38 715.74 1054.4 712.782 1055.71 709.776C1058.26 703.722 1061.72 698.774 1064.74 695.71C1065.45 694.897 1066.23 694.309 1066.87 693.735C1067.19 693.46 1067.48 693.184 1067.77 692.966C1068.07 692.763 1068.34 692.574 1068.6 692.399C1069.59 691.721 1070.15 691.362 1070.17 691.393C1070.25 691.513 1067.94 692.875 1065.02 695.98C1062.12 699.08 1058.75 703.994 1056.21 709.996C1054.92 712.976 1053.89 715.906 1053.12 718.618C1052.31 721.321 1051.78 723.805 1051.37 725.901C1050.99 727.999 1050.77 729.712 1050.63 730.898C1050.52 732.088 1050.44 732.745 1050.4 732.744" fill="#17282F"/>
<path d="M571.656 206.071H532.224L524.062 224.621H513.144L546.746 150.421H557.24L590.948 224.621H579.818L571.656 206.071ZM567.946 197.591L551.94 161.233L535.934 197.591H567.946ZM630.955 150.421C640.565 150.421 648.127 152.718 653.639 157.311C659.151 161.904 661.907 168.229 661.907 176.285C661.907 184.341 659.151 190.666 653.639 195.259C648.127 199.852 640.565 202.149 630.955 202.149H612.617V224.621H602.017V150.421H630.955ZM630.637 192.927C637.35 192.927 642.473 191.514 646.007 188.687C649.54 185.79 651.307 181.656 651.307 176.285C651.307 170.914 649.54 166.816 646.007 163.989C642.473 161.092 637.35 159.643 630.637 159.643H612.617V192.927H630.637ZM677.48 150.421H688.08V224.621H677.48V150.421Z" fill="#B99FFF"/>
</svg>
