<svg width="1137" height="806" viewBox="0 0 1137 806" fill="none" xmlns="http://www.w3.org/2000/svg">
<rect width="1137" height="806" fill="white"/>
<path fill-rule="evenodd" clip-rule="evenodd" d="M1007.89 422.723C999.952 419.533 990.928 423.383 987.741 431.32C984.551 439.26 988.401 448.279 996.338 451.469C1004.28 454.659 1013.3 450.809 1016.49 442.872C1019.68 434.932 1015.83 425.913 1007.89 422.723ZM1022.81 408.355C1025.37 410.264 1027.62 412.484 1029.54 414.942L1038.12 413.374L1043.79 426.654L1036.72 431.769C1037.17 434.852 1037.21 438.017 1036.82 441.183L1044 446.143L1038.62 459.541L1030 458.159C1028.09 460.715 1025.87 462.967 1023.41 464.882L1024.98 473.47L1011.7 479.136L1006.59 472.065C1003.5 472.513 1000.34 472.557 997.173 472.167L992.212 479.344L978.812 473.961L980.197 465.346C977.641 463.441 975.389 461.217 973.473 458.76L964.885 460.327L959.219 447.047L966.291 441.932C965.844 438.849 965.798 435.686 966.188 432.519L959.012 427.558L964.395 414.16L973.009 415.543C974.915 412.988 977.138 410.734 979.596 408.819L978.029 400.233L991.309 394.565L996.424 401.637C999.507 401.19 1002.67 401.144 1005.84 401.534L1010.8 394.357L1024.2 399.74L1022.81 408.355Z" fill="#E7E8E5"/>
<path fill-rule="evenodd" clip-rule="evenodd" d="M199.5 367.539C185.151 361.774 168.847 368.732 163.082 383.079C157.317 397.428 164.275 413.733 178.624 419.498C192.972 425.261 209.277 418.305 215.042 403.956C220.807 389.607 213.849 373.302 199.5 367.539ZM226.475 341.57C231.094 345.019 235.165 349.034 238.63 353.475L254.149 350.641L264.392 374.647L251.611 383.891C252.42 389.464 252.503 395.184 251.798 400.905L264.769 409.872L255.037 434.091L239.471 431.589C236.02 436.209 232.003 440.282 227.562 443.745L230.395 459.263L206.39 469.507L197.144 456.725C191.571 457.534 185.854 457.615 180.132 456.912L171.165 469.882L146.947 460.153L149.447 444.584C144.828 441.134 140.756 437.117 137.292 432.675L121.773 435.51L111.53 411.503L124.313 402.259C123.504 396.686 123.422 390.969 124.127 385.245L111.154 376.279L120.885 352.062L136.453 354.563C139.903 349.941 143.919 345.871 148.361 342.407L145.528 326.888L169.532 316.643L178.779 329.427C184.351 328.617 190.069 328.537 195.79 329.241L204.758 316.269L228.976 325.998L226.475 341.57" fill="#E7E8E5"/>
<path fill-rule="evenodd" clip-rule="evenodd" d="M147.862 234.419C139.923 231.229 130.903 235.077 127.713 243.017C124.524 250.954 128.374 259.975 136.312 263.165C144.249 266.353 153.271 262.505 156.46 254.566C159.649 246.629 155.799 237.607 147.862 234.419V234.419ZM162.784 220.051C165.341 221.959 167.593 224.18 169.509 226.638L178.096 225.069L183.762 238.351L176.691 243.465C177.139 246.549 177.185 249.714 176.795 252.879L183.971 257.839L178.587 271.238L169.975 269.853C168.065 272.411 165.843 274.663 163.386 276.579L164.954 285.165L151.672 290.833L146.558 283.761C143.475 284.208 140.311 284.253 137.145 283.864L132.184 291.04L118.786 285.657L120.169 277.043C117.614 275.135 115.361 272.911 113.445 270.456L104.859 272.023L99.1917 258.743L106.264 253.628C105.816 250.545 105.771 247.38 106.161 244.215L98.9844 239.254L104.367 225.856L112.98 227.239C114.889 224.683 117.11 222.43 119.568 220.513L118.001 211.927L131.281 206.261L136.397 213.333C139.481 212.886 142.644 212.84 145.809 213.23L150.77 206.052L164.168 211.436L162.784 220.051" fill="#EDEDEB"/>
<path fill-rule="evenodd" clip-rule="evenodd" d="M312.049 159.332C290.818 157.354 272.003 172.961 270.025 194.191C268.047 215.42 283.655 234.236 304.884 236.214C326.115 238.192 344.93 222.586 346.908 201.355C348.886 180.124 333.28 161.31 312.049 159.332ZM337.491 114.403C344.953 117.146 351.913 120.855 358.237 125.361L377.634 115.514L400.611 143.214L387.352 160.458C390.612 167.507 392.971 175.034 394.289 182.872L414.957 189.625L411.617 225.458L390.059 228.275C387.314 235.736 383.607 242.698 379.097 249.021L388.944 268.42L361.244 291.395L343.998 278.134C336.951 281.396 329.426 283.752 321.586 285.069L314.834 305.74L279 302.4L276.185 280.842C268.723 278.097 261.762 274.39 255.438 269.88L236.041 279.728L213.064 252.028L226.324 234.782C223.064 227.734 220.707 220.208 219.39 212.369L198.718 205.619L202.058 169.784L223.618 166.969C226.362 159.507 230.068 152.546 234.578 146.221L224.731 126.824L252.431 103.847L269.677 117.108C276.725 113.848 284.25 111.489 292.089 110.173L298.841 89.5033L334.674 92.8415L337.491 114.403" fill="#DADBD8"/>
<path d="M187.079 707.382C210.826 691.838 216.856 662.078 216.592 635.192C216.548 630.704 217.163 625.986 215.098 622.002C213.032 618.015 208.055 615.206 203.941 616.999C200.528 618.487 198.963 622.325 196.995 625.484C194.38 629.686 190.551 633.123 186.092 635.272C183.163 636.686 179.563 637.507 176.744 635.882C172.877 633.657 172.546 628.301 172.684 623.841C172.94 615.529 173.196 607.218 173.453 598.909C173.59 594.448 173.715 589.895 172.413 585.63C171.112 581.362 168.103 577.354 163.832 576.065C159.562 574.773 154.186 577.092 153.172 581.436C152.75 583.245 153.077 585.139 152.908 586.986C152.736 588.835 151.812 590.863 150.018 591.336C148.201 591.814 146.424 590.509 145.105 589.172C140.55 584.555 137.528 578.678 134.71 572.839C131.894 567.001 129.168 561.025 125.057 556.011C120.945 550.999 115.185 546.967 108.723 546.451C102.259 545.934 95.2671 549.713 93.4779 555.945C91.6829 562.191 95.2448 568.662 99.1648 573.847C104.98 581.541 111.915 588.39 119.682 594.107C121.083 595.14 122.6 596.253 123.105 597.919C124.014 600.917 121.085 603.803 118.088 604.708C114.69 605.735 111.045 605.301 107.512 605.627C103.978 605.951 100.123 607.395 98.7079 610.65C96.7464 615.165 100.492 620.035 104.216 623.255C111.674 629.703 120.244 634.862 129.435 638.435C132.73 639.718 136.202 640.854 138.825 643.223C141.45 645.591 142.969 649.638 141.273 652.741C139.576 655.849 135.394 656.752 131.927 656.032C128.461 655.312 125.389 653.373 122.102 652.056C115.948 649.593 107.917 649.825 103.811 655.029C101.111 658.447 100.762 663.294 101.982 667.475C103.202 671.655 105.796 675.294 108.563 678.66C118.233 690.423 130.749 700.004 145.034 705.28C159.32 710.554 172.635 712.205 187.079 707.382Z" fill="#6946C6"/>
<path d="M100.154 549.983C100.145 549.994 100.29 550.14 100.582 550.418C100.909 550.719 101.343 551.12 101.896 551.632C103.055 552.691 104.762 554.257 106.905 556.33C111.198 560.465 117.22 566.675 123.715 575.13C126.977 579.343 130.356 584.108 133.891 589.285C137.416 594.474 141.148 600.041 144.849 606.037C148.55 612.028 152.244 618.445 155.531 625.363C157.19 628.814 158.654 632.42 160.151 636.097C161.637 639.768 163.146 643.498 164.673 647.27C170.729 662.379 176.022 676.974 179.726 690.574C183.455 704.164 185.564 716.73 186.361 727.351C187.185 737.978 186.75 746.626 186.167 752.551C185.857 755.515 185.571 757.814 185.32 759.363C185.215 760.108 185.131 760.694 185.068 761.133C185.016 761.531 184.996 761.736 185.009 761.74C185.023 761.742 185.071 761.542 185.152 761.147C185.234 760.711 185.345 760.131 185.485 759.391C185.791 757.848 186.129 755.55 186.489 752.587C187.173 746.657 187.697 737.981 186.947 727.308C186.222 716.64 184.164 704.018 180.465 690.374C176.79 676.719 171.505 662.085 165.444 646.964C163.915 643.188 162.405 639.458 160.916 635.783C159.42 632.118 157.938 628.483 156.265 625.016C152.95 618.061 149.227 611.631 145.499 605.632C141.77 599.632 138.012 594.071 134.459 588.895C130.894 583.729 127.48 578.974 124.179 574.77C117.603 566.335 111.495 560.164 107.127 556.096C104.947 554.055 103.203 552.526 102.007 551.506C101.431 551.021 100.978 550.641 100.64 550.353C100.328 550.099 100.164 549.971 100.154 549.983" fill="#17282F"/>
<path d="M156.031 624.973C156.087 624.985 156.258 624.309 156.52 623.083C156.788 621.854 157.115 620.068 157.488 617.856C158.236 613.43 159.057 607.282 159.936 600.504C160.815 593.719 161.723 587.604 162.539 583.2C162.939 581 163.281 579.219 163.534 577.992C163.779 576.766 163.889 576.077 163.833 576.064C163.777 576.048 163.562 576.71 163.219 577.92C162.869 579.126 162.438 580.891 161.962 583.088C160.997 587.476 159.992 593.606 159.113 600.395C158.262 607.088 157.493 613.141 156.906 617.769C156.627 619.857 156.391 621.616 156.201 623.028C156.038 624.271 155.975 624.964 156.031 624.973" fill="#17282F"/>
<path d="M98.1885 612.869C98.1848 612.926 99.008 613.04 100.498 613.2C101.986 613.366 104.141 613.594 106.791 613.963C112.099 614.655 119.396 615.869 127.388 617.552C135.38 619.253 142.546 621.094 147.691 622.574C150.269 623.297 152.339 623.936 153.772 624.369C155.204 624.809 156.006 625.027 156.025 624.972C156.044 624.919 155.279 624.599 153.876 624.063C152.47 623.535 150.422 622.808 147.859 622.011C142.743 620.383 135.576 618.444 127.561 616.74C119.544 615.049 112.204 613.925 106.861 613.377C104.193 613.084 102.022 612.943 100.523 612.877C99.0214 612.816 98.1922 612.812 98.1885 612.869" fill="#17282F"/>
<path d="M179.771 689.301C179.797 689.312 179.94 689.075 180.187 688.61C180.469 688.057 180.814 687.38 181.232 686.56C182.131 684.776 183.363 682.16 184.843 678.908C187.808 672.407 191.615 663.298 195.681 653.188C199.748 643.079 203.464 633.947 206.287 627.394C207.67 624.208 208.807 621.588 209.653 619.639C210.014 618.795 210.312 618.097 210.556 617.526C210.755 617.038 210.846 616.777 210.82 616.763C210.794 616.75 210.652 616.988 210.405 617.454C210.122 618.008 209.778 618.682 209.36 619.503C208.461 621.29 207.228 623.904 205.749 627.159C202.785 633.658 198.977 642.769 194.911 652.878C190.844 662.986 187.129 672.116 184.305 678.672C182.922 681.856 181.784 684.475 180.939 686.425C180.579 687.27 180.28 687.968 180.036 688.538C179.837 689.027 179.745 689.289 179.771 689.301" fill="#17282F"/>
<path d="M103.174 662.897C103.166 662.924 103.426 663.038 103.932 663.228C104.53 663.441 105.265 663.704 106.156 664.023C108.211 664.734 110.985 665.695 114.359 666.864C121.284 669.264 130.811 672.689 141.333 676.489C151.859 680.287 161.428 683.628 168.406 685.889C171.894 687.021 174.728 687.907 176.697 688.482C177.608 688.74 178.359 688.955 178.969 689.128C179.491 689.267 179.77 689.328 179.778 689.3C179.787 689.273 179.525 689.159 179.019 688.971C178.422 688.754 177.688 688.493 176.797 688.176C174.742 687.464 171.968 686.502 168.594 685.331C161.669 682.932 152.14 679.508 141.615 675.708C131.093 671.909 121.525 668.569 114.546 666.307C111.058 665.176 108.225 664.289 106.254 663.715C105.344 663.456 104.594 663.242 103.983 663.068C103.46 662.929 103.182 662.869 103.174 662.897" fill="#17282F"/>
<path d="M958.966 631.293L844.206 630.762C830.403 630.701 819.263 619.494 819.323 605.729L820.537 318.826C820.598 305.055 831.843 293.94 845.652 294.002L960.411 294.531C974.213 294.594 985.353 305.803 985.294 319.564L984.079 606.471C984.02 620.242 972.773 631.357 958.966 631.293" fill="#33535F"/>
<path d="M960.255 304.431L938.003 304.329C935.02 304.315 932.591 306.826 932.578 309.938L932.559 313.961C932.548 317.071 930.117 319.583 927.132 319.568L883.763 319.37C880.779 319.355 878.371 316.821 878.384 313.712L878.401 309.687C878.415 306.577 876.007 304.043 873.022 304.03L865.197 303.994L845.724 303.904C836.052 303.859 828.175 311.644 828.135 321.289L826.948 601.327C826.907 610.967 834.709 618.815 844.375 618.859L958.906 619.388C968.577 619.431 976.451 611.648 976.493 602.003L977.68 321.963C977.72 312.323 969.921 304.475 960.255 304.431" fill="white"/>
<path d="M958.376 502.563H845.049V494.982H958.376V502.563Z" fill="#33535F"/>
<path d="M954.332 524.83C954.332 525.104 930.142 525.324 900.312 525.324C870.466 525.324 846.285 525.104 846.285 524.83C846.285 524.556 870.466 524.333 900.312 524.333C930.142 524.333 954.332 524.556 954.332 524.83Z" fill="#33535F"/>
<path d="M954.332 345.007C954.332 345.281 930.142 345.504 900.312 345.504C870.466 345.504 846.285 345.281 846.285 345.007C846.285 344.734 870.466 344.513 900.312 344.513C930.142 344.513 954.332 344.734 954.332 345.007Z" fill="#33535F"/>
<path d="M954.332 538.626C954.332 538.9 930.142 539.122 900.312 539.122C870.466 539.122 846.285 538.9 846.285 538.626C846.285 538.352 870.466 538.131 900.312 538.131C930.142 538.131 954.332 538.352 954.332 538.626Z" fill="#33535F"/>
<path d="M954.332 552.429C954.332 552.701 930.142 552.922 900.312 552.922C870.466 552.922 846.285 552.701 846.285 552.429C846.285 552.153 870.466 551.933 900.312 551.933C930.142 551.933 954.332 552.153 954.332 552.429Z" fill="#33535F"/>
<path d="M954.332 566.23C954.332 566.502 930.142 566.725 900.312 566.725C870.466 566.725 846.285 566.502 846.285 566.23C846.285 565.956 870.466 565.734 900.312 565.734C930.142 565.734 954.332 565.956 954.332 566.23Z" fill="#33535F"/>
<path d="M954.332 580.024C954.332 580.3 930.142 580.521 900.312 580.521C870.466 580.521 846.285 580.3 846.285 580.024C846.285 579.752 870.466 579.531 900.312 579.531C930.142 579.531 954.332 579.752 954.332 580.024Z" fill="#33535F"/>
<path d="M955.881 595.674C955.881 595.948 931.69 596.171 901.858 596.171C872.017 596.171 847.832 595.948 847.832 595.674C847.832 595.401 872.017 595.178 901.858 595.178C931.69 595.178 955.881 595.401 955.881 595.674" fill="#33535F"/>
<path d="M959.898 470.667H846.285V360.748H959.898V470.667Z" fill="#DADBD8"/>
<path d="M855.093 461.257L886.523 404.693L912.229 440.848L927.849 421.648L951.088 461.257H855.093" fill="#6946C6"/>
<path d="M923.179 393.692C923.179 398.208 919.518 401.867 915.002 401.867C910.487 401.867 906.827 398.208 906.827 393.692C906.827 389.177 910.487 385.515 915.002 385.515C919.518 385.515 923.179 389.177 923.179 393.692Z" fill="#6946C6"/>
<path d="M951.088 461.563C951.081 461.554 951.071 461.404 951.062 461.113C951.058 460.784 951.048 460.365 951.037 459.831C951.024 458.661 951.007 457.012 950.982 454.885C950.955 450.526 950.913 444.222 950.862 436.218C950.805 420.163 950.723 397.3 950.624 369.849L951.088 370.314C923.286 370.335 890.331 370.363 855.102 370.39C854.973 370.504 856.118 369.372 855.635 369.865V369.888V369.937V370.036V370.232V370.626V371.409V372.975V376.096C855.635 378.173 855.635 380.242 855.635 382.3C855.633 386.42 855.633 390.5 855.631 394.54C855.625 402.618 855.622 410.527 855.618 418.227C855.599 433.62 855.58 448.175 855.565 461.562L855.093 461.092C883.746 461.191 907.676 461.272 924.501 461.331C932.891 461.385 939.505 461.425 944.077 461.455C946.31 461.478 948.045 461.497 949.27 461.51C949.833 461.522 950.271 461.529 950.615 461.537C950.921 461.544 951.081 461.554 951.088 461.563C951.098 461.571 950.957 461.582 950.668 461.59C950.339 461.596 949.915 461.605 949.375 461.617C948.171 461.628 946.466 461.649 944.273 461.672C939.725 461.7 933.146 461.742 924.804 461.796C907.906 461.855 883.869 461.936 855.093 462.035L854.621 462.037V461.562C854.608 448.175 854.589 433.62 854.57 418.227C854.566 410.527 854.56 402.618 854.556 394.54C854.555 390.5 854.555 386.42 854.553 382.3C854.553 380.242 854.553 378.173 854.553 376.096V372.975L854.551 371.409V370.626V370.232V370.036V369.937V369.888V369.865C854.07 370.338 855.209 369.186 855.102 369.307C890.331 369.336 923.286 369.363 951.088 369.383H951.554L951.552 369.849C951.455 397.422 951.374 420.386 951.315 436.513C951.265 444.472 951.222 450.741 951.195 455.076C951.172 457.164 951.153 458.785 951.14 459.933C951.13 460.445 951.123 460.848 951.115 461.164C951.107 461.438 951.098 461.571 951.088 461.563" fill="#33535F"/>
<path d="M789.407 71.9656V325.369C789.407 337.502 779.571 347.336 767.438 347.336H384.669C372.536 347.336 362.702 337.502 362.702 325.369V71.9656C362.702 59.8342 372.536 49.9986 384.669 49.9986H767.438C779.571 49.9986 789.407 59.8342 789.407 71.9656Z" fill="#33535F"/>
<path d="M748.245 59.3771V337.962H391.895V59.3771H748.245" fill="white"/>
<path d="M767.964 187.261C774.264 187.261 779.373 192.368 779.373 198.669C779.373 204.971 774.264 210.078 767.964 210.078C761.663 210.078 756.556 204.971 756.556 198.669C756.556 192.368 761.663 187.261 767.964 187.261Z" fill="#17282F"/>
<path d="M379.699 156.202V241.133C379.699 242.41 378.664 243.444 377.386 243.444H377.296C376.02 243.444 374.985 242.41 374.985 241.133V156.202C374.985 154.924 376.02 153.891 377.296 153.891H377.386C378.664 153.891 379.699 154.924 379.699 156.202Z" fill="#17282F"/>
<path d="M667.75 87.8896H554.423V80.308H667.75V87.8896Z" fill="#33535F"/>
<path d="M520.137 218.231H406.812V210.65H520.137V218.231Z" fill="#33535F"/>
<path d="M695.363 108.542C695.363 108.816 663.809 109.038 624.896 109.038C585.969 109.038 554.423 108.816 554.423 108.542C554.423 108.27 585.969 108.047 624.896 108.047C663.809 108.047 695.363 108.27 695.363 108.542Z" fill="#33535F"/>
<path d="M695.363 125.095C695.363 125.367 663.809 125.59 624.896 125.59C585.969 125.59 554.423 125.367 554.423 125.095C554.423 124.821 585.969 124.599 624.896 124.599C663.809 124.599 695.363 124.821 695.363 125.095Z" fill="#33535F"/>
<path d="M695.363 141.65C695.363 141.922 663.809 142.145 624.896 142.145C585.969 142.145 554.423 141.922 554.423 141.65C554.423 141.376 585.969 141.155 624.896 141.155C663.809 141.155 695.363 141.376 695.363 141.65Z" fill="#33535F"/>
<path d="M695.363 158.206C695.363 158.48 663.809 158.7 624.896 158.7C585.969 158.7 554.423 158.48 554.423 158.206C554.423 157.932 585.969 157.711 624.896 157.711C663.809 157.711 695.363 157.932 695.363 158.206Z" fill="#33535F"/>
<path d="M695.363 174.755C695.363 175.029 663.809 175.252 624.896 175.252C585.969 175.252 554.423 175.029 554.423 174.755C554.423 174.482 585.969 174.259 624.896 174.259C663.809 174.259 695.363 174.482 695.363 174.755Z" fill="#33535F"/>
<path d="M664.454 191.312C664.454 191.586 639.822 191.809 609.44 191.809C579.051 191.809 554.423 191.586 554.423 191.312C554.423 191.038 579.051 190.818 609.44 190.818C639.822 190.818 664.454 191.038 664.454 191.312Z" fill="#33535F"/>
<path d="M592.931 240.496C592.931 240.77 551.54 240.992 500.494 240.992C449.429 240.992 408.048 240.77 408.048 240.496C408.048 240.224 449.429 240.001 500.494 240.001C551.54 240.001 592.931 240.224 592.931 240.496Z" fill="#33535F"/>
<path d="M592.931 254.297C592.931 254.569 551.54 254.792 500.494 254.792C449.429 254.792 408.048 254.569 408.048 254.297C408.048 254.024 449.429 253.801 500.494 253.801C551.54 253.801 592.931 254.024 592.931 254.297Z" fill="#33535F"/>
<path d="M592.931 268.095C592.931 268.369 551.54 268.59 500.494 268.59C449.429 268.59 408.048 268.369 408.048 268.095C408.048 267.821 449.429 267.599 500.494 267.599C551.54 267.599 592.931 267.821 592.931 268.095Z" fill="#33535F"/>
<path d="M592.931 281.896C592.931 282.17 551.54 282.393 500.494 282.393C449.429 282.393 408.048 282.17 408.048 281.896C408.048 281.622 449.429 281.402 500.494 281.402C551.54 281.402 592.931 281.622 592.931 281.896Z" fill="#33535F"/>
<path d="M592.931 295.696C592.931 295.97 551.54 296.192 500.494 296.192C449.429 296.192 408.048 295.97 408.048 295.696C408.048 295.424 449.429 295.201 500.494 295.201C551.54 295.201 592.931 295.424 592.931 295.696Z" fill="#33535F"/>
<path d="M521.66 186.335H408.048V76.4162H521.66V186.335Z" fill="#6946C6"/>
<path d="M416.852 176.923L448.279 120.361L473.988 156.514L489.608 137.316L512.847 176.923H416.852" fill="#DADBD8"/>
<path d="M484.936 109.361C484.936 113.879 481.277 117.538 476.761 117.538C472.246 117.538 468.586 113.879 468.586 109.361C468.586 104.846 472.246 101.184 476.761 101.184C481.277 101.184 484.936 104.846 484.936 109.361Z" fill="#DADBD8"/>
<path d="M512.848 177.23C512.838 177.221 512.831 177.069 512.821 176.78C512.816 176.451 512.806 176.03 512.795 175.498C512.783 174.328 512.764 172.677 512.741 170.55C512.713 166.191 512.673 159.887 512.622 151.883C512.563 135.828 512.481 112.965 512.384 85.5145L512.848 85.9786C485.045 86.0014 452.088 86.0281 416.862 86.0547C416.732 86.1708 417.878 85.0371 417.392 85.5298V85.5545V85.6039V85.7009V85.8987V86.2906V87.0742V88.6396V91.7609C417.392 93.8399 417.392 95.9074 417.392 97.9674C417.391 102.085 417.391 106.167 417.389 110.205C417.383 118.285 417.379 126.192 417.375 133.892C417.356 149.285 417.339 163.84 417.324 177.229L416.852 176.757C445.503 176.858 469.435 176.939 486.259 176.996C494.647 177.05 501.262 177.092 505.835 177.12C508.07 177.145 509.803 177.164 511.03 177.175C511.591 177.187 512.032 177.194 512.374 177.202C512.679 177.211 512.838 177.221 512.848 177.23C512.857 177.238 512.715 177.248 512.428 177.255C512.097 177.263 511.674 177.272 511.132 177.284C509.928 177.295 508.226 177.314 506.031 177.337C501.485 177.365 494.906 177.407 486.561 177.461C469.663 177.52 445.627 177.601 416.852 177.7L416.381 177.702V177.229C416.365 163.84 416.346 149.285 416.329 133.892C416.325 126.192 416.32 118.285 416.314 110.205C416.314 106.167 416.312 102.085 416.312 97.9674C416.31 95.9074 416.31 93.8399 416.31 91.7609V88.6396V87.0742V86.2906V85.8987V85.7009V85.6039V85.5545V85.5298C415.827 86.0053 416.968 84.8526 416.862 84.9743C452.088 85.0009 485.045 85.0276 512.848 85.0504H513.314L513.312 85.5145C513.213 113.087 513.131 136.053 513.074 152.178C513.023 160.138 512.983 166.408 512.952 170.741C512.93 172.829 512.913 174.452 512.899 175.598C512.89 176.112 512.88 176.515 512.873 176.831C512.865 177.103 512.857 177.238 512.848 177.23" fill="#33535F"/>
<path d="M698.837 303.022H618.431V225.232H698.837V303.022Z" fill="#6946C6"/>
<path d="M624.667 296.363L646.908 256.334L665.103 281.919L676.156 268.332L692.603 296.363H624.667" fill="#DADBD8"/>
<path d="M672.85 248.55C672.85 251.745 670.259 254.336 667.063 254.336C663.866 254.336 661.277 251.745 661.277 248.55C661.277 245.354 663.866 242.764 667.063 242.764C670.259 242.764 672.85 245.354 672.85 248.55Z" fill="#DADBD8"/>
<path d="M692.605 296.582C692.599 296.577 692.593 296.468 692.586 296.263C692.582 296.031 692.576 295.734 692.568 295.357C692.559 294.528 692.546 293.36 692.53 291.856C692.51 288.77 692.481 284.31 692.445 278.646C692.403 267.283 692.346 251.102 692.276 231.674L692.605 232.003C672.93 232.018 649.605 232.037 624.674 232.058C624.583 232.138 625.393 231.337 625.051 231.685V231.703V231.737V231.807V231.946V232.224V232.779V233.886V236.096C625.051 237.567 625.049 239.029 625.049 240.486C625.049 243.402 625.049 246.292 625.047 249.148C625.043 254.866 625.041 260.462 625.037 265.911C625.024 276.806 625.013 287.106 625.001 296.582L624.668 296.247C644.944 296.32 661.88 296.377 673.787 296.419C679.724 296.455 684.407 296.485 687.642 296.506C689.223 296.521 690.45 296.535 691.319 296.544C691.716 296.552 692.026 296.558 692.27 296.563C692.485 296.569 692.599 296.575 692.605 296.582C692.612 296.588 692.511 296.596 692.306 296.601C692.072 296.605 691.773 296.613 691.391 296.62C690.539 296.63 689.335 296.641 687.781 296.658C684.563 296.679 679.906 296.71 674 296.746C662.042 296.788 645.032 296.847 624.668 296.915L624.334 296.917V296.582C624.322 287.106 624.309 276.806 624.297 265.911C624.296 260.462 624.292 254.866 624.288 249.148C624.288 246.292 624.286 243.402 624.286 240.486C624.286 239.029 624.286 237.567 624.286 236.096V233.886L624.284 232.779V232.224V231.946V231.807V231.737V231.703V231.685C623.942 232.022 624.75 231.206 624.674 231.292C649.605 231.311 672.93 231.33 692.605 231.345H692.936L692.934 231.674C692.863 251.187 692.806 267.441 692.766 278.853C692.728 284.487 692.698 288.923 692.681 291.991C692.664 293.469 692.65 294.616 692.641 295.428C692.633 295.791 692.627 296.076 692.622 296.301C692.618 296.493 692.612 296.588 692.605 296.582" fill="#33535F"/>
<path d="M756.718 771.841H215.667C200.364 771.841 187.959 759.436 187.959 744.134V405.112C187.959 389.808 200.364 377.403 215.667 377.403H756.718C772.02 377.403 784.426 389.808 784.426 405.112V744.134C784.426 759.436 772.02 771.841 756.718 771.841" fill="#17282F"/>
<path d="M775.394 777.18H196.873C178.176 777.18 163.02 762.024 163.02 743.327V742.667H809.247V743.327C809.247 762.024 794.089 777.18 775.394 777.18" fill="#17282F"/>
<path d="M766.751 726.169H203.974V393.075H766.751V726.169Z" fill="#DADBD8"/>
<path d="M427.395 742.667L435.414 755.422H548.254L555.701 742.667H427.395" fill="#33535F"/>
<path d="M740.884 726.043H222.739V415.256H740.884V726.043Z" fill="#FAFAF9"/>
<path d="M244.858 430.584C244.858 432.985 242.912 434.931 240.51 434.931C238.11 434.931 236.164 432.985 236.164 430.584C236.164 428.182 238.11 426.236 240.51 426.236C242.912 426.236 244.858 428.182 244.858 430.584Z" fill="#33535F"/>
<path d="M262.596 430.584C262.596 432.985 260.649 434.931 258.248 434.931C255.847 434.931 253.9 432.985 253.9 430.584C253.9 428.182 255.847 426.236 258.248 426.236C260.649 426.236 262.596 428.182 262.596 430.584Z" fill="#33535F"/>
<path d="M280.345 430.584C280.345 432.985 278.398 434.931 275.998 434.931C273.597 434.931 271.65 432.985 271.65 430.584C271.65 428.182 273.597 426.236 275.998 426.236C278.398 426.236 280.345 428.182 280.345 430.584Z" fill="#33535F"/>
<path d="M740.884 449.603C740.884 449.875 624.885 450.098 481.824 450.098C338.714 450.098 222.739 449.875 222.739 449.603C222.739 449.327 338.714 449.107 481.824 449.107C624.885 449.107 740.884 449.327 740.884 449.603Z" fill="#33535F"/>
<path d="M784.426 744.836H187.959V742.934H784.426V744.836Z" fill="#33535F"/>
<path d="M378.556 608.177H265.23V600.597H378.556V608.177Z" fill="#33535F"/>
<path d="M524.932 502.925H411.604V495.343H524.932V502.925Z" fill="#33535F"/>
<path d="M693.484 523.578C693.484 523.852 630.377 524.074 552.55 524.074C474.696 524.074 411.604 523.852 411.604 523.578C411.604 523.306 474.696 523.083 552.55 523.083C630.377 523.083 693.484 523.306 693.484 523.578" fill="#33535F"/>
<path d="M693.484 540.131C693.484 540.403 630.377 540.626 552.55 540.626C474.696 540.626 411.604 540.403 411.604 540.131C411.604 539.858 474.696 539.635 552.55 539.635C630.377 539.635 693.484 539.858 693.484 540.131" fill="#33535F"/>
<path d="M693.484 556.687C693.484 556.959 630.377 557.182 552.55 557.182C474.696 557.182 411.604 556.959 411.604 556.687C411.604 556.413 474.696 556.191 552.55 556.191C630.377 556.191 693.484 556.413 693.484 556.687" fill="#33535F"/>
<path d="M693.484 573.24C693.484 573.512 630.377 573.736 552.55 573.736C474.696 573.736 411.604 573.512 411.604 573.24C411.604 572.966 474.696 572.743 552.55 572.743C630.377 572.743 693.484 572.966 693.484 573.24" fill="#33535F"/>
<path d="M693.484 589.792C693.484 590.066 630.377 590.288 552.55 590.288C474.696 590.288 411.604 590.066 411.604 589.792C411.604 589.518 474.696 589.295 552.55 589.295C630.377 589.295 693.484 589.518 693.484 589.792" fill="#33535F"/>
<path d="M521.635 606.345C521.635 606.62 497.004 606.842 466.624 606.842C436.233 606.842 411.604 606.62 411.604 606.345C411.604 606.074 436.233 605.849 466.624 605.849C497.004 605.849 521.635 606.074 521.635 606.345Z" fill="#33535F"/>
<path d="M691.422 638.476C691.422 638.748 649.944 638.97 598.79 638.97C547.62 638.97 506.149 638.748 506.149 638.476C506.149 638.201 547.62 637.979 598.79 637.979C649.944 637.979 691.422 638.201 691.422 638.476" fill="#33535F"/>
<path d="M691.422 656.049C691.422 656.324 649.944 656.545 598.79 656.545C547.62 656.545 506.149 656.324 506.149 656.049C506.149 655.774 547.62 655.554 598.79 655.554C649.944 655.554 691.422 655.774 691.422 656.049" fill="#33535F"/>
<path d="M691.422 673.619C691.422 673.894 649.944 674.114 598.79 674.114C547.62 674.114 506.149 673.894 506.149 673.619C506.149 673.345 547.62 673.125 598.79 673.125C649.944 673.125 691.422 673.345 691.422 673.619" fill="#33535F"/>
<path d="M691.422 691.194C691.422 691.466 649.944 691.687 598.79 691.687C547.62 691.687 506.149 691.466 506.149 691.194C506.149 690.918 547.62 690.697 598.79 690.697C649.944 690.697 691.422 690.918 691.422 691.194" fill="#33535F"/>
<path d="M378.839 636.795C378.839 637.067 354.114 637.291 323.62 637.291C293.117 637.291 268.396 637.067 268.396 636.795C268.396 636.52 293.117 636.298 323.62 636.298C354.114 636.298 378.839 636.52 378.839 636.795Z" fill="#33535F"/>
<path d="M378.839 650.593C378.839 650.866 354.114 651.089 323.62 651.089C293.117 651.089 268.396 650.866 268.396 650.593C268.396 650.318 293.117 650.098 323.62 650.098C354.114 650.098 378.839 650.318 378.839 650.593Z" fill="#33535F"/>
<path d="M378.839 664.395C378.839 664.667 354.114 664.889 323.62 664.889C293.117 664.889 268.396 664.667 268.396 664.395C268.396 664.12 293.117 663.898 323.62 663.898C354.114 663.898 378.839 664.12 378.839 664.395Z" fill="#33535F"/>
<path d="M378.839 678.197C378.839 678.471 354.114 678.691 323.62 678.691C293.117 678.691 268.396 678.471 268.396 678.197C268.396 677.923 293.117 677.702 323.62 677.702C354.114 677.702 378.839 677.923 378.839 678.197Z" fill="#33535F"/>
<path d="M378.839 691.995C378.839 692.269 354.114 692.489 323.62 692.489C293.117 692.489 268.396 692.269 268.396 691.995C268.396 691.721 293.117 691.5 323.62 691.5C354.114 691.5 378.839 691.721 378.839 691.995Z" fill="#33535F"/>
<path d="M378.844 580.493H265.23V470.574H378.844V580.493Z" fill="#DADBD8"/>
<path d="M274.033 571.084L305.463 514.522L331.169 550.675L346.789 531.475L370.029 571.084H274.033" fill="#6946C6"/>
<path d="M342.121 503.519C342.121 508.035 338.461 511.694 333.946 511.694C329.43 511.694 325.769 508.035 325.769 503.519C325.769 499.004 329.43 495.342 333.946 495.342C338.461 495.342 342.121 499.004 342.121 503.519Z" fill="#6946C6"/>
<path d="M370.029 571.392C370.02 571.382 370.012 571.23 370.003 570.941C369.997 570.612 369.988 570.191 369.976 569.659C369.965 568.491 369.946 566.84 369.923 564.711C369.894 560.354 369.854 554.05 369.803 546.045C369.744 529.991 369.662 507.126 369.565 479.676L370.029 480.142C342.227 480.163 309.27 480.189 274.043 480.22C273.913 480.332 275.058 479.2 274.575 479.691V479.717V479.765V479.864V480.062V480.454V481.237V482.803V485.926C274.575 488.001 274.574 490.069 274.574 492.128C274.572 496.248 274.572 500.33 274.57 504.368C274.565 512.446 274.561 520.353 274.557 528.053C274.538 543.448 274.52 558.001 274.505 571.39L274.034 570.92C302.685 571.019 326.617 571.102 343.44 571.16C351.83 571.211 358.444 571.253 363.016 571.283C365.251 571.306 366.984 571.325 368.211 571.338C368.772 571.35 369.213 571.359 369.556 571.365C369.86 571.373 370.02 571.382 370.029 571.392C370.039 571.399 369.896 571.409 369.609 571.418C369.278 571.426 368.856 571.435 368.314 571.445C367.11 571.456 365.407 571.475 363.212 571.5C358.666 571.529 352.085 571.57 343.743 571.624C326.845 571.683 302.81 571.762 274.034 571.861L273.562 571.863V571.39C273.546 558.001 273.528 543.448 273.51 528.053C273.505 520.353 273.501 512.446 273.496 504.368C273.495 500.33 273.494 496.248 273.494 492.128C273.493 490.069 273.493 488.001 273.493 485.926V482.803L273.491 481.237V480.454V480.062V479.864V479.765V479.717V479.691C273.01 480.166 274.149 479.016 274.043 479.135C309.27 479.164 342.227 479.191 370.029 479.212H370.495L370.493 479.676C370.395 507.25 370.313 530.214 370.256 546.341C370.204 554.301 370.162 560.571 370.134 564.904C370.111 566.992 370.094 568.613 370.083 569.761C370.069 570.273 370.062 570.676 370.056 570.992C370.046 571.266 370.039 571.399 370.029 571.392" fill="#33535F"/>
<path d="M491.938 707.881H411.532V630.09H491.938V707.881Z" fill="#DADBD8"/>
<path d="M417.764 701.223L440.006 661.191L458.2 686.777L469.255 673.192L485.702 701.223H417.764Z" fill="#6946C6"/>
<path d="M465.956 653.408C465.956 656.604 463.365 659.195 460.17 659.195C456.972 659.195 454.384 656.604 454.384 653.408C454.384 650.214 456.972 647.621 460.17 647.621C463.365 647.621 465.956 650.214 465.956 653.408Z" fill="#6946C6"/>
<path d="M485.701 701.44C485.695 701.435 485.687 701.328 485.682 701.123C485.678 700.889 485.672 700.592 485.665 700.216C485.655 699.388 485.642 698.22 485.627 696.716C485.606 693.631 485.577 689.168 485.541 683.504C485.499 672.141 485.442 655.96 485.372 636.534L485.701 636.861C466.026 636.878 442.701 636.898 417.77 636.917C417.679 636.996 418.489 636.195 418.147 636.544V636.563V636.595V636.667V636.806V637.082V637.638V638.745V640.954C418.147 642.425 418.147 643.888 418.147 645.347C418.145 648.26 418.145 651.15 418.143 654.009C418.139 659.726 418.137 665.322 418.134 670.769C418.12 681.665 418.109 691.966 418.097 701.44L417.763 701.106C438.041 701.178 454.977 701.237 466.884 701.277C472.822 701.315 477.503 701.344 480.738 701.365C482.319 701.381 483.546 701.395 484.415 701.404C484.811 701.412 485.123 701.418 485.366 701.422C485.581 701.428 485.695 701.435 485.701 701.44C485.708 701.446 485.608 701.454 485.404 701.46C485.168 701.466 484.87 701.471 484.487 701.48C483.635 701.489 482.431 701.5 480.877 701.517C477.659 701.538 473.003 701.568 467.099 701.606C455.138 701.648 438.128 701.705 417.763 701.775H417.43V701.44C417.418 691.966 417.407 681.665 417.394 670.769C417.39 665.322 417.386 659.726 417.384 654.009C417.382 651.15 417.382 648.26 417.382 645.347C417.38 643.888 417.38 642.425 417.38 640.954V638.745V637.638V637.082V636.806V636.667V636.595V636.563V636.544C417.04 636.881 417.844 636.065 417.77 636.15C442.701 636.171 466.026 636.19 485.701 636.204L486.032 636.205L486.03 636.534C485.959 656.048 485.902 672.299 485.861 683.713C485.824 689.345 485.796 693.783 485.775 696.849C485.76 698.329 485.746 699.474 485.737 700.288C485.729 700.65 485.724 700.937 485.72 701.159C485.714 701.351 485.708 701.446 485.701 701.44" fill="#33535F"/>
<path d="M835.869 640.37C834.125 639.179 840.691 643.328 844.24 643.373C844.24 643.373 842.009 646.491 838.454 644.935C834.762 643.32 835.869 640.37 835.869 640.37Z" fill="white"/>
</svg>
