<svg width="30" height="30" viewBox="0 0 30 30" fill="none" xmlns="http://www.w3.org/2000/svg">
<path d="M21.5624 0.9375C19.7376 0.940295 17.9764 1.60827 16.6088 2.8163C15.2411 4.02432 14.3608 5.68953 14.1327 7.5H4.21862C3.47444 7.50102 2.7527 7.75498 2.17185 8.2202C1.59101 8.68543 1.18556 9.33428 1.02205 10.0603C0.858532 10.7863 0.946666 11.5463 1.27198 12.2156C1.5973 12.8849 2.14048 13.4238 2.81237 13.7437V15.3188C2.25146 15.5844 1.7775 16.0038 1.4456 16.5283C1.1137 17.0527 0.9375 17.6606 0.9375 18.2812C0.9375 18.9019 1.1137 19.5098 1.4456 20.0342C1.7775 20.5587 2.25146 20.9781 2.81237 21.2437V22.8188C2.14048 23.1387 1.5973 23.6776 1.27198 24.3469C0.946666 25.0162 0.858532 25.7762 1.02205 26.5022C1.18556 27.2282 1.59101 27.8771 2.17185 28.3423C2.7527 28.8075 3.47444 29.0615 4.21862 29.0625H20.1561C20.2804 29.0625 20.3997 29.0131 20.4876 28.9252C20.5755 28.8373 20.6249 28.7181 20.6249 28.5938V22.9688C20.6249 22.8444 20.5755 22.7252 20.4876 22.6373C20.3997 22.5494 20.2804 22.5 20.1561 22.5H18.7499V21.5625H20.1561C20.2804 21.5625 20.3997 21.5131 20.4876 21.4252C20.5755 21.3373 20.6249 21.2181 20.6249 21.0938V15.8719C20.9358 15.9126 21.2488 15.9345 21.5624 15.9375C23.5515 15.9375 25.4592 15.1473 26.8657 13.7408C28.2722 12.3343 29.0624 10.4266 29.0624 8.4375C29.0624 6.44838 28.2722 4.54072 26.8657 3.1342C25.4592 1.72768 23.5515 0.9375 21.5624 0.9375ZM19.0546 2.37656C18.0796 3.64688 17.4327 5.64844 17.3577 7.96875H15.0233C15.11 6.75432 15.5331 5.58801 16.245 4.60036C16.957 3.61271 17.9298 2.84271 19.0546 2.37656ZM17.3577 8.90625C17.4327 11.2266 18.0796 13.2328 19.0546 14.4984C18.3355 14.2029 17.6763 13.7788 17.1092 13.2469C15.8883 12.1171 15.1426 10.5654 15.0233 8.90625H17.3577ZM17.8124 14.925V15H15.9374V14.0625H16.6171C16.9877 14.3867 17.3879 14.6755 17.8124 14.925ZM1.87487 10.7812C1.87487 10.1596 2.1218 9.56351 2.56134 9.12397C3.00088 8.68443 3.59702 8.4375 4.21862 8.4375H14.0624C14.0654 8.75103 14.0873 9.0641 14.128 9.375H10.3124V10.3125H14.3108C14.3948 10.631 14.4982 10.9441 14.6202 11.25H10.3124V12.1875H15.0749C15.265 12.518 15.483 12.8316 15.7264 13.125H4.21862C3.59702 13.125 3.00088 12.8781 2.56134 12.4385C2.1218 11.999 1.87487 11.4029 1.87487 10.7812ZM14.9999 14.0625V15H6.56238V14.0625H14.9999ZM5.62488 14.0625V15H4.21862C4.06165 15.0007 3.90495 15.0132 3.74987 15.0375V14.025C3.90495 14.0493 4.06165 14.0618 4.21862 14.0625H5.62488ZM19.6874 23.4375V28.125H4.21862C3.59702 28.125 3.00088 27.8781 2.56134 27.4385C2.1218 26.999 1.87487 26.4029 1.87487 25.7812C1.87487 25.1596 2.1218 24.5635 2.56134 24.124C3.00088 23.6844 3.59702 23.4375 4.21862 23.4375H19.6874ZM3.74987 22.5375V21.525C3.90495 21.5493 4.06165 21.5618 4.21862 21.5625H5.62488V22.5H4.21862C4.06165 22.5007 3.90495 22.5132 3.74987 22.5375ZM6.56238 22.5V21.5625H14.9999V22.5H6.56238ZM15.9374 22.5V21.5625H17.8124V22.5H15.9374ZM19.6874 20.625H4.21862C3.59702 20.625 3.00088 20.3781 2.56134 19.9385C2.1218 19.499 1.87487 18.9029 1.87487 18.2812C1.87487 17.6596 2.1218 17.0635 2.56134 16.624C3.00088 16.1844 3.59702 15.9375 4.21862 15.9375H19.6874V20.625ZM21.0936 14.9203C19.603 14.475 18.4077 11.9391 18.2952 8.90625H21.0936V14.9203ZM21.0936 7.96875H18.2952C18.4077 4.93594 19.603 2.4 21.0936 1.95469V7.96875ZM28.1014 7.96875H25.7671C25.6921 5.64375 25.0452 3.64219 24.0655 2.37656C25.1911 2.84207 26.1648 3.61178 26.8777 4.59947C27.5905 5.58716 28.0142 6.75382 28.1014 7.96875ZM22.0311 1.95469C23.5217 2.4 24.7171 4.93594 24.8296 7.96875H22.0311V1.95469ZM22.0311 14.9203V8.90625H24.8296C24.7171 11.9391 23.5217 14.475 22.0311 14.9203ZM24.0655 14.4984C25.0452 13.2328 25.6921 11.2312 25.7671 8.90625H28.1014C28.0142 10.1212 27.5905 11.2878 26.8777 12.2755C26.1648 13.2632 25.1911 14.0329 24.0655 14.4984Z" fill="black"/>
<path d="M5.625 18.2813C5.625 18.0031 5.54253 17.7312 5.388 17.5C5.23348 17.2687 5.01386 17.0885 4.7569 16.982C4.49994 16.8756 4.21719 16.8478 3.9444 16.902C3.67162 16.9563 3.42105 17.0902 3.22438 17.2869C3.02771 17.4836 2.89378 17.7341 2.83952 18.0069C2.78526 18.2797 2.81311 18.5624 2.91955 18.8194C3.02598 19.0764 3.20622 19.296 3.43748 19.4505C3.66874 19.605 3.94062 19.6875 4.21875 19.6875C4.59171 19.6875 4.9494 19.5393 5.21312 19.2756C5.47684 19.0119 5.625 18.6542 5.625 18.2813ZM3.75 18.2813C3.75 18.1885 3.77749 18.0979 3.829 18.0208C3.88051 17.9437 3.95371 17.8837 4.03937 17.8482C4.12502 17.8127 4.21927 17.8034 4.3102 17.8215C4.40113 17.8396 4.48465 17.8842 4.55021 17.9498C4.61576 18.0154 4.66041 18.0989 4.67849 18.1898C4.69658 18.2807 4.6873 18.375 4.65182 18.4606C4.61634 18.5463 4.55626 18.6195 4.47917 18.671C4.40209 18.7225 4.31146 18.75 4.21875 18.75C4.09443 18.75 3.9752 18.7006 3.88729 18.6127C3.79939 18.5248 3.75 18.4056 3.75 18.2813Z" fill="black"/>
<path d="M7.03125 19.6875H8.90625C9.03057 19.6875 9.1498 19.6381 9.23771 19.5502C9.32561 19.4623 9.375 19.3431 9.375 19.2188V17.3438C9.375 17.2194 9.32561 17.1002 9.23771 17.0123C9.1498 16.9244 9.03057 16.875 8.90625 16.875H7.03125C6.90693 16.875 6.7877 16.9244 6.69979 17.0123C6.61189 17.1002 6.5625 17.2194 6.5625 17.3438V19.2188C6.5625 19.3431 6.61189 19.4623 6.69979 19.5502C6.7877 19.6381 6.90693 19.6875 7.03125 19.6875ZM7.5 17.8125H8.4375V18.75H7.5V17.8125Z" fill="black"/>
<path d="M10.3125 16.875H16.875V17.8125H10.3125V16.875Z" fill="black"/>
<path d="M17.8125 16.875H18.75V17.8125H17.8125V16.875Z" fill="black"/>
<path d="M10.3125 18.75H16.875V19.6875H10.3125V18.75Z" fill="black"/>
<path d="M17.8125 18.75H18.75V19.6875H17.8125V18.75Z" fill="black"/>
<path d="M5.625 10.7812C5.625 10.5031 5.54253 10.2312 5.388 9.99998C5.23348 9.76872 5.01386 9.58848 4.7569 9.48204C4.49994 9.37561 4.21719 9.34776 3.9444 9.40202C3.67162 9.45628 3.42105 9.59021 3.22438 9.78688C3.02771 9.98355 2.89378 10.2341 2.83952 10.5069C2.78526 10.7797 2.81311 11.0624 2.91955 11.3194C3.02598 11.5764 3.20622 11.796 3.43748 11.9505C3.66874 12.105 3.94062 12.1875 4.21875 12.1875C4.59171 12.1875 4.9494 12.0393 5.21312 11.7756C5.47684 11.5119 5.625 11.1542 5.625 10.7812ZM3.75 10.7812C3.75 10.6885 3.77749 10.5979 3.829 10.5208C3.88051 10.4437 3.95371 10.3837 4.03937 10.3482C4.12502 10.3127 4.21927 10.3034 4.3102 10.3215C4.40113 10.3396 4.48465 10.3842 4.55021 10.4498C4.61576 10.5153 4.66041 10.5989 4.67849 10.6898C4.69658 10.7807 4.6873 10.875 4.65182 10.9606C4.61634 11.0463 4.55626 11.1195 4.47917 11.171C4.40209 11.2225 4.31146 11.25 4.21875 11.25C4.09443 11.25 3.9752 11.2006 3.88729 11.1127C3.79939 11.0248 3.75 10.9056 3.75 10.7812Z" fill="black"/>
<path d="M7.03125 12.1875H8.90625C9.03057 12.1875 9.1498 12.1381 9.23771 12.0502C9.32561 11.9623 9.375 11.8431 9.375 11.7188V9.84375C9.375 9.71943 9.32561 9.6002 9.23771 9.51229C9.1498 9.42439 9.03057 9.375 8.90625 9.375H7.03125C6.90693 9.375 6.7877 9.42439 6.69979 9.51229C6.61189 9.6002 6.5625 9.71943 6.5625 9.84375V11.7188C6.5625 11.8431 6.61189 11.9623 6.69979 12.0502C6.7877 12.1381 6.90693 12.1875 7.03125 12.1875ZM7.5 10.3125H8.4375V11.25H7.5V10.3125Z" fill="black"/>
<path d="M2.8125 25.7813C2.8125 26.0594 2.89498 26.3313 3.0495 26.5625C3.20402 26.7938 3.42364 26.974 3.6806 27.0805C3.93756 27.1869 4.22031 27.2147 4.49309 27.1605C4.76588 27.1062 5.01645 26.9723 5.21312 26.7756C5.40978 26.579 5.54372 26.3284 5.59798 26.0556C5.65224 25.7828 5.62439 25.5001 5.51795 25.2431C5.41152 24.9861 5.23127 24.7665 5.00002 24.612C4.76876 24.4575 4.49688 24.375 4.21875 24.375C3.84579 24.375 3.4881 24.5232 3.22438 24.7869C2.96066 25.0506 2.8125 25.4083 2.8125 25.7813ZM4.6875 25.7813C4.6875 25.874 4.66001 25.9646 4.6085 26.0417C4.55699 26.1188 4.48378 26.1788 4.39813 26.2143C4.31248 26.2498 4.21823 26.2591 4.1273 26.241C4.03637 26.2229 3.95285 26.1783 3.88729 26.1127C3.82174 26.0472 3.77709 25.9636 3.75901 25.8727C3.74092 25.7818 3.7502 25.6875 3.78568 25.6019C3.82116 25.5162 3.88124 25.443 3.95832 25.3915C4.03541 25.34 4.12604 25.3125 4.21875 25.3125C4.34307 25.3125 4.4623 25.3619 4.5502 25.4498C4.63811 25.5377 4.6875 25.6569 4.6875 25.7813Z" fill="black"/>
<path d="M7.03125 27.1875H8.90625C9.03057 27.1875 9.1498 27.1381 9.23771 27.0502C9.32561 26.9623 9.375 26.8431 9.375 26.7188V24.8438C9.375 24.7194 9.32561 24.6002 9.23771 24.5123C9.1498 24.4244 9.03057 24.375 8.90625 24.375H7.03125C6.90693 24.375 6.7877 24.4244 6.69979 24.5123C6.61189 24.6002 6.5625 24.7194 6.5625 24.8438V26.7188C6.5625 26.8431 6.61189 26.9623 6.69979 27.0502C6.7877 27.1381 6.90693 27.1875 7.03125 27.1875ZM7.5 25.3125H8.4375V26.25H7.5V25.3125Z" fill="black"/>
<path d="M10.3125 24.375H16.875V25.3125H10.3125V24.375Z" fill="black"/>
<path d="M17.8125 24.375H18.75V25.3125H17.8125V24.375Z" fill="black"/>
<path d="M10.3125 26.25H16.875V27.1875H10.3125V26.25Z" fill="black"/>
<path d="M17.8125 26.25H18.75V27.1875H17.8125V26.25Z" fill="black"/>
<path d="M21.5625 25.7812H22.5V26.7188H21.5625V25.7812Z" fill="black"/>
<path d="M27.1875 24.375C27.1875 24.748 27.0393 25.1056 26.7756 25.3694C26.5119 25.6331 26.1542 25.7812 25.7812 25.7812H23.4375V26.7188H25.7812C26.4026 26.718 26.9983 26.4708 27.4377 26.0315C27.8771 25.5921 28.1243 24.9964 28.125 24.375V15H27.1875V24.375Z" fill="black"/>
<path d="M3.28125 5.625H4.21875V6.5625H3.28125V5.625Z" fill="black"/>
<path d="M4.21875 4.21875C4.21875 3.84579 4.36691 3.4881 4.63063 3.22438C4.89435 2.96066 5.25204 2.8125 5.625 2.8125H15.4688V1.875H5.625C5.00363 1.87574 4.40792 2.12291 3.96854 2.56229C3.52916 3.00167 3.28199 3.59738 3.28125 4.21875V4.6875H4.21875V4.21875Z" fill="black"/>
</svg>
