<svg width="28" height="28" viewBox="0 0 28 28" fill="none" xmlns="http://www.w3.org/2000/svg">
<path d="M14 0C6.26803 0 0 6.26803 0 14C0 21.732 6.26803 28 14 28C21.7283 27.9913 27.9913 21.7283 28 14C28 6.26803 21.732 0 14 0ZM14 27.0667C6.78347 27.0667 0.933333 21.2165 0.933333 14C0.933333 6.78347 6.78347 0.933333 14 0.933333C21.2131 0.941558 27.0584 6.78691 27.0667 14C27.0667 21.2165 21.2165 27.0667 14 27.0667Z" fill="black"/>
<path d="M18.2004 7C16.654 7 15.4004 8.25358 15.4004 9.8C15.4004 11.3464 16.654 12.6 18.2004 12.6C19.7462 12.5985 20.9989 11.3458 21.0004 9.8C21.0004 8.25358 19.7468 7 18.2004 7ZM18.2004 11.6667C17.1695 11.6667 16.3337 10.8309 16.3337 9.8C16.3337 8.76907 17.1695 7.93333 18.2004 7.93333C19.2313 7.93333 20.0671 8.76907 20.0671 9.8C20.0671 10.8309 19.2313 11.6667 18.2004 11.6667Z" fill="black"/>
<path d="M18.2004 15.3999C16.654 15.3999 15.4004 16.6535 15.4004 18.1999C15.4004 19.7463 16.654 20.9999 18.2004 20.9999C19.7462 20.9984 20.9989 19.7457 21.0004 18.1999C21.0004 16.6535 19.7468 15.3999 18.2004 15.3999ZM18.2004 20.0666C17.1695 20.0666 16.3337 19.2308 16.3337 18.1999C16.3337 17.169 17.1695 16.3332 18.2004 16.3332C19.2313 16.3332 20.0671 17.169 20.0671 18.1999C20.0671 19.2308 19.2313 20.0666 18.2004 20.0666Z" fill="black"/>
<path d="M9.8 7C8.25358 7 7 8.25358 7 9.8C7 11.3464 8.25358 12.6 9.8 12.6C11.3458 12.5985 12.5985 11.3458 12.6 9.8C12.6 8.25358 11.3464 7 9.8 7ZM9.8 11.6667C8.76907 11.6667 7.93333 10.8309 7.93333 9.8C7.93333 8.76907 8.76907 7.93333 9.8 7.93333C10.8309 7.93333 11.6667 8.76907 11.6667 9.8C11.6667 10.8309 10.8309 11.6667 9.8 11.6667Z" fill="black"/>
<path d="M9.8 15.3999C8.25358 15.3999 7 16.6535 7 18.1999C7 19.7463 8.25358 20.9999 9.8 20.9999C11.3458 20.9984 12.5985 19.7457 12.6 18.1999C12.6 16.6535 11.3464 15.3999 9.8 15.3999ZM9.8 20.0666C8.76907 20.0666 7.93333 19.2308 7.93333 18.1999C7.93333 17.169 8.76907 16.3332 9.8 16.3332C10.8309 16.3332 11.6667 17.169 11.6667 18.1999C11.6667 19.2308 10.8309 20.0666 9.8 20.0666Z" fill="black"/>
</svg>
