<svg width="18" height="13" viewBox="0 0 18 13" fill="none" xmlns="http://www.w3.org/2000/svg">
<path d="M16.2776 0H1.56851C0.703633 0 0 0.703633 0 1.56851V10.6583C0 11.5231 0.703633 12.2268 1.56851 12.2268H16.2776C17.1425 12.2268 17.8462 11.5231 17.8462 10.6583V1.56851C17.8462 0.703633 17.1425 0 16.2776 0ZM16.0729 1.04567L15.8636 1.21999L9.54539 6.48115C9.18477 6.7814 8.66131 6.7814 8.30076 6.48115L1.98256 1.21999L1.77322 1.04567H16.0729ZM1.04567 1.80058L6.19359 6.08725L1.04567 9.51332V1.80058ZM16.2776 11.1811H1.56851C1.31587 11.1811 1.10458 11.001 1.05616 10.7625L7.03201 6.78537L7.63167 7.28472C8.00581 7.59626 8.46448 7.75203 8.92311 7.75203C9.38174 7.75203 9.84038 7.59626 10.2146 7.28472L10.8142 6.78537L16.79 10.7624C16.7416 11.001 16.5303 11.1811 16.2776 11.1811ZM16.8005 9.51332L11.6526 6.08728L16.8005 1.80058V9.51332Z" fill="black"/>
</svg>
