<svg width="19" height="19" viewBox="0 0 19 19" fill="none" xmlns="http://www.w3.org/2000/svg">
<g clip-path="url(#clip0)">
<path d="M17.2269 3.75977H2.51773C1.65285 3.75977 0.949219 4.4634 0.949219 5.32828V14.418C0.949219 15.2829 1.65285 15.9865 2.51773 15.9865H17.2269C18.0917 15.9865 18.7954 15.2829 18.7954 14.418V5.32828C18.7954 4.4634 18.0917 3.75977 17.2269 3.75977ZM17.0222 4.80544L16.8128 4.97975L10.4946 10.2409C10.134 10.5412 9.61053 10.5412 9.24998 10.2409L2.93178 4.97975L2.72244 4.80544H17.0222ZM1.99489 5.56034L7.14281 9.84701L1.99489 13.2731V5.56034ZM17.2269 14.9409H2.51773C2.26509 14.9409 2.0538 14.7607 2.00538 14.5222L7.98123 10.5451L8.58089 11.0445C8.95503 11.356 9.4137 11.5118 9.87233 11.5118C10.331 11.5118 10.7896 11.356 11.1638 11.0445L11.7634 10.5451L17.7392 14.5222C17.6908 14.7608 17.4795 14.9409 17.2269 14.9409ZM17.7497 13.2731L12.6018 9.84705L17.7497 5.56034V13.2731Z" fill="white"/>
</g>
<defs>
<clipPath id="clip0">
<rect width="17.8462" height="17.8462" fill="white" transform="translate(0.949219 0.949219)"/>
</clipPath>
</defs>
</svg>
