<svg width="74" height="19" viewBox="0 0 74 19" fill="none" xmlns="http://www.w3.org/2000/svg">
<path d="M12.6321 4.09782C13.903 4.09782 14.898 4.46508 15.6169 5.1996C16.3486 5.93411 16.7145 7.01655 16.7145 8.44693V14.3424H15.3473V8.58223C15.3473 7.52556 15.0905 6.72017 14.577 6.16606C14.0764 5.61195 13.3639 5.3349 12.4396 5.3349C11.3869 5.3349 10.5589 5.6635 9.9555 6.3207C9.35214 6.96501 9.05046 7.8606 9.05046 9.00748V14.3424H7.68326V8.58223C7.68326 7.52556 7.42651 6.72017 6.91301 6.16606C6.41235 5.61195 5.69344 5.3349 4.7563 5.3349C3.71646 5.3349 2.88844 5.6635 2.27224 6.3207C1.66888 6.96501 1.3672 7.8606 1.3672 9.00748V14.3424H0V4.17514H1.30943V6.03076C1.66888 5.41222 2.16954 4.93543 2.81142 4.60039C3.4533 4.26534 4.19145 4.09782 5.02589 4.09782C5.87317 4.09782 6.60491 4.27823 7.22111 4.63904C7.85015 4.99986 8.31872 5.53464 8.62682 6.24338C8.99911 5.5733 9.53187 5.0514 10.2251 4.6777C10.9312 4.29112 11.7335 4.09782 12.6321 4.09782Z" fill="#343434"/>
<path d="M24.5999 14.439C23.6243 14.439 22.7449 14.22 21.9618 13.7818C21.1787 13.3308 20.5625 12.7123 20.1132 11.9262C19.6639 11.1401 19.4392 10.251 19.4392 9.25876C19.4392 8.26652 19.6639 7.37737 20.1132 6.59131C20.5625 5.80525 21.1787 5.19315 21.9618 4.75502C22.7449 4.31689 23.6243 4.09782 24.5999 4.09782C25.5756 4.09782 26.4549 4.31689 27.238 4.75502C28.0211 5.19315 28.6309 5.80525 29.0674 6.59131C29.5167 7.37737 29.7413 8.26652 29.7413 9.25876C29.7413 10.251 29.5167 11.1401 29.0674 11.9262C28.6309 12.7123 28.0211 13.3308 27.238 13.7818C26.4549 14.22 25.5756 14.439 24.5999 14.439ZM24.5999 13.2213C25.3188 13.2213 25.9607 13.0602 26.5255 12.738C27.1032 12.403 27.5525 11.9327 27.8735 11.327C28.1944 10.7213 28.3549 10.0319 28.3549 9.25876C28.3549 8.48559 28.1944 7.79617 27.8735 7.19052C27.5525 6.58487 27.1032 6.12096 26.5255 5.79881C25.9607 5.46376 25.3188 5.29624 24.5999 5.29624C23.881 5.29624 23.2327 5.46376 22.655 5.79881C22.0902 6.12096 21.6409 6.58487 21.3071 7.19052C20.9862 7.79617 20.8257 8.48559 20.8257 9.25876C20.8257 10.0319 20.9862 10.7213 21.3071 11.327C21.6409 11.9327 22.0902 12.403 22.655 12.738C23.2327 13.0602 23.881 13.2213 24.5999 13.2213Z" fill="#343434"/>
<path d="M37.7511 4.09782C38.701 4.09782 39.5612 4.31689 40.3314 4.75502C41.1017 5.18027 41.705 5.78592 42.1415 6.57198C42.578 7.35804 42.7962 8.25363 42.7962 9.25876C42.7962 10.2639 42.578 11.1595 42.1415 11.9455C41.705 12.7316 41.1017 13.3437 40.3314 13.7818C39.5612 14.22 38.701 14.439 37.7511 14.439C36.9038 14.439 36.1399 14.2586 35.4596 13.8978C34.792 13.537 34.2528 13.0151 33.842 12.3321V14.3424H32.5326V0H33.8998V6.10807C34.3234 5.45088 34.8626 4.95476 35.5173 4.61972C36.1849 4.27179 36.9295 4.09782 37.7511 4.09782ZM37.6548 13.2213C38.3608 13.2213 39.0027 13.0602 39.5804 12.738C40.1581 12.403 40.6074 11.9327 40.9284 11.327C41.2621 10.7213 41.429 10.0319 41.429 9.25876C41.429 8.48559 41.2621 7.79617 40.9284 7.19052C40.6074 6.58487 40.1581 6.12096 39.5804 5.79881C39.0027 5.46376 38.3608 5.29624 37.6548 5.29624C36.9359 5.29624 36.2876 5.46376 35.7099 5.79881C35.145 6.12096 34.6957 6.58487 34.362 7.19052C34.041 7.79617 33.8805 8.48559 33.8805 9.25876C33.8805 10.0319 34.041 10.7213 34.362 11.327C34.6957 11.9327 35.145 12.403 35.7099 12.738C36.2876 13.0602 36.9359 13.2213 37.6548 13.2213Z" fill="#343434"/>
<path d="M45.5833 4.17514H46.9505V14.3424H45.5833V4.17514ZM46.2765 1.95226C45.9941 1.95226 45.7566 1.85562 45.564 1.66232C45.3714 1.46903 45.2752 1.23708 45.2752 0.966468C45.2752 0.708744 45.3714 0.483234 45.564 0.28994C45.7566 0.0966468 45.9941 0 46.2765 0C46.5589 0 46.7964 0.0966468 46.989 0.28994C47.1815 0.470347 47.2778 0.689413 47.2778 0.947139C47.2778 1.23064 47.1815 1.46903 46.989 1.66232C46.7964 1.85562 46.5589 1.95226 46.2765 1.95226Z" fill="#343434"/>
<path d="M50.0036 8.50491H55.0488V9.70333H50.0036V8.50491Z" fill="#343434"/>
<path d="M73.9997 16.3398C73.5426 16.903 72.993 17.3255 72.3506 17.6071C71.7083 17.9015 70.9981 18.0487 70.2199 18.0487C69.4417 18.0487 68.7438 17.9463 68.1262 17.7415C67.5086 17.5495 66.891 17.2166 66.2734 16.743C65.6557 16.2822 64.9517 15.623 64.1611 14.7653C63.0741 14.5349 62.1168 14.0997 61.2892 13.4597C60.4616 12.8069 59.8131 12.0068 59.3438 11.0596C58.8867 10.1123 58.6582 9.0691 58.6582 7.92985C58.6582 6.58579 58.9732 5.38254 59.6031 4.32009C60.2331 3.24484 61.1039 2.40641 62.2156 1.80478C63.3273 1.20316 64.5811 0.902344 65.9769 0.902344C67.3727 0.902344 68.6264 1.20316 69.7381 1.80478C70.8498 2.40641 71.7207 3.24484 72.3506 4.32009C72.9806 5.38254 73.2956 6.58579 73.2956 7.92985C73.2956 9.40191 72.9188 10.7076 72.1654 11.8468C71.4119 12.9733 70.3928 13.8053 69.1082 14.3429C69.2935 14.5477 69.4788 14.6885 69.664 14.7653C69.8617 14.8549 70.0778 14.8997 70.3125 14.8997C70.9548 14.8997 71.5539 14.6117 72.1098 14.0357L73.9997 16.3398ZM65.9769 4.5697C65.4334 4.5697 64.9393 4.71051 64.4946 4.99212C64.0623 5.26093 63.7164 5.65135 63.457 6.16337C63.1976 6.66259 63.0679 7.25142 63.0679 7.92985C63.0679 8.60828 63.1976 9.2035 63.457 9.71552C63.7164 10.2147 64.0623 10.6052 64.4946 10.8868C64.9393 11.1556 65.4334 11.29 65.9769 11.29C66.5204 11.29 67.0083 11.1556 67.4406 10.8868C67.8853 10.6052 68.2374 10.2147 68.4968 9.71552C68.7561 9.2035 68.8858 8.60828 68.8858 7.92985C68.8858 7.25142 68.7561 6.66259 68.4968 6.16337C68.2374 5.65135 67.8853 5.26093 67.4406 4.99212C67.0083 4.71051 66.5204 4.5697 65.9769 4.5697Z" fill="url(#paint0_linear_5007_8609)"/>
<defs>
<linearGradient id="paint0_linear_5007_8609" x1="65.9737" y1="-3.95067" x2="65.9737" y2="19.4503" gradientUnits="userSpaceOnUse">
<stop stop-color="#9067FF"/>
<stop offset="1" stop-color="#5E40AF"/>
</linearGradient>
</defs>
</svg>
