<svg width="28" height="28" viewBox="0 0 28 28" fill="none" xmlns="http://www.w3.org/2000/svg">
<path d="M16.3325 1.3999H11.6659C11.4083 1.3999 11.1992 1.60897 11.1992 1.86655C11.1992 2.12413 11.4083 2.3332 11.6659 2.3332H16.3325C16.5901 2.3332 16.7992 2.12413 16.7992 1.86655C16.7992 1.60897 16.5901 1.3999 16.3325 1.3999Z" fill="black"/>
<path d="M19.5993 1.3999H19.1327C18.8751 1.3999 18.666 1.60897 18.666 1.86655C18.666 2.12413 18.8751 2.3332 19.1327 2.3332H19.5993C19.8569 2.3332 20.066 2.12413 20.066 1.86655C20.066 1.60897 19.8569 1.3999 19.5993 1.3999Z" fill="black"/>
<path d="M14.579 23.7998H13.4203C12.7105 23.7998 12.1328 24.3775 12.1328 25.0873V25.3127C12.1328 26.0225 12.7105 26.5998 13.4199 26.5998H14.5786C15.2884 26.5998 15.8661 26.0225 15.8661 25.3127V25.0873C15.8661 24.3775 15.2884 23.7998 14.579 23.7998ZM14.9328 25.3127C14.9328 25.5078 14.7742 25.6665 14.5791 25.6665H13.4203C13.2248 25.6665 13.0661 25.5078 13.0661 25.3127V25.0873C13.0661 24.8918 13.2248 24.7331 13.4203 24.7331H14.5786C14.7742 24.7331 14.9328 24.8917 14.9328 25.0873V25.3127Z" fill="black"/>
<path d="M20.2465 0H7.75341C6.82334 0 6.06641 0.75693 6.06641 1.687V26.313C6.06641 27.2431 6.82334 28 7.75341 28H20.2461C21.1761 28 21.9331 27.2431 21.9331 26.3135V1.687C21.9331 0.75693 21.1762 0 20.2465 0ZM20.9998 26.313C20.9998 26.7284 20.6619 27.0666 20.2465 27.0666H7.75341C7.33762 27.0666 6.99976 26.7283 6.99976 26.3134V1.687C6.99976 1.27165 7.33762 0.933352 7.75341 0.933352H20.2461C20.6618 0.933352 20.9997 1.2717 20.9997 1.687V26.313H20.9998Z" fill="black"/>
<path d="M21.4664 2.7998H6.53305C6.27548 2.7998 6.06641 3.00888 6.06641 3.26645V22.8665C6.06641 23.124 6.27548 23.3331 6.53305 23.3331H21.4664C21.724 23.3331 21.9331 23.124 21.9331 22.8665V3.26645C21.9331 3.00888 21.724 2.7998 21.4664 2.7998ZM20.9997 22.3998H6.9997V3.73316H20.9997V22.3998Z" fill="black"/>
</svg>
