<svg width="21" height="21" viewBox="0 0 21 21" fill="none" xmlns="http://www.w3.org/2000/svg">
<path d="M3.45825 20.7501H17.7856C17.7856 20.226 17.5774 19.7233 17.2068 19.3527C16.8362 18.9821 16.3336 18.7739 15.8094 18.7739H5.43444C4.91032 18.7739 4.40767 18.9821 4.03706 19.3527C3.66646 19.7233 3.45825 20.226 3.45825 20.7501Z" fill="white"/>
<path d="M8.61116 16.3037L8.18628 17.7859H12.5635L12.1387 16.3037H8.61116Z" fill="white"/>
<path d="M5.6815 7.905C6.09078 7.905 6.42257 7.57321 6.42257 7.16392C6.42257 6.75464 6.09078 6.42285 5.6815 6.42285C5.27222 6.42285 4.94043 6.75464 4.94043 7.16392C4.94043 7.57321 5.27222 7.905 5.6815 7.905Z" fill="white"/>
<path d="M3.4584 3.45831C3.73126 3.45831 3.95245 3.23712 3.95245 2.96426C3.95245 2.69141 3.73126 2.47021 3.4584 2.47021C3.18555 2.47021 2.96436 2.69141 2.96436 2.96426C2.96436 3.23712 3.18555 3.45831 3.4584 3.45831Z" fill="white"/>
<path d="M8.89298 5.43439C9.16583 5.43439 9.38703 5.21319 9.38703 4.94034C9.38703 4.66748 9.16583 4.44629 8.89298 4.44629C8.62012 4.44629 8.39893 4.66748 8.39893 4.94034C8.39893 5.21319 8.62012 5.43439 8.89298 5.43439Z" fill="white"/>
<path d="M0 14.3274C0 14.5894 0.104103 14.8407 0.289406 15.026C0.47471 15.2113 0.726036 15.3154 0.988095 15.3154H19.7619C20.024 15.3154 20.2753 15.2113 20.4606 15.026C20.6459 14.8407 20.75 14.5894 20.75 14.3274V12.8452H0V14.3274Z" fill="white"/>
<path d="M19.7619 0H0.988095C0.726036 0 0.47471 0.104103 0.289406 0.289406C0.104103 0.47471 0 0.726036 0 0.988095V11.8571H20.75V0.988095C20.75 0.726036 20.6459 0.47471 20.4606 0.289406C20.2753 0.104103 20.024 0 19.7619 0ZM11.8571 1.97619H16.3036C16.4346 1.97619 16.5603 2.02824 16.6529 2.12089C16.7456 2.21355 16.7976 2.33921 16.7976 2.47024C16.7976 2.60127 16.7456 2.72693 16.6529 2.81958C16.5603 2.91223 16.4346 2.96429 16.3036 2.96429H11.8571C11.7261 2.96429 11.6005 2.91223 11.5078 2.81958C11.4151 2.72693 11.3631 2.60127 11.3631 2.47024C11.3631 2.33921 11.4151 2.21355 11.5078 2.12089C11.6005 2.02824 11.7261 1.97619 11.8571 1.97619ZM8.89286 6.42262C8.67203 6.42131 8.45428 6.37067 8.25554 6.27441L7.41072 7.12417C7.41072 7.12417 7.41072 7.12417 7.41072 7.16369C7.40985 7.43459 7.34535 7.70149 7.22242 7.94289C7.09948 8.18429 6.92155 8.39342 6.70296 8.55344C6.48437 8.71346 6.23125 8.81988 5.96399 8.86412C5.69673 8.90837 5.42281 8.88921 5.16432 8.80817C4.90582 8.72714 4.66998 8.58651 4.47581 8.39761C4.28164 8.20871 4.13456 7.97684 4.04644 7.72067C3.95831 7.46451 3.93161 7.19122 3.96848 6.92285C4.00535 6.65447 4.10476 6.39851 4.25869 6.1756L3.60655 4.44643H3.45833C3.11512 4.44673 2.78243 4.3279 2.51707 4.11023C2.2517 3.89256 2.07011 3.58954 2.00327 3.2529C1.93644 2.91625 1.98852 2.56684 2.15061 2.26431C2.3127 1.96178 2.57476 1.72488 2.89207 1.59405C3.20937 1.46322 3.56225 1.44656 3.89046 1.54693C4.21868 1.64729 4.50189 1.85846 4.69175 2.14438C4.88162 2.4303 4.96637 2.77325 4.93154 3.11469C4.89671 3.45614 4.74446 3.77491 4.50077 4.01661L5.07881 5.54815C5.27143 5.47497 5.4755 5.4365 5.68155 5.43452C5.94312 5.43506 6.20109 5.49544 6.43573 5.61104C6.67036 5.72665 6.87543 5.89441 7.03524 6.10149L7.55399 5.5778C7.45943 5.37866 7.41048 5.16093 7.41072 4.94048C7.41072 4.64734 7.49764 4.36078 7.6605 4.11704C7.82336 3.8733 8.05484 3.68333 8.32567 3.57115C8.59649 3.45897 8.8945 3.42962 9.18201 3.48681C9.46952 3.544 9.73361 3.68516 9.94089 3.89244C10.1482 4.09972 10.2893 4.36382 10.3465 4.65132C10.4037 4.93883 10.3744 5.23684 10.2622 5.50767C10.15 5.77849 9.96003 6.00997 9.71629 6.17283C9.47256 6.33569 9.186 6.42262 8.89286 6.42262ZM17.7857 10.375H11.8571C11.7261 10.375 11.6005 10.3229 11.5078 10.2303C11.4151 10.1376 11.3631 10.012 11.3631 9.88095C11.3631 9.74992 11.4151 9.62426 11.5078 9.53161C11.6005 9.43896 11.7261 9.38691 11.8571 9.38691H17.7857C17.9167 9.38691 18.0424 9.43896 18.1351 9.53161C18.2277 9.62426 18.2798 9.74992 18.2798 9.88095C18.2798 10.012 18.2277 10.1376 18.1351 10.2303C18.0424 10.3229 17.9167 10.375 17.7857 10.375ZM11.3631 7.41071C11.3631 7.27969 11.4151 7.15402 11.5078 7.06137C11.6005 6.96872 11.7261 6.91667 11.8571 6.91667H17.2917C17.4227 6.91667 17.5484 6.96872 17.641 7.06137C17.7337 7.15402 17.7857 7.27969 17.7857 7.41071C17.7857 7.54174 17.7337 7.66741 17.641 7.76006C17.5484 7.85271 17.4227 7.90476 17.2917 7.90476H11.8571C11.7261 7.90476 11.6005 7.85271 11.5078 7.76006C11.4151 7.66741 11.3631 7.54174 11.3631 7.41071ZM18.2798 5.43452H11.8571C11.7261 5.43452 11.6005 5.38247 11.5078 5.28982C11.4151 5.19717 11.3631 5.07151 11.3631 4.94048C11.3631 4.80945 11.4151 4.68378 11.5078 4.59113C11.6005 4.49848 11.7261 4.44643 11.8571 4.44643H18.2798C18.4108 4.44643 18.5365 4.49848 18.6291 4.59113C18.7218 4.68378 18.7738 4.80945 18.7738 4.94048C18.7738 5.07151 18.7218 5.19717 18.6291 5.28982C18.5365 5.38247 18.4108 5.43452 18.2798 5.43452Z" fill="white"/>
</svg>
