<svg width="22" height="22" viewBox="0 0 22 22" fill="none" xmlns="http://www.w3.org/2000/svg">
<path d="M21.1779 4.72075L18.0675 5.60946L17.8127 5.53667V1.38764L18.0675 1.31486L21.1779 2.20357C21.5216 2.30175 21.8774 2.10174 21.9748 1.76091C22.0725 1.41862 21.8744 1.0619 21.5321 0.964104L18.2446 0.0248143C18.1289 -0.00827142 18.0062 -0.00827142 17.8905 0.0248143C17.3479 0.179844 15.3717 0.744492 14.603 0.964104C14.3263 1.04317 14.1355 1.29608 14.1355 1.58384V1.72177H7.38525C7.61685 2.27176 7.73416 2.85699 7.73416 3.46199C7.73416 4.06655 7.61685 4.65135 7.38525 5.20221H14.1355V5.34057C14.1355 5.62833 14.3263 5.88124 14.603 5.9603C14.9042 6.04637 17.5062 6.7898 17.8905 6.89959C18.006 6.93259 18.1287 6.93272 18.2446 6.89959L21.5321 5.9603C21.8743 5.8625 22.0725 5.50578 21.9748 5.16349C21.877 4.82116 21.5203 4.62282 21.1779 4.72075Z" fill="white"/>
<path d="M3.22259 0.238281C1.44567 0.238281 0 1.68395 0 3.46091C0 5.26069 1.45126 6.6835 3.22259 6.6835C4.99448 6.6835 6.44518 5.24797 6.44518 3.46091C6.44522 1.66462 4.97914 0.238281 3.22259 0.238281Z" fill="white"/>
<path d="M6.06071 15.8461L5.89477 17.8542H16.105L15.939 15.8461C15.9114 15.5118 15.6321 15.2546 15.2967 15.2546H11.2552L6.33395 6.73047C5.47075 7.55727 4.28018 8.0221 3.03101 7.9714L7.23633 15.2547H6.70304C6.36768 15.2546 6.08834 15.5118 6.06071 15.8461Z" fill="white"/>
<path d="M16.3686 21.0446L16.2113 19.1426H5.78803L5.63085 21.0446C5.61603 21.2241 5.677 21.4017 5.79907 21.5342C5.9211 21.6668 6.09306 21.7422 6.27323 21.7422H15.7262C15.9064 21.7422 16.0783 21.6668 16.2004 21.5342C16.3224 21.4017 16.3834 21.2241 16.3686 21.0446Z" fill="white"/>
</svg>
