<svg width="36" height="37" viewBox="0 0 36 37" fill="none" xmlns="http://www.w3.org/2000/svg">
<path d="M35.1464 21.9346C34.6455 21.4667 33.9922 21.209 33.3069 21.209C32.5763 21.209 31.8927 21.4959 31.382 22.0168L27.9349 25.532H22.8733C23.2288 25.059 23.4129 24.4842 23.3965 23.8811C23.3575 22.4704 22.1574 21.3228 20.7212 21.3228H14.8569C14.3507 21.3228 13.8588 21.4276 13.3947 21.6344L9.11805 23.542H7.17785V23.0751C7.17785 22.7838 6.94173 22.5477 6.65048 22.5477H4.46087C4.16962 22.5477 3.9335 22.7838 3.9335 23.0751C3.9335 23.3664 4.16962 23.6024 4.46087 23.6024H6.12312V34.9465H1.0548V23.6025H1.99983C2.29108 23.6025 2.5272 23.3665 2.5272 23.0751C2.5272 22.7838 2.29108 22.5478 1.99983 22.5478H0.527364C0.236118 22.5478 0 22.7838 0 23.0751V35.4738C0 35.7651 0.236118 36.0012 0.527364 36.0012H6.65041C6.94166 36.0012 7.17778 35.7651 7.17778 35.4738V35.3121H12.829C13.4912 35.3121 14.1528 35.2314 14.7952 35.0723L23.5332 32.9087C23.816 32.8387 23.9884 32.5528 23.9184 32.2701C23.8485 31.9873 23.5625 31.8149 23.2797 31.8849L14.5417 34.0485C13.9821 34.1871 13.4059 34.2574 12.8291 34.2574H7.17785V24.5968H9.23035C9.30439 24.5968 9.37759 24.5812 9.44516 24.5511L13.8241 22.5978C14.1521 22.4518 14.4996 22.3777 14.8569 22.3777H20.7212C21.5916 22.3777 22.3188 23.0652 22.3422 23.9101C22.3538 24.3406 22.1954 24.7471 21.8959 25.0548C21.5964 25.3626 20.7618 25.5323 20.76 25.5323H16.7501C16.4588 25.5323 16.2227 25.7684 16.2227 26.0597C16.2227 26.351 16.4588 26.587 16.7501 26.587L28.1562 26.5868C28.2979 26.5868 28.4336 26.5297 28.5328 26.4286L32.135 22.7554C32.4458 22.4383 32.8619 22.2638 33.3068 22.2638C33.7239 22.2638 34.1214 22.4206 34.4261 22.7052C35.0865 23.3226 35.1221 24.3624 34.5055 25.0232L30.9997 28.7793C30.056 29.7938 28.8451 30.5064 27.498 30.8401L25.6684 31.293C25.3856 31.3629 25.2131 31.6489 25.2831 31.9316C25.3426 32.1718 25.5578 32.3324 25.7946 32.3324C25.8365 32.3324 25.8792 32.3273 25.9217 32.3167L27.7514 31.8639C29.298 31.4808 30.6883 30.6626 31.7712 29.4983L35.2765 25.7428C36.2897 24.6572 36.2313 22.9489 35.1464 21.9346Z" fill="white"/>
<path d="M21.5522 20.0905C27.0911 20.0905 31.5974 15.5842 31.5974 10.0453C31.5974 7.72729 30.7858 5.46447 29.3122 3.67362C29.1272 3.44889 28.7949 3.4164 28.5699 3.60154C28.3451 3.78661 28.3127 4.11892 28.4978 4.34386C29.8164 5.94641 30.5427 7.97128 30.5427 10.0454C30.5427 15.0027 26.5095 19.0358 21.5522 19.0358C16.5948 19.0358 12.5617 15.0027 12.5617 10.0454C12.5618 5.0878 16.5948 1.05473 21.5522 1.05473C23.4517 1.05473 25.2688 1.64256 26.8073 2.75481C27.0433 2.92539 27.3729 2.87245 27.5436 2.63633C27.7143 2.40035 27.6612 2.07064 27.4252 1.89999C25.7058 0.657025 23.675 0 21.5522 0C16.0132 0 11.507 4.50629 11.507 10.0452C11.507 15.5842 16.0132 20.0905 21.5522 20.0905Z" fill="white"/>
<path d="M25.6024 3.82684L23.8462 4.90758C23.7525 4.8656 23.6578 4.8263 23.5625 4.78966L23.085 2.78413C23.0285 2.54661 22.8162 2.37891 22.572 2.37891H20.5324C20.2882 2.37891 20.0759 2.54661 20.0194 2.78413L19.5419 4.78966C19.4465 4.8263 19.3519 4.8656 19.2582 4.90758L17.502 3.82684C17.294 3.69886 17.0254 3.73043 16.8527 3.90306L15.4105 5.34529C15.2378 5.51799 15.2063 5.78659 15.3343 5.99458L16.415 7.7507C16.373 7.84443 16.3337 7.93908 16.2971 8.0345L14.2916 8.51201C14.0541 8.56861 13.8864 8.78082 13.8864 9.02503V11.0646C13.8864 11.3088 14.054 11.5211 14.2916 11.5776L16.2971 12.0551C16.3337 12.1504 16.3731 12.2451 16.415 12.3388L15.3343 14.095C15.2063 14.303 15.2379 14.5716 15.4105 14.7443L16.8527 16.1865C17.0254 16.3591 17.294 16.3905 17.502 16.2627L19.2581 15.182C19.3517 15.2239 19.4464 15.2632 19.5418 15.2999L20.0193 17.3054C20.0758 17.5429 20.2881 17.7106 20.5323 17.7106H22.5719C22.8161 17.7106 23.0284 17.5429 23.0849 17.3054L23.5624 15.2999C23.6578 15.2632 23.7526 15.2239 23.8462 15.182L25.6023 16.2627C25.8103 16.3908 26.0789 16.3591 26.2516 16.1865L27.6938 14.7443C27.8665 14.5716 27.898 14.303 27.77 14.095L26.6893 12.3388C26.7313 12.2451 26.7706 12.1504 26.8071 12.0551L28.8127 11.5776C29.0503 11.5211 29.2179 11.3088 29.2179 11.0646V9.02503C29.2179 8.78082 29.0503 8.56861 28.8127 8.51201L26.8071 8.0345C26.7705 7.93908 26.7312 7.84443 26.6893 7.7507L27.77 5.99458C27.8979 5.78659 27.8664 5.51799 27.6937 5.34529L26.2515 3.90306C26.079 3.73043 25.8103 3.69893 25.6024 3.82684ZM25.6204 7.96017C25.7338 8.18089 25.8291 8.4104 25.9039 8.64258C25.9604 8.81802 26.1044 8.95127 26.2837 8.99395L28.1634 9.4415V10.648L26.2837 11.0955C26.1043 11.1381 25.9603 11.2714 25.9039 11.4469C25.8292 11.6789 25.7338 11.9084 25.6204 12.1292C25.5362 12.2933 25.5438 12.4895 25.6404 12.6465L26.6536 14.2929L25.8004 15.146L24.154 14.1328C23.9968 14.0361 23.8007 14.0286 23.6367 14.1129C23.4162 14.2261 23.1867 14.3215 22.9543 14.3963C22.7788 14.4529 22.6457 14.5969 22.603 14.7761L22.1554 16.6557H20.9489L20.5013 14.7761C20.4586 14.5968 20.3255 14.4528 20.15 14.3963C19.9176 14.3215 19.6881 14.2261 19.4676 14.1129C19.3034 14.0284 19.1073 14.0361 18.9503 14.1328L17.3039 15.146L16.4508 14.2929L17.464 12.6465C17.5607 12.4894 17.5682 12.2933 17.484 12.1292C17.3705 11.9084 17.2752 11.6789 17.2005 11.4469C17.1441 11.2714 17 11.1381 16.8207 11.0955L14.941 10.648V9.4415L16.8207 8.99395C17 8.95127 17.144 8.81802 17.2005 8.64258C17.2753 8.4104 17.3706 8.18089 17.484 7.96017C17.5682 7.79613 17.5606 7.59995 17.4639 7.44293L16.451 5.79651L17.304 4.94337L18.9505 5.95654C19.1075 6.05309 19.3036 6.06082 19.4677 5.97651C19.6886 5.86316 19.9182 5.76775 20.1501 5.69307C20.3255 5.63661 20.4588 5.49253 20.5015 5.3133L20.949 3.43363H22.1556L22.6031 5.3133C22.6458 5.4926 22.779 5.63668 22.9545 5.69307C23.1864 5.76775 23.416 5.86316 23.6369 5.97651C23.801 6.06082 23.9971 6.05309 24.1541 5.95654L25.8006 4.94337L26.6537 5.79651L25.6405 7.44287C25.5438 7.59995 25.5362 7.79613 25.6204 7.96017Z" fill="white"/>
<path d="M21.5522 7.47852C20.1368 7.47852 18.9852 8.63007 18.9852 10.0455C18.9852 11.4609 20.1367 12.6124 21.5522 12.6124C22.9676 12.6124 24.1191 11.4609 24.1191 10.0455C24.1192 8.63007 22.9676 7.47852 21.5522 7.47852ZM21.5522 11.5577C20.7184 11.5577 20.04 10.8794 20.04 10.0455C20.04 9.21164 20.7183 8.53324 21.5522 8.53324C22.386 8.53324 23.0644 9.21157 23.0644 10.0455C23.0644 10.8794 22.386 11.5577 21.5522 11.5577Z" fill="white"/>
</svg>
