<svg width="32" height="33" viewBox="0 0 32 33" fill="none" xmlns="http://www.w3.org/2000/svg">
<path d="M25.8586 24.3894C26.1133 24.3894 26.3198 24.1829 26.3198 23.9282C26.3198 23.6735 26.1133 23.467 25.8586 23.467C25.6039 23.467 25.3975 23.6735 25.3975 23.9282C25.3975 24.1829 25.6039 24.3894 25.8586 24.3894Z" fill="white"/>
<path d="M27.4875 24.3894C27.7422 24.3894 27.9487 24.1829 27.9487 23.9282C27.9487 23.6735 27.7422 23.467 27.4875 23.467C27.2328 23.467 27.0264 23.6735 27.0264 23.9282C27.0264 24.1829 27.2328 24.3894 27.4875 24.3894Z" fill="white"/>
<path d="M29.1174 24.3894C29.3721 24.3894 29.5786 24.1829 29.5786 23.9282C29.5786 23.6735 29.3721 23.467 29.1174 23.467C28.8627 23.467 28.6562 23.6735 28.6562 23.9282C28.6562 24.1829 28.8627 24.3894 29.1174 24.3894Z" fill="white"/>
<path d="M30.6165 4.55484H24.015C22.2531 2.33277 19.531 0.904785 16.4814 0.904785C13.4318 0.904785 10.7097 2.33277 8.94781 4.55484H2.34642C1.58351 4.55484 0.962891 5.17545 0.962891 5.93836V24.5199C0.962891 25.4523 1.72143 26.2108 2.65387 26.2108H12.4901V28.9133H5.54986C5.12601 28.9133 4.78124 29.258 4.78124 29.6819V31.6191C4.78124 32.0429 5.12601 32.3877 5.54986 32.3877H27.413C27.8368 32.3877 28.1816 32.0429 28.1816 31.6191V29.6819C28.1816 29.258 27.8368 28.9133 27.413 28.9133H25.0286C24.7738 28.9133 24.5674 29.1197 24.5674 29.3744C24.5674 29.6291 24.7738 29.8356 25.0286 29.8356H27.2592V31.4653H5.70359V29.8356H22.8764C23.1312 29.8356 23.3376 29.6291 23.3376 29.3744C23.3376 29.1197 23.1312 28.9133 22.8764 28.9133H20.4728V26.2108H30.309C31.2415 26.2108 32 25.4523 32 24.5199V5.93836C32 5.17552 31.3793 4.55484 30.6165 4.55484ZM24.2631 6.65411C24.7784 7.68818 25.0939 8.83848 25.1578 10.0544H21.4759C21.4474 8.86633 21.3082 7.71788 21.07 6.65411H24.2631ZM19.8626 15.2995C19.2056 17.3725 18.1441 18.842 16.9426 19.1455V15.2995H19.8626ZM16.9426 14.3772V10.9769H20.553C20.5217 12.1857 20.3677 13.3379 20.1183 14.3772H16.9426ZM20.104 17.1904C20.3893 16.6153 20.6328 15.9798 20.8328 15.2995H23.7306C22.6306 16.9608 20.9758 18.2239 19.0321 18.8219C19.4234 18.3819 19.784 17.8356 20.104 17.1904ZM21.07 14.3772C21.3082 13.3134 21.4474 12.165 21.4759 10.9769H25.1577C25.0938 12.1928 24.7783 13.3431 24.2631 14.3772H21.07ZM23.7306 5.73176H20.8328C20.6328 5.05149 20.3893 4.41599 20.104 3.84087C19.784 3.19566 19.4234 2.64944 19.0321 2.20936C20.9758 2.80747 22.6306 4.07054 23.7306 5.73176ZM16.9426 1.88586C18.1442 2.18937 19.2056 3.65886 19.8626 5.73176H16.9426V1.88586ZM16.4814 7.63795C16.7362 7.63795 16.9426 7.43146 16.9426 7.17677V6.65411H20.1183C20.3678 7.69341 20.5217 8.84561 20.553 10.0544H16.9426V9.39041C16.9426 9.13572 16.7362 8.92924 16.4814 8.92924C16.2268 8.92924 16.0203 9.13572 16.0203 9.39041V10.0545H12.4099C12.4412 8.84567 12.5951 7.69341 12.8446 6.65417H16.0203V7.17683C16.0203 7.43146 16.2268 7.63795 16.4814 7.63795ZM12.1301 15.2995C12.3301 15.9798 12.5736 16.6154 12.8589 17.1904C13.1789 17.8356 13.5395 18.3819 13.9308 18.8219C11.9871 18.2239 10.3323 16.9608 9.23226 15.2995H12.1301ZM8.69975 14.3772C8.18453 13.3431 7.86909 12.1929 7.80514 10.9769H11.487C11.5155 12.1649 11.6548 13.3134 11.8929 14.3772H8.69975ZM13.1003 15.2995H16.0203V19.1455C14.8187 18.8419 13.7573 17.3725 13.1003 15.2995ZM12.8446 14.3772C12.5951 13.3379 12.4412 12.1857 12.4099 10.9769H16.0203V14.3772H12.8446ZM16.0203 1.88586V5.73176H13.1003C13.7573 3.65886 14.8188 2.18937 16.0203 1.88586ZM13.9308 2.20942C13.5394 2.64944 13.1789 3.19572 12.8589 3.84094C12.5736 4.41605 12.3301 5.05155 12.1301 5.73182H9.23226C10.3323 4.07054 11.9871 2.80747 13.9308 2.20942ZM11.8929 6.65411C11.6548 7.71788 11.5155 8.8664 11.487 10.0544H7.8052C7.86909 8.83842 8.18459 7.68818 8.69982 6.65411H11.8929ZM19.5505 28.9133H13.4124V26.2108H19.5505V28.9133ZM31.0776 21.7967H10.1479C9.89322 21.7967 9.68673 22.0032 9.68673 22.2579C9.68673 22.5126 9.89322 22.7191 10.1479 22.7191H31.0776V24.5199C31.0776 24.9437 30.7329 25.2885 30.309 25.2885H2.65387C2.23002 25.2885 1.88524 24.9437 1.88524 24.5199V22.7191H7.99582C8.25051 22.7191 8.45699 22.5126 8.45699 22.2579C8.45699 22.0032 8.25051 21.7967 7.99582 21.7967H1.88524V5.93836C1.88524 5.68404 2.09209 5.47719 2.34642 5.47719H8.30056C7.39438 6.94317 6.87055 8.66926 6.87055 10.5157C6.87055 15.8151 11.182 20.1266 16.4814 20.1266C21.7809 20.1266 26.0923 15.8151 26.0923 10.5157C26.0923 8.66932 25.5685 6.94317 24.6623 5.47725H30.6165C30.8708 5.47725 31.0776 5.6841 31.0776 5.93842V21.7967Z" fill="white"/>
<path d="M6.77403 19.2903H3.8225C3.56781 19.2903 3.36133 19.4968 3.36133 19.7515C3.36133 20.0062 3.56781 20.2126 3.8225 20.2126H6.77403C7.02872 20.2126 7.2352 20.0062 7.2352 19.7515C7.2352 19.4968 7.02872 19.2903 6.77403 19.2903Z" fill="white"/>
<path d="M3.8225 18.614H4.92932C5.18402 18.614 5.3905 18.4075 5.3905 18.1528C5.3905 17.8981 5.18402 17.6917 4.92932 17.6917H3.8225C3.56781 17.6917 3.36133 17.8981 3.36133 18.1528C3.36133 18.4075 3.56781 18.614 3.8225 18.614Z" fill="white"/>
<path d="M29.1558 19.2903H27.926C27.6713 19.2903 27.4648 19.4968 27.4648 19.7515C27.4648 20.0062 27.6713 20.2126 27.926 20.2126H29.1558C29.4106 20.2126 29.617 20.0062 29.617 19.7515C29.617 19.4968 29.4106 19.2903 29.1558 19.2903Z" fill="white"/>
<path d="M29.1558 17.6917H27.926C27.6713 17.6917 27.4648 17.8981 27.4648 18.1528C27.4648 18.4075 27.6713 18.614 27.926 18.614H29.1558C29.4106 18.614 29.617 18.4075 29.617 18.1528C29.617 17.8981 29.4106 17.6917 29.1558 17.6917Z" fill="white"/>
<path d="M29.1558 16.0928H27.926C27.6713 16.0928 27.4648 16.2993 27.4648 16.5539C27.4648 16.8086 27.6713 17.0151 27.926 17.0151H29.1558C29.4106 17.0151 29.617 16.8086 29.617 16.5539C29.617 16.2993 29.4106 16.0928 29.1558 16.0928Z" fill="white"/>
</svg>
