<svg width="32" height="28" viewBox="0 0 32 28" fill="none" xmlns="http://www.w3.org/2000/svg">
<path d="M31.8699 10.6506L26.1824 0.959244C25.9216 0.514932 25.3512 0.364244 24.9051 0.621869L21.4965 2.58981L18.4263 1.46049C18.3133 1.41893 18.1988 1.38406 18.0835 1.35474C17.2191 1.13499 16.3028 1.25831 15.5209 1.70974L10.4457 4.63993C9.3247 5.28712 8.94063 6.72056 9.58782 7.84156C10.235 8.96256 11.6684 9.34662 12.7894 8.69943L18.3586 5.48399C18.9388 5.14906 19.6535 5.14906 20.2336 5.48399C20.2336 5.48399 31.4541 11.9643 31.4901 11.9866L31.6573 11.8489C32.013 11.5561 32.1032 11.0481 31.8699 10.6506Z" fill="#6946C6"/>
<path d="M30.4452 13.5453L19.2972 7.1091L13.728 10.3245C13.078 10.6998 12.3565 10.8915 11.6255 10.8915C11.259 10.8915 10.8902 10.8433 10.5267 10.746C9.43824 10.4543 8.52842 9.75622 7.96505 8.78029C7.40161 7.80447 7.25199 6.66754 7.54367 5.57904C7.78442 4.68041 8.3028 3.90422 9.02524 3.34354L6.72661 2.01641C6.2683 1.75179 5.68186 1.91879 5.43167 2.38516L0.111486 12.304C-0.127827 12.7502 0.0303608 13.3059 0.468923 13.559L0.956236 13.8403L1.81155 12.3588C2.52111 11.1298 3.84405 10.3663 5.26405 10.3663C5.9608 10.3663 6.64905 10.551 7.2543 10.9005C7.60249 11.1015 7.91305 11.3492 8.17974 11.635C8.6108 11.4777 9.07124 11.3931 9.54261 11.3931C10.2394 11.3931 10.9275 11.5778 11.5329 11.9273C12.4545 12.4593 13.1138 13.3186 13.3892 14.3466C13.4195 14.4597 13.4439 14.5733 13.4641 14.6872C13.8475 14.7757 14.2178 14.9208 14.5614 15.1192C15.483 15.6513 16.1424 16.5105 16.4178 17.5385C16.4481 17.6516 16.4724 17.7652 16.4927 17.8791C16.876 17.9677 17.2463 18.1127 17.5899 18.3111C19.4925 19.4097 20.1467 21.8513 19.0484 23.7538L17.8804 25.7767L20.3839 27.2221C21.3927 27.8046 22.6828 27.4589 23.2653 26.45C23.8478 25.4411 23.5021 24.151 22.4932 23.5685L24.117 24.506C25.1259 25.0885 26.416 24.7428 26.9985 23.734C27.581 22.7251 27.2353 21.435 26.2264 20.8525L27.309 21.4775C28.3179 22.06 29.608 21.7143 30.1904 20.7053C30.7729 19.6965 30.4272 18.4063 29.4183 17.8239L28.3358 17.1989C29.3447 17.7814 30.6347 17.4357 31.2172 16.4268C31.7997 15.4179 31.454 14.1278 30.4452 13.5453Z" fill="#6946C6"/>
<path d="M16.6523 19.9339C15.6434 19.3514 14.3534 19.6971 13.7709 20.7059L14.3959 19.6234C14.9784 18.6146 14.6327 17.3245 13.6238 16.742C12.6149 16.1595 11.3249 16.5052 10.7424 17.5141L11.3674 16.4315C11.9499 15.4226 11.6042 14.1326 10.5953 13.5501C9.58643 12.9676 8.29637 13.3133 7.71387 14.3221L7.08887 15.4046C7.6713 14.3958 7.32568 13.1057 6.31674 12.5232C5.30787 11.9407 4.0178 12.2864 3.4353 13.2953L1.16968 17.2194C0.58718 18.2283 0.932867 19.5184 1.94174 20.1009C2.95062 20.6834 4.24074 20.3377 4.82318 19.3288C4.24068 20.3376 4.58637 21.6278 5.59524 22.2102C6.60412 22.7927 7.89424 22.447 8.47668 21.4381C7.89418 22.4469 8.23987 23.7371 9.2488 24.3195C10.2577 24.902 11.5477 24.5563 12.1302 23.5474C11.5477 24.5562 11.8934 25.8464 12.9023 26.4288C13.9112 27.0113 15.2013 26.6656 15.7837 25.6567L17.4244 22.8151C18.0069 21.8064 17.6612 20.5163 16.6523 19.9339Z" fill="#6946C6"/>
</svg>
