<svg width="31" height="15" viewBox="0 0 31 15" fill="none" xmlns="http://www.w3.org/2000/svg">
<path d="M29.089 0.0078125H1.91096C0.857262 0.0078125 0 0.865075 0 1.91877V7.74265C0 8.79634 0.857262 9.6536 1.91096 9.6536H18.8973C19.1485 9.6536 19.3523 9.44989 19.3523 9.19861C19.3523 8.94734 19.1485 8.74362 18.8973 8.74362H1.91096C1.35903 8.74362 0.90998 8.29458 0.90998 7.74265V1.91877C0.90998 1.36684 1.35903 0.917793 1.91096 0.917793H29.089C29.641 0.917793 30.09 1.36684 30.09 1.91877V6.28668C30.09 6.53795 30.2937 6.74167 30.545 6.74167C30.7963 6.74167 31 6.53795 31 6.28668V1.91877C31 0.865075 30.1427 0.0078125 29.089 0.0078125Z" fill="#6946C6"/>
<path d="M29.0589 7.36269V6.77217C29.0589 4.64804 27.3308 2.91992 25.2067 2.91992C23.0825 2.91992 21.3544 4.64804 21.3544 6.77217V7.36269C20.7909 7.55306 20.3838 8.08643 20.3838 8.71346V13.5667C20.3838 14.3528 21.0233 14.9923 21.8094 14.9923H28.6039C29.39 14.9923 30.0296 14.3528 30.0296 13.5667V8.71346C30.0296 8.08643 29.6225 7.55306 29.0589 7.36269ZM25.2067 3.8299C26.8291 3.8299 28.149 5.1498 28.149 6.77217V7.28783H22.2644V6.77217C22.2644 5.1498 23.5843 3.8299 25.2067 3.8299ZM29.1196 13.5667C29.1196 13.851 28.8883 14.0823 28.6039 14.0823H21.8094C21.5251 14.0823 21.2938 13.851 21.2938 13.5667V8.71346C21.2938 8.42912 21.5251 8.19781 21.8094 8.19781H28.6039C28.8883 8.19781 29.1196 8.42912 29.1196 8.71346V13.5667Z" fill="#6946C6"/>
<path d="M7.38339 3.63173C7.25775 3.41407 6.97948 3.33957 6.76187 3.46521L5.76314 4.04183V2.88858C5.76314 2.63731 5.55942 2.43359 5.30815 2.43359C5.05687 2.43359 4.85316 2.63731 4.85316 2.88858V4.04183L3.85442 3.46521C3.63682 3.33951 3.35854 3.41413 3.23291 3.63173C3.10727 3.84934 3.18183 4.12761 3.39943 4.25325L4.39817 4.82988L3.39943 5.4065C3.18183 5.53214 3.10727 5.81041 3.23291 6.02802C3.31717 6.17398 3.47011 6.25557 3.62735 6.25557C3.70452 6.25557 3.78278 6.23592 3.85442 6.19454L4.85316 5.61792V6.77117C4.85316 7.02244 5.05687 7.22616 5.30815 7.22616C5.55942 7.22616 5.76314 7.02244 5.76314 6.77117V5.61792L6.76187 6.19454C6.83352 6.23592 6.91178 6.25557 6.98894 6.25557C7.14619 6.25557 7.29912 6.17398 7.38339 6.02802C7.50903 5.81041 7.43447 5.53214 7.21686 5.4065L6.21813 4.82988L7.21686 4.25325C7.43447 4.12761 7.50903 3.84934 7.38339 3.63173Z" fill="#6946C6"/>
<path d="M13.2076 3.63173C13.082 3.41407 12.8037 3.33957 12.5861 3.46521L11.5874 4.04183V2.88858C11.5874 2.63731 11.3836 2.43359 11.1324 2.43359C10.8811 2.43359 10.6774 2.63731 10.6774 2.88858V4.04183L9.67864 3.46521C9.46103 3.33951 9.18276 3.41413 9.05713 3.63173C8.93149 3.84934 9.00604 4.12761 9.22365 4.25325L10.2224 4.82988L9.22365 5.4065C9.00604 5.53214 8.93149 5.81041 9.05713 6.02802C9.14139 6.17398 9.29433 6.25557 9.45157 6.25557C9.52874 6.25557 9.607 6.23592 9.67864 6.19454L10.6774 5.61792V6.77117C10.6774 7.02244 10.8811 7.22616 11.1324 7.22616C11.3836 7.22616 11.5874 7.02244 11.5874 6.77117V5.61792L12.5861 6.19454C12.6577 6.23592 12.736 6.25557 12.8132 6.25557C12.9704 6.25557 13.1233 6.17398 13.2076 6.02802C13.3332 5.81041 13.2587 5.53214 13.0411 5.4065L12.0423 4.82988L13.0411 4.25325C13.2587 4.12761 13.3332 3.84934 13.2076 3.63173Z" fill="#6946C6"/>
<path d="M19.0309 3.63173C18.9052 3.41407 18.6269 3.33957 18.4093 3.46521L17.4106 4.04183V2.88858C17.4106 2.63731 17.2069 2.43359 16.9556 2.43359C16.7043 2.43359 16.5006 2.63731 16.5006 2.88858V4.04183L15.5019 3.46521C15.2843 3.33951 15.006 3.41413 14.8804 3.63173C14.7547 3.84934 14.8293 4.12761 15.0469 4.25325L16.0456 4.82988L15.0469 5.4065C14.8293 5.53214 14.7547 5.81041 14.8804 6.02802C14.9646 6.17398 15.1176 6.25557 15.2748 6.25557C15.352 6.25557 15.4302 6.23592 15.5019 6.19454L16.5006 5.61792V6.77117C16.5006 7.02244 16.7043 7.22616 16.9556 7.22616C17.2069 7.22616 17.4106 7.02244 17.4106 6.77117V5.61792L18.4093 6.19454C18.481 6.23592 18.5592 6.25557 18.6364 6.25557C18.7937 6.25557 18.9466 6.17398 19.0309 6.02802C19.1565 5.81041 19.0819 5.53214 18.8643 5.4065L17.8656 4.82988L18.8643 4.25325C19.0819 4.12761 19.1565 3.84934 19.0309 3.63173Z" fill="#6946C6"/>
<path d="M25.2069 9.22852C24.4208 9.22852 23.7812 9.86805 23.7812 10.6542C23.7812 11.2812 24.1883 11.8146 24.7519 12.0049V12.5954C24.7519 12.8467 24.9556 13.0504 25.2069 13.0504C25.4582 13.0504 25.6619 12.8467 25.6619 12.5954V12.0049C26.2255 11.8146 26.6325 11.2812 26.6325 10.6542C26.6325 9.86805 25.993 9.22852 25.2069 9.22852ZM25.2069 11.1698C24.9225 11.1698 24.6912 10.9385 24.6912 10.6542C24.6912 10.3698 24.9225 10.1385 25.2069 10.1385C25.4912 10.1385 25.7225 10.3698 25.7225 10.6542C25.7225 10.9385 25.4912 11.1698 25.2069 11.1698Z" fill="#6946C6"/>
</svg>
