<svg width="24" height="24" viewBox="0 0 24 24" fill="none" xmlns="http://www.w3.org/2000/svg">
<path d="M21.0826 5.0429L20.7635 4.72386L16.5863 0.546621L16.2672 0.227586C16.1228 0.0831724 15.9226 0 15.7177 0H3.70863C3.21787 0 2.68945 0.379035 2.68945 1.21076V16.1379V22.9808V23.1724C2.68945 23.5188 3.03787 23.8564 3.45 23.9628C3.47069 23.9681 3.49056 23.976 3.51207 23.9801C3.57663 23.993 3.64242 24 3.70863 24H20.291C20.3572 24 20.423 23.993 20.4875 23.9801C20.509 23.976 20.5289 23.9681 20.5496 23.9628C20.9617 23.8564 21.3101 23.5188 21.3101 23.1724V22.9808V16.1379V5.784C21.3101 5.46662 21.2721 5.23241 21.0826 5.0429ZM19.835 4.96552H16.3446V1.47517L19.835 4.96552ZM3.70863 23.1724C3.67925 23.1724 3.65276 23.1617 3.62669 23.1521C3.56214 23.1215 3.51704 23.057 3.51704 22.9808V16.9655H20.4826V22.9808C20.4826 23.057 20.4375 23.1211 20.3729 23.1521C20.3468 23.1617 20.3203 23.1724 20.291 23.1724H3.70863ZM3.51704 16.1379V1.21076C3.51704 1.12097 3.53069 0.827586 3.70863 0.827586H15.541C15.5274 0.879724 15.517 0.933517 15.517 0.989379V5.7931H20.3208C20.3766 5.7931 20.43 5.78276 20.4821 5.7691C20.4821 5.77531 20.4826 5.77779 20.4826 5.784V16.1379H3.51704Z" fill="black"/>
<path d="M9.12155 18.5151C8.98376 18.4021 8.82817 18.3169 8.65479 18.2606C8.48141 18.2039 8.30596 18.1758 8.12886 18.1758H6.92969V22.3452H7.60872V20.8402H8.11231C8.33079 20.8402 8.53107 20.8083 8.71189 20.7442C8.89272 20.6801 9.04748 20.5894 9.17576 20.4727C9.30403 20.3561 9.40376 20.2116 9.47576 20.0399C9.54734 19.8682 9.58334 19.677 9.58334 19.4656C9.58334 19.2657 9.54072 19.0857 9.45589 18.9252C9.37107 18.7646 9.25934 18.6285 9.12155 18.5151ZM8.86417 19.8926C8.82238 20.0076 8.76817 20.097 8.70031 20.1612C8.63245 20.2253 8.55796 20.2716 8.47686 20.2998C8.39576 20.3279 8.31341 20.3424 8.23065 20.3424H7.60831V18.6905H8.11727C8.29065 18.6905 8.4301 18.7179 8.53603 18.7725C8.64155 18.8271 8.72348 18.895 8.78224 18.9761C8.84058 19.0572 8.87907 19.142 8.8981 19.2305C8.91672 19.3191 8.92624 19.3973 8.92624 19.4652C8.92624 19.6352 8.90555 19.7776 8.86417 19.8926Z" fill="black"/>
<path d="M13.2217 18.7865C13.0462 18.602 12.8257 18.4534 12.5596 18.3425C12.2935 18.2316 11.9853 18.1758 11.6348 18.1758H10.3789V22.3452H11.9571C12.0097 22.3452 12.0908 22.3385 12.2004 22.3253C12.3097 22.3121 12.4305 22.2823 12.5625 22.2347C12.6945 22.1875 12.831 22.1167 12.9726 22.0224C13.1141 21.9281 13.2411 21.799 13.3545 21.6347C13.4679 21.4704 13.561 21.2668 13.6346 21.0235C13.7083 20.7802 13.7451 20.4868 13.7451 20.1438C13.7451 19.8947 13.7017 19.6522 13.6152 19.4167C13.5279 19.1817 13.3971 18.9715 13.2217 18.7865ZM12.7268 21.4059C12.5232 21.7001 12.1913 21.847 11.7312 21.847H11.0579V18.6901H11.4539C11.7784 18.6901 12.0424 18.7327 12.2459 18.8176C12.4495 18.9024 12.6109 19.0137 12.7297 19.1515C12.8484 19.2893 12.9283 19.4428 12.9701 19.6125C13.0115 19.7821 13.0321 19.9539 13.0321 20.1272C13.0321 20.6854 12.9304 21.1121 12.7268 21.4059Z" fill="black"/>
<path d="M14.7305 22.3452H15.4207V20.467H17.1632V20.0031H15.4207V18.6905H17.3382V18.1758H14.7305V22.3452Z" fill="black"/>
<path d="M15.901 9.50114C15.5207 9.50114 15.054 9.55079 14.5115 9.64928C13.7542 8.84569 12.9639 7.67217 12.4061 6.52017C12.9593 4.19093 12.6825 3.86114 12.5604 3.70555C12.4305 3.54004 12.2472 3.27148 12.0387 3.27148C11.9513 3.27148 11.713 3.31121 11.6182 3.34266C11.3799 3.42211 11.2516 3.60583 11.149 3.84542C10.8564 4.52942 11.2578 5.69548 11.6708 6.59424C11.3178 7.99824 10.7257 9.67866 10.1033 11.0425C8.53507 11.7609 7.7021 12.4664 7.62679 13.1396C7.59948 13.3846 7.65741 13.7442 8.08817 14.0673C8.2061 14.1555 8.34431 14.2022 8.48831 14.2022C8.85038 14.2022 9.21617 13.925 9.63948 13.3304C9.94817 12.8967 10.2796 12.3054 10.6256 11.5713C11.7337 11.0868 13.1046 10.649 14.2785 10.4036C14.9323 11.0313 15.5178 11.3491 16.021 11.3491C16.3918 11.3491 16.7095 11.1787 16.9396 10.8563C17.1792 10.5207 17.2338 10.2203 17.101 9.96252C16.9417 9.65259 16.549 9.50114 15.901 9.50114ZM8.49741 13.5038C8.30376 13.3552 8.31493 13.2551 8.31907 13.2174C8.34472 12.9873 8.70514 12.5789 9.58941 12.082C8.91907 13.32 8.55907 13.4843 8.49741 13.5038ZM11.8905 4.01879C11.9083 4.013 12.3229 4.47438 11.9302 5.34955C11.3402 4.74583 11.85 4.03245 11.8905 4.01879ZM11.0352 10.6502C11.4552 9.64928 11.8458 8.54404 12.1417 7.52031C12.6064 8.35535 13.1646 9.16555 13.7232 9.81438C12.8402 10.0217 11.9 10.3142 11.0352 10.6502ZM16.3735 10.452C16.2461 10.6304 15.9697 10.6345 15.8729 10.6345C15.6523 10.6345 15.57 10.5033 15.2327 10.2439C15.5108 10.2083 15.7731 10.1992 15.9821 10.1992C16.35 10.1992 16.4174 10.2534 16.4683 10.2807C16.4592 10.3101 16.4352 10.3656 16.3735 10.452Z" fill="black"/>
</svg>
