<svg width="35" height="35" viewBox="0 0 35 35" fill="none" xmlns="http://www.w3.org/2000/svg">
<rect width="35" height="35" fill="white"/>
<path d="M32.5508 15.2192L30.033 14.592C29.7219 13.3221 29.2219 12.1155 28.5428 10.9958L29.8794 8.77227C30.0228 8.53386 29.9853 8.22844 29.7885 8.03171L27.1444 5.38759C26.9478 5.19086 26.6423 5.15342 26.4039 5.29671L24.1803 6.63334C23.0606 5.95421 21.8541 5.45424 20.5842 5.14312L19.957 2.62545C19.8898 2.35547 19.6473 2.16602 19.3691 2.16602H15.6304C15.3522 2.16602 15.1098 2.35547 15.0425 2.62545L14.4153 5.14324C13.1454 5.45436 11.9388 5.95445 10.8192 6.63352L8.59558 5.29683C8.3571 5.15348 8.05168 5.19093 7.85501 5.38771L5.2109 8.03177C5.01417 8.2285 4.97672 8.53392 5.12001 8.77233L6.45664 10.9959C5.77751 12.1156 5.27754 13.3221 4.96642 14.592L2.4487 15.2192C2.17872 15.2865 1.98926 15.529 1.98926 15.8071V19.5458C1.98926 19.824 2.17872 20.0665 2.4487 20.1338L4.96649 20.761C5.2776 22.0309 5.77758 23.2374 6.45677 24.3571L5.12008 26.5807C4.97672 26.8192 5.01423 27.1246 5.21096 27.3212L7.85507 29.9654C8.05174 30.1621 8.35723 30.1995 8.59564 30.0562L10.8192 28.7196C11.9389 29.3987 13.1454 29.8987 14.4153 30.2098L15.0426 32.7276C15.1098 32.9976 15.3523 33.1871 15.6305 33.1871H19.3692C19.6474 33.1871 19.8898 32.9976 19.9571 32.7276L20.5844 30.2098C21.8543 29.8987 23.0608 29.3987 24.1805 28.7196L26.4041 30.0562C26.6425 30.1995 26.9479 30.1621 27.1447 29.9654L29.7888 27.3212C29.9855 27.1245 30.023 26.8191 29.8797 26.5807L28.543 24.3571C29.2222 23.2374 29.7221 22.0309 30.0333 20.761L32.5511 20.1338C32.821 20.0665 33.0105 19.824 33.0105 19.5458V15.8071C33.0102 15.529 32.8208 15.2865 32.5508 15.2192ZM31.7985 19.0724L29.3793 19.6751C29.1547 19.731 28.9817 19.9099 28.9333 20.1361C28.6367 21.522 28.0949 22.8291 27.3233 24.0213C27.1976 24.2156 27.1934 24.4644 27.3126 24.6627L28.5969 26.7992L26.6224 28.7737L24.4859 27.4894C24.2876 27.3701 24.0388 27.3743 23.8446 27.5C22.6523 28.2718 21.3451 28.8134 19.9594 29.11C19.7331 29.1585 19.5542 29.3315 19.4983 29.556L18.8956 31.9752H16.1039L15.5012 29.556C15.4453 29.3315 15.2664 29.1585 15.0401 29.11C13.6543 28.8134 12.3472 28.2718 11.1549 27.5C10.9606 27.3743 10.7118 27.3702 10.5136 27.4894L8.3771 28.7737L6.40254 26.7992L7.68688 24.6627C7.80606 24.4645 7.80194 24.2156 7.67622 24.0214C6.90451 22.8291 6.36279 21.522 6.06616 20.1362C6.01775 19.91 5.84471 19.731 5.62017 19.6751L3.20102 19.0724V16.2806L5.62023 15.678C5.84477 15.622 6.01781 15.4431 6.06622 15.2169C6.36285 13.831 6.90457 12.5239 7.67622 11.3317C7.80194 11.1374 7.80606 10.8886 7.68688 10.6904L6.40254 8.55379L8.37704 6.5793L10.5135 7.86358C10.7119 7.98281 10.9607 7.97863 11.1549 7.85291C12.3471 7.08127 13.6542 6.53955 15.0401 6.24291C15.2664 6.1945 15.4453 6.02146 15.5012 5.79693L16.1039 3.37777H18.8956L19.4983 5.79699C19.5542 6.02152 19.7331 6.19456 19.9594 6.24297C21.3453 6.53961 22.6524 7.08133 23.8446 7.85297C24.0388 7.97869 24.2877 7.98281 24.4859 7.86364L26.6224 6.57936L28.5969 8.55385L27.3126 10.6904C27.1934 10.8886 27.1976 11.1375 27.3233 11.3317C28.0949 12.5239 28.6367 13.831 28.9333 15.2169C28.9817 15.4431 29.1547 15.622 29.3793 15.678L31.7985 16.2806V19.0724Z" fill="black"/>
<path d="M17.5003 8.58691C16.0873 8.58691 14.733 8.90246 13.4751 9.52481C13.1752 9.67319 13.0523 10.0366 13.2007 10.3365C13.3491 10.6364 13.7125 10.7594 14.0124 10.6109C15.1018 10.0719 16.2753 9.79867 17.5003 9.79867C21.8434 9.79867 25.3767 13.332 25.3767 17.6751C25.3767 22.0182 21.8434 25.5515 17.5003 25.5515C13.1572 25.5515 9.62387 22.0182 9.62387 17.6751C9.62387 16.2632 10.0016 14.8785 10.7163 13.6706C10.8867 13.3826 10.7913 13.011 10.5034 12.8406C10.2154 12.6703 9.8438 12.7655 9.67337 13.0535C8.84822 14.4481 8.41211 16.0462 8.41211 17.6751C8.41211 22.6863 12.4891 26.7633 17.5003 26.7633C22.5115 26.7633 26.5885 22.6863 26.5885 17.6751C26.5885 12.6639 22.5115 8.58691 17.5003 8.58691Z" fill="black"/>
<path d="M17.5 13.3125C15.0946 13.3125 13.1377 15.2694 13.1377 17.6748C13.1377 20.0802 15.0946 22.0372 17.5 22.0372C19.9054 22.0372 21.8623 20.0802 21.8623 17.6748C21.8623 15.2694 19.9054 13.3125 17.5 13.3125ZM17.5 20.8254C15.7628 20.8254 14.3495 19.4121 14.3495 17.6748C14.3495 15.9376 15.7628 14.5243 17.5 14.5243C19.2373 14.5243 20.6506 15.9376 20.6506 17.6748C20.6506 19.412 19.2373 20.8254 17.5 20.8254Z" fill="#6946C6"/>
<path d="M12.1485 2.17752C12.0358 2.06483 11.8795 2 11.7201 2C11.5608 2 11.4045 2.06483 11.2918 2.17752C11.1791 2.29022 11.1143 2.44653 11.1143 2.60588C11.1143 2.76522 11.1791 2.92154 11.2918 3.03424C11.4045 3.14693 11.5608 3.21176 11.7201 3.21176C11.8795 3.21176 12.0358 3.14693 12.1485 3.03424C12.2612 2.92154 12.326 2.76522 12.326 2.60588C12.326 2.44653 12.2612 2.29022 12.1485 2.17752Z" fill="#6946C6"/>
</svg>
