<svg width="32" height="32" viewBox="0 0 32 32" fill="none" xmlns="http://www.w3.org/2000/svg">
<g clip-path="url(#clip0)">
<path d="M31.914 18.248C31.7813 18 31.5238 17.8578 31.2075 17.8578H30.2161V14.7543C30.2161 12.4859 29.5797 10.6644 28.3245 9.34053C27.1861 8.1399 25.7689 7.58122 24.802 7.26541C24.6593 7.21872 24.5028 7.24328 24.3813 7.33153C24.2597 7.41972 24.1877 7.56084 24.1877 7.71097V12.6386C24.1877 12.8975 24.3975 13.1073 24.6564 13.1073C24.9154 13.1073 25.1252 12.8975 25.1252 12.6386V8.37528C27.062 9.12953 29.2786 10.6763 29.2786 14.7543V18.3265C29.2786 18.5855 29.4884 18.7953 29.7473 18.7953H30.8758L27.2411 23.7152C27.2245 23.7345 27.2111 23.7478 27.2009 23.7568C27.1909 23.7478 27.1774 23.7347 27.1608 23.7153L23.5279 18.7953H24.6564C24.9153 18.7953 25.1251 18.5854 25.1251 18.3265V14.7727C25.1251 14.5138 24.9153 14.304 24.6564 14.304C24.3974 14.304 24.1876 14.5138 24.1876 14.7727V17.8578H23.1963C22.8799 17.8578 22.6224 18 22.4897 18.2481C22.3613 18.4881 22.3789 18.794 22.5346 19.0274C22.5387 19.0337 22.543 19.0397 22.5474 19.0458L26.4152 24.2838C26.4202 24.2906 26.4254 24.2973 26.4308 24.3038C26.7068 24.638 26.9981 24.7081 27.2018 24.7038C27.2063 24.7039 27.2109 24.7039 27.2157 24.7039C27.4168 24.7039 27.7013 24.6305 27.9709 24.3038C27.9763 24.2973 27.9815 24.2907 27.9865 24.2839L31.8562 19.0458C31.8607 19.0398 31.8651 19.0337 31.8693 19.0273C32.025 18.7939 32.0425 18.488 31.914 18.248Z" fill="black"/>
<path d="M7.73649 7.81198H17.8848V8.80335C17.8848 9.1206 18.0277 9.37848 18.2768 9.51098C18.3832 9.56754 18.5023 9.59548 18.6221 9.59548C18.7731 9.59548 18.9254 9.5511 19.0547 9.46379C19.0603 9.46004 19.0657 9.45623 19.0711 9.45223L24.3106 5.58254C24.3174 5.57754 24.324 5.57235 24.3305 5.56698C24.6649 5.29104 24.734 4.99954 24.7306 4.79766C24.7341 4.5951 24.6649 4.30279 24.3306 4.02673C24.3241 4.02129 24.3173 4.0161 24.3105 4.01104L19.0709 0.143163C19.0655 0.139226 19.0601 0.135413 19.0546 0.131663C18.8227 -0.0247742 18.5174 -0.0434617 18.2767 0.0844758C18.0276 0.216913 17.8847 0.474788 17.8847 0.792101V1.78348H14.7814C12.5129 1.78348 10.6914 2.41966 9.36749 3.67448C8.16699 4.81229 7.60736 6.2301 7.2908 7.19754C7.24411 7.34029 7.26868 7.49679 7.3568 7.61848C7.44511 7.73998 7.58624 7.81198 7.73649 7.81198ZM14.7815 2.72098H18.3536C18.6125 2.72098 18.8223 2.5111 18.8223 2.25223V1.12498L23.7421 4.75673C23.7615 4.77329 23.7747 4.78673 23.7836 4.79685C23.7747 4.80698 23.7614 4.82048 23.7421 4.83698L18.8223 8.47048V7.34329C18.8223 7.08435 18.6124 6.87454 18.3536 6.87454H8.40118C9.15649 4.9376 10.7046 2.72098 14.7815 2.72098Z" fill="black"/>
<path d="M24.2601 24.1896H14.1136V23.1982C14.1136 22.8818 13.9713 22.6243 13.7233 22.4916C13.4833 22.3633 13.1773 22.3808 12.9439 22.5365C12.9377 22.5406 12.9316 22.5449 12.9256 22.5493L7.68776 26.4171C7.68095 26.4221 7.67426 26.4274 7.6677 26.4328C7.33345 26.7088 7.26432 27.0012 7.2677 27.2038C7.26426 27.4056 7.33339 27.697 7.6677 27.973C7.6742 27.9784 7.68082 27.9836 7.68764 27.9886L12.9254 31.8583C12.9315 31.8627 12.9376 31.8671 12.9439 31.8712C13.0734 31.9576 13.2252 32.0014 13.3757 32.0014C13.4964 32.0014 13.6164 31.9732 13.7232 31.9161C13.9712 31.7834 14.1134 31.5258 14.1134 31.2094V30.2181H17.2168C19.4852 30.2181 21.3066 29.5816 22.6305 28.3264C23.8311 27.188 24.3898 25.7708 24.7056 24.8038C24.7521 24.6611 24.7276 24.5047 24.6394 24.383C24.5513 24.2615 24.4102 24.1896 24.2601 24.1896ZM17.2169 29.2806H13.6448C13.3859 29.2806 13.1761 29.4904 13.1761 29.7493V30.8778L8.25632 27.2431C8.23701 27.2265 8.2237 27.2131 8.21476 27.2029C8.22364 27.1928 8.23689 27.1793 8.25632 27.1626L13.1761 23.5298V24.6583C13.1761 24.9172 13.3859 25.127 13.6448 25.127H23.5958C22.8416 27.064 21.2948 29.2806 17.2169 29.2806Z" fill="black"/>
<path d="M7.61818 24.6148C7.73981 24.5266 7.81181 24.3855 7.81181 24.2353V19.3389C7.81181 19.08 7.60193 18.8702 7.34306 18.8702C7.08418 18.8702 6.87431 19.08 6.87431 19.3389V23.5706C4.9375 22.8152 2.72087 21.267 2.72087 17.19V13.6178C2.72087 13.3589 2.511 13.1491 2.25212 13.1491H1.12493L4.75575 8.23034C4.77262 8.2109 4.78637 8.19753 4.79668 8.1884C4.80712 8.19753 4.82087 8.21097 4.83762 8.23034L8.47012 13.1491H7.343C7.08412 13.1491 6.87425 13.3589 6.87425 13.6178V17.2047C6.87425 17.4637 7.08412 17.6735 7.343 17.6735C7.60187 17.6735 7.81175 17.4636 7.81175 17.2047V14.0866H8.80306C9.12031 14.0866 9.37818 13.9437 9.51062 13.6946C9.6385 13.4541 9.62 13.1488 9.4635 12.9167C9.45975 12.9112 9.45593 12.9057 9.45193 12.9004L5.58231 7.66059C5.57675 7.65309 5.571 7.64578 5.56506 7.63859C5.28743 7.30609 4.99775 7.23565 4.7975 7.24053C4.59681 7.23497 4.30593 7.30609 4.02825 7.63853C4.02225 7.64572 4.0165 7.65303 4.01087 7.66065L0.143121 12.9005C0.139184 12.9058 0.135371 12.9113 0.131621 12.9168C-0.0248787 13.1488 -0.0433787 13.4542 0.0844963 13.6947C0.216934 13.9437 0.474809 14.0867 0.792059 14.0867H1.78337V17.1901C1.78337 19.4586 2.41956 21.2802 3.67431 22.6041C4.81212 23.8046 6.22987 24.3643 7.19731 24.6807C7.24493 24.6963 7.29412 24.704 7.34306 24.704C7.44062 24.704 7.53718 24.6735 7.61818 24.6148Z" fill="black"/>
</g>
<defs>
<clipPath id="clip0">
<rect width="32" height="32" fill="white"/>
</clipPath>
</defs>
</svg>
