<svg width="250" height="250" viewBox="0 0 250 250" fill="none" xmlns="http://www.w3.org/2000/svg">
<rect width="250" height="250" fill="white"/>
<path d="M49.4609 240.171L6.99805 241.644L28.7651 219.513L49.4626 240.173L49.4609 240.171Z" fill="#F15A24"/>
<path d="M242.072 130.407C234.183 191.918 177.918 235.376 116.418 227.479C54.9066 219.588 11.4488 163.325 19.3379 101.819C27.232 40.3099 83.4847 -3.15303 145.001 4.74624C206.508 12.6336 249.976 68.9015 242.072 130.406" fill="#F15A24"/>
<path d="M159.338 84.1951C166.717 92.0385 159.434 110.583 159.434 110.583C159.434 110.583 152.237 136.802 111.028 170.801L103.336 163.251L155.647 109.786L156.658 108.422C158.049 106.154 159.202 84.0426 159.338 84.1951Z" fill="#999999"/>
<path d="M159.338 84.1951C166.717 92.0385 159.434 110.583 159.434 110.583C159.434 110.583 152.237 136.802 111.028 170.801L103.336 163.251L155.647 109.786L156.658 108.422C158.049 106.154 159.202 84.0426 159.338 84.1951Z" stroke="white" stroke-width="0.5" stroke-linecap="round" stroke-linejoin="round"/>
<path d="M92.043 152.134L159.233 84C162.643 88.0496 163.369 92.4129 162.379 98.6289C161.713 102.935 154.276 111.539 154.276 111.539L103.341 163.249" fill="#666666"/>
<path d="M92.043 152.134L159.233 84C162.643 88.0496 163.369 92.4129 162.379 98.6289C161.713 102.935 154.276 111.539 154.276 111.539L103.341 163.249" stroke="white" stroke-width="0.5" stroke-linecap="round" stroke-linejoin="round"/>
<path d="M159.353 84.2415L92.0536 152.136L92.1892 152.004L92.1638 152.014L75.4668 135.561C110.286 92.2493 132.799 84.1737 132.799 84.1737C132.799 84.1737 147.455 78.4527 157.911 82.8922C158.714 83.3227 159.063 83.5702 159.352 84.2432" fill="#FF931E"/>
<path d="M159.353 84.2415L92.0536 152.136L92.1892 152.004L92.1638 152.014L75.4668 135.561C110.286 92.2493 132.799 84.1737 132.799 84.1737C132.799 84.1737 147.455 78.4527 157.911 82.8922C158.714 83.3227 159.063 83.5702 159.352 84.2432L159.353 84.2415Z" stroke="white" stroke-width="0.5" stroke-linecap="round" stroke-linejoin="round"/>
<path d="M111.042 170.804C94.9859 184.028 74.4376 204.8 46.5071 219.288L52.7197 245.847L26.3877 219.912L92.05 152.141" fill="#999999"/>
<path d="M111.042 170.804C94.9859 184.028 74.4376 204.8 46.5071 219.288L52.7197 245.847L26.3877 219.912L92.05 152.141" stroke="white" stroke-width="0.5" stroke-linecap="round" stroke-linejoin="round"/>
<path d="M75.9082 135.786L92.2204 152.034L54.5361 160.196L75.5472 135.493L75.9099 135.786H75.9082Z" fill="#F15A24"/>
<path d="M75.9082 135.786L92.2204 152.034L54.5361 160.196L75.5472 135.493L75.9099 135.786H75.9082Z" stroke="white" stroke-width="0.5" stroke-linecap="round" stroke-linejoin="round"/>
<path d="M152.911 64.537C151.31 78.9794 161.708 91.981 176.151 93.5913C190.581 95.1949 203.595 84.7886 205.205 70.3512C206.81 55.9139 196.396 42.8987 181.96 41.2934C167.516 39.6983 154.512 50.0911 152.911 64.537Z" fill="#999999"/>
<path d="M152.911 64.537C151.31 78.9794 161.708 91.981 176.151 93.5913C190.581 95.1949 203.595 84.7886 205.205 70.3512C206.81 55.9139 196.396 42.8987 181.96 41.2934C167.516 39.6983 154.512 50.0911 152.911 64.537Z" stroke="white" stroke-width="0.5" stroke-linecap="round" stroke-linejoin="round"/>
<path d="M201.441 81.9801C206.294 74.8894 206.043 64.2813 205.069 61.1386C203.874 57.2906 201.199 51.0322 196.534 47.7793L171.866 70.5007C171.866 70.5007 190.824 90.8693 191.318 90.9371C191.523 90.9608 197.015 88.4453 201.441 81.9801Z" fill="#666666"/>
<path d="M201.441 81.9801C206.294 74.8894 206.043 64.2813 205.069 61.1386C203.874 57.2906 201.199 51.0322 196.534 47.7793L171.866 70.5007C171.866 70.5007 190.824 90.8693 191.318 90.9371C191.523 90.9608 197.015 88.4453 201.441 81.9801ZM196.464 64.1813C196.464 64.1813 198.836 70.0057 195.827 74.5368L196.464 64.1813Z" stroke="white" stroke-width="0.5" stroke-linecap="round" stroke-linejoin="round"/>
<path d="M103.915 163.26L76.6914 168.105L93.1239 151.031" fill="#666666"/>
<path d="M76.54 135.905L111.149 168.477M103.925 163.263L76.7011 168.108L93.1336 151.034L103.925 163.263Z" stroke="white" stroke-width="0.5" stroke-linecap="round" stroke-linejoin="round"/>
</svg>
