<svg width="26" height="26" viewBox="0 0 26 26" fill="none" xmlns="http://www.w3.org/2000/svg">
<path d="M23.6066 1.625H12.1838C10.8619 1.625 9.79053 2.69656 9.79053 4.01826V9.64487C10.3943 9.94499 11.0468 10.2695 11.6557 10.5722L12.5875 8.70799C13.1516 7.58069 14.5269 7.12267 15.6538 7.68582C16.7831 8.25096 17.2407 9.62245 16.6753 10.7519L15.0144 14.0745C15.0585 14.5143 15.0194 14.9577 14.8954 15.3867H15.992L13.0998 23.3395C12.9283 23.8112 13.2599 24.3617 13.8159 24.3617C14.1268 24.3617 14.4192 24.1699 14.5314 23.86L17.6128 15.3867H18.1466L21.2593 23.8626C21.3726 24.1709 21.6642 24.3617 21.9748 24.3617C22.4944 24.3617 22.8752 23.8428 22.6894 23.3376L19.7694 15.3867H23.6066C24.9283 15.3867 25.9999 14.3152 25.9999 12.9935V4.01826C25.9999 2.69656 24.9283 1.625 23.6066 1.625V1.625ZM21.9744 12.1234H18.5568C18.1363 12.1234 17.7951 11.7822 17.7951 11.3617C17.7951 10.9408 18.1363 10.6 18.5568 10.6H21.9744C22.3954 10.6 22.7362 10.9408 22.7362 11.3617C22.7362 11.7822 22.3954 12.1234 21.9744 12.1234ZM21.9744 9.26758H18.5568C18.1363 9.26758 17.7951 8.92679 17.7951 8.50586C17.7951 8.08533 18.1363 7.74414 18.5568 7.74414H21.9744C22.3954 7.74414 22.7362 8.08533 22.7362 8.50586C22.7362 8.92679 22.3954 9.26758 21.9744 9.26758ZM21.9744 6.41212H13.8159C13.395 6.41212 13.0542 6.07094 13.0542 5.65041C13.0542 5.22987 13.395 4.88869 13.8159 4.88869H21.9744C22.3954 4.88869 22.7362 5.22987 22.7362 5.65041C22.7362 6.07094 22.3954 6.41212 21.9744 6.41212Z" fill="#6946C6"/>
<path d="M13.4023 15.06C13.5399 14.6567 13.539 14.2354 13.4227 13.851L15.3131 10.0706C15.5012 9.69426 15.3488 9.23663 14.9725 9.04858C14.5964 8.86034 14.1388 9.01288 13.9506 9.38918L12.3383 12.6134C11.3746 12.1335 9.91048 11.4055 8.731 10.819C7.63365 10.2733 6.85051 9.78392 5.51433 9.78392H4.84128C5.8817 9.78392 6.81024 9.30507 7.41803 8.55565C7.88181 7.98535 8.15912 7.25854 8.15912 6.46648C8.15912 4.63379 6.67377 3.14844 4.84088 3.14844C3.00879 3.14844 1.52344 4.63379 1.52344 6.46648C1.52344 7.34662 1.86621 8.14642 2.4254 8.73993C3.03001 9.38283 3.88873 9.78392 4.84068 9.78412C3.56441 9.78412 2.3167 10.3013 1.4191 11.2012C0.504044 12.1139 0 13.3299 0 14.6252V17.0728C0 18.1265 0.684158 19.0231 1.63174 19.3421V23.5998C1.63174 24.0205 1.97273 24.3615 2.39346 24.3615H7.2887C7.70943 24.3615 8.05042 24.0205 8.05042 23.5998V15.0414C8.77266 15.4024 9.72144 15.8767 10.4891 16.2607C11.0273 16.5297 11.6561 16.5539 12.2169 16.3258C12.776 16.0957 13.2071 15.6376 13.3993 15.0689C13.4003 15.066 13.4013 15.063 13.4023 15.06Z" fill="#6946C6"/>
</svg>
