<svg width="15" height="20" viewBox="0 0 15 20" fill="none" xmlns="http://www.w3.org/2000/svg">
<path d="M10.625 1.25H9.2675C9.01 0.5225 8.315 0 7.5 0C6.685 0 5.99 0.5225 5.73125 1.25H4.375C4.03 1.25 3.75 1.53 3.75 1.875V4.375C3.75 4.72 4.03 5 4.375 5H10.625C10.97 5 11.25 4.72 11.25 4.375V1.875C11.25 1.53 10.97 1.25 10.625 1.25Z" fill="white"/>
<path d="M13.75 2.5H12.5V4.375C12.5 5.40875 11.6588 6.25 10.625 6.25H4.375C3.34125 6.25 2.5 5.40875 2.5 4.375V2.5H1.25C0.56125 2.5 0 3.06125 0 3.75V18.75C0 19.4512 0.54875 20 1.25 20H13.75C14.4512 20 15 19.4512 15 18.75V3.75C15 3.04875 14.4512 2.5 13.75 2.5ZM7.3175 13.5675L4.8175 16.0675C4.695 16.1888 4.535 16.25 4.375 16.25C4.215 16.25 4.055 16.1888 3.9325 16.0675L2.6825 14.8175C2.43875 14.5738 2.43875 14.1775 2.6825 13.9338C2.92625 13.69 3.3225 13.69 3.56625 13.9338L4.375 14.7413L6.4325 12.6838C6.67625 12.44 7.0725 12.44 7.31625 12.6838C7.56 12.9275 7.56125 13.3225 7.3175 13.5675ZM7.3175 8.5675L4.8175 11.0675C4.695 11.1888 4.535 11.25 4.375 11.25C4.215 11.25 4.055 11.1888 3.9325 11.0675L2.6825 9.8175C2.43875 9.57375 2.43875 9.1775 2.6825 8.93375C2.92625 8.69 3.3225 8.69 3.56625 8.93375L4.375 9.74125L6.4325 7.68375C6.67625 7.44 7.0725 7.44 7.31625 7.68375C7.56 7.9275 7.56125 8.3225 7.3175 8.5675ZM11.875 15H9.375C9.03 15 8.75 14.72 8.75 14.375C8.75 14.03 9.03 13.75 9.375 13.75H11.875C12.22 13.75 12.5 14.03 12.5 14.375C12.5 14.72 12.22 15 11.875 15ZM11.875 10H9.375C9.03 10 8.75 9.72 8.75 9.375C8.75 9.03 9.03 8.75 9.375 8.75H11.875C12.22 8.75 12.5 9.03 12.5 9.375C12.5 9.72 12.22 10 11.875 10Z" fill="white"/>
</svg>
