<svg width="64" height="64" viewBox="0 0 64 64" fill="none" xmlns="http://www.w3.org/2000/svg">
<circle cx="32" cy="32" r="32" fill="black"/>
<path d="M32.2608 18V23.9865H37.0345C35.9206 20.7513 34.201 18.4778 32.2608 18Z" fill="white"/>
<path d="M25.9658 23.9865H30.7396V18C28.7993 18.4778 27.0797 20.7513 25.9658 23.9865Z" fill="white"/>
<path d="M42.2527 22.7174C40.4874 20.7483 38.2338 19.3285 35.764 18.56C36.9524 19.8808 37.9431 21.7434 38.6538 23.9865H41.6851C41.9849 23.9865 42.2573 23.81 42.3805 23.5361C42.5038 23.2622 42.4536 22.9411 42.2527 22.7174Z" fill="white"/>
<path d="M20.7466 22.7174C20.5458 22.9411 20.4955 23.2622 20.6173 23.5361C20.7406 23.81 21.0114 23.9865 21.3127 23.9865H24.344C25.0547 21.7435 26.0454 19.8809 27.2338 18.56C24.7655 19.3285 22.5103 20.7483 20.7466 22.7174Z" fill="white"/>
<path d="M25.9658 40.7258C27.0797 43.961 28.7993 46.2345 30.7396 46.7123V40.7258H25.9658Z" fill="white"/>
<path d="M32.2608 40.7258V46.7123C34.201 46.2345 35.9206 43.961 37.0345 40.7258H32.2608Z" fill="white"/>
<path d="M42.3822 41.1762C42.2589 40.9023 41.9865 40.7258 41.6868 40.7258H38.6555C37.9448 42.9688 36.9541 44.8314 35.7657 46.1523C38.2355 45.3839 40.4892 43.9641 42.2544 41.9949C42.4537 41.7713 42.504 41.4501 42.3822 41.1762Z" fill="white"/>
<path d="M24.344 40.7258H21.3127C21.0129 40.7258 20.7406 40.9023 20.6173 41.1762C20.4955 41.4501 20.5458 41.7712 20.7466 41.9949C22.5119 43.964 24.7655 45.3838 27.2353 46.1523C26.0454 44.8314 25.0547 42.9688 24.344 40.7258Z" fill="white"/>
<path d="M45.1958 25.5084H17.8043C15.7059 25.5084 14 27.2158 14 29.3128V35.3998C14 37.4968 15.7059 39.2042 17.8043 39.2042H45.1958C47.2943 39.2042 49.0002 37.4968 49.0002 35.3998V29.3128C49.0002 27.2158 47.2943 25.5084 45.1958 25.5084ZM26.1512 29.497L24.6295 35.5839C24.5473 35.9126 24.2582 36.1469 23.9204 36.1591C23.9097 36.1591 23.899 36.1591 23.8899 36.1591C23.5627 36.1591 23.2721 35.9506 23.1671 35.6387L22.3697 33.2405L21.5707 35.6403C21.4642 35.9598 21.2223 36.1759 20.819 36.1592C20.4812 36.147 20.192 35.9112 20.1099 35.584L18.5881 29.497C18.4861 29.0906 18.7327 28.6767 19.142 28.5748C19.5437 28.4713 19.9622 28.7194 20.0641 29.1287L20.9513 32.6804L21.6467 30.5941C21.8552 29.9732 22.8839 29.9732 23.0908 30.5941L23.7862 32.6804L24.6734 29.1287C24.7769 28.7193 25.1832 28.4728 25.5971 28.5748C26.0066 28.6767 26.2531 29.0906 26.1512 29.497ZM35.2817 29.497L33.76 35.5839C33.6778 35.9126 33.3887 36.1469 33.0508 36.1591C33.0402 36.1591 33.0295 36.1591 33.0204 36.1591C32.6932 36.1591 32.4026 35.9506 32.2976 35.6387L31.5002 33.2405L30.7012 35.6403C30.5947 35.9598 30.3466 36.1759 29.9495 36.1592C29.6116 36.147 29.3225 35.9112 29.2404 35.584L27.7186 29.497C27.6167 29.0907 27.8632 28.6768 28.2725 28.5748C28.6743 28.4713 29.0943 28.7194 29.1947 29.1287L30.0819 32.6805L30.7773 30.5942C30.9858 29.9733 32.0145 29.9733 32.2214 30.5942L32.9168 32.6805L33.804 29.1287C33.9044 28.7194 34.3122 28.4728 34.7261 28.5748C35.1371 28.6767 35.3836 29.0906 35.2817 29.497ZM44.4122 29.497L42.8904 35.5839C42.8083 35.9126 42.5192 36.1469 42.1813 36.1591C42.1707 36.1591 42.16 36.1591 42.1509 36.1591C41.8237 36.1591 41.5331 35.9506 41.4281 35.6387L40.6307 33.2405L39.8317 35.6403C39.7252 35.9598 39.4696 36.1759 39.08 36.1592C38.7421 36.147 38.453 35.9112 38.3709 35.584L36.8491 29.497C36.7487 29.0892 36.9952 28.6768 37.403 28.5748C37.8048 28.4713 38.2248 28.7194 38.3252 29.1287L39.2124 32.6805L39.9078 30.5942C40.1163 29.9733 41.145 29.9733 41.3519 30.5942L42.0473 32.6805L42.9345 29.1287C43.0349 28.7194 43.4412 28.4728 43.8566 28.5748C44.2676 28.6767 44.5141 29.0906 44.4122 29.497Z" fill="white"/>
</svg>
