<svg width="48" height="48" viewBox="0 0 48 48" fill="none" xmlns="http://www.w3.org/2000/svg">
<g clip-path="url(#clip0_5992_10429)">
<path d="M7.13128 31.7734L1.86224 37.0425L12.8199 48.0002L18.089 42.7311L7.13128 31.7734ZM13.8032 44.9626C13.1138 44.9626 12.555 44.4037 12.555 43.7144C12.5549 43.0249 13.1137 42.4662 13.8032 42.4662C14.4925 42.4662 15.0514 43.025 15.0514 43.7144C15.0514 44.4037 14.4925 44.9626 13.8032 44.9626Z" fill="white"/>
<path d="M45.0828 19.8226C43.771 18.601 41.7059 18.6949 40.4384 19.9624L33.1054 27.2954L33.0907 27.2976C33.3949 26.8244 33.5807 26.2698 33.6021 25.6703C33.6689 23.7896 32.1641 22.2439 30.2984 22.2439H22.387C20.13 22.2439 17.9655 23.1405 16.3696 24.7364L10.2378 30.8683L17.5599 38.1904L18.862 36.8883H29.3379C31.5948 36.8883 33.7594 35.9917 35.3553 34.3958L45.1695 24.5816C46.4889 23.2621 46.46 21.1052 45.0828 19.8226Z" fill="white"/>
<path d="M36.7971 10.9555C36.5588 9.97875 36.173 9.05981 35.6646 8.22356L38.0803 5.23556L35.3815 2.53687L32.3935 4.95262C31.5573 4.44422 30.6383 4.05844 29.6616 3.82013L29.2571 0H25.4405L25.0359 3.82013C24.0592 4.05844 23.1402 4.44422 22.304 4.95262L19.316 2.53687L16.6172 5.23566L19.0329 8.22366C18.5245 9.05991 18.1388 9.97884 17.9004 10.9556L14.0803 11.3602V15.1768L17.9004 15.5813C18.1388 16.558 18.5245 17.477 19.0329 18.3132L17.045 20.7721C17.3719 20.5974 17.7084 20.4383 18.0541 20.2952C19.4348 19.7233 20.8926 19.4333 22.387 19.4333H30.2984C31.9739 19.4333 33.5375 20.0974 34.7011 21.3032C34.7703 21.3749 34.8376 21.448 34.9028 21.5224L36.7587 19.6665L35.6646 18.3132C36.173 17.477 36.5588 16.558 36.7971 15.5812L40.6172 15.1767V11.3601L36.7971 10.9555ZM27.3488 17.7396C24.8794 17.7396 22.8776 15.7378 22.8776 13.2684C22.8776 10.7991 24.8795 8.79731 27.3488 8.79731C29.818 8.79731 31.8199 10.7991 31.8199 13.2684C31.8199 15.7378 29.8181 17.7396 27.3488 17.7396Z" fill="white"/>
</g>
<defs>
<clipPath id="clip0_5992_10429">
<rect width="48" height="48" fill="white"/>
</clipPath>
</defs>
</svg>
