<svg width="20" height="26" viewBox="0 0 20 26" fill="none" xmlns="http://www.w3.org/2000/svg">
<path d="M14.0625 1.625H12.2977C11.963 0.67925 11.0595 0 10 0C8.9405 0 8.037 0.67925 7.70062 1.625H5.9375C5.489 1.625 5.125 1.989 5.125 2.4375V5.6875C5.125 6.136 5.489 6.5 5.9375 6.5H14.0625C14.511 6.5 14.875 6.136 14.875 5.6875V2.4375C14.875 1.989 14.511 1.625 14.0625 1.625Z" fill="#6946C6"/>
<path d="M18.125 3.25H16.5V5.6875C16.5 7.03137 15.4064 8.125 14.0625 8.125H5.9375C4.59363 8.125 3.5 7.03137 3.5 5.6875V3.25H1.875C0.979625 3.25 0.25 3.97962 0.25 4.875V24.375C0.25 25.2866 0.963375 26 1.875 26H18.125C19.0366 26 19.75 25.2866 19.75 24.375V4.875C19.75 3.96338 19.0366 3.25 18.125 3.25ZM9.76275 17.6378L6.51275 20.8878C6.3535 21.0454 6.1455 21.125 5.9375 21.125C5.7295 21.125 5.5215 21.0454 5.36225 20.8878L3.73725 19.2628C3.42037 18.9459 3.42037 18.4308 3.73725 18.1139C4.05412 17.797 4.56925 17.797 4.88613 18.1139L5.9375 19.1636L8.61225 16.4889C8.92912 16.172 9.44425 16.172 9.76113 16.4889C10.078 16.8058 10.0796 17.3193 9.76275 17.6378ZM9.76275 11.1378L6.51275 14.3878C6.3535 14.5454 6.1455 14.625 5.9375 14.625C5.7295 14.625 5.5215 14.5454 5.36225 14.3878L3.73725 12.7628C3.42037 12.4459 3.42037 11.9307 3.73725 11.6139C4.05412 11.297 4.56925 11.297 4.88613 11.6139L5.9375 12.6636L8.61225 9.98887C8.92912 9.672 9.44425 9.672 9.76113 9.98887C10.078 10.3057 10.0796 10.8193 9.76275 11.1378ZM15.6875 19.5H12.4375C11.989 19.5 11.625 19.136 11.625 18.6875C11.625 18.239 11.989 17.875 12.4375 17.875H15.6875C16.136 17.875 16.5 18.239 16.5 18.6875C16.5 19.136 16.136 19.5 15.6875 19.5ZM15.6875 13H12.4375C11.989 13 11.625 12.636 11.625 12.1875C11.625 11.739 11.989 11.375 12.4375 11.375H15.6875C16.136 11.375 16.5 11.739 16.5 12.1875C16.5 12.636 16.136 13 15.6875 13Z" fill="#6946C6"/>
</svg>
