<svg width="27" height="27" viewBox="0 0 27 27" fill="none" xmlns="http://www.w3.org/2000/svg">
<g clip-path="url(#clip0)">
<path d="M24.8629 4.17447L21.3744 2.88206C21.1012 2.78092 20.798 2.92038 20.6966 3.19332C20.5955 3.46647 20.735 3.7699 21.0081 3.87104L24.1524 5.03594V11.3575C24.1524 18.0634 19.8784 23.8953 13.5 25.9202C7.12163 23.8953 2.84766 18.0634 2.84766 11.3575V5.03594L13.5 1.08971L16.5566 2.22206C16.8297 2.32341 17.1332 2.18395 17.2343 1.9108C17.3354 1.63765 17.1962 1.33422 16.923 1.23308L13.6832 0.0327531C13.5651 -0.0109177 13.4349 -0.0109177 13.3169 0.0327531L2.13719 4.17447C1.93016 4.2511 1.79297 4.44844 1.79297 4.66906V11.3575C1.79297 14.88 2.90019 18.2391 4.99494 21.0711C7.0897 23.9033 9.97733 25.9456 13.3455 26.9768C13.396 26.9922 13.4479 27.0001 13.5 27.0001C13.5521 27.0001 13.6041 26.9922 13.6545 26.9768C17.0227 25.9456 19.9104 23.9033 22.0051 21.0711C24.0999 18.2391 25.2071 14.88 25.2071 11.3575V4.66906C25.2071 4.44844 25.0697 4.2511 24.8629 4.17447Z" fill="black"/>
<path d="M13.3089 2.68425L4.6604 6.04793C4.4577 6.12662 4.32422 6.32191 4.32422 6.53944V11.3578C4.32422 14.2135 5.17745 16.9473 6.79162 19.2633C8.40023 21.5715 10.6567 23.3121 13.3169 24.297C13.376 24.3188 13.438 24.3297 13.5 24.3297C13.562 24.3297 13.624 24.3188 13.6832 24.297C16.3434 23.3121 18.5998 21.5715 20.2084 19.2633C21.8226 16.9473 22.6758 14.2135 22.6758 11.3578V6.53944C22.6758 6.32191 22.5424 6.12683 22.3397 6.04793L13.6912 2.68446C13.5682 2.63646 13.4318 2.63646 13.3089 2.68425ZM21.6211 11.3578C21.6211 16.6842 18.4402 21.3263 13.5 23.2386C8.55967 21.3263 5.37891 16.6842 5.37891 11.3578V6.90013L13.5 3.74162L21.6211 6.90013V11.3578Z" fill="black"/>
<path d="M10.4414 8.95704V10.0336H10.3821C9.48436 10.0336 8.75391 10.764 8.75391 11.6617V16.8172C8.75391 17.7151 9.48436 18.4454 10.3821 18.4454H16.6179C17.5157 18.4454 18.2461 17.7151 18.2461 16.8172V11.6617C18.2461 10.764 17.5157 10.0336 16.6179 10.0336H16.5586V8.95704C16.5586 7.27057 15.1865 5.89844 13.5 5.89844C11.8135 5.89844 10.4414 7.27036 10.4414 8.95704ZM17.1914 11.6617V16.8172C17.1914 17.1334 16.9341 17.3907 16.6179 17.3907H10.3821C10.0659 17.3907 9.8086 17.1334 9.8086 16.8172V11.6617C9.8086 11.3455 10.0659 11.0883 10.3821 11.0883H16.6179C16.9341 11.0883 17.1914 11.3455 17.1914 11.6617ZM15.5039 8.95704V10.0336H11.4961V8.95704C11.4961 7.85209 12.3951 6.95313 13.5 6.95313C14.605 6.95313 15.5039 7.85209 15.5039 8.95704Z" fill="black"/>
<path d="M13.5 12.1289C12.6276 12.1289 11.918 12.8388 11.918 13.7109C11.918 14.3986 12.3588 14.9846 12.9727 15.2023V15.6154C12.9727 15.9066 13.2087 16.1427 13.5 16.1427C13.7911 16.1427 14.0273 15.9066 14.0273 15.6154V15.2023C14.641 14.9846 15.082 14.3986 15.082 13.7109C15.082 12.8388 14.3724 12.1289 13.5 12.1289ZM13.5 14.2383C13.2091 14.2383 12.9727 14.0018 12.9727 13.7109C12.9727 13.4203 13.2091 13.1836 13.5 13.1836C13.7907 13.1836 14.0273 13.4203 14.0273 13.7109C14.0273 14.0018 13.7907 14.2383 13.5 14.2383Z" fill="black"/>
<path d="M18.9652 3.07813C19.104 3.07813 19.24 3.02168 19.3381 2.92363C19.4361 2.82496 19.4926 2.68962 19.4926 2.55078C19.4926 2.41215 19.4361 2.27599 19.3381 2.17752C19.24 2.07947 19.104 2.02344 18.9652 2.02344C18.8266 2.02344 18.6906 2.07947 18.5924 2.17752C18.4945 2.27599 18.4379 2.41153 18.4379 2.55078C18.4379 2.68962 18.4943 2.82558 18.5924 2.92363C18.6906 3.02168 18.8266 3.07813 18.9652 3.07813Z" fill="black"/>
</g>
<defs>
<clipPath id="clip0">
<rect width="27" height="27" fill="white"/>
</clipPath>
</defs>
</svg>
