<svg width="28" height="28" viewBox="0 0 28 28" fill="none" xmlns="http://www.w3.org/2000/svg">
<path d="M21.2451 16.2516H19.1208C18.9366 16.2516 18.7648 16.3444 18.6637 16.4984C18.5626 16.6524 18.5458 16.8469 18.6191 17.0159C18.724 17.2582 18.7694 17.5169 18.7539 17.7849C18.7053 18.6259 18.0353 19.3039 17.1954 19.362C16.7223 19.3945 16.2717 19.2357 15.9272 18.9142C15.5823 18.5923 15.3923 18.1554 15.3923 17.684C15.3923 17.4516 15.4387 17.2268 15.5302 17.0159C15.6034 16.8468 15.5866 16.6523 15.4855 16.4983C15.3844 16.3443 15.2126 16.2515 15.0284 16.2515H11.7476V14.2274C11.9127 14.2474 12.0805 14.2526 12.2503 14.2427C13.6394 14.1624 14.7594 13.0554 14.8554 11.6679C14.9093 10.8888 14.6468 10.1465 14.1162 9.57787C13.5929 9.0171 12.853 8.69548 12.0863 8.69548C11.9722 8.69548 11.8593 8.70227 11.7476 8.71583V6.14453C11.7476 5.84249 11.5028 5.59766 11.2007 5.59766H1.70341C0.764203 5.59766 5.46875e-05 6.36175 5.46875e-05 7.30101V15.6419C5.46875e-05 16.0879 0.172375 16.4944 0.453906 16.7983C0.17232 17.1024 0 17.5089 0 17.9549V26.2958C0 27.235 0.764148 27.9991 1.70335 27.9991H21.245C22.1842 27.9991 22.9484 27.235 22.9484 26.2958V17.9549C22.9484 17.0179 22.1861 16.2538 21.2451 16.2516ZM1.0938 7.30112C1.0938 6.96501 1.36724 6.69152 1.70341 6.69152H10.6539V9.42534C10.6539 9.60959 10.7466 9.78141 10.9006 9.88253C11.0547 9.98365 11.2492 10.0004 11.4183 9.9271C11.6292 9.83566 11.854 9.78934 12.0863 9.78934C12.5578 9.78934 12.9947 9.97927 13.3165 10.3242C13.638 10.6687 13.7971 11.1191 13.7643 11.5924C13.7062 12.4322 13.0281 13.1022 12.1872 13.1509C11.9191 13.1662 11.6604 13.121 11.4183 13.016C11.2492 12.9427 11.0547 12.9595 10.9006 13.0606C10.7466 13.1617 10.6539 13.3335 10.6539 13.5178V16.2516H7.92006C7.73582 16.2516 7.56399 16.3444 7.46288 16.4984C7.36176 16.6524 7.34502 16.8469 7.4183 17.0159C7.50974 17.2268 7.55612 17.4517 7.55612 17.684C7.55612 18.1554 7.36619 18.5923 7.02127 18.9142C6.67674 19.2357 6.22595 19.3945 5.75307 19.3621C4.91323 19.3039 4.24326 18.6259 4.19464 17.7849C4.17916 17.517 4.2245 17.2582 4.3295 17.016C4.40278 16.8469 4.38599 16.6524 4.28487 16.4984C4.18376 16.3444 4.01193 16.2517 3.82774 16.2517H1.70543C1.70472 16.2517 1.70406 16.2517 1.70335 16.2517C1.70291 16.2517 1.70242 16.2517 1.70198 16.2517C1.36648 16.2509 1.0938 15.9777 1.0938 15.6421V7.30112ZM10.6538 26.9054H1.70335C1.36719 26.9054 1.09375 26.6319 1.09375 26.2958V17.9549C1.09375 17.6192 1.36648 17.3461 1.70198 17.3453H1.70341H3.11795C3.09794 17.5103 3.0928 17.6781 3.10259 17.848C3.18298 19.2372 4.28991 20.3571 5.67744 20.4531C5.74427 20.4578 5.81077 20.46 5.87694 20.46C6.58252 20.46 7.24757 20.1989 7.76743 19.7138C8.3282 19.1905 8.64981 18.4506 8.64981 17.6839C8.64981 17.5699 8.64303 17.4569 8.62947 17.3452H10.6538V20.079C10.6538 20.2633 10.7466 20.4351 10.9006 20.5361C11.0546 20.6373 11.2492 20.6541 11.4181 20.5808C11.6604 20.4758 11.9189 20.4305 12.1871 20.446C13.0281 20.4946 13.7062 21.1646 13.7643 22.0044C13.7971 22.4777 13.638 22.9281 13.3165 23.2726C12.9946 23.6175 12.5578 23.8074 12.0863 23.8074C11.8539 23.8074 11.6291 23.7611 11.4181 23.6697C11.2492 23.5965 11.0546 23.6132 10.9006 23.7143C10.7466 23.8154 10.6538 23.9873 10.6538 24.1714V26.9054ZM21.8546 26.2958C21.8546 26.6319 21.5811 26.9054 21.245 26.9054H11.7476V24.881C11.8593 24.8945 11.9722 24.9013 12.0863 24.9013C12.853 24.9013 13.5929 24.5797 14.1162 24.0189C14.6468 23.4503 14.9093 22.7081 14.8555 21.9289C14.7594 20.5414 13.6394 19.4345 12.2503 19.3541C12.0805 19.3442 11.9127 19.3494 11.7476 19.3694V17.3452H14.319C14.3055 17.4569 14.2987 17.5699 14.2987 17.6839C14.2987 18.4506 14.6203 19.1905 15.1811 19.7138C15.7497 20.2444 16.4918 20.5072 17.2711 20.4531C18.6586 20.3571 19.7655 19.2371 19.8459 17.8479C19.8558 17.678 19.8506 17.5103 19.8306 17.3452H21.2466C21.5819 17.346 21.8547 17.6195 21.8547 17.9548V26.2958H21.8546Z" fill="black"/>
<path d="M26.2967 0H16.7993C16.4973 0 16.2524 0.244836 16.2524 0.546875V3.82752C16.2524 4.01177 16.3452 4.18359 16.4992 4.28466C16.6531 4.38572 16.8477 4.40251 17.0168 4.32928C17.2277 4.2379 17.4524 4.19152 17.6848 4.19152C18.1563 4.19152 18.5932 4.38145 18.9151 4.72637C19.2366 5.0709 19.3956 5.52136 19.3628 5.99463C19.3047 6.83441 18.6267 7.50438 17.7857 7.55305C17.5176 7.56864 17.2591 7.5232 17.0168 7.41825C16.8478 7.34513 16.6532 7.36187 16.4992 7.46293C16.3452 7.56405 16.2524 7.73588 16.2524 7.92006V11.2007C16.2524 11.5028 16.4973 11.7476 16.7993 11.7476H19.3706C19.357 11.8593 19.3503 11.9722 19.3503 12.0863C19.3503 12.853 19.6719 13.5929 20.2327 14.1162C20.7526 14.6013 21.4175 14.8624 22.1231 14.8624C22.1893 14.8624 22.2559 14.8601 22.3226 14.8555C23.7102 14.7594 24.8171 13.6394 24.8974 12.2503C24.9073 12.0805 24.9021 11.9127 24.8821 11.7476H26.2967C27.2359 11.7476 28 10.9835 28 10.0443V8.48673C28 8.1847 27.7552 7.93986 27.4532 7.93986C27.1511 7.93986 26.9063 8.1847 26.9063 8.48673V10.0443C26.9063 10.3805 26.6328 10.6539 26.2967 10.6539H24.1724C23.9882 10.6539 23.8164 10.7466 23.7153 10.9006C23.6142 11.0546 23.5974 11.2492 23.6707 11.4182C23.7756 11.6605 23.821 11.9192 23.8055 12.1872C23.7569 13.0281 23.0869 13.7062 22.2471 13.7644C21.774 13.7968 21.3234 13.6381 20.9789 13.3166C20.6339 12.9947 20.444 12.5578 20.444 12.0863C20.444 11.854 20.4904 11.6292 20.5818 11.4182C20.6551 11.2492 20.6383 11.0546 20.5372 10.9006C20.436 10.7466 20.2642 10.6539 20.08 10.6539H17.3462V8.62969C17.5112 8.6497 17.679 8.65479 17.8488 8.645C19.2379 8.56466 20.3579 7.45773 20.454 6.0702C20.5079 5.29107 20.2453 4.54885 19.7147 3.98021C19.1913 3.41945 18.4515 3.09783 17.6848 3.09783C17.5707 3.09783 17.4578 3.10466 17.3461 3.11817V1.09375H26.2966C26.6328 1.09375 26.9063 1.36724 26.9063 1.70335V3.54227C26.9063 3.84431 27.1511 4.08915 27.4532 4.08915C27.7552 4.08915 28 3.84431 28 3.54227V1.70335C28 0.764148 27.2359 0 26.2967 0V0Z" fill="black"/>
<path d="M27.9075 5.72078C27.7789 5.52462 27.5274 5.43487 27.303 5.49902C27.0858 5.56104 26.9275 5.75496 26.9082 5.97967C26.8886 6.20657 27.0202 6.42865 27.2273 6.5225C27.4327 6.61558 27.6802 6.57008 27.8397 6.41094C28.0222 6.22888 28.0501 5.93483 27.9075 5.72078Z" fill="black"/>
</svg>
