<svg width="34" height="34" viewBox="0 0 34 34" fill="none" xmlns="http://www.w3.org/2000/svg">
<path d="M7.9603 21.0738L6.09437 19.9966L5.09161 21.7334L6.95574 22.8096C6.82772 23.3472 6.82752 23.8973 6.95574 24.4355L5.09161 25.5117L6.09437 27.2485L7.9603 26.1712C8.35425 26.5437 8.83383 26.8263 9.3665 26.9854V29.1376H11.372V26.9854C11.9047 26.8263 12.3843 26.5437 12.7783 26.1712L14.6441 27.2485L15.6469 25.5117L13.7828 24.4355C13.9109 23.8979 13.911 23.3478 13.7828 22.8096L15.6469 21.7334L14.6441 19.9966L12.7783 21.0738C12.3843 20.7013 11.9047 20.4188 11.372 20.2597V18.1074H9.3665V20.2597C8.83383 20.4188 8.35418 20.7014 7.9603 21.0738ZM11.8734 23.6226C11.8734 24.4519 11.1987 25.1267 10.3693 25.1267C9.53991 25.1267 8.86512 24.4519 8.86512 23.6226C8.86512 22.7932 9.53991 22.1184 10.3693 22.1184C11.1987 22.1184 11.8734 22.7932 11.8734 23.6226Z" fill="white"/>
<path d="M26.0322 12.9174L27.898 13.9946L28.9007 12.2578L27.0367 11.1816C27.1648 10.644 27.1649 10.0939 27.0367 9.55564L28.9007 8.47942L27.898 6.74264L26.0322 7.81987C25.6382 7.44731 25.1586 7.1648 24.626 7.0057V4.85352H22.6205V7.00576C22.0877 7.16494 21.6081 7.44738 21.2142 7.82L19.3483 6.74271L18.3456 8.47948L20.2097 9.55571C20.0816 10.0932 20.0815 10.6434 20.2097 11.1816L18.3456 12.2578L19.3483 13.9946L21.2142 12.9173C21.6081 13.2899 22.0877 13.5724 22.6205 13.7315V15.8838H24.626V13.7315C25.1586 13.5724 25.6382 13.29 26.0322 12.9174ZM22.119 10.3687C22.119 9.53926 22.7938 8.86454 23.6231 8.86454C24.4525 8.86454 25.1273 9.53926 25.1273 10.3687C25.1273 11.1981 24.4525 11.8728 23.6231 11.8728C22.7938 11.8728 22.119 11.1981 22.119 10.3687Z" fill="white"/>
<path d="M30.9599 3.03384C26.9148 -1.01121 20.333 -1.01135 16.2878 3.03384C12.2333 7.08832 12.2329 13.651 16.2878 17.7059C19.5509 20.969 19.5509 26.2786 16.2878 29.5418C13.0171 32.8124 7.72306 32.8129 4.45194 29.5418C1.18877 26.2787 1.18877 20.9691 4.45194 17.7059C4.91401 17.2438 5.41766 16.8443 5.95875 16.508L5.56132 17.8943L7.48915 18.447L8.66987 14.329L5.32266 11.6552L4.07089 13.2221L5.57502 14.4235C4.64233 14.911 3.78143 15.5402 3.03384 16.2878C-1.01128 20.3329 -1.01128 26.9148 3.03384 30.9599C7.08805 35.0142 13.651 35.0149 17.7059 30.9599C21.751 26.9148 21.751 20.3329 17.7059 16.2878C14.4352 13.0171 14.4348 7.72306 17.7059 4.452C20.969 1.1889 26.2785 1.18883 29.5418 4.452C32.8124 7.72266 32.8128 13.0167 29.5418 16.2878C29.0796 16.7499 28.5759 17.1495 28.0349 17.4858L28.4323 16.0994L26.5045 15.5467L25.3238 19.6648L28.6709 22.3385L29.9228 20.7716L28.4186 19.5702C29.3513 19.0827 30.2122 18.4535 30.9599 17.7059C35.0142 13.6516 35.0148 7.08879 30.9599 3.03384Z" fill="white"/>
</svg>
