<svg width="36" height="30" viewBox="0 0 36 30" fill="none" xmlns="http://www.w3.org/2000/svg">
<path d="M33.7494 5.99987H25.4996V2.24996C25.4996 1.00946 24.4901 0 23.2496 0H12.7498C11.5093 0 10.4998 1.00946 10.4998 2.24996V5.99987H2.24996C1.00946 5.99987 0 7.00933 0 8.24984V14.2497C0 14.6637 0.336018 14.9997 0.750011 14.9997H1.50002V29.2495C1.50002 29.6635 1.83604 29.9995 2.25003 29.9995H33.7495C34.1635 29.9995 34.4995 29.6635 34.4995 29.2495V14.9997H35.2495C35.6635 14.9997 35.9995 14.6637 35.9995 14.2497V8.24984C35.9994 7.00933 34.9899 5.99987 33.7494 5.99987ZM11.9998 2.24996C11.9998 1.83745 12.3373 1.49995 12.7498 1.49995H23.2496C23.6621 1.49995 23.9996 1.83745 23.9996 2.24996V5.99987H11.9998V2.24996ZM32.9994 28.4995H2.99997V14.9997H13.4998V18.7496C13.4998 19.1636 13.8358 19.4996 14.2498 19.4996H21.7497C22.1637 19.4996 22.4997 19.1636 22.4997 18.7496V14.9997H32.9995V28.4995H32.9994ZM14.9997 17.9997V14.9997H20.9996V17.9997H14.9997ZM34.4994 13.4998H33.7494H21.7496H14.2498H2.24996H1.49995V8.24984C1.49995 7.83732 1.83745 7.49982 2.24996 7.49982H11.2498H24.7496H33.7494C34.1619 7.49982 34.4994 7.83732 34.4994 8.24984V13.4998Z" fill="white"/>
</svg>
