<svg width="24" height="24" viewBox="0 0 24 24" fill="none" xmlns="http://www.w3.org/2000/svg">
<path d="M21.4059 0H18.0469C17.6586 0 17.3438 0.314812 17.3438 0.703125C17.3438 1.09144 17.6586 1.40625 18.0469 1.40625H21.4059C22.0609 1.40625 22.5938 1.93913 22.5938 2.59411V5.95312C22.5938 6.34144 22.9086 6.65625 23.2969 6.65625C23.6852 6.65625 24 6.34144 24 5.95312V2.59411C24 1.16372 22.8363 0 21.4059 0V0Z" fill="black"/>
<path d="M0.703125 6.65625C1.09144 6.65625 1.40625 6.34144 1.40625 5.95312V2.59411C1.40625 1.93913 1.93913 1.40625 2.59406 1.40625H5.95312C6.34144 1.40625 6.65625 1.09144 6.65625 0.703125C6.65625 0.314812 6.34144 0 5.95312 0H2.59406C1.16372 0 0 1.16372 0 2.59411V5.95312C0 6.34144 0.314812 6.65625 0.703125 6.65625Z" fill="black"/>
<path d="M5.95312 22.5938H2.59406C1.93913 22.5938 1.40625 22.0609 1.40625 21.4059V18.0469C1.40625 17.6586 1.09144 17.3438 0.703125 17.3438C0.314812 17.3438 0 17.6586 0 18.0469V21.4059C0 22.8363 1.16372 24 2.59406 24H5.95312C6.34144 24 6.65625 23.6852 6.65625 23.2969C6.65625 22.9086 6.34144 22.5938 5.95312 22.5938Z" fill="black"/>
<path d="M23.2969 17.3438C22.9086 17.3438 22.5938 17.6586 22.5938 18.0469V21.4059C22.5938 22.0609 22.0609 22.5938 21.4059 22.5938H18.0469C17.6586 22.5938 17.3438 22.9086 17.3438 23.2969C17.3438 23.6852 17.6586 24 18.0469 24H21.4059C22.8363 24 24 22.8363 24 21.4059V18.0469C24 17.6586 23.6852 17.3438 23.2969 17.3438Z" fill="black"/>
<path d="M16.0144 5.15625H18.2445C18.549 5.15625 18.7968 5.40398 18.7968 5.70853V7.93856C18.7968 8.32688 19.1116 8.64169 19.4999 8.64169C19.8882 8.64169 20.203 8.32688 20.203 7.93856V5.70853C20.203 4.62858 19.3244 3.75 18.2445 3.75H16.0144C15.6261 3.75 15.3113 4.06481 15.3113 4.45313C15.3113 4.84144 15.6261 5.15625 16.0144 5.15625Z" fill="black"/>
<path d="M3.79688 5.70853V7.93856C3.79688 8.32688 4.11169 8.64169 4.5 8.64169C4.88831 8.64169 5.20313 8.32688 5.20313 7.93856V5.70853C5.20313 5.40398 5.45091 5.15625 5.75541 5.15625H7.98548C8.3738 5.15625 8.68861 4.84144 8.68861 4.45313C8.68861 4.06481 8.3738 3.75 7.98548 3.75H5.75541C4.6755 3.75 3.79688 4.62858 3.79688 5.70853Z" fill="black"/>
<path d="M7.98548 18.7491H5.75541C5.45086 18.7491 5.20313 18.5014 5.20313 18.1968V15.9668C5.20313 15.5785 4.88831 15.2637 4.5 15.2637C4.11169 15.2637 3.79688 15.5785 3.79688 15.9668V18.1968C3.79688 19.2768 4.6755 20.1554 5.75541 20.1554H7.98548C8.3738 20.1554 8.68861 19.8405 8.68861 19.4522C8.68861 19.0639 8.3738 18.7491 7.98548 18.7491Z" fill="black"/>
<path d="M20.203 18.1968V15.9668C20.203 15.5785 19.8882 15.2637 19.4999 15.2637C19.1116 15.2637 18.7968 15.5785 18.7968 15.9668V18.1968C18.7968 18.5014 18.549 18.7491 18.2445 18.7491H16.0144C15.6261 18.7491 15.3113 19.0639 15.3113 19.4522C15.3113 19.8405 15.6261 20.1554 16.0144 20.1554H18.2445C19.3244 20.1554 20.203 19.2768 20.203 18.1968Z" fill="black"/>
<path d="M0.046875 12C0.046875 12.3883 0.361687 12.7031 0.75 12.7031H23.25C23.6383 12.7031 23.9531 12.3883 23.9531 12C23.9531 11.6117 23.6383 11.2969 23.25 11.2969H0.75C0.361687 11.2969 0.046875 11.6117 0.046875 12Z" fill="black"/>
</svg>
