<svg width="6" height="10" viewBox="0 0 6 10" fill="none" xmlns="http://www.w3.org/2000/svg">
<path d="M2.94342 7.9315C2.50196 7.93895 2.14637 8.29453 2.13893 8.73599C2.13826 8.74952 2.13826 8.76372 2.13893 8.77722C2.15449 9.22137 2.52629 9.56884 2.97045 9.55398H2.94342C3.3896 9.54653 3.74791 9.18284 3.74791 8.73599C3.73707 8.29589 3.38351 7.94231 2.94342 7.9315Z" fill="white"/>
<path d="M3.09887 0.697941C2.14566 0.669548 1.2249 1.04541 0.563739 1.73227C0.487337 1.82826 0.446775 1.94792 0.448803 2.0703C0.452194 2.36979 0.690147 2.61383 0.989641 2.62463C1.12891 2.6253 1.26343 2.5746 1.36823 2.48267C1.78738 2.04799 2.36672 1.80392 2.97043 1.80665C3.88308 1.80665 4.32251 2.30014 4.32251 2.88154C4.32251 4.12543 2.11188 4.28093 2.11188 5.89665C2.11188 6.28874 2.35525 7.01211 2.86228 7.01211C2.86633 7.01211 2.87105 7.01211 2.87581 7.01211C3.14824 7.01211 3.3693 6.79104 3.3693 6.51861C3.3693 6.33608 3.24087 6.18059 3.24087 5.99806C3.24087 4.7812 5.62049 4.6122 5.67459 2.72607C5.67456 1.5768 4.70107 0.697941 3.09887 0.697941Z" fill="white"/>
</svg>
