<svg width="23" height="23" viewBox="0 0 23 23" fill="none" xmlns="http://www.w3.org/2000/svg">
<g clip-path="url(#clip0_4854_15)">
<path d="M11.8428 11.2331C11.4632 11.2331 11.1554 10.9253 11.1554 10.5457V8.03693C10.0537 8.33907 9.24178 9.34941 9.24178 10.5457C9.24178 11.9802 10.4086 13.1473 11.8428 13.1473C13.0395 13.1473 14.05 12.3352 14.3522 11.2331H11.8428V11.2331Z" fill="white"/>
<path d="M14.427 6.13995V7.96144H16.249C16.0068 7.07869 15.31 6.38199 14.427 6.13995Z" fill="white"/>
<path d="M17.5384 0H2.87873C2.49914 0 2.19138 0.30776 2.19138 0.68735V19.9461C2.19138 20.3257 2.49914 20.6335 2.87873 20.6335H4.7743V3.05388C4.7743 2.67429 5.08206 2.36653 5.46165 2.36653H18.2257V0.68735C18.2257 0.30776 17.918 0 17.5384 0Z" fill="white"/>
<path d="M6.14899 3.74121V23H20.1213C20.5009 23 20.8086 22.6922 20.8086 22.3126V3.74121H6.14899ZM13.0523 5.36047C13.0523 4.98088 13.3601 4.67312 13.7397 4.67312C15.9322 4.67312 17.7159 6.45661 17.7159 8.64884C17.7159 9.02843 17.4081 9.33619 17.0285 9.33619H13.7397C13.3601 9.33619 13.0523 9.02843 13.0523 8.64884V5.36047ZM11.8428 6.56999C12.2224 6.56999 12.5301 6.87775 12.5301 7.25734V9.85836H15.1317C15.5112 9.85836 15.819 10.1661 15.819 10.5457C15.819 12.7382 14.0353 14.522 11.8428 14.522C9.65056 14.522 7.86712 12.7382 7.86712 10.5457C7.86708 8.35348 9.65056 6.56999 11.8428 6.56999ZM17.4675 20.0497H7.94996C7.57037 20.0497 7.26261 19.7419 7.26261 19.3624C7.26261 18.9828 7.57037 18.675 7.94996 18.675H17.4675C17.8471 18.675 18.1548 18.9828 18.1548 19.3624C18.1548 19.742 17.8471 20.0497 17.4675 20.0497ZM17.4675 17.4196H7.94996C7.57037 17.4196 7.26261 17.1119 7.26261 16.7323C7.26261 16.3527 7.57037 16.0449 7.94996 16.0449H17.4675C17.8471 16.0449 18.1548 16.3527 18.1548 16.7323C18.1548 17.1119 17.8471 17.4196 17.4675 17.4196Z" fill="white"/>
</g>
<defs>
<clipPath id="clip0_4854_15">
<rect width="23" height="23" fill="white"/>
</clipPath>
</defs>
</svg>
