<svg width="35" height="35" viewBox="0 0 35 35" fill="none" xmlns="http://www.w3.org/2000/svg">
<path d="M34.3028 35H0.697197C0.312129 35 0 34.6879 0 34.3028V0.697197C0 0.31213 0.312129 0 0.697197 0H34.3028C34.6879 0 35 0.31213 35 0.697197V34.3028C35 34.6879 34.6879 35 34.3028 35ZM33.6056 1.39439H1.39439V33.6056H33.6055V1.39439H33.6056Z" fill="black"/>
<path d="M30.8615 31.5581H19.0193C18.7372 31.5581 18.483 31.3883 18.3751 31.1277C18.2672 30.8672 18.3268 30.5673 18.5262 30.3679L21.5971 27.2971L16.7286 22.4286C16.5979 22.2979 16.5244 22.1205 16.5244 21.9356C16.5244 21.7507 16.5979 21.5733 16.7286 21.4426L21.4432 16.7279C21.5739 16.5972 21.7513 16.5238 21.9362 16.5238C22.1211 16.5238 22.2984 16.5972 22.4293 16.7279L27.2977 21.5964L30.3685 18.5255C30.5679 18.3261 30.8678 18.2665 31.1283 18.3744C31.3888 18.4823 31.5587 18.7366 31.5587 19.0185V30.8608C31.5588 31.2459 31.2466 31.5581 30.8615 31.5581ZM30.1643 20.7018L27.7906 23.0755C27.6599 23.2062 27.4825 23.2796 27.2976 23.2796C27.1127 23.2796 26.9353 23.2062 26.8046 23.0755L21.9362 18.207L18.2076 21.9356L23.0761 26.8041C23.2068 26.9348 23.2803 27.1121 23.2803 27.2971C23.2803 27.482 23.2068 27.6593 23.0761 27.7901L20.7025 30.1637H30.1643V20.7018Z" fill="black"/>
<path d="M18.5255 13.81L13.8109 18.5246C13.5386 18.7968 13.0971 18.7968 12.8248 18.5246L7.95734 13.6572L4.8865 16.728C4.68709 16.9273 4.38713 16.9871 4.12668 16.8791C3.86623 16.7711 3.69629 16.5168 3.69629 16.2349V4.39249C3.69629 4.00742 4.00842 3.69529 4.39349 3.69529H16.2359C16.5179 3.69529 16.7721 3.86524 16.88 4.12575C16.988 4.3862 16.9284 4.68616 16.729 4.88557L13.6581 7.9564L18.5256 12.8239C18.7978 13.0963 18.7978 13.5377 18.5255 13.81ZM12.179 8.44948C11.9067 8.17713 11.9067 7.73567 12.179 7.46339L14.5526 5.08976H5.09069V14.5517L7.46426 12.1781C7.73661 11.9058 8.17807 11.9058 8.45035 12.1781L13.3178 17.0455L17.0464 13.3169L12.179 8.44948Z" fill="black"/>
<path d="M4.39349 28.3767C4.00842 28.3767 3.69629 28.0646 3.69629 27.6795V23.9843C3.69629 23.5992 4.00842 23.2871 4.39349 23.2871C4.77855 23.2871 5.09068 23.5992 5.09068 23.9843V27.6795C5.09068 28.0645 4.77855 28.3767 4.39349 28.3767Z" fill="black"/>
<path d="M4.39349 31.1116C4.00842 31.1116 3.69629 30.7994 3.69629 30.4144V30.1193C3.69629 29.7343 4.00842 29.4221 4.39349 29.4221C4.77855 29.4221 5.09068 29.7343 5.09068 30.1193V30.4144C5.09068 30.7994 4.77855 31.1116 4.39349 31.1116Z" fill="black"/>
</svg>
