<svg width="38" height="38" viewBox="0 0 38 38" fill="none" xmlns="http://www.w3.org/2000/svg">
<g clip-path="url(#clip0)">
<path d="M19.0001 11.084C18.9035 11.084 18.8069 11.0666 18.7151 11.0317L8.42341 7.0734C8.11783 6.95623 7.91675 6.66173 7.91675 6.33398C7.91675 6.00623 8.11783 5.71173 8.42341 5.59457L18.7151 1.63623C18.8987 1.56657 19.0998 1.56657 19.2835 1.63623L29.5752 5.59457C29.8823 5.71173 30.0834 6.00623 30.0834 6.33398C30.0834 6.66173 29.8823 6.95623 29.5767 7.0734L19.2851 11.0317C19.1932 11.0666 19.0967 11.084 19.0001 11.084ZM10.914 6.33398L19.0001 9.44365L27.0862 6.33398L19.0001 3.22432L10.914 6.33398Z" fill="white"/>
<path d="M19.0001 23.7493C18.9035 23.7493 18.8069 23.7319 18.7151 23.6971L8.42341 19.7388C8.11783 19.6216 7.91675 19.3271 7.91675 18.9993V6.33268C7.91675 5.89568 8.27141 5.54102 8.70841 5.54102C9.14541 5.54102 9.50008 5.89568 9.50008 6.33268V18.4563L19.0001 22.1106L28.5001 18.4563V6.33268C28.5001 5.89568 28.8547 5.54102 29.2917 5.54102C29.7287 5.54102 30.0834 5.89568 30.0834 6.33268V18.9993C30.0834 19.3271 29.8823 19.6216 29.5767 19.7388L19.2851 23.6971C19.1932 23.7319 19.0967 23.7493 19.0001 23.7493Z" fill="white"/>
<path d="M18.9999 23.75C18.5629 23.75 18.2083 23.3953 18.2083 22.9583V10.2917C18.2083 9.85467 18.5629 9.5 18.9999 9.5C19.4369 9.5 19.7916 9.85467 19.7916 10.2917V22.9583C19.7916 23.3953 19.4369 23.75 18.9999 23.75Z" fill="white"/>
<path d="M16.625 34.833C16.3843 34.833 16.1468 34.7237 15.9916 34.5163C15.7288 34.1664 15.8001 33.6708 16.15 33.408L18.4711 31.6663L16.15 29.9246C15.8001 29.6618 15.7288 29.1662 15.9916 28.8163C16.2545 28.4664 16.7501 28.3967 17.1 28.658L20.2666 31.033C20.4661 31.1818 20.5833 31.4177 20.5833 31.6663C20.5833 31.9149 20.4661 32.1508 20.2666 32.2996L17.1 34.6746C16.9575 34.7807 16.7912 34.833 16.625 34.833Z" fill="white"/>
<path d="M19 32.4587C16.606 32.4587 14.3403 32.3447 12.2645 32.1215C9.39233 31.8317 0 30.5999 0 26.917C0 25.4145 1.55008 24.1589 4.60433 23.1867C5.10625 23.0315 5.64458 23.4226 5.64458 23.942C5.64458 24.3251 5.37858 24.645 5.01758 24.7178C2.48425 25.5332 1.58333 26.412 1.58333 26.917C1.58333 27.9715 4.94792 29.7924 12.4292 30.546C14.4527 30.7645 16.6614 30.8754 19 30.8754C19.437 30.8754 19.7917 31.23 19.7917 31.667C19.7917 32.104 19.437 32.4587 19 32.4587Z" fill="white"/>
<path d="M24.5259 32.2219C24.1174 32.2219 23.7707 31.9084 23.7374 31.4952C23.7026 31.0597 24.0272 30.6766 24.4626 30.6417C32.6168 29.9751 36.4168 28.0261 36.4168 26.9177C36.4168 26.4079 35.5 25.5196 32.9144 24.6963C32.498 24.5633 32.2684 24.1184 32.3998 23.702C32.5328 23.2856 32.9762 23.056 33.3942 23.1874C36.45 24.1596 38.0001 25.4151 38.0001 26.9177C38.0001 30.8206 27.7369 31.9622 24.5908 32.2203C24.5687 32.2219 24.5465 32.2219 24.5259 32.2219Z" fill="white"/>
</g>
<defs>
<clipPath id="clip0">
<rect width="38" height="38" fill="white"/>
</clipPath>
</defs>
</svg>
