<svg width="34" height="34" viewBox="0 0 34 34" fill="none" xmlns="http://www.w3.org/2000/svg">
<path d="M26.5625 22.8438C30.0778 22.8438 32.9375 19.984 32.9375 16.4688C32.9375 12.9535 30.0778 10.0938 26.5625 10.0938C25.8049 10.0938 25.0692 10.2255 24.3663 10.4858C24.0577 9.04878 22.7773 7.96875 21.25 7.96875C21.2484 7.96875 21.2468 7.96875 21.2452 7.96875C21.105 4.13684 17.944 1.0625 14.0781 1.0625C10.1235 1.0625 6.90625 4.27975 6.90625 8.23438C6.90625 8.52763 6.92431 8.82087 6.95991 9.11253C3.60878 9.60394 1.0625 12.4961 1.0625 15.9375C1.0625 19.7455 4.16075 22.8438 7.96875 22.8438H12.2188V25.5H9.5625V26.5625H12.75C13.0433 26.5625 13.2812 26.3245 13.2812 26.0312V22.8438H14.3438V23.9062H15.4062V22.8438H16.4688V29.75H15.4062V30.8125H17C17.2932 30.8125 17.5312 30.5745 17.5312 30.2812V22.8438H18.5938V24.9688H19.6562V22.8438H20.7188V28.1562C20.7188 28.4495 20.9568 28.6875 21.25 28.6875H23.9062V27.625H21.7812V22.8438H22.8438V26.0312C22.8438 26.3245 23.0818 26.5625 23.375 26.5625H26.5625V25.5H23.9062V22.8438H26.5625ZM2.125 15.9375C2.125 12.86 4.53316 10.3009 7.6075 10.1129C7.76156 10.1033 7.90341 10.0279 7.99691 9.90569C8.09041 9.7835 8.12653 9.62625 8.09572 9.47538C8.01125 9.06791 7.96875 8.65034 7.96875 8.23438C7.96875 4.86572 10.7095 2.125 14.0781 2.125C17.4468 2.125 20.1875 4.86572 20.1875 8.23438C20.1875 8.29334 20.1833 8.35125 20.179 8.40969L20.1716 8.53241C20.1636 8.69656 20.2327 8.85541 20.3575 8.96219C20.4829 9.06897 20.6507 9.112 20.8112 9.078C22.1611 8.79591 23.375 9.84247 23.3739 11.1462C23.3718 11.1632 23.3638 11.2327 23.3633 11.2498C23.3548 11.4389 23.4478 11.619 23.6072 11.7215C23.7665 11.8235 23.9689 11.8336 24.1373 11.7465C24.8981 11.3549 25.7141 11.1562 26.5625 11.1562C29.4918 11.1562 31.875 13.5394 31.875 16.4688C31.875 19.3981 29.4918 21.7812 26.5625 21.7812H7.96875C4.74672 21.7812 2.125 19.1595 2.125 15.9375Z" fill="black"/>
<path d="M15.5837 3.97694C15.1008 3.80588 14.5945 3.71875 14.0781 3.71875V4.78125C14.4728 4.78125 14.8601 4.84766 15.2288 4.97834L15.5837 3.97694Z" fill="black"/>
<path d="M12.9274 4.97797L12.572 3.97656C10.7722 4.61513 9.5625 6.32575 9.5625 8.234H10.625C10.625 6.77466 11.5504 5.46619 12.9274 4.97797Z" fill="black"/>
<path d="M19.2796 13.7096L18.3318 13.3207C18.2676 13.1332 18.1927 12.9515 18.1077 12.7767L18.5024 11.8332C18.5762 11.6569 18.5491 11.4545 18.4322 11.303C18.1294 10.912 17.7767 10.5593 17.3841 10.2549C17.2327 10.138 17.0303 10.1109 16.8539 10.1848L15.9104 10.5795C15.7351 10.4945 15.5534 10.4196 15.3664 10.3553L14.9775 9.40755C14.9048 9.23064 14.7427 9.10633 14.5531 9.08189C13.999 9.01177 13.6271 9.01177 13.073 9.08189C12.8833 9.1058 12.7208 9.23011 12.6485 9.40755L12.2597 10.3553C12.0727 10.4196 11.891 10.4945 11.7157 10.5795L10.7722 10.1848C10.5963 10.1115 10.3928 10.138 10.242 10.2549C9.85097 10.5577 9.49822 10.9099 9.19381 11.3025C9.07641 11.4539 9.04984 11.6563 9.12369 11.8332L9.51841 12.7767C9.43341 12.9521 9.3585 13.1337 9.29422 13.3207L8.34647 13.7096C8.16956 13.7824 8.04525 13.9444 8.02081 14.1341C7.98522 14.4109 7.96875 14.6462 7.96875 14.8741C7.96875 15.102 7.98522 15.3374 8.02028 15.6141C8.04419 15.8038 8.1685 15.9664 8.34594 16.0386L9.29369 16.4275C9.35797 16.6145 9.43288 16.7962 9.51788 16.9715L9.12316 17.915C9.04931 18.0914 9.07641 18.2938 9.19328 18.4452C9.49609 18.8362 9.84831 19.1889 10.2409 19.4933C10.3923 19.6107 10.5952 19.6373 10.7716 19.5635L11.7151 19.1687C11.8904 19.2537 12.0721 19.3287 12.2591 19.3929L12.648 20.3407C12.7208 20.5176 12.8828 20.6419 13.0725 20.6663C13.3493 20.7014 13.5846 20.7179 13.8125 20.7179C14.0404 20.7179 14.2757 20.7014 14.5525 20.6663C14.7422 20.6424 14.9047 20.5181 14.977 20.3407L15.3659 19.3929C15.5534 19.3287 15.7351 19.2537 15.9099 19.1687L16.8534 19.5635C17.0298 19.6373 17.2322 19.6107 17.3836 19.4933C17.7756 19.19 18.1278 18.8372 18.4317 18.4452C18.5491 18.2938 18.5757 18.0914 18.5018 17.915L18.1071 16.9715C18.1921 16.7962 18.267 16.6145 18.3313 16.4275L19.2791 16.0386C19.456 15.9658 19.5803 15.8038 19.6047 15.6141C19.6398 15.3374 19.6562 15.102 19.6562 14.8741C19.6562 14.6462 19.6398 14.4109 19.6047 14.1341C19.5808 13.9444 19.4565 13.7819 19.2796 13.7096ZM18.5821 15.1764L17.6975 15.5392C17.5467 15.6014 17.4324 15.7289 17.3878 15.8861C17.3076 16.1698 17.1966 16.4392 17.0574 16.6873C16.9777 16.8296 16.9681 17.0007 17.0308 17.1516L17.3974 18.0292C17.263 18.1817 17.1195 18.3251 16.9671 18.4595L16.0894 18.093C15.9386 18.0297 15.7675 18.0398 15.6246 18.1195C15.3776 18.2582 15.1082 18.3692 14.824 18.4494C14.6673 18.4941 14.5392 18.6083 14.4771 18.7592L14.1143 19.6437C13.9018 19.6591 13.7227 19.6591 13.5097 19.6437L13.1468 18.7592C13.0847 18.6083 12.9572 18.4941 12.7999 18.4494C12.5163 18.3692 12.2469 18.2582 11.9988 18.119C11.8564 18.0393 11.6854 18.0297 11.5345 18.0924L10.6569 18.4595C10.5044 18.3251 10.3604 18.1817 10.2266 18.0292L10.5931 17.1516C10.6563 17.0007 10.6468 16.8296 10.5666 16.6873C10.4274 16.4392 10.3163 16.1693 10.2361 15.8861C10.1915 15.7294 10.0773 15.6014 9.92641 15.5392L9.04188 15.1764C9.03497 15.0701 9.03125 14.9708 9.03125 14.8741C9.03125 14.7774 9.03497 14.6781 9.04294 14.5718L9.92747 14.209C10.0783 14.1468 10.1926 14.0193 10.2372 13.8621C10.3174 13.5784 10.4284 13.3091 10.5676 13.061C10.6473 12.9186 10.6569 12.7475 10.5942 12.5966L10.2271 11.719C10.3615 11.5665 10.5049 11.4226 10.6574 11.2887L11.535 11.6553C11.6854 11.7185 11.857 11.7084 11.9993 11.6287C12.2474 11.4895 12.5173 11.3785 12.8005 11.2983C12.9572 11.2536 13.0852 11.1394 13.1474 10.9885L13.5102 10.104C13.7227 10.0886 13.9018 10.0886 14.1148 10.104L14.4776 10.9885C14.5398 11.1394 14.6673 11.2536 14.8245 11.2983C15.1082 11.3785 15.3776 11.4895 15.6257 11.6287C15.768 11.7084 15.9396 11.718 16.09 11.6553L16.9676 11.2887C17.1201 11.4231 17.264 11.5665 17.3979 11.719L17.0313 12.5966C16.9681 12.7475 16.9782 12.9186 17.0579 13.0615C17.1966 13.3085 17.3076 13.5779 17.3878 13.8621C17.4324 14.0188 17.5467 14.1468 17.6975 14.209L18.5821 14.5718C18.59 14.6781 18.5938 14.7774 18.5938 14.8741C18.5938 14.9708 18.59 15.0701 18.5821 15.1764Z" fill="black"/>
<path d="M25.8841 19.287L26.401 19.5856L26.9322 18.6655L26.4148 18.3669C26.4483 18.2665 26.4871 18.1682 26.5088 18.063H27.0938V17.0005H26.5088C26.4876 16.8953 26.4488 16.7971 26.4148 16.6967L26.9322 16.3981L26.401 15.478L25.8841 15.7765C25.814 15.6979 25.7407 15.6241 25.6615 15.5539L25.9601 15.037L25.0399 14.5058L24.7414 15.0232C24.641 14.9897 24.5427 14.951 24.4375 14.9292V14.3438H23.375V14.9287C23.2698 14.9499 23.1715 14.9887 23.0711 15.0227L22.7726 14.5053L21.8524 15.0365L22.151 15.5534C22.0724 15.6235 21.9985 15.6968 21.9284 15.776L21.4115 15.4774L20.8803 16.3976L21.3977 16.6961C21.3642 16.7965 21.3254 16.8948 21.3037 17H20.7188V18.0625H21.3037C21.3249 18.1677 21.3637 18.266 21.3977 18.3664L20.8803 18.6649L21.4115 19.5851L21.9284 19.2865C21.9985 19.3651 22.0718 19.439 22.151 19.5091L21.8524 20.026L22.7726 20.5572L23.0711 20.0398C23.1715 20.0733 23.2698 20.1121 23.375 20.1338V20.7188H24.4375V20.1338C24.5427 20.1126 24.641 20.0738 24.7414 20.0398L25.0399 20.5572L25.9601 20.026L25.6615 19.5091C25.7407 19.439 25.814 19.3657 25.8841 19.287ZM23.9062 19.125C23.0276 19.125 22.3125 18.4099 22.3125 17.5312C22.3125 16.6526 23.0276 15.9375 23.9062 15.9375C24.7849 15.9375 25.5 16.6526 25.5 17.5312C25.5 18.4099 24.7849 19.125 23.9062 19.125Z" fill="black"/>
<path d="M13.8125 12.2188C12.3478 12.2188 11.1562 13.4103 11.1562 14.875C11.1562 16.3397 12.3478 17.5312 13.8125 17.5312C15.2772 17.5312 16.4688 16.3397 16.4688 14.875C16.4688 13.4103 15.2772 12.2188 13.8125 12.2188ZM13.8125 16.4688C12.9338 16.4688 12.2188 15.7537 12.2188 14.875C12.2188 13.9963 12.9338 13.2812 13.8125 13.2812C14.6912 13.2812 15.4062 13.9963 15.4062 14.875C15.4062 15.7537 14.6912 16.4688 13.8125 16.4688Z" fill="black"/>
<path d="M6.90625 25.5H8.5V26.5625H6.90625V25.5Z" fill="black"/>
<path d="M15.4062 28.1562V24.9688H14.3438V27.625H12.2188V28.6875H14.875C15.1683 28.6875 15.4062 28.4495 15.4062 28.1562Z" fill="black"/>
<path d="M9.5625 27.625H11.1562V28.6875H9.5625V27.625Z" fill="black"/>
<path d="M6.90625 27.625H8.5V28.6875H6.90625V27.625Z" fill="black"/>
<path d="M10.0938 29.75H14.3438V30.8125H10.0938V29.75Z" fill="black"/>
<path d="M7.96875 31.875H9.03125V32.9375H7.96875V31.875Z" fill="black"/>
<path d="M10.0938 31.875H11.1562V32.9375H10.0938V31.875Z" fill="black"/>
<path d="M12.2188 31.875H13.2812V32.9375H12.2188V31.875Z" fill="black"/>
<path d="M18.5938 31.875H14.3438V32.9375H19.125C19.4183 32.9375 19.6562 32.6995 19.6562 32.4062V29.75H18.5938V31.875Z" fill="black"/>
<path d="M18.5938 26.0312H19.6562V28.6875H18.5938V26.0312Z" fill="black"/>
<path d="M4.15225 26.5625H5.84375V25.5H4.15225C3.93231 24.8832 3.34794 24.4375 2.65625 24.4375C1.77756 24.4375 1.0625 25.1526 1.0625 26.0312C1.0625 26.9099 1.77756 27.625 2.65625 27.625C3.34794 27.625 3.93231 27.1793 4.15225 26.5625ZM2.125 26.0312C2.125 25.7385 2.36353 25.5 2.65625 25.5C2.94897 25.5 3.1875 25.7385 3.1875 26.0312C3.1875 26.324 2.94897 26.5625 2.65625 26.5625C2.36353 26.5625 2.125 26.324 2.125 26.0312Z" fill="black"/>
<path d="M24.9688 27.625H26.5625V28.6875H24.9688V27.625Z" fill="black"/>
<path d="M27.625 27.625H29.2188V28.6875H27.625V27.625Z" fill="black"/>
<path d="M31.3438 24.4375C30.6521 24.4375 30.0677 24.8832 29.8477 25.5H27.625V26.5625H29.8477C30.0677 27.1793 30.6521 27.625 31.3438 27.625C32.2224 27.625 32.9375 26.9099 32.9375 26.0312C32.9375 25.1526 32.2224 24.4375 31.3438 24.4375ZM31.3438 26.5625C31.051 26.5625 30.8125 26.324 30.8125 26.0312C30.8125 25.7385 31.051 25.5 31.3438 25.5C31.6365 25.5 31.875 25.7385 31.875 26.0312C31.875 26.324 31.6365 26.5625 31.3438 26.5625Z" fill="black"/>
<path d="M4.25 28.6875C3.37131 28.6875 2.65625 29.4026 2.65625 30.2812C2.65625 31.1599 3.37131 31.875 4.25 31.875C4.94169 31.875 5.52606 31.4293 5.746 30.8125H9.03125V29.75H5.746C5.52606 29.1332 4.94169 28.6875 4.25 28.6875ZM4.25 30.8125C3.95728 30.8125 3.71875 30.574 3.71875 30.2812C3.71875 29.9885 3.95728 29.75 4.25 29.75C4.54272 29.75 4.78125 29.9885 4.78125 30.2812C4.78125 30.574 4.54272 30.8125 4.25 30.8125Z" fill="black"/>
</svg>
