<svg width="27" height="27" viewBox="0 0 27 27" fill="none" xmlns="http://www.w3.org/2000/svg">
<path d="M25.1655 14.1057C23.9248 12.8705 22.4904 14.0266 22.4904 14.0266V7.52434C22.4904 7.30599 22.3135 7.12883 22.0951 7.12883C21.8766 7.12883 21.6996 7.30599 21.6996 7.52434V14.583C21.6996 14.583 19.8137 16.0696 19.0031 16.433V4.72549C19.0031 4.18125 19.4458 3.73857 19.9901 3.73857H20.7127C21.2569 3.73857 21.6996 4.18125 21.6996 4.72549V5.90522C21.6996 6.12378 21.8766 6.30073 22.0951 6.30073C22.3135 6.30073 22.4904 6.12378 22.4904 5.90522V4.72549C22.4904 3.74516 21.693 2.94775 20.7127 2.94775H19.9901C19.0097 2.94775 18.2121 3.74516 18.2121 4.72549V16.7465C17.9763 16.8126 17.7342 16.8576 17.4883 16.8812V8.54319C17.4883 7.55792 16.6867 6.75639 15.7017 6.75639H14.9965C14.0115 6.75639 13.21 7.55792 13.21 8.54319V12.5729L12.4859 12.9572V11.6162C12.4859 10.7292 11.7643 10.0076 10.8775 10.0076H9.81619C8.92918 10.0076 8.20778 10.7292 8.20778 11.6162V15.2281L6.9164 15.9135L3.29007 16.9498C2.65911 17.1301 2.13217 17.5433 1.8067 18.1131C1.48102 18.6831 1.39265 19.3468 1.55786 19.9819L1.96346 21.5425C2.01826 21.7538 2.23414 21.8805 2.4457 21.8257C2.65705 21.7707 2.78394 21.5549 2.72894 21.3433L2.32334 19.7829C2.08809 18.8777 2.60823 17.9672 3.5076 17.7104L6.82309 16.7628L9.31501 23.4135C9.48186 23.8589 9.45549 25.1295 8.13733 25.5977L5.63182 26.1669C4.75861 26.365 3.89817 25.8416 3.67281 24.9748L3.16421 23.0176C3.10921 22.8063 2.89332 22.6794 2.68197 22.7342C2.47042 22.7892 2.34373 23.0051 2.39852 23.2166L2.90733 25.174C3.19325 26.2736 4.17008 27.0001 5.25753 27.0001C6.05658 27.0001 8.31263 26.369 8.31263 26.369C8.99922 26.2132 9.58465 25.7683 9.91857 25.1486C10.1942 24.6374 10.276 24.049 10.1577 23.4885L18.826 21.3664C19.5429 21.1907 20.2235 20.8501 20.7937 20.3815L25.012 16.9154C26.298 15.7748 25.5437 14.482 25.1655 14.1057ZM14.9965 7.54741H15.7017C16.2506 7.54741 16.6972 7.99422 16.6972 8.54319V16.901L14.2016 16.9C13.9723 16.8979 14.131 16.7465 14.1435 16.7362L14.8622 16.1541C15.5328 15.6109 15.9707 14.8557 16.1637 13.9092C16.2863 13.3087 16.0572 12.7076 15.5663 12.3405C15.1078 11.9977 14.518 11.9318 14.001 12.1584V8.54319C14.001 7.99422 14.4476 7.54741 14.9965 7.54741ZM8.9988 11.6162C8.9988 11.1655 9.36547 10.7986 9.81619 10.7986H10.8775C11.3282 10.7986 11.6951 11.1655 11.6951 11.6162V13.3771L8.9986 14.8083V11.6162H8.9988ZM24.51 16.3045L20.2914 19.7705C19.8123 20.1644 19.2405 20.4505 18.6379 20.598L9.9058 22.736L7.55746 16.469L14.2626 12.9099C14.5351 12.7651 14.8456 12.7892 15.0925 12.9739C15.3395 13.1587 15.4504 13.4492 15.3888 13.7512C15.2332 14.5131 14.8886 15.1148 14.3644 15.5394L13.6456 16.1217C13.3511 16.3603 13.2425 16.7453 13.369 17.1027C13.4955 17.4599 13.8222 17.691 14.2012 17.691L17.0829 17.6922H17.0849C18.1108 17.6922 19.0967 17.3804 19.9359 16.7902L23.1564 14.5255C23.6073 14.2083 24.2144 14.2643 24.5996 14.6586C24.8215 14.8852 25.2557 15.5586 24.51 16.3045Z" fill="black"/>
<path d="M7.79989 23.6667C7.79989 22.8075 7.10095 22.1084 6.24174 22.1084C5.38254 22.1084 4.68359 22.8075 4.68359 23.6667C4.68359 24.5257 5.38254 25.2249 6.24174 25.2249C7.10095 25.2249 7.79989 24.5257 7.79989 23.6667ZM5.47462 23.6667C5.47462 23.2436 5.81863 22.8994 6.24174 22.8994C6.66465 22.8994 7.00887 23.2436 7.00887 23.6667C7.00887 24.0897 6.66486 24.4339 6.24174 24.4339C5.81863 24.4339 5.47462 24.0897 5.47462 23.6667Z" fill="black"/>
<path d="M3.39794 12.418L9.14725 6.62438L10.4405 7.29325C10.9038 7.53282 11.4676 7.45083 11.8433 7.08911L14.9728 4.07664C14.9728 4.07664 14.8867 5.62387 16.1896 5.62387C16.8603 5.62387 17.4062 5.07798 17.4062 4.40705V1.21661C17.4062 1.2129 17.406 1.20898 17.406 1.20507C17.4017 0.372645 16.793 0 16.1896 0H13.027C12.356 0 11.8104 0.545886 11.8104 1.21661C11.8104 2.55392 13.1714 2.43321 13.1714 2.43321L10.7839 4.73129L9.4719 4.05274C8.9975 3.8072 8.42586 3.89722 8.0493 4.27625L1.67088 10.7039C1.19832 11.1802 1.20121 11.952 1.67747 12.4246C1.90695 12.6522 2.69055 13.1254 3.39794 12.418ZM2.23221 11.2611L8.61064 4.83346C8.69304 4.75065 8.82528 4.60563 9.10853 4.75539L10.6722 5.56413C10.8228 5.64199 11.0062 5.61542 11.1283 5.4978L14.4267 2.3228C14.5429 2.21094 14.5795 2.03955 14.5192 1.89C14.4588 1.74024 14.3138 1.6424 14.1523 1.6424H13.027C12.7923 1.6424 12.6014 1.45144 12.6014 1.21661C12.6014 0.981977 12.7923 0.79102 13.027 0.79102H16.1896C16.306 0.79102 16.615 0.79102 16.615 1.21413C16.615 1.21764 16.6152 1.22114 16.6152 1.22485V4.40705C16.6152 4.64168 16.4242 4.83264 16.1896 4.83264C15.9548 4.83264 15.7638 4.64168 15.7638 4.40705V3.14698C15.7638 2.98837 15.6691 2.84499 15.5232 2.78299C15.3774 2.72078 15.2084 2.75209 15.0941 2.86209L11.2948 6.51932C11.1633 6.64581 10.966 6.67464 10.8041 6.59081L9.25293 5.78846C9.09946 5.70915 8.91221 5.7386 8.79047 5.86117L2.8366 11.8608C2.57705 12.1203 2.31482 11.9428 2.23448 11.863C2.06804 11.6976 2.06701 11.4276 2.23221 11.2611Z" fill="black"/>
</svg>
