<svg width="26" height="26" viewBox="0 0 26 26" fill="none" xmlns="http://www.w3.org/2000/svg">
<path d="M23.3466 3.72262H20.4906V0.507812C20.4906 0.227398 20.2632 0 19.9828 0H6.0177C5.73729 0 5.50989 0.227398 5.50989 0.507812V3.72262H2.65375C1.80758 3.72262 1.11914 4.41081 1.11914 5.25672V9.37447C1.11914 9.65489 1.34654 9.88229 1.62695 9.88229C1.90737 9.88229 2.13477 9.65489 2.13477 9.37447V5.25672C2.13477 4.97082 2.3676 4.73825 2.65375 4.73825H5.50979V17.4645H2.13477V13.8419C2.13477 13.5615 1.90737 13.3341 1.62695 13.3341C1.34654 13.3341 1.11914 13.5615 1.11914 13.8419V20.0765V20.0767C1.11914 20.9229 1.80758 21.6114 2.65375 21.6114H9.95249L9.67334 24.007C9.60992 24.5635 9.14009 24.9827 8.58018 24.9827C8.57972 24.9827 8.57926 24.9827 8.57891 24.9827C8.57139 24.9824 8.56504 24.9829 8.55803 24.9832C8.55326 24.9834 7.91677 24.9844 7.91677 24.9844C7.63635 24.9844 7.40896 25.2118 7.40896 25.4922C7.40896 25.7726 7.63635 26 7.91677 26H18.1171C18.3975 26 18.6249 25.7726 18.6249 25.4922C18.6249 25.2118 18.3975 24.9844 18.1171 24.9844C18.1171 24.9844 17.4807 24.9833 17.4759 24.9832C17.4691 24.9829 17.4624 24.9827 17.4557 24.9827C17.4551 24.9828 17.4545 24.9828 17.4537 24.9827C16.8939 24.9827 16.424 24.5635 16.3605 24.007C16.3605 24.0066 16.3604 24.0062 16.3604 24.0058L16.0814 21.6114H23.3467C24.1928 21.6114 24.8813 20.923 24.8813 20.0768V20.0766V5.25672C24.8812 4.41076 24.1928 3.72262 23.3466 3.72262ZM23.3466 4.73825C23.6328 4.73825 23.8656 4.97082 23.8656 5.25672V17.4645H20.4906V4.73825H23.3466ZM19.475 1.01562L19.4749 17.4643H6.52552V1.01562H19.475ZM23.8656 18.4802V20.0766C23.8656 20.3628 23.6328 20.5956 23.3466 20.5956H2.65375C2.3676 20.5956 2.13477 20.3628 2.13477 20.0766V18.4802H23.8656ZM15.3515 24.1232C15.3876 24.4376 15.491 24.7294 15.6466 24.9844H10.3874C10.543 24.7293 10.6465 24.4377 10.6823 24.1233L10.975 21.6114H15.0589L15.3515 24.1232Z" fill="black"/>
<path d="M10.2074 4.80553C10.4366 4.96722 10.7535 4.91242 10.915 4.6832C11.4089 3.98297 12.2144 3.56494 13.07 3.56494C14.1841 3.56494 15.1382 4.26044 15.5228 5.23981L15.4493 5.19929C15.2036 5.06385 14.8948 5.15333 14.7594 5.39896C14.6241 5.64459 14.7135 5.95344 14.9591 6.08877L15.9674 6.64442C16.1733 6.75675 16.4369 6.71241 16.5928 6.5361L17.3815 5.64438C17.5674 5.4343 17.5476 5.11341 17.3376 4.92761C17.1276 4.7418 16.8066 4.7615 16.6208 4.97153L16.5386 5.06446C16.0601 3.60592 14.6864 2.54932 13.0699 2.54932C11.8847 2.54932 10.7689 3.12822 10.0851 4.09794C9.92339 4.32707 9.97818 4.64389 10.2074 4.80553Z" fill="black"/>
<path d="M8.7944 7.47165C9.0018 7.65497 9.32791 7.63491 9.51123 7.42777L9.59934 7.32819C10.0759 8.79018 11.4513 9.84999 13.0703 9.84999C14.2933 9.84999 15.4291 9.24193 16.1086 8.22346C16.2643 7.99017 16.2014 7.67487 15.968 7.51923C15.7349 7.36369 15.4195 7.42645 15.2638 7.65984C14.773 8.39531 13.953 8.83441 13.0703 8.83441C11.9583 8.83441 11.0057 8.1416 10.6196 7.16523L10.6829 7.20007C10.9285 7.33545 11.2373 7.24603 11.3727 7.0004C11.5081 6.75477 11.4186 6.44592 11.173 6.31058L10.223 5.78703C10.0132 5.63656 9.7104 5.66967 9.53921 5.86315L8.75048 6.75482C8.56472 6.96485 8.58432 7.28584 8.7944 7.47165Z" fill="black"/>
<path d="M9.21094 12.5933H16.8229C17.1033 12.5933 17.3307 12.3659 17.3307 12.0854C17.3307 11.805 17.1033 11.5776 16.8229 11.5776H9.21094C8.93052 11.5776 8.70312 11.805 8.70312 12.0854C8.70312 12.3659 8.93047 12.5933 9.21094 12.5933Z" fill="black"/>
<path d="M14.57 14.3687H9.21094C8.93052 14.3687 8.70312 14.5961 8.70312 14.8765C8.70312 15.1569 8.93052 15.3843 9.21094 15.3843H14.57C14.8504 15.3843 15.0778 15.1569 15.0778 14.8765C15.0778 14.5961 14.8505 14.3687 14.57 14.3687Z" fill="black"/>
<path d="M17.292 14.6822C17.1872 14.4264 16.8837 14.3014 16.6288 14.4075C16.3733 14.5138 16.2483 14.8142 16.354 15.0702C16.4597 15.3261 16.7615 15.451 17.0172 15.3454C17.2724 15.24 17.3983 14.9372 17.292 14.6822Z" fill="black"/>
<path d="M1.15663 11.8027C1.26301 12.0578 1.56389 12.1836 1.81983 12.0774C2.07541 11.9714 2.20013 11.6697 2.09456 11.4142C1.98898 11.1586 1.68668 11.0332 1.43135 11.1394C1.17501 11.2461 1.05156 11.5461 1.15663 11.8027Z" fill="black"/>
</svg>
