<svg width="27" height="27" viewBox="0 0 27 27" fill="none" xmlns="http://www.w3.org/2000/svg">
<g clip-path="url(#clip0)">
<path d="M24.595 4.6623C20.8801 3.64443 17.1434 2.0595 13.7888 0.0789037C13.6106 -0.0263012 13.3895 -0.0263012 13.2114 0.0789037C9.76004 2.1164 6.22526 3.61558 2.40493 4.6623C2.15813 4.72986 1.98706 4.95419 1.98706 5.21011V11.0133C1.98706 16.9893 4.74396 20.945 7.05678 23.2111C9.54668 25.6508 12.4471 27 13.5001 27C14.5531 27 17.4534 25.6508 19.9433 23.2111C22.2561 20.9451 25.0128 16.9894 25.0128 11.0133V5.21005C25.0128 4.95419 24.8418 4.72986 24.595 4.6623ZM23.877 11.0132C23.877 16.5948 21.3056 20.2859 19.1483 22.3996C16.6998 24.7988 14.0819 25.864 13.5001 25.864C12.9183 25.864 10.3003 24.7988 7.85169 22.3996C5.69449 20.2859 3.12301 16.5948 3.12301 11.0132V5.64121C6.77633 4.60393 10.1786 3.15632 13.5002 1.22609C16.7388 3.10511 20.3109 4.6247 23.877 5.641V11.0132Z" fill="black"/>
<path d="M8.46584 5.57871C8.35088 5.28682 8.02113 5.14344 7.72919 5.25845C6.71458 5.65823 5.67318 6.02621 4.63395 6.35221C4.39712 6.42657 4.23596 6.64594 4.23596 6.89411V9.08738C4.23596 9.40104 4.4903 9.65533 4.80391 9.65533C5.11752 9.65533 5.37186 9.40104 5.37186 9.08738V7.30918C6.30415 7.00754 7.23544 6.67389 8.14558 6.31525C8.43747 6.20034 8.58085 5.87059 8.46584 5.57871Z" fill="black"/>
<path d="M9.54471 5.68631C9.62091 5.68631 9.69827 5.67096 9.77246 5.63858L9.78291 5.63405C10.0703 5.50812 10.1997 5.17363 10.0737 4.88638C9.9477 4.59904 9.61131 4.46905 9.32428 4.59487L9.3151 4.59883C9.0276 4.72439 8.89777 5.05861 9.02333 5.34602C9.11651 5.55938 9.3256 5.68631 9.54471 5.68631Z" fill="black"/>
<path d="M20.2669 18.3132C20.0044 18.1417 19.6525 18.2155 19.4807 18.478C19.0127 19.1944 18.4636 19.8803 17.8485 20.5167C17.3427 21.0399 16.7946 21.5276 16.2194 21.9661C15.97 22.1563 15.922 22.5126 16.1121 22.7621C16.224 22.9087 16.3931 22.9858 16.5642 22.9858C16.6843 22.9858 16.8053 22.9478 16.9082 22.8694C17.5286 22.3963 18.1197 21.8704 18.6651 21.3062C19.3301 20.6184 19.9245 19.8759 20.4317 19.0994C20.6033 18.8367 20.5294 18.4848 20.2669 18.3132Z" fill="black"/>
<path d="M14.9005 22.8572L14.8679 22.8764C14.5965 23.0336 14.5037 23.381 14.6608 23.6524C14.7661 23.8344 14.9568 23.9359 15.1529 23.9359C15.2494 23.9359 15.3474 23.9113 15.4369 23.8594L15.4745 23.8373C15.7451 23.6787 15.8361 23.3308 15.6775 23.0602C15.5189 22.7896 15.171 22.6988 14.9005 22.8572Z" fill="black"/>
<path d="M9.62874 12.3405C9.28001 11.9917 8.81621 11.7998 8.32293 11.7998C7.82965 11.7998 7.3658 11.9918 7.01691 12.3405C6.29693 13.0606 6.29693 14.2324 7.01691 14.9525L10.3706 18.3061C10.7194 18.6547 11.1832 18.8468 11.6765 18.8468C12.1698 18.8468 12.6336 18.6547 12.9825 18.306L19.9835 11.3049C20.7035 10.5846 20.7035 9.41296 19.9834 8.69308C19.6346 8.3443 19.1708 8.15234 18.6775 8.15234C18.1841 8.15234 17.7203 8.34435 17.3715 8.69308L11.6765 14.3881L9.62874 12.3405ZM18.1748 9.49633C18.309 9.36212 18.4876 9.28824 18.6775 9.28824C18.8676 9.28824 19.046 9.36212 19.1803 9.49633C19.4575 9.77345 19.4575 10.2245 19.1802 10.5018L12.1793 17.5028C12.0451 17.637 11.8665 17.7109 11.6765 17.7109C11.4866 17.7109 11.308 17.637 11.1737 17.5028L7.82011 14.1493C7.54289 13.8721 7.54289 13.421 7.82 13.1439C7.95427 13.0096 8.13288 12.9357 8.32288 12.9357C8.51288 12.9357 8.69139 13.0095 8.82559 13.1437L11.2748 15.593C11.3814 15.6995 11.5258 15.7594 11.6765 15.7594C11.8271 15.7594 11.9715 15.6996 12.078 15.593L18.1748 9.49633Z" fill="black"/>
</g>
<defs>
<clipPath id="clip0">
<rect width="27" height="27" fill="white"/>
</clipPath>
</defs>
</svg>
