<svg width="18" height="12" viewBox="0 0 18 12" fill="none" xmlns="http://www.w3.org/2000/svg">
<path d="M9 0C10.8615 0 12.6263 0.530493 14.1629 1.51262C15.6995 2.48758 17.0078 3.91418 17.9473 5.69922C18.0176 5.83543 18.0176 5.99314 17.9473 6.12218C16.0683 9.69226 12.7229 11.8286 9 11.8286H8.99122C5.27707 11.8286 1.93171 9.69226 0.0526829 6.12218C-0.017561 5.99314 -0.017561 5.83543 0.0526829 5.69922C1.93171 2.12914 5.27707 0 8.99122 0H9ZM9 3.04675C7.05951 3.04675 5.4878 4.32997 5.4878 5.91429C5.4878 7.49143 7.05951 8.77465 9 8.77465C10.9317 8.77465 12.5034 7.49143 12.5034 5.91429C12.5034 4.32997 10.9317 3.04675 9 3.04675ZM9.00105 4.1205C10.204 4.1205 11.1874 4.92341 11.1874 5.91271C11.1874 6.89484 10.204 7.69775 9.00105 7.69775C7.78935 7.69775 6.80593 6.89484 6.80593 5.91271C6.80593 5.79084 6.82349 5.67614 6.84983 5.56144H6.89374C7.86837 5.56144 8.65861 4.93058 8.69374 4.14201C8.79032 4.12767 8.89569 4.1205 9.00105 4.1205Z" fill="#6946C6"/>
</svg>
