<svg width="64" height="64" viewBox="0 0 64 64" fill="none" xmlns="http://www.w3.org/2000/svg">
<circle cx="32" cy="32" r="32" fill="black"/>
<path d="M41.8586 39.3894C42.1133 39.3894 42.3198 39.1829 42.3198 38.9282C42.3198 38.6735 42.1133 38.467 41.8586 38.467C41.6039 38.467 41.3975 38.6735 41.3975 38.9282C41.3975 39.1829 41.6039 39.3894 41.8586 39.3894Z" fill="white"/>
<path d="M43.4875 39.3894C43.7422 39.3894 43.9487 39.1829 43.9487 38.9282C43.9487 38.6735 43.7422 38.467 43.4875 38.467C43.2328 38.467 43.0264 38.6735 43.0264 38.9282C43.0264 39.1829 43.2328 39.3894 43.4875 39.3894Z" fill="white"/>
<path d="M45.1179 39.3894C45.3726 39.3894 45.5791 39.1829 45.5791 38.9282C45.5791 38.6735 45.3726 38.467 45.1179 38.467C44.8632 38.467 44.6567 38.6735 44.6567 38.9282C44.6567 39.1829 44.8632 39.3894 45.1179 39.3894Z" fill="white"/>
<path d="M46.6165 19.5548H40.015C38.2531 17.3328 35.531 15.9048 32.4814 15.9048C29.4318 15.9048 26.7097 17.3328 24.9478 19.5548H18.3464C17.5835 19.5548 16.9629 20.1755 16.9629 20.9384V39.5199C16.9629 40.4523 17.7214 41.2108 18.6539 41.2108H28.4901V43.9133H21.5499C21.126 43.9133 20.7812 44.258 20.7812 44.6819V46.6191C20.7812 47.0429 21.126 47.3877 21.5499 47.3877H43.413C43.8368 47.3877 44.1816 47.0429 44.1816 46.6191V44.6819C44.1816 44.258 43.8368 43.9133 43.413 43.9133H41.0286C40.7738 43.9133 40.5674 44.1197 40.5674 44.3744C40.5674 44.6291 40.7738 44.8356 41.0286 44.8356H43.2592V46.4653H21.7036V44.8356H38.8764C39.1312 44.8356 39.3376 44.6291 39.3376 44.3744C39.3376 44.1197 39.1312 43.9133 38.8764 43.9133H36.4728V41.2108H46.309C47.2415 41.2108 48 40.4523 48 39.5199V20.9384C48 20.1755 47.3793 19.5548 46.6165 19.5548V19.5548ZM40.2631 21.6541C40.7784 22.6882 41.0939 23.8385 41.1578 25.0544H37.4759C37.4474 23.8663 37.3082 22.7179 37.07 21.6541H40.2631ZM35.8626 30.2995C35.2056 32.3725 34.1441 33.842 32.9426 34.1455V30.2995H35.8626ZM32.9426 29.3772V25.9769H36.553C36.5216 27.1857 36.3677 28.3379 36.1183 29.3772H32.9426ZM36.104 32.1904C36.3893 31.6153 36.6328 30.9798 36.8328 30.2995H39.7306C38.6306 31.9608 36.9758 33.2239 35.0321 33.8219C35.4234 33.3819 35.784 32.8356 36.104 32.1904V32.1904ZM37.07 29.3772C37.3082 28.3134 37.4474 27.165 37.4759 25.9769H41.1577C41.0938 27.1928 40.7783 28.3431 40.2631 29.3772H37.07ZM39.7306 20.7318H36.8328C36.6328 20.0515 36.3893 19.416 36.104 18.8409C35.784 18.1957 35.4234 17.6494 35.0321 17.2094C36.9758 17.8075 38.6306 19.0705 39.7306 20.7318ZM32.9426 16.8859C34.1442 17.1894 35.2056 18.6589 35.8626 20.7318H32.9426V16.8859ZM32.4814 22.6379C32.7362 22.6379 32.9426 22.4315 32.9426 22.1768V21.6541H36.1183C36.3678 22.6934 36.5216 23.8456 36.553 25.0544H32.9426V24.3904C32.9426 24.1357 32.7362 23.9292 32.4814 23.9292C32.2268 23.9292 32.0203 24.1357 32.0203 24.3904V25.0545H28.4099C28.4412 23.8457 28.5951 22.6934 28.8446 21.6542H32.0203V22.1768C32.0203 22.4315 32.2268 22.6379 32.4814 22.6379V22.6379ZM28.1301 30.2995C28.3301 30.9798 28.5736 31.6154 28.8589 32.1904C29.1789 32.8356 29.5395 33.3819 29.9308 33.8219C27.9871 33.2239 26.3323 31.9608 25.2323 30.2995H28.1301ZM24.6998 29.3772C24.1845 28.3431 23.8691 27.1929 23.8051 25.9769H27.487C27.5155 27.1649 27.6548 28.3134 27.8929 29.3772H24.6998ZM29.1003 30.2995H32.0203V34.1455C30.8187 33.8419 29.7573 32.3725 29.1003 30.2995ZM28.8446 29.3772C28.5951 28.3379 28.4412 27.1857 28.4099 25.9769H32.0203V29.3772H28.8446ZM32.0203 16.8859V20.7318H29.1003C29.7573 18.6589 30.8188 17.1894 32.0203 16.8859ZM29.9308 17.2094C29.5394 17.6494 29.1789 18.1957 28.8589 18.8409C28.5736 19.4161 28.3301 20.0516 28.1301 20.7318H25.2323C26.3323 19.0705 27.9871 17.8075 29.9308 17.2094V17.2094ZM27.8929 21.6541C27.6548 22.7179 27.5155 23.8664 27.487 25.0544H23.8052C23.8691 23.8384 24.1846 22.6882 24.6998 21.6541H27.8929ZM35.5505 43.9133H29.4124V41.2108H35.5505V43.9133ZM47.0776 36.7967H26.1479C25.8932 36.7967 25.6867 37.0032 25.6867 37.2579C25.6867 37.5126 25.8932 37.7191 26.1479 37.7191H47.0776V39.5199C47.0776 39.9437 46.7329 40.2885 46.309 40.2885H18.6539C18.23 40.2885 17.8852 39.9437 17.8852 39.5199V37.7191H23.9958C24.2505 37.7191 24.457 37.5126 24.457 37.2579C24.457 37.0032 24.2505 36.7967 23.9958 36.7967H17.8852V20.9384C17.8852 20.684 18.0921 20.4772 18.3464 20.4772H24.3006C23.3944 21.9432 22.8705 23.6693 22.8705 25.5157C22.8705 30.8151 27.182 35.1266 32.4814 35.1266C37.7809 35.1266 42.0923 30.8151 42.0923 25.5157C42.0923 23.6693 41.5685 21.9432 40.6623 20.4772H46.6165C46.8708 20.4772 47.0776 20.6841 47.0776 20.9384V36.7967Z" fill="white"/>
<path d="M22.774 34.2904H19.8225C19.5678 34.2904 19.3613 34.4969 19.3613 34.7516C19.3613 35.0063 19.5678 35.2128 19.8225 35.2128H22.774C23.0287 35.2128 23.2352 35.0063 23.2352 34.7516C23.2352 34.4969 23.0287 34.2904 22.774 34.2904Z" fill="white"/>
<path d="M19.8225 33.614H20.9293C21.184 33.614 21.3905 33.4075 21.3905 33.1528C21.3905 32.8981 21.184 32.6917 20.9293 32.6917H19.8225C19.5678 32.6917 19.3613 32.8981 19.3613 33.1528C19.3613 33.4075 19.5678 33.614 19.8225 33.614Z" fill="white"/>
<path d="M45.1558 34.2904H43.926C43.6713 34.2904 43.4648 34.4969 43.4648 34.7516C43.4648 35.0063 43.6713 35.2128 43.926 35.2128H45.1558C45.4106 35.2128 45.617 35.0063 45.617 34.7516C45.617 34.4969 45.4106 34.2904 45.1558 34.2904Z" fill="white"/>
<path d="M45.1558 32.6917H43.926C43.6713 32.6917 43.4648 32.8981 43.4648 33.1528C43.4648 33.4075 43.6713 33.614 43.926 33.614H45.1558C45.4106 33.614 45.617 33.4075 45.617 33.1528C45.617 32.8981 45.4106 32.6917 45.1558 32.6917Z" fill="white"/>
<path d="M45.1558 31.0928H43.926C43.6713 31.0928 43.4648 31.2993 43.4648 31.5539C43.4648 31.8086 43.6713 32.0151 43.926 32.0151H45.1558C45.4106 32.0151 45.617 31.8086 45.617 31.5539C45.617 31.2993 45.4106 31.0928 45.1558 31.0928Z" fill="white"/>
</svg>
