<svg width="28" height="28" viewBox="0 0 28 28" fill="none" xmlns="http://www.w3.org/2000/svg">
<path d="M10.5 18.0149V13.7812C10.5 12.9369 9.81312 12.25 8.96875 12.25C8.73294 12.25 8.512 12.3082 8.3125 12.4036V9.84375C8.3125 8.99938 7.62563 8.3125 6.78125 8.3125C6.54544 8.3125 6.3245 8.37069 6.125 8.46606V7.21875C6.125 6.37438 5.43813 5.6875 4.59375 5.6875C3.88281 5.6875 3.28825 6.1775 3.11719 6.8355C2.84681 6.66487 2.52962 6.5625 2.1875 6.5625C1.22237 6.5625 0.4375 7.34737 0.4375 8.3125V15.75C0.4375 15.8231 0.455875 15.8953 0.490875 15.9596L3.11588 20.7721C3.136 20.8084 3.16138 20.8425 3.19069 20.8718L6.61587 24.297C6.86 24.5411 7 24.8793 7 25.2249V27.125C7 27.3665 7.196 27.5625 7.4375 27.5625H12.6875C12.929 27.5625 13.125 27.3665 13.125 27.125V21.6899C13.125 21.1339 12.9159 20.6036 12.5366 20.1972L10.5 18.0149ZM8.96875 13.125C9.33056 13.125 9.625 13.4194 9.625 13.7812V17.0774L8.3125 15.6712V13.7812C8.3125 13.4194 8.60694 13.125 8.96875 13.125ZM6.78125 9.1875C7.14306 9.1875 7.4375 9.48194 7.4375 9.84375V13.7812V14.7337L7.14175 14.4169C6.89456 14.1522 6.545 14 6.18231 14H6.125V9.84375C6.125 9.48194 6.41944 9.1875 6.78125 9.1875ZM3.9375 7.21875C3.9375 6.85694 4.23194 6.5625 4.59375 6.5625C4.95556 6.5625 5.25 6.85694 5.25 7.21875V9.84375V14.3404C5.05575 14.5154 4.91094 14.7451 4.84837 15.008L3.9375 13.8486V8.3125V7.21875ZM12.25 26.6875H7.875V25.2249C7.875 24.6409 7.6475 24.0914 7.2345 23.6784L3.85394 20.2978L1.3125 15.6384V8.3125C1.3125 7.82994 1.70494 7.4375 2.1875 7.4375C2.67006 7.4375 3.0625 7.82994 3.0625 8.3125V14C3.0625 14.098 3.09531 14.1929 3.15613 14.2704L7.96863 20.3954L8.65637 19.8551L5.6875 16.0759V15.3125C5.6875 15.0714 5.88394 14.875 6.125 14.875H6.18231C6.30306 14.875 6.41944 14.9258 6.50213 15.0137L11.8974 20.7939C12.1244 21.0381 12.25 21.3561 12.25 21.6899V26.6875Z" fill="black"/>
<path d="M25.8125 6.5625C25.4704 6.5625 25.1532 6.66487 24.8828 6.8355C24.7118 6.1775 24.1172 5.6875 23.4062 5.6875C22.5619 5.6875 21.875 6.37438 21.875 7.21875V8.46606C21.6755 8.37069 21.4546 8.3125 21.2188 8.3125C20.3744 8.3125 19.6875 8.99938 19.6875 9.84375V12.4036C19.488 12.3082 19.2671 12.25 19.0312 12.25C18.1869 12.25 17.5 12.9369 17.5 13.7812V18.0149L15.4634 20.1972C15.0841 20.6036 14.875 21.1339 14.875 21.6899V27.125C14.875 27.3665 15.071 27.5625 15.3125 27.5625H20.5625C20.804 27.5625 21 27.3665 21 27.125V25.2249C21 24.8793 21.14 24.5416 21.3841 24.297L24.8093 20.8718C24.8386 20.8425 24.864 20.8084 24.8841 20.7721L27.5091 15.9596C27.5441 15.8953 27.5625 15.8231 27.5625 15.75V8.3125C27.5625 7.34737 26.7776 6.5625 25.8125 6.5625ZM22.75 7.21875C22.75 6.85694 23.0444 6.5625 23.4062 6.5625C23.7681 6.5625 24.0625 6.85694 24.0625 7.21875V8.3125V13.8486L23.1516 15.0076C23.0891 14.7446 22.9443 14.5154 22.75 14.3399V9.84375V7.21875ZM20.5625 9.84375C20.5625 9.48194 20.8569 9.1875 21.2188 9.1875C21.5806 9.1875 21.875 9.48194 21.875 9.84375V14H21.8177C21.455 14 21.1054 14.1522 20.8582 14.4169L20.5625 14.7341V13.7812V9.84375ZM18.375 13.7812C18.375 13.4194 18.6694 13.125 19.0312 13.125C19.3931 13.125 19.6875 13.4194 19.6875 13.7812V15.6712L18.375 17.0774V13.7812ZM26.6875 15.6384L24.1461 20.2974L20.7655 23.6779C20.3525 24.0914 20.125 24.6404 20.125 25.2249V26.6875H15.75V21.6899C15.75 21.3561 15.8756 21.0381 16.1031 20.7944L21.4983 15.0141C21.5806 14.9258 21.6969 14.875 21.8177 14.875H21.875C22.1161 14.875 22.3125 15.0714 22.3125 15.3125V16.0759L19.3436 19.8546L20.0314 20.3949L24.8439 14.2699C24.9047 14.1929 24.9375 14.098 24.9375 14V8.3125C24.9375 7.82994 25.3299 7.4375 25.8125 7.4375C26.2951 7.4375 26.6875 7.82994 26.6875 8.3125V15.6384Z" fill="black"/>
<path d="M20.5547 4.04089C20.4812 2.86052 19.8893 1.79695 18.9316 1.12277C17.5338 0.139267 15.6455 0.225017 14.3396 1.33102L14.0001 1.61889L13.6601 1.33102C12.3542 0.225017 10.4664 0.139267 9.06815 1.12277C8.11046 1.79695 7.51852 2.86052 7.44502 4.04089C7.37108 5.22477 7.82783 6.35745 8.69846 7.14889L13.7056 11.7028C13.7892 11.7785 13.8946 11.8166 14.0001 11.8166C14.1055 11.8166 14.211 11.7785 14.2945 11.7028L19.3017 7.14889C20.1719 6.35745 20.6286 5.22477 20.5547 4.04089ZM14.0001 10.7885L9.28733 6.50227C8.61446 5.8902 8.2614 5.01302 8.31871 4.09602C8.37558 3.18208 8.83277 2.35914 9.57215 1.83895C10.0705 1.48808 10.6497 1.31483 11.2281 1.31483C11.894 1.31483 12.5585 1.54452 13.0945 1.99908L13.717 2.5267C13.8802 2.66452 14.1195 2.66452 14.2827 2.5267L14.9057 1.99864C15.9071 1.15033 17.3561 1.08383 18.428 1.83852C19.1674 2.3587 19.6246 3.18164 19.6815 4.09558C19.7388 5.01302 19.3857 5.8902 18.7128 6.50183L14.0001 10.7885Z" fill="black"/>
</svg>
