<svg width="20" height="21" viewBox="0 0 20 21" fill="none" xmlns="http://www.w3.org/2000/svg">
<path d="M3.55518 2.31104V13.7988L0.0351398 4.20782C-0.0770107 3.90303 0.0808597 3.56501 0.386441 3.45481L3.55518 2.31104Z" fill="white"/>
<path d="M19.9649 4.20792L16.4507 13.7829V2.31348L19.6136 3.45491C19.9191 3.56511 20.0766 3.90312 19.9649 4.20792Z" fill="white"/>
<path d="M14.6924 0H5.31394C4.99038 0 4.72778 0.262596 4.72778 0.586153V19.4212C4.72778 19.7447 4.99038 20.0073 5.31394 20.0073H14.6924C15.0159 20.0073 15.2785 19.7447 15.2785 19.4212V0.586153C15.2785 0.262596 15.0159 0 14.6924 0ZM11.1755 16.4904H7.65855C7.33499 16.4904 7.07239 16.2278 7.07239 15.9043C7.07239 15.5807 7.33499 15.3181 7.65855 15.3181H11.1755C11.499 15.3181 11.7616 15.5807 11.7616 15.9043C11.7616 16.2278 11.499 16.4904 11.1755 16.4904ZM12.3478 14.1458H7.65855C7.33499 14.1458 7.07239 13.8832 7.07239 13.5597C7.07239 13.2361 7.33499 12.9735 7.65855 12.9735H12.3478C12.6713 12.9735 12.9339 13.2361 12.9339 13.5597C12.9339 13.8832 12.6713 14.1458 12.3478 14.1458ZM12.3478 11.8012H8.83085C8.50729 11.8012 8.2447 11.5386 8.2447 11.2151C8.2447 10.8915 8.50729 10.6289 8.83085 10.6289H12.3478C12.6713 10.6289 12.9339 10.8915 12.9339 11.2151C12.9339 11.5386 12.6713 11.8012 12.3478 11.8012ZM12.9339 7.69814C12.9339 8.02169 12.6713 8.28429 12.3478 8.28429H7.65855C7.33499 8.28429 7.07239 8.02169 7.07239 7.69814V4.18122C7.07239 3.85767 7.33499 3.59507 7.65855 3.59507H12.3478C12.6713 3.59507 12.9339 3.85767 12.9339 4.18122V7.69814Z" fill="white"/>
<path d="M8.24463 4.76758H11.7615V7.11219H8.24463V4.76758Z" fill="white"/>
</svg>
