<svg width="28" height="28" viewBox="0 0 28 28" fill="none" xmlns="http://www.w3.org/2000/svg">
<path d="M1.54701 10.9647C1.64604 11.0049 1.75093 11.0251 1.85581 11.0251C1.96431 11.0251 2.07286 11.0035 2.17479 10.9605L4.62832 9.92493C5.04568 9.74879 5.24123 9.26762 5.06504 8.85026C4.8889 8.43291 4.40789 8.2373 3.99037 8.4135L3.39016 8.6668C5.25238 4.42787 9.46556 1.64054 14.1536 1.64054C19.5137 1.64054 24.1945 5.26492 25.5364 10.4544C25.632 10.8241 25.965 11.0695 26.33 11.0695C26.3979 11.0695 26.4671 11.0609 26.5359 11.0432C26.9745 10.9298 27.2382 10.4823 27.1247 10.0436C25.5956 4.13011 20.2616 0 14.1536 0C8.7814 0 3.95669 3.21234 1.85308 8.08862L1.57616 7.4324C1.40007 7.01505 0.919068 6.8195 0.501551 6.99558C0.0841436 7.17172 -0.111409 7.65289 0.0647852 8.07024L1.10018 10.5237C1.18467 10.7241 1.34544 10.8828 1.54701 10.9647V10.9647Z" fill="#6946C6"/>
<path d="M27.9339 19.7615L26.8986 17.308C26.814 17.1075 26.6533 16.9489 26.4517 16.867C26.2503 16.7851 26.0244 16.7866 25.8239 16.8712L23.3703 17.9068C22.953 18.0829 22.7574 18.5641 22.9336 18.9814C23.1098 19.3988 23.5909 19.5944 24.0083 19.4182L24.6952 19.1283C22.8797 23.4809 18.6075 26.3574 13.8451 26.3574C8.48492 26.3574 3.80419 22.733 2.46229 17.5436C2.34893 17.1049 1.90123 16.8415 1.46282 16.9548C1.02419 17.0682 0.760559 17.5157 0.873975 17.9543C2.40312 23.8678 7.73706 27.998 13.8451 27.998C19.2476 27.998 24.0963 24.7493 26.1808 19.8266L26.4225 20.3993C26.5547 20.7126 26.8587 20.9009 27.1786 20.9009C27.2849 20.9009 27.393 20.8801 27.4971 20.8362C27.9146 20.6599 28.1101 20.1788 27.9339 19.7615V19.7615Z" fill="#6946C6"/>
<path d="M14 14.8183C14.453 14.8183 14.8203 14.451 14.8203 13.998C14.8203 13.545 14.453 13.1777 14 13.1777C13.5469 13.1777 13.1797 13.545 13.1797 13.998C13.1797 14.451 13.5469 14.8183 14 14.8183Z" fill="#6946C6"/>
<path d="M20.5891 16.0483C21.7199 16.0483 22.6398 15.1284 22.6398 13.9976C22.6398 12.8668 21.7199 11.9469 20.5891 11.9469H20.4357C20.3206 11.5851 20.1749 11.2338 20.0005 10.8968L20.1092 10.7881C20.9087 9.98855 20.9087 8.6876 20.1091 7.88806C19.723 7.50199 19.2081 7.28943 18.6591 7.28943C18.11 7.28943 17.5951 7.50204 17.209 7.88806L17.1004 7.99672C16.7634 7.82238 16.412 7.67676 16.0503 7.56159V7.40809C16.0503 6.27733 15.1304 5.35742 13.9996 5.35742C12.8688 5.35742 11.9489 6.27733 11.9489 7.40809V7.56159C11.5871 7.67676 11.2358 7.82238 10.8988 7.99672L10.7902 7.88806C10.4041 7.50199 9.88917 7.28943 9.34014 7.28943C8.79111 7.28943 8.27614 7.50204 7.89001 7.88806C7.09053 8.6876 7.09053 9.98861 7.89007 10.7882L7.99867 10.8968C7.82423 11.2339 7.67855 11.5853 7.56349 11.947H7.41005C6.27928 11.947 5.35938 12.8669 5.35938 13.9976C5.35938 15.1284 6.27928 16.0483 7.41005 16.0483H7.56349C7.6786 16.4101 7.82428 16.7615 7.99862 17.0985L7.89001 17.2071C7.09053 18.0066 7.09053 19.3076 7.89001 20.1072C8.27609 20.4932 8.79105 20.7058 9.34009 20.7058C9.88912 20.7058 10.4041 20.4932 10.7902 20.1072L10.8988 19.9985C11.236 20.173 11.5873 20.3186 11.9489 20.4337V20.5872C11.9489 21.718 12.8688 22.6379 13.9996 22.6379C15.1304 22.6379 16.0503 21.718 16.0503 20.5872V20.4337C16.412 20.3186 16.7634 20.173 17.1004 19.9986L17.209 20.1072C17.5951 20.4933 18.11 20.7059 18.6591 20.7059C19.2081 20.7059 19.7231 20.4932 20.1092 20.1072C20.9087 19.3076 20.9087 18.0067 20.1091 17.2071L20.0005 17.0985C20.175 16.7613 20.3206 16.41 20.4357 16.0484H20.5891V16.0483ZM13.9996 16.4583C12.6428 16.4583 11.5388 15.3544 11.5388 13.9975C11.5388 12.6406 12.6428 11.5367 13.9996 11.5367C15.3565 11.5367 16.4605 12.6406 16.4605 13.9975C16.4605 15.3544 15.3565 16.4583 13.9996 16.4583Z" fill="#6946C6"/>
</svg>
