<svg width="250" height="250" viewBox="0 0 250 250" fill="none" xmlns="http://www.w3.org/2000/svg">
<g clip-path="url(#clip0)">
<rect width="250" height="250" fill="white"/>
<path d="M123.541 254.997C54.0001 254.517 -6.466 196.804 -5.99729 123.479C-5.54667 52.9247 53.0835 -6.47813 125.632 -5.9971C196.14 -5.52858 255.625 52.997 254.995 124.698C255.579 195.748 195.8 255.499 123.541 254.997ZM123.541 254.997C54.0001 254.517 -6.466 196.804 -5.99729 123.479C-5.54667 52.9247 53.0835 -6.47813 125.632 -5.9971C196.14 -5.52858 255.625 52.997 254.995 124.698C255.579 195.748 195.8 255.499 123.541 254.997Z" fill="white"/>
<path d="M123.669 237.665C63.3611 237.249 10.9279 187.2 11.3344 123.614C11.7256 62.4295 62.569 10.9158 125.482 11.3346C186.625 11.7409 238.21 62.4947 237.664 124.673C238.17 186.286 186.332 238.101 123.669 237.665ZM123.669 237.665C63.3611 237.249 10.9279 187.2 11.3344 123.614C11.7256 62.4295 62.569 10.9158 125.482 11.3346C186.625 11.7409 238.21 62.4947 237.664 124.673C238.17 186.286 186.332 238.101 123.669 237.665Z" fill="#49A32B"/>
<path d="M166.635 124.455C166.344 129.849 161.632 134.327 156.989 133.546C156.966 133.546 156.943 133.546 156.919 133.546C151.776 133.553 147.601 129.388 147.595 124.244C147.77 119.087 152.048 115.022 157.207 115.109C162.35 115.134 166.912 119.481 166.635 124.455ZM83.9239 176.721C85.8633 176.777 87.8042 176.736 90.0407 176.736V190.791C76.1397 193.141 64.689 189.194 61.8791 177.444C60.917 173.123 60.3256 168.728 60.109 164.306C59.8105 159.625 60.327 154.891 59.9702 150.218C58.9817 137.36 57.3158 132.97 44.9766 132.362V116.359C45.8609 116.152 46.7578 115.999 47.6601 115.898C54.4253 115.565 57.2769 113.491 58.7901 106.827C59.4787 103.082 59.8869 99.2924 60.0077 95.4871C60.5435 88.1291 60.3534 80.6517 61.5792 73.4131C63.3507 62.9454 69.8493 57.86 80.5836 57.2908C83.6379 57.127 86.7019 57.2659 90.1629 57.2659V71.632C88.7385 71.7333 87.4335 71.9402 86.1368 71.9013C77.3892 71.6333 76.9366 74.6126 76.298 81.854C75.8995 86.3951 76.4493 91.014 76.1397 95.5704C75.8162 100.105 75.2095 104.615 74.3238 109.074C73.0618 115.537 69.0885 120.343 63.5825 124.422C74.271 131.377 75.4872 142.185 76.1813 153.16C76.5548 159.057 76.384 164.996 76.9824 170.865C77.4488 175.42 79.2203 176.582 83.9239 176.721ZM92.9325 115.109C92.9881 115.109 93.0422 115.109 93.0977 115.109C98.2081 115.194 102.284 119.405 102.199 124.516C102.199 124.684 102.194 124.851 102.184 125.018C101.897 130.013 97.6153 133.828 92.6202 133.54C92.4189 133.544 92.219 133.54 92.0177 133.531C86.9309 133.278 83.0118 128.949 83.2644 123.862C83.5171 118.776 87.8458 114.857 92.9325 115.109ZM124.779 115.109C130.368 115.066 134.08 118.688 134.109 124.214C134.14 129.888 130.621 133.518 125.067 133.542C119.42 133.567 115.702 129.995 115.671 124.502C115.655 124.222 115.651 123.942 115.659 123.661C115.816 118.781 119.899 114.952 124.779 115.109ZM191.456 108.109C192.943 113.663 195.837 115.615 201.683 115.881C202.641 115.926 203.595 116.088 204.908 116.234V132.233C204.198 132.466 203.469 132.641 202.729 132.755C194.895 133.242 191.324 136.456 190.533 144.311C190.027 149.325 190.069 154.395 189.722 159.428C189.576 164.953 189.074 170.463 188.217 175.924C186.218 185.817 180.041 190.752 169.836 191.355C166.551 191.549 163.243 191.385 159.701 191.385V177.086C161.607 176.968 163.29 176.805 164.977 176.765C171.074 176.619 173.23 174.653 173.529 168.598C173.859 161.945 174.004 155.284 174.301 148.63C174.732 139.012 177.366 130.419 186.326 124.421C181.199 120.765 177.083 116.338 176.017 110.368C174.727 103.132 174.31 95.737 173.616 88.3998C173.273 84.7319 173.29 81.0321 172.932 77.367C172.546 73.4104 169.828 72.0415 166.226 71.9527C164.163 71.9027 162.092 71.9429 159.454 71.9429V57.9794C176.286 55.1848 187.913 60.7852 188.993 76.8894C189.446 83.6518 189.379 90.4462 189.812 97.2086C190.002 100.888 190.552 104.539 191.456 108.109Z" fill="white"/>
</g>
<defs>
<clipPath id="clip0">
<rect width="250" height="250" fill="white"/>
</clipPath>
</defs>
</svg>
