<svg width="36" height="36" viewBox="0 0 36 36" fill="none" xmlns="http://www.w3.org/2000/svg">
<g clip-path="url(#clip0)">
<path d="M22.3671 26.4759C23.4196 26.4759 24.472 26.0753 25.2732 25.274C26.8756 23.6716 26.8756 21.0643 25.2732 19.462C23.6708 17.8595 21.0635 17.8595 19.4611 19.462C17.8587 21.0643 17.8587 23.6716 19.4611 25.274C20.2622 26.0752 21.3147 26.4759 22.3671 26.4759ZM20.2065 20.2074C20.8023 19.6116 21.5846 19.3138 22.3671 19.3138C23.1495 19.3138 23.9322 19.6117 24.5277 20.2074C25.7191 21.3987 25.7191 23.3372 24.5277 24.5286C23.3364 25.72 21.3978 25.7199 20.2065 24.5286C19.0151 23.3372 19.0151 21.3987 20.2065 20.2074Z" fill="black"/>
<path d="M17.5831 17.5839C15.6221 19.545 15.0551 22.4616 16.1387 25.0143C16.2524 25.2822 16.5621 25.4071 16.8298 25.2935C17.0978 25.1797 17.2228 24.8703 17.109 24.6023C16.1942 22.4473 16.673 19.985 18.3286 18.3293C20.5556 16.1024 24.1792 16.1025 26.406 18.3293C28.6329 20.5563 28.6329 24.1798 26.406 26.4067C25.3361 27.4765 23.9139 28.0706 22.4011 28.0795C22.3896 28.0796 22.3783 28.0796 22.3667 28.0796C20.868 28.0796 19.4534 27.5043 18.3804 26.4578C18.172 26.2545 17.8383 26.2587 17.6351 26.4671C17.4318 26.6755 17.436 27.0092 17.6444 27.2125C18.9157 28.4524 20.5912 29.1338 22.3665 29.1337C22.3801 29.1337 22.3937 29.1337 22.4073 29.1336C24.1993 29.1231 25.8842 28.4193 27.1515 27.152C29.7894 24.5141 29.7894 20.2218 27.1515 17.5838C24.5133 14.9459 20.2212 14.9459 17.5831 17.5839Z" fill="black"/>
<path d="M34.9906 20.0014H33.1151C32.8365 18.7305 32.341 17.5331 31.6418 16.4411L32.9668 15.1159C33.1576 14.9253 33.2626 14.6718 33.2626 14.4021C33.2626 14.1324 33.1576 13.8789 32.9669 13.6883L31.0476 11.7691C30.8569 11.5784 30.6035 11.4733 30.3338 11.4733C30.0641 11.4733 29.8107 11.5783 29.62 11.769L28.2949 13.0942C27.2029 12.3949 26.0056 11.8995 24.7346 11.6209V9.74531C24.7346 9.18877 24.2818 8.73589 23.7251 8.73589H21.0109C20.6973 8.73589 20.4167 8.87968 20.2314 9.10472H19.887C19.6624 8.122 19.2783 7.19389 18.744 6.34259L19.7578 5.32881C20.1152 4.97129 20.1152 4.38966 19.7578 4.03208L18.2066 2.48087C18.0333 2.3077 17.8031 2.21233 17.5582 2.21233C17.3133 2.21233 17.0829 2.3077 16.9098 2.48094L15.896 3.49465C15.0449 2.96039 14.1167 2.57631 13.1339 2.35169V0.916937C13.1339 0.411346 12.7227 0 12.217 0H10.0233C9.5177 0 9.10636 0.411346 9.10636 0.916937V2.35176C8.12357 2.57638 7.19531 2.96053 6.34423 3.49472L5.33059 2.48101C5.15742 2.30777 4.92718 2.2124 4.68219 2.2124C4.43719 2.2124 4.20689 2.30777 4.03372 2.48101L2.48265 4.03215C2.12521 4.38966 2.12521 4.97129 2.48265 5.32888L3.49643 6.34266C2.96217 7.19374 2.57809 8.122 2.35347 9.10479H0.918646C0.413055 9.10479 0.00170898 9.51613 0.00170898 10.0217V12.2154C0.00170898 12.721 0.413055 13.1324 0.918646 13.1324H2.35347C2.57809 14.1152 2.96217 15.0435 3.49643 15.8945L2.48265 16.9083C2.12514 17.2658 2.12514 17.8475 2.48265 18.205L4.03379 19.7562C4.3913 20.1137 4.97293 20.1138 5.33059 19.7562L6.34437 18.7424C7.19538 19.2767 8.1235 19.6608 9.10643 19.8854V20.2303C8.88048 20.4156 8.73598 20.6966 8.73598 21.011V23.7253C8.73598 24.2819 9.1888 24.7347 9.74541 24.7347H11.621C11.8995 26.0058 12.3951 27.2032 13.0942 28.2951L11.7692 29.6202C11.5784 29.8109 11.4734 30.0644 11.4734 30.3341C11.4734 30.6037 11.5784 30.8572 11.7691 31.0478L13.6884 32.9671C13.8791 33.1578 14.1325 33.2628 14.4022 33.2628C14.6719 33.2628 14.9253 33.1578 15.116 32.9672L16.4411 31.642C17.5331 32.3412 18.7306 32.8368 20.0014 33.1152V34.9908C20.0014 35.5474 20.4543 36.0002 21.0109 36.0002H23.7251C24.2818 36.0002 24.7346 35.5474 24.7346 34.9908V33.115C26.0056 32.8365 27.203 32.341 28.2949 31.6418L29.62 32.9669C29.8107 33.1575 30.0641 33.2626 30.3338 33.2626C30.6035 33.2626 30.8569 33.1576 31.0476 32.9669L32.9668 31.0477C33.1576 30.857 33.2626 30.6035 33.2626 30.3339C33.2626 30.0642 33.1576 29.8107 32.9669 29.6201L31.6418 28.2949C32.3409 27.2031 32.8365 26.0055 33.1151 24.7345H34.9906C35.5472 24.7345 36 24.2817 36 23.7251V21.0108C36.0001 20.4542 35.5472 20.0014 34.9906 20.0014ZM9.43526 18.8784C8.5016 18.6767 7.6229 18.3132 6.82339 17.7977C6.46195 17.5648 5.97997 17.6157 5.67699 17.9188L4.68219 18.9136L3.32509 17.5565L4.31997 16.5616C4.62294 16.2585 4.67382 15.7765 4.44099 15.4152C3.92549 14.6158 3.56186 13.737 3.36016 12.8032C3.26929 12.383 2.89238 12.078 2.46388 12.078H1.0559V10.1589H2.46395C2.89238 10.1589 3.26936 9.8539 3.3603 9.43348C3.56193 8.49989 3.92556 7.62119 4.44106 6.82168C4.67389 6.46052 4.62301 5.9784 4.32004 5.67535L3.32516 4.68048L4.68226 3.32338L5.67706 4.31826C5.98004 4.6213 6.46195 4.67218 6.82354 4.43928C7.62304 3.92378 8.50174 3.56015 9.43526 3.35852C9.85554 3.26772 10.1606 2.89074 10.1606 2.46217V1.05419H12.0798V2.46224C12.0798 2.89081 12.3849 3.26779 12.8052 3.35859C13.7387 3.56022 14.6174 3.92385 15.417 4.43928C15.7782 4.67211 16.2603 4.62137 16.5634 4.31826L17.5582 3.32338L18.9153 4.68048L17.9205 5.67528C17.6174 5.97833 17.5665 6.46045 17.7994 6.82168C18.315 7.62133 18.6786 8.5001 18.8802 9.43348C18.971 9.85383 19.3479 10.1589 19.7766 10.1589H20.0015V11.6209C18.7306 11.8994 17.5332 12.3949 16.4412 13.0942L15.116 11.769C15.1003 11.7533 15.0836 11.7391 15.067 11.7245C15.2519 10.5103 14.8783 9.22672 13.9452 8.29362C12.8414 7.18967 11.1828 6.82956 9.7199 7.37605C9.44721 7.47796 9.30869 7.78163 9.41067 8.05432C9.5125 8.327 9.81618 8.46545 10.0889 8.36362C11.1658 7.96113 12.3871 8.22622 13.1999 9.03901C13.8819 9.72107 14.1567 10.6573 14.0273 11.5456C13.902 11.5957 13.7868 11.6708 13.6885 11.769L11.7692 13.6883C11.6707 13.7867 11.5956 13.9022 11.5455 14.0277C11.4058 14.048 11.264 14.0594 11.1203 14.0594C10.3347 14.0594 9.59621 13.7535 9.04079 13.1981C8.11253 12.2698 7.91245 10.8232 8.55417 9.68009C8.69663 9.42624 8.60639 9.10493 8.35254 8.96247C8.09883 8.82001 7.77744 8.91025 7.63491 9.1641C6.76295 10.7174 7.03451 12.6828 8.29526 13.9435C9.0741 14.7224 10.0972 15.1118 11.1202 15.1118C11.3219 15.1118 11.5234 15.0958 11.7232 15.0654C11.7382 15.0825 11.7529 15.0998 11.7691 15.1159L13.0942 16.4411C12.3951 17.533 11.8995 18.7306 11.621 20.0015H10.1606V19.7748C10.1606 19.3463 9.85561 18.9693 9.43526 18.8784ZM34.9459 23.6803H33.0786C32.6069 23.6803 32.1919 24.0163 32.0918 24.4792C31.8391 25.6491 31.3835 26.7503 30.7376 27.7521C30.481 28.1499 30.537 28.6808 30.8705 29.0144L32.1899 30.3338L30.3339 32.1898L29.0145 30.8703C28.681 30.5368 28.1501 30.4808 27.7524 30.7373C26.7504 31.3833 25.6492 31.8389 24.4793 32.0916C24.0164 32.1916 23.6805 32.6066 23.6805 33.0784V34.9457H21.0557V33.0784C21.0557 32.6067 20.7198 32.1917 20.2568 32.0916C19.087 31.839 17.9859 31.3833 16.9839 30.7373C16.5862 30.4809 16.0553 30.5367 15.7216 30.8703L14.4023 32.1897L12.5463 30.3337L13.8656 29.0143C14.1993 28.6807 14.2552 28.1498 13.9987 27.7521C13.3528 26.7502 12.8971 25.649 12.6444 24.4791C12.5443 24.0162 12.1294 23.6802 11.6576 23.6802H9.79032V21.0554H11.6576C12.1294 21.0554 12.5443 20.7195 12.6444 20.2565C12.8971 19.0867 13.3527 17.9855 13.9987 16.9836C14.2552 16.5858 14.1993 16.0549 13.8657 15.7214L12.5463 14.402L14.4023 12.546L15.7216 13.8654C16.0552 14.1989 16.586 14.2549 16.9839 13.9985C17.9859 13.3525 19.0871 12.8968 20.2568 12.6441C20.7198 12.5441 21.0557 12.1291 21.0557 11.6573V9.79001H23.6805V11.6573C23.6805 12.1291 24.0164 12.5441 24.4793 12.6441C25.6492 12.8967 26.7503 13.3524 27.7524 13.9984C28.1501 14.2548 28.6809 14.199 29.0146 13.8653L30.3339 12.5459L32.1899 14.4019L30.8705 15.7215C30.5368 16.0552 30.4809 16.586 30.7374 16.9837C31.3834 17.9856 31.8391 19.0868 32.0918 20.2567C32.1919 20.7196 32.6068 21.0556 33.0786 21.0556H34.9458V23.6803H34.9459Z" fill="black"/>
</g>
<defs>
<clipPath id="clip0">
<rect width="36" height="36" fill="white"/>
</clipPath>
</defs>
</svg>
