<svg width="18" height="18" viewBox="0 0 18 18" fill="none" xmlns="http://www.w3.org/2000/svg">
<path d="M6.96932 15.6052C7.06561 15.7607 7.23506 15.8555 7.41787 15.8555H7.94522V17.4727C7.94522 17.7641 8.18108 18 8.47256 18H9.52725C9.81873 18 10.0546 17.7641 10.0546 17.4727V15.8555H10.5819C10.7647 15.8555 10.9342 15.7607 11.0305 15.6052C11.1268 15.4497 11.1355 15.2555 11.0537 15.0923L9.47163 11.9282C9.2924 11.5708 8.70741 11.5708 8.52818 11.9282L6.94615 15.0923C6.86427 15.2555 6.87302 15.4497 6.96932 15.6052V15.6052Z" fill="white"/>
<path d="M14.8008 5.30859H9.52734V10.582H14.8008V5.30859ZM13.2826 8.31814C13.4886 8.52412 13.4886 8.85786 13.2826 9.06384C13.0766 9.26982 12.7429 9.26982 12.5369 9.06384L12.1641 8.69101L11.7912 9.06384C11.5852 9.26982 11.2515 9.26982 11.0455 9.06384C10.8396 8.85786 10.8396 8.52412 11.0455 8.31814L11.4184 7.94531L11.0455 7.57248C10.8396 7.3665 10.8396 7.03276 11.0455 6.82678C11.2515 6.6208 11.5852 6.6208 11.7912 6.82678L12.1641 7.19961L12.5369 6.82678C12.7429 6.6208 13.0766 6.6208 13.2826 6.82678C13.4886 7.03276 13.4886 7.3665 13.2826 7.57248L12.9098 7.94531L13.2826 8.31814Z" fill="white"/>
<path d="M4.25391 0H0.527344C0.235863 0 0 0.235863 0 0.527344V2.14453H4.25391V0Z" fill="white"/>
<path d="M17.4727 0H5.30859V2.14453H18V0.527344C18 0.235863 17.7641 0 17.4727 0Z" fill="white"/>
<path d="M3.19922 10.582H8.47266V5.30859H3.19922V10.582ZM4.14475 7.57248C4.35073 7.3665 4.68446 7.3665 4.89045 7.57248L5.30859 7.99063L6.51779 6.78143C6.72377 6.57545 7.05751 6.57545 7.26349 6.78143C7.46947 6.98741 7.46947 7.32115 7.26349 7.52713L5.68146 9.10916C5.57845 9.21217 5.44352 9.26367 5.30863 9.26367C5.17373 9.26367 5.03877 9.21217 4.9358 9.10916L4.14478 8.31814C3.93873 8.11216 3.93873 7.77846 4.14475 7.57248V7.57248Z" fill="white"/>
<path d="M0 13.2188C0 13.5102 0.235863 13.7461 0.527344 13.7461H6.44003L7.49471 11.6367H2.67188C2.38039 11.6367 2.14453 11.4009 2.14453 11.1094V4.78125C2.14453 4.48977 2.38039 4.25391 2.67188 4.25391H15.3281C15.6196 4.25391 15.8555 4.48977 15.8555 4.78125V11.1094C15.8555 11.4009 15.6196 11.6367 15.3281 11.6367H10.5053L11.56 13.7461H17.4727C17.7641 13.7461 18 13.5102 18 13.2188V3.19922H0V13.2188Z" fill="white"/>
</svg>
