<svg width="29" height="30" viewBox="0 0 29 30" fill="none" xmlns="http://www.w3.org/2000/svg">
<path d="M28.5703 12.3902L26.2165 11.8038C25.9257 10.6167 25.4583 9.48872 24.8234 8.44201L26.0729 6.36332C26.207 6.14044 26.1719 5.85492 25.988 5.67101L23.5162 3.19917C23.3323 3.01526 23.0467 2.98026 22.8238 3.11421L20.7451 4.36375C19.6984 3.72887 18.5706 3.26148 17.3833 2.97063L16.797 0.617002C16.7342 0.364614 16.5075 0.1875 16.2475 0.1875H12.7524C12.4923 0.1875 12.2657 0.364614 12.2027 0.617002L11.6164 2.97074C10.4293 3.26159 9.30122 3.7291 8.25457 4.36392L6.17588 3.11432C5.95294 2.98031 5.66742 3.01532 5.48356 3.19928L3.01173 5.67106C2.82782 5.85497 2.79281 6.1405 2.92677 6.36337L4.17631 8.44207C3.54143 9.48878 3.07403 10.6167 2.78319 11.8039L0.429502 12.3902C0.177114 12.4531 0 12.6798 0 12.9398V16.4349C0 16.695 0.177114 16.9216 0.429502 16.9845L2.78324 17.5709C3.07409 18.7581 3.54148 19.886 4.17642 20.9327L2.92682 23.0114C2.79281 23.2343 2.82787 23.5198 3.01178 23.7037L5.48362 26.1755C5.66747 26.3594 5.95305 26.3945 6.17593 26.2605L8.25463 25.0109C9.30139 25.6458 10.4293 26.1132 11.6164 26.4041L12.2028 28.7578C12.2657 29.0102 12.4923 29.1873 12.7524 29.1873H16.2475C16.5076 29.1873 16.7342 29.0102 16.7972 28.7578L17.3835 26.4041C18.5707 26.1132 19.6986 25.6458 20.7454 25.0109L22.8241 26.2605C23.0469 26.3945 23.3325 26.3594 23.5164 26.1755L25.9882 23.7037C26.1721 23.5198 26.2071 23.2343 26.0732 23.0114L24.8236 20.9327C25.4585 19.886 25.9259 18.7581 26.2168 17.5709L28.5705 16.9845C28.8229 16.9217 29 16.695 29 16.4349V12.9398C28.9998 12.6798 28.8227 12.4531 28.5703 12.3902ZM27.867 15.9923L25.6054 16.5557C25.3955 16.608 25.2337 16.7753 25.1885 16.9867C24.9111 18.2823 24.4047 19.5043 23.6834 20.6188C23.5658 20.8004 23.562 21.033 23.6734 21.2183L24.874 23.2156L23.0281 25.0615L21.0308 23.8609C20.8455 23.7494 20.6128 23.7533 20.4313 23.8709C19.3167 24.5923 18.0947 25.0986 16.7993 25.3759C16.5878 25.4212 16.4205 25.583 16.3682 25.7929L15.8048 28.0545H13.195L12.6316 25.7929C12.5793 25.583 12.412 25.4212 12.2005 25.3759C10.905 25.0986 9.68303 24.5923 8.56847 23.8709C8.38682 23.7533 8.1542 23.7495 7.96893 23.8609L5.97163 25.0615L4.12573 23.2157L5.32639 21.2184C5.4378 21.0331 5.43395 20.8004 5.31642 20.6189C4.59499 19.5043 4.08857 18.2823 3.81126 16.9868C3.76601 16.7753 3.60424 16.6081 3.39433 16.5558L1.1328 15.9923V13.3825L3.39439 12.8191C3.6043 12.7668 3.76606 12.5995 3.81132 12.388C4.08863 11.0924 4.59505 9.87048 5.31642 8.75597C5.43395 8.57438 5.4378 8.34176 5.32639 8.15643L4.12573 6.15907L5.97157 4.31323L7.96888 5.51383C8.15426 5.6253 8.38688 5.62139 8.56847 5.50386C9.68292 4.78249 10.9049 4.27607 12.2005 3.99876C12.412 3.95351 12.5793 3.79174 12.6316 3.58183L13.195 1.3203H15.8048L16.3682 3.58189C16.4205 3.7918 16.5878 3.95356 16.7993 3.99882C18.0948 4.27613 19.3168 4.78255 20.4313 5.50392C20.6128 5.62144 20.8455 5.6253 21.0308 5.51389L23.0281 4.31328L24.874 6.15913L23.6734 8.15643C23.562 8.34176 23.5658 8.57444 23.6834 8.75597C24.4047 9.87048 24.9111 11.0924 25.1885 12.388C25.2337 12.5995 25.3955 12.7668 25.6054 12.8191L27.867 13.3825V15.9923Z" fill="black"/>
<path d="M14.4999 6.18945C13.179 6.18945 11.9129 6.48444 10.737 7.06624C10.4566 7.20496 10.3418 7.54468 10.4805 7.82505C10.6192 8.10542 10.9589 8.22034 11.2393 8.08152C12.2577 7.5777 13.3548 7.32226 14.4999 7.32226C18.56 7.32226 21.8632 10.6254 21.8632 14.6855C21.8632 18.7456 18.56 22.0487 14.4999 22.0487C10.4399 22.0487 7.13671 18.7456 7.13671 14.6855C7.13671 13.3656 7.4898 12.0711 8.15793 10.9419C8.31726 10.6727 8.22811 10.3253 7.9589 10.166C7.68974 10.0068 7.34231 10.0958 7.18298 10.365C6.4116 11.6688 6.00391 13.1627 6.00391 14.6855C6.00391 19.3702 9.81522 23.1815 14.4999 23.1815C19.1846 23.1815 22.996 19.3702 22.996 14.6855C22.996 10.0008 19.1846 6.18945 14.4999 6.18945Z" fill="black"/>
<path d="M14.5 10.6074C12.2513 10.6074 10.4219 12.4368 10.4219 14.6855C10.4219 16.9342 12.2513 18.7636 14.5 18.7636C16.7486 18.7636 18.5781 16.9342 18.5781 14.6855C18.5781 12.4368 16.7486 10.6074 14.5 10.6074ZM14.5 17.6308C12.8759 17.6308 11.5547 16.3096 11.5547 14.6855C11.5547 13.0615 12.8759 11.7402 14.5 11.7402C16.124 11.7402 17.4453 13.0615 17.4453 14.6855C17.4453 16.3095 16.124 17.6308 14.5 17.6308Z" fill="#6946C6"/>
</svg>
