<svg width="32" height="32" viewBox="0 0 32 32" fill="none" xmlns="http://www.w3.org/2000/svg">
<path d="M13.2002 5.19922H18.8002V6.39922H13.2002V5.19922Z" fill="white"/>
<path d="M13.2002 7.59961H18.8002V8.39961H13.2002V7.59961Z" fill="white"/>
<path d="M29.1998 27.7333V23.4667C29.1998 23.2299 29.0451 23.0213 28.8196 22.9547L16.5278 19.3333V12.8H20.2238C20.5158 12.8 20.7518 12.5611 20.7518 12.2667V3.73333C20.7518 3.592 20.6964 3.456 20.5971 3.35627L17.4291 0.156267C17.3304 0.056 17.1963 0 17.0558 0H11.7758C11.4838 0 11.2478 0.238933 11.2478 0.533333V12.2667C11.2478 12.5611 11.4838 12.8 11.7758 12.8H15.4718V19.3333L3.17996 22.9547C2.95451 23.0213 2.7998 23.2299 2.7998 23.4667V27.7333C2.7998 27.9701 2.95451 28.1787 3.17996 28.2453L15.852 31.9787C15.9005 31.9931 15.9496 32 15.9998 32C16.05 32 16.0991 31.9931 16.1476 31.9787L28.8196 28.2453C29.0451 28.1787 29.1998 27.9701 29.1998 27.7333ZM17.5838 1.8208L18.9492 3.2H17.5838V1.8208ZM12.3038 1.06667H16.5278V3.73333C16.5278 4.02773 16.7638 4.26667 17.0558 4.26667H19.6958V11.7333H12.3038V1.06667ZM15.4718 20.4443V23.2459L14.2611 22.0229L13.5145 22.7771L15.6265 24.9104C15.7295 25.0144 15.8646 25.0667 15.9998 25.0667C16.135 25.0667 16.2701 25.0144 16.3731 24.9104L18.4851 22.7771L17.7385 22.0229L16.5278 23.2459V20.4443L26.7863 23.4667L15.9998 26.6443L5.21329 23.4667L15.4718 20.4443ZM3.8558 24.1776L15.4718 27.6V30.7557L3.8558 27.3333V24.1776ZM16.5278 30.7557V27.6L28.1438 24.1776V27.3333L16.5278 30.7557Z" fill="white"/>
<path d="M13.2002 3.19922H15.6002V4.39922H13.2002V3.19922Z" fill="white"/>
<path d="M0.534262 12.7135H4.27409C4.27409 14.174 5.47244 15.3622 6.9454 15.3622H8.54819C9.43185 15.3622 10.151 16.0752 10.151 16.9513V17.7915L8.92591 16.5768L8.17046 17.3259L10.3075 19.4448C10.4117 19.5481 10.5485 19.6 10.6852 19.6C10.822 19.6 10.9588 19.5481 11.063 19.4448L13.2 17.3259L12.4446 16.5768L11.2195 17.7915V16.9513C11.2195 15.4909 10.0211 14.3027 8.54819 14.3027H6.9454C6.06173 14.3027 5.34262 13.5897 5.34262 12.7135H9.08245C9.37789 12.7135 9.61671 12.4762 9.61671 12.1838V3.70811C9.61671 3.56773 9.56061 3.43265 9.46017 3.33359L6.2546 0.155211C6.15469 0.0556216 6.01899 0 5.87688 0H0.534262C0.238815 0 0 0.237319 0 0.52973V12.1838C0 12.4762 0.238815 12.7135 0.534262 12.7135ZM6.41114 1.8085L7.79274 3.17838H6.41114V1.8085ZM1.06852 1.05946H5.34262V3.70811C5.34262 4.00052 5.58143 4.23784 5.87688 4.23784H8.54819V11.6541H1.06852V1.05946Z" fill="white"/>
<path d="M2 5.19922H7.6V6.39922H2V5.19922Z" fill="white"/>
<path d="M2 7.59961H7.6V8.39961H2V7.59961Z" fill="white"/>
<path d="M2 9.59961H7.6V10.7996H2V9.59961Z" fill="white"/>
<path d="M2 3.19922H4.4V4.39922H2V3.19922Z" fill="white"/>
<path d="M31.9998 12.1838V3.70811C31.9998 3.56773 31.9437 3.43265 31.8433 3.33359L28.6377 0.155211C28.5378 0.0556216 28.4021 0 28.26 0H22.9174C22.6219 0 22.3831 0.237319 22.3831 0.52973V12.1838C22.3831 12.4762 22.6219 12.7135 22.9174 12.7135H26.6572C26.6572 13.5897 25.9381 14.3027 25.0544 14.3027H23.4516C21.9787 14.3027 20.7803 15.4909 20.7803 16.9513V17.7915L19.5553 16.5768L18.7998 17.3259L20.9369 19.4448C21.041 19.5481 21.1778 19.6 21.3146 19.6C21.4513 19.6 21.5881 19.5481 21.6923 19.4448L23.8293 17.3259L23.0739 16.5768L21.8488 17.7915V16.9513C21.8488 16.0752 22.568 15.3622 23.4516 15.3622H25.0544C26.5274 15.3622 27.7257 14.174 27.7257 12.7135H31.4655C31.761 12.7135 31.9998 12.4762 31.9998 12.1838ZM28.7942 1.8085L30.1758 3.17838H28.7942V1.8085ZM23.4516 11.6541V1.05946H27.7257V3.70811C27.7257 4.00052 27.9645 4.23784 28.26 4.23784H30.9313V11.6541H23.4516Z" fill="white"/>
<path d="M24.3999 5.19922H29.9999V6.39922H24.3999V5.19922Z" fill="white"/>
<path d="M24.3999 7.59961H29.9999V8.39961H24.3999V7.59961Z" fill="white"/>
<path d="M24.3999 9.59961H29.9999V10.7996H24.3999V9.59961Z" fill="white"/>
<path d="M24.3999 3.19922H26.7999V4.39922H24.3999V3.19922Z" fill="white"/>
<path d="M13.2002 9.59961H14.4002V10.7996H13.2002V9.59961Z" fill="white"/>
<path d="M15.6001 9.59961H16.4001V10.7996H15.6001V9.59961Z" fill="white"/>
<path d="M17.6001 9.59961H18.8001V10.7996H17.6001V9.59961Z" fill="white"/>
</svg>
