<svg width="4" height="12" viewBox="0 0 4 12" fill="none" xmlns="http://www.w3.org/2000/svg">
<path d="M1.91675 2.5C2.6071 2.5 3.16675 1.94036 3.16675 1.25C3.16675 0.559644 2.6071 0 1.91675 0C1.22639 0 0.666748 0.559644 0.666748 1.25C0.666748 1.94036 1.22639 2.5 1.91675 2.5Z" fill="white" fill-opacity="0.7"/>
<path d="M1.91675 6.875C2.6071 6.875 3.16675 6.31536 3.16675 5.625C3.16675 4.93464 2.6071 4.375 1.91675 4.375C1.22639 4.375 0.666748 4.93464 0.666748 5.625C0.666748 6.31536 1.22639 6.875 1.91675 6.875Z" fill="white" fill-opacity="0.7"/>
<path d="M1.91675 11.2499C2.6071 11.2499 3.16675 10.6902 3.16675 9.99988C3.16675 9.30952 2.6071 8.74988 1.91675 8.74988C1.22639 8.74988 0.666748 9.30952 0.666748 9.99988C0.666748 10.6902 1.22639 11.2499 1.91675 11.2499Z" fill="white" fill-opacity="0.7"/>
</svg>
