<svg width="18" height="18" viewBox="0 0 18 18" fill="none" xmlns="http://www.w3.org/2000/svg">
<path d="M9.78792 8.49993C9.9922 8.39546 10.2198 8.34023 10.4559 8.34023C10.8471 8.34023 11.215 8.49213 11.4923 8.76797L12.0892 8.17109C13.5665 8.68891 15.275 8.35741 16.4559 7.17654C17.4496 6.18289 17.8414 4.81577 17.6323 3.5271C17.6092 3.38518 17.5087 3.26813 17.372 3.22397C17.2352 3.17975 17.085 3.21568 16.9834 3.31737L16.0971 4.2037C15.3753 4.9255 14.2049 4.9255 13.4832 4.2037C12.7613 3.48191 12.7613 2.31157 13.4832 1.58977L14.3695 0.703438C14.4712 0.60175 14.5074 0.451608 14.4631 0.314775C14.4189 0.17788 14.3017 0.0776447 14.1597 0.0545971C12.8711 -0.154585 11.5039 0.237284 10.5103 1.23093C9.31185 2.4294 8.9893 4.1711 9.54051 5.66314L8.24585 6.9578L9.78792 8.49993Z" fill="white"/>
<path d="M7.42885 10.8459L5.89325 9.3103L0.523652 14.6798C-0.174551 15.378 -0.174551 16.51 0.523652 17.2082C1.22185 17.9064 2.35385 17.9064 3.05205 17.2082L7.68098 12.5794C7.2141 12.11 7.12996 11.4014 7.42885 10.8459Z" fill="white"/>
<path d="M10.8536 9.41223C10.7438 9.30244 10.5998 9.24751 10.4559 9.24751C10.312 9.24751 10.168 9.30244 10.0582 9.41223L9.73765 9.73278L4.02766 4.02279L4.29455 3.7559C4.53773 3.51278 4.50755 3.10948 4.23037 2.90538L1.90069 1.18963C1.67681 1.02479 1.36612 1.0482 1.16952 1.2448L0.180349 2.23403C-0.0162508 2.43063 -0.0396613 2.74138 0.12518 2.9652L1.84086 5.29488C2.04496 5.572 2.44803 5.60249 2.69139 5.35907L2.95828 5.09211L8.66827 10.8021L8.32516 11.1452C8.10551 11.3649 8.10551 11.7209 8.32516 11.9406L13.5928 17.2082C14.291 17.9064 15.423 17.9064 16.1212 17.2082C16.8194 16.51 16.8194 15.378 16.1212 14.6798L10.8536 9.41223Z" fill="white"/>
</svg>
