<svg width="64" height="64" viewBox="0 0 64 64" fill="none" xmlns="http://www.w3.org/2000/svg">
<circle cx="32" cy="32" r="32" fill="black"/>
<path d="M30.2031 45.7812C30.0183 45.7812 29.8367 45.8565 29.706 45.9872C29.5753 46.118 29.5 46.2995 29.5 46.4844C29.5 46.6692 29.5753 46.8508 29.706 46.9815C29.8367 47.1122 30.0183 47.1875 30.2031 47.1875C30.388 47.1875 30.5695 47.1122 30.7003 46.9815C30.831 46.8508 30.9062 46.6692 30.9062 46.4844C30.9062 46.2995 30.831 46.118 30.7003 45.9872C30.5695 45.8565 30.388 45.7812 30.2031 45.7812Z" fill="white"/>
<path d="M51.2494 23.585C50.2502 22.5858 48.6245 22.5858 47.6252 23.585L44.4062 26.804V16.3906C44.4062 15.0725 43.3337 14 42.0156 14H18.3906C17.0725 14 16 15.0725 16 16.3906V47.6094C16 48.9275 17.0725 50 18.3906 50H42.0156C43.3337 50 44.4062 48.9275 44.4062 47.6094V34.0525L51.2494 27.2091C52.2486 26.2099 52.2486 24.5842 51.2494 23.585ZM43 16.3906V28.2103L41.5938 29.6165V17.5156C41.5938 17.1273 41.279 16.8125 40.8906 16.8125H36.1915V15.4062H42.0156C42.5583 15.4062 43 15.8479 43 16.3906ZM39.1608 35.6736L40.11 33.5411L41.2933 34.7243L39.1608 35.6736ZM34.7852 15.4062V18.2715C34.7852 18.7076 34.4304 19.0625 33.9942 19.0625H26.412C25.9759 19.0625 25.621 18.7076 25.621 18.2715V15.4062H34.7852ZM42.0156 48.5938H18.3906C17.8479 48.5938 17.4062 48.1521 17.4062 47.6094V16.3906C17.4062 15.8479 17.8479 15.4062 18.3906 15.4062H24.2148V16.8125H19.5156C19.1273 16.8125 18.8125 17.1273 18.8125 17.5156V46.4844C18.8125 46.8727 19.1273 47.1875 19.5156 47.1875H27.3906C27.779 47.1875 28.0938 46.8727 28.0938 46.4844C28.0938 46.096 27.779 45.7812 27.3906 45.7812H20.2188V18.2188H24.2148V18.2715C24.2148 19.483 25.2005 20.4688 26.412 20.4688H33.9942C35.2057 20.4688 36.1915 19.483 36.1915 18.2715V18.2188H40.1875V31.0228L39.3866 31.8234C39.3259 31.8844 39.2767 31.9561 39.2416 32.0346L37.1311 36.7749C37.0127 37.0411 37.0704 37.3523 37.2761 37.5583C37.411 37.6928 37.5909 37.7643 37.7735 37.7643C37.8702 37.7643 37.9674 37.7445 38.0594 37.7036L40.1875 36.756V45.7812H33.0156C32.6273 45.7812 32.3125 46.096 32.3125 46.4844C32.3125 46.8727 32.6273 47.1875 33.0156 47.1875H40.8906C41.2787 47.1875 41.5938 46.8727 41.5938 46.4844V36.1298L42.7998 35.5928C42.8739 35.5598 42.9412 35.514 43 35.4577V47.6094C43 48.1521 42.5583 48.5938 42.0156 48.5938ZM47.6343 28.8354L42.5139 33.9561L40.8783 32.3205L47.2182 25.9806L48.8538 27.6162L47.6343 28.8354ZM50.2551 26.2149L49.8481 26.6216L48.2127 24.9863L48.6195 24.5796C49.0705 24.1286 49.8041 24.1286 50.2551 24.5796C50.7058 25.0303 50.7058 25.7639 50.2551 26.2149Z" fill="white"/>
<path d="M27.3906 22.4375H22.8906C22.5023 22.4375 22.1875 22.7523 22.1875 23.1406V27.6406C22.1875 28.029 22.5023 28.3438 22.8906 28.3438H27.3906C27.779 28.3438 28.0938 28.029 28.0938 27.6406V23.1406C28.0938 22.7523 27.779 22.4375 27.3906 22.4375ZM26.6875 26.9375H23.5938V23.8438H26.6875V26.9375Z" fill="white"/>
<path d="M27.3906 30.1719H22.8906C22.5023 30.1719 22.1875 30.4866 22.1875 30.875V35.375C22.1875 35.7634 22.5023 36.0781 22.8906 36.0781H27.3906C27.779 36.0781 28.0938 35.7634 28.0938 35.375V30.875C28.0938 30.4866 27.779 30.1719 27.3906 30.1719ZM26.6875 34.6719H23.5938V31.5781H26.6875V34.6719Z" fill="white"/>
<path d="M27.3906 37.9062H22.8906C22.5023 37.9062 22.1875 38.221 22.1875 38.6094V43.1094C22.1875 43.4977 22.5023 43.8125 22.8906 43.8125H27.3906C27.779 43.8125 28.0938 43.4977 28.0938 43.1094V38.6094C28.0938 38.221 27.779 37.9062 27.3906 37.9062ZM26.6875 42.4062H23.5938V39.3125H26.6875V42.4062Z" fill="white"/>
<path d="M32.4236 27.4744C32.5609 27.6117 32.7408 27.6804 32.9207 27.6804C33.1006 27.6804 33.2805 27.6117 33.4178 27.4744L36.5923 24.2999C36.8667 24.0255 36.8667 23.5803 36.5923 23.3056C36.3177 23.0309 35.8724 23.0309 35.5978 23.3056L32.9207 25.9827L31.8536 24.9156C31.579 24.641 31.134 24.641 30.8591 24.9156C30.5847 25.1903 30.5847 25.6355 30.8591 25.9099L32.4236 27.4744Z" fill="white"/>
<path d="M32.4236 35.2085C32.5554 35.3404 32.7342 35.4145 32.9207 35.4145C33.1072 35.4145 33.286 35.3404 33.4178 35.2085L36.5923 32.0343C36.8667 31.7597 36.8667 31.3144 36.5923 31.0398C36.3177 30.7654 35.8724 30.7654 35.5978 31.0398L32.9207 33.7171L31.8536 32.6501C31.579 32.3754 31.134 32.3754 30.8591 32.6501C30.5847 32.9245 30.5847 33.3697 30.8591 33.6444L32.4236 35.2085Z" fill="white"/>
<path d="M33.7257 41.8533L34.8158 42.9431C34.9532 43.0804 35.1331 43.1491 35.313 43.1491C35.4929 43.1491 35.6728 43.0804 35.8101 42.9431C36.0848 42.6685 36.0848 42.2232 35.8101 41.9489L34.7203 40.8587L35.8101 39.7686C36.0848 39.4942 36.0848 39.049 35.8101 38.7744C35.5354 38.4997 35.0905 38.4997 34.8158 38.7744L33.7257 39.8642L32.6359 38.7744C32.3612 38.5 31.9163 38.4997 31.6413 38.7744C31.367 39.049 31.367 39.4942 31.6413 39.7686L32.7315 40.8587L31.6413 41.9489C31.367 42.2232 31.367 42.6685 31.6413 42.9431C31.7787 43.0804 31.9588 43.1491 32.1387 43.1491C32.3186 43.1491 32.4985 43.0804 32.6359 42.9431L33.7257 41.8533Z" fill="white"/>
</svg>
