<svg width="45" height="47" viewBox="0 0 45 47" fill="none" xmlns="http://www.w3.org/2000/svg">
<path d="M44.3332 20.1482L40.6808 19.2382C40.2295 17.3961 39.5042 15.6458 38.5191 14.0216L40.458 10.7961C40.666 10.4502 40.6116 10.0072 40.3262 9.72178L36.4906 5.88617C36.2053 5.6008 35.7621 5.54648 35.4163 5.75434L32.1907 7.69328C30.5665 6.70812 28.8164 5.98285 26.9741 5.53154L26.0644 1.87936C25.9668 1.48772 25.6151 1.21289 25.2116 1.21289H19.7882C19.3846 1.21289 19.0329 1.48772 18.9353 1.87936L18.0254 5.53171C16.1833 5.98303 14.4329 6.70847 12.8088 7.69354L9.58325 5.75451C9.23732 5.54657 8.79427 5.60088 8.50898 5.88635L4.67337 9.72187C4.38799 10.0072 4.33368 10.4503 4.54154 10.7961L6.48048 14.0217C5.49532 15.6459 4.77005 17.3961 4.31874 19.2383L0.666469 20.1482C0.274832 20.2457 0 20.5975 0 21.001V26.4244C0 26.828 0.274832 27.1796 0.666469 27.2773L4.31882 28.1871C4.77014 30.0293 5.49541 31.7795 6.48065 33.4037L4.54162 36.6293C4.33368 36.9752 4.38808 37.4183 4.67346 37.7036L8.50906 41.5392C8.79435 41.8245 9.2375 41.8789 9.58334 41.671L12.8089 39.732C14.4332 40.7171 16.1833 41.4424 18.0255 41.8938L18.9354 45.5462C19.0329 45.9378 19.3847 46.2126 19.7882 46.2126H25.2117C25.6153 46.2126 25.9669 45.9378 26.0646 45.5462L26.9745 41.8938C28.8166 41.4425 30.5668 40.7172 32.1911 39.732L35.4167 41.671C35.7625 41.8789 36.2056 41.8245 36.4909 41.5392L40.3265 37.7036C40.6119 37.4182 40.6662 36.9751 40.4584 36.6293L38.5194 33.4037C39.5046 31.7795 40.2299 30.0293 40.6812 28.1871L44.3335 27.2773C44.7252 27.1797 45 26.828 45 26.4244V21.001C44.9996 20.5975 44.7248 20.2457 44.3332 20.1482ZM43.2418 25.7376L39.7325 26.6118C39.4068 26.693 39.1558 26.9525 39.0855 27.2807C38.6552 29.2911 37.8694 31.1872 36.75 32.9166C36.5677 33.1984 36.5617 33.5594 36.7346 33.8469L38.5976 36.9462L35.7333 39.8105L32.6341 37.9475C32.3464 37.7745 31.9854 37.7805 31.7037 37.9629C29.9742 39.0824 28.078 39.8681 26.0678 40.2984C25.7396 40.3686 25.4801 40.6197 25.399 40.9454L24.5247 44.4547H20.4749L19.6007 40.9454C19.5196 40.6197 19.26 40.3686 18.9318 40.2984C16.9215 39.8681 15.0254 39.0824 13.2959 37.9629C13.014 37.7805 12.6531 37.7746 12.3656 37.9475L9.26632 39.8105L6.40199 36.9463L8.26508 33.847C8.43796 33.5595 8.43198 33.1984 8.24961 32.9167C7.13016 31.1872 6.34434 29.2911 5.91403 27.2808C5.8438 26.9526 5.59279 26.6931 5.26707 26.6119L1.7578 25.7376V21.6878L5.26716 20.8136C5.59288 20.7325 5.84389 20.4729 5.91411 20.1447C6.34442 18.1343 7.13025 16.2382 8.24961 14.5088C8.43198 14.227 8.43796 13.8661 8.26508 13.5785L6.40199 10.4791L9.26624 7.61488L12.3655 9.47788C12.6532 9.65085 13.0141 9.64479 13.2959 9.46241C15.0252 8.34305 16.9214 7.55722 18.9318 7.12692C19.26 7.05669 19.5196 6.80568 19.6007 6.47996L20.4749 2.97069H24.5247L25.399 6.48005C25.4801 6.80577 25.7396 7.05678 26.0678 7.127C28.0782 7.55731 29.9743 8.34314 31.7037 9.4625C31.9854 9.64487 32.3465 9.65085 32.6341 9.47797L35.7333 7.61497L38.5976 10.4792L36.7346 13.5785C36.5617 13.8661 36.5677 14.2271 36.75 14.5088C37.8694 16.2382 38.6552 18.1343 39.0855 20.1447C39.1558 20.4729 39.4068 20.7325 39.7325 20.8136L43.2418 21.6878V25.7376Z" fill="black"/>
<path d="M22.4999 10.5273C20.4501 10.5273 18.4856 10.9851 16.6608 11.8879C16.2258 12.1031 16.0475 12.6303 16.2629 13.0653C16.4781 13.5004 17.0052 13.6787 17.4403 13.4633C19.0206 12.6815 20.7229 12.2851 22.4999 12.2851C28.8 12.2851 33.9256 17.4107 33.9256 23.7108C33.9256 30.011 28.8 35.1365 22.4999 35.1365C16.1998 35.1365 11.0742 30.011 11.0742 23.7108C11.0742 21.6627 11.6221 19.654 12.6589 17.9018C12.9061 17.4841 12.7678 16.9451 12.35 16.6978C11.9324 16.4508 11.3932 16.5889 11.146 17.0067C9.94904 19.0297 9.31641 21.3479 9.31641 23.7108C9.31641 30.9802 15.2305 36.8943 22.4999 36.8943C29.7693 36.8943 35.6834 30.9802 35.6834 23.7108C35.6834 16.4415 29.7693 10.5273 22.4999 10.5273Z" fill="black"/>
<path d="M22.4999 17.3828C19.0106 17.3828 16.1719 20.2216 16.1719 23.7109C16.1719 27.2002 19.0106 30.039 22.4999 30.039C25.9893 30.039 28.828 27.2002 28.828 23.7109C28.828 20.2216 25.9893 17.3828 22.4999 17.3828ZM22.4999 28.2812C19.9799 28.2812 17.9297 26.231 17.9297 23.7109C17.9297 21.1908 19.9799 19.1406 22.4999 19.1406C25.02 19.1406 27.0702 21.1908 27.0702 23.7109C27.0702 26.2309 25.02 28.2812 22.4999 28.2812Z" fill="#6946C6"/>
<path d="M14.7366 1.23017C14.5731 1.0667 14.3464 0.972656 14.1152 0.972656C13.8841 0.972656 13.6573 1.0667 13.4938 1.23017C13.3304 1.39365 13.2363 1.62041 13.2363 1.85156C13.2363 2.08271 13.3304 2.30946 13.4938 2.47294C13.6573 2.63641 13.8841 2.73046 14.1152 2.73046C14.3464 2.73046 14.5731 2.63641 14.7366 2.47294C14.9001 2.30946 14.9941 2.08271 14.9941 1.85156C14.9941 1.62041 14.9001 1.39365 14.7366 1.23017Z" fill="#6946C6"/>
</svg>
