<svg width="22" height="19" viewBox="0 0 22 19" fill="none" xmlns="http://www.w3.org/2000/svg">
<path d="M18.7782 12.2825C17.5801 11.2478 16.1541 10.4818 14.5982 10.0181C16.2646 9.02689 17.3594 7.36799 17.3594 5.49219C17.3594 2.4638 14.5066 0 11 0C7.49345 0 4.64062 2.4638 4.64062 5.49219C4.64062 7.36799 5.73543 9.02689 7.40188 10.0181C5.84598 10.4818 4.41994 11.2478 3.22184 12.2825C1.14421 14.0768 0 16.4625 0 19H1.71875C1.71875 14.5802 5.88229 10.9844 11 10.9844C16.1177 10.9844 20.2812 14.5802 20.2812 19H22C22 16.4625 20.8558 14.0768 18.7782 12.2825ZM11 9.5C8.44117 9.5 6.35938 7.70213 6.35938 5.49219C6.35938 3.28225 8.44117 1.48438 11 1.48438C13.5588 1.48438 15.6406 3.28225 15.6406 5.49219C15.6406 7.70213 13.5588 9.5 11 9.5Z" fill="black"/>
</svg>
