<svg width="28" height="22" viewBox="0 0 28 22" fill="none" xmlns="http://www.w3.org/2000/svg">
<path d="M8.49455 0.125C5.67645 0.125 3.38379 2.55586 3.38379 5.54377C3.38379 8.53167 5.67645 10.9625 8.49455 10.9625C11.3127 10.9625 13.6054 8.53167 13.6054 5.54377C13.6054 2.55586 11.3127 0.125 8.49455 0.125Z" fill="#6946C6"/>
<path d="M20.1138 0.900391C20.1022 0.900391 20.0905 0.900445 20.079 0.9005C18.8963 0.910289 17.7916 1.40964 16.9685 2.30668C16.1598 3.18786 15.72 4.35035 15.7302 5.57995C15.7403 6.80954 16.1992 7.96459 17.0223 8.83238C17.8519 9.70688 18.9509 10.1871 20.1204 10.1871C20.1322 10.1871 20.1439 10.1871 20.1557 10.187C21.3384 10.1773 22.4431 9.67785 23.2662 8.78086C24.075 7.89968 24.5147 6.73719 24.5046 5.50754C24.4835 2.95943 22.5172 0.900391 20.1138 0.900391Z" fill="#6946C6"/>
<path d="M20.3295 11.0742H19.9051C17.9287 11.0742 16.1251 11.8256 14.7634 13.0572C15.1041 13.3186 15.4284 13.6035 15.7358 13.9109C16.6425 14.8176 17.3545 15.8741 17.8522 17.051C18.3006 18.1109 18.5566 19.2276 18.6162 20.3777H28V18.7441C28 14.5152 24.5591 11.0742 20.3295 11.0742Z" fill="#6946C6"/>
<path d="M16.9723 20.3779C16.8175 17.8847 15.5537 15.6917 13.6675 14.2863C12.2954 13.2636 10.5935 12.6582 8.75 12.6582H8.23922C3.68867 12.6583 0 16.3469 0 20.8974V21.8752H16.9887V20.8974C16.9887 20.723 16.9832 20.5496 16.9723 20.3779Z" fill="#6946C6"/>
</svg>
