<svg width="15" height="18" viewBox="0 0 15 18" fill="none" xmlns="http://www.w3.org/2000/svg">
<path d="M13.75 0.5H12.5V2.375C12.5 3.40875 11.6587 4.25 10.625 4.25H4.375C3.34125 4.25 2.5 3.40875 2.5 2.375V0.5H1.25C0.56125 0.5 0 1.06125 0 1.75V16.75C0 17.4513 0.54875 18 1.25 18H13.75C14.4513 18 15 17.4513 15 16.75V1.75C15 1.04875 14.4513 0.5 13.75 0.5ZM7.3175 11.5675L4.8175 14.0675C4.695 14.1888 4.535 14.25 4.375 14.25C4.215 14.25 4.055 14.1888 3.9325 14.0675L2.6825 12.8175C2.43875 12.5738 2.43875 12.1775 2.6825 11.9338C2.92625 11.69 3.3225 11.69 3.56625 11.9338L4.375 12.7413L6.4325 10.6838C6.67625 10.44 7.0725 10.44 7.31625 10.6838C7.56 10.9275 7.56125 11.3225 7.3175 11.5675ZM7.3175 6.5675L4.8175 9.0675C4.695 9.18875 4.535 9.25 4.375 9.25C4.215 9.25 4.055 9.18875 3.9325 9.0675L2.6825 7.8175C2.43875 7.57375 2.43875 7.1775 2.6825 6.93375C2.92625 6.69 3.3225 6.69 3.56625 6.93375L4.375 7.74125L6.4325 5.68375C6.67625 5.44 7.0725 5.44 7.31625 5.68375C7.56 5.9275 7.56125 6.3225 7.3175 6.5675ZM11.875 13H9.375C9.03 13 8.75 12.72 8.75 12.375C8.75 12.03 9.03 11.75 9.375 11.75H11.875C12.22 11.75 12.5 12.03 12.5 12.375C12.5 12.72 12.22 13 11.875 13ZM11.875 8H9.375C9.03 8 8.75 7.72 8.75 7.375C8.75 7.03 9.03 6.75 9.375 6.75H11.875C12.22 6.75 12.5 7.03 12.5 7.375C12.5 7.72 12.22 8 11.875 8Z" fill="white"/>
</svg>
