<svg width="35" height="35" viewBox="0 0 35 35" fill="none" xmlns="http://www.w3.org/2000/svg">
<path d="M34.4814 14.7284L31.6406 14.0207C31.2896 12.5879 30.7255 11.2266 29.9593 9.96332L31.4674 7.45455C31.6291 7.18556 31.5868 6.84096 31.3648 6.619L28.3816 3.63575C28.1597 3.41379 27.815 3.37155 27.546 3.53321L25.0372 5.04128C23.774 4.27504 22.4127 3.71095 20.9799 3.35992L20.2723 0.519342C20.1964 0.214735 19.9228 0.000976562 19.609 0.000976562H15.3908C15.0769 0.000976562 14.8034 0.214735 14.7274 0.519342L14.0198 3.36006C12.587 3.71108 11.2256 4.27532 9.96241 5.04148L7.45364 3.53335C7.18458 3.37161 6.83999 3.41386 6.61809 3.63589L3.63484 6.61907C3.41288 6.84103 3.37064 7.18563 3.53231 7.45462L5.04037 9.96339C4.27414 11.2267 3.71004 12.5879 3.35902 14.0208L0.518365 14.7284C0.213758 14.8043 0 15.0779 0 15.3917V19.6099C0 19.9238 0.213758 20.1973 0.518365 20.2733L3.35908 20.9809C3.71011 22.4137 4.2742 23.775 5.04051 25.0383L3.53237 27.5471C3.37064 27.8161 3.41295 28.1607 3.63491 28.3826L6.61816 31.3659C6.84005 31.5878 7.18472 31.6301 7.45371 31.4684L9.96248 29.9603C11.2258 30.7265 12.587 31.2906 14.0199 31.6417L14.7275 34.4824C14.8034 34.787 15.077 35.0008 15.3909 35.0008H19.6091C19.923 35.0008 20.1965 34.787 20.2724 34.4824L20.9801 31.6417C22.4129 31.2907 23.7742 30.7266 25.0375 29.9603L27.5463 31.4684C27.8153 31.6301 28.1599 31.5878 28.3818 31.3659L31.3651 28.3826C31.587 28.1606 31.6293 27.816 31.4676 27.5471L29.9596 25.0383C30.7258 23.775 31.2899 22.4137 31.6409 20.9809L34.4816 20.2733C34.7862 20.1974 35 19.9238 35 19.6099V15.3917C34.9997 15.0779 34.786 14.8043 34.4814 14.7284ZM33.6325 19.0758L30.903 19.7557C30.6497 19.8188 30.4545 20.0207 30.3999 20.2759C30.0652 21.8396 29.454 23.3143 28.5834 24.6594C28.4415 24.8786 28.4369 25.1594 28.5713 25.383L30.0203 27.7936L27.7926 30.0213L25.382 28.5723C25.1583 28.4378 24.8776 28.4425 24.6585 28.5843C23.3133 29.455 21.8385 30.0661 20.275 30.4008C20.0197 30.4555 19.8178 30.6507 19.7547 30.904L19.0748 33.6335H15.9249L15.245 30.904C15.1819 30.6507 14.98 30.4555 14.7248 30.4008C13.1612 30.0661 11.6864 29.455 10.3413 28.5843C10.122 28.4424 9.84128 28.4378 9.61768 28.5723L7.20714 30.0213L4.97933 27.7936L6.4284 25.3831C6.56286 25.1594 6.55821 24.8786 6.41637 24.6595C5.54568 23.3143 4.93448 21.8396 4.5998 20.276C4.54518 20.0207 4.34995 19.8189 4.09661 19.7558L1.36718 19.0758V15.9259L4.09668 15.246C4.35001 15.1829 4.54525 14.981 4.59987 14.7257C4.93455 13.1621 5.54575 11.6873 6.41637 10.3422C6.55821 10.1231 6.56286 9.84232 6.4284 9.61865L4.97933 7.20805L7.20707 4.9803L9.61761 6.4293C9.84135 6.56383 10.1221 6.55912 10.3413 6.41727C11.6863 5.54666 13.1611 4.93546 14.7248 4.60077C14.98 4.54616 15.1819 4.35092 15.245 4.09758L15.9249 1.36815H19.0748L19.7547 4.09765C19.8178 4.35099 20.0197 4.54622 20.275 4.60084C21.8386 4.93553 23.3134 5.54672 24.6585 6.41734C24.8776 6.55919 25.1584 6.56383 25.382 6.42937L27.7926 4.98037L30.0203 7.20812L28.5713 9.61865C28.4369 9.84232 28.4415 10.1231 28.5834 10.3422C29.454 11.6873 30.0652 13.1621 30.3999 14.7257C30.4545 14.981 30.6497 15.1829 30.903 15.246L33.6325 15.9259V19.0758Z" fill="black"/>
</svg>
