<svg width="32" height="33" viewBox="0 0 32 33" fill="none" xmlns="http://www.w3.org/2000/svg">
<path d="M22.6934 0H3.69427C1.6551 0.00263876 0.00263876 1.6551 0 3.69427V22.6496C0.00263876 24.6887 1.6551 26.3412 3.69427 26.3438H9.49955V25.2883H3.69427C2.23767 25.2866 1.05722 24.1062 1.05551 22.6496V13.7216H4.44473C4.75749 13.6987 4.99254 13.4266 4.96965 13.1138C4.96523 13.0535 4.95124 12.9943 4.92815 12.9384C4.45911 11.871 4.94412 10.6255 6.0115 10.1565C7.07888 9.68743 8.32437 10.1724 8.79342 11.2398C9.03123 11.781 9.03123 12.3972 8.79342 12.9384C8.66306 13.2111 8.77851 13.5378 9.05122 13.6682C9.12174 13.7019 9.19873 13.7201 9.27684 13.7216H12.6661V16.8881C12.4917 16.8585 12.3152 16.8438 12.1383 16.8443C10.3895 16.8438 8.97133 18.261 8.97067 20.0097C8.97021 21.2697 9.71678 22.41 10.8717 22.9135L11.2939 21.9467C10.2248 21.4816 9.73512 20.2379 10.2001 19.1688C10.5357 18.3975 11.2971 17.8989 12.1383 17.8999C12.4292 17.8998 12.7168 17.9605 12.9827 18.0782C13.2498 18.1948 13.5609 18.0728 13.6775 17.8056C13.7065 17.7391 13.7215 17.6674 13.7216 17.5948V13.7216H16.4052C16.3752 13.8959 16.3601 14.0725 16.3603 14.2493C16.3635 15.753 17.4209 17.0484 18.8935 17.3525L19.1046 16.3186C18.1229 16.1155 17.418 15.2519 17.4158 14.2493C17.4158 13.9585 17.4765 13.6708 17.5942 13.4049C17.7108 13.1378 17.5887 12.8267 17.3216 12.7101C17.2551 12.6811 17.1834 12.6661 17.1108 12.6661H13.7216V9.98244C13.8959 10.0125 14.0725 10.0275 14.2493 10.0273C15.9982 10.0273 17.4158 8.60962 17.4158 6.86078C17.4158 5.11194 15.9982 3.69427 14.2493 3.69427C14.0725 3.69407 13.8959 3.70911 13.7216 3.73913V1.05551H22.6934C24.15 1.05722 25.3304 2.23767 25.3321 3.69427V12.6661H21.9429C21.6515 12.6662 21.4153 12.9026 21.4154 13.1941C21.4155 13.2666 21.4305 13.3384 21.4595 13.4049C21.5772 13.6708 21.6379 13.9585 21.6379 14.2493H22.6934C22.6936 14.0725 22.6785 13.8959 22.6485 13.7216H25.8599C26.1513 13.7216 26.3876 13.4853 26.3876 13.1938V3.69427C26.385 1.6551 24.7325 0.00263876 22.6934 0ZM14.2493 4.74977C15.4152 4.74977 16.3603 5.69491 16.3603 6.86078C16.3603 8.02666 15.4152 8.97179 14.2493 8.97179C13.9585 8.97186 13.6708 8.9111 13.4049 8.79341C13.1378 8.67685 12.8267 8.79889 12.7101 9.066C12.6811 9.13249 12.6661 9.20427 12.6661 9.27683V12.6223H9.98614C10.0126 12.4623 10.0263 12.3005 10.0273 12.1383C10.0273 12.1288 10.0273 12.1204 10.0273 12.1109C10.0273 12.1014 10.0273 12.0998 10.0273 12.0945C10.0273 10.3457 8.60963 8.92799 6.86079 8.92799C5.11194 8.92799 3.69427 10.3457 3.69427 12.0945C3.69427 12.0998 3.69427 12.1056 3.69427 12.1109C3.69427 12.1161 3.69427 12.1288 3.69427 12.1383C3.69526 12.3005 3.70898 12.4623 3.73543 12.6223H1.05551V3.69427C1.05722 2.23767 2.23767 1.05722 3.69427 1.05551H12.6661V4.44473C12.6662 4.73618 12.9026 4.97235 13.1941 4.97222C13.2666 4.97216 13.3384 4.95718 13.4049 4.92815C13.6708 4.81046 13.9585 4.74971 14.2493 4.74977Z" fill="black"/>
<path d="M30.5363 22.6838L26.0995 19.6287L24.3954 15.0757C24.2937 14.8026 23.9899 14.6636 23.7167 14.7652C23.7069 14.7688 23.6972 14.7728 23.6877 14.777L20.2573 16.2943C20.0001 16.4079 19.8772 16.7031 19.9776 16.9656C20.0346 17.1134 20.0879 17.2253 20.1443 17.3414C20.2008 17.4575 20.253 17.5662 20.3169 17.7377C20.7266 18.8323 20.175 20.0524 19.0825 20.4678C17.9905 20.8762 16.7742 20.3221 16.3657 19.2301C16.2632 18.9562 16.2188 18.664 16.2353 18.3721C16.2506 18.081 16.027 17.8327 15.7359 17.8173C15.663 17.8135 15.5901 17.8249 15.5217 17.8507L11.8549 19.2318C11.5827 19.3344 11.4448 19.638 11.5467 19.9105L12.8629 23.4269C12.6884 23.4587 12.5171 23.506 12.351 23.5683C10.7087 24.1803 9.87354 26.0078 10.4855 27.6501C11.0975 29.2924 12.925 30.1276 14.5673 29.5156C14.7364 29.4526 14.8998 29.3753 15.0557 29.2844L15.9994 31.805C16.1016 32.0779 16.4057 32.2163 16.6787 32.114C16.679 32.1139 16.6793 32.1138 16.6796 32.1137L21.9086 30.1436C22.2371 30.8496 22.8415 31.3893 23.58 31.6361L23.9135 30.6333C23.4785 30.4868 23.117 30.1778 22.9045 29.771L24.4956 29.172C25.0183 30.6421 26.4107 31.6233 27.9709 31.6213V30.5658C26.5173 30.5569 25.341 29.3807 25.3321 27.927C25.3321 27.787 25.2765 27.6529 25.1775 27.5539L23.3399 25.7163C23.0674 25.4415 23.0367 25.0088 23.2676 24.6982C23.402 24.5168 23.6096 24.4037 23.8349 24.389C24.0606 24.37 24.2828 24.4531 24.4408 24.6154L28.1255 28.3002L28.8718 27.5539L27.7814 26.4636C28.0501 25.6603 28.0335 24.7889 27.7345 23.9963L26.7455 21.3549L29.9347 23.5509C30.3574 23.8476 30.6093 24.3317 30.6097 24.8481V31.6651H31.6652V24.8481C31.6644 23.9857 31.2431 23.1779 30.5363 22.6838ZM26.746 24.3663C26.8918 24.7538 26.9445 25.1701 26.9001 25.5817L25.187 23.8691C24.4799 23.144 23.3188 23.1294 22.5936 23.8364C21.8684 24.5435 21.8539 25.7046 22.5609 26.4298C22.5717 26.4408 22.5825 26.4518 22.5936 26.4625L24.2629 28.1318L16.8047 30.941L15.7988 28.2532C15.7362 28.0862 15.5935 27.9621 15.4194 27.9233C15.3818 27.915 15.3434 27.9107 15.3048 27.9107C15.1668 27.9105 15.0342 27.9646 14.9354 28.0611C14.088 28.8618 12.7518 28.8238 11.9512 27.9763C11.1505 27.1289 11.1884 25.7927 12.0359 24.9921C12.2353 24.8037 12.4694 24.6561 12.7252 24.5573C12.8932 24.495 13.0687 24.4553 13.2471 24.4391C13.3569 24.4256 13.4676 24.4219 13.578 24.428C13.8691 24.4432 14.1175 24.2196 14.1327 23.9286C14.1365 23.8562 14.1254 23.7838 14.1 23.716L12.7215 20.0355L15.2346 19.0892C15.5645 20.8067 17.2241 21.9315 18.9416 21.6017C19.1171 21.568 19.2894 21.5195 19.4567 21.4567C21.0932 20.8358 21.9203 19.0093 21.3075 17.3698C21.2589 17.24 21.2151 17.1371 21.1729 17.0452L23.6006 15.9702L26.746 24.3663Z" fill="black"/>
</svg>
