<svg width="26" height="26" viewBox="0 0 26 26" fill="none" xmlns="http://www.w3.org/2000/svg">
<path d="M1.625 23.1562C1.62627 24.2776 2.53495 25.1862 3.65625 25.1875H18.6875C21.8284 25.1878 24.3748 22.6419 24.3751 19.501C24.3753 17.304 23.11 15.3034 21.125 14.362V6.09375C21.125 5.98599 21.0822 5.88265 21.006 5.80648L16.131 0.93148C16.0548 0.855309 15.9515 0.8125 15.8438 0.8125H3.65625C2.53495 0.81377 1.62627 1.72245 1.625 2.84375V23.1562ZM23.5625 19.5C23.5625 22.1924 21.3799 24.375 18.6875 24.375C15.9951 24.375 13.8125 22.1924 13.8125 19.5C13.8125 16.8076 15.9951 14.625 18.6875 14.625C21.3787 14.628 23.5595 16.8088 23.5625 19.5ZM16.25 2.19949L19.738 5.6875H17.4688C16.7959 5.68674 16.2508 5.14155 16.25 4.46875V2.19949ZM2.4375 2.84375C2.43826 2.171 2.9835 1.62576 3.65625 1.625H15.4375V4.46875C15.4388 5.59005 16.3474 6.49873 17.4688 6.5H20.3125V14.0494C17.3029 13.1515 14.1353 14.8632 13.2373 17.8727C12.4945 20.3622 13.5333 23.0384 15.7609 24.375H3.65625C2.9835 24.3742 2.43826 23.829 2.4375 23.1562V2.84375Z" fill="#6946C6"/>
<path d="M8.125 8.53125C8.125 8.7556 8.3069 8.9375 8.53125 8.9375H18.2812C18.5056 8.9375 18.6875 8.7556 18.6875 8.53125C18.6875 8.3069 18.5056 8.125 18.2812 8.125H8.53125C8.3069 8.125 8.125 8.3069 8.125 8.53125Z" fill="#6946C6"/>
<path d="M4.46875 11.375H12.5938C12.8181 11.375 13 11.1931 13 10.9688C13 10.7444 12.8181 10.5625 12.5938 10.5625H4.46875C4.2444 10.5625 4.0625 10.7444 4.0625 10.9688C4.0625 11.1931 4.2444 11.375 4.46875 11.375Z" fill="#6946C6"/>
<path d="M14.2188 13H10.9688C10.7444 13 10.5625 13.1819 10.5625 13.4062C10.5625 13.6306 10.7444 13.8125 10.9688 13.8125H14.2188C14.4431 13.8125 14.625 13.6306 14.625 13.4062C14.625 13.1819 14.4431 13 14.2188 13Z" fill="#6946C6"/>
<path d="M4.46875 16.25H11.7812C12.0056 16.25 12.1875 16.0681 12.1875 15.8438C12.1875 15.6194 12.0056 15.4375 11.7812 15.4375H4.46875C4.2444 15.4375 4.0625 15.6194 4.0625 15.8438C4.0625 16.0681 4.2444 16.25 4.46875 16.25Z" fill="#6946C6"/>
<path d="M4.46875 8.9375H6.90625C7.1306 8.9375 7.3125 8.7556 7.3125 8.53125C7.3125 8.3069 7.1306 8.125 6.90625 8.125H4.46875C4.2444 8.125 4.0625 8.3069 4.0625 8.53125C4.0625 8.7556 4.2444 8.9375 4.46875 8.9375Z" fill="#6946C6"/>
<path d="M18.2812 10.5625H14.2188C13.9944 10.5625 13.8125 10.7444 13.8125 10.9688C13.8125 11.1931 13.9944 11.375 14.2188 11.375H18.2812C18.5056 11.375 18.6875 11.1931 18.6875 10.9688C18.6875 10.7444 18.5056 10.5625 18.2812 10.5625Z" fill="#6946C6"/>
<path d="M4.46875 13.8125H9.34375C9.5681 13.8125 9.75 13.6306 9.75 13.4062C9.75 13.1819 9.5681 13 9.34375 13H4.46875C4.2444 13 4.0625 13.1819 4.0625 13.4062C4.0625 13.6306 4.2444 13.8125 4.46875 13.8125Z" fill="#6946C6"/>
<path d="M10.9688 20.3125H9.34375C9.1194 20.3125 8.9375 20.4944 8.9375 20.7188C8.9375 20.9431 9.1194 21.125 9.34375 21.125H10.9688C11.1931 21.125 11.375 20.9431 11.375 20.7188C11.375 20.4944 11.1931 20.3125 10.9688 20.3125Z" fill="#6946C6"/>
<path d="M4.46875 21.125H7.71875C7.9431 21.125 8.125 20.9431 8.125 20.7188C8.125 20.4944 7.9431 20.3125 7.71875 20.3125H4.46875C4.2444 20.3125 4.0625 20.4944 4.0625 20.7188C4.0625 20.9431 4.2444 21.125 4.46875 21.125Z" fill="#6946C6"/>
<path d="M4.46875 18.6875H6.90625C7.1306 18.6875 7.3125 18.5056 7.3125 18.2812C7.3125 18.0569 7.1306 17.875 6.90625 17.875H4.46875C4.2444 17.875 4.0625 18.0569 4.0625 18.2812C4.0625 18.5056 4.2444 18.6875 4.46875 18.6875Z" fill="#6946C6"/>
<path d="M4.46875 6.5H9.34375C9.5681 6.5 9.75 6.3181 9.75 6.09375C9.75 5.8694 9.5681 5.6875 9.34375 5.6875H4.46875C4.2444 5.6875 4.0625 5.8694 4.0625 6.09375C4.0625 6.3181 4.2444 6.5 4.46875 6.5Z" fill="#6946C6"/>
<path d="M10.9688 17.875H8.53125C8.3069 17.875 8.125 18.0569 8.125 18.2812C8.125 18.5056 8.3069 18.6875 8.53125 18.6875H10.9688C11.1931 18.6875 11.375 18.5056 11.375 18.2812C11.375 18.0569 11.1931 17.875 10.9688 17.875Z" fill="#6946C6"/>
<path d="M16.3962 16.7504C16.2238 16.894 16.2005 17.1502 16.3441 17.3226C16.3441 17.3226 16.3441 17.3226 16.3442 17.3226C16.3442 17.3226 17.8845 19.1736 18.3739 19.7583C18.4232 19.8173 18.5037 19.8859 18.6446 19.9041C18.6589 19.9059 18.6732 19.9063 18.6875 19.9063H21.5313C21.7556 19.9063 21.9375 19.7244 21.9375 19.5C21.9375 19.2757 21.7556 19.0938 21.5313 19.0938H18.8778L16.9684 16.8024C16.8248 16.6301 16.5686 16.6068 16.3962 16.7504Z" fill="#6946C6"/>
</svg>
