<svg width="15" height="18" viewBox="0 0 15 18" fill="none" xmlns="http://www.w3.org/2000/svg">
<path d="M12.9375 0H2.0625C0.92475 0 0 0.92475 0 2.0625V15.9375C0 17.0752 0.92475 18 2.0625 18H12.9375C14.0752 18 15 17.0752 15 15.9375V2.0625C15 0.92475 14.0752 0 12.9375 0ZM6.5625 9.75V6.057C8.3625 6.33075 9.75 7.875 9.75 9.75C9.75 11.8177 8.06775 13.5 6 13.5C5.169 13.5 4.40775 13.2195 3.78525 12.7598L6.3975 10.1475C6.50325 10.0425 6.5625 9.89925 6.5625 9.75V9.75ZM5.4375 6.057V9.5175L2.99025 11.9648C2.5305 11.3423 2.25 10.581 2.25 9.75C2.25 7.875 3.6375 6.33075 5.4375 6.057ZM12.1875 15.9375H2.8125C2.502 15.9375 2.25 15.6855 2.25 15.375C2.25 15.0645 2.502 14.8125 2.8125 14.8125H12.1875C12.498 14.8125 12.75 15.0645 12.75 15.375C12.75 15.6855 12.498 15.9375 12.1875 15.9375ZM12.1875 13.5H11.0625C10.752 13.5 10.5 13.248 10.5 12.9375C10.5 12.627 10.752 12.375 11.0625 12.375H12.1875C12.498 12.375 12.75 12.627 12.75 12.9375C12.75 13.248 12.498 13.5 12.1875 13.5ZM12.1875 11.4375H11.0625C10.752 11.4375 10.5 11.1855 10.5 10.875C10.5 10.5645 10.752 10.3125 11.0625 10.3125H12.1875C12.498 10.3125 12.75 10.5645 12.75 10.875C12.75 11.1855 12.498 11.4375 12.1875 11.4375ZM12.1875 9.1875H11.0625C10.752 9.1875 10.5 8.9355 10.5 8.625C10.5 8.3145 10.752 8.0625 11.0625 8.0625H12.1875C12.498 8.0625 12.75 8.3145 12.75 8.625C12.75 8.9355 12.498 9.1875 12.1875 9.1875ZM12.1875 7.125H11.0625C10.752 7.125 10.5 6.873 10.5 6.5625C10.5 6.252 10.752 6 11.0625 6H12.1875C12.498 6 12.75 6.252 12.75 6.5625C12.75 6.873 12.498 7.125 12.1875 7.125Z" fill="white"/>
</svg>
