<svg width="24" height="24" viewBox="0 0 24 24" fill="none" xmlns="http://www.w3.org/2000/svg">
<path d="M21.7479 5.00086C21.9849 4.67578 22.1252 4.27594 22.1252 3.84375C22.1252 2.75817 21.2421 1.875 20.1565 1.875C19.7243 1.875 19.3245 2.01534 18.9994 2.25234C16.9524 0.777844 14.5408 0 12 0C9.50752 0 7.11741 0.757125 5.08795 2.18948C4.87645 2.33878 4.82602 2.63123 4.97531 2.84278C5.12461 3.05428 5.41711 3.10472 5.62861 2.95542C6.98423 1.99861 8.51484 1.36903 10.1295 1.09477C9.94153 1.33355 9.75272 1.62094 9.56639 1.96706C8.9977 3.02358 8.52839 4.47853 8.20125 6.19322C7.34063 6.25509 6.63164 6.87216 6.43167 7.6875H1.8097C2.08214 7.04442 2.41645 6.42534 2.81105 5.83814C2.95542 5.62327 2.89823 5.33203 2.68336 5.18766C2.46848 5.04323 2.17725 5.10042 2.03288 5.3153C0.702937 7.29455 0 9.60609 0 12C0 14.5399 0.777891 16.9521 2.2522 18.9993C2.0153 19.3244 1.875 19.7242 1.875 20.1562C1.875 21.2418 2.75817 22.125 3.84375 22.125C4.27589 22.125 4.67569 21.9847 5.00072 21.7477C7.04784 23.2222 9.45984 24 12 24C15.2053 24 18.2188 22.7518 20.4853 20.4853C22.7518 18.2188 24 15.2053 24 12C24 9.45947 23.2222 7.04789 21.7479 5.00086ZM22.5353 15.375H17.5367C17.3762 14.7204 16.8876 14.1937 16.2557 13.9793C16.2927 13.3281 16.3125 12.6646 16.3125 12C16.3125 10.841 16.2563 9.70688 16.1481 8.62505H22.5412C22.8855 9.70294 23.0625 10.8368 23.0625 12C23.0625 13.1766 22.8772 14.3105 22.5353 15.375ZM12 23.0625C11.2146 23.0625 10.3648 21.9197 9.72675 20.0056C9.36914 18.9327 9.09248 17.6793 8.90578 16.3125H13.7129C13.863 16.9245 14.2995 17.4249 14.872 17.6627C14.1589 21.3885 12.9293 23.0625 12 23.0625ZM3.84375 18.1875C3.5303 18.1875 3.23391 18.2615 2.97061 18.3924C2.50448 17.7362 2.11566 17.0399 1.80703 16.3125H7.96059C8.15541 17.7875 8.45105 19.1431 8.83734 20.302C9.20878 21.4164 9.64134 22.2882 10.1232 22.905C8.49947 22.6297 6.96736 21.9953 5.60761 21.0294C5.73848 20.7661 5.8125 20.4697 5.8125 20.1562C5.8125 19.0707 4.92933 18.1875 3.84375 18.1875ZM8.625 12C8.625 11.3604 8.64375 10.7222 8.67891 10.0958C9.45117 9.96267 10.0707 9.37852 10.2555 8.625H15.2061C15.3173 9.70275 15.375 10.8375 15.375 12C15.375 12.6375 15.3563 13.2738 15.3214 13.8984C14.5342 14.0207 13.9002 14.6111 13.7129 15.375H8.79384C8.6828 14.2973 8.625 13.1626 8.625 12ZM15.6248 16.875C15.0562 16.875 14.5935 16.4124 14.5935 15.8438C14.5935 15.2751 15.0562 14.8125 15.6248 14.8125C16.1934 14.8125 16.656 15.2751 16.656 15.8438C16.656 16.4124 16.1934 16.875 15.6248 16.875ZM15.1627 3.69797C14.7912 2.58352 14.3586 1.71173 13.8767 1.09486C15.5007 1.37025 17.0328 2.00447 18.3926 2.97056C18.2618 3.23391 18.1877 3.5303 18.1877 3.84375C18.1877 4.92933 19.0709 5.8125 20.1565 5.8125C20.4699 5.8125 20.7663 5.73848 21.0296 5.60766C21.4958 6.26381 21.8845 6.96019 22.1931 7.68755H16.0394C15.8446 6.21248 15.5489 4.85686 15.1627 3.69797ZM21.1877 3.84375C21.1877 4.41239 20.7251 4.875 20.1565 4.875C19.5878 4.875 19.1252 4.41239 19.1252 3.84375C19.1252 3.27511 19.5878 2.8125 20.1565 2.8125C20.7251 2.8125 21.1877 3.27511 21.1877 3.84375ZM12 0.9375C12.7854 0.9375 13.6352 2.08027 14.2733 3.99441C14.6309 5.06733 14.9075 6.32072 15.0942 7.6875H10.2555C10.108 7.08605 9.68363 6.59241 9.12558 6.34988C9.83808 2.61544 11.0689 0.9375 12 0.9375ZM8.34356 7.12505C8.9122 7.12505 9.37481 7.58766 9.37481 8.1563C9.37481 8.72494 8.9122 9.18755 8.34356 9.18755C7.77492 9.18755 7.31231 8.72494 7.31231 8.1563C7.31231 7.58766 7.77492 7.12505 8.34356 7.12505ZM6.43167 8.62505C6.59484 9.29034 7.09678 9.82378 7.74366 10.0312C7.70709 10.679 7.6875 11.3389 7.6875 12C7.6875 13.1591 7.74366 14.2932 7.85189 15.375H1.45908C1.11459 14.2969 0.9375 13.163 0.9375 12C0.9375 10.8429 1.11586 9.70697 1.46189 8.62505H6.43167ZM2.8125 20.1562C2.8125 19.5876 3.27511 19.125 3.84375 19.125C4.41239 19.125 4.875 19.5876 4.875 20.1562C4.875 20.7249 4.41239 21.1875 3.84375 21.1875C3.27511 21.1875 2.8125 20.7249 2.8125 20.1562ZM13.872 22.9033C14.0583 22.6664 14.2455 22.3817 14.4302 22.0393C15.0007 20.982 15.4715 19.5236 15.7993 17.8043C16.6455 17.7296 17.3393 17.1177 17.5367 16.3125H22.1872C20.738 19.7227 17.6245 22.261 13.872 22.9033Z" fill="black"/>
<path d="M3.75195 4.40918C3.87575 4.40918 3.99617 4.35949 4.08383 4.27184C4.17102 4.18465 4.2207 4.06371 4.2207 3.94043C4.2207 3.81715 4.17102 3.69668 4.08383 3.60902C3.99617 3.52184 3.87575 3.47168 3.75195 3.47168C3.62867 3.47168 3.50773 3.52184 3.42059 3.60902C3.33341 3.69668 3.2832 3.81715 3.2832 3.94043C3.2832 4.06371 3.33336 4.18465 3.42059 4.27184C3.50773 4.35949 3.62867 4.40918 3.75195 4.40918Z" fill="black"/>
</svg>
