<svg width="46" height="46" viewBox="0 0 46 46" fill="none" xmlns="http://www.w3.org/2000/svg">
<rect width="46" height="46" rx="8" fill="#F6F6F6"/>
<path d="M23.0147 19.5039C21.0868 19.5039 19.5183 21.0724 19.5183 23.0004C19.5183 23.4128 19.5896 23.8169 19.7302 24.2014C19.8249 24.4603 20.1113 24.5933 20.3703 24.4987C20.6291 24.404 20.7622 24.1175 20.6676 23.8586C20.5673 23.5842 20.5164 23.2955 20.5164 23.0003C20.5164 21.6227 21.6371 20.5019 23.0147 20.5019C24.3923 20.5019 25.5131 21.6227 25.5131 23.0003C25.5131 24.3779 24.3923 25.4987 23.0147 25.4987C22.5598 25.4987 22.1147 25.3754 21.7275 25.1421C21.4916 25 21.1848 25.0759 21.0425 25.3119C20.9003 25.548 20.9763 25.8547 21.2124 25.997C21.7551 26.324 22.3783 26.4969 23.0148 26.4969C24.9427 26.4969 26.5112 24.9284 26.5112 23.0004C26.5111 21.0724 24.9426 19.5039 23.0147 19.5039Z" fill="#6946C6"/>
<path d="M30.1917 21.5948L29.2664 21.4556C29.1116 20.825 28.8637 20.2271 28.5267 19.6708L29.083 18.9177C29.3651 18.5357 29.3261 18.0147 28.9904 17.6789L28.3352 17.0236C27.9993 16.6879 27.4784 16.649 27.0964 16.9311L26.3434 17.4873C25.7871 17.1501 25.1892 16.9023 24.5586 16.7475L24.4195 15.8221C24.3489 15.3525 23.9529 15.0117 23.4781 15.0117H22.5514C22.0766 15.0117 21.6807 15.3526 21.61 15.8221L21.4709 16.7475C20.8403 16.9023 20.2424 17.1501 19.6861 17.4873L18.933 16.931C18.5511 16.6489 18.0302 16.6879 17.6944 17.0236L17.0393 17.6789C16.7033 18.0147 16.6643 18.5357 16.9466 18.9178L17.5028 19.6708C17.1656 20.227 16.9178 20.825 16.7631 21.4556L15.8379 21.5948C15.3682 21.6653 15.0273 22.0612 15.0273 22.5362V23.4628C15.0273 23.9378 15.3682 24.3338 15.8378 24.4043L16.7631 24.5434C16.9179 25.1741 17.1657 25.772 17.5028 26.3283L16.9466 27.0813C16.6643 27.4634 16.7033 27.9844 17.0391 28.3201L17.6944 28.9754C18.0302 29.3112 18.5512 29.3501 18.9331 29.0679L19.6861 28.5117C20.2424 28.8489 20.8402 29.0967 21.4709 29.2515L21.61 30.1768C21.6807 30.6465 22.0766 30.9873 22.5514 30.9873H23.478C23.9529 30.9873 24.3488 30.6464 24.4194 30.1768L24.5585 29.2515C25.1892 29.0967 25.7871 28.8489 26.3433 28.5117L27.0964 29.068C27.4783 29.3501 27.9993 29.3111 28.3351 28.9754L28.9903 28.3201C29.3261 27.9844 29.365 27.4634 29.0828 27.0813L28.5266 26.3283C28.8638 25.7721 29.1116 25.1741 29.2663 24.5434L30.1915 24.4043C30.6612 24.3338 31.0021 23.9378 31.0021 23.4628V22.5362C31.0022 22.0613 30.6614 21.6653 30.1917 21.5948ZM30.0041 23.4231L28.7774 23.6075C28.5673 23.6391 28.4003 23.8003 28.3612 24.009C28.2221 24.75 27.9354 25.4421 27.5087 26.066C27.3889 26.2413 27.3931 26.4734 27.5194 26.6442L28.2566 27.6423L27.6574 28.2414L26.6593 27.5041C26.4885 27.378 26.2565 27.3738 26.0811 27.4936C25.4572 27.9202 24.7652 28.207 24.0242 28.346C23.8154 28.3852 23.6542 28.5523 23.6227 28.7624L23.4384 29.9891H22.5911L22.4067 28.7623C22.3751 28.5522 22.214 28.3851 22.0052 28.346C21.2643 28.207 20.5723 27.9202 19.9482 27.4936C19.7729 27.3736 19.5409 27.3778 19.37 27.5042L18.372 28.2414L17.7728 27.6423L18.5101 26.6442C18.6363 26.4734 18.6406 26.2413 18.5206 26.066C18.094 25.4421 17.8072 24.7501 17.6683 24.0091C17.6291 23.8003 17.4621 23.6391 17.252 23.6075L16.0254 23.4231V22.5759L17.252 22.3915C17.4621 22.3599 17.6291 22.1988 17.6683 21.99C17.8072 21.2491 18.094 20.557 18.5206 19.933C18.6406 19.7577 18.6364 19.5257 18.5101 19.3548L17.7728 18.3567L18.372 17.7576L19.37 18.4949C19.5409 18.6212 19.7729 18.6252 19.9482 18.5055C20.5723 18.0788 21.2643 17.792 22.0052 17.653C22.214 17.6138 22.3751 17.4468 22.4067 17.2367L22.5911 16.0099H23.4384L23.6227 17.2366C23.6543 17.4467 23.8154 17.6137 24.0242 17.653C24.7652 17.792 25.4572 18.0788 26.0811 18.5055C26.2564 18.6253 26.4884 18.6212 26.6593 18.4949L27.6574 17.7576L28.2566 18.3567L27.5194 19.3548C27.3931 19.5257 27.3889 19.7577 27.5087 19.933C27.9354 20.5569 28.2221 21.249 28.3612 21.99C28.4003 22.1988 28.5674 22.36 28.7774 22.3915L30.0041 22.5759V23.4231Z" fill="#6946C6"/>
<path d="M39.9599 22.82C39.8816 22.6359 39.7009 22.5163 39.5007 22.5163H38.6436C38.5293 18.7843 37.0932 15.2319 34.5706 12.4662C31.9966 9.64404 28.5079 7.87053 24.7307 7.45782L23.3607 6.13839C23.0634 5.83193 22.5012 6.07106 22.5155 6.49785V7.37076C19.451 7.46652 16.5214 8.44382 14.0142 10.2116C13.789 10.3704 13.7351 10.6818 13.8939 10.9071C14.0528 11.1323 14.3641 11.1863 14.5894 11.0274C17.0632 9.28306 19.9766 8.36101 23.0146 8.36101C23.2903 8.36101 23.5137 8.13762 23.5137 7.86197V7.67125L26.1249 10.1861L23.5136 12.296V11.8044C23.5136 11.5287 23.2902 11.3053 23.0145 11.3053C20.2074 11.3053 17.4933 12.315 15.3721 14.1481C13.5481 15.7244 12.2605 17.8195 11.6761 20.1307L10.6066 18.807C10.4285 18.576 10.0563 18.5599 9.85896 18.7745L8.68696 19.9916C9.30653 17.03 10.8361 14.32 13.088 12.2411C13.2906 12.0542 13.3032 11.7384 13.1163 11.536C12.9294 11.3335 12.6136 11.3209 12.4111 11.5077C9.63976 14.0661 7.89234 17.5197 7.47631 21.2488L6.13809 22.6384C5.83176 22.936 6.07075 23.4978 6.49755 23.4836H7.3854C7.49962 27.2096 8.93173 30.7576 11.4473 33.5216C14.0139 36.3418 17.4944 38.1184 21.264 38.5387L22.6376 39.8615C22.9366 40.1682 23.4966 39.9286 23.4827 39.5021V38.6302C26.6044 38.5388 29.582 37.5349 32.121 35.7127C32.3449 35.552 32.3962 35.2402 32.2355 35.0163C32.0746 34.7924 31.7629 34.7414 31.539 34.9018C29.044 36.6924 26.0962 37.6389 23.0085 37.6387L22.9836 37.6385C22.708 37.6385 22.4846 37.8619 22.4846 38.1375V38.3286L19.8734 35.8138L22.4846 33.704V34.1952C22.4846 34.4696 22.7061 34.6925 22.9804 34.6942L23.0144 34.6946C25.8156 34.6946 28.5254 33.6887 30.6446 31.8622C32.4667 30.2918 33.7561 28.2031 34.3453 25.898L35.3915 27.1929C35.5697 27.4237 35.9413 27.4402 36.1392 27.2254L37.35 25.968C36.7441 28.9031 35.2434 31.5973 33.0318 33.6739C32.8309 33.8627 32.821 34.1784 33.0096 34.3794C33.1986 34.5806 33.5144 34.59 33.715 34.4016C36.4383 31.8445 38.1525 28.4104 38.5564 24.7153L39.8601 23.3614C39.999 23.2174 40.0383 23.0043 39.9599 22.82ZM18.8063 35.3929C18.5753 35.571 18.5591 35.9431 18.7738 36.1405L20.0072 37.3283C17.0099 36.7021 14.2745 35.1452 12.1854 32.8498C9.72887 30.1506 8.37611 26.6525 8.37611 23.0017L8.37631 22.9846C8.37631 22.7089 8.15292 22.4856 7.87727 22.4856H7.67094L10.1856 19.8742L12.2954 22.4856H11.8194C11.5438 22.4856 11.3204 22.7072 11.3204 22.9829L11.3202 23C11.3202 25.8019 12.3264 28.5122 14.1535 30.6316C15.7245 32.454 17.8137 33.7433 20.1194 34.332L18.8063 35.3929ZM29.9931 31.1062C28.1733 32.6747 25.8773 33.5815 23.4827 33.6863V32.6592C23.496 32.2523 22.9782 32.0051 22.6701 32.271L21.1148 33.5276C18.7117 33.0965 16.5151 31.8425 14.9095 29.9798C13.3436 28.1634 12.437 25.8721 12.3291 23.4836H13.3402C13.7471 23.4969 13.9943 22.9789 13.7285 22.6708L12.482 21.1281C12.9077 18.7183 14.1599 16.5148 16.0247 14.9032C17.8386 13.3356 20.1268 12.4264 22.5155 12.315V13.3407C22.5021 13.7475 23.0202 13.9948 23.3281 13.7289L24.8892 12.4676C27.2981 12.8938 29.5009 14.1463 31.1119 16.0109C32.6827 17.8291 33.592 20.1234 33.6999 22.5163H32.658C32.2512 22.503 32.0039 23.021 32.2698 23.329L33.5413 24.9027C33.1096 27.3053 31.8554 29.5012 29.9931 31.1062ZM35.8127 26.1258L33.7029 23.5145H34.2097C34.4853 23.5145 34.7087 23.2928 34.7087 23.0171L34.7089 23C34.7089 20.1934 33.6997 17.4795 31.8672 15.3584C30.2915 13.5347 28.1972 12.2467 25.8866 11.6619L27.192 10.6071C27.423 10.429 27.4392 10.0568 27.2245 9.8594L25.9831 8.66395C28.9903 9.28372 31.7359 10.8394 33.8331 13.1388C36.2964 15.8395 37.653 19.3416 37.653 22.9982L37.6528 23.0153C37.6528 23.291 37.8762 23.5144 38.1518 23.5144H38.3273L35.8127 26.1258Z" fill="#6946C6"/>
</svg>
