<svg width="46" height="46" viewBox="0 0 46 46" fill="none" xmlns="http://www.w3.org/2000/svg">
<rect width="46" height="46" rx="8" fill="#F6F6F6"/>
<path d="M19.1907 11.9331H17.457C17.1982 11.9331 16.9883 12.143 16.9883 12.4019C16.9883 12.6607 17.1982 12.8706 17.457 12.8706H19.1907C19.4495 12.8706 19.6594 12.6607 19.6594 12.4019C19.6594 12.143 19.4495 11.9331 19.1907 11.9331Z" fill="#6946C6"/>
<path d="M21.8093 12.8706H28.543C28.8019 12.8706 29.0117 12.6607 29.0117 12.4019C29.0117 12.143 28.8019 11.9331 28.543 11.9331H21.8093C21.5505 11.9331 21.3406 12.143 21.3406 12.4019C21.3406 12.6607 21.5505 12.8706 21.8093 12.8706Z" fill="#6946C6"/>
<path d="M19.1907 14.624H17.457C17.1982 14.624 16.9883 14.8339 16.9883 15.0928C16.9883 15.3516 17.1982 15.5615 17.457 15.5615H19.1907C19.4495 15.5615 19.6594 15.3516 19.6594 15.0928C19.6594 14.8339 19.4495 14.624 19.1907 14.624Z" fill="#6946C6"/>
<path d="M21.8093 15.5615H28.543C28.8019 15.5615 29.0117 15.3516 29.0117 15.0928C29.0117 14.8339 28.8019 14.624 28.543 14.624H21.8093C21.5505 14.624 21.3406 14.8339 21.3406 15.0928C21.3406 15.3516 21.5505 15.5615 21.8093 15.5615Z" fill="#6946C6"/>
<path d="M19.1907 17.3149H17.457C17.1982 17.3149 16.9883 17.5248 16.9883 17.7837C16.9883 18.0426 17.1982 18.2524 17.457 18.2524H19.1907C19.4495 18.2524 19.6594 18.0426 19.6594 17.7837C19.6594 17.5248 19.4495 17.3149 19.1907 17.3149Z" fill="#6946C6"/>
<path d="M21.8093 18.2524H28.543C28.8019 18.2524 29.0117 18.0426 29.0117 17.7837C29.0117 17.5248 28.8019 17.3149 28.543 17.3149H21.8093C21.5505 17.3149 21.3406 17.5248 21.3406 17.7837C21.3406 18.0426 21.5505 18.2524 21.8093 18.2524Z" fill="#6946C6"/>
<path d="M29.1571 33.9171V31.6259C29.1571 31.1791 28.7935 30.8154 28.3466 30.8154H17.6535C17.2066 30.8154 16.843 31.179 16.843 31.6259V33.9171C16.843 34.3639 17.2066 34.7276 17.6535 34.7276H28.3466C28.7935 34.7276 29.1571 34.3639 29.1571 33.9171ZM28.2196 33.7901H17.7805V31.7529H28.2196V33.7901Z" fill="#6946C6"/>
<path d="M19.1907 20.0059H17.457C17.1982 20.0059 16.9883 20.2157 16.9883 20.4746C16.9883 20.7335 17.1982 20.9434 17.457 20.9434H19.1907C19.4495 20.9434 19.6594 20.7335 19.6594 20.4746C19.6594 20.2157 19.4495 20.0059 19.1907 20.0059Z" fill="#6946C6"/>
<path d="M21.8093 20.9434H28.543C28.8019 20.9434 29.0117 20.7335 29.0117 20.4746C29.0117 20.2157 28.8019 20.0059 28.543 20.0059H21.8093C21.5505 20.0059 21.3406 20.2157 21.3406 20.4746C21.3406 20.7335 21.5505 20.9434 21.8093 20.9434Z" fill="#6946C6"/>
<path d="M19.1907 22.6968H17.457C17.1982 22.6968 16.9883 22.9067 16.9883 23.1655C16.9883 23.4244 17.1982 23.6343 17.457 23.6343H19.1907C19.4495 23.6343 19.6594 23.4244 19.6594 23.1655C19.6594 22.9067 19.4495 22.6968 19.1907 22.6968Z" fill="#6946C6"/>
<path d="M21.8093 23.6343H28.543C28.8019 23.6343 29.0117 23.4244 29.0117 23.1655C29.0117 22.9067 28.8019 22.6968 28.543 22.6968H21.8093C21.5505 22.6968 21.3406 22.9067 21.3406 23.1655C21.3406 23.4244 21.5505 23.6343 21.8093 23.6343Z" fill="#6946C6"/>
<path d="M19.4456 36.2378C19.1867 36.2378 18.9768 36.4476 18.9768 36.7065C18.9768 36.9655 19.1867 37.1753 19.4456 37.1753H26.5544C26.8133 37.1753 27.0231 36.9655 27.0231 36.7065C27.0231 36.4476 26.8133 36.2378 26.5544 36.2378H19.4456Z" fill="#6946C6"/>
<path d="M38.5312 26.0198H36.5309L37.7344 17.8713C37.7721 17.6152 37.5952 17.3769 37.3391 17.3391C37.083 17.301 36.8448 17.4782 36.8069 17.7344L35.5832 26.0198H31.6356V11.4188L37.4781 12.3595C37.5196 12.3662 37.5446 12.39 37.5582 12.4089C37.5718 12.4278 37.5866 12.459 37.579 12.5065L37.0859 15.8445C37.0482 16.1006 37.2251 16.3389 37.4812 16.3767C37.5044 16.3801 37.5274 16.3818 37.5502 16.3818C37.7787 16.3818 37.9789 16.2144 38.0134 15.9815L38.5054 12.6495C38.5505 12.3699 38.4839 12.0894 38.3179 11.8598C38.1521 11.6302 37.9066 11.4789 37.6269 11.4339L31.6356 10.4692V9.51173C31.6356 8.92698 31.1599 8.45117 30.5751 8.45117H22.3931C22.1342 8.45117 21.9244 8.66105 21.9244 8.91992C21.9244 9.1788 22.1342 9.38867 22.3931 9.38867H30.5751C30.643 9.38867 30.6982 9.44386 30.6982 9.51173V26.0198H28.2129C27.6211 26.0198 27.0844 26.3922 26.8773 26.9466L26.4123 28.1915C26.3414 28.3813 26.1576 28.5089 25.9549 28.5089H20.0452C19.8426 28.5089 19.6587 28.3813 19.5878 28.1915L19.1228 26.9465C18.9157 26.3922 18.3789 26.0198 17.7872 26.0198H15.3019V9.51173C15.3019 9.44392 15.3571 9.38867 15.4249 9.38867H20.5189C20.7778 9.38867 20.9877 9.1788 20.9877 8.91992C20.9877 8.66105 20.7778 8.45117 20.5189 8.45117H15.4249C14.8402 8.45117 14.3644 8.92692 14.3644 9.51173V10.4692L8.373 11.4339C8.09331 11.4789 7.84794 11.6301 7.68194 11.8597C7.516 12.0894 7.44944 12.3698 7.4935 12.6435L9.46913 26.0198H7.46875C7.20987 26.0198 7 26.2296 7 26.4885V35.1464C7 37.5736 8.97475 39.5484 11.402 39.5484H13.4329C13.6918 39.5484 13.9016 39.3385 13.9016 39.0796C13.9016 38.8207 13.6918 38.6109 13.4329 38.6109H11.402C9.49169 38.6109 7.9375 37.0567 7.9375 35.1464V26.9573H17.7871C17.9897 26.9573 18.1736 27.0848 18.2444 27.2747L18.7095 28.5196C18.9166 29.0739 19.4534 29.4464 20.0451 29.4464H25.9549C26.5466 29.4464 27.0834 29.0739 27.2904 28.5195L27.7554 27.2747C27.8264 27.0849 28.0102 26.9573 28.2128 26.9573H38.0624V35.1464C38.0624 37.0567 36.5083 38.6109 34.5979 38.6109H15.3071C15.0482 38.6109 14.8383 38.8207 14.8383 39.0796C14.8383 39.3385 15.0482 39.5484 15.3071 39.5484H34.598C37.0252 39.5484 39 37.5736 39 35.1464V26.4885C39 26.2297 38.7901 26.0198 38.5312 26.0198ZM8.42006 12.5005C8.41338 12.4589 8.42819 12.4277 8.44181 12.4089C8.45544 12.39 8.48037 12.3662 8.522 12.3595L14.3644 11.4188V26.0198H10.4167L8.42006 12.5005Z" fill="#6946C6"/>
</svg>
