<svg width="46" height="46" viewBox="0 0 46 46" fill="none" xmlns="http://www.w3.org/2000/svg">
<rect width="46" height="46" rx="8" fill="#F6F6F6"/>
<path d="M34.4609 12.0312H26.292C26.0115 12.0312 25.7841 12.2586 25.7841 12.5391C25.7841 12.8195 26.0115 13.0469 26.292 13.0469H34.4609C35.301 13.0469 35.9844 13.7303 35.9844 14.5703V26.8594H12.0156V14.5703C12.0156 13.7303 12.699 13.0469 13.5391 13.0469H21.7216C22.0021 13.0469 22.2295 12.8195 22.2295 12.5391C22.2295 12.2586 22.0021 12.0312 21.7216 12.0312H13.5391C12.139 12.0312 11 13.1703 11 14.5703V31.4297C11 32.8297 12.139 33.9688 13.5391 33.9688H34.4609C35.861 33.9688 37 32.8297 37 31.4297V14.5703C37 13.1703 35.861 12.0312 34.4609 12.0312ZM34.4609 32.9531H13.5391C12.699 32.9531 12.0156 32.2697 12.0156 31.4297V27.875H35.9844V31.4297C35.9844 32.2697 35.301 32.9531 34.4609 32.9531Z" fill="#6946C6"/>
<path d="M16.0742 28.8906C15.2342 28.8906 14.5508 29.574 14.5508 30.4141C14.5508 31.2541 15.2342 31.9375 16.0742 31.9375C16.9142 31.9375 17.5977 31.2541 17.5977 30.4141C17.5977 29.574 16.9142 28.8906 16.0742 28.8906ZM16.0742 30.9219C15.7942 30.9219 15.5664 30.6941 15.5664 30.4141C15.5664 30.1341 15.7942 29.9062 16.0742 29.9062C16.3542 29.9062 16.582 30.1341 16.582 30.4141C16.582 30.6941 16.3542 30.9219 16.0742 30.9219Z" fill="#6946C6"/>
<path d="M32.9414 29.9062H20.2925C20.012 29.9062 19.7847 30.1336 19.7847 30.4141C19.7847 30.6945 20.012 30.9219 20.2925 30.9219H32.9414C33.2218 30.9219 33.4492 30.6945 33.4492 30.4141C33.4492 30.1336 33.2218 29.9062 32.9414 29.9062Z" fill="#6946C6"/>
<path d="M21.4043 18.4135V21.4931C21.4043 22.0168 21.675 22.4856 22.1284 22.7474C22.3552 22.8783 22.6039 22.9438 22.8526 22.9438C23.1013 22.9438 23.35 22.8783 23.5768 22.7474L26.2438 21.2076C26.6972 20.9458 26.9679 20.4769 26.9679 19.9533C26.9679 19.4298 26.6972 18.9608 26.2438 18.6991L23.5768 17.1592C23.1234 16.8974 22.582 16.8974 22.1285 17.1592C21.675 17.421 21.4043 17.8899 21.4043 18.4135ZM22.4199 18.4135C22.4199 18.188 22.5713 18.0763 22.6363 18.0388C22.6758 18.016 22.7549 17.9792 22.8548 17.9792C22.9193 17.9792 22.9924 17.9946 23.069 18.0388L25.736 19.5786C25.9312 19.6913 25.9523 19.8782 25.9523 19.9533C25.9523 20.0284 25.9312 20.2153 25.736 20.328L23.069 21.8679C22.8737 21.9805 22.7014 21.9054 22.6363 21.8679C22.5713 21.8303 22.42 21.7186 22.42 21.4931V18.4135H22.4199Z" fill="#6946C6"/>
<path d="M24.0066 13.0469C24.1401 13.0469 24.2712 12.9925 24.3656 12.8981C24.46 12.8036 24.5144 12.6726 24.5144 12.5391C24.5144 12.4055 24.4601 12.2745 24.3656 12.18C24.2712 12.0856 24.1401 12.0312 24.0066 12.0312C23.873 12.0312 23.742 12.0856 23.6471 12.18C23.5526 12.2745 23.4988 12.4055 23.4988 12.5391C23.4988 12.6726 23.5526 12.8036 23.6471 12.8981C23.742 12.9925 23.873 13.0469 24.0066 13.0469Z" fill="#6946C6"/>
</svg>
