<svg width="46" height="46" viewBox="0 0 46 46" fill="none" xmlns="http://www.w3.org/2000/svg">
<rect width="46" height="46" rx="8" fill="#F6F6F6"/>
<path d="M34.1863 29.6435H33.7316V17.8208C33.7316 16.8179 32.9156 16.0019 31.9127 16.0019H28.6842V11.4547C28.6842 11.2036 28.4806 11 28.2295 11H17.7709C17.5198 11 17.3162 11.2036 17.3162 11.4547V16.0019H14.0877C13.0848 16.0019 12.2688 16.8179 12.2688 17.8208V29.6435H11.8141C11.563 29.6435 11.3594 29.8471 11.3594 30.0982V31.4624C11.3594 32.4653 12.1753 33.2812 13.1783 33.2812H32.8221C33.8251 33.2812 34.641 32.4653 34.641 31.4624V30.0982C34.641 29.8471 34.4374 29.6435 34.1863 29.6435ZM18.2256 11.9094H27.7747V26.0057H18.2256C18.2256 25.5539 18.2256 12.347 18.2256 11.9094ZM29.1389 26.9152C29.39 26.9152 29.5936 26.7116 29.5936 26.4605C29.5936 26.2094 29.39 26.0057 29.1389 26.0057H28.6842V18.7302H31.0033V27.8246H14.9971V18.7302H17.3162V26.0057H16.8615C16.6104 26.0057 16.4068 26.2094 16.4068 26.4605C16.4068 26.7116 16.6104 26.9152 16.8615 26.9152H29.1389ZM13.1783 17.8208C13.1783 17.3193 13.5862 16.9114 14.0877 16.9114H17.3162V17.8208H14.5424C14.2913 17.8208 14.0877 18.0244 14.0877 18.2755V28.2793C14.0877 28.5304 14.2913 28.7341 14.5424 28.7341H31.458C31.7091 28.7341 31.9127 28.5304 31.9127 28.2793V18.2755C31.9127 18.0244 31.7091 17.8208 31.458 17.8208H28.6842V16.9114H31.9127C32.4142 16.9114 32.8221 17.3193 32.8221 17.8208V29.6435H13.1783V17.8208ZM33.7316 31.4624C33.7316 31.9638 33.3236 32.3718 32.8221 32.3718H13.1783C12.6768 32.3718 12.2688 31.9638 12.2688 31.4624V30.5529H33.7316V31.4624Z" fill="#6946C6"/>
<path d="M21.5086 19.2799C21.9235 19.5514 22.2234 19.6518 22.606 19.6837V19.9192C22.606 20.1703 22.8097 20.3739 23.0608 20.3739C23.3119 20.3739 23.5155 20.1703 23.5155 19.9192V19.6299C24.2324 19.4299 24.6917 18.8099 24.7945 18.1981C24.9294 17.3957 24.4938 16.6705 23.7105 16.3936C23.2584 16.2338 22.7581 16.0405 22.4748 15.8183C22.2465 15.6393 22.3394 15.0398 22.7642 14.9119C23.3325 14.7407 23.7001 15.0517 23.7155 15.065L23.7105 15.0605L23.7109 15.06C23.7943 15.1368 23.9049 15.181 24.0189 15.181C24.2693 15.181 24.4736 14.9769 24.4736 14.7263C24.4736 14.6062 24.4249 14.4894 24.3403 14.4048C24.3359 14.4004 24.3311 14.3966 24.3266 14.3924L24.327 14.3919C24.3078 14.3743 24.0086 14.1051 23.5154 13.996V13.7282C23.5154 13.4771 23.3118 13.2734 23.0607 13.2734C22.8096 13.2734 22.606 13.4771 22.606 13.7282V14.0125C22.5717 14.021 22.537 14.0305 22.5019 14.041C21.9732 14.2003 21.5784 14.6515 21.4716 15.2185C21.3735 15.7392 21.5428 16.2432 21.9135 16.5339C22.2253 16.7785 22.6581 16.9862 23.4074 17.251C23.9391 17.439 23.9274 17.8705 23.8976 18.0473C23.8381 18.4013 23.5404 18.7839 23.0272 18.7873C22.5375 18.7903 22.3844 18.7662 22.0064 18.5189C21.7963 18.3813 21.5145 18.4403 21.3769 18.6504C21.2395 18.8606 21.2984 19.1424 21.5086 19.2799Z" fill="#6946C6"/>
<path d="M25.9557 21.4585H20.0443C19.7932 21.4585 19.5896 21.6621 19.5896 21.9132C19.5896 22.1643 19.7932 22.3679 20.0443 22.3679H25.9557C26.2068 22.3679 26.4104 22.1643 26.4104 21.9132C26.4104 21.6621 26.2068 21.4585 25.9557 21.4585Z" fill="#6946C6"/>
<path d="M25.9557 23.7319H20.0443C19.7932 23.7319 19.5896 23.9356 19.5896 24.1867C19.5896 24.4377 19.7932 24.6414 20.0443 24.6414H25.9557C26.2068 24.6414 26.4104 24.4377 26.4104 24.1867C26.4104 23.9356 26.2068 23.7319 25.9557 23.7319Z" fill="#6946C6"/>
</svg>
