<svg width="46" height="46" viewBox="0 0 46 46" fill="none" xmlns="http://www.w3.org/2000/svg">
<rect width="46" height="46" rx="8" fill="#F6F6F6"/>
<g clip-path="url(#clip0_6279_11249)">
<path d="M30.6204 26.5826V21.227C30.5897 20.3986 29.4009 20.3992 29.3705 21.227V26.5827C29.3192 26.6007 29.269 26.6206 29.2198 26.6428C28.8558 25.6271 27.5399 25.1105 26.5726 25.6493C26.1675 24.8613 25.118 24.4418 24.261 24.7748V19.005C24.1653 16.4912 20.5619 16.4932 20.4672 19.005V25.481C19.7603 25.57 19.1272 26.0549 18.8921 26.7669L17.5848 30.7252C17.4343 31.1806 17.4035 31.6128 17.495 32.042H15.9827C15.6381 32.042 15.3577 31.7616 15.3577 31.417V9.875C15.3577 9.53037 15.6381 9.25 15.9827 9.25H28.7455C29.0901 9.25 29.3705 9.53037 29.3705 9.875V15.6019C29.4013 16.4303 30.5901 16.4297 30.6205 15.6019V9.875C30.6205 8.84112 29.7794 8 28.7455 8H15.9827C14.9488 8 14.1077 8.84112 14.1077 9.875V31.417C14.1077 32.4509 14.9488 33.292 15.9827 33.292H18.1192L20.4672 36.3988V39.3751C20.4672 39.7202 20.747 40.0001 21.0922 40.0001H31.2673C31.6125 40.0001 31.8923 39.7202 31.8923 39.3751V28.3737C31.8923 27.5466 31.3603 26.8415 30.6204 26.5826ZM30.6423 38.75H21.7172V36.1891C21.7172 36.0531 21.6728 35.9208 21.5908 35.8123L18.9457 32.3123C18.6757 31.8757 18.6288 31.5495 18.7717 31.1171L20.079 27.1588C20.1422 26.9675 20.2895 26.8242 20.4671 26.7572V29.5542C20.4978 30.3826 21.6867 30.382 21.7171 29.5542V19.0049C21.7497 18.1477 22.9786 18.1483 23.0109 19.0049V26.558C23.0416 27.3864 24.2305 27.3858 24.2609 26.558C24.2935 25.7008 25.5224 25.7014 25.5547 26.558V27.33C25.5855 28.1583 26.7743 28.1577 26.8047 27.33C26.8374 26.4727 28.0662 26.4733 28.0985 27.3299V28.3738C28.1273 29.2013 29.32 29.2008 29.3485 28.3738C29.3809 27.5169 30.6099 27.5169 30.6423 28.3738V38.75Z" fill="#6946C6"/>
<path d="M25.8994 14.8226C26.4418 14.8323 26.7376 14.1401 26.3414 13.7557C24.2476 11.5736 20.4801 11.5736 18.3864 13.7557C18.1424 13.9997 18.1424 14.3955 18.3864 14.6396C18.6305 14.8837 19.0262 14.8837 19.2704 14.6396C20.8988 12.9424 23.8291 12.9424 25.4575 14.6396C25.5795 14.7616 25.7395 14.8226 25.8994 14.8226Z" fill="#6946C6"/>
<path d="M20.154 15.5235C19.5891 16.129 20.4331 16.9721 21.038 16.4075C21.7359 15.68 22.9916 15.6801 23.6896 16.4075C24.295 16.9723 25.1382 16.1284 24.5735 15.5235C23.4102 14.3111 21.3173 14.3112 20.154 15.5235Z" fill="#6946C6"/>
<path d="M29.9954 17.7896C29.6502 17.7896 29.3704 18.0696 29.3704 18.4147C29.401 19.2429 30.5899 19.2426 30.6204 18.4147V18.4143C30.6204 18.0691 30.3405 17.7896 29.9954 17.7896Z" fill="#6946C6"/>
</g>
<defs>
<clipPath id="clip0_6279_11249">
<rect width="32" height="32" fill="white" transform="translate(7 8)"/>
</clipPath>
</defs>
</svg>
