<svg width="46" height="46" viewBox="0 0 46 46" fill="none" xmlns="http://www.w3.org/2000/svg">
<rect width="46" height="46" rx="8" fill="#F6F6F6"/>
<path d="M13.0469 13.5625C13.1401 13.5625 13.2295 13.5255 13.2955 13.4595C13.3614 13.3936 13.3984 13.3042 13.3984 13.2109V13.0938C13.3984 13.0005 13.3614 12.9111 13.2955 12.8452C13.2295 12.7792 13.1401 12.7422 13.0469 12.7422C12.9536 12.7422 12.8642 12.7792 12.7983 12.8452C12.7324 12.9111 12.6953 13.0005 12.6953 13.0938V13.2109C12.6953 13.3042 12.7324 13.3936 12.7983 13.4595C12.8642 13.5255 12.9536 13.5625 13.0469 13.5625Z" fill="#6946C6"/>
<path d="M12.6953 19.7734C12.6953 19.8667 12.7324 19.9561 12.7983 20.022C12.8642 20.088 12.9536 20.125 13.0469 20.125C13.1401 20.125 13.2295 20.088 13.2955 20.022C13.3614 19.9561 13.3984 19.8667 13.3984 19.7734V14.3828C13.3984 14.2896 13.3614 14.2002 13.2955 14.1342C13.2295 14.0683 13.1401 14.0312 13.0469 14.0312C12.9536 14.0312 12.8642 14.0683 12.7983 14.1342C12.7324 14.2002 12.6953 14.2896 12.6953 14.3828V19.7734Z" fill="#6946C6"/>
<path d="M14.5117 26.5156C14.5117 26.7098 14.6971 26.8633 14.8913 26.8633H18.6725C18.7184 26.8637 18.764 26.855 18.8066 26.8378C18.8491 26.8205 18.8878 26.7949 18.9204 26.7626C18.9531 26.7303 18.979 26.6918 18.9966 26.6494C19.0143 26.607 19.0234 26.5616 19.0234 26.5156V25.8932C19.0234 25.8 18.9864 25.7105 18.9205 25.6446C18.8545 25.5787 18.7651 25.5416 18.6719 25.5416C18.5786 25.5416 18.4892 25.5787 18.4233 25.6446C18.3574 25.7105 18.3203 25.8 18.3203 25.8932V26.1602H15.2148V23.1133H18.0123C18.1056 23.1133 18.195 23.0762 18.2609 23.0103C18.3269 22.9444 18.3639 22.855 18.3639 22.7617C18.3639 22.6685 18.3269 22.5791 18.2609 22.5131C18.195 22.4472 18.1056 22.4102 18.0123 22.4102H14.8913C14.6971 22.4102 14.5117 22.5402 14.5117 22.7344V26.5156Z" fill="#6946C6"/>
<path d="M18.7742 23.4281L17.3709 24.6048L16.8912 24.1252C16.8587 24.0921 16.8199 24.0658 16.7771 24.0478C16.7343 24.0298 16.6884 24.0204 16.642 24.0202C16.5956 24.02 16.5496 24.0291 16.5067 24.0467C16.4638 24.0644 16.4248 24.0904 16.392 24.1232C16.3592 24.156 16.3332 24.195 16.3155 24.238C16.2979 24.2809 16.2889 24.3269 16.2891 24.3733C16.2893 24.4197 16.2986 24.4656 16.3167 24.5083C16.3347 24.5511 16.361 24.5899 16.3941 24.6224L17.1013 25.3297C17.1635 25.3919 17.2467 25.4286 17.3346 25.4324C17.4224 25.4363 17.5086 25.407 17.5759 25.3505L19.2263 23.9669C19.2978 23.907 19.3425 23.8211 19.3507 23.7282C19.3589 23.6353 19.3299 23.543 19.27 23.4715C19.2101 23.4 19.1242 23.3553 19.0313 23.3471C18.9384 23.3389 18.8461 23.3679 18.7746 23.4278L18.7742 23.4281Z" fill="#6946C6"/>
<path d="M20.8716 24.1094H26.1121C26.2054 24.1094 26.2948 24.0723 26.3607 24.0064C26.4267 23.9405 26.4637 23.8511 26.4637 23.7578C26.4637 23.6646 26.4267 23.5752 26.3607 23.5092C26.2948 23.4433 26.2054 23.4062 26.1121 23.4062H20.8716C20.7783 23.4062 20.6889 23.4433 20.623 23.5092C20.5571 23.5752 20.52 23.6646 20.52 23.7578C20.52 23.8511 20.5571 23.9405 20.623 24.0064C20.6889 24.0723 20.7783 24.1094 20.8716 24.1094Z" fill="#6946C6"/>
<path d="M20.8716 25.8086H28.8182C28.9114 25.8086 29.0008 25.7716 29.0668 25.7056C29.1327 25.6397 29.1697 25.5503 29.1697 25.457C29.1697 25.3638 29.1327 25.2744 29.0668 25.2084C29.0008 25.1425 28.9114 25.1055 28.8182 25.1055H20.8716C20.7783 25.1055 20.6889 25.1425 20.623 25.2084C20.5571 25.2744 20.52 25.3638 20.52 25.457C20.52 25.5503 20.5571 25.6397 20.623 25.7056C20.6889 25.7716 20.7783 25.8086 20.8716 25.8086Z" fill="#6946C6"/>
<path d="M14.5117 33.25C14.5117 33.3432 14.5488 33.4327 14.6147 33.4986C14.6806 33.5645 14.77 33.6016 14.8633 33.6016H18.6719C18.7651 33.6016 18.8545 33.5645 18.9205 33.4986C18.9864 33.4327 19.0234 33.3432 19.0234 33.25V29.4414C19.0234 29.3482 18.9864 29.2587 18.9205 29.1928C18.8545 29.1269 18.7651 29.0898 18.6719 29.0898H14.8633C14.77 29.0898 14.6806 29.1269 14.6147 29.1928C14.5488 29.2587 14.5117 29.3482 14.5117 29.4414V33.25ZM15.2148 29.793H18.3203V32.8984H15.2148V29.793Z" fill="#6946C6"/>
<path d="M20.8716 30.8477H26.1121C26.2054 30.8477 26.2948 30.8106 26.3607 30.7447C26.4267 30.6788 26.4637 30.5893 26.4637 30.4961C26.4637 30.4029 26.4267 30.3134 26.3607 30.2475C26.2948 30.1816 26.2054 30.1445 26.1121 30.1445H20.8716C20.7783 30.1445 20.6889 30.1816 20.623 30.2475C20.5571 30.3134 20.52 30.4029 20.52 30.4961C20.52 30.5893 20.5571 30.6788 20.623 30.7447C20.6889 30.8106 20.7783 30.8477 20.8716 30.8477Z" fill="#6946C6"/>
<path d="M18.0123 15.7305H14.8913C14.7927 15.7348 14.6992 15.7757 14.6291 15.8451C14.5589 15.9146 14.5171 16.0076 14.5117 16.1062V19.8875C14.5117 20.0816 14.6971 20.2422 14.8913 20.2422H18.6725C18.766 20.2414 18.8554 20.2037 18.9212 20.1372C18.9869 20.0708 19.0237 19.981 19.0234 19.8875V19.265C19.0234 19.1717 18.9864 19.0823 18.9205 19.0164C18.8545 18.9504 18.7651 18.9134 18.6719 18.9134C18.5786 18.9134 18.4892 18.9504 18.4233 19.0164C18.3574 19.0823 18.3203 19.1717 18.3203 19.265V19.5391H15.2148V16.4336H18.0123C18.1056 16.4336 18.195 16.3966 18.2609 16.3306C18.3269 16.2647 18.3639 16.1753 18.3639 16.082C18.3639 15.9888 18.3269 15.8994 18.2609 15.8334C18.195 15.7675 18.1056 15.7305 18.0123 15.7305Z" fill="#6946C6"/>
<path d="M19.2698 16.8425C19.2098 16.771 19.124 16.7263 19.0312 16.7181C18.9383 16.71 18.846 16.739 18.7745 16.7989L17.3713 17.9757L16.8917 17.4961C16.8254 17.4316 16.7365 17.3959 16.6441 17.3965C16.5517 17.3971 16.4632 17.4341 16.3979 17.4995C16.3325 17.5648 16.2956 17.6533 16.2949 17.7457C16.2943 17.8381 16.3301 17.927 16.3946 17.9933L17.1018 18.7008C17.1639 18.763 17.2472 18.7997 17.335 18.8036C17.4229 18.8074 17.509 18.7782 17.5764 18.7217L19.2267 17.3381C19.2621 17.3084 19.2913 17.272 19.3126 17.231C19.3339 17.19 19.347 17.1452 19.351 17.0992C19.355 17.0532 19.3498 17.0068 19.3359 16.9627C19.322 16.9187 19.2995 16.8778 19.2698 16.8425Z" fill="#6946C6"/>
<path d="M20.8716 17.4883H26.1121C26.2054 17.4883 26.2948 17.4512 26.3607 17.3853C26.4267 17.3194 26.4637 17.23 26.4637 17.1367C26.4637 17.0435 26.4267 16.9541 26.3607 16.8881C26.2948 16.8222 26.2054 16.7852 26.1121 16.7852H20.8716C20.7783 16.7852 20.6889 16.8222 20.623 16.8881C20.5571 16.9541 20.52 17.0435 20.52 17.1367C20.52 17.23 20.5571 17.3194 20.623 17.3853C20.6889 17.4512 20.7783 17.4883 20.8716 17.4883Z" fill="#6946C6"/>
<path d="M20.8716 19.1875H28.8182C28.9114 19.1875 29.0008 19.1505 29.0668 19.0845C29.1327 19.0186 29.1697 18.9292 29.1697 18.8359C29.1697 18.7427 29.1327 18.6533 29.0668 18.5873C29.0008 18.5214 28.9114 18.4844 28.8182 18.4844H20.8716C20.7783 18.4844 20.6889 18.5214 20.623 18.5873C20.5571 18.6533 20.52 18.7427 20.52 18.8359C20.52 18.9292 20.5571 19.0186 20.623 19.0845C20.6889 19.1505 20.7783 19.1875 20.8716 19.1875Z" fill="#6946C6"/>
<path d="M35.2514 21.7188L32.6758 24.2911V12.4903C32.6749 12.2141 32.6195 11.9409 32.5128 11.6862C32.4062 11.4315 32.2503 11.2004 32.0541 11.0061C31.8579 10.8118 31.6253 10.6581 31.3696 10.5538C31.1139 10.4495 30.8402 10.3967 30.5641 10.3985H29.9805V9.48008C29.9805 8.9051 29.7521 8.35367 29.3455 7.94709C28.9389 7.54052 28.3875 7.31211 27.8125 7.31211C27.2375 7.31211 26.6861 7.54052 26.2795 7.94709C25.8729 8.35367 25.6445 8.9051 25.6445 9.48008V10.3985H18.0273V9.44727C18.0273 8.87228 17.7989 8.32085 17.3924 7.91428C16.9858 7.50771 16.4344 7.2793 15.8594 7.2793C15.2844 7.2793 14.733 7.50771 14.3264 7.91428C13.9198 8.32085 13.6914 8.87228 13.6914 9.44727V10.3985H13.1453C12.5908 10.3985 12.0591 10.6187 11.667 11.0108C11.2749 11.4029 11.0547 11.9346 11.0547 12.4891V14.5C11.0547 14.5933 11.0917 14.6827 11.1577 14.7486C11.2236 14.8146 11.313 14.8516 11.4062 14.8516C11.4995 14.8516 11.5889 14.8146 11.6548 14.7486C11.7208 14.6827 11.7578 14.5933 11.7578 14.5V12.4903C11.7578 12.122 11.9041 11.7688 12.1645 11.5083C12.425 11.2479 12.7782 11.1016 13.1465 11.1016H13.6914V12.2474C13.6923 12.3443 13.73 12.4371 13.7968 12.5073C13.8637 12.5774 13.9546 12.6195 14.0513 12.625H17.6567C17.7546 12.6199 17.8469 12.5783 17.9155 12.5083C17.9841 12.4384 18.024 12.3453 18.0273 12.2474V11.1016H25.6445V12.2474C25.6445 12.4416 25.7929 12.625 25.9871 12.625H29.6582C29.8524 12.625 29.9805 12.4416 29.9805 12.2474V11.1016H30.5641C30.7479 11.0997 30.9303 11.1343 31.1007 11.2031C31.2711 11.272 31.4263 11.3739 31.5572 11.503C31.6881 11.632 31.7922 11.7857 31.8635 11.9551C31.9348 12.1246 31.9719 12.3064 31.9727 12.4903V24.9927L27.0039 29.9509C26.9673 29.9871 26.9391 30.031 26.9213 30.0793L26.2783 31.8438H20.8715C20.7783 31.8438 20.6889 31.8808 20.623 31.9468C20.557 32.0127 20.52 32.1021 20.52 32.1954C20.52 32.2886 20.557 32.378 20.623 32.4439C20.6889 32.5099 20.7783 32.5469 20.8715 32.5469H26.0219L25.4325 34.1641C25.4097 34.227 25.4052 34.2951 25.4197 34.3604C25.4341 34.4257 25.467 34.4856 25.5143 34.5329C25.5616 34.5802 25.6214 34.613 25.6867 34.6275C25.752 34.642 25.8201 34.6376 25.883 34.6147L29.9676 33.1265C30.0159 33.1088 30.0597 33.0808 30.096 33.0444L31.9727 31.1641V34.5977C31.9727 34.9707 31.8245 35.3283 31.5608 35.5921C31.2971 35.8558 30.9394 36.0039 30.5664 36.0039H13.1453C12.7773 36.0039 12.4244 35.8578 12.1642 35.5976C11.904 35.3374 11.7578 34.9844 11.7578 34.6164V16.961C11.7578 16.8677 11.7208 16.7783 11.6548 16.7124C11.5889 16.6465 11.4995 16.6094 11.4062 16.6094C11.313 16.6094 11.2236 16.6465 11.1577 16.7124C11.0917 16.7783 11.0547 16.8677 11.0547 16.961V34.6164C11.0547 35.1709 11.2749 35.7027 11.667 36.0947C12.0591 36.4868 12.5908 36.7071 13.1453 36.7071H30.5641C31.1236 36.7054 31.6598 36.4824 32.0555 36.0868C32.4511 35.6911 32.6741 35.1549 32.6758 34.5954V30.4597L38.3281 24.7968C38.7363 24.3888 38.9657 23.8354 38.9658 23.2583C38.9659 22.6812 38.7367 22.1277 38.3287 21.7195C37.9207 21.3113 37.3673 21.082 36.7902 21.0819C36.2131 21.0818 35.6595 21.3109 35.2514 21.7189V21.7188ZM17.3242 11.9219H14.3945V9.44727C14.3945 9.05876 14.5489 8.68618 14.8236 8.41146C15.0983 8.13675 15.4709 7.98242 15.8594 7.98242C16.2479 7.98242 16.6205 8.13675 16.8952 8.41146C17.1699 8.68618 17.3242 9.05876 17.3242 9.44727V11.9219ZM29.2773 11.9219H26.3477V9.48008C26.3477 9.09158 26.502 8.71899 26.7767 8.44428C27.0514 8.16957 27.424 8.01523 27.8125 8.01523C28.201 8.01523 28.5736 8.16957 28.8483 8.44428C29.123 8.71899 29.2773 9.09158 29.2773 9.48008V11.9219ZM34.3004 23.6604L35.104 24.464L28.5584 31.0096L27.7486 30.1999L34.3004 23.6604ZM26.3514 33.6954L26.6521 32.8702L27.1765 33.3946L26.3514 33.6954ZM27.9053 33.1291L26.9177 32.1415L27.3927 30.838L29.2088 32.6541L27.9053 33.1291ZM29.8472 32.2981L29.0556 31.5066L35.6012 24.9612L36.3863 25.7466L29.8472 32.2981ZM37.8305 24.3L36.8834 25.249L34.798 23.1637L35.7469 22.2168C36.0236 21.9427 36.3977 21.7893 36.7872 21.7902C37.1767 21.7912 37.5501 21.9463 37.8255 22.2218C38.101 22.4972 38.2561 22.8705 38.257 23.2601C38.258 23.6496 38.1046 24.0237 37.8304 24.3004L37.8305 24.3Z" fill="#6946C6"/>
</svg>
