<svg width="60" height="59" viewBox="0 0 60 59" fill="none" xmlns="http://www.w3.org/2000/svg">
<path d="M37.6127 43.5193L8.72082 51.7929C8.09754 51.8933 7.51083 51.4693 7.4105 50.8461L0.943653 7.06037C0.843328 6.43709 1.26725 5.85038 1.89053 5.75005L30.7824 1.09819C31.4057 0.997869 31.9924 1.42179 32.0928 2.04507L38.5596 42.209C38.6599 42.8323 38.236 43.419 37.6127 43.5193Z" fill="#DDEAFB"/>
<path d="M22.388 43.5193L51.2799 51.7929C51.9031 51.8933 52.4899 51.4693 52.5902 50.8461L59.057 7.06037C59.1574 6.43709 58.7334 5.85038 58.1102 5.75005L29.2181 1.09819C28.5949 0.997869 28.0081 1.42179 27.9078 2.04507L21.441 42.209C21.3406 42.8323 21.7646 43.419 22.388 43.5193Z" fill="#DDEAFB"/>
<path d="M37.6127 43.5193L8.72082 51.7929C8.09754 51.8933 7.51083 51.4693 7.4105 50.8461L0.943653 7.06037C0.843328 6.43709 1.26725 5.85038 1.89053 5.75005L30.7824 1.09819C31.4057 0.997869 31.9924 1.42179 32.0928 2.04507L38.5596 42.209C38.6599 42.8323 38.236 43.419 37.6127 43.5193Z" fill="#DDEAFB"/>
<path d="M32.0927 2.04507C31.9924 1.42179 31.4057 0.997869 30.7824 1.09819L11.8411 4.1479V44.8983C11.8411 45.6251 12.4302 48.6287 13.157 48.6287H24.324L37.6127 43.5193C38.236 43.419 38.6599 42.8323 38.5596 42.209L32.0927 2.04507Z" fill="#CBE2FF"/>
<path d="M29.2174 1.09819C28.5941 0.997869 28.0074 1.42179 27.9071 2.04507L21.4402 42.209C21.3399 42.8323 21.7638 43.419 22.3871 43.5193L35.6759 48.6287H46.8429C47.5697 48.6287 48.1589 45.6251 48.1589 44.8983V4.1479L29.2174 1.09819Z" fill="#CBE2FF"/>
<path d="M44.6318 42.9676H15.3678C14.7364 42.9676 14.2246 42.4558 14.2246 41.8244V1.14319C14.2246 0.511821 14.7364 0 15.3678 0H44.6318C45.2632 0 45.775 0.511821 45.775 1.14319V41.8244C45.7749 42.4558 45.2632 42.9676 44.6318 42.9676Z" fill="#F4FBFF"/>
<path d="M44.6321 0H41.7927C42.4241 0 42.9359 0.511821 42.9359 1.14319V41.8244C42.9359 42.4558 42.4241 42.9676 41.7927 42.9676H44.6321C45.2634 42.9676 45.7752 42.4558 45.7752 41.8244V1.14319C45.7751 0.511821 45.2634 0 44.6321 0Z" fill="#E4F6FF"/>
<path d="M38.3377 35.1372L37.4393 37.5419C37.1694 38.2645 36.4791 38.7435 35.7077 38.7435H24.2926C23.5211 38.7435 22.8309 38.2645 22.5609 37.5419L21.6625 35.1372C21.3926 34.4146 20.7023 33.9355 19.9309 33.9355H0.88546C0.396494 33.9355 0 34.3319 0 34.821V50.659C0 54.8549 3.40143 58.2563 7.59738 58.2563H52.4027C56.5987 58.2563 60.0001 54.8549 60.0001 50.659V34.8211C60.0001 34.3322 59.6037 33.9357 59.1146 33.9357H40.0693C39.2979 33.9357 38.6076 34.4147 38.3377 35.1372Z" fill="#698ED5"/>
<path d="M18.0217 35.1372L18.92 37.5419C19.19 38.2644 19.8803 38.7435 20.6517 38.7435H24.2923C23.5209 38.7435 22.8307 38.2645 22.5607 37.5419L21.6623 35.1372C21.3924 34.4146 20.7021 33.9355 19.9307 33.9355H16.29C17.0613 33.9357 17.7517 34.4147 18.0217 35.1372Z" fill="#4073C8"/>
<path d="M56.3593 33.9355V50.659C56.3593 54.8549 52.9579 58.2563 48.762 58.2563H52.4026C56.5985 58.2563 60 54.8549 60 50.659V34.821C60 34.332 59.6036 33.9355 59.1145 33.9355H56.3593Z" fill="#4073C8"/>
<path d="M40.3274 48.9439H19.6725C19.308 48.9439 19.0125 48.6484 19.0125 48.2839V43.8583C19.0125 43.4938 19.308 43.1982 19.6725 43.1982H40.3274C40.6919 43.1982 40.9875 43.4938 40.9875 43.8583V48.2839C40.9873 48.6484 40.6919 48.9439 40.3274 48.9439Z" fill="#3B66C1"/>
<path d="M40.3271 43.1982H37.6047C37.9692 43.1982 38.2648 43.4938 38.2648 43.8583V48.2839C38.2648 48.6484 37.9692 48.9439 37.6047 48.9439H40.3271C40.6917 48.9439 40.9872 48.6484 40.9872 48.2839V43.8583C40.9872 43.4937 40.6917 43.1982 40.3271 43.1982Z" fill="#30579D"/>
<path d="M22.6418 7.63108H19.2931C18.793 7.63108 18.3877 7.22568 18.3877 6.7257C18.3877 6.22571 18.7931 5.82031 19.2931 5.82031H22.6418C23.1419 5.82031 23.5472 6.22571 23.5472 6.7257C23.5472 7.22568 23.1419 7.63108 22.6418 7.63108Z" fill="#6946C6"/>
<path d="M40.7069 7.63108H27.7003C27.2002 7.63108 26.7949 7.22568 26.7949 6.7257C26.7949 6.22571 27.2003 5.82031 27.7003 5.82031H40.7069C41.207 5.82031 41.6123 6.22571 41.6123 6.7257C41.6123 7.22568 41.207 7.63108 40.7069 7.63108Z" fill="#6946C6"/>
<path d="M22.6418 12.8288H19.2931C18.793 12.8288 18.3877 12.4234 18.3877 11.9235C18.3877 11.4234 18.7931 11.0181 19.2931 11.0181H22.6418C23.1419 11.0181 23.5472 11.4235 23.5472 11.9235C23.5473 12.4234 23.1419 12.8288 22.6418 12.8288Z" fill="#6946C6"/>
<path d="M40.7069 12.8288H27.7003C27.2002 12.8288 26.7949 12.4234 26.7949 11.9235C26.7949 11.4234 27.2003 11.0181 27.7003 11.0181H40.7069C41.207 11.0181 41.6123 11.4235 41.6123 11.9235C41.6124 12.4234 41.207 12.8288 40.7069 12.8288Z" fill="#6946C6"/>
<path d="M22.6418 18.0266H19.2931C18.793 18.0266 18.3877 17.6212 18.3877 17.1212C18.3877 16.6211 18.7931 16.2158 19.2931 16.2158H22.6418C23.1419 16.2158 23.5472 16.6212 23.5472 17.1212C23.5473 17.6212 23.1419 18.0266 22.6418 18.0266Z" fill="#6946C6"/>
<path d="M40.7069 18.0266H27.7003C27.2002 18.0266 26.7949 17.6212 26.7949 17.1212C26.7949 16.6211 27.2003 16.2158 27.7003 16.2158H40.7069C41.207 16.2158 41.6123 16.6212 41.6123 17.1212C41.6124 17.6212 41.207 18.0266 40.7069 18.0266Z" fill="#6946C6"/>
<path d="M22.6418 23.2239H19.2931C18.793 23.2239 18.3877 22.8185 18.3877 22.3185C18.3877 21.8184 18.7931 21.4131 19.2931 21.4131H22.6418C23.1419 21.4131 23.5472 21.8185 23.5472 22.3185C23.5473 22.8185 23.1419 23.2239 22.6418 23.2239Z" fill="#6946C6"/>
<path d="M40.7069 23.2239H27.7003C27.2002 23.2239 26.7949 22.8185 26.7949 22.3185C26.7949 21.8184 27.2003 21.4131 27.7003 21.4131H40.7069C41.207 21.4131 41.6123 21.8185 41.6123 22.3185C41.6124 22.8185 41.207 23.2239 40.7069 23.2239Z" fill="#6946C6"/>
<path d="M22.6418 28.4221H19.2931C18.793 28.4221 18.3877 28.0167 18.3877 27.5167C18.3877 27.0166 18.7931 26.6113 19.2931 26.6113H22.6418C23.1419 26.6113 23.5472 27.0167 23.5472 27.5167C23.5473 28.0167 23.1419 28.4221 22.6418 28.4221Z" fill="#6946C6"/>
<path d="M40.7069 28.4221H27.7003C27.2002 28.4221 26.7949 28.0167 26.7949 27.5167C26.7949 27.0166 27.2003 26.6113 27.7003 26.6113H40.7069C41.207 26.6113 41.6123 27.0167 41.6123 27.5167C41.6124 28.0167 41.207 28.4221 40.7069 28.4221Z" fill="#6946C6"/>
<path d="M36.8658 54.5779H23.1344C22.6343 54.5779 22.229 54.1726 22.229 53.6725C22.229 53.1724 22.6344 52.7671 23.1344 52.7671H36.8658C37.3659 52.7671 37.7711 53.1724 37.7711 53.6725C37.7711 54.1726 37.3659 54.5779 36.8658 54.5779Z" fill="#30579D"/>
</svg>
