<svg width="55" height="61" viewBox="0 0 55 61" fill="none" xmlns="http://www.w3.org/2000/svg">
<path d="M9.64209 7.57129H54.5862V60.0875H9.64209V7.57129Z" fill="#EDEFF1"/>
<path d="M36.5111 4.3967C36.5111 1.97229 34.5387 0 32.1144 0C29.69 0 27.7177 1.97229 27.7177 4.3967H19.9014V10.7475H44.3275V4.3967H36.5111Z" fill="#6E83B7"/>
<path d="M32.1143 6.53336C33.2947 6.53336 34.2516 5.57647 34.2516 4.39608C34.2516 3.21569 33.2947 2.25879 32.1143 2.25879C30.9339 2.25879 29.9771 3.21569 29.9771 4.39608C29.9771 5.57647 30.9339 6.53336 32.1143 6.53336Z" fill="#466089"/>
<path d="M28.4502 48.084H47.9911V49.7938H28.4502V48.084Z" fill="#D3D3D3"/>
<path d="M28.4502 42.6748H47.9911V44.3846H28.4502V42.6748Z" fill="#D3D3D3"/>
<path d="M28.4502 37.2666H47.9911V38.9764H28.4502V37.2666Z" fill="#D3D3D3"/>
<path d="M28.4502 31.8574H47.9911V33.5673H28.4502V31.8574Z" fill="#D3D3D3"/>
<path d="M28.4502 26.4492H47.9911V28.159H28.4502V26.4492Z" fill="#D3D3D3"/>
<path d="M28.4502 21.041H47.9911V22.7508H28.4502V21.041Z" fill="#D3D3D3"/>
<path d="M28.4502 15.6318H47.9911V17.3417H28.4502V15.6318Z" fill="#D3D3D3"/>
<path d="M28.4502 53.4922H47.9911V55.202H28.4502V53.4922Z" fill="#D3D3D3"/>
<path d="M16.2366 15.6313H26.007V25.4018H16.2366V15.6313Z" fill="#9478DC"/>
<path d="M20.0022 23.7919L17.2451 21.0347L18.2813 19.9983L20.0022 21.7192L23.9623 17.7593L24.9985 18.7956L20.0022 23.7919Z" fill="#E4E4E4"/>
<path d="M16.2366 30.5322H26.007V40.3027H16.2366V30.5322Z" fill="#9478DC"/>
<path d="M20.0022 38.6928L17.2451 35.9356L18.2813 34.8992L20.0022 36.6201L23.9623 32.6602L24.9985 33.6964L20.0022 38.6928Z" fill="#E4E4E4"/>
<path d="M16.2368 45.4316H26.0073V55.2021H16.2368V45.4316Z" fill="#9478DC"/>
<path d="M20.0022 53.5922L17.2451 50.835L18.2813 49.7986L20.0022 51.5195L23.9623 47.5596L24.9985 48.5958L20.0022 53.5922Z" fill="#E4E4E4"/>
<path d="M10.9722 43.7178L12.6991 45.4447L6.7816 51.3622L5.05468 49.6353L10.9722 43.7178Z" fill="#466089"/>
<path d="M6.50952 47.1455L9.27261 49.9086L2.7633 56.4179L0.000213955 53.6548L6.50952 47.1455Z" fill="#6E83B7"/>
<path d="M21.0003 21.9834C13.5809 21.9834 7.56592 27.9983 7.56592 35.4178C7.56592 42.8372 13.5809 48.8521 21.0003 48.8521C28.4197 48.8521 34.4347 42.8372 34.4347 35.4178C34.4347 27.9983 28.4197 21.9834 21.0003 21.9834ZM21.0003 45.4325C15.469 45.4325 10.9856 40.9491 10.9856 35.4178C10.9856 29.8865 15.469 25.4031 21.0003 25.4031C26.5316 25.4031 31.015 29.8865 31.015 35.4178C31.015 40.9491 26.5316 45.4325 21.0003 45.4325Z" fill="#6E83B7"/>
<path d="M9.64209 35.4187C9.64209 41.6916 14.7272 46.7769 21.0002 46.7769C27.2732 46.7769 32.3584 41.6917 32.3584 35.4187C32.3584 29.1458 27.2732 24.0605 21.0002 24.0605C14.7272 24.0605 9.64209 29.1457 9.64209 35.4187ZM10.9855 35.4187C10.9855 29.8876 15.4693 25.404 21.0002 25.404C26.5312 25.404 31.015 29.8878 31.015 35.4187C31.015 40.9498 26.5312 45.4334 21.0002 45.4334C15.4692 45.4334 10.9855 40.9496 10.9855 35.4187Z" fill="#466089"/>
</svg>
