<svg width="46" height="46" viewBox="0 0 46 46" fill="none" xmlns="http://www.w3.org/2000/svg">
<rect width="46" height="46" rx="8" fill="#F6F6F6"/>
<path d="M21.1602 18.1953C21.4728 18.1953 21.7266 17.9415 21.7266 17.6289C21.7266 17.3163 21.4728 17.0625 21.1602 17.0625C20.8475 17.0625 20.5938 17.3163 20.5938 17.6289C20.5938 17.9415 20.8475 18.1953 21.1602 18.1953Z" fill="#6946C6"/>
<path d="M21.1602 20.4609C21.4728 20.4609 21.7266 20.2072 21.7266 19.8945C21.7266 19.5819 21.4728 19.3281 21.1602 19.3281C20.8475 19.3281 20.5938 19.5819 20.5938 19.8945C20.5938 20.2072 20.8475 20.4609 21.1602 20.4609Z" fill="#6946C6"/>
<path d="M35.8341 13.83L30.17 8.16594C30.0698 8.06549 29.9242 8 29.7695 8H15.4961C14.5591 8 13.7969 8.76221 13.7969 9.69922V11.4245C13.6088 11.4075 13.4196 11.3984 13.2305 11.3984C9.79508 11.3984 7 14.1935 7 17.6289C7 21.0643 9.79508 23.8594 13.2305 23.8594C13.4196 23.8594 13.6088 23.8503 13.7969 23.8333V35.3008C13.7969 36.2378 14.5591 37 15.4961 37H34.3008C35.2378 37 36 36.2378 36 35.3008V14.2305C36 14.0758 35.9356 13.9316 35.8341 13.83ZM30.3359 9.93375L34.0663 13.6641H30.3359V9.93375ZM13.7969 12.5629C16.1886 12.8268 18.0339 14.7338 18.2954 17.0625H13.7969V12.5629ZM8.13281 17.6289C8.13281 15.0095 10.1188 12.8456 12.6641 12.5629V17.6289C12.6641 17.9418 12.9176 18.1946 13.2305 18.1946H18.2954C18.0108 20.7284 15.8671 22.7266 13.2305 22.7266C10.4197 22.7266 8.13281 20.4397 8.13281 17.6289ZM34.3008 35.8672H15.4961C15.1837 35.8672 14.9297 35.6132 14.9297 35.3008V23.6235C17.5812 22.873 19.4609 20.4238 19.4609 17.6289C19.4609 14.834 17.5812 12.3848 14.9297 11.6343V9.69922C14.9297 9.38681 15.1837 9.13281 15.4961 9.13281H29.2031V14.2305C29.2031 14.5433 29.4567 14.7969 29.7695 14.7969H34.8672V35.3008C34.8672 35.6132 34.6132 35.8672 34.3008 35.8672Z" fill="#6946C6"/>
<path d="M21.5 12.5312H27.5039C27.8168 12.5312 28.0703 12.2777 28.0703 11.9648C28.0703 11.652 27.8168 11.3984 27.5039 11.3984H21.5C21.1871 11.3984 20.9336 11.652 20.9336 11.9648C20.9336 12.2777 21.1871 12.5312 21.5 12.5312Z" fill="#6946C6"/>
<path d="M21.5 14.7969H27.5039C27.8168 14.7969 28.0703 14.5433 28.0703 14.2305C28.0703 13.9176 27.8168 13.6641 27.5039 13.6641H21.5C21.1871 13.6641 20.9336 13.9176 20.9336 14.2305C20.9336 14.5433 21.1871 14.7969 21.5 14.7969Z" fill="#6946C6"/>
<path d="M13.2305 20.4609C11.6689 20.4609 10.3984 19.1905 10.3984 17.6289C10.3984 17.3161 10.1449 17.0625 9.83203 17.0625C9.51918 17.0625 9.26562 17.3161 9.26562 17.6289C9.26562 19.8151 11.0443 21.5938 13.2305 21.5938C13.5433 21.5938 13.7969 21.3402 13.7969 21.0273C13.7969 20.7145 13.5433 20.4609 13.2305 20.4609Z" fill="#6946C6"/>
<path d="M31.8652 23.0664C30.9282 23.0664 30.166 23.8286 30.166 24.7656C30.166 25.1168 30.2731 25.4435 30.4563 25.7146L26.5231 29.9361C26.3673 29.8889 26.2023 29.8633 26.0312 29.8633C25.7923 29.8633 25.5611 29.9128 25.3487 30.006L23.5771 27.8098C23.7001 27.572 23.7656 27.3067 23.7656 27.0312C23.7656 26.0942 23.0034 25.332 22.0664 25.332C21.1294 25.332 20.3672 26.0942 20.3672 27.0312C20.3672 27.2959 20.4278 27.551 20.5415 27.7815L18.4761 30.0201C18.2551 29.9175 18.0126 29.8633 17.7617 29.8633C16.8247 29.8633 16.0625 30.6255 16.0625 31.5625C16.0625 32.4995 16.8247 33.2617 17.7617 33.2617C18.6987 33.2617 19.4609 32.4995 19.4609 31.5625C19.4609 31.2979 19.4005 31.0428 19.2866 30.8122L21.352 28.5736C21.573 28.6763 21.8155 28.7305 22.0664 28.7305C22.3054 28.7305 22.5366 28.6809 22.749 28.5878L24.5205 30.7839C24.3975 31.0218 24.332 31.287 24.332 31.5625C24.332 32.4995 25.0942 33.2617 26.0312 33.2617C26.9683 33.2617 27.7305 32.4995 27.7305 31.5625C27.7305 31.2114 27.6234 30.8846 27.4402 30.6135L31.3734 26.3921C31.5292 26.4392 31.6942 26.4648 31.8652 26.4648C32.8022 26.4648 33.5645 25.7026 33.5645 24.7656C33.5645 23.8286 32.8022 23.0664 31.8652 23.0664ZM17.7617 32.1289C17.4493 32.1289 17.1953 31.8749 17.1953 31.5625C17.1953 31.2501 17.4493 30.9961 17.7617 30.9961C18.0743 30.9961 18.3281 31.2496 18.3281 31.5625C18.3281 31.8749 18.0741 32.1289 17.7617 32.1289ZM21.5 27.0312C21.5 26.7188 21.754 26.4648 22.0664 26.4648C22.3788 26.4648 22.6328 26.7188 22.6328 27.0312C22.6328 27.3439 22.3793 27.5977 22.0664 27.5977C21.7536 27.5977 21.5 27.3439 21.5 27.0312ZM26.0312 32.1289C25.7188 32.1289 25.4648 31.8749 25.4648 31.5625C25.4648 31.2499 25.7184 30.9961 26.0312 30.9961C26.3437 30.9961 26.5977 31.2501 26.5977 31.5625C26.5977 31.8749 26.3437 32.1289 26.0312 32.1289ZM31.8652 25.332C31.5528 25.332 31.2988 25.078 31.2988 24.7656C31.2988 24.4532 31.5528 24.1992 31.8652 24.1992C32.1776 24.1992 32.4316 24.4532 32.4316 24.7656C32.4316 25.078 32.1776 25.332 31.8652 25.332Z" fill="#6946C6"/>
<path d="M22.8594 17.6289C22.8594 17.9418 23.1129 18.1953 23.4258 18.1953H32.0352C32.348 18.1953 32.6016 17.9418 32.6016 17.6289C32.6016 17.3161 32.348 17.0625 32.0352 17.0625H23.4258C23.1129 17.0625 22.8594 17.3161 22.8594 17.6289Z" fill="#6946C6"/>
<path d="M32.0352 19.3281H23.4258C23.1129 19.3281 22.8594 19.5817 22.8594 19.8945C22.8594 20.2074 23.1129 20.4609 23.4258 20.4609H32.0352C32.348 20.4609 32.6016 20.2074 32.6016 19.8945C32.6016 19.5817 32.348 19.3281 32.0352 19.3281Z" fill="#6946C6"/>
</svg>
