<svg width="46" height="46" viewBox="0 0 46 46" fill="none" xmlns="http://www.w3.org/2000/svg">
<rect width="46" height="46" rx="8" fill="#F7F7F7"/>
<path d="M21.0268 36.0002H12.3334C10.496 36.0002 9 34.5055 9 32.6668V11.3334C9 9.49468 10.496 8 12.3334 8H28.3335C30.1708 8 31.6668 9.49468 31.6668 11.3334V19.4134C31.6668 19.7814 31.3682 20.0801 31.0002 20.0801C30.6322 20.0801 30.3335 19.7814 30.3335 19.4134V11.3334C30.3335 10.2307 29.4361 9.33334 28.3335 9.33334H12.3334C11.2307 9.33334 10.3333 10.2307 10.3333 11.3334V32.6668C10.3333 33.7695 11.2307 34.6669 12.3334 34.6669H21.0268C21.3948 34.6669 21.6934 34.9655 21.6934 35.3335C21.6934 35.7015 21.3948 36.0002 21.0268 36.0002Z" fill="#6946C6"/>
<path d="M27.0001 19.9998H13.6667C13.2987 19.9998 13 19.7012 13 19.3332C13 18.9652 13.2987 18.6665 13.6667 18.6665H27.0001C27.3681 18.6665 27.6668 18.9652 27.6668 19.3332C27.6668 19.7012 27.3681 19.9998 27.0001 19.9998Z" fill="#6946C6"/>
<path d="M21.6667 25.3333H13.6667C13.2987 25.3333 13 25.0347 13 24.6667C13 24.2987 13.2987 24 13.6667 24H21.6667C22.0347 24 22.3334 24.2987 22.3334 24.6667C22.3334 25.0347 22.0347 25.3333 21.6667 25.3333Z" fill="#6946C6"/>
<path d="M20.3334 14.6668H13.6667C13.2987 14.6668 13 14.3682 13 14.0002C13 13.6322 13.2987 13.3335 13.6667 13.3335H20.3334C20.7014 13.3335 21.0001 13.6322 21.0001 14.0002C21.0001 14.3682 20.7014 14.6668 20.3334 14.6668Z" fill="#6946C6"/>
<path d="M32.3335 40C27.5548 40 23.6667 36.1119 23.6667 31.3332C23.6667 26.5545 27.5548 22.6665 32.3335 22.6665C37.1122 22.6665 41.0002 26.5545 41.0002 31.3332C41.0002 36.1119 37.1122 40 32.3335 40ZM32.3335 23.9998C28.2894 23.9998 25.0001 27.2905 25.0001 31.3332C25.0001 35.3759 28.2894 38.6666 32.3335 38.6666C36.3775 38.6666 39.6669 35.3759 39.6669 31.3332C39.6669 27.2905 36.3775 23.9998 32.3335 23.9998Z" fill="#6946C6"/>
<path d="M32.3334 35.9999C31.9654 35.9999 31.6667 35.7012 31.6667 35.3332V27.3332C31.6667 26.9652 31.9654 26.6665 32.3334 26.6665C32.7014 26.6665 33.0001 26.9652 33.0001 27.3332V35.3332C33.0001 35.7012 32.7014 35.9999 32.3334 35.9999Z" fill="#6946C6"/>
<path d="M36.3335 31.9998H28.3334C27.9654 31.9998 27.6667 31.7012 27.6667 31.3332C27.6667 30.9652 27.9654 30.6665 28.3334 30.6665H36.3335C36.7015 30.6665 37.0001 30.9652 37.0001 31.3332C37.0001 31.7012 36.7015 31.9998 36.3335 31.9998Z" fill="#6946C6"/>
</svg>
