<svg width="46" height="46" viewBox="0 0 46 46" fill="none" xmlns="http://www.w3.org/2000/svg">
<rect width="46" height="46" rx="8" fill="#F6F6F6"/>
<path d="M29.1259 27.1659C29.522 27.1659 29.8924 27.0097 30.169 26.7262L32.6259 24.2072C33.1867 23.6322 33.175 22.7082 32.6 22.1474C32.0249 21.5867 31.1007 21.5984 30.54 22.1733L29.0987 23.6509L28.8462 23.4054C28.2703 22.8457 27.3462 22.8585 26.7861 23.4343C26.2262 24.0101 26.2392 24.9341 26.815 25.494L28.1104 26.7535C28.3838 27.0194 28.7445 27.1659 29.1259 27.1659ZM27.4597 24.0892C27.6587 23.8845 27.987 23.8803 28.1913 24.079L28.78 24.6514C28.9658 24.8321 29.2628 24.828 29.4438 24.6426L31.2125 22.8292C31.4118 22.6249 31.74 22.621 31.9441 22.82C32.1483 23.0192 32.1524 23.3473 31.9533 23.5515L29.4964 26.0704C29.3065 26.2735 28.9607 26.2778 28.7653 26.0802L27.47 24.8207C27.2655 24.6218 27.2608 24.2936 27.4597 24.0892Z" fill="#6946C6"/>
<path d="M25.4949 27.4851C25.3387 27.278 25.0442 27.2368 24.837 27.393C24.6299 27.5493 24.5887 27.8438 24.7449 28.0508C24.916 28.2775 25.1052 28.4949 25.3072 28.6969C26.4622 29.8517 27.9977 30.4877 29.631 30.4877C31.2644 30.4877 32.7999 29.8517 33.9548 28.6969C35.1098 27.5422 35.7458 26.0068 35.7458 24.3737C35.7458 22.7406 35.1097 21.2053 33.9548 20.0505C31.5706 17.6667 27.6914 17.6668 25.3072 20.0505C23.6818 21.6757 23.1066 24.0465 23.8062 26.2378C23.885 26.4849 24.1495 26.6212 24.3965 26.5424C24.6436 26.4635 24.78 26.1992 24.7011 25.9522C24.1089 24.0973 24.5957 22.0904 25.9716 20.7148C27.9894 18.6972 31.2727 18.6972 33.2905 20.7148C34.268 21.6922 34.8064 22.9916 34.8064 24.3738C34.8064 25.756 34.268 27.0554 33.2905 28.0328C32.313 29.0101 31.0134 29.5484 29.631 29.5484C28.2487 29.5484 26.949 29.0102 25.9715 28.0328C25.8002 27.8613 25.6398 27.6771 25.4949 27.4851Z" fill="#6946C6"/>
<path d="M41.3538 32.9544L38.3904 29.9914C38.2069 29.808 37.9095 29.8079 37.726 29.9914L37.7079 30.0095L36.5674 28.8692C37.3341 27.6874 37.7908 26.3218 37.8807 24.8966C37.897 24.6378 37.7003 24.4147 37.4414 24.3983C37.1828 24.3826 36.9595 24.5787 36.9431 24.8375C36.8309 26.6168 36.0739 28.2918 34.8117 29.5539C33.3852 30.9802 31.5119 31.6943 29.638 31.6961C29.6356 31.696 29.6333 31.6957 29.6309 31.6957H29.5936C27.7298 31.6863 25.8689 30.9726 24.4501 29.5539C23.0662 28.1702 22.3041 26.3306 22.3041 24.3738C22.3041 22.4169 23.0662 20.5773 24.4501 19.1936C27.3068 16.3373 31.955 16.3373 34.8117 19.1936C35.8757 20.2575 36.5778 21.5994 36.8423 23.0745C36.8881 23.3298 37.1323 23.4994 37.3875 23.4539C37.6429 23.4082 37.8127 23.1641 37.767 22.9087C37.4685 21.2439 36.6763 19.7296 35.476 18.5294C34.8813 17.9347 34.2175 17.4501 33.5104 17.0749V13.2896C33.5101 13.1659 33.4601 13.0449 33.3729 12.9574L27.5522 7.13756C27.4647 7.05044 27.3438 7.00031 27.22 7H11.4093C10.6323 7 10.0001 7.63206 10.0001 8.409V12.3567C10.0001 12.6161 10.2103 12.8264 10.4698 12.8264C10.7292 12.8264 10.9396 12.6161 10.9396 12.3567V8.409C10.9396 8.15 11.1502 7.93931 11.4093 7.93931H26.7504V12.3502C26.7504 13.1272 27.3826 13.7593 28.1596 13.7593H32.5711V16.6496C31.6546 16.3023 30.6884 16.1239 29.7206 16.1135C29.7159 16.1129 29.7114 16.1119 29.7066 16.1119H19.2191C18.9597 16.1119 18.7494 16.3223 18.7494 16.5816C18.7494 16.841 18.9597 17.0513 19.2191 17.0513H25.7958C25.1257 17.4017 24.4941 17.8502 23.9221 18.3966H19.2191C18.9597 18.3966 18.7494 18.6069 18.7494 18.8663C18.7494 19.1257 18.9597 19.336 19.2191 19.336H23.0766C22.3099 20.3292 21.7859 21.4731 21.5351 22.6941H19.2192C18.9598 22.6941 18.7494 22.9044 18.7494 23.1638C18.7494 23.4232 18.9598 23.6335 19.2192 23.6335H21.3979C21.3763 23.8783 21.3648 24.1252 21.3648 24.3739C21.3648 24.5779 21.3723 24.7808 21.3868 24.9822H19.2193C18.9598 24.9822 18.7495 25.1925 18.7495 25.4519C18.7495 25.7113 18.9598 25.9216 19.2193 25.9216H21.5093C21.7488 27.1929 22.2829 28.3841 23.0781 29.4134H19.2193C18.9598 29.4134 18.7495 29.6237 18.7495 29.8831C18.7495 30.1426 18.9598 30.3528 19.2193 30.3528H23.9239C24.4951 30.8982 25.1258 31.346 25.7946 31.6959H19.219C18.9596 31.6959 18.7493 31.9062 18.7493 32.1656C18.7493 32.425 18.9596 32.6353 19.219 32.6353H29.6309C30.6285 32.6352 31.6262 32.456 32.571 32.0981V37.5912C32.571 37.8502 32.3603 38.0609 32.1012 38.0609H11.4093C11.1502 38.0609 10.9395 37.8503 10.9395 37.5912V14.2356C10.9395 13.9762 10.7292 13.7659 10.4697 13.7659C10.2103 13.7659 10 13.9762 10 14.2356V37.5912C10.0001 38.3679 10.6323 39 11.4093 39H32.1013C32.8783 39 33.5105 38.3679 33.5105 37.591V31.6724C33.7201 31.5612 33.9259 31.4402 34.1272 31.3097L35.2674 32.4497C35.0701 32.6219 35.0595 32.9502 35.2492 33.1321L38.2127 36.0952C39.0394 36.9568 40.5271 36.9567 41.3538 36.0952C42.2155 35.2686 42.2154 33.781 41.3538 32.9544ZM28.1596 12.8199C27.9006 12.8199 27.6898 12.6092 27.6898 12.3502V8.60356L31.9067 12.8199H28.1596ZM34.8934 30.7474C35.0939 30.5817 35.2885 30.4056 35.476 30.2181C35.6624 30.0317 35.8388 29.8372 36.0053 29.6356L37.0435 30.6737L35.9316 31.7854L34.8934 30.7474ZM40.6895 35.4309C40.2125 35.9281 39.3541 35.928 38.877 35.4309L36.2456 32.7999L38.0582 30.9876L40.6896 33.6186C41.1867 34.0957 41.1868 34.9539 40.6895 35.4309Z" fill="#6946C6"/>
<path d="M14.2628 19.8003H16.3178C16.8972 19.8003 17.3686 19.3291 17.3686 18.7498V16.6951C17.3686 16.1158 16.8973 15.6445 16.3178 15.6445H14.2628C13.6835 15.6445 13.2122 16.1158 13.2122 16.6951V18.7498C13.2122 19.3291 13.6835 19.8003 14.2628 19.8003ZM14.1517 16.6951C14.1517 16.6338 14.2016 16.5839 14.2628 16.5839H16.3178C16.3792 16.5839 16.4291 16.6338 16.4291 16.6951V18.7498C16.4291 18.8112 16.3792 18.861 16.3178 18.861H14.2628C14.2015 18.861 14.1517 18.8112 14.1517 18.7498V16.6951Z" fill="#6946C6"/>
<path d="M13.2122 25.3347C13.2122 25.914 13.6835 26.3852 14.2628 26.3852H16.3178C16.8972 26.3852 17.3686 25.914 17.3686 25.3347V23.28C17.3686 22.7007 16.8973 22.2295 16.3178 22.2295H14.2628C13.6835 22.2295 13.2122 22.7007 13.2122 23.28V25.3347ZM14.1517 23.28C14.1517 23.2187 14.2016 23.1688 14.2628 23.1688H16.3178C16.3792 23.1688 16.4291 23.2187 16.4291 23.28V25.3347C16.4291 25.3961 16.3792 25.4459 16.3178 25.4459H14.2628C14.2015 25.4459 14.1517 25.3961 14.1517 25.3347V23.28Z" fill="#6946C6"/>
<path d="M13.2122 32.0545C13.2122 32.6338 13.6835 33.105 14.2628 33.105H16.3178C16.8972 33.105 17.3686 32.6338 17.3686 32.0545V29.9998C17.3686 29.4205 16.8973 28.9492 16.3178 28.9492H14.2628C13.6835 28.9492 13.2122 29.4205 13.2122 29.9998V32.0545ZM14.1517 29.9998C14.1517 29.9385 14.2016 29.8886 14.2628 29.8886H16.3178C16.3792 29.8886 16.4291 29.9385 16.4291 29.9998V32.0545C16.4291 32.1158 16.3792 32.1657 16.3178 32.1657H14.2628C14.2015 32.1657 14.1517 32.1158 14.1517 32.0545V29.9998Z" fill="#6946C6"/>
</svg>
