<svg width="46" height="46" viewBox="0 0 46 46" fill="none" xmlns="http://www.w3.org/2000/svg">
<rect width="46" height="46" rx="8" fill="#F6F6F6"/>
<path d="M31.516 25.6064H21.4816C21.2065 25.6064 20.9836 25.8294 20.9836 26.1045C20.9836 26.3795 21.2065 26.6025 21.4816 26.6025H31.516C31.7911 26.6025 32.0141 26.3795 32.0141 26.1045C32.0141 25.8294 31.7911 25.6064 31.516 25.6064ZM31.516 33.1104H21.4816C21.2065 33.1104 20.9836 33.3333 20.9836 33.6084C20.9836 33.8835 21.2065 34.1064 21.4816 34.1064H31.516C31.7911 34.1064 32.0141 33.8835 32.0141 33.6084C32.0141 33.3333 31.7911 33.1104 31.516 33.1104ZM31.516 31.1182H21.4816C21.2065 31.1182 20.9836 31.3412 20.9836 31.6162C20.9836 31.8913 21.2065 32.1143 21.4816 32.1143H31.516C31.7911 32.1143 32.0141 31.8913 32.0141 31.6162C32.0141 31.3412 31.7911 31.1182 31.516 31.1182ZM31.516 23.6143H21.4816C21.2065 23.6143 20.9836 23.8372 20.9836 24.1123C20.9836 24.3874 21.2065 24.6104 21.4816 24.6104H31.516C31.7911 24.6104 32.0141 24.3874 32.0141 24.1123C32.0141 23.8372 31.7911 23.6143 31.516 23.6143ZM34.8556 25.4049C35.1307 25.4049 35.3536 25.1819 35.3536 24.9069V14.6814C35.3516 14.5805 35.3185 14.4347 35.2078 14.3293L27.0244 6.14589C26.9416 6.07145 26.8368 6 26.6722 6H12.8933C11.5202 6 10.4031 7.11709 10.4031 8.49023V37.5098C10.4031 38.8829 11.5202 40 12.8933 40H32.8635C34.2366 40 35.3537 38.8829 35.3537 37.5098V27.2311C35.3537 26.956 35.1308 26.733 34.8557 26.733C34.5805 26.733 34.3576 26.956 34.3576 27.2311V37.5098C34.3576 38.3337 33.6873 39.0039 32.8635 39.0039H12.8933C12.0695 39.0039 11.3992 38.3337 11.3992 37.5098V8.49023C11.3992 7.66633 12.0695 6.99609 12.8933 6.99609H26.1742V8.98828H14.642C14.0012 8.98828 13.4799 9.50964 13.4799 10.1504V12.5742C13.4799 13.215 14.0012 13.7363 14.642 13.7363H24.4473C24.7224 13.7363 24.9453 13.5133 24.9453 13.2383C24.9453 12.9632 24.7224 12.7402 24.4473 12.7402H14.642C14.5504 12.7402 14.476 12.6657 14.476 12.5742V10.1504C14.476 10.0589 14.5504 9.98438 14.642 9.98438H26.1742V12.6892C26.1742 14.0624 27.2913 15.1795 28.6644 15.1795H34.3575V24.9069C34.3575 25.1819 34.5805 25.4049 34.8556 25.4049ZM28.6644 14.1834C27.8406 14.1834 27.1703 13.5131 27.1703 12.6892V7.7004L33.6532 14.1833H28.6644V14.1834ZM18.0285 31.1182H14.4426C13.9116 31.1182 13.4797 31.5501 13.4797 32.0811V35.667C13.4797 36.1979 13.9116 36.6299 14.4426 36.6299H18.0285C18.5594 36.6299 18.9914 36.1979 18.9914 35.667V32.0811C18.9914 31.5501 18.5594 31.1182 18.0285 31.1182ZM17.9953 35.6338H14.4758V32.1143H17.9953V35.6338ZM18.9914 17.0732C18.9914 16.5423 18.5594 16.1104 18.0285 16.1104H14.4426C13.9116 16.1104 13.4797 16.5423 13.4797 17.0732V20.6592C13.4797 21.1901 13.9116 21.6221 14.4426 21.6221H18.0285C18.5594 21.6221 18.9914 21.1901 18.9914 20.6592V17.0732ZM17.9953 20.626H14.4758V17.1064H17.9953V20.626ZM31.516 16.1104H21.4816C21.2065 16.1104 20.9836 16.3333 20.9836 16.6084C20.9836 16.8835 21.2065 17.1064 21.4816 17.1064H31.516C31.7911 17.1064 32.0141 16.8835 32.0141 16.6084C32.0141 16.3333 31.7911 16.1104 31.516 16.1104ZM31.516 18.1025H21.4816C21.2065 18.1025 20.9836 18.3255 20.9836 18.6006C20.9836 18.8756 21.2065 19.0986 21.4816 19.0986H31.516C31.7911 19.0986 32.0141 18.8756 32.0141 18.6006C32.0141 18.3255 31.7911 18.1025 31.516 18.1025ZM18.9914 24.5771C18.9914 24.0462 18.5594 23.6143 18.0285 23.6143H14.4426C13.9116 23.6143 13.4797 24.0462 13.4797 24.5771V28.1631C13.4797 28.694 13.9116 29.126 14.4426 29.126H18.0285C18.5594 29.126 18.9914 28.694 18.9914 28.1631V24.5771ZM17.9953 28.1299H14.4758V24.6104H17.9953V28.1299Z" fill="#6946C6"/>
</svg>
