<svg width="46" height="46" viewBox="0 0 46 46" fill="none" xmlns="http://www.w3.org/2000/svg">
<rect width="46" height="46" rx="8" fill="#F6F6F6"/>
<g clip-path="url(#clip0_6279_11316)">
<path d="M31.7289 33.3694C31.9404 33.3694 32.1118 33.198 32.1118 32.9865C32.1118 32.7751 31.9404 32.6037 31.7289 32.6037H10.7656V13.333H34.2217V30.2279C34.2217 30.4393 34.3931 30.6107 34.6046 30.6107C34.816 30.6107 34.9874 30.4393 34.9874 30.2279V12.9502C34.9874 12.7388 34.816 12.5674 34.6046 12.5674H10.3828C10.1714 12.5674 10 12.7388 10 12.9502V32.9865C10 33.1979 10.1714 33.3693 10.3828 33.3693H31.729L31.7289 33.3694Z" fill="#6946C6"/>
<path d="M17.1897 24.2761C15.9604 24.3768 15.129 24.5863 14.2217 25.4936C13.4702 26.2451 13.0054 27.2833 13.0054 28.4302C13.0054 28.6416 12.834 28.813 12.6226 28.813C12.4112 28.813 12.2397 28.6416 12.2397 28.4302C12.2397 27.072 12.7903 25.8424 13.6803 24.9523C14.5704 24.0622 15.8 23.5117 17.1582 23.5117C18.4604 23.5117 19.7155 24.0319 20.636 24.9523C21.5261 25.8424 22.0766 27.072 22.0766 28.4302C22.0766 28.6416 21.9052 28.813 21.6938 28.813C21.4824 28.813 21.311 28.6416 21.311 28.4302C21.311 27.2834 20.8461 26.2451 20.0947 25.4937C19.3492 24.7482 18.323 24.2845 17.1897 24.2761H17.1897Z" fill="#6946C6"/>
<path d="M17.1583 24.2775C16.0471 24.2775 15.1462 23.3766 15.1462 22.2654C15.1462 21.1543 16.0472 20.2534 17.1583 20.2534C18.2694 20.2534 19.1703 21.1543 19.1703 22.2654C19.1703 23.3766 18.2694 24.2775 17.1583 24.2775ZM17.1583 23.5118C17.8467 23.5118 18.4046 22.9539 18.4046 22.2654C18.4046 21.577 17.8467 21.0191 17.1583 21.0191C16.4699 21.0191 15.9119 21.577 15.9119 22.2654C15.9119 22.9539 16.4698 23.5118 17.1583 23.5118Z" fill="#6946C6"/>
<path d="M32.1669 28.5879L37.7878 31.384C38.0744 31.5266 38.0665 31.9333 37.7855 32.0705L36.1397 33.0207L37.681 35.6885C37.7867 35.8716 37.724 36.1057 37.5409 36.2114C36.8654 36.6017 36.1895 36.9913 35.514 37.3816C35.3309 37.4873 35.0968 37.4246 34.9911 37.2415C34.4772 36.3521 33.9646 35.4618 33.451 34.5722L31.7833 35.537C31.5068 35.6966 31.1723 35.4653 31.2122 35.1567L31.5995 28.8992C31.6169 28.6183 31.9255 28.4541 32.1669 28.5878L32.1669 28.5879ZM36.8095 31.7521L32.3272 29.5221L32.0172 34.5198L33.3698 33.7388C33.5533 33.609 33.8099 33.6645 33.9227 33.8598L35.4624 36.5284L36.8278 35.7401C36.3143 34.8507 35.8005 33.9614 35.2865 33.0724C35.1808 32.8893 35.2435 32.6551 35.4266 32.5494L36.8095 31.7521L36.8095 31.7521Z" fill="#6946C6"/>
<path d="M26.7158 27.1152C26.5044 27.1152 26.333 27.2866 26.333 27.4981C26.333 27.7095 26.5044 27.8809 26.7158 27.8809H29.2941C29.5055 27.8809 29.6769 27.7095 29.6769 27.4981C29.6769 27.2866 29.5055 27.1152 29.2941 27.1152H26.7158Z" fill="#6946C6"/>
<path d="M26.7158 24.0757C26.5044 24.0757 26.333 24.2471 26.333 24.4585C26.333 24.6699 26.5044 24.8413 26.7158 24.8413H30.0043C30.2157 24.8413 30.3871 24.6699 30.3871 24.4585C30.3871 24.2471 30.2157 24.0757 30.0043 24.0757H26.7158Z" fill="#6946C6"/>
<path d="M26.7158 21.0361C26.5044 21.0361 26.333 21.2075 26.333 21.419C26.333 21.6304 26.5044 21.8018 26.7158 21.8018H30.9262C31.1377 21.8018 31.3091 21.6304 31.3091 21.419C31.3091 21.2075 31.1377 21.0361 30.9262 21.0361H26.7158Z" fill="#6946C6"/>
<path d="M31.3969 16.9839C31.6083 16.9839 31.7797 16.8125 31.7797 16.6011C31.7797 16.3897 31.6083 16.2183 31.3969 16.2183H10.3828C10.1714 16.2183 10 16.3897 10 16.6011C10 16.8125 10.1714 16.9839 10.3828 16.9839H31.3969Z" fill="#6946C6"/>
<path d="M12.4087 14.3931C12.1973 14.3931 12.0259 14.5645 12.0259 14.7759C12.0259 14.9873 12.1973 15.1587 12.4087 15.1587H14.2787C14.4902 15.1587 14.6616 14.9873 14.6616 14.7759C14.6616 14.5645 14.4902 14.3931 14.2787 14.3931H12.4087Z" fill="#6946C6"/>
<path d="M16.2583 14.3931C16.0469 14.3931 15.8755 14.5645 15.8755 14.7759C15.8755 14.9873 16.0469 15.1587 16.2583 15.1587H18.1284C18.3398 15.1587 18.5112 14.9873 18.5112 14.7759C18.5112 14.5645 18.3398 14.3931 18.1284 14.3931H16.2583Z" fill="#6946C6"/>
<path d="M20.1079 14.3931C19.8965 14.3931 19.7251 14.5645 19.7251 14.7759C19.7251 14.9873 19.8965 15.1587 20.1079 15.1587H21.978C22.1894 15.1587 22.3608 14.9873 22.3608 14.7759C22.3608 14.5645 22.1894 14.3931 21.978 14.3931H20.1079Z" fill="#6946C6"/>
</g>
<defs>
<clipPath id="clip0_6279_11316">
<rect width="28" height="28" fill="white" transform="translate(10 11)"/>
</clipPath>
</defs>
</svg>
