<svg width="72" height="72" viewBox="0 0 72 72" fill="none" xmlns="http://www.w3.org/2000/svg">
<g clip-path="url(#clip0_6282_11500)">
<path d="M45 40.5H5.625C5.00368 40.5 4.5 41.0037 4.5 41.625V47.25C4.5 47.8713 5.00368 48.375 5.625 48.375H45C45.6213 48.375 46.125 47.8713 46.125 47.25V41.625C46.125 41.0037 45.6213 40.5 45 40.5Z" fill="#D0DBF7"/>
<path d="M45 23.625H5.625C5.00368 23.625 4.5 24.1287 4.5 24.75V30.375C4.5 30.9963 5.00368 31.5 5.625 31.5H45C45.6213 31.5 46.125 30.9963 46.125 30.375V24.75C46.125 24.1287 45.6213 23.625 45 23.625Z" fill="#D0DBF7"/>
<path d="M47.25 46.125H3.375C1.51104 46.125 0 47.636 0 49.5V56.25C0 58.114 1.51104 59.625 3.375 59.625H47.25C49.114 59.625 50.625 58.114 50.625 56.25V49.5C50.625 47.636 49.114 46.125 47.25 46.125Z" fill="#E6ECFF"/>
<path d="M47.25 29.25H3.375C1.51104 29.25 0 30.761 0 32.625V39.375C0 41.239 1.51104 42.75 3.375 42.75H47.25C49.114 42.75 50.625 41.239 50.625 39.375V32.625C50.625 30.761 49.114 29.25 47.25 29.25Z" fill="#E6ECFF"/>
<path d="M47.25 12.375H3.375C1.51104 12.375 0 13.886 0 15.75V22.5C0 24.364 1.51104 25.875 3.375 25.875H47.25C49.114 25.875 50.625 24.364 50.625 22.5V15.75C50.625 13.886 49.114 12.375 47.25 12.375Z" fill="#E6ECFF"/>
<path d="M9 54C9.62132 54 10.125 53.4963 10.125 52.875C10.125 52.2537 9.62132 51.75 9 51.75C8.37868 51.75 7.875 52.2537 7.875 52.875C7.875 53.4963 8.37868 54 9 54Z" fill="#D0DBF7"/>
<path d="M5.625 54C6.24632 54 6.75 53.4963 6.75 52.875C6.75 52.2537 6.24632 51.75 5.625 51.75C5.00368 51.75 4.5 52.2537 4.5 52.875C4.5 53.4963 5.00368 54 5.625 54Z" fill="#D0DBF7"/>
<path d="M12.375 54C12.9963 54 13.5 53.4963 13.5 52.875C13.5 52.2537 12.9963 51.75 12.375 51.75C11.7537 51.75 11.25 52.2537 11.25 52.875C11.25 53.4963 11.7537 54 12.375 54Z" fill="#D0DBF7"/>
<path d="M45 54H23.625C23.3266 54 23.0405 53.8815 22.8295 53.6705C22.6185 53.4595 22.5 53.1734 22.5 52.875C22.5 52.5766 22.6185 52.2905 22.8295 52.0795C23.0405 51.8685 23.3266 51.75 23.625 51.75H45C45.2984 51.75 45.5845 51.8685 45.7955 52.0795C46.0065 52.2905 46.125 52.5766 46.125 52.875C46.125 53.1734 46.0065 53.4595 45.7955 53.6705C45.5845 53.8815 45.2984 54 45 54Z" fill="#D0DBF7"/>
<path d="M9 37.125C9.62132 37.125 10.125 36.6213 10.125 36C10.125 35.3787 9.62132 34.875 9 34.875C8.37868 34.875 7.875 35.3787 7.875 36C7.875 36.6213 8.37868 37.125 9 37.125Z" fill="#D0DBF7"/>
<path d="M5.625 37.125C6.24632 37.125 6.75 36.6213 6.75 36C6.75 35.3787 6.24632 34.875 5.625 34.875C5.00368 34.875 4.5 35.3787 4.5 36C4.5 36.6213 5.00368 37.125 5.625 37.125Z" fill="#D0DBF7"/>
<path d="M12.375 37.125C12.9963 37.125 13.5 36.6213 13.5 36C13.5 35.3787 12.9963 34.875 12.375 34.875C11.7537 34.875 11.25 35.3787 11.25 36C11.25 36.6213 11.7537 37.125 12.375 37.125Z" fill="#D0DBF7"/>
<path d="M45 37.125H23.625C23.3266 37.125 23.0405 37.0065 22.8295 36.7955C22.6185 36.5845 22.5 36.2984 22.5 36C22.5 35.7016 22.6185 35.4155 22.8295 35.2045C23.0405 34.9935 23.3266 34.875 23.625 34.875H45C45.2984 34.875 45.5845 34.9935 45.7955 35.2045C46.0065 35.4155 46.125 35.7016 46.125 36C46.125 36.2984 46.0065 36.5845 45.7955 36.7955C45.5845 37.0065 45.2984 37.125 45 37.125Z" fill="#D0DBF7"/>
<path d="M9 20.25C9.62132 20.25 10.125 19.7463 10.125 19.125C10.125 18.5037 9.62132 18 9 18C8.37868 18 7.875 18.5037 7.875 19.125C7.875 19.7463 8.37868 20.25 9 20.25Z" fill="#D0DBF7"/>
<path d="M5.625 20.25C6.24632 20.25 6.75 19.7463 6.75 19.125C6.75 18.5037 6.24632 18 5.625 18C5.00368 18 4.5 18.5037 4.5 19.125C4.5 19.7463 5.00368 20.25 5.625 20.25Z" fill="#D0DBF7"/>
<path d="M12.375 20.25C12.9963 20.25 13.5 19.7463 13.5 19.125C13.5 18.5037 12.9963 18 12.375 18C11.7537 18 11.25 18.5037 11.25 19.125C11.25 19.7463 11.7537 20.25 12.375 20.25Z" fill="#D0DBF7"/>
<path d="M45 20.25H23.625C23.3266 20.25 23.0405 20.1315 22.8295 19.9205C22.6185 19.7095 22.5 19.4234 22.5 19.125C22.5 18.8266 22.6185 18.5405 22.8295 18.3295C23.0405 18.1185 23.3266 18 23.625 18H45C45.2984 18 45.5845 18.1185 45.7955 18.3295C46.0065 18.5405 46.125 18.8266 46.125 19.125C46.125 19.4234 46.0065 19.7095 45.7955 19.9205C45.5845 20.1315 45.2984 20.25 45 20.25Z" fill="#D0DBF7"/>
<path d="M65.1477 41.6971C65.2155 41.2299 65.2498 40.7584 65.25 40.2863C65.2623 37.5869 64.2031 34.9929 62.3049 33.0735C60.4066 31.1542 57.8244 30.0664 55.125 30.0488C53.1678 30.0462 51.2522 30.6141 49.6126 31.6831C47.973 32.752 46.6806 34.2756 45.8933 36.0676C45.2421 35.8528 44.5607 35.7437 43.875 35.7447C42.1567 35.7546 40.5061 36.4159 39.2563 37.5952C38.0064 38.7744 37.2504 40.3839 37.1408 42.0987C35.199 42.8974 33.5929 44.3426 32.5944 46.1896C31.5959 48.0366 31.2663 50.1719 31.6616 52.234C32.0568 54.2961 33.1525 56.1583 34.7632 57.5052C36.3739 58.8521 38.4005 59.601 40.5 59.6251H63C65.2093 59.5997 67.334 58.772 68.9782 57.296C70.6224 55.8201 71.6739 53.7967 71.9367 51.603C72.1994 49.4092 71.6557 47.1947 70.4066 45.3722C69.1575 43.5497 67.2885 42.2435 65.1477 41.6971Z" fill="#6946C6"/>
</g>
<defs>
<clipPath id="clip0_6282_11500">
<rect width="72" height="72" fill="white"/>
</clipPath>
</defs>
</svg>
