<svg width="46" height="46" viewBox="0 0 46 46" fill="none" xmlns="http://www.w3.org/2000/svg">
<rect width="46" height="46" rx="8" fill="#F6F6F6"/>
<path d="M37.4922 20.6005H34.2422C33.9617 20.6005 33.7344 20.8279 33.7344 21.1083V23.6728C33.7344 23.9532 33.9617 24.1806 34.2422 24.1806C34.5227 24.1806 34.75 23.9532 34.75 23.6728V21.6162H36.9844V34.9844H35.8672H34.75V27.4814C34.75 27.201 34.5227 26.9736 34.2422 26.9736C33.9617 26.9736 33.7344 27.201 33.7344 27.4814V34.9844H32.7188V24.4727C32.7188 24.1922 32.4914 23.9648 32.2109 23.9648H28.9609C28.6805 23.9648 28.4531 24.1922 28.4531 24.4727V34.9844H27.4375V28.0273C27.4375 27.7469 27.2102 27.5195 26.9297 27.5195H23.6797C23.3992 27.5195 23.1719 27.7469 23.1719 28.0273V34.9844H22.1562V30.9409C22.1562 30.6605 21.9289 30.4331 21.6484 30.4331H18.3984C18.118 30.4331 17.8906 30.6605 17.8906 30.9409V34.9844H13.5234C13.2434 34.9844 13.0156 34.7566 13.0156 34.4766V11.5234C13.0156 11.2434 13.2434 11.0156 13.5234 11.0156H26.6237V14.3673C26.6237 15.2074 27.3071 15.8908 28.1472 15.8908H31.4987V22.1367C31.4987 22.4171 31.7261 22.6445 32.0065 22.6445C32.287 22.6445 32.5144 22.4171 32.5144 22.1367V15.383C32.5144 15.2483 32.4608 15.1192 32.3656 15.0239L27.4906 10.1487C27.3954 10.0535 27.2662 10 27.1315 10H13.5234C12.6834 10 12 10.6834 12 11.5234V34.4766C12 35.3166 12.6834 36 13.5234 36H37.4922C37.7727 36 38 35.7726 38 35.4922V21.1083C38 20.8279 37.7727 20.6005 37.4922 20.6005ZM27.6394 11.7338L30.7806 14.8752H28.1472C27.8671 14.8752 27.6394 14.6473 27.6394 14.3673V11.7338ZM21.1406 34.9844H18.9062V31.4487H21.1406V34.9844ZM26.4219 34.9844H24.1875V28.5352H26.4219V34.9844ZM31.7031 34.9844H29.4688V24.9805H31.7031V34.9844Z" fill="#6946C6"/>
<path d="M34.6012 25.1239C34.5068 25.029 34.3757 24.9751 34.2422 24.9751C34.1086 24.9751 33.9776 25.029 33.8832 25.1239C33.7887 25.2183 33.7344 25.3494 33.7344 25.4829C33.7344 25.6165 33.7887 25.7475 33.8832 25.8419C33.9776 25.9363 34.1086 25.9907 34.2422 25.9907C34.3757 25.9907 34.5068 25.9364 34.6012 25.8419C34.6957 25.7475 34.75 25.6165 34.75 25.4829C34.75 25.3494 34.6957 25.2183 34.6012 25.1239Z" fill="#6946C6"/>
<path d="M19.3925 12.7793C19.1121 12.7793 18.8847 13.0067 18.8847 13.2871V14.2006C16.5472 14.4544 14.7219 16.4399 14.7219 18.8438C14.7219 21.4192 16.8172 23.5144 19.3925 23.5144C21.7964 23.5144 23.782 21.6892 24.0357 19.3516H24.9492C25.2296 19.3516 25.457 19.1242 25.457 18.8438C25.457 15.4998 22.7365 12.7793 19.3925 12.7793ZM19.3925 22.4987C17.3772 22.4987 15.7375 20.8591 15.7375 18.8437C15.7375 17.0007 17.1089 15.4719 18.8847 15.224V18.8437C18.8847 19.1242 19.1121 19.3516 19.3925 19.3516H23.0123C22.7644 21.1274 21.2355 22.4987 19.3925 22.4987ZM19.9003 18.336V18.3359V13.8203C22.2795 14.059 24.1772 15.9568 24.416 18.336H19.9003Z" fill="#6946C6"/>
<path d="M24.9492 24.9424H15.25C14.9695 24.9424 14.7422 25.1698 14.7422 25.4502C14.7422 25.7306 14.9695 25.958 15.25 25.958H24.9492C25.2297 25.958 25.457 25.7306 25.457 25.4502C25.457 25.1698 25.2297 24.9424 24.9492 24.9424Z" fill="#6946C6"/>
<path d="M18.5 27.3926H15.25C14.9695 27.3926 14.7422 27.62 14.7422 27.9004C14.7422 28.1808 14.9695 28.4082 15.25 28.4082H18.5C18.7805 28.4082 19.0078 28.1808 19.0078 27.9004C19.0078 27.62 18.7805 27.3926 18.5 27.3926Z" fill="#6946C6"/>
<path d="M21.4022 27.5414C21.3078 27.4469 21.1768 27.3926 21.0432 27.3926C20.9092 27.3926 20.7786 27.4469 20.6842 27.5414C20.5892 27.6358 20.5354 27.7668 20.5354 27.9004C20.5354 28.0339 20.5892 28.165 20.6842 28.2594C20.7786 28.3538 20.9092 28.4082 21.0432 28.4082C21.1768 28.4082 21.3078 28.3539 21.4022 28.2594C21.4967 28.165 21.551 28.0339 21.551 27.9004C21.551 27.7668 21.4967 27.6358 21.4022 27.5414Z" fill="#6946C6"/>
</svg>
