<svg width="62" height="62" viewBox="0 0 62 62" fill="none" xmlns="http://www.w3.org/2000/svg">
<path d="M8.71875 14.5312C11.9289 14.5312 14.5312 11.9289 14.5312 8.71875C14.5312 5.50859 11.9289 2.90625 8.71875 2.90625C5.50859 2.90625 2.90625 5.50859 2.90625 8.71875C2.90625 11.9289 5.50859 14.5312 8.71875 14.5312Z" fill="#50B6CF"/>
<path d="M35.8438 14.5312C39.0539 14.5312 41.6562 11.9289 41.6562 8.71875C41.6562 5.50859 39.0539 2.90625 35.8438 2.90625C32.6336 2.90625 30.0312 5.50859 30.0312 8.71875C30.0312 11.9289 32.6336 14.5312 35.8438 14.5312Z" fill="#50B6CF"/>
<path d="M13.5625 7.75H28.0938V9.6875H13.5625V7.75Z" fill="#223B5A"/>
<path d="M31 52.3125H45.5312V54.25H31V52.3125Z" fill="#223B5A"/>
<path d="M47.9531 31.9688H30.0312V30.0312H47.9531C53.5622 30.0312 58.125 25.468 58.125 19.8594C58.125 14.2507 53.5622 9.6875 47.9531 9.6875H40.6875V7.75H47.9531C54.6303 7.75 60.0625 13.1822 60.0625 19.8594C60.0625 26.5366 54.6303 31.9688 47.9531 31.9688Z" fill="#223B5A"/>
<path d="M18.4062 54.25H14.0469C7.36969 54.25 1.9375 48.8178 1.9375 42.1406C1.9375 35.4634 7.36969 30.0312 14.0469 30.0312H17.4375V31.9688H14.0469C8.43777 31.9688 3.875 36.532 3.875 42.1406C3.875 47.7493 8.43777 52.3125 14.0469 52.3125H18.4062V54.25Z" fill="#223B5A"/>
<path d="M26.1562 59.0938C29.3664 59.0938 31.9688 56.4914 31.9688 53.2812C31.9688 50.0711 29.3664 47.4688 26.1562 47.4688C22.9461 47.4688 20.3438 50.0711 20.3438 53.2812C20.3438 56.4914 22.9461 59.0938 26.1562 59.0938Z" fill="#50B6CF"/>
<path d="M53.2812 59.0938C56.4914 59.0938 59.0938 56.4914 59.0938 53.2812C59.0938 50.0711 56.4914 47.4688 53.2812 47.4688C50.0711 47.4688 47.4688 50.0711 47.4688 53.2812C47.4688 56.4914 50.0711 59.0938 53.2812 59.0938Z" fill="#6946C6"/>
<path d="M22.2812 36.8125C25.4914 36.8125 28.0938 34.2102 28.0938 31C28.0938 27.7898 25.4914 25.1875 22.2812 25.1875C19.0711 25.1875 16.4688 27.7898 16.4688 31C16.4688 34.2102 19.0711 36.8125 22.2812 36.8125Z" fill="#50B6CF"/>
<path d="M11.7399 3.76025C12.278 4.64143 12.5937 5.67333 12.5937 6.78145C12.5937 9.99161 9.99137 12.5939 6.7812 12.5939C5.67309 12.5939 4.64118 12.2783 3.76001 11.7401C4.78079 13.4118 6.61665 14.5314 8.7187 14.5314C11.9289 14.5314 14.5312 11.9291 14.5312 8.71895C14.5312 6.61689 13.4116 4.78104 11.7399 3.76025Z" fill="#3CADC9"/>
<path d="M38.8649 3.76025C39.403 4.64143 39.7187 5.67333 39.7187 6.78145C39.7187 9.99161 37.1164 12.5939 33.9062 12.5939C32.7981 12.5939 31.7662 12.2783 30.885 11.7401C31.9058 13.4118 33.7417 14.5314 35.8437 14.5314C39.0539 14.5314 41.6562 11.9291 41.6562 8.71895C41.6562 6.61689 40.5366 4.78104 38.8649 3.76025Z" fill="#3CADC9"/>
<path d="M29.1774 48.3223C29.7155 49.2034 30.0312 50.2353 30.0312 51.3435C30.0312 54.5536 27.4289 57.156 24.2187 57.156C23.1106 57.156 22.0787 56.8403 21.1975 56.3021C22.2183 57.9738 24.0542 59.0935 26.1562 59.0935C29.3664 59.0935 31.9687 56.4911 31.9687 53.281C31.9687 51.1789 30.8491 49.343 29.1774 48.3223Z" fill="#3CADC9"/>
<path d="M56.3024 48.3223C56.8405 49.2034 57.1562 50.2353 57.1562 51.3435C57.1562 54.5536 54.5539 57.156 51.3437 57.156C50.2356 57.156 49.2037 56.8403 48.3225 56.3021C49.3433 57.9738 51.1791 59.0935 53.2812 59.0935C56.4914 59.0935 59.0937 56.4911 59.0937 53.281C59.0937 51.1789 57.9741 49.343 56.3024 48.3223Z" fill="#654CA9"/>
<path d="M25.3024 26.041C25.8405 26.9222 26.1562 27.9541 26.1562 29.0622C26.1562 32.2724 23.5539 34.8747 20.3437 34.8747C19.2356 34.8747 18.2037 34.559 17.3225 34.0209C18.3433 35.6926 20.1792 36.8122 22.2812 36.8122C25.4914 36.8122 28.0937 34.2099 28.0937 30.9997C28.0937 28.8977 26.9741 27.0618 25.3024 26.041Z" fill="#3CADC9"/>
<path d="M25.8726 12.3098L24.5027 10.9399L26.724 8.71863L24.5027 6.49731L25.8726 5.12744L29.4637 8.71863L25.8726 12.3098Z" fill="#223B5A"/>
<path d="M32.2526 34.5916L28.6614 31.0004L32.2526 27.4092L33.6224 28.779L31.4011 31.0004L33.6224 33.2217L32.2526 34.5916Z" fill="#223B5A"/>
<path d="M43.3098 56.8728L41.9399 55.5029L44.1613 53.2816L41.9399 51.0603L43.3098 49.6904L46.901 53.2816L43.3098 56.8728Z" fill="#223B5A"/>
<path d="M16.1851 56.8728L14.8152 55.5029L17.0365 53.2816L14.8152 51.0603L16.1851 49.6904L19.7762 53.2816L16.1851 56.8728Z" fill="#223B5A"/>
</svg>
