<svg width="64" height="64" viewBox="0 0 64 64" fill="none" xmlns="http://www.w3.org/2000/svg">
<circle cx="32" cy="32" r="32" fill="black"/>
<path d="M25.6034 26.4236C25.6034 26.1493 25.8256 25.927 26.1 25.927H32.3178C32.5921 25.927 32.8145 26.1493 32.8145 26.4236C32.8145 26.6979 32.5921 26.9202 32.3178 26.9202H26.1C25.8257 26.9202 25.6034 26.6979 25.6034 26.4236Z" fill="white"/>
<path d="M40.1372 35.0521C40.1372 35.7777 39.5469 36.3679 38.8214 36.3679H35.8734C35.1479 36.3679 34.5576 35.7776 34.5576 35.0521V32.1178L34.0961 31.6563C33.9021 31.4623 33.9021 31.1479 34.0961 30.954C34.29 30.76 34.6044 30.7601 34.7983 30.954L34.9827 31.1384C35.2173 30.9219 35.5296 30.7883 35.8734 30.7883H38.8213C39.5469 30.7883 40.1371 31.3786 40.1371 32.1041V35.0521H40.1372ZM39.144 32.1041C39.144 31.9263 38.9993 31.7815 38.8214 31.7815H35.8734C35.8036 31.7815 35.7394 31.8044 35.6866 31.8422L37.2135 33.3691L37.5655 33.0172C37.7595 32.8232 38.0739 32.8232 38.2678 33.0172C38.4617 33.2111 38.4617 33.5255 38.2678 33.7194L37.5646 34.4226C37.4677 34.5196 37.3405 34.5681 37.2135 34.5681C37.0864 34.5681 36.9593 34.5196 36.8623 34.4226L35.5508 33.111V35.0521C35.5508 35.23 35.6955 35.3747 35.8734 35.3747H38.8213C38.9993 35.3747 39.1439 35.23 39.1439 35.0521V32.1041H39.144Z" fill="white"/>
<path d="M32.3178 33.0815C32.5921 33.0815 32.8145 33.3039 32.8145 33.5781C32.8145 33.8524 32.5921 34.0748 32.3178 34.0748H30.046C29.7717 34.0748 29.5494 33.8524 29.5494 33.5781C29.5494 33.3039 29.7717 33.0815 30.046 33.0815H32.3178Z" fill="white"/>
<path d="M40.1372 42.2063C40.1372 42.9319 39.5469 43.5221 38.8214 43.5221H35.8734C35.1479 43.5221 34.5576 42.9318 34.5576 42.2063V39.2584C34.5576 38.5329 35.1479 37.9426 35.8734 37.9426H38.8214C39.547 37.9426 40.1372 38.5329 40.1372 39.2584V42.2063ZM39.144 39.2584C39.144 39.0804 38.9993 38.9358 38.8214 38.9358H35.8734C35.6956 38.9358 35.5508 39.0805 35.5508 39.2584V42.2063C35.5508 42.3842 35.6956 42.5289 35.8734 42.5289H38.8214C38.9993 42.5289 39.144 42.3841 39.144 42.2063V39.2584Z" fill="white"/>
<path d="M16.0046 26.5504C16.0065 26.0703 16.1936 25.4784 16.6294 25.0435C17.4211 24.204 18.9637 24.2122 19.7724 25.1742V19.1373C19.7724 18.0098 20.6896 17.0926 21.817 17.0926H26.5423V16.1168C26.5423 15.4643 27.0732 14.9333 27.7257 14.9333H36.8462C37.4987 14.9333 38.0297 15.4643 38.0297 16.1168V17.0926H42.7551C43.8825 17.0926 44.7998 18.0098 44.7998 19.1373V46.7902C44.7998 47.9176 43.8825 48.8349 42.7551 48.8349H21.817C20.6896 48.8349 19.7723 47.9176 19.7723 46.7902V33.5777C19.7723 33.3034 19.9946 33.081 20.2689 33.081C20.5432 33.081 20.7655 33.3034 20.7655 33.5777V46.7902C20.7655 47.3699 21.2372 47.8416 21.817 47.8416H42.7551C43.3349 47.8416 43.8066 47.3699 43.8066 46.7902V19.1373C43.8066 18.5575 43.3349 18.0858 42.7551 18.0858H39.8324V19.1212C39.8616 20.3306 38.6523 21.4344 37.37 21.1841L32.7884 20.369C32.4582 20.3102 32.1234 20.3102 31.7934 20.3688L27.2015 21.1847C26.0519 21.4407 24.6928 20.4069 24.7395 19.1216V18.0858H22.7439V28.1461L31.0433 36.446C31.5213 36.8943 31.9123 37.4351 32.1295 38.1811L32.7964 40.6002C32.815 40.8115 32.8 41.3006 32.1857 41.2109L29.7672 40.5441C29.1621 40.3901 28.4876 39.9603 28.0315 39.4592L22.744 34.1713V45.7374C22.744 45.8064 22.8002 45.8625 22.8692 45.8625H41.7023C41.7713 45.8625 41.8275 45.8064 41.8275 45.7374V19.9314C41.8275 19.6572 42.0498 19.4348 42.3241 19.4348C42.5983 19.4348 42.8207 19.6572 42.8207 19.9314V45.7374C42.8207 46.354 42.319 46.8557 41.7023 46.8557H22.8691C22.2525 46.8557 21.7507 46.354 21.7507 45.7374V33.1781L16.6289 28.0562H16.6289C16.2863 27.7329 15.9982 27.1089 16.0046 26.5504ZM37.0365 16.1168C37.0365 16.0119 36.9511 15.9266 36.8462 15.9266H27.7257C27.6208 15.9266 27.5355 16.0119 27.5355 16.1168V17.0926H37.0365V16.1168ZM25.7328 19.1216C25.7228 19.716 26.3177 20.3378 27.0278 20.2067L31.6197 19.3909C31.8422 19.3513 32.0664 19.3315 32.2906 19.3315C32.5151 19.3315 32.7395 19.3513 32.9625 19.391L37.544 20.2062C38.1276 20.3202 38.8439 19.8431 38.8392 19.1212V18.0859H25.7328V19.1216ZM17.3313 27.3537L18.7985 28.8209L20.4064 27.213L18.9391 25.7457C18.5502 25.3557 17.8116 25.2685 17.332 25.7457C16.9714 26.1073 16.8276 26.8553 17.3313 27.3537ZM28.3827 38.4057L29.9905 36.7978L21.1086 27.9154L19.5007 29.5233L28.3827 38.4057ZM21.7508 18.0892C21.2018 18.1236 20.7655 18.5799 20.7655 19.1373V26.1674L21.7508 27.1529V18.0892ZM31.172 38.4452C31.1379 38.364 31.0678 37.9766 30.6841 37.5089L29.0944 39.0986C29.4671 39.5233 31.0328 39.8495 31.6064 40.0209L31.172 38.4452Z" fill="white"/>
<path d="M34.0961 23.76C34.2901 23.566 34.6045 23.566 34.7984 23.76L35.0035 23.9651C35.2357 23.7597 35.5398 23.6338 35.8734 23.6338H38.8214C39.547 23.6338 40.1372 24.2241 40.1372 24.9496V27.8976C40.1372 28.6231 39.5469 29.2134 38.8214 29.2134H35.8734C35.1479 29.2134 34.5576 28.6231 34.5576 27.8976V24.9496C34.5576 24.9414 34.5587 24.9333 34.5589 24.9251L34.0961 24.4622C33.9021 24.2684 33.9021 23.9539 34.0961 23.76ZM35.5508 27.8976C35.5508 28.0755 35.6956 28.2202 35.8734 28.2202H38.8214C38.9993 28.2202 39.144 28.0755 39.144 27.8976V24.9496C39.144 24.7717 38.9993 24.6271 38.8214 24.6271H35.8734C35.814 24.6271 35.7589 24.6443 35.711 24.6725L37.2136 26.1751L37.5656 25.8231C37.7595 25.6292 38.074 25.6292 38.2679 25.8231C38.4618 26.0171 38.4618 26.3315 38.2679 26.5254L37.5647 27.2286C37.4677 27.3256 37.3406 27.3741 37.2135 27.3741C37.0865 27.3741 36.9593 27.3256 36.8624 27.2286L35.5508 25.917V27.8976Z" fill="white"/>
</svg>
