<svg width="30" height="30" viewBox="0 0 30 30" fill="none" xmlns="http://www.w3.org/2000/svg">
<path d="M28.4683 7.97023C28.1442 6.76534 27.1942 5.81554 25.9895 5.4911C23.7887 4.88892 14.985 4.88892 14.985 4.88892C14.985 4.88892 6.1817 4.88892 3.98083 5.46827C2.79928 5.79237 1.82613 6.76552 1.50204 7.97023C0.922852 10.1709 0.922852 14.7349 0.922852 14.7349C0.922852 14.7349 0.922852 19.3218 1.50204 21.4995C1.82648 22.7043 2.77611 23.6541 3.981 23.9785C6.20487 24.5808 14.9853 24.5808 14.9853 24.5808C14.9853 24.5808 23.7887 24.5808 25.9895 24.0015C27.1944 23.6772 28.1442 22.7274 28.4687 21.5227C29.0477 19.3218 29.0477 14.7581 29.0477 14.7581C29.0477 14.7581 29.0709 10.1709 28.4683 7.97023ZM12.1821 18.9512V10.5185L19.5028 14.7349L12.1821 18.9512Z" fill="#6946C6"/>
</svg>
