<?xml version="1.0" encoding="utf-8"?>
<!-- Generator: Adobe Illustrator 23.0.1, SVG Export Plug-In . SVG Version: 6.00 Build 0)  -->
<svg version="1.1" id="Ebene_1" xmlns="http://www.w3.org/2000/svg" xmlns:xlink="http://www.w3.org/1999/xlink"
	  viewBox="0 0 858.9 283.46" style="enable-background:new 0 0 858.9 283.46;"
	 xml:space="preserve">
<style type="text/css">
	.st0{fill:#6846C6;}
</style>
<path class="st0" d="M109.11,188.57c-7.54,0-13.64-6.11-13.64-13.64v-64.31c0-7.53,6.11-13.64,13.64-13.64h12.21V72.63h-7.64
	c-23.5,0-42.55,19.05-42.55,42.55v55.18c0,23.5,19.05,42.55,42.55,42.55h7.64v-24.34H109.11z"/>
<path class="st0" d="M750.31,96.97c7.54,0,13.64,6.11,13.64,13.64v64.31c0,7.53-6.11,13.64-13.64,13.64H738.1v24.34h7.64
	c23.5,0,42.55-19.05,42.55-42.55v-55.18c0-23.5-19.05-42.55-42.55-42.55h-7.64v24.34H750.31z"/>
<path class="st0" d="M255.79,150.31c0-23.04-16.25-37.15-37.29-37.15c-21.84,0-38.22,15.45-38.22,36.89
	c0,21.31,16.11,36.89,40.88,36.89c12.92,0,22.91-4,29.56-11.59l-11.05-11.99c-4.93,4.66-10.39,6.93-17.98,6.93
	c-10.92,0-18.51-5.46-20.51-14.38h54.2C255.53,154.17,255.79,151.91,255.79,150.31z M200.93,143.79
	c1.47-9.19,8.26-14.91,17.71-14.91c9.32,0,16.11,5.86,17.58,14.91H200.93z"/>
<polygon class="st0" points="345.72,185.87 318.02,149.25 344.65,114.22 322.55,114.22 306.97,135.13 291.79,114.22 268.48,114.22 
	295.11,149.78 267.55,185.87 290.19,185.87 306.43,163.9 322.15,185.87 "/>
<path class="st0" d="M407.15,113.16c-9.59,0-17.31,3.06-22.51,9.32v-8.26H364.8v97.48h20.77v-33.42c5.33,5.86,12.65,8.66,21.57,8.66
	c20.11,0,35.69-14.38,35.69-36.89S427.25,113.16,407.15,113.16z M403.55,169.89c-10.39,0-18.24-7.46-18.24-19.84
	c0-12.38,7.86-19.84,18.24-19.84s18.24,7.46,18.24,19.84C421.79,162.43,413.94,169.89,403.55,169.89z"/>
<rect x="464.13" y="87.06" class="st0" width="20.77" height="98.81"/>
<path class="st0" d="M580.33,150.31c0-23.04-16.25-37.15-37.29-37.15c-21.84,0-38.22,15.45-38.22,36.89
	c0,21.31,16.11,36.89,40.88,36.89c12.92,0,22.91-4,29.56-11.59l-11.05-11.99c-4.93,4.66-10.39,6.93-17.98,6.93
	c-10.92,0-18.51-5.46-20.51-14.38h54.2C580.06,154.17,580.33,151.91,580.33,150.31z M525.46,143.79
	c1.47-9.19,8.26-14.91,17.71-14.91c9.32,0,16.11,5.86,17.58,14.91H525.46z"/>
<path class="st0" d="M635.72,113.16c-22.77,0-39.42,15.31-39.42,36.89c0,21.57,16.65,36.89,39.42,36.89
	c22.77,0,39.28-15.31,39.28-36.89C675,128.47,658.49,113.16,635.72,113.16z M635.72,169.89c-10.39,0-18.38-7.46-18.38-19.84
	c0-12.38,7.99-19.84,18.38-19.84c10.39,0,18.24,7.46,18.24,19.84C653.96,162.43,646.11,169.89,635.72,169.89z"/>
</svg>
