<?xml version="1.0" encoding="UTF-8" standalone="no"?>
<!DOCTYPE svg PUBLIC "-//W3C//DTD SVG 1.1//EN" "http://www.w3.org/Graphics/SVG/1.1/DTD/svg11.dtd">
<svg version="1.1" xmlns="http://www.w3.org/2000/svg" xmlns:xlink="http://www.w3.org/1999/xlink" preserveAspectRatio="xMidYMid meet" viewBox="-1.0000048828125045 -1 134.0000048828125 144.29000488281247"><defs><path d="M130 0C130 0 130 0 130 0C130 84 130 130.67 130 140C130 140 130 140 130 140C52 140 8.67 140 0 140C0 140 0 140 0 140C0 56 0 9.33 0 0C0 0 0 0 0 0C78 0 121.33 0 130 0Z" id="ba0JCyzrz"></path><path d="M24.34 102.31C24.34 95.88 24.34 44.43 24.34 38C24.34 30.47 30.45 24.36 37.98 24.36C38.79 24.36 42.86 24.36 50.19 24.36L50.19 0.01C45.61 0.01 43.06 0.01 42.55 0.01C19.05 0.01 0 19.06 0 42.56C0 48.08 0 92.22 0 97.74C0 121.24 19.05 140.29 42.55 140.29C43.06 140.29 45.61 140.29 50.19 140.29L50.19 115.95L37.98 115.95C28.89 111.88 24.34 107.33 24.34 102.31Z" id="e1rUvc9dDW"></path><path d="M105.51 37.99C105.51 44.42 105.51 95.87 105.51 102.3C105.51 109.83 99.4 115.94 91.87 115.94C91.05 115.94 86.98 115.94 79.66 115.94L79.66 140.28C84.24 140.28 86.79 140.28 87.3 140.28C110.8 140.28 129.85 121.23 129.85 97.73C129.85 92.21 129.85 48.07 129.85 42.55C129.85 19.05 110.8 0 87.3 0C86.79 0 84.24 0 79.66 0L79.66 24.34L91.87 24.34C100.96 28.42 105.51 32.97 105.51 37.99Z" id="a6x68i7EbH"></path></defs><g><g><use xlink:href="#ba0JCyzrz" opacity="1" fill="#000000" fill-opacity="0"></use><g><use xlink:href="#ba0JCyzrz" opacity="1" fill-opacity="0" stroke="#000000" stroke-width="1" stroke-opacity="0"></use></g></g><g><use xlink:href="#e1rUvc9dDW" opacity="1" fill="#6846c6" fill-opacity="1"></use><g><use xlink:href="#e1rUvc9dDW" opacity="1" fill-opacity="0" stroke="#000000" stroke-width="1" stroke-opacity="0"></use></g></g><g><use xlink:href="#a6x68i7EbH" opacity="1" fill="#6846c6" fill-opacity="1"></use><g><use xlink:href="#a6x68i7EbH" opacity="1" fill-opacity="0" stroke="#000000" stroke-width="1" stroke-opacity="0"></use></g></g></g></svg>