<?xml version="1.0" encoding="UTF-8" standalone="no"?>
<!DOCTYPE svg PUBLIC "-//W3C//DTD SVG 1.1//EN" "http://www.w3.org/Graphics/SVG/1.1/DTD/svg11.dtd">
<svg version="1.1" xmlns="http://www.w3.org/2000/svg" xmlns:xlink="http://www.w3.org/1999/xlink" preserveAspectRatio="xMidYMid meet" viewBox="28.749855194695414 197.59300515818032 300.3082843401884 150.32558139534896"><defs><path d="M221.57 224.33C224.62 224.33 227.09 226.8 227.09 229.85C227.09 245.15 227.09 285.53 227.09 300.83C227.09 303.89 224.62 306.36 221.57 306.36C214.37 306.36 198.3 306.36 191.11 306.36C188.06 306.36 185.58 303.89 185.58 300.83C185.58 285.53 185.58 245.15 185.58 229.85C185.58 226.8 188.06 224.33 191.11 224.33C198.3 224.33 214.37 224.33 221.57 224.33Z" id="hTjeNgmY"></path><path d="M227.09 343.92L227.09 257.93" id="b1lMSicrYa"></path><path d="M319.53 224.33C322.58 224.33 325.06 226.8 325.06 229.85C325.06 245.15 325.06 285.53 325.06 300.83C325.06 303.89 322.58 306.36 319.53 306.36C312.33 306.36 296.27 306.36 289.07 306.36C286.02 306.36 283.55 303.89 283.55 300.83C283.55 285.53 283.55 245.15 283.55 229.85C283.55 226.8 286.02 224.33 289.07 224.33C296.27 224.33 312.33 224.33 319.53 224.33Z" id="b2CfT2zXOp"></path><path d="M283.55 343.92L283.55 257.93" id="a9lbbrP5g"></path><path d="M255.76 224.33L255.76 310.33" id="g3XyzElPwu"></path><path d="M259.22 205.55C259.22 207.73 257.67 209.5 255.76 209.5C253.85 209.5 252.3 207.73 252.3 205.55C252.3 203.36 253.85 201.59 255.76 201.59C257.67 201.59 259.22 203.36 259.22 205.55Z" id="bbATHQ18A"></path><path d="M54.05 301.16C54.05 294.74 54.05 243.37 54.05 236.95C54.05 229.43 60.15 223.33 67.67 223.33C68.48 223.33 72.54 223.33 79.86 223.33L79.86 199.02C75.28 199.02 72.74 199.02 72.23 199.02C48.77 199.02 29.75 218.04 29.75 241.5C29.75 247.01 29.75 291.09 29.75 296.6C29.75 320.06 48.77 339.08 72.23 339.08C72.74 339.08 75.28 339.08 79.86 339.08L79.86 314.78L67.67 314.78C58.59 310.71 54.05 306.17 54.05 301.16Z" id="cagErUVDg"></path><path d="M130.29 236.95C130.29 243.37 130.29 294.74 130.29 301.16C130.29 308.68 124.19 314.78 116.67 314.78C115.86 314.78 111.79 314.78 104.48 314.78L104.48 339.08C109.06 339.08 111.6 339.08 112.11 339.08C135.57 339.08 154.59 320.06 154.59 296.6C154.59 291.09 154.59 247.01 154.59 241.5C154.59 218.04 135.57 199.02 112.11 199.02C111.6 199.02 109.06 199.02 104.48 199.02L104.48 223.32L116.67 223.32C125.75 227.4 130.29 231.94 130.29 236.95Z" id="aTqdTe8Mf"></path></defs><g><g><use xlink:href="#hTjeNgmY" opacity="1" fill="#ffffff" fill-opacity="0"></use><g><use xlink:href="#hTjeNgmY" opacity="1" fill-opacity="0" stroke="#6846c6" stroke-width="8" stroke-opacity="1"></use></g></g><g><g><use xlink:href="#b1lMSicrYa" opacity="1" fill-opacity="0" stroke="#6846c6" stroke-width="8" stroke-opacity="1"></use></g></g><g><use xlink:href="#b2CfT2zXOp" opacity="1" fill="#ffffff" fill-opacity="0"></use><g><use xlink:href="#b2CfT2zXOp" opacity="1" fill-opacity="0" stroke="#6846c6" stroke-width="8" stroke-opacity="1"></use></g></g><g><g><use xlink:href="#a9lbbrP5g" opacity="1" fill-opacity="0" stroke="#6846c6" stroke-width="8" stroke-opacity="1"></use></g></g><g><g><use xlink:href="#g3XyzElPwu" opacity="1" fill-opacity="0" stroke="#6846c6" stroke-width="8" stroke-opacity="1"></use></g></g><g><use xlink:href="#bbATHQ18A" opacity="1" fill="#9b2ea2" fill-opacity="0.99"></use><g><use xlink:href="#bbATHQ18A" opacity="1" fill-opacity="0" stroke="#6846c6" stroke-width="8" stroke-opacity="1"></use></g></g><g><use xlink:href="#cagErUVDg" opacity="1" fill="#6846c6" fill-opacity="1"></use><g><use xlink:href="#cagErUVDg" opacity="1" fill-opacity="0" stroke="#000000" stroke-width="1" stroke-opacity="0"></use></g></g><g><use xlink:href="#aTqdTe8Mf" opacity="1" fill="#6846c6" fill-opacity="1"></use><g><use xlink:href="#aTqdTe8Mf" opacity="1" fill-opacity="0" stroke="#000000" stroke-width="1" stroke-opacity="0"></use></g></g></g></svg>